<?xml version="1.0" encoding="utf-8"?>
<!-- Generator: Adobe Illustrator 27.0.1, SVG Export Plug-In . SVG Version: 6.00 Build 0)  -->
<svg version="1.1" id="圖層_1" xmlns="http://www.w3.org/2000/svg" xmlns:xlink="http://www.w3.org/1999/xlink" x="0px" y="0px"
	 viewBox="0 0 302 176" style="enable-background:new 0 0 302 176;" xml:space="preserve">
<path style="fill:#29965C;" d="M285.59,17.74h-79.02V1.41l-5.52-0.69l-4.18,3.3v13.72h-91.14V1.41l-5.52-0.69l-4.18,3.3v13.72H16.98
	c-2.89,0-5.61,1.14-7.73,3.27l-5.94,5.94c-2.07,2.04-3.2,4.76-3.2,7.66v124.65c0,8.84,7.2,16.03,16.03,16.03v0v-0.01h268.61
	c2.89,0,5.6-1.13,7.72-3.26l5.94-5.94c2.07-2.04,3.2-4.76,3.2-7.66V33.78C301.62,24.94,294.42,17.74,285.59,17.74z"/>
<path style="fill:#3BDA8A;" d="M291.19,17.78h-78.64V0.71h-11.21v17.07h-89.65V0.71h-11.21v17.07H16.6
	c-5.74,0-10.39,4.65-10.39,10.39v130.63c0,5.74,4.65,10.39,10.39,10.39h274.59c5.74,0,10.39-4.65,10.39-10.39V28.17
	C301.58,22.43,296.93,17.78,291.19,17.78z"/>
<path style="fill:#5E5EDC;" d="M288.81,28H18.99c-0.61,0-1.11,0.5-1.11,1.11c0,0,0,0,0,0v129.65c0,0.61,0.5,1.11,1.11,1.11h269.82
	c0.61,0,1.11-0.5,1.11-1.11V29.11C289.92,28.5,289.42,28,288.81,28L288.81,28z"/>
<path style="fill:#EEFFF6;" d="M283.33,33.67H24.46V154.2h258.88V33.67z"/>
<path style="opacity:0.1;fill:#231815;" d="M24.46,33.67v4.83h254.05v115.7h4.82V33.67H24.46z"/>
<path style="fill:#FFF6C0;" d="M90.59,24.1H28.2c-0.55,0-1-0.45-1-1c0-0.55,0.45-1,1-1h62.39c0.55,0,1,0.45,1,1
	C91.59,23.65,91.14,24.1,90.59,24.1z M20.92,23.1c0-0.8,0.65-1.44,1.44-1.44c0,0,0,0,0,0c0.8,0,1.44,0.65,1.44,1.44
	c0,0.8-0.65,1.44-1.44,1.44C21.56,24.54,20.92,23.89,20.92,23.1z"/>
<path style="fill:#193368;" d="M288.81,160.25H18.99c-0.82,0-1.49-0.67-1.49-1.49V29.11c0-0.82,0.67-1.49,1.49-1.49h269.82
	c0.82,0,1.49,0.67,1.49,1.49v129.65C290.3,159.59,289.63,160.25,288.81,160.25z M18.99,28.38c-0.41,0-0.74,0.33-0.74,0.74v129.65
	c0,0.41,0.33,0.74,0.74,0.74h269.82c0.41,0,0.74-0.33,0.74-0.74V29.11c0-0.41-0.33-0.74-0.74-0.74H18.99z M283.71,154.58H24.08
	V33.29h259.63V154.58z M24.83,153.83h258.12V34.04H24.83V153.83z M301.96,32.71v-4.55c0-5.93-4.82-10.76-10.76-10.76h-5.1
	c-0.17-0.01-0.34-0.03-0.51-0.03l-0.03,0.03h-72.64V0.33h-11.96v0.01l-0.04-0.01v0.01l-4.45,3.5V17.4h-84.4V0.33h-11.96v0.01
	l-0.04-0.01v0.01l-4.45,3.5V17.4H16.6c-3.89,0-7.29,2.08-9.18,5.18l-0.04,0.04L7.31,22.7l-0.07,0.07l-0.07,0.07L7.1,22.91
	l-0.07,0.07l-0.07,0.07l-0.07,0.07l-0.07,0.07l-0.07,0.07l-0.07,0.07L6.61,23.4l-0.07,0.07l-0.07,0.07L6.4,23.61l-0.07,0.07
	l-0.07,0.07l-0.07,0.07l-0.07,0.07l-0.07,0.07l-0.07,0.07L5.9,24.1l-0.07,0.07l-0.07,0.07l-0.07,0.07l-0.07,0.07l-0.07,0.07
	l-0.07,0.07l-0.07,0.07l-0.07,0.07l-0.07,0.07L5.2,24.8l-0.07,0.07l-0.07,0.07l-0.07,0.07l-0.07,0.07l-0.07,0.07l-0.07,0.07
	l-0.07,0.07l-0.07,0.07l-0.07,0.07L4.5,25.5l-0.07,0.07l-0.07,0.07l-0.07,0.07l-0.07,0.07l-0.07,0.07l-0.07,0.07l-0.07,0.07
	l-0.07,0.07l-0.07,0.07L3.8,26.2l-0.07,0.07l-0.07,0.07l-0.07,0.07l-0.07,0.07l-0.07,0.07l-0.07,0.07l-0.07,0.07
	C1.19,28.78,0,31.63,0,34.61v124.65c0,9.06,7.35,16.41,16.41,16.41h268.6c3.09,0,5.89-1.27,7.93-3.31l0.07-0.07l0.07-0.07l0.07-0.07
	l0.07-0.07l0.07-0.07l0.07-0.07l0.07-0.07l0.07-0.07l0.07-0.07l0.07-0.07l0.07-0.07l0.07-0.07l0.07-0.07l0.07-0.07l0.07-0.07
	l0.07-0.07l0.07-0.07l0.07-0.07l0.07-0.07l0.07-0.07l0.07-0.07l0.07-0.07l0.07-0.07l0.07-0.07l0.07-0.07l0.07-0.07l0.07-0.07
	l0.07-0.07l0.07-0.07l0.07-0.07l0.07-0.07l0.07-0.07l0.07-0.07l0.07-0.07l0.07-0.07l0.07-0.07l0.07-0.07l0.07-0.07l0.07-0.07
	l0.07-0.07l0.07-0.07l0.07-0.07l0.07-0.07l0.07-0.07l0.07-0.07l0.07-0.07l0.07-0.07l0.07-0.07l0.07-0.07l0.07-0.07l0.07-0.07
	l0.07-0.07l0.07-0.07l0.07-0.07l0.07-0.07l0.07-0.07l0.07-0.07l0.07-0.07l0.07-0.07l0.07-0.07l0.07-0.07l0.07-0.07l0.07-0.07
	l0.07-0.07l0.07-0.07l0.07-0.07l0.07-0.07l0.07-0.07l0.07-0.07l0.07-0.07l0.07-0.07l0.07-0.07l0.07-0.07l0.07-0.07l0.07-0.07
	l0.07-0.07l0.07-0.07l0.07-0.07l0.07-0.07l0.07-0.07l0.07-0.07l0.07-0.07c2.04-2.02,3.31-4.82,3.31-7.92V33.79
	C302,33.43,301.98,33.07,301.96,32.71z M301.21,28.16v130.64c0,5.52-4.48,10.01-10.01,10.01H16.6c-5.52,0-10.01-4.48-10.01-10.01
	V28.16c0-5.52,4.48-10.01,10.01-10.01h274.6C296.73,18.15,301.21,22.64,301.21,28.16z M201.71,1.08h10.46V17.4h-10.46V1.08z
	 M197.23,4.2l3.73-2.94V17.4h-3.73V4.2z M100.86,1.08h10.46V17.4h-10.46V1.08z M96.38,4.2l3.73-2.94V17.4h-3.73V4.2z M295.16,168.82
	l-0.07,0.07l-0.07,0.07l-0.08,0.08l-0.07,0.07l-0.07,0.07l-0.07,0.07l-0.07,0.07l-0.07,0.07l-0.07,0.07l-0.07,0.07l-0.07,0.07
	l-0.07,0.07l-0.07,0.07l-0.07,0.07l-0.07,0.07l-0.07,0.07l-0.07,0.07l-0.07,0.07l-0.07,0.07l-0.07,0.07l-0.07,0.07l-0.07,0.07
	l-0.07,0.07l-0.07,0.07l-0.07,0.07l-0.07,0.07l-0.07,0.07l-0.07,0.07l-0.09,0.09l-0.06,0.06l-0.07,0.07l-0.07,0.07l-0.1,0.1
	l-0.05,0.05l-0.07,0.07l-0.07,0.07l-0.07,0.07l-0.07,0.07l-0.08,0.08l-0.07,0.07c-1.95,1.98-4.61,3.1-7.39,3.09H16.14
	c-8.64,0-15.66-7.03-15.66-15.66V34.62c0-2.79,1.1-5.41,3.09-7.4l0.07-0.07l0.07-0.07l0.07-0.07l0.07-0.07l0.07-0.07l0.07-0.07
	l0.07-0.07l0.07-0.07l0.07-0.07l0.07-0.07l0.07-0.07l0.07-0.07l0.07-0.07l0.07-0.07l0.07-0.07l0.07-0.07l0.07-0.07l0.07-0.07
	l0.07-0.07l0.07-0.07l0.07-0.07l0.07-0.07l0.07-0.07l0.07-0.07l0.07-0.07l0.07-0.07l0.07-0.07l0.07-0.07l0.07-0.07l0.07-0.07
	l0.07-0.07l0.07-0.07l0.07-0.07l0.07-0.07l0.07-0.07l0.07-0.07l0.07-0.07l0.07-0.07l0.07-0.07l0.07-0.07l0.07-0.07l0.07-0.07
	l0.07-0.07l0.03-0.03c-0.49,1.23-0.77,2.58-0.77,3.99v130.64c0,5.93,4.82,10.76,10.76,10.76h274.6c1.42,0,2.76-0.28,4-0.78
	L295.16,168.82z"/>
</svg>
