<svg version="1.1" xmlns="http://www.w3.org/2000/svg" xmlns:xlink="http://www.w3.org/1999/xlink">
	<symbol id="arrow" viewBox="0 0 136 168">
		<path d="M133.8 31L93 2.9c-.6-.4-1.2-.6-1.9-.7L89.5 1c-.9-.6-1.8-.9-2.8-.9-1.4 0-2.7.6-3.7 1.6-1.7 1.9-40.4 45.2-55.1 93.6L7 85.9c-.7-.3-1.4-.5-2.1-.5-1.1 0-2.1.3-3 1C.4 87.5-.3 89.3 0 91.1l10.7 70.6c.2 1.6 1.3 3 2.7 3.7.6.3 1.2.4 1.8.4.5.6 1.1 1.1 1.8 1.5.7.3 1.4.5 2.2.5.8 0 1.7-.2 2.4-.6L88 130c1.6-.9 2.6-2.6 2.5-4.5-.1-1.9-1.1-3.5-2.8-4.3l-2.6-1.3c-.3-.2-.6-.5-1-.6L64 109.6c3.3-9.2 17-35.9 69.7-70.4 1.4-.9 2.2-2.4 2.2-4.1.1-1.6-.7-3.2-2.1-4.1z" fill="#000"/>
		<path d="M105 49.1l-13-4.2 18.9-.2c2.5-1.9 5.2-3.7 7.9-5.7L106 35.9l20.1-1.8c.5-.3.9-.6 1.3-.9l-40.8-28S44.1 52.3 31 102.4l-26-12L7.5 107l18.5 1.1-17.8 4 1 6.7 12.3.7-11.8 2.7 5.9 38.7L82 123.8l-27.5-13.2c0-.1 3.2-24.9 50.5-61.5z" fill="#fbd528"/>
	</symbol>
	<symbol id="bg-shadow" viewBox="0 0 144 44">
		<path d="M141.8 1.7C140.4.6 138.6.2 136.9.3c-5 .4-17.9 1.8-27.5 5.2C97.2 9.8 34.2 27 26.6 25.1S-.4 32.3.8 36.3c3.7 12.1 16.6 6.9 35.6 2.5s73.9-15.1 87-21.5c11.7-5.7 24.3-11.1 18.4-15.6z" opacity=".8" fill="#004467"/>
	</symbol>
	<symbol id="btn-txt" viewBox="0 0 332 40">
		<path d="M20.5 10.4l-2-1.1L20 7.8h-5.1c.5.9.9 1.9 1.3 3l-5.1.7c-.1-.8-.4-2-1-3.7H7.8C7 9.5 6 10.9 4.7 12.3L0 9.1C3 6.6 5.1 3.6 6.4.3l5.1.7-1.2 2.4h10.3v3.8c1.7-2 2.9-4.4 3.6-6.9l4.8.5-1 2.6h11.4v4.4h-6.5c.6 1 1.1 1.9 1.4 2.7l-5.2.8c-.1-1.2-.5-2.4-1-3.5h-2c-.8 1.8-1.7 3.1-2.6 4l-1.2-.6v1.4h13.5v4.3H22.3v2.3h17.1v4.5h-6.5v2.1h5.4v4.6h-5.4v3.9c0 2-.3 3.3-1 3.9-.7.7-2 1-3.9 1h-7l-1-5.5 5.6.2c1 0 1.4-.5 1.4-1.4v-2.2H11.6c1.9 1 4.1 2.3 6.5 4L14.5 39c-2.3-2.2-4.9-4.2-7.8-6l2.5-2.7H1.7v-4.6h25.4v-2.1H.6v-4.5h15.9v-2.3H4.1v-4.3h12.4v-2.2l4 .1zM43.3 18c1.8-1.6 3.8-4.2 5.8-7.7S52.5 3.4 53.3.2l5.6 1.5c-.8 3-2 6-3.6 9v29.1h-5.8V19.3c-1.3 2-2.7 3.6-4.2 5l-2-6.3zm23.2 21.9v-22h-9.3v-5.6h9.3V.3h5.8v12h10.5v5.6H72.4v22h-5.9zM94.3 21c.8-.8 1.2-2.9 1.2-6.6v-.5h3.3v.4c0 3.8-.5 6.5-1.6 8.3l-2.9-1.2c-.3 7.8-1.6 13.9-4 18.2L86 34.4c2.2-4.3 3.2-10.8 3.2-19.5V2.5h15.1c-.3-.6-.6-1.3-1.2-2.1l5.8-.4c.6.9 1 1.7 1.2 2.5h15.5v4.2h-6.5v2.4h5.6V13h-5.6v10.2h-4.6V13H110V9.1h4.5V6.7h-10.2v2.4h4.4V13h-4.4v10.2h-4.7V13h-5.3v8zm13.8 9.2c-.1.4-4 .5-11.6.5h-.8l-1-4.2c1.3.1 2.9.2 4.7.2 2.6-1.4 4.5-2.9 5.8-4.6l6 1.3c-.8.8-1.9 1.6-3.2 2.4-1.3.8-2.1 1.2-2.3 1.2h4c1.2 0 2.3-.1 3.3-.1 1.5-1 2.7-2 3.7-3.1l5.7 2c-4.4 4.2-9.6 7.1-15.4 8.8 4.5-.1 8-.3 10.5-.6l-1.5-2 4.1-1.8c2.3 2.6 4.3 5.1 5.8 7.4l-4.5 2.2-1.3-2.3c-7.4.7-15.7 1.1-24.9 1.1h-1.7L92.4 34c1.5.1 3.2.2 5 .2 2.4-.6 4.8-1.4 7.2-2.4 2.3-.9 3.5-1.5 3.5-1.6zM94.3 6.7v2.4h5.3V6.7h-5.3zm14.3 14.6h-3.3v-7.4h3.3v7.4zm4.8-7.4v1.2c0 3.5-.5 6-1.5 7.4l-3.2-1.3c.9-1.5 1.3-3.6 1.3-6.5v-.8h3.4zm10 4c0 .5.3.8 1 .8h1.2v3.2h-2.2c-2.2 0-3.3-1-3.3-2.9v-5.1h3.3v4zM145.4 27.1v-5.3-.4c0-1.3.9-2.8 2.7-4.5 2.9-2.7 4.4-4.9 4.4-6.7 0-2.6-1.5-4-4.5-4h-.2c-2.1 0-4.3.4-6.7 1.1V1.7c2.1-.6 4.8-.9 8-.9 3 0 5.6.8 7.6 2.4 2 1.5 3.1 3.5 3.1 6 0 2.7-1.9 5.8-5.8 9.4-1.7 1.5-2.6 2.7-2.7 3.7v4.8h-5.9zm-.4 10v-6.6h6.3v6.6H145zM192.8 10.4l-2-1.1 1.6-1.6h-5.1c.5.9.9 1.9 1.3 3l-5.1.7c-.1-.8-.4-2-1-3.7h-2.4c-.8 1.7-1.8 3.1-3.1 4.5L172.3 9c3-2.5 5.1-5.5 6.4-8.8l5.1.7-1.2 2.4h10.3v3.8c1.7-2 2.9-4.4 3.6-6.9l4.9.6-1 2.6h11.4v4.4h-6.5c.6 1 1.1 1.9 1.4 2.7l-5.2.8c-.1-1.2-.5-2.4-1-3.5h-2c-.8 1.8-1.7 3.1-2.6 4l-1.2-.6v1.4h13.5v4.3h-13.5v2.3h17.1v4.5h-6.5v2.1h5.4v4.6h-5.4v3.9c0 2-.3 3.3-1 3.9-.7.7-2 1-3.9 1h-6.9l-1-5.5 5.5.3c1 0 1.4-.5 1.4-1.4v-2.2h-15.5c1.9 1 4.1 2.3 6.5 4l-3.6 4.7c-2.3-2.2-4.9-4.2-7.8-6l2.5-2.7h-7.4v-4.6h25.4v-2.1H173v-4.5h15.9v-2.3h-12.4v-4.3h12.4v-2.2h3.9zM221.5 12.7h-4.6V7.4h4.7V.2h5.5v7.2h9c0 17.2-.4 26.7-1.2 28.7-.8 2-3.2 3-7.1 3h-1.9l-1-6c1.1.2 2.1.3 3 .3 1 0 1.6-.3 1.9-.9.3-.6.4-2.4.5-5.2.1-2.9.2-6.7.2-11.4v-3h-3.7c-.1 5.8-.7 11.1-2 16-1.2 4.9-2.8 8.7-4.8 11.2l-4.4-4.6c1.6-2 2.9-5.2 4-9.5 1.2-4.4 1.8-8.8 1.9-13.3zm32.1 26.9h-5.4V37h-4.6v2.9h-5.5V3.1h15.5v36.5zm-10-31v22.9h4.6V8.6h-4.6zM273.4 28.9c2 1 3.6 2 4.8 2.9l-2.7 3.9c-1.3-1.3-2.5-2.4-3.7-3.2v7.4h-5V32c-1.4 2.6-3.5 4.7-6.4 6.5l-2.1-4.7c3.3-1.5 5.6-3.4 6.9-5.5H259v-4.1h8V22h-7.7v-3.7h3.8c-.7-1.5-1.3-2.7-2-3.7h-1.7v-3.8h7.1c-.4-.7-.9-1.5-1.6-2.3l3.3-.3V6.9h-9V2.6h9V.2h5.5v2.4h4v4.3h-4v2.5h-2.6l.7 1.4h7.2v3.8h-1.7c-.4 1.2-.9 2.5-1.7 3.7h3.6V22H272v2.1h7.4v4.1H272v2.5l1.4-1.8zm-7.6-14.3c.3.5 1 1.8 1.9 3.7h3.3c1-1.3 1.7-2.5 1.9-3.7h-7.1zm28.8 25.2h-5.1V23.5h-3.3c-.2 7.2-1.9 12.7-5.1 16.5l-4.6-3.9c3.1-2.9 4.6-7.7 4.6-14.4V11.3c6.1 0 11.1-.7 14.9-2.1l2.1 4.5c-3.6 1-7.5 1.6-11.9 1.8V19h12v4.5h-3.7v16.3zm-5.7-37.2h9v4.3h-9v2.7h-5.5V6.9h-4V2.6h4V.2h5.5v2.4zM317.7 27.1v-5.3-.4c0-1.3.9-2.8 2.7-4.5 2.9-2.7 4.4-4.9 4.4-6.7 0-2.6-1.5-4-4.5-4h-.2c-2.1 0-4.3.4-6.7 1.1V1.7c2.1-.6 4.8-.9 8-.9 3 0 5.6.8 7.6 2.4 2 1.5 3.1 3.5 3.1 6 0 2.7-1.9 5.8-5.8 9.4-1.7 1.5-2.6 2.7-2.7 3.7v4.8h-5.9zm-.3 10v-6.6h6.3v6.6h-6.3z" fill="#fff"/>
	</symbol>
	<symbol id="dialog" viewBox="0 0 472 120">
		<path fill="#fff" d="M364.6 42.6l-2.4 33.7-56.7-23.2 3.5-42.5L2.5 3l23.6 111.6 274.3 2.4 1.9-23.9 91.5 14.5.7-35.6 75 11.2z"/>
		<path fill="#dcdee0" d="M286.7 106.7L22.5 97.5l3.6 17.1 274.3 2.4 2.7-23.8 90.7 14.4.7-35.6 75 11.2-16.7-6.4-67.9-13.6-4.7 32.2-87.3-20.2z"/>
		<path fill="none" stroke="#000" stroke-width="5.4771" stroke-linecap="round" stroke-linejoin="round" stroke-miterlimit="10" d="M364.6 42.6l-2.4 33.7-56.7-23.2 3.5-42.5L2.5 3l23.6 111.6 274.3 2.4 1.9-23.9 91.5 14.5.7-35.6 75 11.2z"/>
	</symbol>
	<symbol id="main-title" viewBox="0 0 472 468">
		<path d="M471.4 204.1l-2.4-3.8-1.1-.7.6-1.1-.1-1.4-2.4-3.8-46.6-29.3.5-.5 2-4.4v-1.5l-2.2-4.1-1.1-.8.3-.6v-1.5l-2.2-4.1-18.1-13.5-4.8-1.2-2 .2-3.9 1.8-4.5 4.1-44-39.6-3.6-1.6-1.8-.2-5.8 1.8-17.3 16.7-1.8 3.9-.1 1.7 2.5 4.8.6.5-.1.1-.1 1.7 2.5 4.8 7.1 5-2.4.3-3.9 1.8-1.2 1.1-1.3 6.7c1.1 2.1 2.1 4.2 3.1 6.3l-.1.7c1 1.9 1.9 3.7 2.8 5.6-6.9-5.1-14.2-10.5-22-16.4l-4.4-3.3-3.7-.8 1.7-4.4-.2-1.2-1.9-3.3-1.4-1.2.5-1.2-.2-1.2-1.9-3.3-15.4-13.6 32.1-29.9 1.9-4.5-.1-1.6-2.4-4.3-.8-.6.3-.6-.1-1.6-2.4-4.3-18.6-13.6-5-1.3-2.1.2-4 1.7-34.7 32.4-1.7-1.2-6.1-4.7c.9-.4 1.7-.7 2.6-1.1 1.1-.5 2.6-1.2 4.1-2.6 2.5-2.4 3.2-5.4 3.1-7.4l-1.3-12-2.7-4.3-.3-2.7-2.4-3.8 10.5-9.8 1.8-3.6.2-1.6-2.6-5.3-.6-.4.1-1.3-2.6-5.3-18.1-13.6L213 0l-2 .1-4.4 1.8-14.5 13.5-12.7-9.6-4.9-1.5-1.7.1-4.5 1.9-18.8 18.8-1.6 3.5-.1 1.6 3.2 5.2-.1.2-.1 1.6 3.7 6 13.1 6.7c-16.6 2.8-35.4 3.1-50.2 1.9l-6.9 5.2-2 19.7c-.3 2.9.8 5.8 3 7.8-.1 3 1.3 5.8 3.7 7.6.1.1.2.1.2.2L87 118.8l1 9.3 2.5 1.8.5 5.2 26.3 19.2 9.1-1.1.5-.7 19.4 13.5 47.6 34.8 16.6 12.8 4.5 1.3 1.8-.2 4.1-1.9 14.4-14.8 1.6-5.2-.2-1.2-3-4.1-.2-.1.5-1.5-.2-1.2-3-4.1-21-11.7 33.4-33.8 24 15 3.6 1h1.5l4.4-1.6.3-.2-4.6 10.4-.1 4.4.6 1.5 2.1 2.6.3.2v2.7l.2.5-10.8 11.6-17 17.1-21.1 20.4.6 9 2.7 1.9.3 5.1 101.3 74.2 8.3-1.1 20.6-22 16.3-16.2 12-11.2 19.6.7 3.9-1 1.3-.8 3.1-4.3c2.8-14.9 2.9-28.4.3-42.5l-2.4-3.3c-.2-1.2-.4-2.4-.6-3.7l-.8-1.2 7.6 5.6 18.1 14 4.4 1.2 1.8-.2 3.3-1.2 19.8-12.9 3-5.5.3-1.2zm-320.9-81.7l5-6.3 1.8 4.3 1.8 1.5 5 1.6 22.7-1.5 3.8-1.5 1.4-1.1 2.2-4.5c0-4.6-.8-10.5-2-16.1l14 9.7-34.4 33.7-21.3-19.8zM411.4 388.9l.3-.7.1-1.1-2.4-4.7-22.5-13.3.8-1.8v-1.1l-2-4-1.3-1 .4-.9v-1.1l-2-4-10.4-7.8-4.8-.9-1.3.3-3.3 1.9-2.2 2.3-25.8-21-4.3-1.2-1.3.2-1.8.9.3-2-2.1-5.1-.9-.7-.1-.1.2-1.2-2.1-5.1-.9-.7-2-.9c-3.5-.8-8.3-2.4-13.7-4.4l1.1-2.1-.1-1.1-2.2-3.7-1.4-1 .7-1.2-.1-1.1-2.2-3.7-14.3-10.5-4.6-1.1-1.2.2-1.7.9-1.7-2.7-1.1-.8.5-1.7-.2-1.1-2.2-3.4-10.2-7.5-4.3-1.1-1.3.1-4.1 2-8.9 9.5-2.4-4-5.8-2.8-1 .1-.1.1-2.7-3.9-3.4-1.5 2.9-9-3.6-5.1.6-1.9-10.2-14.5-4.3-2.5-1.4-.2-4.7 1.2c-1.4 1.1-2.9 2.1-4.4 3.1-.1-.8-.2-1.5-.3-2.3l-2.4-3.9-.2-.1c-.1-1-.3-2-.4-3l-2.4-3.9-1-.7-3.1-1.2-.6-.4.5-1.8-.3-1.2-2.3-3.4-11-8-4.4-1.2-1.3.1-4.1 2-8.8 9.5-8.8-9.3-3.7-1.9-1.2-.2-5.5 1.9.7-2.8-.3-1-2.5-3.5-.7-.5.5-1.9-.3-1-2.5-3.5-15.6-10.9 2.9-3.6.1-1.1-1.7-4.9-1.4-1.4.1-.6-1.7-4.9-11.1-11.6-3.8-2-1.2-.2-3.9.5c-4 1.9-7.9 3.7-12.1 5.5l-4.1-3-15.7-11.8-3.9-1.4-1.2-.1-5 2-12.4 14.2L28 182 .5 212.3l1.4 9.4 2.2 1.6.8 5.4 14 10.2 37.8 27.6 15.5 11.3 8.1-.6 20.6-21.1-2.3 9.4 1 4.5-.2.1-4.2 13.5c-1.4 4.5.8 7.2 2.6 8.8-.6 4.4 2.7 6.9 4.2 8 9.2 6.7 16.8 10.3 24.5 7.7l.6 3.1c.1.8.2 1.6.3 2.1l2.2 2.2.5 2.7c.1.8.2 1.6.3 2.1l5.3 5.3s1.1.1 1.6.2c6.9 1 11.2 1.2 16.2.9.2 1.6.5 3.3 1 5.2.1.7.6 3.1 2.5 4.8.1.7.3 1.4.5 2.2.1.7.7 3.5 3 5.2.9.7 2.8 1.7 5.5 1.2l13-.7-.2.7c-.8 2.3-1 5.8 2.6 8.7-.3 2.2.2 5 3.3 7.2 8.4 6.2 15.8 9.4 23.5 6.3l.5 6.6 2.6 1.8.4 5.2 42.3 30.1 7.9-1.3 1.9-2.2.4 7.4 2.7 2 .3 5 11.6 8.6 7.8-1.2 10.4-11.7 1.4 1-5.7 6.1.3 8.8 2.8 2.1.2 4.9 11.7 8.7 6-1c.1 3.1 2.3 4.8 3.1 5.4-.8 4.2 2 6.3 3 7 8.8 6.5 19.1 12.4 31.1-1.2l16.4-18.8 16.2-17.5 9.6-9.7.4-.9 3.2.8 1.1-.2 4-2.2 11.1-12.1 1.8-4 .1-1.1-2.4-4.7-1-.3zm-194.9-88.5c.2-.2.5-.4.7-.6l.6.4 4.4 1.2 1.1-.1 1.1-.6.7 1-1.5 1.7c-2.6-1-4.9-2-7.1-3zm-13.7 23.4v2.8l-3.9 4.4c-1.2-1.9-2.9-4.1-5.5-6.1l-4.6 1.6c-.5-2.3-.9-4.3-1.2-6.2 2.9-1.3 5.7-2.7 8.6-4.3 1.6-.9 3.2-2 4.7-3l-1.1 2.5v4.7m98.9 46v-.8c.8.1 1.5.1 2.3 0l-3.7 4.1 1.4-3.3zm-168-140.6l2.3-2.5-.7 2.3.1 1.1.9 1.6-3-.3-2.8 1.1 3.2-3.3zm-7.2 7.3l-.6 1.5c0 4.2-.8 10.1-2.1 15.4-4-.4-8.1-.9-11.3-1.6l-1.4.3 15.4-15.6z"/>
		<path d="M178.2 80.3l1.7 1.4c2.2 6.7 4.7 18.4 4.7 26.2l-1.4 1.1-22.7 1.5-1.8-1.5c.5-5.4.8-11.8.3-18.2l-40.8 51.7-26.4-19.2 45.8-42.9c-4.9.3-13.2.7-17.9.5-1.7-.1-2.8-.3-3.5-.9-.8-.5-1.1-1.5-1-2.7l2.1-19.7c24.3 2 54.9-.2 74.6-8l-37.2-19 .1-1.6 18.8-18.8 1.7-.1 17.6 13.4L211.7 6l2-.1L232 19.2l-.2 1.6L213 38.3l2.4 1.7 9.4 6.2 1.3 11.9c.1.7-.2 2-1.3 2.9-.6.6-1.3 1-2.2 1.4-17 7.6-34.1 11.9-50 14.7l-3.8 3.7 9.4-.5zm102.4 47.1l.2 1.2-11.4 9.4h-1.5l-28.7-17.9-46 46.5 34.2 19 .2 1.2-14.4 14.8-1.8.2-16.8-12.9-47.8-34.9-19.5-13.6-.3-1.5 14.4-15h1.5l28.9 27 46.8-45.9-6.4-4.7-19.6-13.6-.3-1.5 14.9-14.5 1.6-.1 19 14.5 6.4 4.7L273 53.4l2.1-.2L294 66.9l.1 1.6-39 36.5 25.5 22.4zM402.9 197.7c-13.4.9-27.4 1.2-40.7.9 8.3 5.9 16.8 11.5 25.3 16.9.1-3.6-.4-7.2-.8-10.9l1.4-.9 18.6 2.5 1.3.8c2.5 14 2.3 26.8-.2 40.7l-1.3.8-21.6-.8-.9-1.1v1.1l-14.3 13.2-16.4 16.1-20.6 22-101.4-74.2 21.2-20.6 17.2-17.3 13.1-14.1h2l20.4 15.6 58.8 43.3 20.1 14.2c.8-3.9 1.6-7.9 2.2-11.8-36.3-22-69.3-45-107.2-70.8l-.6-1.5 7.5-16.9 2.1-.4c16.4 12.2 30.6 22.8 44.1 32.8-3.5-11.6-7.9-22.2-13.4-32.9l1.2-1.1 18.5-2.4 1.6.6c2.3 4.3 4.3 8.7 6 13.1 4.5-.6 9.1-1.3 13.7-2.2l-24.2-17.8-20-14 .1-1.7 17.3-16.7 1.8.2 48.4 43.7 9.2-8.3 2-.2 18.3 13.4v1.5l-9.4 8.5 58.7 37 .1 1.4-19.8 12.9-1.8.2-18.2-14.1-22.8-16.8 4.6 14.9-1.2 1.2zm-127.3 19l-4.5 6.8 19.3 14.2 5.8-5.9-20.6-15.1zm15.4-18.4l-5.6 5.6 21.2 15.6 3.7-3.8-19.3-17.4zm84.5-28.6c-8.6 1-15.8 1.6-23.8 1.7 1.2 3.5 2 7.1 2.8 10.7 13.5-.6 27.1-1.8 40.6-3.8l-20.6-15.2 2.2 5.3-1.2 1.3zm-67 81.3l19.4 14.3 8.7-3.7-22.3-16.4-5.8 5.8zm17.3-17.4l22.3 16.5 3.8-5-22.1-16.3-4 4.8zM19.5 226.8l-14-10.2 27.2-30.7L52.9 163l12.4-14.2 1.2.1 15.8 11.9 7.2 5.2c5.6-2.2 10.4-4.5 15.8-7l1.2.2 11.1 11.6-.1 1.1c-4.6 1.7-9 3.3-13.3 4.7l15.9 11.6 15.8 11.1.3 1-13 13.7-50.3 51.5-15.5-11.3-37.9-27.4zm58.5 5.7l-38.5-29.1-7.3 8.4 39.1 28.5 6.7-7.8zm15.6-17.1L54.9 186l-7 7.9 40 29.2 5.7-7.7zm12.4-16.7l-35.8-29.9-6.9 7.7 39.7 28.9 3-6.7zM126.6 267.1c-.3.5-.5.9-.7 1.1-.2.3-.5.4-1 .5-6.5.5-12.7 0-19.5-.8l-.7-.9 3-12 .8-.6c6.8 1.3 17.6 2.3 23.8 2.4l-5.7 10.3zm87.3 17.7c-7.1 6.9-14.9 13.7-23.7 18.9-3.9 2.2-7.9 4.1-12.1 5.7.4 6.6 2.1 13.6 5 21.7l-20.8 1.1c-.6.1-1 .1-1.2-.1-.4-.3-.6-.8-.7-1.8-1.7-7-1-11.3-1-17.5-10 .9-14.1 1.2-23.9-.2-.5-.1-1.8-.3-1.8-.3 0-.2-.2-1.2-.3-2.1l-2.8-15.8c12.1 3.6 23.3 5.3 33.6 4 1.5-7.7 4.6-15.1 8.8-22-1.2.4-2.3.6-3.5.9-1 .2-1.8.2-2.2-.1-.4-.3-.6-.8-.6-1.4l-.5-5.9c-3.1.6-6.3 1.1-9.4 1.4-.7.1-1.2 0-1.4-.2-.3-.2-.5-.5-.5-.8l-2-7.8-6.3 7.1-2.7 3.2 8.8-.3 1 .7c1.5 6 2.2 12.3 2.5 18.2l-.8.8-13.2.6-.8-.7c.3-5.1.2-10.6-.7-15.6l-9.7 11.6c-8.6 9.9-14.5 10.1-28.1.1-1.8-1.3-1.8-1.6-1.5-2.7l4.2-13.5c4.3 3.1 7.4 5.1 9.1 6.1 2 1.2 3 1.1 4.8-.9l21-23.8-12.3-1-1-.9c1.3-5.1 2.3-11.7 2.3-16.9l.6-.7 12 1.2 1 .9c.5 5 .2 10-.7 15.3l12.6-14-2.2-1.6-13.9-9.7-.1-1.1 10.5-11.9 1.2.2 13.5 14.2 13.5-14.5 1.3-.1 11 8 .3 1.2-5.6 6 .4-.3 10.8 1.1 1 .7c.8 4.7 1 8 .4 12.5l-1 .6-11.5-.7-.9-.7c.9-4.7 1.2-8.8.5-12.9l-7.6 8.2 1.8 1.3 13.1 9.2-.1.9-8.5 9.2-1.2.1-12.4-9.5-1.8-1.3-12 13.2c5-1 10.8-2.9 15.5-4.7l.8.6 2 5.9c13.9-4.4 28.2-12.5 40.6-21.8l1.4.2 10.2 14.5s-13.9 5.5-19.9 7.9l25.8 11.7.1 1-11.9 13.6-1.1.1-5.1-3.8zm-20.6-15.4c-5.6 7.4-10.5 15.4-13.3 24 8.6-4.4 13.6-12.4 20.3-18.9l-7-5.1zM226.7 291.5l-.2-.9 11.1-12.5 1-.1 6.5 10.8 14.6-15.6 1.3-.1 10.2 7.5.2 1.1-14.6 15.5 10.4 2.7.1.8-10.8 12h-.9l-7.7-6-8.7 9.5c4 1.4 7.8 2.7 11.1 3.8l-7.3 8.4c-1.3 1.5-2.2 1.8-4.1 1.2-2.5-.7-5.6-1.7-9.2-2.8l-2.3 2.6-15.7 18.4c-8.6 9.9-14.5 10.1-26.5 1.2-1-.8-1.1-1.1-.8-2.2l5.4-17.2c4.1 3 5.2 7.5 6.8 8.4 2 1.2 2.9 1.1 4.7-1l13.6-15.3c-3.2-1.1-6.2-2.2-9-3.3l-.4-1 5.2-12.3 1.1-.4c4.2 2 8.6 3.9 13.2 5.7l11.4-12.5-9.7-6.4zm-14.6 77.6l18.7-20.3 9.4-10.5 8-9.5h1l9.1 7.3 21.6 16 9.6 6.5v1.1l-8.5 8.9-9.9 11-16.8 19.8-42.2-30.3zm73.9-61c10.7 4.9 23.7 9.9 31.7 11.9l.9.7-1.6 11.8-.9.8c-11.2-2.9-27.9-10.3-38.9-15.9l-1.3 1.4c-2.9 3.1-2.5 3.6 7.6 11.1 13.4 9.9 14.6 9.9 21.8 3.1l6.3 10.3c.5.9.4 1.2-.4 1.9-5.1 4.8-8.4 7-12.5 7.3-4.5.4-8.2-.8-24.6-13-20.1-14.8-22.1-17.1-13.5-26.5l7.5-7.6 14.2-15.1 1.2-.2 14.3 10.5.1 1.1-11.9 6.4zm-28.7 64.3L240 359.5l-2.2 3.5 15.4 14 4.1-4.6zm9.6-12.6L252 346.1l-4.7 5.2 18.3 12.8 1.3-4.3zM328.7 414.2l3.9 2.9 10.7 7.5v1l-7.2 8-1.1.2-10.2-8-3.9-2.9-.9 1-11.6 13.8-11.7-8.7 12.4-13.2.9-1-3.6-2.6-10.9-7.7v-1l7.2-8 1.1-.2 10.4 8.1 3.6 2.6 4-4.4-1.9-1.4-10.9-7.7v-1l7-7.7 1.1-.2 6.1 4.8c1.5-3.6 2.3-6.3 2.9-9.6l.8-.7 9.1 2.5-13.3-9.9-43.3 47.9-11.6-8.6 22.2-24 20.5-22.4 9.1-10.2 1.1-.1 9.9 7.7 16.7 12.4 4.1-4.4-16.9-12.5-14.4-10.2-.1-1.1 9.5-10.2 1.3-.2 29.9 24.4 6.3-6.5 1.3-.3 10.4 7.7v1.1l-6.4 6.6 33.6 19.8-.1 1.1-11.1 12.1-1.1.2-14.2-11-16.4-12.4-4.1 4.4 17.4 13 10 7v1l-9.7 9.8-16.3 17.6-16.3 18.7c-7.3 8.1-12.9 7.8-23.4-.1-1.3-.9-1.3-1.2-.9-2.3l5.3-13.2c2.5 1.9 5.5 3.9 6.6 4.6 1.7 1.1 2.2.9 3.5-.5l31.4-34.3-14-10.4 4.8 7.2-.1 1c-3.5 1.7-7.2 3.4-10.7 4.7l6.8 4.8v1l-7 7.6-1.1.2-10.2-8-2.3-1.7-4 4.5zm7.2-16.1c4.6-2.3 9-4.8 13.3-7.6l-10.7-8c-.5 3.8-1.2 6.9-2.5 10.6l-.9.7-7.7-2.1 8.5 6.4z" fill="#fff"/>
		<path fill="#dbdbdb" d="M125.3 196.7l-52.7 55.9-58.4-46-8.8 10 67.4 49.1 64.2-65.4-9.6-6.8z"/>
		<path fill="#dbdbdb" d="M39.5 203.4l4.4-3.4 36.8 28.9-2.7 3.6zM54.8 186l5.2-5 35.9 31.1-2.3 3.3zM70.2 168.8l1-1.3 37.7 25.7-2.9 5.5zM111.3 164.4l-15.7 6.3 8.5 6 13.3-4.7.1-1.1zM231.3 224.8L332.7 299s7.6-8.6 27.3-28.7c19.9-19.9 23.5-22.4 23.5-22.4l.6-.5v-1.5l-8.9-6.3-48 47.1-86.9-70.6-9 8.7zM290.9 198.3l4.5-3.9 20.2 15-5.3 6.3z"/>
		<path fill="#dbdbdb" d="M275.3 216.5l2.8-5.2 20.6 17.5-2.7 2.9zM314 245l4.5-3.9 21.8 16.1-4.4 3.9zM329.9 228.9l4.4-3.2 22.8 14.3-5.1 5.1zM408.8 211.7l-.8-4.9-1.3-.8-6.2-.8-1.3 25-3.9-2.5-52.2-33.3 19 4s13.3.4 25.8-.1c12.5-.6 14.9-.8 14.9-.8l1.2-1.3-2.6-8.7-67.3 1.1-52.8-33.7-3 6.7.6 1.5 68.8 46.5 38.4 24.3 9.5 5-1.3 8.7 12.1.5 1.3-.8s1.5-8.8 2-20c.4-5.9-.9-15.6-.9-15.6zM289.7 359.5l-.4.4c-2 2.1-10.8 11.3-15.6 16.8-5.4 6.2-19.2 22.5-19.2 22.5L212.2 369l6.1-6.7 35.1 27.7 31.7-34.8 4.6 3.2v1.1z"/>
		<path fill="#dbdbdb" d="M266.9 359.8l.8-4.9-14.3-10.6-1.4 1.8zM257.3 372.4l3.2-4.2-18.4-11-2.1 2.3zM159.2 312.7s.6-3.7 1.5-6.3c0 0-15.9 2.4-28.4-1.9l1.1 7.7s16.2 2.2 25.8.5zM200.2 266.2l25.4-12.1-4.9-6.9s-21.7 11.1-28.8 14.3c-6.6 3-25.9 10.7-25.9 10.7l.3 3.6s-.3 2.6 3.3 1.5l10.3-3.5c-17.5 29.3-11.3 58-11.3 58l14.4-.7c-4.2-11.4-5-21.7-5-21.7 23.4-9.4 35.8-24.6 35.8-24.6l4.7 3.6 1.1-.1 7.2-8.4-26.6-13.7zm-22.9 36.2c4.1-17.8 16-33 16-33l.1-.1-.1.1 14.5 10.9c-11.3 16.9-30.5 22.1-30.5 22.1zM190.7 220.8l.3-1.9-4.7-3.5-21.4 20.6-22.3-15.9-4.1 4.7.1 1.1 16.1 11.3 6.6 4.8c-8.1 9.5-35.2 41.1-40 43.9-5.6 3.3-18.5-5.9-18.5-5.9l-1.7 5.3c-.6 1.5.9 2.3.9 2.3l2.7 2c11.2 8.6 17.6 5.1 17.6 5.1 3.3-.2 10.6-9.5 10.6-9.5l34.2-38.9 14.2 10.8 1.2-.1 4.7-5.1-22.2-15.8 11.5-.2 14.2-15.1zM309 338.8l2.8 4.6s.5.8-.3 1.6-8.8 10.1-17.7 6.9c0 0-3.5-.7-15.1-9.1-11.7-8.4-16.9-12.7-19.5-15.3-2.6-2.6-5.6-6-1.2-11.5 0 0 28.3 26.8 36.6 28.2 8.3 1.5 10.2-2 14.4-5.4zM281.9 312.6l4.2-4.4 12-6.3v-.9l-8.5-6.3-20.1 20.1 5.1 7.1c-.4-.9.5-1.8.5-1.8l2-2.3.3-.3s8.1 3.9 12 5.8c14.8 7.1 26.9 10.1 26.9 10.1l.9-.8.7-5.6c-15.2-2.8-33.5-13-36-14.4zM396.8 166.8c-6.8-4.9-13.4-8.8-19.8-14.1-28.1-22.8-52.1-43-52.1-43l-9.4 9.1-.1 1.7 35.5 25.4 20.8 15.3-24.1 1.3 4.1 9 15.1-.8 8.7-.9 1.2-1.3-1.5-4.8 19.2 14.1 46.1 34.7 1.8-.2 10.7-6.9c-8.2-5.7-32.4-21.5-56.2-38.6zM237.8 105.6l17.2-.6 39-36.5-.1-1.6-9.9-7.2-47.7 44.9L200 78.1l-7.5 7.3.3 1.5 26 18.3 9.5 7-51.4 54.8-10.8-8.5-31.4-27.2-7.4 7.7.3 1.5s69.9 49.9 83.1 60.6l1 .7 1.8-.2 7.3-7.6-34.8-20-7.7-6 15-1.4 31.4-32 14.7-14.5L268 138h1.5l6-5-28.2-20.6-9.5-6.8z"/>
		<path d="M173.4 82.5l1 18.5-15.4 2.8-.4 5.1 1.8 1.5 22.7-1.5 1.4-1.1s0-11-4.7-26.2l-1.7-1.4-4.9.3.2 2z" fill="#dbdbdb"/>
		<path d="M226.1 56.8v-.3l-.3-2.5-62.5-33.5-7.8 7.8-.8.8-.1 1.6 52.6 26.9c-22.6 5.7-63.2 14.2-91.1 10.7l-1 9.1s-.4 3.5 4.5 3.5c3.6 0 22.3-.3 37.9-1.7L115 127.5l-15-12.1-8.3 7.9 26.4 19.2 38.6-49.1 15.8-16.2c15.1-3.1 33.3-6.3 44.4-12.1 0 0 7.1-2 8.4-4.7.2-.4.6-.9.7-1.5.2-.7.2-1.4.1-2.1zM231.7 20.9L213 38.3l-14.7-5.9 23.8-20.2 9.7 7.1zM403.2 160.9l9.4-8.4-.1-1.6-9.5-7-11.4 10.9zM372.3 367.8l6.4-6.6V360l-5.8-4.2-8.6 9.3zM139.4 234.8l-3 12.7-8.2-2.2-1.2 6.1 1 .9 12.3 1 1.9-2.1s1.5-8.6.7-15.3l-1-.9-2.5-.2zM126.5 256.5l-4.3 7.1-16.4-.8-1 4.1.7.9s11.5 1.6 16.5 1c0 0 3.4.5 4.2-.9.8-1.3 6.2-11.2 6.2-11.2l-5.9-.2zM152.4 272.5l-2.8 14-8.3.3-.2 5.2.8.7 13.2-.6.8-.8s-.5-11.2-2.5-18.2l-1-.6zM171.5 255.5l2 5.9-7.3 3.2-.3 5.3s-10.7 2.3-11.1.8c-.5-1.5-1-3.7-1-3.7l8.9-.8 8.8-10.7zM192.2 228.5l-.9 9.6-7.5-.4-.6 3.6.9.7 11.5.7 1-.6s1.1-5.1-.4-12.5l-1-.7-3-.4zM367 373.4l-11.9-9.1-30.1-24.6-5 5.4.1 1.1 36.1 26.4.9.7-5.4 6 7.1 2.7 4.1-4.4 27.2 20.5 3.5 2.7 1.1-.1 5.7-6.2zM256.9 297.3l14.6-15.5-.2-1.1-4.8-3.5-19.3 22.5-.2-.1-15.2-14.8-5.2 5.9.2.9 16.5 12.1-15.6 18.2c-4.9 5.8-19.1 22.2-23.6 25-5.5 3.4-17.9-5.5-17.9-5.5l-1.8 5.3c-.7 1.4.8 2.2.8 2.2l2.6 1.9c10.7 8.3 17 4.7 17 4.7 3.2-.3 10.6-9.5 10.6-9.5l16.2-18.3 7 2.1c2.9 1 3.9-.7 3.9-.7l2.9-3.2-10.2-3.8 11.9-14.4 8.6 5.3h.9l5.3-5.9-14-6.9 9-2.9z" fill="#dbdbdb"/>
		<path fill="#dbdbdb" d="M214.8 321.9l5.3-5.7-12.4-4.1-2.2 5.5.4 1zM298.7 399.7l-3.3 3.7.1 1 19.5 14.4-12.4 14.5 5.7 4.3 12.6-14.4 12.8 9.5 1.3 1 1-.1 4.2-4.7zM312.2 387.9l-3.3 3.6.1 1 18.5 13.8-5.2 5.3 6.4 2.6 3.8-4.2 11.5 8.5 1.2 1 1.1-.2 4.3-4.6zM346.5 405.9s7.7-3 10.7-4.7l.1-1-3.1-4.6-14.2 5.5 6.5 4.8z"/>
		<path d="M380.8 407.6l-2.1-1.5-58-43.7-46.5 52.1 5.3 4.3 43.3-47.9 13.1 9.8-3.1 8.1-9.5-.3 4.2 3.3 7.7 2.1.9-.7c1.4-3.1 2.3-9.2 2.5-10.6l34.8 25.9c-8.4 9.8-30.5 35.1-34.9 37.8-5.5 3.4-16.2-5.8-16.2-5.8l-2.6 6.2c-.7 1.4.6 2.1.6 2.1l2.4 1.8c9.8 7.7 15.2 3.7 15.2 3.7 3.1-.4 10.6-9.5 10.6-9.5l32.4-36.1-.1-1.1z" fill="#dbdbdb"/>
	</symbol>
	<symbol id="Miguel-bd" viewBox="0 0 124 264">
		<path d="M117 90.6c.4-7.8-6.8-8.1-6.8-8.1l-4.1-.3 1.6-13.4s3.2-24.1-15.4-34.4-35.5-8.3-44-2.8c0 0-19.4 10.8-19.2 32.1 0 0-.1 5-.1 11.6-2-.6-9.2-2.1-9.9 7.6-.8 11.3 3.5 13.2 9.9 13.4.1 4.9 8.7 28.8 8.7 28.8-2.8.5-5.2 2.5-6.4 5.1 0 0-12.2-5.1-16.1.2S4.7 175.5 4.7 175.5c-3.3 23.1.7 45.6 8.8 67.5.7 1.9 7.5 7.8 10.1 8.3 13.1 2.7 65.6 16.5 88.2 2.9-.6-17.4-1.2-34.9-1.8-52.3 4.3-4.9 9-18.2 8.4-19.9-1.7-5.5-3.1-30.6-13.8-40.9.5-1 .7-13.3-11.1-15.7 0 0 7.4-10.4 10.1-22.4 0 0 12.5 1.2 13.4-12.4z" fill="#fff"/>
		<circle cx="53" cy="77.1" r="8.6" fill="#006196"/>
		<circle cx="83.7" cy="79.5" r="8.6" fill="#006196"/>
		<path d="M109.9 198.6c-1.3 0-2.4 1.2-2.3 2.5l1.8 51.5c-13.8 7.1-30.8 5.4-45.8 3.2-13.2-1.9-26.4-4.3-39.5-7-2.5-.5-4.6-1-6-2.4-1.1-1.1-1.7-2.8-2.3-4.4-8.9-24.1-11.8-45.8-8.7-66.6.1-.5.4-3.2-1.6-4.1-1-.5-2.3-.2-3 .7-.7.8-.8 2-.2 2.8-3.2 21.5-.2 44 8.9 68.8.7 1.9 1.6 4.3 3.5 6.2 2.5 2.4 5.9 3.1 8.4 3.7 13.1 2.7 26.5 5.1 39.8 7 1.5.2 3.1.4 4.6.6 15.1 2 31.6 2.7 45.5-5.1.8-.4 1.3-1.3 1.2-2.2l-1.9-53c.1-1.2-1.1-2.2-2.4-2.2zM27.1 83.3c.8-.5 1-1.5.6-2.2-.5-.8-1.5-1-2.2-.6-1.6 1-2.6 2.7-2.6 4.5s.9 3.6 2.4 4.7c.2.1.4.2.7.3.6.1 1.2-.2 1.6-.7.5-.7.3-1.8-.5-2.2-.6-.4-1-1.2-1-1.9 0-.8.4-1.5 1-1.9zM70.9 132.5c-2.9.5-5.8.4-8.6-.1-1.3-.3-2.6.6-2.9 1.9-.3 1.3.6 2.6 1.9 2.9l1.8.3c2.8.4 5.7.3 8.5-.1 1.3-.2 2.2-1.5 2-2.8-.2-1.4-1.4-2.3-2.7-2.1zM64.7 55.2c-.9-.2-1.7.4-1.9 1.3-.2 1-1.3 2-2.5 2.1-1.2.2-2.7-.3-3.8-1.2-.7-.6-1.7-.5-2.3.2s-.5 1.7.2 2.3c1.3 1.1 2.8 1.7 4.3 1.9.7.1 1.4.1 2 0 2.6-.4 4.7-2.3 5.2-4.7.2-.8-.4-1.7-1.2-1.9zM85.9 62.2c-1.8 0-3.8 0-5.2-.8-1.1-.6-2-2-1.5-3.1.4-.8 0-1.8-.8-2.2s-1.8 0-2.2.8c-1.3 2.8.5 5.9 2.9 7.3 1.1.6 2.3.9 3.5 1.1s2.3.2 3.3.2c.9 0 1.6-.7 1.6-1.6 0-1-.7-1.7-1.6-1.7zM61.2 98h.7c.2.4.6.7.9.9.8.6 1.8.8 2.7.9h.3c.9.1 1.9.2 2.9-.3.4-.2.8-.5 1.1-.9.3.1.6.1.9.1 1.4 0 2.6-.6 3.3-1.7.7-1.1.8-2.5.2-3.7-.6-1.3-1.7-2.1-2.9-2.3-.9-.2-1.7.5-1.8 1.4-.1.9.5 1.7 1.4 1.8.2 0 .4.2.5.4.1.2.1.5 0 .6s-.3.2-.6.2-.5-.1-.6-.2c0 0 0-.1-.1-.1-.5-.7-1.5-.9-2.2-.4-.6.4-.9 1.2-.6 1.9-.3.1-.9 0-1.2-.1-.5-.1-1-.2-1.3-.4l-.1-.1c.2-.7-.1-1.4-.7-1.8-.7-.4-1.5-.3-2 .3 0 0-.1.1-.2 0-.1 0-.2-.1-.2-.1v-.2c.1-.1.1-.2.2-.2.9-.2 1.4-1 1.3-1.9-.2-.9-1-1.4-1.9-1.3-1.1.2-2 1-2.5 2-.5 1.1-.4 2.2.1 3.2.2 1.3 1.2 1.9 2.4 2zM79.3 110.6c-2.1-1.9-4.9-2.7-7.1-3.2-2.5-.6-11-2.1-17 2.5-1.7 1.3-2.7 2.7-3.1 4.3-.5 2.2.5 4.6 2.4 5.5.4.2.8.3 1.3.4 1.2.2 2.5-.2 3.9-1 .4-.2.7-.4 1-.6.7-.4 1.4-.9 2-1 .8-.2 1.8-.1 2.7 0 .3 0 .7.1 1 .1.9.1 1.7-.5 1.8-1.4.1-.9-.5-1.7-1.4-1.8-.3 0-.7-.1-1-.1-1.1-.1-2.5-.3-3.9.1-1.1.3-2.1.9-2.9 1.4-.3.2-.6.4-.9.5-.9.5-1.7.7-2.2.5s-.8-1.1-.6-1.8c.2-.8.8-1.6 1.9-2.4 3.9-3 10-2.9 14.4-1.9 1.9.4 4.1 1.1 5.6 2.5 1.2 1 2.1 2.9 1.5 4.5-.1.2-.2.3-.2.3-.3.1-1.4-.5-1.9-.8-1.4-.8-3-1.4-4.9-1.9-.9-.2-1.7.3-2 1.2-.2.9.3 1.7 1.2 2 1.6.4 2.9.9 4 1.6 1.3.8 3.5 2 5.4.6.6-.4 1-1 1.3-1.8 1.3-3.3-.3-6.5-2.3-8.3zM54.2 105.6c.8-.3 1.7-.3 2.6-.1l.9.3c.4.1.8.3 1.3.3 1.2.2 2.2 0 2.9-.6.6-.5 1-1.3 1-2.1 0-1-.4-2.1-1.1-2.8-1-.9-2.3-1.4-4.3-1.5-1.2-.1-2.3 0-3.2.3-2.7.7-5 2.9-5.9 5.6-.2.7-.7 2.2.2 2.9.2.2.4.2.6.3.9.1 1.9-.6 3.1-1.4.7-.5 1.5-1.1 1.9-1.2z" fill="#000"/>
		<path d="M79.4 101.5c-.8-.5-1.8-.8-3-1.1-1.9-.4-3.3-.3-4.5.3-.9.5-1.6 1.4-1.8 2.4-.2.9 0 1.7.5 2.3.6.8 1.5 1.2 2.7 1.3h2.3c.9 0 1.7.3 2.5.8.3.2 1 .9 1.4 1.5 1 1.1 1.8 2 2.6 2.2.2 0 .5 0 .7-.1 1.1-.5 1-2 .9-2.7-.2-2.8-1.9-5.5-4.3-6.9zM62.5 122.3c1.1.4 2.2.7 3.3.8 1.4.2 2.7.2 4.1 0 .9-.1 1.5-.9 1.4-1.8s-.9-1.5-1.8-1.4c-2 .3-4 0-5.9-.6-.8-.3-1.8.1-2.1 1-.3.7.2 1.7 1 2zM40.1 52.1c-.9.1-1.6.8-1.5 1.7l.7 9.6c.1.8.7 1.4 1.4 1.5h.3c.9-.1 1.6-.8 1.5-1.7l-.7-9.6c-.1-.9-.8-1.6-1.7-1.5zM35.6 51.5c-.9 0-1.6.8-1.6 1.7l.6 15.4c0 .8.6 1.4 1.4 1.5h.3c.9 0 1.6-.8 1.6-1.7L37.3 53c0-.9-.8-1.6-1.7-1.5zM107 89.8c.1.9 1 1.5 1.8 1.4 0 0 .2.1.2.2.2.2.3.6.4 1.1.1.6 0 1.1-.2 1.4l-.2.2c-.8-.3-1.7.1-2.1.9-.3.8.1 1.8.9 2.1.2.1.5.2.7.2 1.3.2 2.6-.5 3.4-1.7.6-.9.8-2.1.6-3.5-.1-1.1-.5-2-1-2.7-.8-1.1-2.1-1.6-3.3-1.4-.7.1-1.3.9-1.2 1.8zM62.5 155.6c7.9 1 15.9.5 23.5-1.5 1.3-.4 2.1-1.7 1.7-3s-1.7-2.1-3-1.7c-10.2 2.8-21.4 2.5-31.5-.8-1.3-.4-2.7.3-3.1 1.6-.4 1.3.3 2.7 1.6 3.1 3.6 1 7.2 1.9 10.8 2.3z" fill="#000"/>
		<path d="M120 43.9c-.5-1-.9-2-1.4-2.9-3.3-7.2-5.4-11.5-14.8-13.1h-.3l-9.1-.2c-1.6 0-3 .6-4 1.6-.3-1.7-.8-3.1-1-3.4-.1-.1-.1-.3-.2-.4L76.7 6.3c-4-6-10-5.3-12.9-3.9-2.5.4-18.6 3.5-27.9 5.6-10.8 2.4-14.8 11.3-15.2 12.4-.2.5-1.8 3.9-3.2 7.8-2.9 8.2-2.2 10.9-1.3 12.4 1.5 2.4 1.5 2.5 1.4 9.6 0 1.2 0 2.5-.1 4.1-.1 7.7 3.9 14.3 6.9 18.3-1.1.2-2.2.5-3.2 1.2-2.7 1.7-4.2 4.7-4.5 9-.4 6 .4 10 2.8 12.6 1.9 2.1 4.4 2.9 6.9 3.2h.3c.1 5.7.3 7.4.4 8 .7 3.6 2.2 9.1 7.4 17.1-1.5.8-2.8 1.9-3.8 3.2-2.7-1.7-6.6-2-9-1.1l-2.1.9c-1.7.7-3.2 1.4-4.6 1.2h-.1c-1.3-.2-2.6.7-2.8 2-.2 1.1.4 2.2 1.4 2.6-.1.1-.1.3-.1.5v.2c-.2-.2-.5-.3-.7-.4-1.3-.5-2.7.2-3.1 1.4-1.7 4.6-2.1 9.6-1.1 14.5.2 1 1.1 1.8 2.1 1.9h.8c1.3-.3 2.2-1.5 1.9-2.9-.6-3.2-.5-6.5.3-9.7.2 1.5.7 2.9 1.3 4.2.4.8 1.1 1.3 1.9 1.4.4.1.9 0 1.3-.2 1.2-.6 1.7-2 1.2-3.2-.9-2-1.3-4.3-.9-6.4.1-.5 0-.9-.2-1.3 1.2-.3 2.3-.8 3.4-1.3.6-.3 1.2-.5 1.8-.7 1.7-.6 4.6.1 5.3 1-.5 2.5-.2 5.2.9 7.8 1 2.4 2.6 4.6 5 6.8.4.4.9.6 1.4.6.7.1 1.5-.2 2.1-.7.9-1 .9-2.5-.1-3.4-1.8-1.7-3.1-3.4-3.8-5.2-.8-1.9-1-4-.4-5.6.6-1.8 2.1-3.3 3.8-4 .3.4.9.9 1.6 1.5-.2.1-.3.1-.5.2-2.6 1.7-2.7 5.4-1.2 7.7 1.3 2 3.4 3 5.1 3.6 4.3 1.6 8.7 2.3 13.7 3 .8.1 1.5.2 2.3.3 5.8.8 11.4 1.3 17.1.9 7.5-.5 14.1-2.7 19.1-6.3 1.3-.9 3-2.4 3.4-4.6.3-1.5-.2-3.2-1.2-4.4-.8-.9-1.9-1.4-3.1-1.4.2-.2.3-.4.5-.5 1.3.3 2.5.8 3.6 1.5 2.3 1.6 3.7 4.5 3.4 7-.2 2.6-2.3 4.9-4.6 5.4-1.3.3-2.2 1.5-1.9 2.9.2 1 1.1 1.8 2.1 1.9h.8c4.5-.9 8-5 8.5-9.7.4-4.3-1.7-8.8-5.4-11.4-.9-.7-1.9-1.2-3-1.6 5.2-6.4 6-9.2 8.2-18.7v-.1l.6.1h.2c7.8.2 12.5-5 12.9-14.3.1-3.1-.7-5.6-2.4-7.5-2.5-2.7-6-3.1-6.6-3.1l-1.5-.1.4-3.7c1.6-.6 2.9-1.8 3.5-2.3 5.2-4.6 8.8-8.7 8.9-8.9.2-.3.4-.6.5-1-.2-.6 2-10.6-2.6-20.3zM94 75.6c-1.4-3.7-4.7-6.5-8.9-7-4.8-.6-9.3 2-11.4 6.1-.8-.4-1.6-.8-2.6-1-.7-.2-1.3-.3-1.9-.4v-.5c.1-.9-.6-1.7-1.4-1.8-.9-.1-1.7.6-1.8 1.4l-.1.7c-.3 0-.6.1-.8.1-.6.1-1.1.3-1.7.5-1.2-4-4.7-7.1-9.1-7.6-2.6-.3-5.2.3-7.2 1.6l-.6-18c0-.9-.8-1.6-1.7-1.6s-1.6.8-1.6 1.7l.6 18c0 .7.6 1.3 1.2 1.5-1.1 1.1-2 2.5-2.6 4l-10.9-1.9c.1-6.6 1.2-15.7 1.4-17.4C37.3 43.7 48.8 39 59 34.8c2.6-1.1 5-2 7.3-3.1 9.5-4.4 16.2 4.7 16.5 5 .5.7 1.4 1.1 2.4 1 .6-.1 1.1-.2 1.6-.4.1.6.4 1.1.9 1.5.3.2 6.9 5.4 11.6 7 2.3.8 7.1 13.7 4.2 25.7-.1.2-.1.5-.1.8 0 .4.1.8.2 1.2L94 75.6zm-4.2 4.7c-.4 3.4-3.5 5.7-6.9 5.3-3.4-.4-5.7-3.5-5.3-6.9.4-3.4 3.5-5.7 6.9-5.3 2.7.4 4.8 2.4 5.2 5v.8c.1.3.1.7.1 1.1zm-42.9-4c.4-3.4 3.5-5.7 6.9-5.3 3.4.4 5.7 3.5 5.3 6.9s-3.5 5.7-6.9 5.3c-3.4-.5-5.8-3.6-5.3-6.9zm63.1 8.6c.1 0 2.1.1 3.4 1.5.8.9 1.2 2.3 1.1 4-.5 9.7-5.8 9.8-7.8 9.7l-.4-.1.2-1.4c.2-1.3-.8-2.5-2.1-2.7-1.3-.2-2.5.8-2.7 2.1l-.5 4.3-.4 1.5c-2.6 11.5-2.7 11.9-12.6 22.9-1.2 1.3-2.5 2.6-3.9 3.6-1.1.8-1.3 2.3-.5 3.4.4.5 1 .9 1.6.9.6.1 1.2-.1 1.8-.5 1.3-1 2.5-2.1 3.7-3.2.2 1.1 1 1.9 2.1 2-.2.6-1.2 1.4-1.5 1.6-4.2 3.1-9.9 5-16.5 5.4-6 .4-11.9-.3-18.4-1.2-4.7-.6-8.8-1.3-12.6-2.7-1-.4-2.3-.9-2.8-1.7-.2-.3-.2-.8-.1-1 .6-.4.9-1 1-1.6 1.2.9 2.7 1.9 4.3 2.9.3.2.6.3.9.3.9.1 1.9-.3 2.4-1.2.7-1.1.3-2.6-.8-3.3-4.8-2.9-7.8-6-8.4-6.6-6.4-9-8-14.8-8.7-18.4-.1-.4-.3-2.1-.3-8.9v-.4c0-.2 0-.4-.1-.6v-3.4c0-1.3-1.1-2.4-2.4-2.4s-2.4 1.1-2.4 2.4v1.2c-1.7-.3-2.8-.8-3.5-1.6-1.4-1.5-1.9-4.5-1.5-9 .2-2.7.9-4.5 2.2-5.3.8-.5 1.9-.6 2.9-.5v.3c0 1.2.9 2.3 2.1 2.4h.3c1.3 0 2.4-1.1 2.4-2.4V77c.3-.2.6-.6.8-1l9.8 1.7c.5 5 4.4 9.1 9.5 9.8 5.7.7 10.9-3 12.2-8.4.3-.6 1-1 1.7-1.3l-.6 5.5c-.2 2.3.9 3.1 1.5 3.4.1.1.3.1.4.1.7.1 1.4-.3 1.7-1 .3-.7.1-1.4-.5-1.9v-.3l.6-5.9c.4.1.8.1 1.2.3 1.5.4 2.4 1.1 2.4 1.5 0 .5.2 1 .5 1.4.8 4.7 4.5 8.5 9.4 9.2 6 .8 11.6-3.5 12.4-9.5v-.5L104 78l-1 7.8c-.2 1.3.8 2.5 2.1 2.7 1.3.2 2.5-.8 2.7-2.1l.2-1.9 2 .4zM106.1 152c1-.9 1-2.5.1-3.4-.9-1-2.5-1-3.4-.1-6 5.6-9.2 14-8.6 22.2.1 1.2 1 2.1 2.1 2.2h.5c1.3-.1 2.3-1.3 2.2-2.6-.5-6.8 2.2-13.8 7.1-18.3z" fill="#000"/>
	</symbol>
	<symbol id="Miguel-la" viewBox="0 0 92 154">
		<path d="M87.5 126.5L70.4 61.4c-2.1.1-8.8-2.7-9.3-4.3-.7-2-.4-4.1-.1-6.2 1.4-12.2 1.6-21.1.4-33.4-.1-1.2-5.6-8.6-7.2-8.7-1.5-.1-12.2-7.2-13.7-6.3-1.3.8-1.2 2.7-1 4.2 1.3 8.9 1 18-.7 26.9 0 0-5.2-4-9.3-7.1-1.5-1.1-5.3 1-5.1 1.7 1.1 4.8 6.3 7.4 8.6 11.7 2 3.8 1.6 8.6 3.9 12.2 1.8 2.7 10.5 9.7 11.8 11.5-2.2.4-4.4.8-6.6 1.4 2.8 14.6 5.2 28.1 8 42.7C40.3 98.8 30.9 91 21 82.1 16.1 77.7 9.5 73.2 3.7 75 2.6 78.7 1.8 82.4 2 86.4c.8 3.8-.4 7.5.4 11.3.4 5.3 3 10.5 5.3 15.4.8 1.5 1.5 3.4 2.3 4.9 2.4 4.6 4.6 9.2 7 13.7 0-.2-.1-.4-.1-.6 18.3 11 38.3 22.4 59.5 20.6 2.5-.2 5.1-.6 7.3-1.9 3.6-2.2 5.5-6.5 5.7-10.7.2-4.4-.8-8.5-1.9-12.6z" fill="#fff"/>
		<path d="M89.7 125.9L72.6 60.8c-.3-1-1.2-1.7-2.3-1.7-1.7.1-3.5.1-5.2.3-.8-1-1.5-2-1.8-3-.5-1.5-.3-3.2-.1-5.1v-.1c1.4-12.5 1.6-21.6.4-33.9 0-.3 0-.5-.1-.8-.1-1-.2-2.1-.4-3.1-.4-1.9-3-6.4-6.1-6.6-.8 0-1.5.3-2.1.8-.1.1-.1.2-.2.2-.5-1.5-1.3-3.1-2.6-4.1-1.1-.9-2.3-1.2-3.6-1-.5.1-.8.3-1.2.5-.9-1.4-2.6-2.6-4.3-3-1.4-.4-2.7-.2-3.7.4-2.4 1.5-2.9 5.6-2.7 7.4 1.2 8.8 1.4 15.4.6 21.8-2-1.8-4.1-3.5-6.2-5.1-.7-.5-3-2.1-5.5-1.7-1.1.2-2.1.8-2.7 1.8-.7 1.1-.9 2.4-.5 4 .8 3.3 3.1 5.6 5.2 7.8 1.4 1.4 2.8 2.8 3.6 4.4.8 1.5 1.2 3.3 1.5 5.2.5 2.4 1 4.9 2.5 7.2 1.4 2.2 3.5 3.7 5.4 5.1.8.6 1.6 1.2 2.3 1.8.7.6 1.3 1.2 1.9 1.8-1 .2-2.1.4-3.1.7-1.2.3-1.9 1.4-1.7 2.6l7.2 37.2-24.6-22.2c-5-4.4-11.3-8.7-20.3-7C1 73.6.2 74.8.4 76c.2 1.2 1.4 2 2.6 1.8 5.7-1.1 10.5.6 16.4 5.9l27.2 24.4.1.1c.1.1.2.2.4.3l1.1.7c0 .1-.1.3-.1.4-.3 2.3-.1 4.6.4 6.8.3 1 1.2 1.7 2.2 1.7.2 0 .4 0 .6-.1 1.2-.3 1.9-1.5 1.6-2.7-.3-1.2-.5-2.5-.4-3.8l.3.3c1.8 1.3 3.2 3.1 3.9 5.2.3.9 1.2 1.5 2.1 1.5.2 0 .5 0 .7-.1 1.2-.4 1.8-1.7 1.4-2.9-1-3-3-5.6-5.6-7.5-1-.7-2.4-.5-3.1.5-.1-.1-.1-.2-.2-.3.4-.4.6-.9.7-1.5 0-.7-.1-1.4-.4-2l-.4-1-7.3-37.2c.7-.2 1.5-.3 2.2-.4-.1 1.6 0 3.1.2 4.7.2 1.1 1.1 2 2.2 2h.3c1.2-.2 2.1-1.3 1.9-2.5-.2-1.4-.2-2.9-.1-4.3v-.6c.4-.1.8-.1 1.2-.2-.1 1.8.1 3.7.6 5.4.3 1 1.2 1.6 2.2 1.6.2 0 .4 0 .6-.1 1.2-.4 1.9-1.6 1.5-2.8-.4-1.3-.5-2.6-.5-4 0-.3 0-.5-.1-.8 1.4-.2 2.9-.3 4.3-.5v.2c.2.8.2 1.7.1 2.5-.1 1.2.8 2.3 2.1 2.4h.2c1.2 0 2.1-.9 2.2-2.1.1-1.2 0-2.3-.2-3.5.9-.1 1.8-.1 2.7-.1l16.6 63.4c1 3.9 2.1 7.8 1.8 11.7-.2 3.1-1.5 7-4.6 8.9-1.9 1.1-4.2 1.5-6.3 1.6-19.7 2-42.1-10.6-61.5-22.5-1.1-.7-2.5-.3-3.1.7-.7 1.1-.3 2.5.7 3.1C30.6 141.9 52.2 154 72.5 154c1.4 0 2.7-.1 4.1-.2 2.6-.2 5.6-.7 8.3-2.3 3.9-2.4 6.5-7 6.8-12.5.2-4.5-1-9.1-2-13.1zM49.9 61.2c-1.2-1.5-2.5-3-4-4.3-.9-.7-1.7-1.4-2.6-2-1.7-1.2-3.3-2.4-4.3-4s-1.4-3.6-1.9-5.7c-.4-2.1-.9-4.3-2-6.4-1.1-2.1-2.8-3.8-4.4-5.4-1.8-1.9-3.6-3.6-4.1-5.7v-.2c.4.1 1 .4 1.6.8 3.9 3 7.7 6.3 11.1 9.9.3.4.8.6 1.2.7.2 0 4.8 1 6.4 7.9.3 1.2 1.5 2 2.7 1.7 1.2-.3 2-1.5 1.7-2.7-1.9-8.2-7.2-10.5-9.3-11.2l-1-1c1.8-9.8 1-18.7-.1-26.2-.1-.9.2-2.4.6-2.9.5.1 1.5.7 1.8 1.1.4 1.4.3 7.9.3 10.7 0 1.7-.1 3 0 3.7.1 1.1.1 2 .2 2.7 0 .3.1.6.1.8.3 1.7 1.7 2.1 2.4 2.1 2.2-.1 2.2-2.4 2.3-3.3v-3.2c-.1-2.2.4-8.3 1-11.2.4.6.8 1.6.8 2.5.1 2.1.4 5.7.7 9.7.2 1.7.3 3.2.4 4.3.2 2.2.3 3 1.5 3.6.7.4 1.6.3 2.3-.1 1.1-.7 1.1-1.8 1-2.8-.1-1.8.5-9.1 1.2-12.7.5.7 1 1.5 1.1 2 .2.8.2 1.6.3 2.5 0 .3 0 .6.1.8.5 5.5.8 10.2.7 15-3.5-2.6-10-6.8-14.5-6.1-.7.1-1.2.8-1.1 1.5.1.7.8 1.2 1.5 1.1 3.9-.6 10.9 4.2 14.1 6.8-.1 4.6-.5 9.3-1.1 14.7v.1c-.3 2.2-.5 4.6.3 7 .2.7.6 1.4.9 2-3.3.3-6.6.8-9.9 1.4z"/>
	</symbol>
	<symbol id="Miguel-ra" viewBox="0 0 136 152">
		<path d="M133.5 101.4c-2-.1-3.8-1.2-5.7-1.8-5.2-1.8-10.9 0-16.2 1.5-7.3 2-14.8 3.4-22.3 4.2-5.9.6-12.7.6-17-3.5-2.7-2.5-3.9-6.1-5.1-9.6-3.5-11-7-22-10.2-33-2 .7-4 1.4-6 1.9-.6-3.4-.9-6.9-.5-10.3.5-3.5 1.8-7 1.2-10.6-.7-4.6-4.6-8.2-5.7-12.7-1.3-5.2 1-11.1-1.5-15.8-.4-.7-1-1.4-1.8-1.7-1.9-.5-3.2 2-3.6 4-1.1 5.4-2.3 12.5-2.3 12.5C29 20.6 22.1 13.3 16.7 5.2c-.9-1.4-2.2-3-3.9-2.7-1.8.3-2.4 2.7-2 4.5.5 2.2 2 4 3.4 5.8 3.3 4.1 2.8 3.9-.8-.3-1.2-1.5-3.4-3.3-5.1-2.1-2.1 1.3-.7 4.5.9 6.4.5.6.9 1.1 1.4 1.7-1.3-1.2-5.4-.7-6.7.2-2.7 2 1.3 6.4 1.4 7.7.1 1.3.9 2.5 1.7 3.5 8 10.8 14.6 17.9 24.7 26.8 1.7 1.5 3.5 3 4.4 5.1.2.5.4 1.1.5 1.6-3 .2-5.9.1-8.9-.1C31 87.9 37.9 112 48.3 134.6c1.9 4.2 4.1 8.5 7.9 11.2 4.4 3.1 10.1 3.5 15.5 3.6 17.6.4 39.5-.4 57-2.4l1.1-.4.1 1.2c1.1-4.3 2-8.5 2.6-13 1.6-11.2 1.3-22.4 2-33.6-.4.1-.7.2-1 .2z" fill="#fff"/>
		<path d="M133.6 98.9c-.9 0-2-.5-3.1-.9-.6-.3-1.2-.5-1.9-.7-5.6-1.9-11.5-.3-16.7 1.2l-1 .3c-7.1 2-14.5 3.4-21.9 4.1-3 .3-5.4.4-7.4.1l-1.1-.2c-.1-.6-.4-1.2-.9-1.6-.6-.5-1.4-.7-2.1-.5-.1-.2-.2-.3-.3-.5-.7-1.1-2.2-1.4-3.3-.7l-.3.2c-1.9-2-2.9-4.8-4.1-8.2-3.5-11-6.9-22-10.2-33-.2-.7-.7-1.2-1.3-1.5-.6-.3-1.3-.3-2-.1-1 .4-2 .7-3 1-.3-2.2-.4-4.6-.1-6.8.1-1 .3-2.1.6-3.2.5-2.6 1.1-5.2.6-8.1-.5-2.9-1.9-5.3-3.2-7.7-1.1-1.8-2.1-3.5-2.5-5.3-.5-1.9-.4-3.9-.3-6.2.2-3.4.3-6.9-1.5-10.2-.8-1.5-1.9-2.5-3.3-2.9-1-.1-2.3.1-3.3.8-2.3 1.4-3 4.5-3.2 5.4-.6 2.9-1 5.8-1.3 8.7-6.4-5.3-12-11.5-16.7-18.4C18 2.8 15.9-.3 12.5.2c-1.3.2-2.4 1-3.2 2.1-1 1.5-1.3 3.5-.8 5.4v.2c-.5 0-1 .1-1.4.4-1.6.8-2.7 2.2-3 3.9-.3 1.3-.1 2.6.3 3.8-.8-.1-1.5.1-2.2.5-1.1.7-1.8 1.7-2.1 3-.8 4.1 3.5 10.2 4.8 12 8 10.7 14.8 18.1 25 27.1l.1.1c.9.8 1.8 1.6 2.5 2.4-1.6 0-3.2-.1-4.8-.2-.7-.1-1.5.2-2 .8-.5.5-.8 1.3-.7 2 3.3 24.9 10.3 49.2 20.8 72 2.1 4.5 4.4 9.2 8.7 12.2 4.9 3.5 11.1 3.9 16.9 4.1h4c11.2 0 25.7-.8 31.9-1.2 22.9-1.4 23.2-2 24-3.1.7-1.1.4-2.7-.7-3.4-.7-.5-1.6-.5-2.3-.2-3.5.7-38.7 3.4-56.7 3-5.3-.1-10.4-.4-14.2-3.1-3.3-2.3-5.3-6.3-7.1-10.2-9.9-21.5-16.6-44.3-19.9-67.7h.9c0 1.2.1 2.4.2 3.6.2 1.2 1.2 2.1 2.4 2.1h.3c1.3-.2 2.3-1.4 2.1-2.8-.1-1-.2-2-.2-3 .5 0 .9-.1 1.4-.1.1 1.2.3 2.3.6 3.5.3 1.1 1.3 1.8 2.4 1.8.2 0 .5 0 .7-.1 1.3-.4 2.1-1.8 1.7-3.1-.2-.8-.4-1.7-.5-2.6 1.6-.2 3.2-.5 4.7-.8v.6c-.1 1.4.9 2.5 2.2 2.7h.2c1.3 0 2.3-1 2.4-2.2.1-.7.1-1.5 0-2.2 1.1-.3 2.1-.6 3.2-1 3 10.2 6.3 20.4 9.6 30.5 1.1 3.4 2.5 7.6 5.7 10.6.1.1.3.2.4.3l.3.2H71c-2.8 1.5-5 4-6.1 6.9-.5 1.3.2 2.7 1.5 3.2.3.1.6.2.9.2 1 0 1.9-.6 2.3-1.6.5-1.4 1.5-2.7 2.7-3.6-.8 3.2-.6 6.6.5 9.6.4 1 1.3 1.7 2.3 1.7.3 0 .5 0 .8-.1 1.3-.4 2-1.8 1.5-3.1-.8-2.3-.9-5-.2-7.4.4-1.3-.4-2.7-1.7-3-.3-.1-.6-.1-.9-.1v-.9c.2.1.3.1.5.1.1 0 .3 0 .4.1.2.5.5 1 1 1.3.7.5 1.6.6 2.4.3l1.7.3h.2c2.4.3 5.2.2 8.5-.1 7.6-.8 15.3-2.2 22.7-4.3l1-.3c4.7-1.3 9.6-2.7 13.8-1.3.5.2 1 .4 1.6.6 1.4.6 3 1.3 4.9 1.3 1.3.1 2.5-1 2.5-2.4.2-1.4-.8-2.6-2.2-2.6zM38.2 60.8c-1.1-2.6-3.1-4.4-4.9-5.9l-.1-.1c-5.6-4.9-10.1-9.3-14.3-14v-.4c-.8-4.6 5.3-13.4 7.7-16.4.5-.6.4-1.5-.2-2-.6-.5-1.5-.4-2 .2-.8 1-7 9-8.2 15.5-2.4-2.8-4.8-5.9-7.3-9.3C7 25.9 5.3 22.8 5 21.1c2 1.2 5.8 4.7 7.6 6.9.9 1.2 1.7 2.1 3.1 1.8.9-.1 1.6-.7 1.9-1.6.4-1 .8-2-7.5-12.1-.7-.9-1.2-2.3-1.1-3 1 .8 3.2 2.8 7.7 8.2l.4.5c.9 1.1 2.7 3.2 4.7 1.6 1.9-1.6.7-3.4-1.4-6.5-1.3-2-2.9-4.1-4.1-5.6-1.2-1.6-2.5-3.2-3-4.9-.1-.5 0-1.1.1-1.4.2.1.6.5 1.3 1.6 5.6 8.3 12.4 15.5 20.3 21.6 0 .5-.1 1-.1 1.5-1.2 2-3.8 7.8.6 15.8.7 1.2 2.1 1.6 3.3 1 1.2-.7 1.6-2.1 1-3.3-3.7-6.8-.7-11-.6-11.1.3-.4.5-.9.5-1.5.2-5.4.8-10.8 1.8-16.1.2-.8.4-1.4.7-1.8 0 .1.1.1.1.2 1.1 2.1 1 4.8.9 7.6-.1 2.5-.2 5 .4 7.6.6 2.5 1.8 4.6 3 6.6s2.3 3.9 2.6 5.9c.3 2-.1 4.1-.6 6.3-.2 1.1-.5 2.3-.6 3.5-.4 3-.2 6 .2 8.7-3.2.9-6.6 1.5-10 1.7z"/>
	</symbol>
	<symbol id="pointer" viewBox="0 0 96 96">
		<path d="M16.2 9.3h-.6c-4.9.2-9.4 2.7-12 6.8C-.1 21.8.2 29 4.3 34.5l13.7 18c-1.7 1.1-3.2 2.4-4.3 4-.3.4-.6.7-.8 1.1-2.2 3.7-2.7 7.8-1.6 11.7 1.3 4.5 4.8 8.3 10 10.8 0 0 .1 0 .1.1l29.9 13.7c1.1.5 2.2.7 3.4.7.6 0 1.3-.1 1.9-.2 1.1-.3 2.1-.8 3-1.4l32.1-24.5c2.4-1.8 3.6-4.9 3.1-7.9l-.6-3.2c-1.7-9.5-5.7-18.6-11.5-26.3l-4.2-5.5c-.4-.5-.7-.9-1.1-1.4-2.7-3-6.4-4.8-10.4-5.1-.5 0-1-.1-1.4-.1-1.8 0-3.5.3-5.2.8l-.3-.4c-2.3-3-5.7-5-9.5-5.5-.6-.1-1.2-.1-1.9-.1-3.1 0-6.1 1-8.6 2.9-.3-.1-.5-.1-.8-.2-1-.2-2-.4-3-.4-2.1 0-4.1.5-6.1 1.5l-1.4-1.8c-3.1-4.1-7.7-6.5-12.6-6.5z" fill="#172230"/>
		<path d="M16.2 1.3h-.6c-4.9.2-9.4 2.7-12 6.8C-.1 13.8.2 21 4.3 26.5l13.7 18c-1.7 1.1-3.2 2.4-4.3 4-.3.4-.6.7-.8 1.1-2.2 3.7-2.7 7.8-1.6 11.7 1.3 4.5 4.8 8.3 10 10.8 0 0 .1 0 .1.1l29.9 13.7c1.1.5 2.2.7 3.4.7.6 0 1.3-.1 1.9-.2 1.1-.3 2.1-.8 3-1.4l32.1-24.5c2.4-1.8 3.6-4.9 3.1-7.9l-.6-3.2c-1.7-9.5-5.7-18.6-11.5-26.3l-4.2-5.5c-.4-.5-.7-.9-1.1-1.4-2.7-3-6.4-4.8-10.4-5.1-.5 0-1-.1-1.4-.1-1.8 0-3.5.3-5.2.8l-.3-.4c-2.3-3-5.7-5-9.5-5.5-.6-.1-1.2-.1-1.9-.1-3.1 0-6.1 1-8.6 2.9-.3-.1-.5-.1-.8-.2-1-.2-2-.4-3-.4-2.1 0-4.1.5-6.1 1.5l-1.4-1.8c-3.1-4.1-7.7-6.5-12.6-6.5z" fill="#fff"/>
		<path d="M23.5 67.7l29.9 13.7c.4.2.8.3 1.3.3.2 0 .5 0 .7-.1.4-.1.8-.3 1.2-.5l32.2-24.6c.9-.7 1.4-1.9 1.2-3l-.6-3.2c-1.5-8.7-5.2-17.1-10.6-24.1l-4.2-5.5c-.3-.4-.6-.7-.9-1-1.9-2-4.4-3.3-7.1-3.5h-1c-2.4 0-4.7.8-6.6 2.2l-2.9-3.8c-1.5-2-3.7-3.3-6.2-3.6-.4-.1-.8-.1-1.2-.1-2 0-4 .7-5.6 1.9l-2.4 1.8c-.8-.6-1.7-.9-2.6-1.2-.6-.1-1.2-.2-1.8-.2-2 0-4 .8-6 2.3l-1.2.9-4.3-5.6c-2.2-2.9-5.3-4.5-8.7-4.5h-.4c-3.3.1-6.3 1.8-8 4.5-2.5 3.9-2.3 8.9.5 12.6L26 46.7c-.4.1-.9.2-1.3.3-3.1.8-5.7 2.5-7.1 4.6-.2.2-.3.4-.4.6-1.5 2.5-1.8 5.2-1.1 7.8 1 3.1 3.5 5.7 7.4 7.7zm-1.2-12l.2-.3c.7-1.2 2.3-2.1 4.1-2.5.7-.2 1.5-.3 2.2-.3.8 0 1.6.1 2.3.4l7.7 4.5c.5.3 1 .4 1.5.4 1.1 0 2.2-.6 2.7-1.5.9-1.5.4-3.4-1.1-4.2L34.6 48 13.2 19.7c-1.5-2-1.1-4.1-.2-5.5.6-1 1.8-1.6 3-1.6h.2c1.4 0 2.7.7 3.7 2.1L36.3 36c.6.8 1.5 1.2 2.5 1.2.7 0 1.3-.2 1.9-.6 1.4-1 1.6-3 .6-4.4L33 21.3l1.2-.9c.9-.7 1.7-1.1 2.3-1.1h.3c.4.1.9.5 1.3 1.1L47.7 33c.6.8 1.5 1.2 2.5 1.2.7 0 1.3-.2 1.9-.6 1.4-1 1.6-3 .6-4.4L45 19.1l2-1.5c.5-.4 1.2-.6 1.9-.6h.4c.8.1 1.5.5 2 1.2l11.4 15c.6.8 1.5 1.2 2.5 1.2.7 0 1.3-.2 1.9-.6.7-.5 1.1-1.2 1.2-2.1.1-.8-.1-1.6-.6-2.3l-4.8-6.3c.9-.6 1.9-.9 2.8-.9 1.3 0 2.6.5 3.5 1.6.2.2.4.4.5.6l4.2 5.5c4.8 6.3 8 13.7 9.4 21.4l.2 1.3L54.3 75 26.2 62.1c-2.2-1.1-3.7-2.5-4.1-3.9-.3-.9-.2-1.7.2-2.5z"/>
		<path d="M53.6 70.9c.4-.1.8-.3 1.2-.5l17.1-13c.7-.5 1.1-1.2 1.2-2.1.1-.7-.1-1.4-.5-2 .8.8 1.9 1.2 3 .9.4-.1.8-.3 1.2-.5l1.6-1.2c.7-.5 1.1-1.2 1.2-2.1.1-.8-.1-1.6-.6-2.3-.5-.7-1.2-1.1-2.1-1.2-.8-.1-1.6.1-2.3.6L73 48.7c-1.3 1-1.6 2.8-.7 4.1-.5-.5-1.1-.9-1.8-1-.8-.1-1.6.1-2.3.6L51 65.4c-1.4 1-1.6 3-.6 4.4.8.9 2 1.4 3.2 1.1z"/>
	</symbol>
	<symbol id="sub-title" viewBox="0 0 344 264">
		<path d="M343.4 196.3c-.2-1.3-1-2.5-2.1-3.2l-1.2-.8c-.1-.1-.2-.2-.4-.3l-2.7-1.7 1.5-2.1c.8-1.1 1.1-2.5.9-3.8s-1-2.5-2.1-3.2l-1.3-.8-.3-.3-2.5-1.6c.2-.1.2-.2.2-.2-.4-.2-.8-.4-1.2-.5l-.6-.4c.3-.1.2-.1.2-.1-1.3-.8-3-.9-4.4-.3l-1-1.2c-.3-.4-.7-.7-1.1-.9-.2-.1-.5-.3-.8-.4-.3-.3-.5-.5-.8-.6-.7-.4-1.5-.7-2.4-.7-1.3 0-2.7.5-3.7 1.4.6-1 .9-2.2.7-3.3-.2-1.3-.9-2.5-2.1-3.2l-1.1-.7c-.2-.1-.3-.3-.5-.4l-5.9-3.8c-.4-.9-1.1-1.7-1.8-2.3-.2-.2-.5-.3-.8-.4-.2-.3-.5-.5-.8-.7-.4-.2-.8-.4-1.3-.5-.3-.3-.7-.7-1-.9-.2-.2-.5-.3-.7-.4-.3-.3-.6-.5-.9-.7-.3-.2-.6-.4-1-.5-.2-.2-.5-.4-.7-.5-.2-.1-.5-.3-.7-.4-.2-.3-.5-.5-.9-.7-.3-.2-.7-.4-1-.5-2.1-.7-4.1-1.6-6-2.7l-.4-.2h-.1c-.6-.4-1.3-.6-2-.6-.3-.6-.8-1.1-1.4-1.5l-13-8.5-.1-.1c-.3-.2-.6-.3-.9-.4l-.6-.4-.1-.1c-.4-.2-.8-.4-1.2-.5-.3-1.1-.9-2.1-1.8-2.8l-3.6-2.5c-.4-.3-.5-.3-.5-.4-.3-.2-.7-.4-1.1-.5-.3-.4-.4-.5-.5-.5-2.1-1.3-5-.8-6.7 1.2-.3.4-.6.7-.9 1-.2-.1-.5-.1-.7-.2-.2-.1-.3-.3-.5-.4l-2.7-1.8c1.4-1.7 1.4-4.2 0-5.9l-2.7-3.3c-.3-.4-.7-.7-1.2-1-.2-.1-.5-.3-.7-.4-.2-.2-.5-.4-.9-.6-.7-.4-1.5-.7-2.4-.7-.5 0-1.1 0-1.6.2-.1-.1-.1-.2-.2-.4l-3-3.4c-.2-.2-.6-.5-1-.7l-.6-.3c-.2-.2-.5-.5-.9-.8-.7-.4-1.4-.7-2.3-.7-1.3-.1-2.7.3-3.7 1.2-.6.5-1.3 1-1.9 1.4l-.3-.2-.1-.1c-.2-.1-.3-.2-.5-.2v-.1l-1.1-2.8c-.1-.4-.3-.7-.6-1 0-.1 0-.1-.1-.2l-1-3c-.3-1-1-1.9-1.9-2.4-.2-.1-.3-.2-.5-.3-.3-.3-.6-.6-1-.8-.3-.2-.7-.4-1.1-.5-.1 0-.1 0-.2-.1-.1 0-.1-.1-.2-.1l-1.1-.7c-.2-.1-.3-.3-.5-.4l-8.3-5.4-.1-.1c-.8-.5-1.7-.8-2.6-.7-.1-.1-.1-.2-.2-.3 0-.9-.6-1.5-1.2-1.9-.3-.2-.5-.3-.8-.4-.2-.3-.5-.5-.8-.7-1-.6-2.3-.9-3.6-.6l-3.2.6-.1-.2c-.1-.4-.3-.7-.6-1v-.1l-1-3c-.3-1-1-1.8-1.9-2.4-.2-.2-.5-.3-.8-.4-.3-.3-.5-.5-.8-.7-.3-.2-.7-.4-1-.5-.1 0-.1 0-.2-.1-.1 0-.1-.1-.2-.1l-1.1-.7c-.2-.1-.3-.3-.5-.4l-8.3-5.4-.1-.1c-.8-.5-1.7-.7-2.6-.8-.1-.1-.1-.2-.2-.3-.2-.8-.7-1.3-1.4-1.7l-.6-.3c-.3-.3-.6-.6-1-.8-1-.6-2.3-.9-3.7-.6l-.7.1c.1-1.6-.7-3.1-2.1-3.9-.2-.1-.3-.2-.5-.3-.3-.3-.6-.6-1-.8-.3-.2-.6-.3-.9-.4-3.4-1.2-7.4-3.2-11.8-5.9-1-.6-2.1-1.3-3.2-2l-.2-.1c-.3-.7-.6-1.4-1-2.1-.3-.9-.9-1.5-1.6-1.9l-.6-.3c-.3-.3-.6-.6-.9-.8-1-.6-2.4-.9-3.7-.7l-1.6.3c.1-1.6-.7-3.1-2.1-4-.2-.1-.3-.2-.5-.3-.3-.3-.6-.6-1-.8-.3-.2-.6-.3-.9-.4-3.4-1.2-7.4-3.2-11.8-5.9-1-.6-2.1-1.3-3.2-2l-.1-.1c-.3-.7-.6-1.5-1-2.2-.4-.8-1-1.4-1.7-1.8-.2-.1-.3-.2-.5-.2-.3-.3-.6-.6-1-.9-1-.6-2.4-.9-3.7-.7l-.6.1c-.3-.7-.9-1.4-1.5-1.9l-1.3-.8-.4-.4-16.7-10.8-1.6-2.1c-.4-.5-.8-.8-1.3-1.1l-.6-.3c-.3-.3-.6-.6-.9-.8-.7-.4-1.6-.7-2.5-.7-1.5-.1-3 .4-4.1 1.4h-.1c-.1-.2-.2-.4-.3-.5 0-.1.1-.2.1-.3.3-1.4-.1-2.8-1.1-3.8l-3.2-3.2c-.3-.3-.6-.5-.9-.7-.3-.2-.6-.4-1-.5-.2-.2-.5-.4-.7-.5-.2-.2-.5-.3-.7-.4-.3-.5-.8-1-1.4-1.3l-4-2.6h-.2l-1.5-1c-.1 0-.2 0-.2-.1-.5-.3-1.1-.5-1.7-.6-.3-.3-.6-.6-.9-.8-.2-.1-.5-.3-.7-.4-.2-.3-.5-.5-.9-.7-.2-.1-.5-.3-.7-.4L58.8.3c-1.5-.6-3.3-.5-4.8.2-2.1-.8-4.6-.3-6.2 1.4l-6 6.3c-.9 1-1.3 2.2-1.2 3.4 0 .3.1.6.2.9-.4.2-.7.5-1 .8l-9.9 10.5c-.9 1-1.3 2.2-1.2 3.4.1 1.2.8 2.3 2 3l.9.6c.2.2.4.4.7.5l3.7 2.4.1.1c1.1.7 2.4.9 3.7.7l7.6 5c.2 1.2.9 2.3 2 3L53 45l.1.1c.2.1.5.3.8.4l.8.5.1.1c1.1.6 2.3.8 3.5.7.2 1.2.9 2.2 2 3l1 .7c.2.1.3.3.5.4l3.6 2.4.1.1.6.3.3.2c.2.2.4.4.7.6l3.6 2.3.1.1c1.1.7 2.4.9 3.6.7l3.8 2.5c.2 1.1.9 2.1 2 2.8l.7.5c.2.2.5.4.8.6l3.5 2.3.1.1c1.2.7 2.7.9 4 .6l.2.5c.4.9 1 1.7 1.9 2.2.1.1.3.1.4.2.3.4.7.7 1.1.9.7.4 1.5.6 2.3.7.3.9.9 1.7 1.7 2.2l.8.5c.2.2.5.4.7.6l3.8 2.5.1.1c1.3.8 2.8 1 4.2.6l.4.3v.3c.2 1.2.9 2.4 2 3.1l.9.6c.2.2.4.4.6.5l3.7 2.5.1.1c1.3.8 2.8 1 4.3.6l.4 1.1c.4.9 1 1.7 1.9 2.2.1.1.3.1.4.2.3.4.7.7 1.1.9.7.4 1.5.6 2.3.7.3.9.9 1.7 1.7 2.2l.7.5c.2.2.5.4.8.6l3.8 2.5.1.1c1.3.8 2.8 1 4.2.6l.4.3v.3c.2 1.3.9 2.4 2 3.1l.8.5c.2.2.4.4.7.6l3.7 2.5.1.1c1.3.8 2.8 1 4.2.6l.8 1.4c.4.7 1 1.3 1.6 1.7.2.1.5.3.7.4.3.3.6.5.9.7.5.3 1 .5 1.5.6.3.4.6.8 1 1.2.7.5 1.5 1.1 2.3 1.7l.6.4c.1.1.2.1.3.2.2.2.5.4.7.5l.6.4c.8.5 1.7.9 2.5 1.3.4.7.9 1.3 1.6 1.6.2.2.5.3.7.4.3.3.6.5.9.7.4.3.9.5 1.4.6.8.2 1.6.4 2.5.5.6.9 1.2 1.7 1.9 2.5.3.4.7.7 1.1.9l.6.3c.3.3.6.6 1 .8 1.3.8 2.9 1 4.4.5l.9 1.5c.4.7 1 1.3 1.6 1.7.2.1.5.3.7.4.3.3.6.5.9.7.5.3.9.5 1.4.6.3.5.6.9 1.1 1.3.7.6 1.5 1.1 2.3 1.7l.6.4s.1 0 .1.1l.9.6.6.4c.9.5 1.7 1 2.6 1.3.4.6.9 1.2 1.5 1.6.2.2.5.3.7.4.3.3.5.5.9.7.4.3.9.5 1.4.6.8.2 1.6.4 2.4.5.6.9 1.2 1.7 1.9 2.5.3.4.7.7 1.1.9l.6.3c.3.4.7.6 1 .8.8.5 1.8.7 2.8.7.3.4.7.7 1.1 1l.8.5c.2.2.5.4.7.6l3.6 2.3.1.1c.6.4 1.3.6 2 .7.2.1.3.3.5.4l.9.6c.2.2.4.4.7.5l3.5 2.3.1.1c.3.2.7.3 1 .5.3.6.7 1.2 1.4 1.7.4.3.9.7 1.6 1.1.4.3.9.7 1.6 1.1.3.2.6.4 1 .6 3.5 2.2 6.4 3.1 9.1 2.7l.1 1.5c.1 1.5 1 2.9 2.2 3.7.3.2.6.3.9.4.2.2.4.4.7.6.6.4 1.3.6 2.1.7 1.2.2 2.4.2 3.6.2.3.5.8 1 1.3 1.3.1.1.2.1.3.2.2.1.5.3.7.4.1 1.4.8 2.7 2.1 3.6l3.3 2.2c.3.2.5.3.8.5.1.1.2.1.4.2l.4.3c.3.2.5.3.8.5 2.5 1.5 4.4 2.1 6.3 2 1.7-.1 3-.9 4.2-1.9.4.9 1 1.8 1.9 2.4l1.4.9c.1.1.2.1.2.2l1.9 1.2-.5 1c-1 2.2-.3 4.7 1.7 6l1.3.8.3.3 5.6 3.7.4.2c2.2 1.4 4.3 1.8 6.3 1.2 1-.3 1.9-.8 2.6-1.4l5.7 3.7c-.5.9-.6 1.9-.5 3 .2 1.3 1 2.5 2.1 3.2l1.3.9c.1.1.2.2.3.2l25.5 16.9.1.1c2.2 1.4 5.1.8 6.7-1.4l2.5-3.5c.8-1.1 1.1-2.5.9-3.8-.1-.6-.3-1.1-.6-1.6.4-.3.7-.6.9-1l2.5-3.5c.4-.5.7-1.2.8-1.8 1.3-.2 2.6-.9 3.4-2.1l2.5-3.5c.8-1.1 1.1-2.5.9-3.8zM312.3 229.7c.8-1.1 1.1-2.5.9-3.8-.2-1.3-1-2.5-2.1-3.2l-1.3-.8-.3-.3-2.9-1.9-.1-.1s-.1 0-.1-.1l-1.3-.8-.2-.2c-2.2-1.4-5.1-.8-6.7 1.3l-4.1 5.5c-1.9 2.6-4.7 4.7-8.3 6.2-1.1.4-2.1.8-3.2 1.1.6-.3 1.2-.6 1.8-1.2 1-1 1.6-2.5 1.4-3.9-.1-1.3-.3-2.5-.5-3.8 1.9.4 3.9-.3 5.1-1.9l2.2-3c.8-1.1 1.1-2.4.9-3.8-.2-1.3-1-2.5-2.1-3.2l-.7-.5c-.2-.2-.5-.4-.8-.6l-7.7-5.1c-.1-.5-.2-.9-.3-1.4-.2-1.1-1-2.2-2.1-2.9-.1 0-.1-.1-.2-.1l-.5-.3c-.3-.3-.5-.5-.9-.7-.1 0-.1-.1-.2-.1l-4.5-2.5c-1.4-.8-3-.8-4.4-.3l-5.7-3.8-.1-.1c-1.3-.8-2.8-.9-4.1-.5.4-.8.5-1.8.3-2.7-.2-1.3-1-2.5-2.1-3.2l-4.1-2.7-.1-.1c-.3-.2-.7-.4-1.1-.5l-.3-.2-.1-.1c-2.2-1.4-5.2-.8-6.8 1.3l-.4.6c-.1-.1-.2-.2-.4-.3l-.1-.1c.2-.8.5-1.7.7-2.6.8-2.2-.1-4.1-1.8-5.2-.2-.1-.3-.2-.5-.3l-.2-.1c-.3-.3-.5-.5-.9-.7-.2-.1-.3-.2-.5-.3L237 174c-1.4-.7-3.1-.7-4.5 0-.9.4-1.6 1.1-2.1 1.9-.3-.1-.6-.1-1-.1l-.1-.1-.7-.5c-.3-.3-.5-.5-.9-.7l-1-.7c1.3-1.7 1.3-4.1-.1-5.8l-2.8-3.3c-.3-.4-.7-.7-1.2-1-.1-.1-.3-.1-.4-.2-.3-.4-.7-.7-1.2-1-.7-.4-1.5-.7-2.4-.7-.6-.1-1.2 0-1.7.2-.1-.1-.1-.2-.2-.3l-3-3.5c-.4-.5-.8-.9-1.2-1.1l-.6-.3c-.3-.3-.6-.5-1-.8-.7-.4-1.5-.7-2.3-.7-1.3-.1-2.7.3-3.7 1.1-.3.2-.6.5-.9.7.2-.6.2-1.2.1-1.8-.2-1.3-.9-2.4-2-3.2l-1.4-.9-.2-.2-23.8-15.7c-.1-.1-.1-.1-.2-.1-.8-.5-1.7-.8-2.6-.8-.3-.7-.9-1.4-1.6-1.8l-.8-.5c-.2-.2-.5-.4-.7-.6l-22.3-14.7v-.1c-.2-.1-.4-.2-.7-.3l-.8-.6v-.2c-1.1-.7-2.3-.9-3.5-.7-.1-.6-.4-1.1-.7-1.6l-2.7-3.6c-.4-.5-.8-.9-1.3-1.2-.2-.1-.3-.2-.5-.3-.3-.4-.7-.7-1.1-.9-.5-.3-1.1-.5-1.7-.6-.3-.7-.9-1.4-1.7-1.9l-.7-.5c-.3-.3-.5-.5-.9-.7l-4-2.6c.1.2 0 .1 0 .1-.7-.4-1.5-.7-2.4-.7-.4-.5-.8-1-1.4-1.4-.2-.2-.4-.3-.7-.4-.3-.3-.6-.5-.9-.7-.4-.3-.9-.5-1.5-.6l-4.5-1.1c-.9-.2-1.8-.2-2.7 0-.1-.8-.3-1.5-.8-2.2l-2.7-3.6c-.4-.5-.8-.9-1.3-1.2-.2-.1-.4-.2-.7-.3-.3-.3-.6-.6-.9-.8-.5-.3-1.1-.5-1.7-.6-.3-.8-.9-1.5-1.7-2l-1.1-.7c-.2-.1-.3-.3-.5-.4l-2.4-1.6c0-.1 0-.1-.1-.1-.1-.1-.3-.2-.5-.2l-1-.7c0-.1 0-.1-.1-.2-.7-.4-1.5-.7-2.3-.8-.4-.5-.9-1-1.5-1.3l-.6-.3c-.3-.3-.6-.6-1-.8-.4-.3-.9-.5-1.5-.6l-4.5-1.1c-.3-.1-.5-.1-.8-.1-.3-1.1-.9-2.1-1.9-2.8l-11.4-7.6-6.5-4.4s-.1 0-.1-.1l-.4-.3-1.7-2.1c-.3-.5-.7-.9-1.2-1.1-.2-.1-.4-.3-.7-.4-.3-.3-.6-.5-.9-.7-.7-.5-1.6-.7-2.5-.8-1.5-.1-3 .4-4.1 1.3-.3.2-.6.5-.8.7-.3-.3-.5-.6-.9-.8.5-.7.7-1.4.8-2.2.1-1.2-.4-2.4-1.4-3.3l-2.9-2.7c-.2-.2-.5-.4-.7-.5 0 0-.1 0-.1-.1l-.6-.5c-.2-.2-.5-.4-.7-.5-.8-.5-1.8-.7-2.7-.8-.3-.6-.8-1.1-1.4-1.5l-.5-.3c-.2-.3-.5-.5-.9-.8L38.7 42h-.1c-.7-.4-1.5-.7-2.3-.8l-.5-.6c-.3-.3-.7-.7-1.1-1l-.2-.2c-.7-.3-1.1-.6-1.5-.9-.7-.4-1.5-.7-2.3-.8-1.4-.2-2.9.2-4 1.1-1.5 1.1-3.7 2.3-6.4 3.5-2.8 1.2-5 2-6.7 2.4-1.7.4-3.1 1.4-3.7 2.8l-2.2 4.9c-.4 1-.5 2-.1 3l-5.8 6.1c-.9 1-1.3 2.2-1.2 3.4.2 1.2.9 2.3 2 3.1l1.4.9.1.1 2 1.3.1.1s.1 0 .1.1l1.3.8.1.1c1.1.7 2.5 1 3.8.8l.1.1c.1 0 .1.1.2.1l1.2.8.1.1c.7.5 1.6.7 2.5.8 0 1.1.3 2.1 1.1 3 .3.3.6.6 1 .8.1.1.2.1.3.2l.1.1c.3.3.6.6 1 .8.8.5 1.7.8 2.7.8h1.4c.2 1.2 1 2.3 2.1 3 .1.1.3.2.4.2.3.3.6.7 1 .9.1.1.3.2.4.2.8.5 1.9.6 2.8.6.2 1.1.9 2.3 2 2.9l3.7 2.4.1.1c.1.1.2.1.4.2l.6.4c.2.2.4.3.6.5l3.6 2.4.1.1c.1.1.3.1.4.2l1.2.8.1.1c1.1.7 2.4.9 3.6.8l3.7 2.5c.2 1.2.9 2.3 2 3l3.6 2.4.1.1h.2l1.4 1 .1.1c.8.5 1.7.7 2.6.8l.1.1 1.2.8c.1.1.3.3.5.4L88 124.2l.1.1c.4.2.8.4 1.2.5.2.1.3.3.5.4l.8.5c.2.2.5.5.8.7l26.3 17.6.1.1c.7.4 1.5.7 2.3.8.1.1.2.2.3.2l1 .7c.2.1.3.3.5.4l26.1 17.4.1.1c.5.3 1 .5 1.6.6.2.2.4.4.7.6l1.2.8c.1.1.3.2.4.3l26.1 17.4.1.1c.1.1.2.1.3.1.4.9 1 1.7 1.8 2.3l.9.6c.2.2.5.4.7.6l3.6 2.4.1.1c.6.4 1.4.7 2.2.8.1.1.3.2.4.3l.9.6c.2.2.4.4.7.6l3.6 2.4.1.1c.3.2.7.4 1.1.5.3.6.8 1.2 1.4 1.7.3.2.7.6 1.3.9l.3.3c.4.3.9.7 1.6 1.1.3.2.7.4 1 .6 3.8 2.4 6.8 3.3 9.6 2.8 1.2-.2 2.4-.7 3.7-1.5l-1.1 1.4c-.8 1.1-1.2 2.4-1 3.7s1 2.5 2.1 3.2l3.7 2.5.1.1c.2.2.5.3.8.4l.7.5.1.1c.8.6 1.8.8 2.7.8l15 10 .1.1c.2.1.5.3.7.4l.8.5.1.1c.4.3.8.4 1.3.6.4.8 1 1.5 1.7 2l1.4 1c.1 0 .1.1.2.1l2.5 1.7s.1 0 .1.1l1.4.9.1.1c1 .7 2.3.9 3.4.7l7.6 5.1c.3 1.2 1 2.2 2.1 2.9l1.4.9.2.2 2.5 1.7s.1 0 .1.1l1.4.9.1.1c1.1.7 2.5.9 3.7.7.3 1.2 1.1 2.3 2.2 3 .2.2.5.3.8.4.3.3.5.5.8.7.7.5 1.6.7 2.6.8 3 .1 6.1-.2 9.3-.7 1.2-.2 2.4-.5 3.6-.9 0 .7.1 1.4.2 2.1.6 4.4 1.6 7.8 3 10.5.4.8 1.1 1.5 1.8 2 .2.1.5.3.8.4.3.3.6.5.8.7 1.3.8 2.9 1 4.4.4l5.7-2.2c1.4-.5 2.5-1.7 3-3.1.5-1.4.3-3-.5-4.2-1.9-3-2.8-6.2-2.9-9.7-.1-3.3.9-6.2 3-9.1l4.2-5.8zm-182.8-95.6l-.2-.2c-.1 0-.2-.1-.2-.1.6-.8.9-1.7.9-2.6.5.2 1.1.3 1.6.4l-2.1 2.5zm29.7 19.7l-.1-.1-.1-.1c-.5-.3-1.1-.5-1.6-.7-.1 0-.1-.1-.2-.1 1.6 0 3.1-.6 4.2-1.9l2.7-3.3c.8-.9 1.1-2 1.1-3.2.3.1.7.1 1 .1.1.2.2.3.3.5l-7.3 8.8zm88.1 57.1l-1.2 1.6-1.1-.7 2.3-3c-.1.7-.1 1.4 0 2.1zm32.2 22.2l.2-.2h1.6c-.6.1-1.2.2-1.8.2z"/>
		<path d="M111 101.3l4.5 2.9c.1-1.1.1-2.3 0-3.7l4.5 1.1c0 1.9-.2 3.6-.6 5.1l2.8 1.8 3-3.5 4 2.6-3.2 3.7 3 2c1.9-.3 3.7-1 5.4-1.9l2.7 3.6c-1.4.5-2.7.9-3.9 1l3.9 2.6-6.2 7.2-3.8-2.5 3.7-4.3-18.5-12.3-3.7 4.3-3.8-2.5 6.2-7.2zm7.9 37.8L93 121.8l2.6-2.9 11.2 7.4 1.5-1.7-8.8-5.9 2.5-2.8 8.8 5.9 1.2-1.4-6.4-4.2 6.4-7.6 16.7 11.1-6.4 7.5-6.4-4.3-1.2 1.4 8.8 5.9-2.4 2.9-8.9-5.9-1.5 1.7 10.7 7.1-1.9 2.3c-.2.2-.4.5-.6.8zm2-17.1l1.8-2.1-9.2-6.1-1.8 2.1 9.2 6.1zm28.4 36.1l2.6-3.2-8.6-5.7 5.7-6.9 7.1 4.7 2.7-3.3-5.3-3.5-7.5-2-6.9 8.2-4.7-3.1 10.8-12.8-3.9-2.6-10.8 12.8-4.1-2.8-2.9 3.4 25.5 17c.2 0 .2-.1.3-.2zm-8-35.2l11.3 7.5-6.4 7.6 7.3-1.3 3-3.7 8.5 5.6 2.8-3.3-23.8-15.8-2.7 3.4zm41 52.2l-9.2-6.1 5.7-6.9 7.1 4.7 2.7-3.3-7.1-4.7 4.8-6 8.5 5.6 2.7-3.4-23.8-15.8-2.8 3.4 11.3 7.5-13.3 16.2-4.7-3.1 10.7-13-3.9-2.6-10.7 12.9-4.1-2.8-2.8 3.4 26.1 17.4 2.8-3.4zm25 21.1c-1.4.2-3.4-.5-6-2.1-.3-.2-.6-.4-.8-.5-.5-.4-1-.7-1.4-.9l1.9-4.3c1.2 1 2.2 1.7 3.1 2.3.1 0 .1.1.2.1 1.1.7 2.1.9 2.9.4.8-.4 2.3-1.8 4.4-4.1s4.4-4.9 6.8-7.9L212 175c-1.3.7-3 1.4-5.1 1.9l-.2-3-12.1 15-3.6-2.4 1.5-1.9-4-2.7-1.8 2.2-3.6-2.4 16.6-20.5 2.8 1.9c1.9-.5 3.7-1.6 5.6-3.1l3 3.5c-1.6 1.1-3 1.9-4.4 2.5l4.1 2.7-2.4 3c3.4-.9 6.7-2.6 9.7-5.3l2.8 3.3c-.6.4-1.2.9-1.8 1.3l-8.6 2.7h7.3l6.9 4.6c-2.6 3.3-5 6.2-7.3 8.8-1.1.6-2 1.5-2.4 2.7-.3.3-.5.6-.8.9-3.1 3.4-5.4 5.2-6.9 5.5zm-8.5-19.1l-4-2.7-3.8 4.8 4 2.7 3.8-4.8zm6.1-7.6l-4-2.7-3.6 4.5 4 2.7 3.6-4.5zm5.4 8.7l-4.2-.6c-.3 3.3-1 6.5-1.9 9.5l4.7.6c.8-3.2 1.2-6.4 1.4-9.5zm19.2 17.5c.3 1.6.5 3 .6 4.2l4.4-1.7c-.4-1.6-.9-3.4-1.7-5.1 2-.8 3.8-1.8 5.5-3l1.8-2.4-3.2-2.1c.7-1.6 1.2-3.5 1.7-5.5l-3.7-1.8c-.4 1.7-.9 3.4-1.6 4.9l-3.9-2.6-2.3 2.9 6.6 4.4c-1.3 1-3.4 1.8-6.4 2.5-3 .7-5.4.9-7.3.8l-.9 4.9c2.5-.3 4.2-.6 5.3-1l-7.7 9.8 3.7 2.5 9.1-11.7zm12.9 20l-5.1-3.5-5.3-1.4 6.1-1.2 6.7-8.7 4.7 3.2c.5-.9 1.2-1.6 2.1-2.1l1-1.3-5.1-3.4 5.8-7.5-4.1-2.7-5.8 7.5-5-3.3-2.8 3.5 5 3.3-8.3 10.8-6.2-4.1-2.7 3.5 16.3 10.9 2.7-3.5zm20.4 20.2l.8-1-14.8-9.9-.8 1-4-2.7 9.1-11.9 21.7 14.4v-1.9c-5.4-3.2-10.9-6.5-16.4-10-2.1-1.3-4.2-2.6-6.3-4l1.8-3.6 4.9 3.4c2.6.8 4.9 1.4 6.9 1.7-1.4-.8-2.8-1.6-4.2-2.5-1-.6-2-1.3-3.1-2-.4-.3-.7-.5-.9-.6l1.7-3 2.4 1.7 3-.4-6.3-4.2 2.2-2.9 11 7.3c-.1-1.2-.3-2.2-.6-3l4.5 2.5c.3 1.4.4 2.5.5 3.3l11 7.3-2.3 3-6.2-4.1 1.1 2.6c-5-.3-9.9-1.2-14.7-2.6l5 3.2c.5.3 1.1.7 1.8 1.1.8.5 1.7 1.1 2.7 1.7-.2-1.2-.4-2.2-.6-3l3.7 1.2c.1.5.2.9.3 1.4l-5.5 1.2 6.1 1.6c.3 1.6.5 3.3.7 4.9l-3.5-.2-8.7 11.7-4-2.7zm8.8-24c1.6.3 3.2.5 4.7.5l-7.1-4.7-3.7.2 6.1 4zm-8.5 12.4l5.5 3.7 1.2-1.7-5.5-3.7-1.2 1.7zm-5.5-.4l-5.4-3.6-1.5 2 5.4 3.6 1.5-2zm1.6-2.1l1.3-1.7-5.4-3.6-1.3 1.7 5.4 3.6zm6.3 10.4l1.5-2-5.5-3.7-1.5 2 5.5 3.7zm36.5 23.5c-2.4-3.8-3.6-7.8-3.7-12.2l-4.5-1.1c-.3 2.2-.3 4.4 0 6.5.6 3.8 1.4 6.8 2.5 9l5.7-2.2zm-19.4-13.3c2.9-.5 5.6-1.4 8.1-2.7 2.6-1.3 4.1-2.3 4.5-2.9-.5 1.5-.9 3-1.2 4.4l4.5-1c.5-3.1 1.7-6.1 3.7-8.8l4.3-5.8-4.4-2.9-4.2 5.5c-2.4 3.3-5.9 6-10.4 7.9-4.5 1.9-9 2.5-13.6 1.9l.3 5.1c2.8 0 5.6-.2 8.4-.7zM55.4 97.5l.9-1-11.1-7.4-.9 1-3.6-2.4 21.2-23.2 18.1 12-.9 1-6.4 1.1 4 1.1L71 86c-.4.5-.7 1-.9 1.6l-6.5 7.2c-.7.3-1.3.8-1.8 1.3L59.2 99c-.2.2-.4.5-.5.7l-3.3-2.2zm3.6-4l14.8-16.4-11-7.3-14.9 16.4L59 93.5zm6.7-9.4l-6.8 7.5-8.7-5.8 6.8-7.5 2.6 1.8 2-2.2-3.2-2.1L61 73l3.2 2.1 1.8-2 3.4 2.2-1.9 2.1 3.2 2.1-2.5 2.7-3.2-2.1-2 2.2 2.7 1.8zm-5.4.5l-2.6-1.7-2.2 2.4 2.6 1.7 2.2-2.4zm-23.9.3l2.5 1.6 2.6-2.8-5.1 1.2zm5.2-1.4l14.1-15.2c1.8-1.2 3.7-2.5 5.5-4L58.6 61c-4.4 3.8-9.2 6.5-14.6 8.2l-2.5 5.2c1.4-.4 2.9-1 4.3-1.8l-9.2 10 5 .9zm40.9 23.8L81 109l10.3 6.9-2.4 2.7c-.1.1-.1.1-.1.2l-25.6-17 2.6-2.9 11.1 7.4 1.5-1.7-8.8-5.9 2.5-2.8 8.8 5.8 1.2-1.4-6.4-4.2 6.7-7.2L99.1 100l-6.5 7.4-6.4-4.3-1.2 1.4 8.8 5.9-2.5 2.8-8.8-5.9zm8.6-5.1l1.8-2.1-9.2-6.1-1.7 2.1 9.1 6.1zm-9.8-20.4L75 88.9l3.8 2.5 3.8-4.2 18.5 12.2-3.8 4.3 3.2 2.1c0-.1.1-.1.1-.2l6.2-6.9-3.3-2.2c1.2-.2 2.5-.5 3.9-1l-2.7-3.6c-1.7.9-3.5 1.6-5.4 1.9l-2.9-2 3.3-3.7-4-2.6-3.2 3.5-2.8-1.8c.3-1.5.5-3.2.6-5l-4.5-1.1c.1 1.4.1 2.6 0 3.6l-4.5-2.9zm-48.9-9.5c-.1.1-.1.9.2 2.4.2 1.5.4 2.4.6 2.8L28 79.1c-.3-1.7-.3-3.8-.1-6-2.6.9-5 1.2-7.4 1.1l.6-3.7-5.2-3.5-1.4 1.5-3.3-2.2 10.5-11.1 2.9 1.9 3.8-4.1-3.3-2 2.7-2.9 3.3 2.2 4.1-4.4 3.5 2.3-4 4.3 3.5 2.3-2.2 2.4c3.1-1.5 5.9-3.3 8.4-5.5l2.9 2.7c-.4.3-.7.6-1.1.9L38 57.4l6.4.3 4.2 2.7-2.8 3h-.1l-.9-.6-.4.4c-.3.4-.7.7-1 1-.4.1-.7.3-1.1.4-1.4.4-2.6 1.4-3.2 2.6l-.7 1.4c-1.8 1.5-3.9 2.7-6 3.7zm.4-4.3c2.9-1.8 5.8-4.1 8.5-7.1l.3-.3-1.8-1.2-2.3 1.4v.1c-1.8 1.8-3.3 4.1-4.7 7.1zm-11.4-1.8l3.8-4.1-2.9-1.9-3.8 4.1 2.9 1.9zm10.3-3.5l-1.8.8.2-1-7 7.5c1.7.2 3.5 0 5.3-.6.5-1.8 1.6-4 3.3-6.7zm3.3-5.1l-3.2-2.1-3.8 4.1 2.4 1.5.4-2c1.8-.4 3.2-.9 4.2-1.5zM9 66.7l16.7-17.6c1.8-1 4-2.2 6.6-3.9l-2.4-3c-1.9 1.3-4.3 2.7-7.5 4.1-3.2 1.4-5.8 2.3-7.9 2.8L12.3 54c2.1-.7 3.7-1.3 4.7-1.8L5.5 64.4 9 66.7zm328.1 129.4l-4.2-2.7-6.8-.1 3.8-1.9-1.3-.9 4.6-6.3-4.1-2.7-4.6 6.5-4.8-3.1c1.5-1 2.9-2.1 4.2-3.3l-2.9-3.4c-1.8 1.7-4.1 3.3-6.8 4.7-2.7 1.3-4.9 2.2-6.5 2.5l.4 5.3c2.6-.8 5.1-2 7.7-3.6l6.3 4.2-3.3 4.5-8.1-5.3-2.6 3.5 8.1 5.3-3.5 4.8-11.5-7.6-2.6 3.5 25.5 16.9 2.5-3.5-9.8-6.5 3.5-4.9 7.5 5 2.5-3.5-7.5-5 3.3-4.5 8.5 5.6 2.5-3.5zm-48.9-40.2c2.4 1.6 4.7 2.7 7.2 3.5l-.7 3.4c-1.6-.4-3.3-1.1-5-2.1l-.7 1 3.6 2.3-1.8 2.4-3.5-2.3-.8 1.1 3.5 2.3-2 2.5-3.4-2.3-.8 1.1 5 3.3.4-3.1c1.6.7 2.9 1.1 3.8 1.2-.2-.9-.5-1.6-.8-2.4l2.9-.3c.5.8.8 1.7 1.1 2.6.9 0 1.9-.1 3-.4l.9 2.8c-1.1.3-2.2.4-3.1.4.3 1.1.6 1.8.6 2.2l-3.2.6 5.7 3.7.8-1.1-3.2-2.1 1.9-2.5 3.2 2.1.8-1-3.3-2.1 1.8-2.5 2.9 1.9-1.8.9 7 .1-6.6 8.6.6.3c-.9.9-1.4 2.1-1.5 3.4L300 189l-3.7-2.4 2.8-3.8-18.7-12.3-2.8 3.7-3.7-2.4 4.9-6.5 1.3.9 7.7-10.7c.1.2.3.3.4.4zm1.4 16.9l4.3 2.8c-.1-1.4-.2-2.1-.3-2.2-1.7-.1-3-.3-4-.6zm2.5-6.2c1.9.6 3.6.8 5.3.8.1.1.2.8.3 2.2l3.7-.3c-.2-.9-.3-1.6-.5-2.1 1.2-.1 2-.2 2.6-.4l-.9-2.8c-.6.2-1.5.4-2.6.4-.3-1.1-.7-2-1.2-2.9l-3 .3c.4 1 .7 1.8.8 2.5-1 0-2.2-.3-3.7-1l-.8 3.3zM280.4 185l-4-2.8-1.5 3.2 5.6 3.7c0 .1.1.2.2.2 1 .6 1.8.8 2.4.6.6-.2 1.4-.9 2.3-2.1l.8-1.1 10.8 7.2.1-.1c.4-.6 1-1.1 1.6-1.4l.9-1.2-10.3-6.8c2.5.8 4.6 1.2 6.3 1.1l1.6-2.2-16.2-10.7-1.9 2.4 11.3 7.5c-1.9-.6-3.7-1.3-5.4-2.1l-.6.8-12.2-8-2.2 2.9 12.2 8-.4.6c-.4.5-.8.6-1.4.3zm25.8-13.6l-.2.3 4.1-2-5.5-3.6-2.1 2.9 3.7 2.4zm-43.9-.3l5.7-7.4 4.2 2.8 2.6-3.5-4.2-2.8 1.3-1.7c3-.7 5.9-1.7 8.5-3l2.2-2.9-13.1-8.6-2.6 3.5 8 5.2c-1.7.8-3.6 1.4-5.8 1.8l-2.4 3.2-5.7-3.7-2.7 3.4 5.7 3.7-4.9 6.4c-.3.5-.7.8-.9.9-.2 0-.6-.1-1.1-.4-.1 0-.1-.1-.2-.1-.1-.1-.3-.3-.5-.4l-2.3-1.7-1.9 4 3.3 2.2c.2.1.4.3.6.4 1.5.9 2.5 1.3 3.2 1.2.7 0 1.7-.9 3-2.5zm-8.2-7.1l-5 1.8c.1-1.6.1-3.1-.1-4.4-2.4 1-5.3 1.4-8.7 1.1l-.3-4.8c2.9.7 5.5.6 7.8-.4-.2-1.2-1-3.2-2.2-5.9 3.3-2.4 6.1-4.8 8.3-7.1l-2-1.3 2.5-3.2 2.5 1.7c1.4-1.3 2.8-2.7 4.1-4.4l3.6 2.5c-1.1 1.3-2.4 2.7-4 4.2l5.2 3.4c-4.7 5.8-8.9 9.9-12.6 12.2.5 1.7.7 3.2.9 4.6zm-2.4-8.6c2.3-1.3 5-3.8 8-7.3l-2.1-1.4c-2.4 2.4-4.7 4.5-6.9 6.2l.5 1.2c.2.5.3.9.5 1.3zm-11.5-5.1c.4-.5.9-1 1.3-1.5.2-.3.4-.5.7-.8 1.5-1.7 3.1-3.6 4.7-5.6.1-.8.5-1.6 1-2.3l.4-.5-4.6-.1c-2.2 2.6-4.2 5.1-6.1 7.2-2.1 2.4-3.6 3.8-4.4 4.2-.7.4-1.7.3-2.8-.4-.1 0-.1-.1-.2-.1-.9-.6-1.9-1.4-3.1-2.3l-1.9 4.3c.3.2.8.5 1.3.9.3.2.5.3.8.5 2.6 1.6 4.6 2.2 6 2 1.6-.3 3.9-2.1 6.9-5.5zm-10.1-3.8l4.7.5c.8-3.2 1.3-6.4 1.5-9.5l-4.2-.4c-.4 3.2-1.1 6.4-2 9.4zm2.7-12.7l-12 15.1-3.5-2.3 1.5-1.9-4-2.6-1.8 1.9-3.5-2.3 3.4-4.2 5.8-1.7-4-.6 11.3-14.1 2.8 1.8c1.8-.7 3.6-1.8 5.5-3.3l3 3.5c-1.6 1.1-3 2-4.4 2.6l4.1 2.7-2.4 3c3.4-.9 6.6-2.7 9.6-5.4l2.7 3.3c-1.4 1.2-3 2.2-4.7 3.1l6.7 4.4-4.8 2.2c.1-.1.1-.2.2-.2l-6.3-4.1c-1.3.7-3 1.4-5 2l-.2-2.9zm-7.8 2.8l-4-2.6-3.8 4.8 4 2.6 3.8-4.8zm6-7.6l-3.9-2.6-3.6 4.5 3.9 2.6 3.6-4.5zm-18.2-1l-9.4-6.2-2.3 3 6 3.9c-.6.4-1.7.8-3.3 1.1-.3-1.1-.3-2.3-.3-3.4l-3.4-.5c-.1 1.8-.1 3.1.1 4.2-1.2 0-2.5-.3-4.1-.9l-.1.1-.6 3.8c1.7.4 3.5.5 5.5.4.6 1.8 1.6 3.6 3 5.2l2.7-1.3.8-1c-1.3-1.2-2.2-2.3-2.8-3.5 2.1-.5 4.2-1.3 6.2-2.6l2-2.3zm-16.7 1.2c1-.9 2.7-2.8 5.2-5.8l-4.7-3.1 1.5-1.6 4.3 2.8 5.8-7.2-4.1-2.7c3.2.3 6-.1 8.6-1.3-.1 2.9.4 5.5 1.4 7.8l-4.3-2.8-1.4 1.7c-1.1 1.5-2.4 2.2-3.9 2.3l.8 3.7c1.8-.4 3.4-1.4 4.8-3.1v-.1l1.6 1.1-1.1 1.3c-1.2 1.5-.9 2.9 1 4.2l2.2 1.5 2-2.5-1-.7c-.7-.5-.9-1-.4-1.6l1.2-1.5c.1.3.3.6.5 1 .3.4.4.8.5.9l2.2-1.3 1.3-1.6c-.6-.6-1-1.3-1.3-2.1 1.3-.3 2.4-.7 3.5-1.1l-1.1-2.8c-1.2.5-2.4.9-3.7 1.2-.1-.4-.3-.9-.4-1.6 1.3-.3 2.4-.7 3.4-1.1l-1-3c-.9.6-1.9 1-3 1.3-.2-1.4-.2-2.5-.1-3.2l-8.3-5.4-2.3 2.9 3.5 2.3c-.9.1-1.8.2-2.7.1 0-.6 0-1.1-.2-1.7l-3.4-.3c.2.6.3 1.2.3 1.9-.9 0-2.1-.3-3.5-.7l-.9 3.9 1.7.2-1.1 1.4 3.5 2.3-1.4 1.7-4.1-2.7-6.5 6.7 4.9 3.2c-1.4 1.7-2.4 2.5-2.8 2.6-.4 0-.9-.1-1.4-.4 0-.1-.1-.1-.1-.1-.9-.6-1.7-1.2-2.5-1.9l-1.7 3.1c.6.5 1.3.9 2 1.4.2.1.3.2.5.3 1.3.8 2.3 1.2 3.2 1.3 1 .1 1.8-.2 2.6-.8.1 0 .2-.1.4-.3zm-6.9-8.9c2.6-1.8 4.4-3.2 5.4-4.2l-2.6-3.2c-3.6 3-7.5 5.2-11.5 6.9l2.4 4.3c1.6-.7 3.7-2 6.3-3.8zm15.3-15c-.4-2.1-1.2-4.2-2.4-6.3l-4.1.8c.8 2.3 1.4 4.4 1.7 6.4l4.8-.9zm-11.2 7.2l4.9-1.1c-.4-2.2-1.1-4.4-2.1-6.6l-4.3.9c.8 2.4 1.3 4.7 1.5 6.8zm-9.9-3.8l-9.4-6.2-2.4 3 2.5 1.6 3.5 2.3c-.6.3-1.7.7-3.3 1-.2-1.1-.3-2.2-.2-3.3l-3.4-.5c-.1 1.7-.1 3.1.1 4.1-1.2 0-2.4-.3-4-.9-.1.1-.1.1-.2.1l-.6 3.7c1.7.5 3.5.6 5.5.5.5 1.8 1.5 3.5 2.9 5.1l1.1-.5c0-.2.1-.3.1-.5.3-.8.9-1.5 1.6-2-.9-1-1.6-1.9-2.1-2.8 2.2-.4 4.3-1.2 6.3-2.5l2-2.2zm-16.6 1.1c1-1 2.7-2.8 5.1-5.6l-4.7-3.1 1.5-1.6 4.3 2.8 5.9-7.1-4.1-2.7c3.1.3 6-.1 8.6-1.2-.2 2.8.3 5.4 1.3 7.7l-4.3-2.8-1.4 1.7c-1.1 1.4-2.4 2.1-3.9 2.2l.8 3.6c1.9-.3 3.5-1.3 4.9-3v-.1l1.6 1.1-1.1 1.3c-1.2 1.6-.9 2.9 1 4.2l2.2 1.5 2.1-2.5-1-.7c-.7-.5-.9-1-.4-1.6l1.2-1.5c.1.2.3.5.5.9.2.3.3.6.4.7.1-.3.2-.5.4-.7.7-1 1.8-1.8 3.1-2.1-.2-.2-.4-.5-.5-.8l-3.7-.1 6.4-2.7-.9-2.1c-1.2.5-2.4.9-3.7 1.2-.1-.4-.3-.9-.4-1.6 1.3-.3 2.4-.7 3.4-1.1l-1-3c-1 .6-2 1-3.1 1.3-.2-1.3-.2-2.4-.1-3.1l-8.3-5.4-2.4 3.3 3.5 2.3c-.9.1-1.8.2-2.7.1 0-.6 0-1.2-.2-1.7l-3.4-.3c.2.6.3 1.2.3 1.9-.9 0-2.1-.3-3.5-.7l-1 3.8 1.8.2-1.1 1.3 3.5 2.3-1.4 1.7-4.1-2.7-6.6 6.6 4.9 3.2c-1.4 1.6-2.4 2.4-2.8 2.5-.4 0-.9-.1-1.4-.4 0-.1-.1-.1-.1-.1-.9-.6-1.7-1.2-2.5-1.9l-1.7 3c.5.4 1.2.9 1.9 1.4.2.1.3.2.5.3 1.2.8 2.3 1.2 3.2 1.3.9.1 1.8-.2 2.6-.8.1-.1.3-.2.5-.4v-.2h.1zm-4.1-23.5c.7 2.5 1.2 4.7 1.4 6.8l4.9-1c-.4-2.1-1.1-4.3-2.1-6.5l-4.2.7zm12.6-.2c-.5-2.1-1.3-4.1-2.4-6.2l-4.1.7c.9 2.3 1.4 4.5 1.7 6.4l4.8-.9zm-15.6 14.8c2.6-1.8 4.5-3.1 5.5-4.1l-2.5-3.2c-3.6 2.9-7.6 5.2-11.8 6.8l2.4 4.3c1.6-.8 3.8-2 6.4-3.8zm-19.4-39.2c.9 2.2 1.6 4.6 1.9 7.2l5-.9c-.5-2.3-1.4-4.7-2.6-7.1l-4.3.8zm-10.5 21c2.8-1.5 5.1-2.8 6.8-4l-2.3-3.5c-4 2.6-8.2 4.4-12.5 5.6l1.8 4.6c1.3-.3 3.3-1.2 6.2-2.7zm21.4-1.1l-2.7 3.2 6.1 4-6.6 7.8c-.9.6-1.5 1.3-2 2.3v.1l-.9 1-3.7-2.5 1.2-1.4-8.3-5.5-1.2 1.4-3.7-2.4 6.9-1.8-4.8-.8 7.4-8.6 5.9 3.9 2.7-3.2-7.2-4.7 2.7-3.1 7.2 4.7 2.4-2.8c-1.2-.5-2.7-1.3-4.5-2.5-.4-.3-.9-.5-1.4-.8l1.7-4.1c.1.1.3.2.5.3l3.3 2.1c4.8 2.8 9 5 12.7 6.3l-.9 4c-2.3-.8-4.7-1.8-7.5-3.2l-2.7 3.2 6.1 4c-.7.4-1.3.9-1.7 1.5-.4.5-.6 1.1-.7 1.7l-6.3-4.1zm-2.7 7.5l-8.3-5.4-3.5 4.1 8.3 5.4 3.5-4.1zm-8.3-15.8c-.5-2.4-1.3-4.7-2.3-6.9l-4.4.8c.8 2.1 1.4 4.5 1.7 7.2l5-1.1zm-18.2-11l-2.7 3.1 6.1 4-9.7 11.1L112 78l1.2-1.4-8.3-5.4-1.2 1.4-3.8-2.5 9.7-11 5.9 3.8 2.7-3.1-7.2-4.7 2.7-3 7.2 4.7 2.4-2.8c-1.2-.5-2.7-1.4-4.6-2.5-.4-.3-.8-.5-1.3-.8l1.7-4.1c.1.1.3.2.5.3l3.3 2.1c4.9 3 9.1 5.1 12.9 6.4l-.9 3.9c-2.3-.8-4.7-1.8-7.5-3.2l-2.7 3.1 6.3 4.1c-.7.4-1.3 1-1.8 1.7-.3.5-.5 1.1-.6 1.6l-6.6-4.3zm-2.9 7.5l-8.3-5.4-3.5 4 8.3 5.4 3.5-4zm-25-3.9c1.2-.3 3.3-1.2 6.2-2.6 2.9-1.4 5.2-2.7 6.9-3.9l-2.2-3.5c-4.1 2.6-8.3 4.4-12.7 5.4v.1l7 1.2-5.9 1.5.7 1.8zm21.4-24l-4.4.7c1 2.3 1.6 4.7 1.9 7.2l5-.9c-.5-2.2-1.3-4.6-2.5-7zM104.2 48c.9 2.1 1.4 4.4 1.7 7.1l5-1.1c-.4-2.3-1.2-4.6-2.2-6.8l-4.5.8zM93 41.9l-2 2.2 2.6 1.7-6.8 7.5-8.6-5.6 6.8-7.5 2.6 1.7 2-2.2-3.1-2L89 35l3.1 2 2-2.1 3.3 2.2-1.9 2.1 3.1 2-2.5 2.7-3.1-2zm-4.6 4.6l-2.6-1.7-2.2 2.4 2.6 1.7 2.2-2.4zm1.1-20.3L86.9 23c-4.4 3.8-9.2 6.6-14.5 8.3l-2.5 5.2c1.5-.5 2.9-1.1 4.3-1.9L63.6 46.2l3.6 2.4L84 30.2c1.8-1.2 3.7-2.5 5.5-4zM87 61.6l.5-.5c.1-.6.3-1.3.6-1.9.7-1.2 1.8-2 3.2-2.4l8-9c0-.8.2-1.5.7-2.2.7-1.1 1.9-1.8 3.2-2.2l4.3-4.8-6.1-.3.5.3-14.8 16.7-10.9-7.2L91 31.7l9.6 6.2 4.4-1.7-14.9-9.7L69 49.8l3.6 2.3.9-1 10.9 7.2-.9 1 3.5 2.3zM68.7 22l-5.2 5.6-15.9-10.4 5.2-5.6L68.7 22zm-5.6-.1l-8.8-5.8-1.1 1.2 8.8 5.8 1.1-1.2zm-10.7 17l1-1L38.5 28l-1 1-2.2-1.5 6.2-1.5 4.9 3.3 1.2-1.2-5.6-3.7-1.2 1.2.2.1-5.4-1 8.1-8.5 22.2 14.5-9.8 10.6-3.7-2.4zm.7-10.6l5.7 3.7 1.1-1.2-5.7-3.7-1.1 1.2zm-3.6-2.4l1.1-1.2-5.6-3.6-1.1 1.2 5.6 3.6zm6.2 9.5l1.1-1.2-5.7-3.7-1.1 1.1 5.7 3.8zM45.7 11l3.8 2.5 3.4-3.6 17.8 11.6-3.4 3.7 3.1 2c.1-.1.3-.1.4-.2.4-.1.7-.2 1.1-.4l4.9-5.5-4-2.6c.7-.2 1.8-.6 3.2-1.2l-3.2-3.2c-1.6.9-3 1.4-4.2 1.7l-2.3-1.5 2.7-2.9-4-2.6-2.7 2.9-2.4-1.6c.4-.9.6-2.2.8-3.8l-4.4-1.8c0 1.3-.2 2.3-.4 3l-4.2-2.8-6 6.3z" fill="#fbd528"/>
	</symbol>
	<symbol id="sweat" viewBox="0 0 128 128">
		<path d="M127.9 67.3c-1.4-27-17.9-50.8-43-61.2C58.8-4.8 25 2.2 9.2 26.8c-.4.7-.4 1.3-.1 1.8C-2.5 50.1-3 76.5 7.7 98.5c5.6 11.4 14.5 23.4 27.3 26.8 7.3 2 15.3 1.7 22.8 1.4 8-.3 16-1.2 23.9-2.5 13-2.2 27.8-5.7 36.2-16.8 8.3-10.9 10.7-26.8 10-40.1zm-8.4 28.9c-2.5 6.5-6.6 12-12.6 15.7-5.4 3.3-11.5 5.2-17.6 6.7-14.1 3.3-28.9 4.8-43.3 4.2-6.9-.3-13.5-1.6-19.2-5.8-5-3.7-8.9-8.9-12.2-14.1C.3 79.5.5 49.2 15.2 26.2c.3-.4.4-.8.3-1.2C29.2 7.7 54.1 1.5 75.1 7c24.2 6.4 42.9 26.3 47.6 50.9 2.5 12.6 1.4 26.3-3.2 38.3z" fill="#fff"/>
		<path d="M45.7 37.8c1.4-.2 2.4-1.1 3.6-1.7 1.6-.8 2.8.3 4.1 1.2 2.1 1.5 4.1-1.9 2-3.5-1.7-1.2-3.5-2.3-5.7-2.1-1.9.2-3.2 1.9-5.1 2.2-2.5.4-1.4 4.3 1.1 3.9zM86.7 34.6c1 .9 1.9 1.9 3.3 2.1 2.5.4 3.6-3.5 1.1-3.9-.9-.1-1.4-1-2-1.5-.8-.7-1.8-1.2-2.9-1.4-2.5-.3-4.5 1.2-6.3 2.8-1.9 1.7.9 4.6 2.8 2.8 1.2-1.1 2.5-2.2 4-.9zM70.6 88.7c-4.6 2.2-9.7.3-14.1-1.4-2.1-.8-3.2 2.1-1.8 3.4-.2.2-.3.4-.4.7-2 5.1 5.8 10.4 10.2 10.1 5.2-.3 11.3-6.3 9.2-11.7-.7-1.2-1.9-1.7-3.1-1.1zM64 97.6c-1.7 0-6.8-2.8-5.9-5.1 0-.1.1-.2.1-.3 3.8 1.2 7.7 1.9 11.5 1-.7 2.3-3.6 4.3-5.7 4.4zM73.9 71.8c-1.5.1-2.6 0-3.3-1.5-1.1-2.3-4.6-.3-3.5 2 .9 2 2.9 3.3 5 3.5.5.1.9 0 1.4 0 0 .1-.1.1-.1.1-.4.3-.7.3-1.1.3-2.6-.1-2.6 3.9 0 4 3.2.2 6.6-3.2 5.4-6.5-.5-1.5-2.2-2-3.8-1.9zM19.1 42.6c.1.9.2 1.8.4 2.6-.7-.1-1.3.2-1.7 1-1.5 3.3-3.3 7-3 10.7.2 2.7 2.1 5.2 5 4.4 8.3-2.1 3.7-13.5 3.3-18.8-.2-2.4-4.2-2.5-4 .1zm1.8 11.3c-.1.8-.3 1.9-.8 2.6-1.7 2.1-1.2-.3-1.1-1.2.2-1.8.9-3.6 1.6-5.3.3 1.3.4 2.6.3 3.9zM46.7 52.4c-3.8 0-7.7 1.2-10.3 4.1-.3.3-.4.6-.5.9-.1.2-.1.3-.1.5-.4 4.7 5.7 5.1 9 4.9 3.6-.2 8.3-2.1 8.8-6.3.5-3.7-4.1-4.1-6.9-4.1zm1 5.7c-.6.3-6.1 1.2-7.5.4 2.3-1.8 5.5-2.3 8.3-1.9.2 0 .4 0 .6.1-.3.5-.6 1-1.4 1.4zM97.6 53.5c-3.7-2.6-7.8-3.4-12.2-2.6-.4.1-.7.2-.9.4-3.1 1.8-2.9 6-.3 8.3 2.9 2.6 8.3 2.3 11.9 1.3 3.3-.9 4.5-5.3 1.5-7.4zM95.1 57c-.4.5-3.8.5-4.2.5-1 0-2 0-2.9-.4-.9-.4-2.5-1.5-1.2-2.4 2-.3 4-.4 5.9.5.6.3 1.1.6 1.7.9.6.5 1 .4.7.9z" fill="#fff"/>
	</symbol>
	<symbol id="track" viewBox="0 0 1436 1208">
		<path d="M1432.3 393.1c-50.2 2.5-103.8 11.2-159.3 25.9 31.8-116.1 21.5-220.5-38.7-293.2-1.9-2.3-3.8-4.5-5.8-6.7-5-7.9-10.5-15.5-16.5-22.7C1068.1-77.2 693.5-4.3 375.4 259.3S-84.1 877.4 59.8 1051c1.9 2.3 3.8 4.5 5.7 6.6 5 7.9 10.5 15.5 16.6 22.8 78.2 94.5 224.6 115.9 393.1 73.6-3.3 17.7-5.3 35-6.2 51.9l32.1-.2c21-180.8 174.8-404.3 415-575.1C1090.4 506.7 1275.9 435 1432.4 420l-.1-26.9z" fill="#00619c"/>
		<path d="M397.7 288.7C714.3 26.4 1086.6-47 1232.1 123.3c-1.1-1.4-2.2-2.8-3.4-4.2C1084.9-54.7 710.4 18.3 392.1 281.9S-67.3 900 76.6 1073.7c.7.8 1.4 1.6 2.1 2.5-138.1-175.2 3.5-526 319-787.5zM1432.4 416.7c-159.3 12.2-350.3 84.5-529.5 211.8-241.1 171.4-395.1 396-415.2 577.1l13.4-.1c21-180.8 174.8-404.3 415-575.1 174.3-123.9 359.8-195.7 516.3-210.6v-3.1z" fill="#004568"/>
		<path d="M1434.4 390.9l-2.2.1c-49.9 2.5-102.4 11-156.2 25.1 13.8-51.5 19.1-99.9 15.8-144.5-4.3-58-23.1-107.5-55.8-147.1l-5.7-6.6v-.1l.1-.1c-.3-.4-.7-.8-1.1-1.2-4.8-7.4-10-14.5-15.7-21.4-35.5-42.8-85.2-71.6-147.8-85.6-60.3-13.5-130-12.7-207.1 2.3-77 15-157.6 43.4-239.5 84.5-33.6 16.9-66.9 35.6-99.6 56-.8-.7-20.2-16.8-33.6-19.6-1.3-.3-2.6.6-2.9 1.9-.3 1.3.6 2.6 1.9 2.9 10.4 2.2 25.9 14.1 30.3 17.6-47 29.7-93 63-137.6 99.6l-.3-.3c-.5-.4-12.9-10.8-21.7-12.6-1.3-.3-2.6.6-2.9 1.9-.3 1.3.6 2.6 1.9 2.9 6.8 1.4 17.1 9.5 19.2 11.2C296 322.3 227.4 393.2 170 468.5c-55.6 72.8-98.5 146.7-127.6 219.6-29.1 73-42.8 141.3-40.8 203.1 2.1 64.1 21.1 118.4 56.6 161.2l.1-.1c5.1 7.9 10.6 15.5 16.6 22.7l.1-.1c1.8 2.3 3.6 4.6 5.5 6.9 20.8 25.1 46.9 45.6 77.5 61 29.7 14.9 63.9 25.1 101.6 30.2 19 2.6 39 3.9 59.8 3.9 47.6 0 99.3-6.7 153.1-20-2.9 16.6-4.8 33-5.6 49l-.1 2.2 36.2-.2.2-1.8c21.8-187.8 180.5-407.6 414.1-573.7C1086 512.4 1269 437.7 1432.7 422l1.9-.2-.2-30.9zM46.3 689.7C105.8 540.5 223.1 388.2 376.7 261 530.3 133.7 701.8 46.7 859.4 16c40.8-8 79.4-11.9 115.4-11.9 99.4 0 179 29.9 230.4 87.7-32.5-28.7-73.7-48.8-122.6-59.7-60.3-13.5-130-12.7-207.1 2.3-77 15-157.6 43.4-239.5 84.5-84.8 42.5-167.2 96.8-245.2 161.4-77.9 64.5-146.6 135.5-204.1 210.9C131.1 564 88.1 637.9 59.1 710.8c-29.1 73-42.8 141.3-40.8 203.1 1.3 40.4 9.4 76.9 24.1 109.1C-8 940.1-7 823.4 46.3 689.7zM23.9 920.6c.6 17.8 2.5 34.8 5.7 51.1C13 898.7 24.1 810 63 712.3c59.5-149.2 176.8-301.5 330.5-428.8 153.7-127.3 325.1-214.3 482.8-245 40.8-7.9 79.4-11.9 115.4-11.9 55.8 0 105.4 9.5 147.3 28-15.8-6.5-32.8-11.7-50.8-15.7-60.3-13.5-130-12.7-207.1 2.3-77 15-157.6 43.4-239.5 84.5-84.7 42.5-167.2 96.8-245.1 161.3-77.9 64.5-146.6 135.5-204.1 210.9-55.6 72.8-98.5 146.7-127.6 219.6-29.2 73-42.9 141.3-40.9 203.1zm59.9 158.5c-69.1-83.4-74.5-211.2-15.1-360 59.5-149.2 176.8-301.5 330.4-428.8C552.6 163 724.1 76 881.8 45.3c40.8-7.9 79.4-11.9 115.4-11.9 102.8 0 184.4 32 235.6 93.7 57.5 69.5 70.8 171.5 38.6 290.1-127.3 33.9-261.8 98.5-386.3 187C763.2 690.9 659.5 794 585 902.5c-59 86-97 171.3-111.7 249.9-173.7 43.5-314.4 17.5-389.5-73.3zm1096.3-596.7c-90.7 36.5-179.9 85.7-265.3 146.4-116.3 82.7-216.6 181-290.2 284.3-71.2 100-114.6 200.4-125.5 290.5l-9.1.1c21.7-185 183.9-409.7 414.1-573.3 147.6-104.9 310.9-176.6 458.4-202.5-58.8 11-119.9 29.3-182.4 54.5zm-5.8-4.9c-93.2 36.8-184.9 87-272.6 149.4-116.7 82.9-217.3 181.6-291 285.4-71.3 100.4-114.4 201.1-124.9 291.4l-14.6.1c10.5-189.9 173.5-423.6 416.1-596 177.3-126.1 375-203.4 542.8-212.4l.1 19.5c-80.4 6.3-166.5 27.3-255.9 62.6z"/>
	</symbol>
</svg>