<svg version="1.1" xmlns="http://www.w3.org/2000/svg" xmlns:xlink="http://www.w3.org/1999/xlink">
	<symbol id="boss-title" viewBox="0 0 376 332">
		<path d="M373.9 207.7l-.7-.8c-.8-.9-2-1.5-3.3-1.5h-.1l-10.2.2v-45.9c.2-.5.4-1 .4-1.5l.5-5.6c.1-1.1-.2-2.2-.9-3.1v-12.6c.5-.7.9-1.5.9-2.4l.5-5.6c.1-1.2-.3-2.5-1.2-3.4l-.3-.3v-7.3c.7-.7 1.1-1.6 1.1-2.6l.5-5.5c.1-1.2-.3-2.5-1.2-3.4l-.3-.4c-.5-.6-1.2-1-1.9-1.2l.2-2.5h.6c1.1 0 2.2-.4 3-1.2l.4-.4c.8-.8 1.3-1.8 1.4-2.9l.5-5.6c.1-1.2-.3-2.5-1.2-3.4l-.3-.4c-.8-.9-2-1.5-3.3-1.5h-.1l-5.6.1h-4.2l-3.3-.1-.3-.4c-.8-.9-2-1.5-3.3-1.5h-5.9c-1.1 0-2.2.4-3 1.2l-.4.4c-.8.8-1.3 1.8-1.4 2.9v.4c-.3-.6-.7-1.2-1.2-1.7l-.2.2c-.8-.7-1.9-1.1-3-1.1h-.1l-5 .1h-3.8l-4.5-.1v-9.7c1.7-2.2 2.3-4.4 3-6.9.6-2.3 1.2-5.1 1.7-10.1.1-1.4-.4-2.8-1.4-3.7l-.6-.5c-.8-.8-1.9-1.2-3.1-1.2h-.1l-2.1.1.1-1.5c.1-.6 0-1.2-.2-1.7.1-.3.2-.7.2-1l.2-2.3c.6-.1 1.2-.4 1.7-.8l.5-.4c1-.8 1.6-1.9 1.7-3.1l.1-.8c1.5-.2 2.9-1 3.7-2.3l5.3-7.2c.9-1.2 1.1-2.8.6-4.3-.6-1.4-1.8-2.5-3.3-2.8-2-.4-3.9-.9-5.6-1.4.5-.7 1-1.5 1.4-2.3h1.3c1 0 2-.3 2.7-.9l.5-.4c1-.8 1.6-1.9 1.7-3.1l.5-6.1c.1-1.4-.4-2.8-1.5-3.7l-.4-.4c-.8-.7-1.9-1.1-3-1.1h-.1l-8.6.2h-3.5v-.1c-.3-1.6-1.5-2.9-3.1-3.4l-7-2c-.4-.1-.8-.2-1.3-.2-.3 0-.6 0-1 .1l-.7.1c-1.3.3-2.4 1.1-3 2.3-.2.3-.3.7-.5 1-.7-.4-1.5-.6-2.3-.6h-.1l-3.8.1c-.1-.1-.2-.3-.3-.4l-.4-.5c-.8-1.1-2.2-1.7-3.5-1.7h-7c-1.1 0-2.1.4-2.9 1.1-.8-.7-1.8-1.1-2.9-1.1h-6.9c-1.1 0-2.2.4-3 1.2l-.6.5c-.3.3-.6.6-.8 1l-5-.1h-.1c-1 0-2 .3-2.7.9l-.8.3c-.4.3-.7.6-.9 1l-.2-.2c-.8-.9-2-1.5-3.3-1.5h-.1l-12.5.2h-41.3l-12.5-.2h-.1c-1.1 0-2.2.4-3 1.2l-.6.5c-.8.8-1.3 1.8-1.4 2.9l-.6 7.2h-.6c.1-.7.1-1.5-.2-2.3l-.2-.7c-.4-1-1.1-1.9-2.1-2.4l-3.9-2.1c.1-.7 0-1.5-.2-2.2l-.2-.7c-.5-1.3-1.5-2.3-2.7-2.7l-6.2-2.2c-.5-.2-1-.3-1.5-.3s-.9.1-1.4.2l-.7.2c-1.2.4-2.2 1.3-2.7 2.5-.4.8-.7 1.7-1.2 2.6-.2-.8-.5-1.6-1.1-2.2l-.5-.5c-.8-.9-2.1-1.5-3.3-1.5h-.2l-5.2.2H124.9c-1.1 0-2.2.4-3 1.2l-.6.5c-.8.8-1.3 1.8-1.4 2.9l-.2 2.6-1.1-.6c.1-.7 0-1.5-.2-2.2l-.3-.6c-.5-1.3-1.5-2.3-2.7-2.7l-6.2-2.2c-.5-.2-1-.3-1.5-.3s-.9.1-1.4.2l-.7.2c-1.2.4-2.2 1.3-2.7 2.5-.7 1.7-1.5 3.3-2.3 4.9-1.2.1-2.3.6-3.1 1.6-.2-.9-.6-1.8-1.3-2.4l-.5-.5c-.8-.8-1.9-1.2-3-1.2h-.1l-10.8.2H67.9V7c.1-1.2-.3-2.5-1.2-3.4l-.5-.5c-.8-.9-2-1.5-3.3-1.5h-10c-1.2 0-2.4.5-3.2 1.4l-.6.6c-.7.7-1.1 1.7-1.2 2.7l-.1 1.2H33.5L23 7.4h-.1c-.7 0-1.5.2-2.2.6l-.7.4c-1.2.7-2.1 2-2.2 3.5l-.6 7.5c-.1 1.1.2 2.3.9 3.2l.5.6c.8 1.1 2.1 1.7 3.5 1.7h.1l4.3-.1c-.4.6-.7 1.4-.8 2.1l-.1.7c-.1 1.5.5 3 1.7 3.9h-7.2c-1.3 0-2.5.6-3.4 1.5l-.6.7c-1 1.2-1.3 2.7-.9 4.2l2.3 7.9c.3 1.1 1.1 2 2 2.6l.6.4c.5.3 1.1.5 1.6.6l-.3 6-.6 10.3-1.5 12.7c-.1 1.3.3 2.5 1.1 3.5.5.6 1.2 1 1.9 1.3l46.1 191.2c0 .4.1.8.2 1.3.5 7.5 2.8 13.8 6.9 18.1 3.6 3.9 8.4 6 13.8 6h1.3l17.8 2c.3 1 .6 2 .9 3.1.3 1 1.2 1.7 2.2 1.7h.3c5-.8 9.3-1.7 13-2.9l21.3 2.4-.1 1.3c-.1 1.4.4 2.7 1.4 3.7l.7.7c.8.8 1.9 1.2 3 1.2h.1l17.5-.3h65.8l17.5.3h.1c1.1 0 2.2-.4 3-1.2l.9-.8c.8-.8 1.3-1.8 1.4-2.9l.2-2.5h12.1c.2.5.5 1.1.9 1.5.8 1 2.1 1.5 3.3 1.5h16.3c1.9 0 3.6-1.2 4.2-3h14.7c.8.8 2 1.3 3.2 1.3h17.2l1.9 5.9c1.4 4.5 5.1 4.5 7.1 4.5 16.8 0 27.6-3.5 29.1-21.1v-.1l1.7-24.5 3.6-40.9 2.1-19.4c.2-1.3-.2-2.6-1.1-3.6z" fill="#fff"/>
		<path d="M365.9 220.7l-.7-.8c-.8-.9-2-1.5-3.3-1.5h-.9c-.1-1-.4-1.9-1.1-2.7l-.7-.8c-.8-.9-2-1.5-3.3-1.5h-.1l-4.2.1v-40.8c.2-.5.4-1 .4-1.5l.5-5.6c.1-1.1-.2-2.2-.9-3.1v-12.6c.5-.7.9-1.5.9-2.4l.5-5.6c.1-1.2-.3-2.5-1.2-3.4l-.3-.3v-7.3c.7-.7 1.1-1.6 1.1-2.6l.5-5.5c.1-1.2-.3-2.5-1.2-3.4l-.3-.4c-.5-.6-1.2-1-1.9-1.2l.2-2.5h.6c1.1 0 2.2-.4 3-1.2l.4-.4c.8-.8 1.3-1.8 1.4-2.9l.5-5.6c.1-1.2-.3-2.5-1.2-3.4l-.3-.4c-.8-.9-2-1.5-3.3-1.5H349.8c0-1.1-.4-2.3-1.2-3.1l-.3-.4c-.8-.9-2-1.5-3.3-1.5h-.1l-5.6.1h-4.2l-3.3-.1-.3-.4c-.8-.9-2-1.5-3.3-1.5h-5.9c-1.1 0-2.2.4-3 1.2l-.4.4c-.8.8-1.3 1.8-1.4 2.9v.4c-.3-.6-.7-1.2-1.2-1.7l-.2.2c-.8-.7-1.9-1.1-3-1.1h-.1l-5 .1h-2.3v-4.8c1.7-2.2 2.3-4.4 3-6.9.6-2.3 1.2-5.1 1.7-10.1.1-1.4-.4-2.8-1.4-3.7l-.6-.5c-.8-.8-1.9-1.2-3.1-1.2h-.9c0-1.3-.5-2.5-1.3-3.3.1-.3.2-.6.2-.8l.2-2.3c.6-.1 1.2-.4 1.7-.8l.5-.4c1-.8 1.6-1.9 1.7-3.1l.1-.8c1.5-.2 2.9-1 3.7-2.3l5.3-7.2c.9-1.2 1.1-2.8.6-4.3-.6-1.4-1.8-2.5-3.3-2.8-.8-.2-1.6-.4-2.4-.5 0-.5-.1-1.1-.3-1.7-.2-.6-.6-1.1-1-1.5H310.9c1 0 2-.3 2.7-.9l.5-.4c1-.8 1.6-1.9 1.7-3.1l.5-6.1c.1-1.4-.4-2.8-1.5-3.7l-.4-.4c-.8-.7-1.9-1.1-3-1.1h-1.1c0-1.3-.4-2.7-1.5-3.5l-.4-.4c-.8-.7-1.9-1.1-3-1.1h-.1l-8.6.2h-3.5v-.1c-.3-1.6-1.5-2.9-3.1-3.4l-7-2c-.4-.1-.8-.2-1.3-.2-.3 0-.6 0-1 .1l-.7.1c-1.3.3-2.4 1.1-3 2.3-.2.3-.3.7-.5 1-.7-.4-1.5-.6-2.3-.6h-.1l-3.8.1c-.1-.1-.2-.3-.3-.4l-.4-.5c-.8-1.1-2.2-1.7-3.5-1.7h-7c-1.1 0-2.1.4-2.9 1.1-.8-.7-1.8-1.1-2.9-1.1h-6.9c-1.1 0-2.2.4-3 1.2l-.6.5c-.3.3-.6.6-.8 1l-5-.1h-.1c-1 0-2 .3-2.7.9l-.8.3c-.4.3-.7.6-.9 1l-.2-.2c-.8-.9-2-1.5-3.3-1.5h-.1l-12.5.2h-41.3l-12.5-.2h-.1c-1.1 0-2.2.4-3 1.2l-.6.5c-.8.8-1.3 1.8-1.4 2.9l-.4 5.3-1-.5-.1-.5c0-.6-.1-1.2-.2-1.8l-.2-.7c-.5-1.3-1.5-2.3-2.7-2.7l-3-1.1c0-.2-.1-.4-.1-.5l-.2-.7c-.5-1.3-1.5-2.3-2.7-2.7l-6.2-2.2c-.5-.2-1-.3-1.5-.3s-.9.1-1.4.2l-.7.2c-1.2.4-2.2 1.3-2.7 2.5-.4.8-.7 1.7-1.2 2.6-.2-.8-.5-1.6-1.1-2.2l-.5-.5c-.8-.9-2.1-1.5-3.3-1.5h-.2l-5.2.2H111.1c-1.1 0-2.2.4-3 1.2l-.6.5c-.8.8-1.3 1.8-1.4 2.9l-.1.9-1.3-.5c0-.2-.1-.5-.2-.7l-.3-.6c-.5-1.3-1.5-2.3-2.7-2.7l-6.2-2.2c-.5-.2-1-.3-1.5-.3s-.9.1-1.4.2l-.7.2c-1.2.4-2.2 1.3-2.7 2.5-.7 1.7-1.5 3.3-2.3 4.9-1.2.1-2.3.6-3.1 1.6-.2-.9-.6-1.8-1.3-2.4l-.5-.5c-.8-.8-1.9-1.2-3-1.2h-.1l-10.8.2H57.5c-.7-.6-1.7-.9-2.6-.9h-1c0-1.1-.4-2.2-1.2-3l-.5-.5c-.8-.9-2-1.5-3.3-1.5h-10c-1.2 0-2.4.5-3.2 1.4l-.6.6c-.7.7-1.1 1.7-1.2 2.7l-.1 1.2H9h-.1c-.7 0-1.5.2-2.2.6l-.7.4c-1.2.7-2.1 2-2.2 3.5l-.6 7.5c-.1 1.1.2 2.3.9 3.2l.5.6c.8 1.1 2.1 1.7 3.5 1.7h1.1c0 1 .3 2 .9 2.7l.5.6c.3.4.7.8 1.2 1 .3.9.8 1.7 1.5 2.3H6.1c-1.3 0-2.5.6-3.4 1.5l-.6.7c-1 1.2-1.3 2.7-.9 4.2l2.3 7.9c.3 1.1 1.1 2 2 2.6l.6.4c.5.3 1.1.5 1.6.6l-.3 6-.6 10.3-1.5 12.7c-.1 1.3.3 2.5 1.1 3.5.5.6 1.2 1 1.9 1.3l46.1 191.2c0 .4.1.8.2 1.3.5 7.5 2.8 13.8 6.9 18.1 1.5 1.6 3.2 2.9 5 3.9.3.4.6.8 1 1.1 3.6 3.9 8.4 6 13.8 6h1.3l13.9 1.6c.3.1.6.2 1 .2h.3c.1 0 .2 0 .3-.1l2.3.3c.3 1 .6 2 .9 3.1.3 1 1.2 1.7 2.2 1.7h.3c5-.8 9.3-1.7 13-2.9l16.1 1.8c.1.2.3.4.5.6l.7.7c.8.8 1.9 1.2 3 1.2h.9c.1 1.2.5 2.3 1.4 3.1l.7.7c.8.8 1.9 1.2 3 1.2h.1l17.5-.3h65.8l17.5.3h.1c1.1 0 2.2-.4 3-1.2l.9-.8c.8-.8 1.3-1.8 1.4-2.9l.2-2.5h12.1c.2.5.5 1.1.9 1.5.8 1 2.1 1.5 3.3 1.5h16.3c1.9 0 3.6-1.2 4.2-3h14.7c.8.8 2 1.3 3.2 1.3h12.8l.3.9c1.1 3.7 3.8 4.3 5.8 4.5l.2.5c1.4 4.5 5.1 4.5 7.1 4.5 16.8 0 27.6-3.5 29.1-21.1v-.1l1.7-24.5 3.6-40.9 2.1-19.4c.2-1.3-.2-2.6-1.1-3.6z"/>
		<path d="M122.4 300.3c7.6-6.4 12.4-16.3 13.1-27.3.7-9.6-1.6-17.6-6.5-23.2-5.7-6.5-15.4-10.2-26.7-10.2-12.7 0-23.6 4.3-31.7 12.5-6.9 7-10.9 15.9-11.6 25.9-.6 8.7 1.5 16.3 5.7 20.9 2.8 3 6.4 4.6 10.5 4.6 7.3 0 13-4.7 18.5-15.3 5.5-10.4 9.3-21.8 12.2-36.9.2-1.2 1.4-2 2.6-1.8 3.6.6 5.8 1.6 8.3 3.6 5.5 4.4 8 11.1 7.5 19.5-.7 10.4-5.6 18.6-13.4 22.6-4.6 2.3-9.6 3.7-16.3 4.5 1.9 3.3 3.1 6.1 4.3 10.2 11.2-2 17.7-4.6 23.5-9.6zM95 252.2c-1.6 8.8-5 19.5-8.8 27.8-3.7 7.9-6.6 11.2-10 11.2-1.5 0-2.9-.6-4-1.9-2.2-2.4-3.3-6.8-2.9-11.9.6-8.5 5.3-17.5 12.1-22.9 3.6-2.9 7-4.4 11.2-5 .7-.1 1.4.1 1.9.7.4.5.6 1.3.5 2zM77.3 49.8l.2-.6c-3.5-5.5-7.4-10.1-12.6-14.3l-.7.1-7.1 3.9-.2.7c1.3 1.2 2.5 2.3 3.6 3.6-4.6.3-9.1.5-13.8.6 4.6-3.3 9.3-7 13.5-10.8v-.8l-6.2-4h13l10.8.2.6-.5.7-7.6-.5-.5-10.7.2H49l.5-5.4-.5-.5H38.9l-.6.6-.5 5.3H19.5L9 19.8l-.6.4-.7 7.6.4.6 10.6-.2H32c-1.3 1.5-2.5 3-3.9 4.3-1.9-1.1-3.8-2.1-5.9-3l-.7.2-5.3 5.6-.1.7c4.9 2.3 9.6 4.9 14.1 8.1-7.4 0-15.2-.1-24.2-.2l-.6.7 2.3 7.9.6.4c20.1-.7 38.1-1.1 57.3-2.8 1 1.5 1.9 3.1 2.8 4.7l-11.3.2H24.5l-11.3-.2-.7.5-.4 8.3-.9 10.5-1.4 12.8h10.7l.3-3.3H56l-.3 3.2h11l.8-13.1.9-10 1-8.3-.3-.4.7.2 7.5-5.4zM35.1 37c2.6-2.1 4.8-4.2 7.4-6.7v-.8l-2.3-1.3h11.5c-3.9 4.2-8.1 8.1-12.5 11.8-1.3-1.1-2.6-2.1-4.1-3zm-1.4 39.2H21.4l.3-3.6h12.4l-.4 3.6zm1-10.7H22.3l.3-3.4H35l-.3 3.4zm21.8 10.7H43.9l.3-3.6h12.7l-.4 3.6zm1-10.7H44.8l.3-3.4h12.7l-.3 3.4zM107.3 29l.5.5 7.1-.2h6.1l7 .2.6-.5v-.4c2.3 2.1 4.5 4.3 6.5 6.7-.5.6-1.1 1.3-1.5 2h-6.1l-.6.5.9 6 .7.2c2.5-.2 4.9-.4 7.2-.7l-.5 6.1-1.4 11.4h8.8l.6-11.4.2-1.9c1.1 3.2 1.7 6.4 2.1 10.4l.7.2 5.7-2.1.4-.7c-.7-4.2-1.4-7-2.7-10.2l-.8-.1-5.1 1.9-.3.6.4-5.1 3-.5c.2.8.3 1.4.5 2.2l.8.3 5.9-2 .4-.7c-.8-3.5-2.3-7.2-3.6-9.5l-.7-.2-5.1 1.7-.4.7c.3.8.5 1.5.9 2.3-1.4.2-2.7.2-4 .3 3.2-3.3 6.1-7 10.3-12.1l-.2-.7-5.7-3.1-.8.2c-1.5 2.5-3.3 5.2-5.2 7.9-.5-.5-1-1-1.5-1.4 2.3-3 4.7-6.6 7-10.2l-.3-.9-6.2-2.2-.8.3c-1.2 3-2.8 5.8-4.5 8.6-.4-.3-.6-.5-1-.8h-.8l-3.1 3.7.2-2.5-.5-.5-7.1.2h-6.1l-7-.2-.6.5-.3 5.2z" fill="#fff"/>
		<path d="M82.9 27.3l-.1.8c2.5 2.1 4.8 4.4 7.3 7.1-.6.7-1.1 1.4-1.6 2.1h-6.1l-.6.5.9 6 .7.2c2.5-.2 5-.5 7.3-.7l-.6 6.4-1.3 11h8.5l.7-11.3.6-7c.8-.2 1.6-.2 2.5-.4.2.7.3 1.4.4 2l.7.3 5.7-1.8.3-.5-.2 1.9.5.5 5.3-.2h6.4l5.3.2.6-.5.4-5-.5-.5-5.3.2h-6.4l-5.3-.2-.6.5-.2 2.7c-.8-3.4-2-6.9-3.2-9.1l-.7-.2-4.8 1.5-.4.7c.3.7.5 1.5.8 2.3-1.2.1-2.4.2-3.6.2 3.6-3.7 7.4-8.3 10.4-12.1l-.2-.7-5.7-3.1-.8.2c-1.5 2.5-3.3 5.2-5.2 7.9-.5-.5-1-1.1-1.5-1.5 2.5-3.1 4.5-6 7-10.2l-.2-.7-6.2-2.2-.7.2c-1.2 2.9-2.7 5.8-4.4 8.5l-1.3-.9h-.8l-3.8 4.9z" fill="#fff"/>
		<path d="M144.7 77.6c-6.8 0-13.1-.4-18.8-1.2 3.3-1.8 6.6-3.9 9.5-6.4l10.1.2.6-.5.5-6.1-.5-.5-10.1.2h-27.5c.8-.7 1.6-1.3 2.4-2l-.2-.5-2.1-.8 3.9-.2h6.6l5.7.2.6-.5.1-1.9 3.9 1.8c.3.2.6.2.8.2.4 0 .7-.3 1.1-1 1.9-3.6 3-7 4.3-11.4l-.3-.6-5.2-1.3-.6.4c-1 3.9-2 6.7-3.8 10.6l.2-3 .3-3 .5-4.2-.5-.5-5.7.2h-6.4l-5.7-.2-.5.6-.2 4.2-.3 3.4-.7 5.4-3.2-1.1-.8.2c-5.6 4.9-14.4 9.5-22.4 12.2l5.6 5.6c.3.2.7.5 1.2.5.3 0 .5-.1.8-.2 2.8-1.1 5.8-2.7 8.7-4.4 2.2 2 4.8 3.7 7.5 5.2-6.7 1.3-15 2.1-25.1 2.3l4.9 6.9c.4.5.6.8 1.3.8h.3c10-.5 20.1-2.4 29.1-5.7 7.7 2.5 18 4.4 28.9 4.7.8 0 1.1-.2 1.4-.7l6.2-8c-2.4.1-4.4.1-6.4.1zm-30.1-26.7h3.5l-.3 3.8h-3.5l.3-3.8zm.1 22.9c-3.2-1.1-6.2-2.3-9.1-4h17c-2.5 1.6-5.2 2.9-7.9 4zM121.3 31.1h-6.4l-5.3-.2-.6.5-.4 5 .5.6 5.3-.3h6.4l5.3.3.6-.6.4-5-.4-.5zM122.2 21.7l5.2.2.6-.5.5-5-.5-.5-5.4.2h-6.4l-5.3-.2-.6.5-.4 5 .5.5 5.3-.2zM90.1 46.3L84.7 45l-.7.4c-1.2 4.4-2.6 7.9-4.7 11.8l4.6 3c.3.2.5.3.7.3.4 0 .6-.5 1.1-1.1 1.8-3.3 3.3-7 4.7-12.4l-.3-.7z" fill="#fff"/>
		<path d="M98.9 46.4l-.4.6c.6 3 1 6.1 1.2 9.9l.7.3 5.1-1.6.4-.6c-.2-3.5-.8-7-1.9-9.9l-.7-.2-4.4 1.5zM219.5 69.9l.8-.1 8.2-8.4v-.8c-6.8-7.7-13.8-13.2-23.2-19.2l-.8.2-6.2 6.4.8-8.7c2.1-2.7 4.3-5.4 6.4-8.4l-.2-.7-3.2-2h13.7l12.3.2.6-.5.8-9.1-.5-.5-12.5.2H175l-12.6-.2-.6.5-.8 9.1.5.5 12.6-.2h19.6c-10.1 14.6-21.9 24.4-38.8 32.4l4.5 8c.3.7.7 1.1 1.3 1.1.3 0 .6-.1 1-.3 9.6-4.9 17.4-10.2 24.7-16.7l-.9 10.8-2.4 23h12.1l1.6-23.1 1.3-14c8.2 5.8 14.3 11.7 21.4 20.5zM270.7 82.5l.4-.5c-1-3-1.8-5-3.2-7.5l-.6-.2-7.7 2.3-.3.5c1.1 2.7 1.8 5.1 2.3 7.8l.6.3 8.5-2.7z" fill="#fff"/>
		<path d="M294.8 35.6c2.5-2.7 4.4-5.6 6-8.8l3.9.1.5-.4.5-6.1-.4-.4-8.7.2h-9.5c.5-.9 1.2-1.9 1.7-2.9l-.2-.8-7-2-.7.2c-2 3.9-5.5 8.8-9.2 12.4l-7.4.2h-14.7l-.2-.8-1.4-.5h4.7l.1-2.3h4.5L257 26h8.5l.1-2.3 7.8.2.5-.4.5-5.5-.4-.4-8 .2.2-2.3-.4-.5h-7l-.6.5-.1 2.3h-4.8l.2-2.3-.4-.5h-6.9l-.6.5-.2 2.3h-.3l-8.5-.2-.5.4-.5 5.5.4.4 8.5-.2h.2l-.1 1-1.2-.5-.8.1c-2.3 3.4-6.3 7.4-10 9.7l4.5 4.4c.3.3.5.5.7.5s.5-.1.8-.3c.6-.3 1-.7 1.6-1.1l-.2 1.8-.7 4.5.3.5 5.5-.2h6.7l5.5.2.5-.5.1-1.9 1.5 4.5h-5.5l-11.6-.2-.2.2-.6 9-.7 8.2-1.1 9.8.5.5 11.6-.2h37.3c-.2 1.4-.4 2.3-.6 3.1-.7 1.5-1.4 1.8-3.2 1.9-.6 0-1.2.1-1.9.1-.6-1.4-1.3-2.8-2.4-4.5l-.5-.2-7.3 2.3-.3.5c1.2 2.4 1.8 4.7 2.4 7.4l.7.2 6.2-2 .9 3.1c.2.8.4 1 1.3 1h2.3c3.9 0 6.8-.7 8.7-2.6 1.7-1.7 2.3-3.4 3-6.2.6-2.3 1.1-5 1.6-9.5l-.6-.5-9 .2h-17.5l.2-2.1h8.1l10.8.2.5-.5.4-4.1-.5-.6-10.8.2h-8.1l.2-2h7.9l10.8.2.5-.5.4-4-.5-.6-10.8.3h-7.9l.2-2.1h13l9.2.2.5-.4.5-5.7-.1-.2c.7.2 1.4.5 2.1.7.5.2 1 .3 1.3.3s.5-.1.7-.4l5.3-7.3c-4.6-1-8.6-2.3-12-4zm-3-8.9c-.9 1.7-2.1 3.2-3.4 4.5-1.4-1.4-2.7-2.9-3.7-4.5h7.1zm-40.7 13.2H247l.2-2.2h4.1l-.2 2.2zm7.2 0l.3-3 .4-2.8-.4-.5-5 .2h-7.7l-1.4-.1c.4-.5.9-.9 1.3-1.4h17.5c-.1 1.5-.7 5.3-.9 6-.4 1.2-.7 1.4-1.9 1.5-.6.1-1.2.1-2.2.1zm4.9 28h-13l.2-2.1h13l-.2 2.1zm.6-6.9h-13l.2-2h13l-.2 2zm.6-6.7h-13l.2-2.1h13l-.2 2.1zm1-8.2c1.2-.4 2.3-.9 3-1.7.8-.8 1.4-2 1.8-3.4l3.1 5.1h-7.9zm5.2-6.2l.4-1.6c.4-1.7.7-4.3.9-6.8l2.2 2.4c.3.4.6.5.8.5s.5-.1.8-.4c.9-.8 1.9-1.6 2.7-2.5 1 1.6 2 3.1 3.2 4.5-3.5 2-7.2 3-11 3.9zm17.1 6.2h-11.1c3.9-.9 7.6-2.4 11.2-4.6 2.7 1.9 5.7 3.3 8.9 4.4l-9 .2zM238.3 86.5l.8-.2c2.1-3.2 3.8-6.7 4.8-9.9l-.3-.5-8.4-2.3-.5.4c-.7 2.5-2.8 6-4.9 8.9l.1.6 8.4 3z" fill="#fff"/>
		<path d="M256.4 84l.5-.6c-.6-3.4-1.3-5.5-2.3-8.3l-.6-.2-7.9 1.7-.4.5c.8 3.1 1.3 5.2 1.5 8.6l.5.5 8.7-2.2zM221.9 301.2h-27.6l3.4-38.4h18.8l15.4.3.7-.6 1.2-14.2-.6-.5-15.4.3H199l2.7-31.8-.7-.8h-15.8l-.9.9-7.4 84.8H156l-17.6-.3-.7.6-1.3 14.3.7.6 17.6-.3h65.9l17.5.3.9-.8 1.2-14.1-.6-.6zM350.9 279.2l3.6-41 2.2-19.5-.7-.8-18.7.3h-57.2l-18.7-.3-.9.8-1.2 13.5.7.8 18.7-.3h59l-5.9 68c-.2 2.7-1 3.4-3.3 3.5-2.4.2-4.7.3-7.9.3h-3.8l4.9 15c.4 1.1.6 1.4 2.8 1.4 17.1 0 23.5-3.7 24.7-17l1.7-24.7z" fill="#fff"/>
		<path fill="#fff" d="M272.7 254h39.1l16.7.3.9-.8 1.1-12.8-.7-.8-16.8.3h-39.1l-16.9-.3-.9.8-1.1 12.8.7.8zM315.3 310.4l1.2-19.8 1.2-14.1 1.6-14.3-.7-.8-15.7.3h-21.8l-15.7-.3-.7.8-.9 14.3-1.4 16.3-2.2 19.2h16.3l.8-9h21.8l-.6 7.3h16.8v.1zM278.2 290l1.3-15.2h21.8L300 290h-21.8zM60.4 127.8c-4.1 4.6-9.5 8.3-16.2 11.1l4 4.8c.3.3.4.5.6.5.2 0 .4-.1.6-.2 6.1-2.8 11.2-6.3 16.6-11.8v-.6l-5.2-3.9-.4.1zM85.4 125.6l.4-.4.6-8.8.8-9.5.7-5.9-.3-.4-8.1.2H63.3l-8.1-.2-.4.4-.4 6.2-.9 10-.8 8 .3.4 8.1-.2h16.1l8.2.2zm-24.8-6.4l1.1-12h18.2l-1.1 12H60.6zM72.2 132.2c4.7 3.3 9.1 6.7 13.1 11.4h.5l5.5-5v-.5c-4.1-4.1-9.3-8-14-10.7l-.5.2-4.6 4.1v.5zM143.8 112.1l.5-5.5-.3-.4-7.6.2h-3.8c1.5-2.4 2.6-4.3 4.2-7.4v-.6l-6.3-2-.5.2c-1.3 3.4-2.7 6.7-4.4 9.8h-5.5c1.5-2.4 2.8-4.7 4-7.1v-.6l-6.1-2.4-.4.1c-3 7-7.4 13.5-13.2 18.9l3.9 4.1c.2.3.5.4.7.4.3 0 .6-.2 1-.6l1.7-1.7-.9 10.2-1.7 16.8h7.1l.3-3h17.2l7.6.2.4-.4.5-5.5-.3-.4-7.6.2h-4l.4-4.4h2.2l7.6.2.4-.4.5-5.2-.3-.4-7.6.2h-2.2l.3-3.9h2.2l7.6.2.4-.4.5-5.2-.3-.4-7.6.2h-2.2l.3-3.9h3.9l7.6.2-.2-.3zm-20.6 23.6h-6.4l.4-4.4h6.4l-.4 4.4zm.9-10h-6.4l.3-3.9h6.4l-.3 3.9zm.8-9.6h-6.4l.3-3.9h6.4l-.3 3.9zM104.5 110.8l5.2-4.7.1-.5c-2.5-2.5-4.4-4.1-6.6-5.7h-.6l-5 4.4v.5c2 1.6 4.2 3.7 6.4 6.1l.5-.1z"/>
		<path d="M99.4 139.8l.5-.3c3.5-5.8 5.5-9.9 7.9-15.3.1-.2.1-.3.1-.4 0-.3-.1-.5-.4-.8l-4.9-3.8c-2.9 6.4-5.5 11.3-8.8 16.5l.1.5 5.5 3.6zM190.1 103.4l-.4-.3-8.4.2h-8.5c1.1-1.7 2.2-3.4 3.3-5.3l-.3-.5-6.9-1.3-.5.3c-1.2 2.4-2.2 4.5-3.6 6.8h-3.7l-8.4-.2-.4.3-.6 8.5-1.2 13.8-1.9 18.5h7.4l.2-2.7h22.9l-.2 2.7h7.7l1.4-19.3 1.1-13 1-8.5zm-10.4 31.8h-22.9l.4-5h22.9l-.4 5zm1-10.7h-22.9l.4-4.8h22.9l-.4 4.8zm.9-10.5h-22.9l.4-4.7H182l-.4 4.7zM242.3 132c.1-.6 0-.9-.8-1.1l-5.9-2.1c-1 7.4-1.2 7.6-17.9 7.6-10.2 0-10.5-.2-10.2-3.4l1-11.1H229l8 .2.4-.4.4-6.3.9-10.1.6-5.6-.3-.4-8 .2h-20.3l-8.6-.2-.3.3-.5 5.9.3.3 8.6-.2h20.9l-.9 9.9h-20.4l-7.9-.2-.4.4-.3 5.5-.5 5.2-.8 7.9c-.7 7.5.8 8.6 16.8 8.6 14.7 0 18.4-.5 20.6-1.6 3.1-1.4 4.4-3.6 5-9.3zM295 106.4l.4-.4.5-6-.3-.4-8.3.2h-30.8l-8.3-.2-.4.4-.5 6 .3.4 8.3-.2h9.6l-1.8 20.5-1.8 17.7h8.4l1.3-17.7.7-8.2c3.7 2.3 7.4 5.3 10.4 8.6l.5.1 5.2-5.2.1-.5c-3.3-3.4-8.5-6.8-12.7-8.7l-.5.1-2.7 2.9.8-9.4H295zM309.7 133.3c.9-.4 1-.6 1.1-1.5l.4-5.1c-1.4.5-2.9.9-4.4 1.4l.8-9.2 3.1.1.3-.3.5-5.5-.3-.3-3.1.1.7-7.5 3.8.1.3-.3.5-5.5-.3-.3-5.1.2h-3.9l-5.3-.2-.3.3-.5 5.4.3.3 4.1-.1-.7 7.5-3.7-.1-.3.3-.5 5.4.3.3 3.6-.1-.9 10.8c-1.7.4-3.4.7-5.1 1l-.3.5 1.5 5.9.4.3c5.2-1.3 10-2.8 13-3.9z" fill="#fff"/>
		<path d="M326.9 119.4l1.8-21-.3-.4h-5.9l-.4.4-2 22.6c-.9 10.3-3.6 14.2-13.7 17.9l4.4 4.3c.3.3.6.5.8.5.3 0 .5-.1.8-.3 10.9-5 13.3-11.4 14.5-24z" fill="#fff"/>
		<path fill="#fff" d="M318.7 117l1.1-12.4-.4-.4H314l-.4.4-1.1 12.3-1.1 9.9h6.7zM329 142.4h7l5.7.1.4-.3.4-5.6-.3-.3-4.9.1 1.2-13.1 3.4.1.4-.4.5-5.4-.4-.4-3.4.1 1-11.4 4.7.1.4-.3.5-5.6-.3-.4-5.7.2h-4.4l-5.3-.2-.4.4-.4 5.6.3.3 3.9-.1-1 11.4-3.6-.1-.3.4-.5 5.4.3.4 3.6-.1-1.2 13.1h-1.1l-5.7-.1-.4.3-.4 5.6.3.3zM83.8 193.5l.5-.1 5.4-5.6v-.5c-4.5-5.1-9.1-8.7-15.4-12.7l-.5.1-4.1 4.2.5-5.8c1.4-1.8 2.8-3.6 4.2-5.6l-.2-.5-2.1-1.3h9.1l8.3.2.4-.4.5-6-.3-.4-8.3.2H54.4l-8.3-.2-.4.4-.5 6 .3.4 8.3-.2h13c-6.7 9.7-14.5 16.1-25.7 21.5l3 5.3c.2.5.5.7.8.7.2 0 .4-.1.7-.2 6.4-3.3 11.5-6.7 16.3-11.1l-.6 7.1-1.6 15.4h8l1.1-15.3.8-9.2c5.5 3.8 9.5 7.7 14.2 13.6zM140.3 172.3l.5-5.5-.3-.4-7.6.2h-3.8c1.5-2.4 2.6-4.3 4.2-7.4v-.6l-6.3-2-.5.2c-1.3 3.4-2.7 6.7-4.4 9.8h-5.6c1.5-2.4 2.8-4.7 4-7.1v-.6l-6.1-2.4-.4.1c-3 7-7.4 13.5-13.2 18.9l3.9 4.1c.2.3.5.4.7.4.3 0 .6-.2 1-.6.5-.6 1.1-1.1 1.7-1.7l-.9 10.2-1.7 16.8h7.1l.3-3h17.2l7.6.2.4-.4.5-5.5-.3-.4-7.6.1h-4l.4-4.4h2.2l7.6.2.4-.4.5-5.2-.3-.4-7.6.2h-2.2l.3-3.9h2.2l7.6.2.4-.4.5-5.2-.3-.4-7.6.2h-2.2l.3-3.9h3.9l7.6.2-.1-.2zm-20.7 23.6h-6.4l.4-4.4h6.4l-.4 4.4zm.9-10h-6.4l.3-3.9h6.4l-.3 3.9zm.8-9.6h-6.4l.3-3.9h6.4l-.3 3.9zM100.9 171l5.2-4.7.1-.5c-2.5-2.5-4.4-4.1-6.6-5.7H99l-5 4.4v.5c2 1.6 4.2 3.7 6.4 6.1l.5-.1z"/>
		<path d="M95.9 199.9l.5-.3c3.5-5.8 5.5-9.9 7.9-15.3.1-.2.1-.3.1-.4 0-.3-.1-.5-.4-.8l-4.9-3.7c-2.9 6.4-5.5 11.3-8.8 16.5l.1.5 5.5 3.5zM176.7 191.7l1-14 1.2-14.4-.3-.3h-6.2l-.4.3-1.2 14.4-1.5 14zM159.8 176.4l7 .2.4-.4.4-6.8.4-4.4.7-5.8-.3-.4-7 .2h-7.9l-7-.2-.4.4-.4 5.8-.4 4.4-.7 6.8.3.4 5.5-.1c-1.1 12-3.6 17-10.3 22l3.9 4.8c.2.3.4.4.6.4.2 0 .4-.2.7-.5 2.3-2.1 4.2-4 5.8-6.2l2.1 6c.2.7.5 1 1.4 1 7.9 0 9.6-2.8 10.9-8.7.9-4 1.4-8.3 2.1-15.1l-.3-.4-6.5.1h-3.9c.2-1.2.3-2.3.4-3.5h2.5zm.2 9.5c-.2 2.3-.7 5-1.1 7-.7 3.4-1.2 4.2-3.8 4.2-.7 0-1.5 0-3.7-.2 2.4-3.3 3.8-7.2 4.7-11h3.9zm-8-15.2l.5-5.9h8.6l-.5 5.9H152z" fill="#fff"/>
		<path d="M187.4 185.6l2.4-27.2-.3-.4h-6.4l-.4.4-3.2 36.8c-.1 1.2-.4 1.5-1.5 1.6-.9.1-3.1.2-5.4.2l2.6 6.5c.2.5.2.6 1.3.6 8.2 0 9.7-1.7 10.2-7.6l.7-10.9zM220.1 173.1c.8-4.1 1.3-8.4 1.9-13.8l-.3-.4-7.4-.3-.4.4c-.6 9.3-1.9 15.5-3.4 20-3.1 8.9-10 15-19.9 19.5l4.5 5.6c.2.2.3.3.5.3s.4-.1.7-.2c9.1-4.3 16.4-11.2 20.2-19.7 2.8 8 8.5 14.9 16.5 19.3.3.2.5.3.7.3s.4-.1.6-.3l5.3-6.2c-10.3-5.6-16.7-12.1-19.5-24.5zM291.5 166.5l.4-.4.5-6-.3-.4-8.3.2H253l-8.3-.2-.4.4-.5 6 .3.4 8.3-.2h9.6l-1.8 20.5-1.8 17.7h8.4l1.3-17.7.7-8.2c3.7 2.3 7.4 5.3 10.4 8.6l.5.1 5.2-5.2.1-.5c-3.3-3.4-8.5-6.8-12.7-8.7l-.5.1-2.7 2.9.8-9.4h21.6zM323.3 179.5l1.8-21-.3-.4h-5.9l-.4.4-2 22.6c-.9 10.3-3.6 14.2-13.7 17.9l4.4 4.3c.3.3.6.5.8.5.3 0 .5-.1.8-.3 11-5 13.4-11.3 14.5-24z" fill="#fff"/>
		<path d="M306.1 193.5c.9-.4 1-.6 1.1-1.5l.4-5.1c-1.4.5-2.9.9-4.4 1.4l.8-9.2 3.1.1.3-.3.5-5.5-.3-.3-3.1.1.7-7.5 3.8.1.3-.3.5-5.5-.3-.3-5.1.2h-3.9l-5.3-.2-.3.3-.5 5.4.3.3 4.1-.1-.7 7.5-3.7-.1-.3.3-.5 5.4.3.3 3.6-.1-.9 10.8c-1.7.4-3.4.7-5.1 1l-.3.5 1.5 5.9.4.3c5.3-1.3 10-2.8 13-3.9zM325.4 202.6h7.1l5.6.1.4-.4.5-5.5-.3-.4-4.9.2 1.1-13.2 3.5.1.3-.3.5-5.5-.3-.3-3.4.1 1-11.4 4.7.1.4-.4.4-5.5-.3-.4-5.7.2h-4.3l-5.3-.2-.4.4-.5 5.5.3.4 3.9-.1-.9 11.4-3.6-.1-.4.3-.5 5.5.4.3 3.5-.1-1.1 13.2h-1.2l-5.6-.2-.4.4-.5 5.5.3.4zM315.1 177.2l1.1-12.5-.3-.3h-5.5l-.3.4-1.1 12.3-1.1 9.9h6.6z" fill="#fff"/>
	</symbol>
	<symbol id="client-title" viewBox="0 0 368 336">
		<path d="M367.6 229.9l-4.5-9.7-1.4-76.8c.5-.6.8-1.4 1-2.2l2.5-19c.7-5.5-1-8.9-2.6-10.7-2.2-2.6-5.4-4-9.3-4.1-.9 0-1.8 0-2.7.1l.8-6c0-.2.1-.4.1-.6.1-2.5-1.9-4.5-4.3-4.6l-8.4-.2h-.4c-3.7-4-7.3-7.6-10.1-10.1l.8-26.4.1-.6c.1-.4 0-.9 0-1.3l.1-3.7c.5-.6.8-1.3.9-2.1l1-7.8c.1-1.1-.1-2.2-.7-3.1.3-.1.5-.3.7-.5l.6-.5c.8-.7 1.4-1.7 1.5-2.8l1.1-8c.2-1.2-.2-2.5-1-3.5l-.5-.5c-.7-.8-1.7-1.4-2.8-1.5l.1-3.6c.3-.5.5-1 .8-1.5.3-.7.5-1.4.5-2.2v-.8c-.1-1.8-1.3-3.4-3-4l-8.6-3c-.4-.2-.9-.2-1.3-.2-.5 0-1 .1-1.5.2l-.6.2c-1.1.4-2.1 1.2-2.6 2.2l-8-2.8c-.4-.2-.9-.2-1.4-.3-.4 0-.8 0-1.2.1l-.6.1c-1.4.3-2.6 1.4-3.1 2.7-.4.9-.7 1.9-1.1 2.8-.2 0-.4 0-.6-.1h-2.7c.1-.9-.2-1.8-.6-2.6l-.4-.6c-.8-1.3-2.2-2.1-3.7-2.2l-7.6-.1c-1 0-2.1.3-2.9 1-.8-.7-1.8-1.1-2.8-1.1l-7.8-.2c-1.1 0-2.2.3-3 1.1l-.6.5c-.8.7-1.4 1.7-1.5 2.8l-.1.7-3.4-.2h-.1c-1.1 0-2.1.3-3 1l-5.9-.1-.1-.1c-.8-1-2-1.5-3.3-1.6L190 10.1c-1.8-.1-3.4 1-4.1 2.5l-8.4-.1c-.2-.4-.5-.8-.8-1.1l-.5-.5c-.8-.8-1.9-1.3-3-1.3h-.1l-10.7-.2-13.9-.4.1-.5c.2-1.2-.2-2.5-1-3.5l-.5-.5c-.8-1-2-1.5-3.3-1.6l-10.2-.3c-1.2 0-2.4.4-3.2 1.2l-.6.6c-.7.7-1.2 1.6-1.3 2.6l-.2 1.4-14.4-.4-10.5-.5h-.1c-.8 0-1.6.2-2.3.5l-.7.4c-.1.1-.2.1-.3.2-.8-.8-1.9-1.2-3-1.3h-.1l-10.5.1L72.5 7l.1-.5c.2-1.2-.2-2.5-1-3.5l-.5-.5c-.8-1-2-1.5-3.3-1.6L57.6.6c-1.2 0-2.4.4-3.2 1.2l-.6.6c-.7.7-1.2 1.6-1.3 2.6l-.2 1.4L37.9 6l-10.5-.5h-.1c-.8 0-1.6.2-2.3.5l-.7.4c-1.2.7-2.1 1.9-2.3 3.3l-1 7.6c-.2 1.1.1 2.3.8 3.2l.5.6c.8 1.1 2.1 1.8 3.5 1.8H30.2c-.5.6-.8 1.3-.9 2.1l-.1.7c-.2 1.6.5 3.2 1.7 4.1-1.4-.1-2.9-.1-4.4-.2l-3.2-.1c-1.3 0-2.5.5-3.4 1.4l-.6.7c-1 1.1-1.4 2.6-1.1 4.1l2 8c.3 1.1 1 2.1 1.9 2.7l.6.4c.5.3 1 .5 1.6.6l-.3 6.2L22.6 64l-2.1 12.7c-.2 1.3.1 2.6 1 3.6.6.7 1.4 1.2 2.2 1.4L63.8 272c0 1.1.6 2.7 1.6 4.5.7 6.7 3 12.5 6.7 16.7 3.9 4.5 9.2 6.9 15.2 7.1 3.2.1 6.1-.5 8.7-1.5l7.7 1.1c.4 1.3.8 2.7 1.2 4.4.5 2 2.2 3.4 4.2 3.4h.7c7.5-.9 13.3-2.3 18.3-4.3l35.8 5.1c.3 0 1.1 0 2.4.1l-.7 4.3c-.2 1.3.1 2.6.9 3.6s2 1.6 3.3 1.6l15.3.4c2.3.1 4.2-1.6 4.5-3.9l.1-1.1 24.8.7c-.1 1.2.2 2.4 1 3.4s2 1.5 3.3 1.6l15.8.5c2.3.1 4.3-1.7 4.6-4l.4-3.8c9.6.3 18.7.6 26 .6l8.6 7.2c.8.7 1.8 1 2.7 1 1.3 0 2.5-.5 3.4-1.5 8.4-9.2 14.2-20.4 17.3-33.3l58.7 1.7c2.3.1 4.2-1.6 4.5-3.9L366 245c0-.2.1-.4.1-.6.1-1.9-1.1-3.5-2.7-4.2l-.1-4.1c.3 0 .5-.1.8-.1 1.4-.2 2.6-1.1 3.3-2.3.7-1 .8-2.5.2-3.8z" fill="#fff"/>
		<path d="M355.2 244.6l-4.5-9.7-1.4-76.8c.5-.6.8-1.4 1-2.2l2.5-19c.7-5.5-1-8.9-2.6-10.7-1.2-1.4-2.7-2.5-4.5-3.2-.4-.8-.9-1.5-1.3-2-1.4-1.7-3.3-2.9-5.5-3.5l.2-1.3c0-.2.1-.4.1-.6.1-2.5-1.9-4.5-4.3-4.6h-1.6c0-.2 0-.4.1-.5.1-2.5-1.9-4.5-4.3-4.6l-7.9-.2c-1.9-1.9-3.6-3.6-5.1-5l.8-26.4.1-.6c.1-.4 0-.9 0-1.3l.1-3.7c.5-.6.8-1.3.9-2.1l1-7.8c.1-1.1-.1-2.2-.7-3.1.3-.1.5-.3.7-.5l.6-.5c.8-.7 1.4-1.7 1.5-2.8l1.1-8c.2-1.2-.2-2.5-1-3.5l-.5-.5c-.7-.8-1.7-1.4-2.8-1.5l.1-3.6c.3-.5.5-1 .8-1.5.3-.7.5-1.4.5-2.2v-.8c-.1-1.8-1.3-3.4-3-4l-2.9-1v-.2c-.1-1.8-1.3-3.4-3-4l-8.6-3c-.4-.2-.9-.2-1.3-.2-.5 0-1 .1-1.5.2l-.6.2c-1.1.4-2.1 1.2-2.6 2.2l-8-2.8c-.4-.2-.9-.2-1.4-.3-.4 0-.8 0-1.2.1l-.6.1c-1.4.3-2.6 1.4-3.1 2.7-.4.9-.7 1.9-1.1 2.8-.2 0-.4 0-.6-.1h-.5c-.4-.1-.7-.2-1.1-.2H277c0-.8-.2-1.6-.6-2.4l-.4-.6c-.8-1.3-2.2-2.1-3.7-2.2l-7.7-.2c-1 0-2.1.3-2.9 1-.8-.7-1.8-1.1-2.8-1.1l-7.8-.2c-1.1 0-2.2.3-3 1.1l-.6.5c-.8.7-1.4 1.7-1.5 2.8l-.1.7-3.4-.2h-.1c-1.1 0-2.1.3-3 1l-5.9-.1-.1-.1c-.8-1-2-1.5-3.3-1.6l-58.5-1.7c-1.8-.1-3.4 1-4.1 2.5l-8.4-.1c-.2-.4-.5-.8-.8-1.1l-.5-.5c-.8-.8-1.9-1.3-3-1.3h-10.7l-10-.3c-.8-.6-1.7-1-2.7-1h-1.1c0-1.1-.3-2.2-1-3l-.5-.5c-.8-1-2-1.5-3.3-1.6l-10.2-.3c-1.2 0-2.4.4-3.2 1.2l-.6.6c-.7.7-1.2 1.6-1.3 2.6l-.2 1.4-14.4-.4-10.5-.5H85c-.8 0-1.6.2-2.3.5l-.7.4c-.1.1-.2.1-.3.2-.8-.8-1.9-1.2-3-1.3h-.1l-10.7-.2-10-.3c-.8-.6-1.7-1-2.7-1h-1.1c0-1.1-.3-2.2-1-3l-.5-.5c-.8-1-2-1.5-3.3-1.6l-9.9-.4c-1.2 0-2.4.4-3.2 1.2l-.6.6c-.7.7-1.2 1.6-1.3 2.6l-.2 1.4-14.4-.4L9.2 15h-.1c-.8 0-1.6.2-2.3.5l-.7.4c-1.2.7-2.1 1.9-2.3 3.3l-1 7.6c0 1.1.2 2.3.9 3.2l.5.6c.8 1.1 2.1 1.8 3.5 1.8h1.1c0 1 .3 1.9.8 2.7l.5.6c.3.4.7.8 1.2 1.1.2 1 .8 1.9 1.6 2.5-1.4-.1-2.9-.1-4.4-.2L5.3 39c-1.3 0-2.5.5-3.4 1.4l-.6.7c-1 1.1-1.4 2.6-1.1 4.1l2 8c.3 1.1 1 2.1 1.9 2.7l.6.4c.5.3 1 .5 1.6.6L5.8 63 4.4 73.5 2.3 86.2c-.2 1.3.1 2.6 1 3.6.6.7 1.4 1.2 2.2 1.4l40.1 190.3c0 1.1.6 2.7 1.6 4.5.7 6.7 3 12.5 6.7 16.7 1.5 1.7 3.2 3.1 5.1 4.2.2.3.5.6.7.9 3.9 4.5 9.2 6.9 15.2 7.1 3.2.1 6.1-.5 8.7-1.5l3.1.4c.5 1.9 2.2 3.3 4.2 3.3h.7c.2 0 .3 0 .5-.1.1.6.3 1.2.4 1.8.5 2 2.2 3.4 4.2 3.4h.7c7.5-.9 13.3-2.3 18.3-4.3l31.6 4.5c-.2 1.2.2 2.5 1 3.4.8 1 2 1.6 3.3 1.6h1.6c-.2 1.2.1 2.5.9 3.5s2 1.6 3.3 1.6l15.3.4c2.3.1 4.2-1.6 4.5-3.9l.1-1.1 24.8.7c-.1 1.2.2 2.4 1 3.4s2 1.5 3.3 1.6l15.8.5c2.3.1 4.3-1.7 4.6-4l.4-3.8c9.6.3 18.7.6 26 .6l8.6 7.2c.8.7 1.8 1 2.7 1 1.3 0 2.5-.5 3.4-1.5 8.4-9.2 14.2-20.4 17.3-33.3l58.7 1.7c2.3.1 4.2-1.6 4.5-3.9l5.2-38.7c0-.2.1-.4.1-.6.1-1.9-1.1-3.5-2.7-4.2l-.1-4.1c.3 0 .5-.1.8-.1 1.4-.2 2.6-1.1 3.3-2.3.7-.8.8-2.3.2-3.5z"/>
		<path d="M76.2 51.5l.2-.6c-3.2-5.7-6.9-10.4-12-14.8l-.7.1-7.3 3.8-.2.7c1.2 1.3 2.4 2.4 3.5 3.8-4.6.2-9.2.3-13.8.2 4.8-3.2 9.6-6.8 14.1-10.5v-.8l-6-4.2 13 .4 10.6.4.6-.5 1-7.6-.5-.5-10.7-.1-18.8-.5.7-5.4-.5-.5-10.2-.3-.6.6-.7 5.3-18.4-.5L9 19.4l-.7.4-1 7.6.5.6 10.7.1 13.3.4c-1.3 1.5-2.7 2.9-4.1 4.2-1.8-1.1-3.7-2.2-5.7-3.2l-.7.2-5.6 5.5-.1.7c4.9 2.5 9.4 5.2 13.8 8.6-7.4-.2-15.3-.5-24.2-.8l-.6.7 2 8 .6.4c20.2-.1 38.3 0 57.6-1.2.9 1.6 1.8 3.2 2.6 4.8L56 56.3l-33-.9-11.4-.6-.7.5-.7 8.4-1.4 10.5-2.1 12.7 10.7.3.4-3.3 35.3 1-.4 3.2 11 .3 1.4-13.2 1.3-10 1.4-8.4-.3-.4.7.2 8-5.1zM34.4 37.4c2.7-2.1 5-4.1 7.7-6.6V30l-2.3-1.4 11.7.4c-4.1 4.1-8.5 8-13.1 11.6-1.3-1.1-2.6-2.2-4-3.2zm-3.2 39.4l-12.4-.4.5-3.6 12.4.4-.5 3.6zm1.4-10.7l-12.4-.4.5-3.4 12.4.4-.5 3.4zm21.5 11.3L41.4 77l.5-3.6 12.7.4-.5 3.6zm1.4-10.6l-12.7-.4.5-3.4 12.7.4-.5 3.4zM152.2 53.7l.2-.6c-3.2-5.7-6.9-10.4-12-14.8l-.7.1-7.3 3.8-.2.7c1.2 1.3 2.4 2.4 3.5 3.8-4.6.2-9.2.3-13.8.2 4.8-3.2 9.6-6.8 14.1-10.5v-.8l-6-4.2 13 .4 10.7.5.6-.5 1-7.6-.5-.5-10.8-.3-18.8-.5.7-5.4-.5-.5-10.2-.3-.6.6-.7 5.3-18.4-.6-10.5-.4-.7.4-1 7.6.5.6 10.7.1 13.3.4c-1.3 1.5-2.7 2.9-4.1 4.2-1.8-1.1-3.7-2.2-5.7-3.2l-.7.2-5.6 5.5-.2.6c4.9 2.5 9.4 5.2 13.8 8.6-7.4-.2-15.3-.5-24.2-.8l-.6.7 2 8 .6.4c20.2-.1 38.3 0 57.6-1.2.9 1.6 1.8 3.2 2.6 4.8l-11.4-.1-33-.9-11.4-.6-.7.5-.7 8.4-1.4 10.6-2.1 12.8 10.7.3.4-3.3 35.3 1-.4 3.2 11 .3 1.4-13.2 1.3-10 1.4-8.4-.3-.4.7.2 8.1-5.2zm-41.8-14.1c2.7-2.1 5-4.1 7.7-6.6v-.8l-2.3-1.4 11.6.3c-4.1 4.1-8.5 7.9-13.1 11.5-1.2-1-2.5-2.1-3.9-3zM107.2 79l-12.4-.4.5-3.6 12.4.4-.5 3.6zm1.4-10.7L96.2 68l.5-3.4 12.4.4-.5 3.3zm21.5 11.3l-12.7-.4.5-3.6 12.7.4-.5 3.6zm1.4-10.6l-12.7-.4.5-3.4 12.7.4-.5 3.4zM230.1 25.7L171.6 24l-1.4 10.3 47.4 1.4c-1.7 12.3-3.4 22.8-5.2 31.2-1.1 5.1-2.1 8.4-3.1 10.1-1 1.6-3.4 2.4-7.4 2.3-3.2-.1-6.6-.4-10.3-.9l1.6 12.8c1.6.2 3.5.3 5.7.3 8.1.2 13.6-1.1 16.5-4 2.9-2.9 5.3-8 7-15.3 1.6-7.3 4.2-22.8 7.7-46.5z" fill="#fff"/>
		<path d="M207.2 55l-4.1-9.1c-16.3 7.8-30.5 12.8-42.8 15.1l3.7 10.2c14.1-3.8 28.5-9.2 43.2-16.2zM304.2 92l.7-.5 1.1-8.1-.5-.5H297l.9-7.1 7.1.4.6-.5 1-7.8-.5-.5h-7.2l.9-6.5 7.1.4.6-.5 1-7.8-.5-.5h-7.2l.8-6.3 8.3.5.6-.5 1.1-8-.5-.5h-8.9c2.3-3.8 4.5-7.7 6.4-11.5v-.8l-8.6-3-.6.2c-1.7 4.8-3.7 9.7-6.1 14.9l-4.3-.1c1.8-3.6 3.5-7.5 5.3-11.6V25l-8.2-2.9-.6.1c-3.4 8.8-6.8 16.5-11.8 23.4l.7-4.3-.5-.5h-7.5l-15.5-.4-7.4-.4-.6.5-.6 6.4-.5 3.9-1.2 7 .5.6h7.4l2.9.1-.4 2.7h-1.3l-9.5-.5-.5.4-.9 6.9.5.5h10.6c-.2.8-.4 1.7-.6 2.6l-3.4-.1-9.5-.5-.5.4-1 7.2.5.5h10.4c-2.7 3.9-6.7 6.2-12.3 8.2l4.5 6.5c.2.3.5.5.8.6.3 0 .7-.1 1.2-.3 6.6-2.9 11.3-6.4 15.3-13.2.3-.4.6-1 .8-1.5l5.8.2 9.5.5.5-.4 1-7.4-.4-.4h-9.6l-4.3-.1c.2-.8.4-1.7.5-2.6l2.5.1 9.5.5.5-.4.9-7.1-.4-.4h-9.6l-2.2-.1.4-2.7 3.5.1 7.3.4.7-.7.7-6.9.2-1.4 3.7 3.4.2.2-2 15.3-3.7 25.5 10 .3.5-3.7 15.2.4 7.2.5zm-51.3-40.6l-3-.1.6-4.6 3 .1-.6 4.6zm11.6.3l-3.2-.1.6-4.6 3.2.1-.6 4.6zm22.8 30.8l-4.4-.1.9-7.1 4.4.1-.9 7.1zm2-15.4l-4.4-.1.9-6.5 4.4.1-.9 6.5zm2-14.9l-4.4-.1.8-6.3 4.4.1-.8 6.3z" fill="#fff"/>
		<path fill="#fff" d="M241.7 26.9l-1 7.3.5.4h7.5l-.6 4 9 .3.5-4 4.5.1-.6 4 9.1.3.4-4.1 7.8.5.5-.4 1-7.4-.7-.4h-7.7l.7-4.7-.4-.7-7.7-.2-.5.5-.7 4.8-4.8-.1.7-4.7-.4-.6-7.7-.3-.6.6-.7 4.7-7.6-.4zM258.6 79.9l-5.3 4.4v.7c3.9 2.9 6.9 5.8 9.3 8.9h1l5.5-5.5.3-.8c-3.1-3.1-5.4-5-9.9-7.7h-.9zM114.4 137.5h.5l5.6-5.3v-.5c-4.1-5.2-8.5-8.8-14.5-13l-.5.1-4.2 4 .8-5.7c1.5-1.7 2.9-3.4 4.4-5.4l-.1-.4-2-1.3 8.9.3 8.1.4.4-.3.8-5.9-.3-.4-8.1-.1-26.9-.8-8.1-.4-.4.3-.8 5.9.3.4 8.2.1 12.7.4c-7 9.3-15 15.5-26.2 20.4l2.7 5.3c.2.4.4.7.8.7.2 0 .4 0 .7-.2 6.4-3 11.6-6.3 16.5-10.4l-.9 7-2.3 15 7.9.2 1.8-15 1.2-9.1c4.9 3.9 8.7 7.8 13 13.7zM166.9 133.3l4-5.2c-3.9-1.7-7.4-3.6-10.4-5.8 2.9-2.8 5.7-6.2 8.1-10.2.3-.4.4-.7.4-1 .1-.4-.2-.6-.5-.9l-2.7-2.5-3.7.1-6.7-.2c.6-.9 1.1-1.9 1.7-3l-.2-.5-5.8-1.8-.5.3c-2 3.9-4.3 7.7-7.1 11.1l-3-3.3h-.4l-2.1 2.7c.5-3.3.9-6.7 1.4-10l-.3-.4-5.9-.2-.4.4c-2.1 17-2.8 21.5-4.4 26.6-2 6.5-4.9 10.2-7.9 13.2l3.3 4.7c.1.2.3.3.5.3.1 0 .3 0 .5-.2 2.4-2.5 4.7-5.5 6.7-9 1.3 2.1 2.4 4.1 3 5.8l.6.2 5.1-3.8.2-.4c-1.8-3-4-5.9-6.1-8.1.2-.4.3-.8.4-1.3.8-3 1.5-5.9 2.1-9.8 1.1-.9 2.2-1.8 3.2-2.7l3.3 3.4c.3.3.5.5.7.5.2 0 .4-.1.7-.4 1.2-1.2 2.4-2.4 3.5-3.7.7 1.4 1.5 2.8 2.5 4-4 2.7-8.8 5-14 6.9l2.9 4.7c.3.5.5.7.8.7.3 0 .7-.1 1.2-.3l1.4-.6-.7 5.3-1.6 10.5 7 .2.4-2.9 8.5.2-.4 2.9 7.1.2 1.2-10.3.8-6 .1.1c.3.2.5.2.7.2.3-.2.6-.4.8-.7zm-7-20.1c-1.1 1.6-2.5 3.2-4 4.7-1.2-1.5-2.3-3.1-3.1-4.9l7.1.2zm-2.7 27.9l-8.5-.2.7-5.2 8.5.2-.7 5.2zm-7.8-10.8c1.9-1.1 3.8-2.2 5.6-3.5 1.5 1.4 3.2 2.7 5 3.8l-10.6-.3z"/>
		<path d="M123.1 125.9l3.5 2 .4-.1c1.9-4.6 2.9-8.5 3.6-13.8l-.1-.6-3.6-1.6-.5.2c-.7 4.4-1.7 9.6-3.4 13.5l.1.4zM196.2 146l.9-6.6-14.6-.5 1.3-9.6 12.7.4.9-6.4-12.8-.4 1.2-9.1 14.2.4.9-6.6-23-.7-5.2 38.4zM220.5 118c-3.5-.1-6.6 1.2-8.6 4.1h-.1l.5-3.8-7.8-.2-3.8 28.1 8.4.2 2.3-17.2c.5-3.6 2.6-5.1 5-5 2.7.1 3.7 1.4 3.2 5.2l-2.3 17.2 8.4.2 2.5-19c.8-6.5-2.7-9.6-7.7-9.8zM240.6 159.1c10.4.3 15.8-4.6 16.5-10 .7-4.9-2.5-8-9.6-8.2l-6.2-.2c-2.6-.1-3.3-.8-3.2-2.2.1-.7.5-1.3 1.1-1.7 1.6.6 3.4 1 5.4 1 6.3.2 12.2-2.7 13.1-9.2.5-3.5-.8-6.1-3.1-7.6 1.6-1 3.5-1.1 5.7-1.1l.9-6.7c-4.4-.1-8.4 1.6-10.5 6.1-1.1-.3-2.3-.4-3.4-.4-6.3-.2-12.3 2.7-13.1 9.1-.4 3.1.5 5.4 2.3 7-2.6 1.4-4.5 3.4-5 6.5-.3 1.9.4 3.8 2.1 5.1-2.9 1-4.8 2.6-5.2 5.4-.6 3.4 2.3 6.8 12.2 7.1zm1.6-30.8c.5-3.7 2.4-5 4.4-4.9s3.5 1.4 3 5.1c-.5 3.7-2.4 5.1-4.4 5s-3.5-1.6-3-5.2zm-6.5 22.2c.1-.8.4-1.7 1.1-2.4.6.1 1.3.2 2.1.2l4.7.1c3.2.1 4.8.8 4.5 2.8-.3 1.9-2.5 3-6.1 2.9-3.7 0-6.6-.9-6.3-3.6zM278.7 120.2l-3.8 28.1 8.4.2 3.7-28.1zM288.8 112.6c.4-3.1-1.6-4.8-4.2-4.9-2.7-.1-4.9 1.5-5.4 4.6-.4 3.1 1.4 4.9 4.1 5 2.6.1 5.1-1.7 5.5-4.7zM268.1 148.6c1.3 0 2.8-.1 3.8-.4l.7-5.5c-.3.1-.7.1-.8.1-1.5 0-1.9-.8-1.7-2.4l4.2-31.6-8.4-.2-4.4 33c-.6 5.2 2.4 6.8 6.6 7zM303.4 131.2c-3.2-1-4.2-1.9-4-3.4.2-1.5 1.2-2.3 3-2.2 2.2.1 3.8 1.6 4.2 4.3l7-1.9c-.6-4.8-4.3-7.5-10.1-7.7-6.6-.2-11.3 3.4-12 8.8-.6 4.4 1.5 6.6 6.4 8.3 4.7 1.7 6.7 2.5 6.4 4.6-.2 1.3-1.3 2.2-3.2 2.1-2.3-.1-4.1-1.5-5.2-4.9l-7.3 2.4c1.3 5.4 5.3 7.8 10.9 8 7.2.2 12.1-3.2 12.8-8.8.5-5.2-2.6-7.6-8.9-9.6zM335 121.3c-3.4-.1-6.5 1.1-8.5 3.9h-.3c.3-1 1.1-3.6 1.7-7.9l.9-7-8.4-.2-5.3 39.4 8.4.2 2.3-17.2c.5-3.6 2.6-5.1 5-5 2.7.1 3.7 1.4 3.2 5.2l-2.3 17.2 8.4.2 2.5-19c.9-6.5-2.6-9.6-7.6-9.8zM106.5 196.6h.5l5.6-5.3v-.5c-4.1-5.2-8.5-8.8-14.5-13l-.5.1-4.2 4 .8-5.7c1.5-1.7 2.9-3.4 4.4-5.4l-.1-.4-2-1.3 8.9.3 8.1.4.4-.3.8-5.9-.3-.4-8.1-.1-26.9-.8-8.1-.4-.4.3-.8 5.9.3.4 8.2.1 12.7.4c-7 9.3-15 15.5-26.2 20.4l2.7 5.3c.2.4.4.7.8.7.2 0 .4 0 .7-.2 6.4-3 11.6-6.3 16.5-10.4l-.9 7-2.3 15 7.9.2 1.8-15 1.2-9.1c4.9 3.9 8.7 7.8 13 13.7zM160.6 177l4.1-5.3c-8.2-1.8-13.7-4.5-18.7-7.9l.5-.4-.1-.5-6-2h-.5c-5.9 4.7-14.4 8.7-23.6 10.7l2.8 5.1c.2.4.5.6.8.6.1 0 .4 0 .6-.1.3-.1.5-.1.7-.2l-.2 2.6-.6 4.7-.8 4.7.3.3h6.6l23.4.7 6.6.3.3-.2.5-4.7.6-4.7.6-3.2c.2.1.5.2.8.2.2 0 .3.1.5.1.3-.2.5-.4.8-.8zm-19.5-9.7c1.3 1 2.5 2 3.9 2.9h-1.6l-5.3-.2-1.3-.1c1.5-.7 2.8-1.6 4.3-2.6zm-14.4 17.8l.8-5.6 3.7.1-2.9 1.1-.1.3c.8 1.4 1.3 2.5 1.9 4.1l.1.1-3.5-.1zm9 .3l-5.2-.1 4.2-1.7.2-.3c-.5-1.3-1.2-2.5-2-3.6l3.5.1-.7 5.6zm6.1.1l.8-5.6 3.1.1c-.8 1.3-1.7 2.6-2.9 3.9l3.3 1.7-4.3-.1zm8.8.3l-4.1-.1c.1 0 .2-.1.3-.2.9-.8 2.3-2.3 3.5-3.7l-.2-.3-3.2-1.4 4.4.1-.7 5.6zm1.1-9.6l-23.4-.7-2.8-.1c2.3-.9 4.6-1.9 6.8-3l-.2 1.4.3.4h5.1l5.3.2 5 .3.4-.3.2-1.7c2.2 1.4 4.6 2.7 7.1 3.6l-3.8-.1zM151.5 208.7l.8-7.9.5-4.1.8-5-.3-.4h-6.4l-17.7-.5-6.4-.3-.4.3-.5 5-.5 3.9-1.3 8.2 7 .2.2-1.6 17.3.5-.2 1.4 7.1.3zM128.7 195l17.3.5-.2 1.8-17.3-.5.2-1.8zm-1 7.5l.3-1.9 17.3.5-.3 1.9-17.3-.5zM195.5 173.9l1-7.1-29.5-.9-1 7.1 10.4.3-4.2 31.3 8.8.2 4.2-31.2zM199.4 205.9c3.6.1 6.4-1 8.4-3.5.4 2.1 1.7 3.3 4.9 3.4 1.7 0 2.9-.1 4.6-.7l.8-5.9h-.7c-1.3 0-1.8-.9-1.6-2.7l1.2-9.3c.9-6.3-3-10.2-10-10.4-6.3-.2-10.9 2.8-13 8.4l7 1.5c1-3.1 2.4-4.5 4.7-4.5 2.3.1 3.3 1.7 2.9 5.1l-.2 1.7c-1.3-.3-2.8-.4-3.9-.5-7.4-.2-12.5 2.8-13.3 8.6-.7 5.4 2.4 8.6 8.2 8.8zm.2-8.6c.3-2.1 2.1-3.3 4.6-3.2 1.2 0 2.5.2 3.4.5-.5 4.1-2.2 5.8-5.1 5.7-2-.1-3.2-1.4-2.9-3zM228 206.7c1.3 0 2.8-.1 3.8-.4l.7-5.5c-.3.1-.7.1-.8.1-1.5 0-1.9-.8-1.7-2.4l4.2-31.6-8.4-.2-4.4 33c-.7 5.2 2.3 6.9 6.6 7zM251.5 206.9l10 .3-8.7-16.8 12.5-11.2-10.1-.3-5.4 6c-2.7 3-4.1 4.9-5.3 6.9h-.2c.7-2 1.3-4 1.7-7l2.3-17.4-8.3-.4-5.3 39.4 8.4.2 1.1-8.6 2.4-2.1 4.9 11zM90.9 312.7c12.6-1.6 19.9-4.2 26.5-9.5 8.1-6.4 13.5-16.8 14.7-28.3 1-10-1.2-18.7-6.3-24.9-5.9-7.1-16-11.4-27.9-11.7-13.1-.4-24.8 3.8-33.5 12.1-7.4 7.1-11.9 16.4-12.9 26.8-1.6 16.2 5.6 27.8 17.5 28.2 8.1.2 14.5-4.6 20.8-15.8 5.8-10.3 10-21.7 13.4-36.9 3.1.6 5 1.5 7.2 3.3 4.8 4.1 6.8 10.2 6.1 17.7-.9 9.5-5.5 16.8-12.7 20.3-5 2.3-10.7 3.6-19.1 4 3.4 5 4.7 8.3 6.2 14.7zm-12.2-33.4c-3.3 6.7-5.9 9.7-8.2 9.6-3.1-.1-5-5.1-4.4-11.4.8-7.9 5.4-16 11.8-20.8 3.4-2.6 6.3-3.8 10.1-4.2-1.9 8.7-5.4 18.9-9.3 26.8zM203.9 273.8c6.1-4.1 11.5-8.8 17.6-15.6.5-.5.8-.9.8-1.3.1-.5-.2-1-.6-1.4l-5.6-6.1-8.6.2-18-.5c.6-.7 1.2-1.6 1.8-2.3l-.2-.9-4.6-2 39.3 1.1-1.5 11 15.4.4 1-11.5.4-3.1 1.4-8.1-.7-.8-17.6-.2-20.9-.6 1.3-9.6-.6-.8-14.2-.4-.8.7-1.3 9.6-20-.6-17.4-.8-1.1.7-.9 9.1-.4 3.2-2.1 11.4 15.4.4 1.6-12.1 14.3.4c-7.4 9.1-18 17.4-33.3 23.3l8 9c.5.5.9.9 1.5.9.4 0 .8-.1 1.2-.3 6-2.7 11.6-6 16.8-9.9 2.2 2.6 4.7 5 7.1 7.2-11.6 4.5-24.5 8-40.6 9.8l6.4 11.1c.5.8.9 1.3 1.7 1.3.2 0 .4 0 .7-.1 3.1-.7 6.2-1.3 9.2-2.1l-.7 6.1-1.2 8.9-2.4 14.2 15.3.4.7-5 33.8 1-.6 4.8 15.8.5 1.4-14.8 1.1-8.1 1.4-9.1c2.5.7 5.1 1.2 7.8 1.8.2 0 .4.1.6.1.7 0 1.1-.3 1.7-1.1l9.6-12.3c-13.7-1.1-26.2-3.4-36.2-7.1zm-2.4-13.9c-2.8 2.8-6.2 5.4-9.8 7.6-3.5-2.4-6.8-4.9-9.6-8.1l19.4.5zm1.4 48.4l-33.8-1 .9-6.9 33.8 1-.9 6.9zm-30.6-18.9c6-2.1 12-4.4 17.8-7.2 6.9 3.4 14.2 6.2 21.7 8.3l-39.5-1.1zM281.7 252.2l1.1-7.8c.8 0 1.8.1 3.2.1 21.5.6 41.3-.4 59.4-3.2l-5.7-12.4c-16.6 3.7-37.3 5.2-61.9 4.5-3.4-.1-6-.2-7.8-.3l-4.2 31.3c-2.3 17.4-5 29.2-8 35.4-3 6.2-6.7 11.5-11 15.9l12.3 10.2c8.7-9.5 14.4-21.1 17-34.8l62.3 1.8 5.2-38.8-61.9-1.9zm44.2 27.9l-47.8-1.4 1.9-14.2 47.8 1.4-1.9 14.2z" fill="#fff"/>
	</symbol>
	<symbol id="colleague" viewBox="0 0 300 436">
		<path d="M296 401.3c-.8-7.4 3-33-3.8-33.4-6.8-.4-22.9-1.6-27.9-2.6 0-1.7-.2-6.4-.5-7-.5-.9-56.7-26.7-57.4-27.6-.7-1-3.5-34.3-4.8-49.8 16.3-7.3 18.3-32.5 15.4-46.7-2.5-12.1-10.2-52.5-12.7-67.5 17.1 10.2 66.4 32.4 67.5 7.4.3-3.9-12.3-52-17.6-72.2-1.7.1-3.4.1-5.1.3-.4-.5-3.9-9.2-3.7-11.1 1.3-11.4.5-34.4-.2-35.3-.7-.9-17.5-10.5-18.8-9.7-1.2.8.1 20.7-1.5 28.9 0 0-12.2-8.5-13.2-7.1-.4.6 9.3 16.3 11.5 24.3 1.7 2.6 10.2 9.6 11.6 11.7-2.3.4-4.6.9-6.9 1.4 2.6 13.6 4.8 26.2 7.4 39.7-9.2-8.3-31.1-32.7-44.4-30 1.8-11.4-9.8-11.3-9.8-11.3 5.7-8.5 6.6-21 6.6-21S199 84.3 198 71.2c-.6-6.7-10.2-6-10.2-6s-.1-32.6-17.2-39.3c-17.1-6.7-31.3-3.1-38.1 2.5 0 0-16.7 8.9-11.7 39.6-1.8-.3-8.1-.8-7.7 7.6.6 9.8 4.5 10.9 10 10.4.6 4.2 4.7 16.6 11.1 23.7 0 0-3.4 6.4-24.7 5.6-4.5-1.5-26.4 4.2-32.9 4.9-5.1.5-17.2 7.2-27.6-39.3-1.6.6-3.3 1.1-5 1.6-.1-.5.6-17.5.1-20.5-4.5-10.4-7-25.6-7.6-25.7-1.7-.4-5.1 14.1-5.1 14.1-6.7-5.1-19.1-20.7-20.5-20.5-1.5.3-6.6 13-7.7 13.8-4 9.1 29.6 37.1 28.2 40.9-2.5.1-5 .1-7.5-.1 2.8 21 21.1 68.2 24.3 70.4 3.8 2.7 47.2 3.6 62.9.7 1 36.3 22.6 59.5 25.9 101.3-46.5 19.6-69.3 104.4-79.9 133.2 6.1 1.1 11.4 4.3 16.5 8-6.3 5.7-49.1-6-49.6-4.7-1 2-6.8 23.2 29.5 30.2 6.8 3.5 33.1 22.4 29.8-9.4.5-2.7 1.2-5.1 2.6-7.2 3.2 2.1 11.7 5.2 12.5 4.9 1.2-.5 3.6-39.8 52.2-101.7 2.9 10.8 9.7 53.8 33.5 58.9 10.5 4.7 63.7 29.4 74.3 27.5 1.2-.7 3.3-8 3.8-10.2 13.8 6.1 19.6 46.4 20.7 46.4 2 .3 16.4-.1 13.1-31.5z" fill="#fff"/>
		<path d="M157.1 116.7h-1.6c-.8 0-1.4-.7-1.3-1.5 0-.8.7-1.4 1.5-1.3 2.6.2 5.1-.1 7.6-.9.7-.2 1.5.2 1.7.9s-.2 1.5-.9 1.7c-2.2.7-4.6 1.1-7 1.1zM144.8 53.2c-1.3 0-2.7-.4-3.9-1.2-.7-.4-.9-1.3-.5-1.9.4-.7 1.3-.9 1.9-.5 1.1.7 2.4.9 3.4.6 1-.3 1.8-1.2 1.9-2.1.1-.8.7-1.4 1.5-1.3.8.1 1.4.7 1.3 1.5-.1 2.1-1.7 4-3.9 4.6-.5.2-1.1.3-1.7.3zM165.6 53.4c-1 0-2.1-.1-3.1-.5-2.2-.9-4.1-3.4-3.3-5.9.2-.7 1-1.1 1.8-.9.7.2 1.2 1 .9 1.8-.3.9.6 2.1 1.6 2.4 1.4.5 3.1.3 4.6.1.8-.1 1.5.4 1.6 1.2.1.8-.4 1.5-1.2 1.6-.8 0-1.8.2-2.9.2zM155.2 85h-.3c-.8 0-1.6-.1-2.4-.5-.4-.2-.7-.4-.9-.7-.2 0-.4.1-.6.1-1 0-1.9-.4-2.5-1.2-.6-.7-.7-1.8-.4-2.7.3-1 1-1.7 1.9-2 .7-.3 1.5.1 1.8.9.3.7-.1 1.5-.9 1.8 0 0-.1.1-.1.2v.2s.1.1.2 0c.1 0 .2 0 .2-.1.4-.5 1.1-.8 1.7-.5.6.2.9.8.8 1.4l.1.1c.3.1.7.1 1.1.2.3 0 .8 0 1.1-.1-.3-.6-.2-1.2.3-1.7.6-.5 1.4-.5 2 .1l.1.1c.1.1.3.1.5.1s.4-.1.5-.3c.1-.1 0-.4-.1-.5-.1-.2-.3-.3-.4-.3-.8 0-1.4-.7-1.4-1.4 0-.8.7-1.4 1.4-1.4 1.1 0 2.1.6 2.8 1.7.6 1 .7 2.2.2 3.2-.5 1-1.5 1.7-2.7 1.8h-.7c-.2.3-.5.6-.8.9-.9.5-1.7.6-2.5.6zM148.9 103.3c-.4 0-.8-.1-1.1-.2-1.7-.5-2.9-2.4-2.7-4.4.1-1.4.9-2.7 2.1-4 4.6-4.6 12.1-4.3 14.3-4.1 1.9.2 4.4.6 6.4 2 1.9 1.3 3.6 3.9 3 6.6-.2.7-.5 1.3-.9 1.7-1.5 1.4-3.5.6-4.7.1-1-.4-2.2-.7-3.6-.9-.8-.1-1.3-.8-1.2-1.5.1-.8.8-1.3 1.5-1.2 1.7.2 3.1.5 4.4 1.1.4.2 1.4.6 1.7.5 0 0 0-.1.1-.3.3-1.5-.7-3-1.8-3.7-1.5-1-3.4-1.3-5.1-1.5-3.9-.4-9.1.3-12.1 3.3-.8.8-1.3 1.6-1.3 2.3-.1.6.3 1.3.7 1.5.4.1 1.1-.1 1.8-.7.2-.2.5-.4.7-.6.7-.6 1.4-1.2 2.4-1.6 1.1-.5 2.4-.5 3.4-.5h.9c.8 0 1.4.6 1.4 1.4 0 .8-.6 1.4-1.4 1.4h-.9c-.8 0-1.7 0-2.3.3-.5.2-1.1.7-1.6 1.1-.3.2-.5.4-.8.6-1.2.9-2.3 1.3-3.3 1.3zM153.6 88.2c-.1-1-.6-2-1.5-2.7-1-.8-2.4-1.1-4.2-.9-1.1.1-2 .3-2.9.6-2.4 1-4.2 3.2-4.8 5.8-.1.7-.5 2.3.8 3 .3.2.6.2.8.2.9 0 1.9-.8 2.8-1.7.4-.3 1-.9 1.3-1 .6-.3 1.3-.4 1.9-.3.2 0 .5.1.7.1.4.1.8.1 1.2.2 1.2.1 2.2-.3 2.9-1 .8-.6 1.1-1.4 1-2.3z"/>
		<path d="M172 90.1c-.5-2.6-2.4-4.9-4.8-5.8-.8-.3-1.8-.5-2.9-.6-1.8-.2-3.1.1-4.2.9-.8.6-1.4 1.6-1.5 2.7-.1.9.2 1.7.8 2.4.7.7 1.7 1.1 2.9 1 .4 0 .9-.1 1.2-.2.3 0 .5-.1.7-.1.7-.1 1.3.1 1.9.3.2.1.9.7 1.3 1 1 .9 1.9 1.7 2.8 1.7.3 0 .6-.1.8-.2 1.4-.8 1.1-2.4 1-3.1zM157.8 104.8c-1 0-2-.1-2.9-.3-.8-.2-1.2-.9-1.1-1.7.2-.8.9-1.2 1.7-1.1 1.7.4 3.4.3 5.1-.1.7-.2 1.5.2 1.7 1 .2.7-.2 1.5-1 1.7-1.2.3-2.3.5-3.5.5z"/>
		<circle cx="141.6" cy="66.8" r="7.4" fill="#006196"/>
		<circle cx="168.2" cy="65.4" r="7.4" fill="#006196"/>
		<path d="M134.2 61.1c-.7 0-1.3-.5-1.4-1.2l-2.5-15.4c-.1-.8.4-1.5 1.2-1.6.8-.1 1.5.4 1.6 1.2l2.5 15.4c.1.8-.4 1.5-1.2 1.6h-.2zM129.7 57.7c-.7 0-1.2-.5-1.4-1.1l-1.7-8.1c-.2-.8.3-1.5 1.1-1.7.8-.2 1.5.3 1.7 1.1l1.7 8.1c.2.8-.3 1.5-1.1 1.7h-.3zM126.3 62.8c-.7 0-1.3-.5-1.4-1.2l-2.2-13.2c-.1-.8.4-1.5 1.1-1.6.8-.1 1.5.4 1.6 1.1l2.2 13.2c.1.8-.4 1.5-1.1 1.6 0 .1-.1.1-.2.1zM158.7 132.4c-3.1 0-6.3-.3-9.3-.9-.8-.1-1.3-.9-1.1-1.6.1-.8.9-1.3 1.6-1.1 9.1 1.7 18.9.7 27.5-2.9.7-.3 1.5 0 1.8.8.3.7 0 1.5-.8 1.8-6.2 2.5-13 3.9-19.7 3.9z"/>
		<path d="M113.4 133.9c-.6 0-1.1-.4-1.3-.9-1.3-3.9-1.6-8.1-.6-12.1.2-.8.9-1.2 1.7-1.1.8.2 1.2.9 1.1 1.7-.8 3.5-.6 7.2.6 10.6.2.7-.1 1.5-.9 1.8h-.6zM189.5 143.2c-.6 0-1.2-.4-1.4-1.1-1.5-6.7.3-14.1 4.7-19.4.5-.6 1.4-.7 2-.2.6.5.7 1.4.2 2-3.8 4.6-5.4 11.1-4.1 17 .2.8-.3 1.5-1.1 1.7h-.3zM64.9 132.3c-.6 0-1.1-.4-1.3-.9-.9-2.7-1-5.7-.2-8.4.2-.7 1-1.2 1.7-1 .7.2 1.2 1 1 1.7-.6 2.2-.6 4.6.2 6.7.3.7-.1 1.5-.9 1.8-.2 0-.4.1-.5.1zM243.7 154.3c-.6 0-1.1-.4-1.3-1-.7-2.1-2.1-3.9-3.9-5.2-.6-.4-.8-1.3-.3-2 .4-.6 1.3-.8 2-.3 2.3 1.6 4 3.9 4.9 6.6.2.7-.2 1.5-.9 1.8-.2.1-.4.1-.5.1z" fill="#231815"/>
		<path d="M298.8 385.7c.5-2.4 1-4.9 1.1-7.6 0-4.3-1.5-8.1-4.1-10.4-3.6-3.1-8.5-3-12.7-3h-.6c-5.3.1-10.6-.4-15.8-1.4 0-1.1-.1-2.2-.1-3.4 0-.7-.1-1.8-.7-2.8-.9-1.6-2.5-2.3-3.4-2.8l-52.2-24c-.7-.3-1.5-.7-1.9-1.2-.4-.5-.4-1.5-.5-2.3l-3.7-45c2.2-1.5 4.2-3.2 6-5.1 9.2-10.1 12.7-26.2 9.3-43.2-2.1-10.3-3.7-17.6-5.1-21.5v-.7l-6.8-40.7c15.5 9.1 32.6 17.4 48.8 17.4 1.3 0 2.5-.1 3.8-.2 2.4-.2 5.3-.6 7.8-2.1 3.7-2.2 6.1-6.6 6.4-11.8.3-4.3-.8-8.5-1.8-12.3L256.7 101c-.3-1-1.2-1.7-2.3-1.7-1.4 0-2.8.1-4.2.2-.1-.1-.2-.3-.3-.4l-.1-.2c-.8-1.1-1.6-2.1-2-3.1-.5-1.4-.3-3-.1-4.7V91c1.3-11.6 1.5-20.1.4-31.5 0-.2 0-.5-.1-.7-.1-.9-.2-1.9-.4-2.9-.4-1.8-2.8-6-5.8-6.1-.7 0-1.4.2-1.9.8l-.2.2c-.4-1.4-1.2-2.9-2.4-3.8-1-.8-2.2-1.2-3.4-1-.4.1-.7.2-1.1.4-.8-1.3-2.4-2.4-4-2.8-1.3-.3-2.5-.2-3.4.4-2.2 1.4-2.7 5.2-2.5 6.9 1.2 8.2 1.3 14.3.5 20.3-1.9-1.7-3.8-3.3-5.8-4.8-.6-.5-2.8-2-5.1-1.6-1 .2-1.9.8-2.5 1.7-.7 1-.8 2.2-.5 3.7.7 3.1 2.8 5.2 4.9 7.3 1.3 1.3 2.6 2.6 3.3 4.1.7 1.4 1.1 3 1.4 4.8.5 2.3.9 4.6 2.3 6.7 1.3 2.1 3.2 3.4 5 4.8.8.6 1.5 1.1 2.2 1.7.9.8 1.7 1.6 2.4 2.5-1.2.2-2.4.5-3.6.8-1.2.3-2 1.4-1.7 2.7l6.6 34.1-22.6-20.3c-4.1-3.6-9.1-7.2-16-6.9v-.5c-.1-3.8-2.5-7.4-6-9.3-.8-.4-1.7-.8-2.5-1 3.7-5.9 4-8.5 4.8-16.8H190.6c6.8-.7 10.3-5.8 9.6-13.9-.2-2.7-1.2-4.8-3-6.3-2.5-2.1-5.6-2-6.2-1.9l-1.1.1V59c.7-.4 1.4-1.1 2.1-1.9 3.9-4.5 6.5-8.4 6.6-8.6.1-.2.2-.4.2-.6 0-.4.8-9-4.1-16.6-.5-.8-1-1.6-1.5-2.3-3.7-5.8-5.7-9-13.6-9.2h-.2l-7.8.8c-1.3.1-2.3.8-2.9 1.8-.4-1.7-1.2-3.1-1.4-3.6-.1-.1-.1-.2-.2-.3l-13-15.1c-4.2-4.8-9.3-3.5-11.7-2-2.1.7-15.6 5.2-23.3 8-9 3.3-11.5 11.4-11.8 12.4-.1.5-1.1 3.6-1.9 7.1-1.6 7.4-.7 9.7.3 10.9 1.5 1.9 1.5 1.9 2.2 8 .1 1 .2 2.2.4 3.5.8 6.5 4.8 11.7 7.8 14.8-.8.3-1.7.7-2.4 1.3-2.1 1.8-3.1 4.6-2.9 8.4.3 5.2 1.5 8.6 3.9 10.6 1.9 1.6 4.1 2 6.4 2h.1c.7 4.7 1 6.1 1.2 6.7 1 3.1 3 7.8 8.7 14.4-1 .7-1.9 1.7-2.5 2.7-2.6-1.5-6.4-1.4-8.6-.2-.6.3-1.2.6-1.7 1-1.3.8-2.6 1.5-3.8 1.5-.8 0-1.6-.4-2.6-.8-.5-.2-1.1-.4-1.6-.6-4.8-1.6-9.9-.2-14.3 1l-.8.2c-6.1 1.7-12.4 2.9-18.6 3.5-2.5.3-4.6.3-6.3.1l-.8-.2c-.1-.5-.4-1-.8-1.4-.5-.4-1.2-.6-1.8-.5-.1-.1-.1-.2-.2-.3-.7-1-2-1.3-3-.7l-.1.1c-1.5-1.7-2.4-4-3.3-6.9-3.1-9.2-6-18.7-8.8-28-.2-.6-.6-1.1-1.2-1.4-.6-.3-1.2-.3-1.8-.1-.8.3-1.7.6-2.6.9-.5-2.4-.9-5.4-.5-8.2.1-.9.3-1.8.5-2.7.5-2.2.9-4.5.5-6.9-.4-2.5-1.6-4.5-2.8-6.5-.9-1.5-1.8-3-2.1-4.5-.4-1.6-.3-3.4-.2-5.3.1-2.9.3-5.9-1.2-8.7-.7-1.3-1.7-2.1-2.8-2.5-1-.3-2.1-.1-3 .4-1.9 1.2-2.6 3.8-2.7 4.6-.5 2.5-.9 4.9-1.1 7.5-5.5-4.5-10.3-9.8-14.2-15.7-.7-1-2.5-3.7-5.4-3.2-1.1.2-2.1.8-2.7 1.8-.8 1.3-1.1 3-.7 4.6v.2c-.4 0-.8.1-1.2.3-1.4.7-2.3 1.9-2.6 3.3-.2 1.1-.1 2.2.2 3.2-.7 0-1.3.1-1.9.4C1 42.1.4 43 .2 44.1c-.7 3.5 3 8.7 4.1 10.2 6.8 9.2 12.6 15.4 21.4 23.2l.1.1c1.3 1.2 2.5 2.2 3.1 3.6.1.3.3.7.3 1.1-1.7 0-3.3 0-5-.2-.7-.1-1.4.2-1.8.7-.5.5-.7 1.2-.6 1.9 2.8 21.3 8.8 42 17.7 61.5 1.8 3.9 3.8 7.9 7.5 10.5 4.2 3 9.5 3.4 14.5 3.5 9.8.2 24.7-.6 30.6-1 5-.3 9.7-.7 13.3-1 1.5-.1 2.7-.3 3.6-.4 0 18.4 5 37 15.4 56.7.8 1.6 1.9 3.6 3.7 5 .1 0 .1.1.2.1 1.2 11.8 3.4 24 6.1 36.1-2.3 1.5-4.6 2.8-6.9 4.2-4.1 2.4-8.3 4.8-12.1 7.8-12.3 9.6-19.7 23.6-25.7 36-13.5 27.8-24.3 57.1-34.7 85.5-.2.6-.2 1.3.2 1.9.3.6.9 1 1.6 1.1 4.6.8 8.7 2.9 12.7 5.6-3 1.2-6.4 1.2-9.8-.1-3.1-1.2-5.9-3.1-8.8-5.1-2.3-1.6-4.8-3.3-7.4-4.6-6.4-3.2-15.5-3.9-20.4 2-1.7 2-2.7 4.7-3 7.7-.9 9.5 5.7 17.3 12.1 21.5 4.7 3 10 5 15.5 5.7.4 0 .7.1 1.1.1 1.4.2 2.7.3 3.8.7 1.5.6 2.8 1.8 4.3 3l1.8 1.5c4.5 3.7 10.2 5.7 16 5.7.8 0 1.7 0 2.5-.1.4 0 .8-.2 1.1-.4 5.2-3.7 6-10.1 6.7-16.2.4-3.3.8-6.6 1.9-9.2 2.7 1.6 5.6 2.9 8.7 3.8.6.2 1.3.3 2.1.3.6 0 1.1-.1 1.7-.3 2.5-1 3-3.8 3.2-5 1.6-8.8 4-17.5 7.1-25.9 6.7-17.9 16.8-34.5 26.5-50.5 3.5-5.7 7.1-11.6 11.6-16.6.5-.6 1.1-1.1 1.6-1.7 2.7 9.6 5.5 19.2 8.6 28.6 2.2 6.8 4.6 13.2 9.2 18.2 4.5 4.8 10.6 7.5 15.9 9.9l31.6 14.2c12.5 5.6 25.5 11.5 39.4 13.8.6.1 1.3.2 2.2.2 1 0 2.2-.2 3.2-.8 2.1-1.3 2.8-3.7 3.2-5 .3-1.2.6-2.3.9-3.5 2.2 1.4 4.2 2.5 5.3 5.2 1.8 4.3 1.9 9.2 2.1 13.9l.4 13.3c.1 2.2.1 4.6 1.2 6.9 1.2 2.7 3.6 4.7 6.8 5.6 1.2.3 2.4.5 3.6.5 2.6 0 5.2-.7 7.3-2.1 4.7-3.1 7.6-9 8.1-16.2.2-3.7-.1-7.3-.5-10.9-.2-2-.4-4-.5-6-.2-4.1.1-8.3.9-12.3.2-.4.3-1.2.5-1.9zm-69.7-291c-1.6-1.2-3.1-2.3-4-3.7-.9-1.5-1.3-3.3-1.7-5.3-.4-2-.8-4-1.8-5.9-1.1-2-2.6-3.5-4.1-5-1.7-1.7-3.3-3.4-3.8-5.3v-.2c.4.1.9.3 1.5.8 3.7 2.8 7.1 5.9 10.3 9.2.3.3.7.5 1.2.6.2 0 4.5.9 6 7.4.3 1.1 1.4 1.8 2.5 1.6 1.1-.3 1.8-1.4 1.6-2.5-1.8-7.6-6.7-9.8-8.6-10.4l-.9-.9c1.7-9.1.9-17.4-.1-24.4-.1-.8.2-2.2.5-2.7.5.1 1.4.6 1.7 1.1.4 1.3.3 7.3.3 9.9v3.4c.1 1 .1 1.9.2 2.5 0 .3.1.6.1.7.3 1.6 1.5 1.9 2.2 1.9 2-.1 2.1-2.2 2.1-3v-2.9c-.1-2 .3-7.8 1-10.4.4.6.7 1.5.8 2.3.1 1.9.3 5.3.7 9 .1 1.5.3 3 .4 4 .2 2.1.3 2.8 1.4 3.3.7.3 1.5.3 2.1-.1 1.1-.7 1-1.7 1-2.6-.1-1.7.4-8.5 1.1-11.8.5.6.9 1.4 1 1.8.2.7.2 1.5.3 2.3 0 .3 0 .5.1.8.5 5.1.7 9.5.7 13.9-3.3-2.4-9.3-6.3-13.5-5.7-.7.1-1.1.7-1 1.4.1.7.7 1.1 1.4 1 3.6-.5 10.1 3.9 13.1 6.3-.1 4.3-.5 8.6-1 13.7v.1c-.2 2-.5 4.3.2 6.5.3 1 .9 1.9 1.4 2.7-3.1.3-6.2.7-9.3 1.2-1.2-1.7-2.6-3.4-4.3-4.8-1.2-.6-2-1.2-2.8-1.8zm-37.7-27.4s.1 0 0 0c.1 0 1.8-.1 3 .9.8.7 1.2 1.7 1.4 3.2v.3c-.3-1.1-.8-2-1.5-2.6-1.1-1.1-2.6-1.5-3.9-1.1-.1 0-.2.1-.3.1v-.7l1.3-.1zm-49.3-37.2c2.1-1.2 4.1-2.3 5.9-3.5 7.5-4.8 14.2 2.1 14.5 2.4.6.6 1.5.9 2.3.6.8-.2 1.4-.6 1.9-.9.1.3.3.6.6.8.3.2 6.4 3.8 10.5 4.6.3.1.8.4 1.4 1 1.3 1.8 2.4 3.6 3.2 5.5.1.3.2.5.3.8 1.8 4.9 2.6 10.3 2.1 14.9v.4c0 .1.2.7.5 1.3v.3l-9.2 3.3c-1.4-3.1-4.5-5.2-8-5.2-4.2 0-7.7 2.9-8.6 6.8-.8-.4-1.8-.7-2.9-.9-.6-.1-1.1-.1-1.6-.1v-1.1c0-.8-.7-1.4-1.4-1.4-.8 0-1.4.7-1.4 1.4v1.3c-.2 0-.3.1-.5.1-.7.2-1.4.6-1.9 1-1.2-3.4-4.5-5.9-8.3-5.9-4.4 0-8.1 3.3-8.7 7.5l-9.9-.4c-.7-5.6-.8-14.2-.8-15.8 2.5-8.8 11.8-14.1 20-18.8zm32.1 35.3c0 3.3-2.7 6-6 6s-6-2.7-6-6 2.7-6 6-6c2.7 0 5 1.8 5.7 4.2 0 .2 0 .3.1.5 0 .1.1.1.1.2.1.3.1.7.1 1.1zm-26.6 1.4c0 3.3-2.7 6-6 6s-6-2.7-6-6 2.7-6 6-6 6 2.7 6 6zm-20.8 26.9c-.1-.3-.5-1.8-1.3-7.5v-.4c0-.2-.1-.4-.1-.5-.1-.9-.3-1.8-.4-2.9-.2-1.2-1.3-2.1-2.6-1.9-1.2.2-2.1 1.3-1.9 2.6 0 .3.1.6.1.9-1.3-.1-2.2-.4-2.9-.9-1.3-1.1-2.1-3.6-2.3-7.4-.1-1.6.1-3.6 1.2-4.6.6-.5 1.4-.7 2.1-.7v.1c0 .2.1.4.2.6-.3 0-.6.1-.8.3-1.6 1.3-2.4 3.3-2.2 5.3.2 2 1.5 3.8 3.3 4.7.2.1.4.1.6.1.5 0 1-.3 1.3-.8.3-.7.1-1.5-.6-1.9-.9-.5-1.6-1.4-1.7-2.5-.1-1 .3-2.1 1.2-2.8.4-.3.6-.7.5-1.2.2.1.4.1.6.1h.3c1.2-.2 2.1-1.3 2-2.5v-.1c.4-.4.7-1 .7-1.7l8.9.4c.7 4.1 4.3 7.3 8.7 7.3 4.6 0 8.4-3.5 8.8-8 0 0 0-.1.1-.1.3-.8 1-1.4 2-1.8l.2 5.5c.1 2 1.1 2.6 1.7 2.7.1 0 .3.1.4.1.6 0 1.2-.4 1.3-1 .2-.6-.1-1.2-.6-1.6v-.3l-.2-5.9c.4 0 .8 0 1.2.1 1.3.2 2.7.7 2.8 1.6.1.4.3.6.5.9 1 3.7 4.4 6.5 8.5 6.5 4.9 0 8.8-4 8.8-8.8v-.9l8.5-3.1.1 7.5c0 1.3 1 2.3 2.3 2.3.8 0 1.5-.4 1.9-1 .3.4.9.6 1.4.4.3-.1.8.1 1.2.4.4.4.7 1 .9 1.8.3 1 .3 1.8 0 2.4-.2.5-.8.9-1.2.8-.7-.2-1.5.3-1.7 1-.2.7.3 1.5 1 1.7.3.1.6.1.8.1 1 0 1.9-.4 2.7-1.1-1.3 2.3-3.4 2.6-4.5 2.7h-.2v-1.1c0-1.3-1-2.3-2.3-2.3-1.3 0-2.3 1-2.3 2.3v3.8l-.1 1.3c-.9 10.1-1 10.5-8.2 21-.9 1.3-1.9 2.5-2.9 3.5-.9.9-.9 2.3 0 3.2.4.5 1 .7 1.6.7.6 0 1.2-.2 1.6-.7 1.2-1.2 2.3-2.5 3.2-3.8v.3c.2.8.9 1.2 1.7 1 .1 0 .4.4.4.7-.1.8-.8 1.5-1.4 2.1-3.4 3.2-8.2 5.5-13.9 6.7-5.1 1-10.5 1.1-16.1 1-4.1 0-7.8-.1-11.3-.9-1.1-.3-2.3-.6-3-1.4-.5-.5-.6-1.5-.2-1.8.3-.3.5-.7.5-1.2 1.3.8 2.9 1.6 4.6 2.4.3.1.6.2.9.2.9 0 1.7-.5 2.1-1.4.5-1.2 0-2.5-1.2-3-4.4-1.9-7.3-4.3-7.9-4.7-6.3-7.2-8.4-11.9-9.4-14.9zM28.5 74.4c-4.9-4.3-8.7-8-12.3-12V62c-.7-3.9 4.5-11.5 6.5-14 .4-.5.3-1.3-.2-1.7-.5-.4-1.3-.3-1.7.2-.7.9-6 7.7-7 13.2-2-2.4-4.1-5-6.2-7.9-1.6-2.2-3-4.8-3.3-6.2 1.7 1 4.9 4 6.5 5.9.8 1 1.4 1.8 2.7 1.6.7-.1 1.4-.6 1.6-1.3.4-1.1-.1-1.8-.8-2.8-.4-.6-.9-1.3-1.5-2.1-.7-.9-2.5-3.3-4.1-5.3-.6-.8-1.1-1.9-1-2.6.9.7 2.8 2.4 6.6 7 .2.2.3.3.4.5.4.4.7.8.9 1 1.6 1.5 3 .5 3.1.3 1.5-1.2.5-2.9.1-3.5-.3-.5-.8-1.2-1.3-2-1.1-1.7-2.5-3.5-3.5-4.8-1.1-1.3-2.2-2.7-2.5-4.2-.1-.5 0-.9.1-1.2.2.1.5.5 1.1 1.3 4.7 7.1 10.6 13.3 17.3 18.4 0 .4 0 .9-.1 1.3-1 1.7-3.2 6.6.5 13.5.6 1 1.8 1.4 2.9.8 1-.6 1.4-1.8.8-2.9-3.2-5.8-.6-9.4-.5-9.5.3-.4.5-.8.5-1.3.1-4.6.7-9.2 1.5-13.7.1-.7.4-1.2.6-1.5 0 0 .1.1.1.2 1 1.8.9 4.1.7 6.5-.1 2.1-.2 4.3.3 6.5.5 2.1 1.6 3.9 2.6 5.6 1 1.7 2 3.4 2.2 5.1.3 1.7-.1 3.5-.5 5.4-.2 1-.4 2-.5 3-.5 3.5 0 7 .5 10-2.7.6-5.5 1.1-8.3 1.3-.1-.9-.3-1.7-.7-2.6-.8-2.2-2.5-3.7-4.1-5.1zm85.1 81.9c0-.5 0-2.9-2-3.5-.6-.2-1.3-.1-1.8.2-3.7.7-33.2 2.9-48.2 2.5-4.5-.1-8.8-.4-12-2.6-2.8-2-4.5-5.4-6-8.7-8.4-18.3-14.1-37.6-17-57.5h1.3c0 .9.1 1.9.2 2.8.1.7.7 1.2 1.4 1.2h.2c.8-.1 1.3-.8 1.2-1.6-.1-.8-.2-1.6-.2-2.4.9 0 1.7-.1 2.6-.1.1.9.3 1.8.5 2.6.2.6.7 1 1.3 1 .1 0 .3 0 .4-.1.7-.2 1.2-1 .9-1.7-.2-.7-.3-1.4-.4-2.1 1.8-.2 3.6-.5 5.4-.9v.5c-.1.8.5 1.5 1.3 1.5h.1c.7 0 1.3-.5 1.4-1.3v-1.5c1.1-.3 2.2-.6 3.3-1 2.6 8.6 5.3 17.3 8.2 25.8 1 2.9 2.2 6.5 4.9 9.1.1.1.3.2.4.3l.9.5c-.1 0-.2.1-.3.1-2.2 1.2-4 3.2-4.9 5.5-.3.7.1 1.5.8 1.8.2.1.3.1.5.1.6 0 1.1-.3 1.3-.9.6-1.7 1.9-3.2 3.5-4 .7-.4.9-1.2.6-1.9 0-.1-.1-.1-.1-.2.3.4.8.6 1.3.7h.3c.2.4.5.8.9 1.1.6.4 1.4.5 2.1.3l1.4.3h.2c2.1.2 4.4.2 7.3-.1 6.5-.7 13.1-1.9 19.4-3.6l.9-.2c4-1.1 8.1-2.3 11.6-1.1.4.1.9.3 1.3.5 1.2.5 2.6 1.1 4.2 1.1h.2v.2c-.1 2.6.7 5.2 2.1 7.4.3.4.7.6 1.2.6.3 0 .5-.1.8-.2.7-.4.8-1.3.4-1.9-1.1-1.7-1.7-3.8-1.6-5.8 0-.2-.1-.5-.2-.7 1.3-.4 2.4-1.1 3.4-1.7.5-.3 1-.6 1.5-.8 1.4-.7 4.2-.3 4.6.4.2.3.4.6.7.8.1 1.7.6 3.5 1.6 5.2 1.1 1.8 2.7 3.5 4.8 5.1.2.2.5.3.8.3.4 0 .9-.2 1.1-.6.5-.6.3-1.5-.3-2-1.8-1.3-3.2-2.7-4.1-4.2-.8-1.3-1.2-2.6-1.2-3.9.7-.7 1-1.8.5-2.7.5-1.1 1.3-2.1 2.4-2.7l.1.1c.1.1 1 .8 2.6 1.9-.1.1-.3.1-.4.2-1.7 1.5-1.5 4.2-.1 5.8 1.2 1.4 3 2 4.4 2.3 3.8.9 7.6 1 11.9 1h2c5 0 9.9-.2 14.6-1.1 6.2-1.2 11.5-3.8 15.3-7.4 1-.9 2.1-2.2 2.2-3.9.1-1.1-.4-2.3-1.3-3-.7-.6-1.7-.9-2.6-.6h-.1c.3-.4.5-.8.8-1.1 1.1.1 2.1.4 3.1.9 2.1 1.1 3.6 3.3 3.6 5.5.1 2.1-1.3 4.3-3.2 5-1.2.4-1.8 1.7-1.4 2.9.3.9 1.2 1.5 2.2 1.5.2 0 .5 0 .7-.1 2.1-.7 3.9-2.3 5-4.3 4.9-.7 9.1 1 14.2 5.6l25.3 22.7.1.1c.1.1.2.2.4.3l1.1.6c.1.1.4.2.7.3-.2 2-.1 4.1.4 6.1.2.6.7 1.1 1.4 1.1h.3c.8-.2 1.2-.9 1-1.7-.4-1.7-.5-3.4-.3-5.1 0-.4-.1-.7-.3-1 .7-.4 1.2-1.1 1.2-1.9 0-.7-.1-1.3-.4-1.9l-.3-.9-6.7-34.5c.8-.2 1.7-.3 2.5-.5 0 .9.1 1.9.2 2.8.1.7.7 1.2 1.4 1.2h.2c.8-.1 1.3-.8 1.2-1.6-.1-1-.2-2-.2-3 .8-.1 1.7-.3 2.6-.4.1 1.1.2 2.3.6 3.4.2.6.7 1 1.3 1 .1 0 .3 0 .4-.1.7-.2 1.2-1 .9-1.7-.3-1-.4-2-.5-3 1.8-.2 3.7-.4 5.5-.6v1.1c-.1.8.5 1.5 1.3 1.5h.1c.7 0 1.3-.5 1.4-1.3 0-.5.1-1 0-1.6 1-.1 1.9-.1 2.9-.2l15.8 59c.9 3.6 1.9 7.3 1.7 10.8-.2 2.8-1.4 6.4-4.2 8.2-1.7 1-3.9 1.3-5.8 1.5-18.7 1.6-39.5-10.1-57.5-21.2-1.1-.7-2.5-.3-3.1.7-.7 1.1-.3 2.5.7 3.1.8.5 1.7 1 2.6 1.6l7.2 43.1c-2.2 1.5-4.6 2.7-7.1 3.7 0-.4-.1-.7-.1-1.1-.1-.8-.8-1.3-1.6-1.2-.8.1-1.3.8-1.2 1.6.1.5.1 1.1.2 1.6-1.7.6-3.5 1-5.3 1.4-.1-.6-.2-1.2-.5-1.8-.3-.7-1.2-1-1.9-.7-.7.3-1 1.2-.7 1.9.2.4.3.7.3 1.1-3.5.6-7 .9-10.5 1-.1-1-.2-1.9-.6-2.8-.3-.7-1.1-1.1-1.8-.9-.7.3-1.1 1.1-.9 1.8.2.6.4 1.3.4 2-2.5.1-5 0-7.5 0-4-.1-8-.2-12.1-.3-.2-.9-.3-1.8-.3-2.7 0-.8-.6-1.4-1.4-1.4-.8 0-1.4.6-1.4 1.4 0 .9.1 1.8.2 2.6-3.2-.1-6.4-.3-9.6-.5-.7-1.1-1-2.6-.7-3.9.2-.8-.3-1.5-1.1-1.7-.8-.2-1.5.3-1.7 1.1-.3 1.4-.2 2.9.2 4.3l-5.1-.3c-.5-.9-.8-2-.9-3-.1-.8-.7-1.3-1.5-1.3-.8.1-1.3.7-1.3 1.5.1.9.3 1.7.5 2.6-1.6-.2-3-.5-4-1.2-1-.8-1.7-2.1-2.4-3.4-10-19.4-14.9-37.8-14.6-55.9zM78.3 430.2c-1.2.2-2.5.3-3.7.3-3.8 0-7.6-1-10.8-2.9-1.4-.8-2.7-1.8-3.9-2.7-1.4-1-2.7-2-4.1-2.7-2.1-1.1-4.4-1.7-6.9-2.3l-.6-.1c-5.2-1.3-11.2-3-16-6.8-5.5-4.3-8.3-10.9-7-16.7.3-1.2 1.5-2 2.7-1.8 1.2.3 2 1.5 1.8 2.7-1 4.7 2 9.5 5.4 12.2 4.1 3.2 9.5 4.7 14.3 5.9l.6.1c2.6.6 5.4 1.3 7.9 2.7 1.7.9 3.2 2 4.7 3.1 1.2.9 2.3 1.7 3.5 2.4 3.4 2 7.6 2.7 11.5 2 1.2-.2 2.4.6 2.6 1.8.1 1.4-.8 2.6-2 2.8zm2.8-16.5c-6.9-1.1-13.5-4.2-19.6-7.4 2.3-.3 5.6 0 6.6-2 .2-.5.2-1 .1-1.4 2-.4 3.8-1.1 5.6-2.2.9.7 1.9 1.4 2.8 2.1 2.1 1.6 4.3 3.2 6.5 4.8-1.1 1.9-1.6 4-2 6.1zm63.3-100.9c-4.9 5.3-8.6 11.4-12.2 17.3-9.9 16.3-20.1 33.1-26.9 51.3-3.2 8.6-5.7 17.6-7.3 26.7-.2 1-.4 1.4-.5 1.5-.1 0-.3 0-.8-.2-6.4-1.8-11.8-5.9-17.5-10.3-5.8-4.4-11.8-9-18.9-10.9 10.1-27.5 20.7-55.9 33.6-82.7 5.8-11.9 12.9-25.4 24.4-34.4 3.6-2.8 7.7-5.2 11.6-7.5 2.9-1.7 5.8-3.4 8.6-5.3 4.3-2.9 7.8-6 10.4-9.2.8-1 .6-2.4-.3-3.2-1-.8-2.4-.6-3.2.3-1.8 2.2-4.1 4.4-6.9 6.5-2.4-10.6-4.3-21.2-5.4-31.5 1 .2 1.9.2 2.8.3 11.6.8 23.3 1.4 34.9 1.5h4c12.1 0 25.1-1 35.7-7.6 1.3 4.5 2.8 11.8 4.3 19 3.1 15.5.1 30.2-8.2 39.2-4.7 5.1-11.4 8.2-18 11.1-.7.3-1.5.7-2.2 1-7.8 3.6-15.4 7.6-22.8 12-6.1 4-13.3 8.8-19.2 15.1zm114 79.4c-.2.6-.6 2-1.1 2.3-.5.3-1.8.1-2.4 0-13.4-2.2-26-7.9-38.3-13.4L185 366.9c-5.2-2.4-10.6-4.8-14.5-8.9-4-4.3-6.1-10-8.2-16.5-3.3-10.1-6.3-20.3-9.2-30.6 4.2-3.5 8.8-6.5 13-9 7.2-4.3 14.7-8.3 22.3-11.8.7-.3 1.5-.7 2.2-1 3-1.4 6.1-2.8 9.1-4.4l3.5 42.7c.1 1.3.3 3.1 1.4 4.6 1 1.4 2.5 2.1 3.6 2.6l52.2 24c.3.2 1.2.5 1.3.8.1.2.1.7.1 1 .7 10.7-.5 21.4-3.4 31.8zm18.7 2.3c-1.1 0-.4-2.6-1.8-3.3-1.2-.6-2.3-.5-3.4-.2-1.7-2.4-3.8-3.7-5.8-4.9-.5-.3-.9-.6-1.4-.8 1.1-5.7 1.7-11.4 1.9-17.2 4.3.8 8.6 1.2 13 1.3-.1 6.7.1 13.3.1 20-.1 1.8-.8 4.7-2.6 5.1zm17 9.3c.3 2.7.6 5.5.6 8.3 0 8.2-2.9 14.7-8 17.9-.4.2-.8.3-1.2.3-.8 0-1.5-.4-1.9-1.1-.7-1.1-.3-2.5.7-3.1 3.7-2.3 5.9-7.6 5.9-14 0-2.6-.3-5.1-.6-7.8-.4-3.4-.8-6.9-.6-10.5.1-2.2.5-4.5.8-6.7.8-5.2 1.6-10.1-.6-14.1-.6-1.1-.2-2.5.9-3.1 1.1-.6 2.5-.2 3.1.9 2.9 5.4 2 11.3 1.1 17-.3 2.2-.6 4.2-.8 6.2-.1 3.2.3 6.4.6 9.8z"/>
	</symbol>
	<symbol id="colleague-title" viewBox="0 0 388 336">
		<path d="M386.8 220.6l-.7-.8c-.9-1-2.1-1.6-3.5-1.6h-.1l-16.9.3h-21.5l.1-1c.1-1.4-.3-2.8-1.3-3.8l-.9-.9c-.9-.9-2-1.3-3.3-1.3h-6.4l.2-3.5c.5-.3.9-.8 1.3-1.3l4.7-6c1-1.3 1.3-3 .7-4.5-.6-1.5-1.9-2.6-3.4-2.9-.8-.2-1.6-.3-2.3-.5l1.2-18.7H336.1c1.2 0 2.3-.4 3.1-1.2l.4-.4c.8-.8 1.4-1.8 1.5-2.9l.6-6c.1-1.3-.3-2.6-1.1-3.6l-.3-.4c-.9-1-2.1-1.6-3.5-1.6h-1.1l1-15.9c3.2-2.8 4.3-6.5 4.9-11.4v-.1c.3-2.8-1.1-5-3.8-6l1.4-22c0-.9-.2-1.8-.5-2.7l.3-2.3c.2-1.3-.2-2.7-1.1-3.7l-.3-.4c-.6-.7-1.4-1.2-2.3-1.4l-10.5-16c.5-.4.9-1 1.2-1.6l.3-.7c.6-1.3.5-2.8-.2-4.1-2.6-4.7-5.6-8.8-9.3-12.5l.6-7.4.8-7.3.9-6.9 6 .1h.1c1.2 0 2.3-.4 3.1-1.2l.6-.6c.8-.8 1.4-1.8 1.5-2.9l.8-7.6c.2-1.4-.4-2.9-1.4-3.9l-.5-.5c-.6-.6-1.5-1-2.3-1.2l.7-6.6c.2-1.4-.4-2.9-1.4-3.9l-.5-.5c-.9-.8-2-1.3-3.2-1.3h-.1l-10.8.2h-10.4v-.1c.1-1.3-.3-2.6-1.2-3.6l-.5-.6c-.9-1-2.1-1.6-3.5-1.6h-10.8c-1.2 0-2.4.5-3.3 1.4l-.6.6c-.7.7-1.2 1.7-1.3 2.8l-.1 1h-10.6l-10.4.6h-.1c-.8 0-1.6.2-2.4.6l-.7.4c-.3.2-.6.4-.8.6l-3.7.1-.6-.9-.5-.6c-.9-1-2.1-1.6-3.5-1.6h-.1l-13.1.2h-43.2l-13.1-.2h-.1c-1.2 0-2.3.4-3.1 1.2l-.6.6c-.7.7-1.2 1.6-1.4 2.5l-4.3.1-.2-.2-.5-.6c-.9-1-2.1-1.6-3.5-1.6h-.1l-13.1.2h-7.8l.1-.8c.1-1.3-.3-2.6-1.1-3.6L141 2c-.9-1-2.1-1.6-3.5-1.6H127c-1.2 0-2.3.4-3.1 1.2l-.6.6c-.8.8-1.4 1.8-1.5 2.9l-.2 1.8h-7.8l-13 .1h-.1c-1.2 0-2.3.4-3.1 1.2l-.6.5c-.5.5-.9 1.1-1.2 1.8h-1.4c-.2-.8-.7-1.6-1.3-2.2l-.5-.5c-.9-.8-2-1.3-3.2-1.3h-.1l-11 .2H63.8l.1-.5c.1-1.3-.3-2.6-1.2-3.6l-.5-.6C61.3 1 60.1.4 58.7.4H48.1c-1.2 0-2.4.5-3.3 1.4l-.6.6c-.7.7-1.2 1.7-1.3 2.8l-.1 1.4h-15l-11-.2h-.1c-.8 0-1.6.2-2.4.6l-.7.4c-1.3.7-2.1 2-2.3 3.5l-.8 8c-.1 1.2.2 2.4.9 3.3l.6.8c.9 1.1 2.2 1.8 3.7 1.8h.1l4.5-.1c-.5.6-.8 1.4-.8 2.2l-.1.7c-.2 1.7.6 3.3 1.9 4.3H13.4c-1.3 0-2.6.6-3.5 1.6l-.6.7c-1 1.2-1.4 2.8-1 4.3l2.3 8.3c.3 1.2 1.1 2.1 2.1 2.7l.7.4c.5.3 1.1.5 1.7.6l-.4 6.3-1.1 10.9L11.7 81c-.2 1.3.2 2.7 1.1 3.7.8.9 2 1.5 3.2 1.6l45.3 188.2c-.2 1.2-.3 2.4-.4 3.7-.8 11.1 2 20.7 7.7 26.8 4.2 4.5 9.8 6.9 16 6.9 3.6 0 6.8-.8 9.6-2.1l7.3.4c.6 1.5 1.1 3.2 1.6 5.3.5 2.1 2.4 3.5 4.5 3.5.2 0 .5 0 .7-.1 9.8-1.5 16.8-3.6 22.6-6.9l29 1.8-1.1 9c-.2 1.3.3 2.6 1.1 3.6.9 1 2.1 1.6 3.5 1.6h16.1c2.4 0 4.4-1.8 4.6-4.2l1-9.1c12.1.4 27.4.8 40.4.9l1.9 6.6c1.4 4.7 5.3 4.7 7.2 4.7h5.9c12.4 0 19-3.7 21.6-12.6l34.7.4 2.7 8.5c.2.8.8 2.7 2.9 3.8 1.4.7 2.8.8 4.3.8 10.7 0 16.8-1.3 21.2-4.6 2.9-2.2 4.6-5 5.7-8.1l24.6.3c.4 0 .4-1 .2-2.9h5.2c2.4 0 4.4-1.9 4.6-4.3l1-13.4 8 .1c1.2 0 2.3-.4 3.1-1.2l.9-.8c.8-.8 1.4-1.8 1.5-2.9l1.1-10.2c.1-1.3-.3-2.6-1.1-3.6l-.7-.8c-.9-1-2.1-1.6-3.5-1.6h-.1l-7.1.1 1-7.5c.2-1.5-.3-2.9-1.4-4l-.4-.4c0-.2.1-.4.1-.5l.6-9.3.4-4 1.3-9v-.2l8.4.1h.1c1.2 0 2.3-.4 3.1-1.2l.9-.8c.8-.8 1.4-1.8 1.5-2.9l1.1-10.3c.1-1-.3-2.3-1.2-3.3z" fill="#fff"/>
		<path d="M382.2 228.2l-.7-.8c-.6-.7-1.4-1.1-2.3-1.4-.2-.3-.3-.5-.5-.7l-.7-.8c-.9-1-2.1-1.6-3.5-1.6h-.1l-16.9.3h-18.1c-.2-.7-.6-1.4-1.2-1.9l-.9-.9c-.5-.5-1.2-.9-1.9-1.1-.2-.3-.4-.6-.7-.9l-.9-.9c-.9-.9-2-1.3-3.3-1.3h-2.7v-.6c.5-.3.9-.8 1.3-1.3l4.7-6c1-1.3 1.3-3 .7-4.5s-1.9-2.6-3.4-2.9h-.1c-.4-1.1-1.2-1.9-2.2-2.4l1.1-16.7H331.3c1.2 0 2.3-.4 3.1-1.2l.4-.4c.8-.8 1.4-1.8 1.5-2.9l.6-6c.1-1.3-.3-2.6-1.1-3.6l-.3-.4c-.7-.7-1.5-1.2-2.5-1.4-.2-.4-.4-.8-.7-1.1l-.3-.4c-.3-.3-.6-.5-.9-.7l.9-13.8c3.2-2.8 4.3-6.5 4.9-11.4v-.1c.3-2.8-1.1-5-3.8-6l1.4-22c0-.9-.2-1.8-.5-2.7l.3-2.3c.2-1.3-.2-2.7-1.1-3.7l-.3-.4c-.6-.7-1.4-1.2-2.3-1.4l-10.5-16c.5-.4.9-1 1.2-1.6l.3-.7c.6-1.3.5-2.8-.2-4.1-2.6-4.7-5.6-8.8-9.3-12.5l.6-7.4.8-7.3.9-6.9 6 .1h.1c1.2 0 2.3-.4 3.1-1.2l.6-.6c.8-.8 1.4-1.8 1.5-2.9l.8-7.6c.2-1.4-.4-2.9-1.4-3.9l-.5-.5c-.6-.5-1.3-.9-2-1.1-.1-.2-.2-.3-.3-.5l.6-6.2c.2-1.4-.4-2.9-1.4-3.9l-.5-.5c-.6-.5-1.3-.9-2-1.1-.2-.5-.6-.9-1-1.3l-.5-.5c-.9-.8-2-1.3-3.2-1.3h-.1l-10.6.6h-7.5c-.2-.3-.4-.6-.6-.8l-.5-.6c-.6-.7-1.5-1.2-2.3-1.4-.2-.3-.4-.7-.6-.9l-.5-.6c-.9-1-2.1-1.6-3.5-1.6h-10.8c-1.2 0-2.4.5-3.3 1.4l-.6.6c-.7.7-1.2 1.7-1.3 2.8l-.1 1h-10.6l-10.6-.2h-.1c-.8 0-1.6.2-2.4.6l-.7.4c-.3.2-.6.4-.8.6l-3.7.1-.6-.9-.5-.6c-.9-1-2.1-1.6-3.5-1.6h-.1l-13.1.2h-43.2L169 9.3h-.1c-1.2 0-2.3.4-3.1 1.2l-.6.6c-.7.7-1.2 1.6-1.4 2.5l-4.3.1-.2-.2-.5-.6c-.9-1-2.1-1.6-3.5-1.6h-.1l-13.1.2h-4.5c-.2-.5-.5-1.1-.9-1.5l-.5-.6c-.6-.7-1.5-1.2-2.4-1.4-.2-.3-.4-.7-.6-.9l-.2-.2c-.9-1-2.1-1.6-3.5-1.6H119c-1.2 0-2.3.4-3.1 1.2l-.6.6c-.8.8-1.4 1.8-1.5 2.9l-.2 1.8h-7.8l-13.1-.2h-.1c-1.2 0-2.3.4-3.1 1.2l-.6.6c-.5.5-.9 1.1-1.2 1.8-.5-.4-1.1-.7-1.7-.9-.2-.5-.6-.9-1-1.3l-.5-.5c-.9-.8-2-1.3-3.2-1.3h-.1l-11.2.2H58.8c-.2-.4-.4-.8-.7-1.2l-.5-.6c-.6-.7-1.4-1.2-2.3-1.4-.2-.3-.4-.7-.6-.9l-.5-.6c-.9-1-2.1-1.6-3.5-1.6H40c-1.2 0-2.4.5-3.3 1.4l-.6.6c-.7.7-1.2 1.7-1.3 2.8l-.1 1.4h-15l-11-.2h-.1c-.8 0-1.6.2-2.4.6l-.7.4c-1.3.7-2.1 2-2.3 3.5l-.8 8c-.1 1.2.2 2.4.9 3.3l.5.6c.7.9 1.6 1.5 2.6 1.7.1.2.2.4.4.6l.5.6c.9 1.1 2.2 1.8 3.7 1.8h.2c-.2 1.7.6 3.3 1.9 4.2H5.2c-1.3 0-2.6.6-3.5 1.6l-.6.7c-1 1.2-1.4 2.8-1 4.3l2.3 8.3c.3 1.2 1.1 2.1 2.1 2.7l.7.4c.3.2.6.3 1 .4.2.4.4.7.7 1.1l-.3 5.4-1.2 11-1.8 13.3c-.2 1.3.2 2.7 1.1 3.7.7.8 1.6 1.3 2.7 1.5.2.5.5 1 .8 1.4l.1.1 45 186.8c-.2 1.2-.3 2.4-.4 3.7-.8 11.1 2 20.7 7.7 26.8 1.2 1.3 2.5 2.4 3.9 3.3 4.2 4.3 9.5 6.5 15.6 6.5 3.6 0 6.8-.8 9.6-2.1l4.7.3c.2.8.5 1.6.7 2.5.5 1.8 1.9 3.1 3.6 3.4.7 1.8 2.4 3 4.3 3 .2 0 .5 0 .7-.1 9.8-1.5 16.8-3.6 22.6-6.9l25.2 1.6-.8 6.3c-.2 1.3.3 2.6 1.1 3.6.7.8 1.6 1.3 2.6 1.5.2.5.5 1 .8 1.4.9 1 2.1 1.6 3.5 1.6H175c2.4 0 4.4-1.8 4.6-4.2l1-9.1c11.3.4 25.3.8 37.8.9l1.1 3.7c.8 2.7 2.4 3.8 4 4.3 1.7 3.2 4.9 3.3 6.6 3.3h5.9c12.4 0 19-3.7 21.6-12.6l32.2.4 1.8 5.7c.2.8.8 2.7 2.9 3.8.4.2.7.3 1.1.5.4.8 1.1 1.8 2.4 2.4 1.4.7 2.8.8 4.3.8 10.7 0 16.8-1.3 21.2-4.6 2.9-2.2 4.6-5 5.7-8.1l24.6.3c.4 0 .4-1 .2-2.9h5.2c2.4 0 4.4-1.9 4.6-4.3l1-13.4 8 .1c1.2 0 2.3-.4 3.1-1.2l.9-.8c.8-.8 1.4-1.8 1.5-2.9l1.1-10.2c.1-1.3-.3-2.6-1.1-3.6l-.7-.8c-.6-.7-1.4-1.1-2.3-1.4-.2-.3-.3-.5-.5-.7l-.7-.8c-.9-1-2.1-1.6-3.5-1.6h-.1l-3.2.1.6-4.5c.2-1.5-.3-2.9-1.4-4l-.4-.4c0-.2.1-.4.1-.5l.6-9.3.4-4 1.3-9v-.2l8.4.1h.1c1.2 0 2.3-.4 3.1-1.2l.9-.8c.8-.8 1.4-1.8 1.5-2.9l1.1-10.3c-.1-1.2-.5-2.5-1.4-3.4z"/>
		<path d="M79.6 47.2l.2-.6c-3.5-5.8-7.5-10.6-12.9-15l-.7.1-7.5 4.1-.2.7c1.3 1.3 2.6 2.5 3.7 3.8-4.8.3-9.6.6-14.4.6 4.9-3.5 9.8-7.4 14.3-11.4v-.8l-6.4-4.2h13.5l11.1.2.6-.6.8-8-.5-.5-11 .4H50.5l.6-5.6-.5-.6H40l-.6.6-.6 5.6H19.6l-11-.2-.6.4-.8 8 .5.6 11.1-.2h13.9c-1.4 1.6-2.7 3.1-4.1 4.5-1.9-1.1-4-2.2-6.1-3.2l-.7.2-5.8 6-.1.7c5.1 2.5 9.9 5.2 14.6 8.5-7.8 0-15.9-.1-25.3-.2l-.6.7 2.3 8.3.7.4c21.1-.7 39.9-1.2 60-2.9 1 1.6 2 3.3 2.9 4.9l-11.8.2H24.2l-11.9-.2-.7.6-.5 8.7L10 72.9 8.2 86.2h11.2l.4-3.5h36.8l-.4 3.3h11.5l1-13.8 1.1-10.5L71 53l-.4-.4.7.2 8.3-5.6zM35.7 33.8c2.8-2.2 5.1-4.4 7.9-7.1v-.8l-2.4-1.4h12C49 29 44.5 33.1 39.9 37c-1.4-1.1-2.8-2.2-4.2-3.2zm-2.2 41.1H20.6l.4-3.7h12.9l-.4 3.7zm1.2-11.1h-13l.4-3.6H35l-.3 3.6zm22.6 11.1H44.1l.4-3.7h13.2l-.4 3.7zm1.2-11.1H45.3l.4-3.6h13.2l-.4 3.6zM123.8 80.3l.3-4.4 3.1 9.1c.3.8.4 1 2 1 11.7 0 15.9-3.3 16.8-11l1.2-15.3.9-8.5 9.9.2.6-.6.9-8.7-.5-.6-10.1.2 6.1-6.4-.1-.8c-9.6-3.4-18-5.9-28.7-7.6l.6-1.2h14.7l13.1.2.6-.6.9-8.5-.5-.6-13.2.2h-13l.6-6-.5-.6H119l-.6.6-.4 4.2c-.1.6-.1 1.2-.3 1.7h-12l-13.1-.2-.6.7-.9 8.5.5.6 13.2-.2h9.2c-4.2 4.9-11.9 7.3-25.6 8.5l3.5 7.6-7.9-.3-.6.6-.9 8.7.5.6 13.2-.2h40.3L134.3 72c-.2 1.9-.7 2.4-2.4 2.5-1.3.2-4.2.3-7.7.3l.4-6 .6-5.6 1.1-8.2-.5-.6-11.8.3h-8.6l-11.9-.2-.6.5-.6 8.2-.8 7.2L90 81.5h11l.5-4.9h11.2l-.4 3.7h11.5zM99.9 41.8c6.7-1 13.5-2.9 19.2-7.1 3.6.7 7.4 1.5 10.9 2.5 4.6 1.3 9 2.9 13.5 4.6H99.9zm2.5 26.5l.6-5.2h11.2l-.6 5.2h-11.2zM227.8 68.4l.8-.1 8.7-8.8v-.8c-6.9-8.1-14.2-13.8-23.9-20.2l-.8.2-6.6 6.7 1-9.1c2.3-2.8 4.6-5.6 6.9-8.8l-.2-.7-3.3-2.1h14.3l13 .2.6-.6 1-9.5-.5-.6-13.1.2h-43.3l-13.1-.2-.6.6-1 9.5.5.6 13.2-.2h20.5c-10.8 15.3-23.4 25.6-41.2 34l4.6 8.4c.3.7.8 1.1 1.3 1.1.3 0 .6-.1 1.1-.3 10.1-5.2 18.4-10.7 26.1-17.6l-1.2 11.3-2.9 24.3h12.7l2.2-24.3 1.5-14.6c8.2 6 14.4 12.1 21.7 21.4zM244.8 27.5l-.7.4-.8 7.6.5.6 11.1-.2h51l11.1.2.6-.6.8-7.6-.5-.5-11.2.2h-7.8c.5-1.4 1-2.6 1.4-4h2.3l10.7.2.6-.6.8-7.5-.5-.5-10.8.2h-15.6l.6-5.2-.5-.6h-10.8l-.6.6-.5 5.2h-14.8l-10.6-.2-.7.4-.8 7.5.5.6 10.7-.2h2.1c.3 1.3.5 2.6.7 4h-18.3zm44.7-3.8c-.5 1.4-.9 2.6-1.4 4h-13.8c-.3-1.4-.5-2.6-.8-4h16zM296.6 73.2l-8.9-3.8c-.6 3.1-1.1 3.9-2.7 5-1.4 1-3.2 1.1-10.1 1.1-5.1 0-5.4-.2-5.3-2l.7-6.6-.6-.7h-10.2l-.6.6-.5 4.6-.8 6.5c-.6 5.5 1.6 6.8 14.7 6.8 14.9 0 18.2-.8 21-3.1 2.3-1.9 3.3-4 4.1-6.9.2-.9 0-1.2-.8-1.5zM247.4 83.7l.8-.2c3.7-5.1 6-9.1 8.1-14.4l-.2-.9-9-2.9-.7.3c-1.9 4.5-4.8 9.1-8.1 13.4l.1.8 9 3.9zM304.6 83l9.1-5.4.3-.7c-2.5-4.6-5.5-8.5-9.1-12h-.9l-8.1 4.5-.2.8c3 3.2 5.7 7.4 8.1 12.7l.8.1z" fill="#fff"/>
		<path d="M276.4 63.8l-5.1 2.5-.2.7c2.8 2.1 4.3 4.1 6.6 7.2l.7.2 9-4.9.2-.7c-1.8-2-3.3-3.6-5.2-4.9h10.9l10 .2.8-.5.7-9.1.8-7.5 1.1-8.2-.6-.6-10.1.2h-30.2l-11-.2-.6.4-.6 8.4-.8 7.5-1.2 9.1.5.5 11-.2h13.3zM265 45.3h29.2l-.3 2.8h-29.2l.3-2.8zm-.9 8.7h29.2l-.3 2.9h-29.2l.3-2.9zM119.4 136.3l.5-.1 5.6-5.7v-.5c-4.5-5.2-9.2-9-15.5-13.1l-.5.1-4.2 4.3.6-5.9c1.5-1.8 2.9-3.7 4.4-5.7l-.2-.5-2.2-1.3h9.3l8.4.2.4-.4.6-6.2-.3-.4-8.5.2H90l-8.5-.2-.4.4-.6 6.2.3.4 8.5-.2h13.3c-7 9.9-15.1 16.6-26.7 22l3 5.4c.2.5.5.7.8.7.2 0 .4-.1.7-.2 6.6-3.3 11.9-6.9 16.9-11.4l-.8 7.3-1.9 15.7h8.2l1.4-15.7 1-9.5c5.5 4.1 9.5 8.1 14.2 14.1zM141.9 134.3c1.9 2.7 3.5 5.9 4.5 8.6l.6.1 5.5-3.6.3-.5c-1.3-3-3.4-6.1-5.9-9l-.6-.2-3.4 2.3c1-2.4 1.7-4.8 2.2-7.3h1.1l6.7.2.3-.3.6-5.7-.3-.3-6.8.2h-.8c.3-2.3.6-4.7.9-7l6.7.2.3-.3.6-5.7-.3-.3-6.8.2h-6.7c.7-1.5 1.3-3 1.9-4.5l-.2-.5-5.8-1.7-.4.3c-1.9 5.7-4.6 11-7.6 15l4.7 2.5c.3.2.5.3.8.3.2 0 .4-.1.6-.4 1.1-1.5 2.1-3.2 3.1-5h1.9c-.2 2.3-.5 4.7-.8 7h-3.4l-6.7-.2-.3.3-.6 5.6.3.3 6.7-.2h3c-.5 2.6-1.2 4.4-2 6.3-2.6 5.7-5.7 8.7-10.1 11.6l4.7 3.8c.2.2.4.3.6.3.1 0 .3-.1.6-.3 4.7-2.9 8-7.4 10.3-12.1zM177.1 110.7l.8-6.3-.4-.4-6.7.2h-6.5l-7.1-.2-.3.3-.5 6.1-1.1 10.1-2.8 25.2h7.2l.5-5h6.4l-.4 3.9h7.4l2.4-24.4 1.1-9.5zm-9.8 24.1h-6.4l2.6-24.7h6.4l-2.6 24.7zM223.8 146.2l3.6-6.7c-7.2.5-15.5.9-21.8.9-1.5 0-2.9 0-4.1-.1-4.8-.2-8.5-.9-10-3.7l1-9.8 1-7.7-.3-.4-6.6.2h-1.2l-4.7-.2-.3.3-.6 5.9.3.3 4.7-.2h1.2l-1.2 11c-2.5 1.3-4.6 2.5-7.4 4.1l-.2.5 3 6 .4.2c2.4-2 4.6-3.9 6.7-5.5 2.6 3.8 6.7 4.8 11.1 5.1 3.2.3 7.3.4 11.9.4 3.9 0 8.3-.1 12.5-.3.5.2.7.2 1-.3z" fill="#fff"/>
		<path d="M194.8 104.1l-.3.3-.2 1.6c-2-2.4-3.9-4.1-6.2-5.8l-.6-.1-4.9 3.7-.1.4c3 2.4 4.6 4.4 6.5 7.2h.7l4.5-3.6-.2 1.8.3.3 6.7-.2h6.6c-.2.7-.4 1.3-.6 2h-1.3l-6.9-.2-.4.3-.4 5.7-.7 6.8-1.8 14.4h7l.2-1.6h12l-.2 1.6h7.3l1.3-14.6.7-6.3.8-5.9-.4-.4-6.6.2H214l1-2h8.1l6.4.2.3-.3.6-5.3-.3-.3-6.5.2h-1.5c.8-1 1.6-2.1 2.4-3.2l.1-.6-6.2-2.1-.5.2c-1 2.1-2 4-3.1 5.8h-4.1c-.8-2.2-2-4.5-3-5.9l-.4-.1-5.4 1.6-.2.4c.6 1.2 1.3 2.6 1.8 3.9h-2l-6.7-.1zm20.4 28h-12l.2-2.2h12l-.2 2.2zm.7-6.7h-12l.2-2.2h12l-.2 2.2zm.9-8.7l-.2 2.1h-12l.2-2.1h12zM276.3 105.6l-.4-.3-8.6.2h-8.7c1.2-1.7 2.3-3.5 3.5-5.4l-.3-.5-7-1.3-.5.3c-1.2 2.4-2.3 4.6-3.8 6.9h-3.9l-8.6-.2-.4.3-.8 8.7-1.5 14.2-2.3 19h7.6l.3-2.8h23.4l-.3 2.8h7.8l1.8-19.8 1.4-13.4 1.3-8.7zm-11.2 32.7h-23.4l.5-5.1h23.4l-.5 5.1zm1.1-11.1h-23.4l.5-4.9h23.4l-.5 4.9zm1.2-10.7H244l.5-4.8h23.4l-.5 4.8zM329 135c.1-.6 0-.9-.8-1.1l-6-2.1c-1.2 7.6-1.3 7.8-18.4 7.8-10.5 0-10.7-.2-10.4-3.4l1.2-11.4h21l8.1.2.4-.4.5-6.4 1.1-10.4.8-5.7-.3-.4-8.2.2h-20.8l-8.8-.2-.3.3-.6 6.1.3.3 8.8-.2h21.6l-1.1 10.2h-20.9l-8.1-.2-.4.4-.4 5.6-.6 5.3-1 8.1c-.8 7.7.7 8.9 17 8.9 15 0 18.9-.5 21-1.6 3.3-1.8 4.6-4.1 5.3-9.9zM137.7 202.4c1.2 1.6 2.7 2.8 4.5 3.8 3.1 1.6 8.4 2.2 14.7 2.2H169.3c.6 0 .7-.1 1-.5l3.7-6.8c-5.7.4-11.9.5-16.9.5H155c-.4 0-.9 0-1.3-.1l.4-3.9h7.6l5.1.2.3-.3.6-5.4-.3-.3-5.1.2h-7.6l.3-3h10.2l8.5.2.4-.4.6-5.5-.3-.4-8.5.2h-30l-8.5-.2-.4.4-.6 5.5.3.4 8.5-.2h12.2l-1.2 11.3c-1-.3-1.9-.7-2.5-1.1-.9-.6-1.8-1.6-2.6-2.9.7-1.6 1.3-3.3 1.7-5.2l-.3-.4-6.5-1-.5.4c-1.7 6.6-5.1 11.3-12.2 14.5l3.7 4.5c.4.4.5.7.8.7.2 0 .4-.1.7-.3 3.8-1.7 6.8-4.1 9.2-7.1zM142.4 181h18.2l7 .2.5-.4.7-8 .4-4.3.8-6.3-.4-.4-7.6.2h-17.4l-7.9-.2-.4.3-.5 6.1-.5 4.8-1 7.7.3.4 7.8-.1zm.9-13.8H162l-.2 2.2H143l.3-2.2zm-.7 6.5h18.7l-.2 2.2h-18.7l.2-2.2zM228 167.6l-4.2-2.6h-.5c-1 1.6-2.1 3-3.1 4.4l.3-3-.3-.4-3.9.1.5-5-.3-.4h-6l-.4.4-.5 5h-.2l-5.4-.1-.4.4-.5 4.9.3.4 5.4-.2h.2l-.4 3.6h-.8l-6.7-.2-.3.3-3.1-2.3-.4.1c-1.1 1.6-2.6 3.4-4 5-.4-1.9-.9-3.7-1.6-5.4 1.4-1.2 2.7-2.7 4-4.1h.2l6.2.2.4-.4.6-5.3-.3-.4-6.2.2h-9.2l-5.7-.2-.4.4-.6 5.3.3.4 5.7-.2h1.5c-2.6 2.4-5.6 4.5-9.8 6.9l3.3 4c.1.2.2.2.4.2.3 0 .6-.2 1-.4 1.2-.8 2.3-1.5 3.3-2.3l.5 1.5c-2.9 3-5.6 5-9.7 7.7l3 4c.2.3.4.4.6.4.2 0 .4-.1.6-.3 2-1.5 4.3-3.6 6.5-5.9.1.9.2 1.8.2 2.7-3.6 3.8-7.7 7.3-12.1 10.1l3 4c.2.3.4.4.6.4.2 0 .4-.1.6-.3 2.4-1.8 5-4.1 7.5-6.7l-.2 1.5c-.3 3.1-.6 4.7-1 5.5-.5.9-1.4 1.3-2.3 1.3-.8.1-1.5.1-2.3.1h-1.7l1.7 5.8c.2.5.3.7 1 .7 4 0 5.7-.2 7.8-2.1 2.2-2 3-5.7 3.5-11.4l.1-1.5c.7 1.5 1.3 3.1 1.9 4.8l.4.2 4.5-4.2.1-.5c-1.8-3.8-4.1-7.2-6.6-10.3 2-1.9 3.9-3.8 5.7-5.8l-.2 1.5.3.4 6.7-.2h1.9c-3.1 2.3-6.5 4.5-11.2 6.9l3 4.3c.1.2.3.3.5.3s.5-.1.8-.3c.3-.2.5-.3.9-.5l-.7 7.1-1.4 11h6.8l.3-2.8h6.8l-.3 2.5h6.9l.9-10.5.7-6.5.7-5.6-.3-.4-1.8.1 2.6-2v-.5c-1.1-1.2-2.4-2.3-3.6-3.1l5.5.2.4-.4.5-5-.3-.4-4.2.1c1.8-2 3.5-3.9 5.5-6.7v-.5zm-12.5 3.9l3 .1c-1 1.2-2.1 2.4-3.2 3.5h-.1l.3-3.6zm-.1 29.9h-6.8l.3-2.9h6.8l-.3 2.9zm.8-7.8h-6.8l.3-2.5h6.8l-.3 2.5zm-.3-10c.9.7 1.8 1.5 2.7 2.5l-1.4.1h-6.4c2.4-1.8 4.7-3.7 7-5.7h1.8l-3.8 2.7.1.4zM270.7 186.7c2.6-2 4.9-3.9 7.5-6.4v-.5l-4.1-4.2-.5.1c-1.4 1.9-2.7 3.4-4 4.8-.1-2.2-.2-4.5-.1-6.7h1.4l6.8.2.3-.3.5-5.1-.3-.3-6.8.2h-.8c1.2-1.6 2.3-3.3 3.6-5.3l-.1-.5-5.7-2.1-.5.3c-1.2 2.7-2.4 5.3-3.6 7.7h-5.7l3.6-1.3.2-.5c-.9-2.4-1.7-4.1-3-5.9l-.4-.2-5.4 2-.2.4c1.1 1.9 1.7 3.3 2.3 5.4l-6.9-.2-.3.3-.5 5 .3.3 7-.2h.9c-3.1 2.3-6.5 4.3-11.2 6.3l3.1 4.1c.2.3.4.4.6.4.2 0 .5-.1.8-.3 2.2-1 4.1-2.1 6-3.3.3.5.6.9.9 1.4-3.2 2.3-6.6 4.2-10.1 5.8-.1-2.7-.8-5.1-2.4-8.4 1.9-4.1 4-9.3 5.4-13.4.1-.4.2-.7.2-.9 0-.3 0-.6-.3-.8l-2.5-2.6-3.1.2h-3.8l-6.5-.2-.4.4-.7 7.7-2.1 20.1-2.4 19.2h7.2l1.3-14.8.9 4.5c.1.6.4.8 1.1.8 3.9 0 7.3-2.9 7.9-8.4l.1-.8 1.7 2.4c.2.2.3.4.6.4.2 0 .4-.1.7-.2 3-1.6 6.1-3.6 9-5.8l.3 2.1c-4.3 3.4-10.3 7-17.2 9.9l3.3 4.5c.2.2.3.4.6.4.2 0 .4-.1.7-.2 4.6-2.3 8.4-4.7 12.5-7.9-.3 3.2-.7 4.6-1.2 5.4-.5.8-1.3 1.2-2.3 1.3-.9.1-1.8.1-2.8.1-.6 0-1.3 0-2-.1l1.7 5.7c.2.5.3.7.9.7 3.8 0 6.5-.2 8.6-2.1 2-1.9 2.9-4.6 3.6-11 .1-1.4.2-2.9.2-4.4.9 4.7 2.3 9.4 4.8 13.6.2.4.4.6.7.6.2 0 .4-.1.6-.4l5.2-5.1c-3-4.5-4.6-9.2-5.7-13.9zm-32.3-5.3c1.6 4.3 1.8 6.9 1.6 8.7-.3 2.6-1.2 3.1-3.8 3.1l.3-3.2 2.3-21.8h3.1c-.8 3.1-2.2 7.1-3.5 10.3-.2.5-.3.8-.3 1.1-.1.7.1 1.1.3 1.8zm22.1-4.2c1.1-.9 2.2-2 3.3-2.9 0 2-.1 3.9.1 5.8 0 1.5.2 3.1.3 4.6-.8-2.8-2.1-5.3-3.7-7.5zM312 197.3c3.8-3.9 6.9-8.4 9.6-14.5.1-.2.1-.4.2-.6 0-.5-.1-.8-.4-1l-2.6-2.4-4.7.2h-12.5c.5-1.6 1-3.2 1.4-4.8h16.6l8.5.2.4-.4.6-6-.3-.4-8.5.2h-15.7c.4-1.9.8-3.9 1.2-6.1l-.3-.4-7.1-.3-.4.4c-.3 2.3-.7 4.4-1.1 6.4h-5.1l-8.5-.2-.4.4-.6 6 .3.4 8.5-.2h4.3c-1.3 4.7-2.7 8.3-4.1 11.1-2.4 4.9-6.9 11.4-13.7 16.5l4.6 4.5c.2.2.4.4.6.4.2 0 .4-.1.6-.3 1.2-1 2.4-2 3.5-3l3.2 5.4c.3.5.5.6.9.6.1 0 .3 0 .5-.1 5.3-1.5 10.3-3.8 14.7-6.9 4.1 3.2 9 5.4 14.3 6.8.2 0 .3.1.5.1.5 0 .9-.3 1.2-.7l4.8-6c-6.3-1.3-11.1-2.6-15-5.3zm-25.1 5.9c4-3.9 7.1-8.4 9.7-13.2 1.1 2.8 2.7 5.4 4.6 7.6-4.4 2.8-9.4 4.4-14.3 5.6zm14.9-18.3h10.7c-1.5 3-3.3 5.6-5.6 8-2.1-2.4-3.8-5-5.1-8zM99.6 318.9c13.1-2 20.6-5 27.3-10.7 8.3-6.9 13.6-17.9 14.4-29.9.7-10.5-1.8-19.5-7.3-25.8-6.4-7.2-17-11.4-29.4-11.4-13.6 0-25.7 4.7-34.5 13.6-7.5 7.6-11.9 17.4-12.6 28.3-1.2 17 6.7 28.8 19.1 28.8 8.4 0 15-5.2 21.2-17 5.8-10.9 9.8-22.9 12.9-38.8 3.3.6 5.3 1.4 7.6 3.2 5.1 4.1 7.4 10.4 6.9 18.3-.7 9.9-5.2 17.7-12.6 21.5-5.2 2.6-11 4.1-19.8 4.7 3.5 5.2 5 8.5 6.8 15.2zm-13.8-34.5c-3.3 7-5.9 10.3-8.2 10.3-3.2 0-5.4-5.2-4.9-11.8.6-8.2 5.2-16.9 11.6-22.1 3.4-2.8 6.5-4.2 10.4-4.7-1.7 9.2-5.1 20-8.9 28.3zM253.4 281.6l4.2-39.7 1.9-15-.7-.8-18.8.3h-54.2l-18.7-.3-.9.8-1.2 15-5.3 50.9-4.3 35.2h16.1l9.2-87.6h60.9l-7.2 68.3c-.3 2.7-.7 3.5-2.4 3.6-2.9.2-8.8.3-12 .3l3.7 13.1c.3 1.1.5 1.3 2.7 1.3h5.9c13.3 0 17.1-4.4 18.1-14.1l3-31.3z" fill="#fff"/>
		<path d="M226.5 307.7l1.4-17.8 1.3-12.1 1.5-11-.7-.8-13.7.3h-17.2l-12.5-.3-.7.8-.8 10.7-1.2 11.7-2.5 19.5h14.3l.7-6.5h15.7l-.6 5.4h15zm-28.9-17.1l1.3-12.4h15.7l-1.3 12.4h-15.7zM198.5 259.9h21l14.5.3.9-.8 1.2-12.1-.7-.7-14.5.3h-21l-14.5-.3-.9.7-1.2 12.1.6.8zM357.6 227.9h-26.7l.6-6.1-.9-.9h-13.3l-1.1.9-.6 6.1h-27.7l-15.7-.3-1 .7-1.1 10.3.8.9 15.8-.2h27.7l-.4 3.7h-15.4l-14.1-.3-.9.8-.6 9.1-.4 4.1-1.6 9.5.6.9 14.5-.3h15.4l-.4 3.6h-18.7l-14.6-.3-1 .7-1 9.5.8.9 14.6-.2H310l-.3 3.1h-29.9l-14.6-.3-1 .7-1 9.5.8.9 14.6-.2h29.9l-.4 3.4h-18.8l-14.9-.3-1 .7-1 9.5.8.9 15-.2H307l-.1 1.2c-.3 2.7-1 3.4-3.4 3.6-1.9.2-6.7.4-11.9.4l4.2 13.1c.3 1.1.5 1.3 2.7 1.3 18.5 0 22.6-4.1 23.9-16.9l.2-2.8h17.6l-.5 4.4h15.5l1.3-17.8 12.4.1.9-.8 1.1-10.2-.7-.8-12.4.2.1-1.2 1.6-11.6-.7-.7-16.5.3h-15.9l.4-3.6h15.8l14.4.1.9-1 .7-9.4.4-4.1 1.3-9.1-.7-.8-14.4.3h-15.8l.4-3.8h26.7l16.9.2.9-.8 1.1-10.3-.7-.8-17.1.5zm-45.1 29.2H297l.5-4.6H313l-.5 4.6zm29 40.7h-17.7l.2-3.4h17.8l-.3 3.4zm1.8-17l-.3 3.1h-18l.3-3.1h18zm.7-28.3l-.5 4.6h-15.7l.5-4.6H344z" fill="#fff"/>
	</symbol>
	<symbol id="inner-arrow" viewBox="0 0 100 88">
		<path d="M96.9 23.8c-.9-.9-1.8-1.3-3.1-1.3-11.2 0-21.6.9-31 2.7l-.9-20.7c0-1.8-.9-3.1-2.7-4-.4-.5-1.3-.5-1.8-.5-.9 0-1.8.4-2.7.9L2.6 38.6c-1.3.9-1.8 2.2-1.8 3.6 0 .4 0 1.3.4 1.8-.4.4-.4 1.3-.4 1.8 0 1.3.9 2.7 1.8 3.6l57.5 37.7c.9.4 1.8.9 2.7.9.9 0 1.3 0 2.2-.4 1.3-.9 2.2-2.2 2.2-4v-2.7-.9l-.4-20.2c1.3 0 3.6-.4 6.3-.4 5.8 0 13 .9 20.7 2.7h.9c.9 0 1.8-.4 2.7-.9.9-.9 1.8-2.2 1.8-3.6V26.5c-.9-.9-1.4-2.3-2.3-2.7z" fill="#000"/>
		<path d="M93.8 54.3V26.9c-11.7 0-23.8.9-35.5 3.6L57 4.5l-12.1 9 6.7 15.3-10.8-12.6-4.9 3.6 4.5 10.3-7.2-8.5L4.4 42.2l57.5 37.7-.9-27.4s3.6-1.3 10.8-1.3L66 35.9l12.6 15.7c2.2 0 4.5.4 6.7.9l-5.4-11.7 12.6 13c.8.1 1.3.1 1.3.5z" fill="#fbd528"/>
	</symbol>
	<symbol id="inner-title" viewBox="0 0 428 120">
		<path d="M416.7 24.8c-7.9-9-19.2-14.2-31.1-14.2H47.5C26 10.7 7.8 26.1 5.1 46.5c-1.6 11.8 2 23.8 9.9 32.7 7.9 9 19.2 14.2 31.1 14.2h338.1c21.5 0 39.7-15.4 42.4-35.8 1.5-11.9-2.1-23.8-9.9-32.8z" fill="#fff"/>
		<path d="M381.9 3H43.8C24.3 3 6.9 16.9 4.4 36.2c-3.1 23.4 15.2 43.5 38 43.5h135.9c11.9 2.4 41.9 8.7 42.2 37.3l.8-29.1c.1-4.6 3.9-8.3 8.5-8.3h150.7c19.5 0 36.9-13.9 39.5-33.2C423.1 23.1 404.7 3 381.9 3z" fill="#006198"/>
		<path d="M220.5 120c-1.6 0-2.9-1.3-3-2.9-.2-23.3-21.2-30.6-39.6-34.4H42.4c-11.9 0-23.2-5.2-31.1-14.2-7.9-9-11.5-20.9-9.9-32.7C4.1 15.4 22.4 0 43.8 0h338.1c11.9 0 23.2 5.2 31.1 14.2 7.9 9 11.5 20.9 9.9 32.7-2.7 20.4-20.9 35.8-42.4 35.8H229.8c-3 0-5.5 2.4-5.5 5.4l-.8 29.1c-.1 1.5-1.4 2.8-3 2.8zM43.8 5.9C25.3 5.9 9.6 19.1 7.3 36.6 5.9 46.7 9 57 15.8 64.6c6.8 7.7 16.5 12.1 26.6 12.1h135.9c.2 0 .4 0 .6.1 9.1 1.9 29.4 6 39.2 21.1l.3-10c.2-6.2 5.2-11.1 11.4-11.1h150.7c18.5 0 34.2-13.2 36.6-30.7 1.3-10.2-1.7-20.4-8.5-28.1-6.8-7.7-16.5-12.1-26.6-12.1H43.8z"/>
		<path d="M181.6 36.2v-2.9c.5-.6.7-1.4.7-2.3V18.7c0-2.2-1.8-4-4-4H149c-.6 0-1.2.1-1.8.4-.7-.8-1.8-1.3-3-1.3h-5.9c-2.2 0-4 1.8-4 4v4.8h-.3c-.9 0-1.7.3-2.3.8v-4.5c0-2.2-1.8-4-4-4h-14.5c-.3 0-.6 0-.9.1-.3-.1-.6-.1-.9-.1H97.1c-1.6 0-3 .9-3.6 2.3-.8-.8-1.6-1.5-2.5-2.2-.7-.6-1.6-.9-2.5-.9-.8 0-1.7.3-2.4.8l-3.7 2.8c-.7-1.1-1.9-1.8-3.3-1.8H72c-.7-1.2-2-2.1-3.5-2.1H62c-1.5 0-2.8.8-3.5 2.1h-6.6c-1.3 0-2.4.6-3.1 1.5-.3-.6-.6-1.1-.9-1.6-.7-1.2-2-1.9-3.4-1.9h-.3l-6.6.6c-1.4.1-2.6.9-3.2 2.1-.4.7-.5 1.6-.4 2.4-2.1.1-3.8 1.8-3.8 4v5.5c0 1.4.7 2.6 1.8 3.3v3.8c0 .4.1.8.2 1.1-.1.4-.2.7-.2 1.1v5.1c0 .5.1.9.2 1.4-.2.4-.2.9-.2 1.4v18c0 2.2 1.8 4 4 4h5.6c.8 0 1.5-.2 2.1-.6.3.1.7.1 1 .1h6.1c.6.3 1.2.5 2 .5H59c2.2 0 3.9-1.7 4-3.9l.1.4c.4 1.8 2 3.1 3.9 3.1h6.3c3.3 0 6.8-1.5 8.3-5.3l3.2 4.1c.7.9 1.7 1.4 2.8 1.5h.3c1 0 1.9-.4 2.6-1 .9-.8 1.8-1.8 2.7-3 2.7 1.2 5.5 2 8.5 2.4 3.9.5 9.3.8 16.3.8 4 0 7.7-.1 11.1-.2 1.3 0 2.4-.7 3.1-1.7.6 1.4 2 2.3 3.6 2.3h3.1c2.3 0 5.6-.3 7.6-2.5.7-.7 1.2-1.7 1.5-2.8.5.2 1 .3 1.5.3h7.4v1.4c0 2.2 1.8 4 4 4h6.1c2.2 0 4-1.8 4-4v-1.4h7.4c2.2 0 4-1.8 4-4v-4.3c.5-.7.9-1.5.9-2.5v-4.6c0-.3 0-.5-.1-.8.3-.6.5-1.2.5-1.9v-4.7c-.3-1.2-1-2.5-2.1-3.2zm-98 3.3c-.4 1.1-.9 2.2-1.4 3.2v-1.8c.5-.4.9-.9 1.2-1.5.1.1.1.1.2.1zm-1.1-12.8c.3-.4.4-.9.5-1.3.3.3.6.7.9 1-.5-.1-1 .1-1.4.3zm2.2 23.9c-.8 1.4-1.6 2.6-2.5 3.5v-5.7c.7.9 1.8 1.4 3 1.4-.1.2-.3.5-.5.8zm49.8-14.7v2.2l-1.9.5c-.2 0-.4.1-.5.2v-1.1c0-.8-.2-1.5-.6-2.2.1-.1.1-.2.2-.4.6.5 1.4.7 2.3.7h.5zm-1.6 17.9c-.2-.2-.4-.4-.6-.5v-1.1c.6.3 1.2.5 1.9.5h.4v.7c-.6 0-1.2.2-1.7.4zM394.8 55c-.2-1.1-.9-2.1-2-2.7-1.8-1-3.3-2.2-4.6-3.4.9-.4 1.7-.9 2.6-1.4 1.1-.6 1.9-1.7 2-3 .2-1.3-.3-2.5-1.2-3.4l-.2-.2c.1-.4.2-.8.2-1.3V27.5c0-2.2-1.8-4-4-4h-2.5v-2.9c0-2.2-1.8-4-4-4h-11.7c-.6-1-1.6-1.7-2.7-1.9l-5.8-1.1c-.2 0-.5-.1-.7-.1-1.1 0-2.2.5-2.9 1.3-2.6 2.9-7.4 5.6-14 7.9-.5.2-.9.4-1.3.8-.3-.1-.7-.2-1-.2v-5.6c0-2.2-1.8-4-4-4h-6c-2.2 0-4 1.8-4 4v5.6h-1.5c.1-.4.3-.9.4-1.3.6-2-.4-4.2-2.4-4.9l-4.7-1.8c-.3-.1-.7-.2-1-.2-.7-.8-1.8-1.4-3-1.4h-5.4c-.3 0-.6 0-.9.1-.3-.1-.6-.1-.9-.1h-5.4c-1.3 0-2.4.6-3.1 1.5-.3 0-.7.1-1 .3l-4.6 1.9c-1 .4-1.8 1.3-2.2 2.3-.4 1.1-.3 2.2.3 3.2.5.9 1 1.9 1.4 2.9-.6.5-1.1 1.1-1.4 1.8-.4-.1-.8-.2-1.2-.2h-.6v-8.5c0-2.2-1.8-4-4-4h-14c-1 0-1.8.3-2.5.9-.1-.1-.3-.1-.4-.2l-5.3-1.8c-.4-.2-.9-.2-1.3-.2-1.5 0-2.9.8-3.6 2.3-.3.7-.7 1.3-1.2 2-2.2-1-4.3-1.8-6.2-2.5-.4-.1-.8-.2-1.2-.2-1 0-2 .4-2.8 1.1l-2.7 2.7v-.3c-.3-1.5-1.3-2.7-2.7-3.1l-5.6-1.8c-.4-.1-.8-.2-1.2-.2-1.1 0-2.2.5-3 1.4-.1.2-.3.3-.5.5l-5.4-1.7c-.4-.1-.8-.2-1.2-.2-1.1 0-2.2.5-3 1.4l-.5.5-5.3-1.7c-.4-.1-.8-.2-1.2-.2-1.2 0-2.3.5-3 1.4-.6.7-1.4 1.4-2.4 2.2l-2-1.4c-.7-.4-1.4-.7-2.2-.7-.5 0-.9.1-1.4.3-.5.2-1 .5-1.3.8-.6-.4-1.3-.9-2.1-1.3-.6-.4-1.3-.5-2-.5-1.1 0-2.2.4-2.9 1.3l-3.3 3.6c-.8.9-1.1 2-1 3.1.1 1.1.8 2.2 1.7 2.8.5.4 1 .7 1.5 1.1-.4.2-.7.5-1.1.7-.9.5-1.6 1.4-1.9 2.4-.3 1-.1 2.1.4 3l2.9 5c.4.6.8 1.1 1.4 1.4-1.1 1.4-2.3 2.7-3.6 3.8-1.5 1.3-1.8 3.4-.8 5.1l3 4.9c-.5.2-1 .5-1.4 1-.9.9-1.2 2.2-1 3.5l1.3 6.4c.4 1.9 2 3.2 3.9 3.2h1.3c3.1 0 5.6-.4 7.5-1.3.7.7 1.7 1.2 2.8 1.2h.6c2.2-.3 4.6-.8 7.2-1.4.7 1 1.9 1.5 3.1 1.5.2 0 .4 0 .7-.1 3.7-.6 7.2-1.4 10.5-2.3 1.7 2.2 4 2.9 6 2.9 2.7 0 5.9-1.3 7.4-6.5l.3.5c.6 1 1.6 1.8 2.8 2 .2 0 .5.1.7.1 1 0 1.9-.3 2.6-1 .2-.1.3-.3.5-.4v1.4c0 2.2 1.8 4 4 4h5.7c1.9 0 3.6-1.4 3.9-3.3l.6 1.1c.7 1.3 2 2 3.4 2 .3 0 .6 0 .9-.1 3.2-.7 6.2-2 9.1-3.7 2.4 1.6 5.2 2.9 8.1 3.7.4.1.7.2 1.1.2 1.6 0 3-.9 3.7-2.4l.2-.4c.6 1.5 2 2.5 3.7 2.5h.2c10.4-.6 18.9-1.6 25.5-2.8.6 1.4 2 2.4 3.6 2.4h6.3c3.6 0 6-.9 7.5-2.7l.1-.1c1-1.3 1.6-3 1.8-5.3l2.5 5.2c.7 1.4 2.1 2.3 3.6 2.3.3 0 .6 0 1-.1 3.9-1 7.5-2.1 10.9-3.3l.6 1.8c.5 1.5 1.7 2.6 3.3 2.8.7.1 1.5.1 2.6.1 5.2 0 8.6-1 10.8-3.2 1.3-1.3 2.1-2.9 2.6-5 1.7 2.1 3.7 3.8 5.8 5.2.7.4 1.4.6 2.2.6 1.2 0 2.3-.5 3.1-1.5l4.2-5.3c.4-.6.7-1.8.5-3zM243.6 35.4l.1.2-.1.1v-.3zm-2.2 11.2c.4-.2.7-.4 1-.7.6 1.2 1.7 2.1 3.1 2.3-.7.7-1.5 1.5-2.5 2.2l-1.6-.9V46.6zm3.2-19c.2-.3.3-.7.3-1.1v-.3c.1 0 .1.1.2.1.5.2.9.4 1.3.6-.5.3-1.1.5-1.8.7zm47.6 14.1v2.7c0 1 .3 1.8.9 2.5v5.5c0 .3 0 .7.1 1-.2.1-.4.2-.6.4-.4-.2-.7-.3-1.1-.3-.7-.1-1.5-.2-2.2-.4 1.6-3.4 2.6-7.2 2.9-11.4zm54.1-3.4h-.1c-1.4.1-2.6.8-3.3 2-.7 1.2-.7 2.6 0 3.8l1 1.7c-.7.4-1.2.9-1.6 1.6-.6 1.1-.6 2.5 0 3.6l1 1.9c-.9.3-1.6 1-2.1 1.8V37c1.8-.1 3.2-1.4 3.6-3 .4.6 1 1.1 1.6 1.4v2.9z"/>
		<path fill="#fbd528" d="M79.9 32.7H68.5v-2.1h8.9v-4.3h-8.9v-1.7h10.6v-4.8H68.5v-2H62v2H51.9v4.8H62v1.7h-8.9v4.3H62v2.1H51.2v5h28.7zM52.7 63.6h6.2v-7.1h13.2v.5c0 .9-.5 1.4-1.5 1.4l-5-.2 1.1 5.1H73c3.5 0 5.2-2 5.2-6V39.5H52.7v24.1zm6.2-19.2h13.2v2H58.9v-2zm0 5.9h13.2v2.1H58.9v-2.1zM50.2 63.1V45.5H35.9v18h5.6V61h3.2v2.1h5.5zm-8.8-6.8v-6h3.2v6h-3.2zM35.9 30.4h14.3v5.2H35.9zM51 22.9h-4.5c-.5-2-1.2-3.7-2-5.1l-6.6.6c1.1 1.8 1.8 3.3 2.1 4.5h-5.9v5.5h17v-5.5zM35.9 37.7h14.3v5.1H35.9zM88.5 18.1l-4 3.1c2.6 2.6 4.7 5.1 6.3 7.6l4.8-3.6c-2.4-2.9-4.7-5.2-7.1-7.1z"/>
		<path d="M91.7 58.3c3.1 2 6.5 3.3 10.3 3.7 3.7.5 9 .7 15.9.7 4 0 7.6-.1 10.9-.2l1.2-6-4 .2 2.4-3.9c-2.9-1.2-6.1-2.3-9.4-3.4h10.2v-4.5h-7.7v-3.2h6.7v-4.1h-6.7v-2.1h3.1c2.6 0 4-1.8 4.4-5.3l-4.3-1.3v.2c0 1.6-.4 2.4-1.2 2.4h-3.8c-.9 0-1.4-.5-1.4-1.4v-1.8h9.4v-9.6h-14.5v12.4c0 2.5.8 3.9 2.5 4.2v2.3h-6.5v-2.2c1.9-.1 3.1-1.8 3.5-5l-4.5-1.5c-.2 1.8-.6 2.7-1.3 2.7h-3.4c-.8 0-1.3-.5-1.3-1.4v-1.8h9.1v-9.6H97.1v12.4c0 2.9 1.3 4.4 3.8 4.4h2.5v2.1h-5.5v4.1h5.5V45h-6.6v4.5h9.4c-3.5 1.6-6.6 2.6-9.1 2.9l2.7 3.9c-.5 0-1.6-.3-3.3-.9-1.8-.6-2.6-1-2.6-1.2 1.5-3.6 2.6-8 3.3-13.2h-4.6c1.2-2.9 2.2-6.5 3-10.8H84.1v5.3H89c-.8 3.4-2.1 6.8-3.7 10.2h5.5c-.3 1.9-1.1 4.2-2.5 6.7s-2.9 4.4-4.7 5.8l4.2 5.4c1.4-1.3 2.7-3.1 3.9-5.3zm26.6-36.1h4.6V25h-4.6v-2.8zm-16 .3h4.2v2.6h-4.2v-2.6zm6.8 19.3h6.5V45h-6.5v-3.2zm1.2 11l-2.9-3.3h10.4l-2.5 3.3c4.1 1.8 6.8 3.2 8.4 4-5.5.3-9.9.4-13 .4-5.2 0-8.1-.2-8.7-.5 1.2 0 4-1.3 8.3-3.9zM179.1 51.5v-4.6h-6.3c.6-1 1-1.9 1.3-2.7h5.4v-4.7h-12.6v-2.1h10.8v-4.5h-10.8V31h11.6V18.7h-29.3V31h11.6v1.9h-10.9v4.5h10.9v2.1h-12.2v4.7h5c.6 1 1.1 1.9 1.4 2.7h-6.2v4.6h12v2.2h-11.4v4.6h11.4v5.4h6.1v-5.4h11.4v-4.6h-11.4v-2.2h12.2zm-9.2-28.4h3.1v3.7h-3.1v-3.7zm-12.3 3.7h-3.1v-3.7h3.1v3.7zm4.7-3.7h3v3.7h-3v-3.7zm4.2 23.8H161c-.4-1-.8-1.9-1.4-2.7h8.4c-.4 1-.9 1.8-1.5 2.7zM148.1 26.6h-3.7v-8.8h-5.9v8.8H134V32h4.5v9.2l-4.8 1.3.5 6.3 4.3-1.4v8.7c0 1-.6 1.6-1.7 1.6l-2.1-.2.9 5.8h3.1c2.4 0 4-.4 4.7-1.2.7-.7 1-2.3 1-4.6V45.2l3.2-1.2v-5.9l-3.2 1.3V32h3.7v-5.4z" fill="#fbd528"/>
		<path d="M238.3 52.3c0 3-.2 4.4-.5 4.4-.2 0-.3-.3-.3-1V43.9h-5.1v2.7c-1.2-1-2.5-2.1-4-3.1l-2 2.3v-1.9h-5.1v2.7c-1.2-1-2.5-2.1-4-3.1l-2 2.3v-1.9h-5.1v14.3l-2.1.2 1.3 4.6c3-.4 6.3-1.2 10.1-2.2l.8 2.3c4.3-.7 8.3-1.7 12.1-2.8v-4.6c-1.8.6-3.8 1.1-5.9 1.5v-4.3c1.2.8 2.4 1.8 3.6 3.2l2.4-2.7c.2 6.9 1.8 10.3 5 10.3 2.8 0 4.2-3.1 4.4-9.2l-3.6-2.2zm-17.1 5.4l-1.2.1-.1-1.8c-1 .4-2.6.8-4.8 1.3v-4.5c1.1.7 2.4 1.8 3.6 3.2l2.4-2.7v4.4zm0-5c-1.2-1-2.5-2.1-4-3.1l-2 2.3v-5.3c1.1.7 2.4 1.8 3.6 3.2l2.4-2.7v5.6zm7.1-3.2l-2 2.3v-5.2c1.1.7 2.4 1.8 3.6 3.2l2.4-2.7v5.4c-1-.9-2.4-1.9-4-3z" fill="#fff"/>
		<path d="M198.9 63.1c4.1 0 6.8-.9 8-2.6 1.2-1.8 1.8-5.9 1.8-12.4 0-9.6-.7-16.3-2.2-20.2 1.1-1.4 2-2.9 2.8-4.6 2.3 1.3 4.1 2.7 5.5 4h-4.7V43h29.5V27.4h-3.1L241 26c-1.8-1.3-3.6-2.3-5.5-3.1 1.6-.7 3.3-1.8 5.2-3.3l-5.6-1.8c-1.4 1.6-3.6 3.3-6.5 5 3 1.9 5.1 3.4 6.4 4.6h-8.4L231 26c-1.8-1.3-3.6-2.3-5.5-3.1 1.6-.7 3.3-1.8 5.2-3.3l-5.6-1.8c-1.4 1.6-3.6 3.3-6.5 5 3 1.9 5.1 3.4 6.4 4.6h-8.3L221 26c-1.8-1.3-3.6-2.3-5.4-3.1 1.6-.7 3.3-1.8 5.1-3.3l-5.6-1.8c-1.2 1.4-3 2.9-5.4 4.4l-4.2-2.8c-.4 1.3-.9 2.5-1.6 3.6-1.1-1.5-2.8-3-5.2-4.3l-3.3 3.6c2.2 1.5 3.8 3.1 4.9 4.8-1.4 1.5-3 2.7-4.8 3.7l2.9 5c1.7-1.1 3.1-2.3 4.1-3.7.4 1.4.6 2.7.7 4-2.2 4.1-4.8 7.4-7.7 9.9l3.2 5.3c1.8-1.8 3.6-4.1 5.2-6.8v.9c0 4.7-.2 7.8-.6 9.3-.4 1.5-1.3 2.2-2.6 2.2-1 0-2.3-.1-4-.3L198 63c0 .1.4.1.9.1zm21.7-24.2c2.2-.6 4-1.2 5.4-1.9.4 0 1.8.6 4.3 1.9h-9.7zm10.8-7.4h2.8v7.4h-2.6l2.3-2.5c-1-.5-2.3-1-3.9-1.6 1-.5 2-1.2 3.1-2.1l-1.7-1.2zm-2 0c-1 .8-2.2 1.4-3.4 2-2.9-1-5.1-1.6-6.6-2h10zm-13.8 0h3l-2.5 2.2c1.8.4 3.6.9 5.3 1.5-1.6.6-3.3.9-5.1 1.2l1.9 2.5h-2.6v-7.4zM271.8 19.1v5.5c0 4.6-1.3 8.1-3.8 10.3l5.1 3.8c2.8-2.6 4.2-7 4.2-13.2v-.8h3v7.8c0 3 1.6 4.6 4.9 4.6h5.2v-5.4H288c-1.4 0-2.1-.6-2.1-1.9V19.1h-14.1zM270.1 52c-2.3-2.3-4.5-4.1-6.7-5.5l-2 1.9v-4.1h7.3v-5.4h-2.3l2.3-2.1c-1.5-1.5-3-2.8-4.3-3.7l-2.8 2.4c1.7 1.7 2.8 2.8 3.2 3.5h-3.4v-5.4h-5.7V39H246v5.4h6.7c-1.1 3.2-3.5 6.4-7.3 9.4l3.3 5.9c1.3-1.1 2.7-2.8 4.2-5.2 1.5-2.4 2.5-4.3 2.8-5.7v14.9h5.7V51.2c1.4 1.3 2.9 3 4.5 5l4.2-4.2z" fill="#fff"/>
		<path d="M250.1 19.4l-3.4 3.3c3.7 1.7 6.4 2.9 8.1 3.8-2.2 1.9-5.2 3.6-9.2 4.9l3.7 4.9c3.9-1.6 7.4-4 10.5-7.2.1 0 1 .6 2.8 1.8 1.8 1.2 3.1 2.1 3.8 2.8l3.6-4.6c-1.1-.8-3.3-2-6.4-3.7 1.8-2.3 3.1-4.2 3.8-5.7l-5.3-1.8c-.9 1.8-2.1 3.6-3.6 5.3-2.9-1.7-5.8-2.9-8.4-3.8zM279.4 58.7c2.6 2.2 5.6 3.8 9 4.8l2.5-6c-2.6-.3-5.1-1.1-7.5-2.4 3.2-4.2 4.9-9.7 5-16.2h-18.5v5.6h4.1l-3.8 1.8c1.6 3.8 3.3 6.8 5 8.8-1.8 1.5-4.8 2.5-9 3l3.1 5.4c3.6-.9 7-2.5 10.1-4.8zm-4.3-14.3h6.7c-.4 3-1.3 5.4-2.7 7.1-1.6-1.9-2.9-4.3-4-7.1zM329.8 49.7c-.9-4.2-2.2-8.3-3.8-12.5l-5.1.9c1.5 4.5 2.6 8.8 3.2 12.9l5.7-1.3z" fill="#fff"/>
		<path d="M340.8 27.3h-3.7v-9.6h-6v9.6h-9.6v1.8H315v-2.5l3.8 2.2c1.3-1.9 2.4-4.6 3.5-8l-4.7-1.8c-.6 2.3-1.5 4.3-2.6 6v-7.4h-5.4V29h-1.9V17.8h-5.4v7.1c-.7-2-1.5-3.8-2.6-5.6l-4.6 1.9c1.3 2.4 2.4 4.9 3.2 7.6l4-1.8v2.1h-6.9v5.5h3.8c.6.9 1.2 2.4 1.8 4.3h-4.7v5.4h9.2v3.1h-8.3v5h8.3v4.1c-4.1.3-7.5.4-10.4.4l.9 6.1c10.4-.6 18.8-1.6 25.2-2.8v-5.7c-2.8.6-6 1-9.7 1.4v-3.5h8.1v-5h-8.1v-3.1h9V39h-4.8c.9-1.6 1.6-3 2-4.3h3.7V33h9.6v22.1c0 1.1-.5 1.6-1.6 1.6l-5.5-.3 1.2 6.2h6.3c2.3 0 3.8-.4 4.5-1.3.7-.8 1-2.4 1-4.7V33.1h3.7v-5.8zm-30.6 11.6h-3.5c-.5-1.5-1.2-2.9-1.9-4.2h7.5c-.5 1.4-1.2 2.8-2.1 4.2zM386.7 61l4.2-5.3c-2.5-1.4-4.6-3-6.2-4.9-1.6-1.8-2.4-3.1-2.4-3.7 2.2-.9 4.4-1.9 6.7-3.2l-4.5-4.2c-3 2.1-7.1 3.8-12 5.1-.6-1.3-1.7-2.7-3.1-4.2l1.4-.9h16.9V27.5h-11.2l4.8-3.6v-3.3h-16.7l1.7-1.9-5.8-1.1c-3.1 3.4-8.3 6.4-15.7 9l3.3 5.3 2.2-1v8.9H362c-5.4 1.4-10.6 2.3-15.7 2.5l2.8 5.1c5.9-.9 11.1-2.4 15.6-4.3l.6 1c-4.6 2.5-11.1 4.3-19.6 5.4l2.6 5.2c8.4-1.8 14.9-4.2 19.4-7.1l.6 1.4c-7.3 4.1-15.2 6.7-23.7 7.9l2.5 5.3c5.3-1.3 10.1-2.9 14.4-4.6 2.9-1.2 5.5-2.4 7.9-3.8v.2c0 1.8-.2 2.9-.6 3.3-.4.4-1.4.5-2.9.5-1.8 0-3.2-.1-4.4-.2l1.8 5.9c.5.1 1.2.1 2 .1 4 0 6.6-.7 7.9-2 1.3-1.4 2-3.7 2-6.9 0-1.9-.3-3.5-.8-4.8l2.8-.7c2.4 5.2 5.5 9.3 9.5 11.8zm-5.1-28.7v2.6H372v-2.6h9.6zm-15.7 2.6h-9.6v-2.6h9.6v2.6zm-9.9-7.4l3.3-2.3H372l-3.7 2.3H356z" fill="#fff"/>
	</symbol>
	<symbol id="target" viewBox="0 0 76 76">
		<path d="M41.1 3v14.3c9.4 1.4 16.7 8.9 17.9 18.3h13.9v5.2H59c-1.1 9.5-8.4 17-17.9 18.4V73H36V59.4c-9.9-.9-17.8-8.6-19-18.5H3.1v-5.2H17c1.2-9.9 9.1-17.5 19-18.5V3h5.1M20 35.7h9c1-3.3 3.7-5.9 7-6.6v-8.9c-8.2.9-14.8 7.3-16 15.5m27 0h9c-1.1-7.8-7.1-13.9-14.8-15.3v9c2.8 1 5 3.4 5.8 6.3m-14.8 0h1.7v5.2h-1.7c.7 1.7 2.1 2.9 3.8 3.5v-2.1h5.2v1.6c1.2-.7 2.2-1.7 2.7-3h-1.7v-5.2h1.7c-.6-1.3-1.5-2.3-2.7-3v1H36v-1.5c-1.7.6-3.1 1.9-3.8 3.5m8.9 20.5c7.7-1.4 13.7-7.6 14.8-15.3H47c-.8 2.9-3.1 5.3-5.9 6.3v9m-5.1.1v-8.9c-3.4-.7-6.1-3.3-7-6.6h-9c1.2 8.2 7.8 14.6 16 15.5M41.1 0H36c-1.7 0-3 1.3-3 3v11.6c-4.4.9-8.6 3.1-11.8 6.3-3.3 3.2-5.6 7.3-6.7 11.7H3.1c-1.7 0-3 1.3-3 3v5.2c0 1.7 1.3 3 3 3h11.4c1.1 4.4 3.4 8.5 6.7 11.8 3.3 3.2 7.4 5.4 11.9 6.3v11c0 1.7 1.3 3 3 3h5.2c1.7 0 3-1.3 3-3V61.7c4.3-1.1 8.1-3.3 11.2-6.5 3.1-3.2 5.2-7 6.2-11.3h11.4c1.7 0 3-1.3 3-3v-5.2c0-1.7-1.3-3-3-3H61.5c-1-4.3-3.1-8.1-6.2-11.3-3.1-3.2-6.9-5.4-11.2-6.5V3c.1-1.7-1.3-3-3-3zM23.9 32.7c1.6-4.1 4.9-7.2 9.1-8.7v2.9c-2.6 1.2-4.8 3.2-6.1 5.8h-3zm20.3-5.2v-3.1c3.6 1.6 6.5 4.6 7.9 8.2h-3c-1.1-2.1-2.8-3.9-4.9-5.1zm-7.4 9.3h2.3v2.5h-2.3v-2.5zm12.3 7.1h3c-1.5 3.7-4.3 6.7-7.9 8.3v-3.1c2.1-1.2 3.8-3.1 4.9-5.2zm-25.2 0h3c1.3 2.6 3.4 4.6 6.1 5.8v2.9c-4.2-1.5-7.5-4.7-9.1-8.7z" fill="#fff"/>
		<path d="M16.3 36l-.2 1.4h4.3l.1-1.1c1-8.3 7.7-14.7 15.9-15.4l1.2-.1v-4.3l-1.4.1c-10.4.7-18.8 8.9-19.9 19.4zM20.6 40.3l-.1-1.1h-4.3l.1 1.4c1.1 10.5 9.5 18.7 20 19.5l1.4.1v-4.3l-1.2-.1c-8.3-.7-15-7.2-15.9-15.5zM55.4 36.3l.1 1.1h4.3l-.1-1.4c-1.1-10-8.8-18-18.8-19.3l-1.5-.2v4.3l1.1.2c7.9 1.1 14 7.4 14.9 15.3zM55.4 40.3c-.9 7.9-7 14.2-14.9 15.3l-1.1.2v4.3l1.5-.2c10-1.3 17.8-9.3 18.8-19.4l.1-1.4h-4.3l-.1 1.2zM32.5 40l-.3-.9h-4.4l.4 1.6c1 3.8 4.1 6.7 7.9 7.4l1.5.3v-4.3l-1-.2c-1.9-.5-3.5-1.9-4.1-3.9zM28.3 35.8l-.4 1.6h4.4l.3-.9c.6-1.9 2.2-3.4 4.2-3.8l1-.2v-4.3l-1.5.3c-4 .6-7.1 3.5-8 7.3zM43.5 36.5l.3.9h4.4l-.4-1.6c-.8-3.3-3.4-6-6.6-7.1l-1.7-.6v4.5l.8.3c1.5.7 2.7 2 3.2 3.6zM47.8 40.7l.4-1.6h-4.4l-.3.9c-.5 1.6-1.7 2.9-3.3 3.6l-.8.3v4.5l1.7-.6c3.3-1 5.8-3.7 6.7-7.1z" fill="#191a17"/>
		<path fill="#e7081a" d="M36 3h5.2v30.8H36zM36 42.2h5.2V73H36zM42.2 35.7H73v5.2H42.2zM3.1 35.7h30.8v5.2H3.1z"/>
	</symbol>
	<symbol id="txt-hunt" viewBox="0 0 164 44">
		<path d="M34.5 35.9c-1.7.6-3.5 1-5.5 1.4v-4c1.1.7 2.2 1.7 3.4 2.9l2.3-2.5c.2 6.4 1.7 9.6 4.6 9.6 2.6 0 3.9-2.9 4.1-8.6l-3.3-1.8c0 2.7-.2 4.1-.5 4.1-.2 0-.3-.3-.3-1V25h-4.7v2.5c-1.1-1-2.4-1.9-3.8-2.9l-1.9 2.2V25h-4.8v2.5c-1.1-1-2.3-1.9-3.8-2.9l-1.9 2.2V25h-4.7v13.3l-2 .2 1.2 4.3c2.7-.4 5.9-1.1 9.4-2l.7 2.1c4-.7 7.7-1.5 11.2-2.6v-4.4zm-21.4-30c2.1 1.2 3.8 2.5 5.2 3.8H14v14.5h27.5V9.6h-2.9l4.1-1.3c-1.7-1.2-3.4-2.1-5.1-2.9 1.4-.7 3-1.7 4.8-3L37.1.7c-1.3 1.5-3.3 3-6.1 4.6 2.8 1.8 4.8 3.2 5.9 4.3h-7.8l4.1-1.3c-1.7-1.2-3.4-2.1-5.1-2.9 1.5-.7 3.1-1.7 4.8-3L27.6.7c-1.3 1.5-3.3 3-6.1 4.6 2.8 1.8 4.8 3.2 5.9 4.3h-7.7L24 8.3c-1.7-1.2-3.4-2.1-5.1-2.9 1.4-.7 3-1.7 4.8-3L18.4.7c-1.1 1.3-2.8 2.7-5.1 4.1L9.4 2.1C9 3.4 8.5 4.5 7.9 5.5c-1-1.4-2.6-2.7-4.8-4L0 4.9c2.1 1.4 3.6 2.9 4.5 4.5-1.3 1.4-2.8 2.6-4.4 3.5l2.7 4.6c1.6-1 2.9-2.1 3.8-3.4.4 1.3.6 2.5.6 3.7-2 3.8-4.4 6.8-7.2 9.2l3 4.9c1.7-1.7 3.3-3.8 4.8-6.3v.8c0 4.4-.2 7.3-.5 8.6-.4 1.4-1.2 2.1-2.4 2.1-.9 0-2.2-.1-3.8-.3l1.2 6h1.2c3.8 0 6.3-.8 7.5-2.4 1.1-1.7 1.7-5.5 1.7-11.5 0-8.9-.7-15.2-2.1-18.8.9-1.3 1.8-2.7 2.5-4.2zm10.5 14.4c2-.5 3.7-1.1 5-1.8.4 0 1.7.6 4 1.8h-9zm-4.6 0v-6.9h2.8l-2.3 2.1c1.7.4 3.3.9 4.9 1.4-1.4.5-3 .9-4.8 1.1l1.8 2.4H19zm-.4 13c1.1.7 2.2 1.7 3.4 3l2.2-2.5v4.1l-1.1.1-.1-1.7c-.9.4-2.4.8-4.4 1.2v-4.2zm0-5.7c1.1.7 2.2 1.7 3.4 3l2.2-2.5v5.1c-1.1-1-2.3-1.9-3.8-2.9l-1.9 2.2v-4.9zm12.2 2.6l-1.9 2.2v-4.8c1.1.7 2.2 1.7 3.4 3l2.2-2.5v5c-.9-.9-2.2-1.9-3.7-2.9zm-2.1-14.9c-2.7-.9-4.8-1.5-6.2-1.9h9.3c-.9.7-2 1.4-3.1 1.9zm5.2 5L36 18c-.9-.4-2.1-.9-3.6-1.4.9-.5 1.9-1.1 2.9-1.9l-1.6-1.2h2.6v6.9h-2.4zM51.1 2.2L48 5.3c3.5 1.5 6 2.7 7.5 3.6-2 1.8-4.9 3.3-8.6 4.6l3.5 4.6c3.6-1.4 6.9-3.7 9.8-6.7.1 0 1 .5 2.6 1.6 1.7 1.1 2.9 1.9 3.6 2.6l3.4-4.3c-1.1-.7-3-1.9-6-3.4 1.7-2.1 2.9-3.9 3.6-5.3L62.5.9c-.9 1.5-2 3.1-3.5 4.7-2.8-1.5-5.5-2.6-7.9-3.4zm17.2 16.2c-1.4-1.4-2.7-2.6-4-3.5l-2.6 2.2c1.6 1.6 2.6 2.6 2.9 3.2h-3.1v-5h-5.3v5h-9v5h6.2c-1 3-3.3 5.9-6.8 8.8l3 5.5c1.2-1 2.5-2.6 3.9-4.8 1.4-2.2 2.3-4 2.6-5.3v13.9h5.3V31.8c1.3 1.2 2.7 2.8 4.2 4.7l3.9-3.9c-2.1-2.1-4.2-3.8-6.2-5.2l-1.9 1.8v-3.8h6.8v-5H66l2.3-2zm-.6-1.8l4.7 3.6c2.6-2.4 3.9-6.5 3.9-12.3v-.8h2.8v7.2c0 2.8 1.5 4.3 4.6 4.3h4.8v-5.1h-2.3c-1.3 0-1.9-.6-1.9-1.8V1.9h-13V7c0 4.4-1.2 7.5-3.6 9.6zM69 43.2c3.4-.8 6.5-2.2 9.4-4.4 2.4 2.1 5.2 3.5 8.4 4.4l2.4-5.6c-2.4-.3-4.7-1.1-7-2.3 3-4 4.5-9 4.6-15.1H69.5v5.3h3.8l-3.5 1.6c1.5 3.6 3 6.3 4.6 8.2-1.7 1.4-4.5 2.3-8.4 2.8l3 5.1zm11.6-17.7c-.4 2.8-1.2 5-2.5 6.7-1.4-1.8-2.6-4.1-3.7-6.7h6.2zM95.1 25.6c1.3-1.8 2.3-3.4 2.9-4.8v22.5h5.5V12.4c1.1-2.8 2.1-5.9 3.1-9.2L101.3.9c-.5 2.6-1.6 5.7-3.2 9.4s-3.4 6.5-5.3 8.6l2.3 6.7zm38 1.8c.8-1.3 1.2-8 1.2-20l-10.4 2.8V.9h-5.6v10.9l-3.8 1V4.9h-5.9v9.5l-3.9 1 .4 5.5 3.6-.9v16.1c0 2.4.5 4 1.4 4.9.9.9 2.6 1.4 5 1.4H129c2.3 0 3.9-.6 4.8-1.8.8-1.2 1.4-4.1 1.8-8.6l-6.1-2c0 1.8-.1 3.4-.3 4.8-.2 1.4-.9 2-2.1 2h-10.4c-1.6 0-2.4-.7-2.4-2V18.4l3.8-1v15.4h5.6V16l5-1.4v.8c0 2.7-.1 4.7-.2 6.2s-.7 2.3-1.6 2.3c-.8 0-1.6-.1-2.4-.2l.7 5.7h1.2c3.7 0 5.9-.7 6.7-2zM164 1.2h-7.2l.8 27.7h5.7l.7-27.7zm0 39.2V33h-6.8v7.3h6.8z" fill="#fff"/>
	</symbol>
	<!-- <symbol id="" viewBox="0 0 ">
	</symbol> -->
</svg>