<svg version="1.1" xmlns="http://www.w3.org/2000/svg" xmlns:xlink="http://www.w3.org/1999/xlink">
	<symbol id="gym-title" viewBox="0 0 428 120">
		<path d="M416.7 24.8c-7.9-9-19.2-14.2-31.1-14.2H47.5C26 10.7 7.8 26.1 5.1 46.5c-1.6 11.8 2 23.8 9.9 32.7 7.9 9 19.2 14.2 31.1 14.2h338.1c21.5 0 39.7-15.4 42.4-35.8 1.5-11.9-2.1-23.8-9.9-32.8z"/>
		<path d="M381.9 3H43.8C24.3 3 6.9 16.9 4.4 36.2c-3.1 23.4 15.2 43.5 38 43.5h135.9c11.9 2.4 41.9 8.7 42.2 37.3l.8-29.1c.1-4.6 3.9-8.3 8.5-8.3h150.7c19.5 0 36.9-13.9 39.5-33.2C423.1 23.1 404.7 3 381.9 3z" fill="#fff"/>
		<path d="M220.5 120c-1.6 0-2.9-1.3-3-2.9-.2-23.3-21.2-30.6-39.6-34.4H42.4c-11.9 0-23.2-5.2-31.1-14.2S-.2 47.6 1.4 35.8C4.1 15.4 22.4 0 43.8 0h338.1c11.9 0 23.2 5.2 31.1 14.2s11.5 20.9 9.9 32.7c-2.7 20.4-20.9 35.8-42.4 35.8H229.8c-3 0-5.5 2.4-5.5 5.4l-.8 29.1c-.1 1.5-1.4 2.8-3 2.8zM43.8 5.9C25.3 5.9 9.6 19.1 7.3 36.6 5.9 46.7 9 57 15.8 64.6c6.8 7.7 16.5 12.1 26.6 12.1h135.9c.2 0 .4 0 .6.1 9.1 1.9 29.4 6 39.2 21.1l.3-10c.2-6.2 5.2-11.1 11.4-11.1h150.7c18.5 0 34.2-13.2 36.6-30.7 1.3-10.2-1.7-20.4-8.5-28.1S392.1 5.9 382 5.9H43.8z"/>
		<path d="M97.7 65.6c-1.1 0-2-.9-2-2V51.5c-.5.5-1.1 1-1.6 1.5-.4.3-.8.5-1.3.5h-.4c-.6-.1-1.1-.5-1.4-1.1L87.7 46c-.5-.9-.1-2.1.8-2.6 2-1.2 4.4-3.3 6.9-6.2 1.5-1.7 2.6-3.2 3.4-4.6h-8.2c-1.1 0-2-.9-2-2v-5.1c0-1.1.9-2 2-2h3.9c-.5-1.3-1-2.7-1.7-4.1-.3-.6-.3-1.2 0-1.8.3-.6.8-.9 1.5-1l5.8-.8h.3c.8 0 1.5.4 1.8 1.2 1 2.3 1.9 4.5 2.5 6.6h3.9c1.1 0 2 .9 2 2v3.3h5.7V17.6c0-1.1.9-2 2-2h6.9c1.1 0 2 .9 2 2v11.2h6.5c1.1 0 2 .9 2 2v6.3c0 1.1-.9 2-2 2h-6.5v15h7.9c1.1 0 2 .9 2 2v6.2c0 1.1-.9 2-2 2H108c-1.1 0-2-.9-2-2v-6.2c0-1.1.9-2 2-2h8.3v-15H111c.6.5 1.2 1 1.7 1.4.7.6.9 1.7.4 2.6l-3.4 5.4c-.3.5-.9.9-1.5.9h-.2c-.6 0-1.1-.2-1.5-.7-.2-.3-.5-.5-.8-.8v15.8c0 1.1-.9 2-2 2h-6zm10.2-28.8v-.2.2c0-.1 0 0 0 0zM174.7 65.6c-1 0-1.9-.8-2-1.8H152c-.1 1-1 1.8-2 1.8h-6.7c-1.1 0-2-.9-2-2V44h-.3c-1 0-1.8-.7-2-1.6l-1-5.6c-.1-.6.1-1.2.4-1.7.4-.4.9-.7 1.5-.7h2.2c-.1-.2-.2-.4-.2-.6l-.6-4.8c0-.3 0-.6.1-.9h-1.5c-1.1 0-2-.9-2-2V21c0-1.1.9-2 2-2h13.6c-.3-.5-.4-1.1-.2-1.7.2-.8.9-1.3 1.8-1.4l7.2-.5h.1c.5 0 1 .2 1.4.5 1.2 1.1 2.2 2.1 2.9 2.9h17.6c1.1 0 2 .9 2 2V26c0 1.1-.9 2-2 2h-5.1v.2c0 .7-.4 1.3-1 1.7l-.6.3c3.4 2.8 6.5 6 9.4 9.3.4.5.6 1 .5 1.6-.1.6-.5 1.1-1 1.4l-3.1 1.8v19.1c0 1.1-.9 2-2 2h-6.7z" fill="#fbd528"/>
		<path d="M170.2 26.2h-12l-4 3h10.3c2.1-.8 4-1.8 5.7-3zM150 47.3h9v2.9h-9zM165.5 47.3h9.3v2.9h-9.3zM165.5 53.9h9.3v3.4h-9.3zM150 53.9h9v3.4h-9zM225.2 31.8h3.3v2.6h-3.3zM225.2 24.8h3.3v2.3h-3.3zM269.2 45.4c.7 1.2 2.1 2.8 4.1 4.5 2.1-1.5 3.7-3 4.9-4.5h-9zM249.3 33.8h13.4V32h-11.4v-4.6h11.4v-1.7h-13.4zM268.7 38.7h7.7v2.1h-7.7zM268.7 32h7.7v1.9h-7.7zM247.1 55.9zM309.5 35.8h3.2V40h-3.2zM312.4 23.1h12.7v2.7h-12.7zM324.8 35.8h3.6V40h-3.6z"/>
		<path d="M339.2 54.8c-.3-.5-.6-1-1.1-1.4.5-.7.8-1.5.8-2.4v-4.8c0-1.3-.6-2.4-1.6-3.2V31.7c0-1.6-.9-2.9-2.2-3.6v-9.4c0-2.2-1.8-4-4-4h-24.8c-1 0-1.9.4-2.6 1-.7-1.2-2-2-3.5-2h-6c-2.2 0-4 1.8-4 4v4.8h-1.1v-2.2c0-2.2-1.8-4-4-4h-14.5c-.1-.3-.3-.5-.5-.8-.7-1.2-2-2-3.4-2h-.3l-6.9.5c-1.4.1-2.7 1-3.3 2.2H243c-2.2 0-4 1.8-4 4v5.5c-.3-1-1-1.8-1.8-2.3V20c0-2.2-1.8-4-4-4h-4.3c-.6-1.5-2-2.6-3.7-2.6h-5.6c-1.7 0-3.2 1.1-3.7 2.6h-1.7c-1.1 0-2.1.5-2.9 1.2h-5.5c-.5-.9-1.3-1.6-2.4-1.9L198 14c-.4-.1-.7-.2-1.1-.2-.7 0-1.4.2-2.1.6-1 .6-1.6 1.5-1.9 2.6-1.5 7.2-3.9 13.1-7.1 17.6-.1.1-.2.3-.3.4-1.6-1.6-3.2-3.2-4.8-4.7 0 0 .1-.1.1-.2h3.6c2.2 0 4-1.8 4-4V21c0-2.2-1.8-4-4-4h-16.8l-2.4-2.4c-.7-.7-1.7-1.1-2.7-1.1h-.3l-7.2.5c-1.6.1-3.1 1.2-3.5 2.8 0 .1-.1.2-.1.3H140c-2.2 0-4 1.8-4 4v5.1c0 .5.1.9.3 1.4-.7-.5-1.4-.7-2.3-.7h-4.5v-9.2c0-2.2-1.8-4-4-4h-6.9c-2.2 0-4 1.8-4 4v9.2h-1.7v-1.3c0-2.2-1.8-4-4-4h-2.4c-.6-1.8-1.3-3.6-2.2-5.4-.7-1.4-2.1-2.3-3.6-2.3h-.6l-5.8.8c-1.3.2-2.4.9-3 2.1-.6 1.1-.6 2.5-.1 3.6l.6 1.2h-1c-2.2 0-4 1.8-4 4v5.1c0 2.2 1.8 4 4 4h4.3c-.3.4-.7.8-1.1 1.3-2.4 2.8-4.6 4.7-6.5 5.8-1.8 1.1-2.5 3.4-1.5 5.3l3.3 6.4c.6 1.1 1.6 1.9 2.8 2.1.2 0 .5.1.7.1.3 0 .7 0 1-.1v8.2c0 2.2 1.8 4 4 4h6.2c1.3 0 2.4-.6 3.1-1.5.4.1.7.2 1.1.2h27.1c2.2 0 4-1.8 4-4v-6.2c0-2.2-1.8-4-4-4h-5.9v-11h4.5c1 0 1.9-.4 2.7-1l.5 2.7c.2 1.3 1.1 2.4 2.3 2.9v18c0 2.2 1.8 4 4 4h6.7c1.4 0 2.6-.7 3.3-1.8h18c.7 1.1 1.9 1.8 3.3 1.8h6.7c2.2 0 4-1.8 4-4V45.7l1.9-1.1.1.4c.4 1.1 1.2 2 2.2 2.4v16.2c0 2.2 1.8 4 4 4h5.7c.6 0 1.2-.1 1.8-.4.4.2.8.3 1.2.4h.5c1 0 1.9-.4 2.7-1 1.2-1.1 2.3-2.2 3.3-3.5 4.5 2.5 11.3 3.7 20.5 3.7h5c1.9 0 3.5-1.4 3.8-3.3l3.3 3.1c.7.7 1.7 1.1 2.7 1.1.2 0 .5 0 .7-.1 1.3-.2 2.3-1.1 2.9-2.2.1-.1.1-.3.2-.4.4.2.9.3 1.4.3.5 0 1-.1 1.5-.3 1.3-.5 2.6-1.1 3.9-1.6l.1.6c.3 2 2 3.4 4 3.4h4.9c4.4 0 7.5-2.3 8.5-6.2.5.4 1.1.7 1.6 1.1 5 3.1 7.1 3.7 8.7 3.7 1.4 0 2.8-.8 3.5-2l1.1-2 .3 1.9c.3 2 2 3.4 4 3.4h3.3c2.2 0 5.4-.2 7.4-2.3.7.6 1.7 1 2.6 1 .5 0 1-.1 1.5-.3 2.1-.8 3.9-1.8 5.5-2.9v1c0 2.2 1.8 4 4 4h6.1c2.2 0 4-1.8 4-4v-1c1.7 1.2 3.7 2.2 5.9 3 .4.2.9.2 1.4.2 1.5 0 2.9-.8 3.6-2.3l2.6-5.3c.5-1.2.5-2.5-.1-3.6zM103.8 43v20.7h-6.2V46.3c-.8 1.3-2.5 3.1-5 5.3l-3.3-6.4c2.2-1.3 4.7-3.5 7.4-6.6 2.7-3.1 4.4-5.7 4.9-7.9h-11v-5.1h6.6c-.6-2.3-1.4-4.6-2.5-6.9l5.8-.8c1.2 2.7 2.2 5.3 2.8 7.8h5.4v4.2c-.8 2.7-2 5.3-3.5 7.7 2.3 1.4 4.4 3 6.3 4.6l-3.4 5.4c-1.2-1.6-2.6-3-4.3-4.6zm4 9.1v-.7h.5c1.2-.1 2.4-.8 3-1.9l2.9-4.6v7.2h-6.3-.1zm26.1-15h-8.5v19h9.9v6.2h-27.1v-6.2h10.3v-19h-8.4v-6.3h8.4V17.6h6.9v13.2h8.5v6.3zm4-4.1v-2.2c0-.5-.1-1-.3-1.4.5.4 1.2.6 1.8.7l.3 2.2c-.6.1-1.3.3-1.8.7zm43.6 10.4v20.2h-6.7v-1.8H150v1.8h-6.7V42.8h36.3l-1.6-2.1c-12.2.6-24.5 1.1-37.1 1.4l-1-5.6 8.3.1c3.6-1.1 6.7-2.2 9.2-3.4-3.9.3-7.9.4-12 .4h-1.5l-.6-4.8 4.2.1 3.1-2.7H140v-5.1h18.5c-1.2-1.3-2.2-2.3-3.2-3.1l7.2-.5c1.5 1.4 2.6 2.5 3.4 3.5h18.6v5.2h-10.4l3.3 2.1c-5.8 3.4-12.1 6.2-18.7 8.3l8.3-.1c1.9 0 4.4-.1 7.4-.2-1.2-1.2-2.3-2.2-3.2-3l5.1-1.5c3.4 2.8 6.5 5.9 9.4 9.3l-4.2 2.3zm17.9 20.2h-5.7V39.2c-.7 1.9-1.5 3.4-2.4 4.5l-2.3-6.8c3.6-4.9 6.2-11.3 7.8-19.1l5.3 1.6c-.7 3.5-1.6 6.9-2.7 10.4v33.8zm35.8-6.2c-.1.4-.2.9-.2 1.3l-.6 4h-4.9c-11.2 0-18.3-1.8-21.4-5.5-1.2 2.3-2.9 4.4-5 6.3l-3.4-5.1c2.2-1.6 3.8-3.3 4.7-5.2-1.4-2.1-2.8-5.1-4.1-9.1l4.3-1.9c.7 2.2 1.4 4.1 2.1 5.6.6-2.2.9-4.6.9-7.2h-6v-5.1c2.1-3 3.6-6 4.8-9H202v-5.1h10.8v3.8c-1.5 3.9-3.1 7.3-4.8 10.3h4.8v2.9c-.1 5.3-.8 10.1-2.2 14.3 0 .6 1.3 1.5 3.8 2.7 2.5 1.2 6.8 1.8 12.8 1.8 3 0 5.7-.1 8.3-.3l-.3.5zm0-25.6h-2v7.1h-8.1v2.2h8.6v4.5h-8.6V48h9.6v4.7h-9.6v3.7h-5.6v-3.7h-7.4V48h7.4v-2.3h-6v-4.5h6V39H214v-4.5h5.5v-2.6h-7.3v-4.7h7.3v-2.3H214v-4.5h5.5v-2.6h5.6v2.6h8.1v6.8h2v4.6zm71.2-13.1h24.8v11.5h-24.8V18.7zM289.2 36h1.1v1.6l-1.1.3V36zm-51 10c-.1-.2-.3-.4-.4-.6v-4.3c0-.8-.2-1.5-.6-2.1V35.2c.9-.5 1.5-1.3 1.8-2.3 0 5-.2 9.3-.8 13.1zm44.4 15.9c-1 0-3.2-1-6.6-3.1-3.4-2.1-5.9-4.4-7.3-6.9V58c0 3.6-1.6 5.5-4.9 5.5h-4.9l-.9-6 3.5.2h.2c.7 0 1-.4 1-1.3V45.5h-12V41h12v-2.1h-13.5c-.2 6.5-.9 12.1-2.2 17.1 3.3-.9 6.4-2 9.1-3.4-2-.9-4.3-1.8-7.1-2.7l1.9-4.2c2.6.5 5.3 1.2 8.2 2.1l-1.7 4c1.1-.5 2.1-1.2 3-1.9l1.8 4.8c-3.4 2.4-7.6 4.6-12.7 6.6l-2.4-5.3c-.7 2.8-1.7 5.4-2.8 7.8l-5.3-4.9v-.3c2.7-6 4-14.6 4-25.8V20.3h18.3c-.4-.7-.9-1.5-1.4-2.2l6.9-.5c.8 1.4 1.3 2.3 1.4 2.8h17v5.4h-16.6v1.8H282V34h3.1v4.9H282v6.7h-2.6l4.2 2.7c-1.8 1.9-3.9 3.6-6.3 4.9 2.4 1.5 5.1 2.7 8.1 3.6l-2.8 5.1zm7.8-8.6c-.7 0-1.3.3-1.9.6-.5-.5-1.1-.9-1.7-1.1-.5-.2-1-.3-1.5-.5.5-.5 1-.9 1.4-1.4 0 0 0-.1.1-.1.3.4.6.8 1.1 1 .7.4 1.4.6 2.2.6h.5v.9zm9.9 4.2c0 2.3-.3 3.8-1 4.5-.7.8-2.2 1.2-4.6 1.2h-3.3l-.9-5.9 2.1.2c1.1 0 1.7-.5 1.7-1.6v-9.1l-4.5 1.6-.6-6.3 5.1-1.4v-8.6h-4.9v-5.6h4.9v-8.8h6v8.8h3.6v5.6h-3.6v7l3.1-1.1v5.9l-3.1 1.2v12.4zm32.7 4.3c-5.6-2-9.3-5.5-11.2-10.5v12.4h-6.1V51.4c-1.7 4.7-5.4 8.2-11 10.4l-3.1-5.4c4.4-1 7.4-2.8 9-5.4H303v-4.8h12.8v-2.1h-11.3V31.7h13.3v11.6h2.1V31.7h13.5v12.4h-11.6v2.1h13.1V51h-8.1c1.5 2.7 4.4 4.5 8.7 5.5l-2.5 5.3z"/>
	</symbol>
	<symbol id="icon-gym" viewBox="0 0 84 84">
		<path d="M83.3 17.1c0-5.2-4.2-9.4-9.4-9.4-2.6 0-5 1.1-6.8 2.9l-6.7-8.2C59.2.9 57.4.1 55.5.1c-2.1 0-4.1 1.1-5.3 2.8L42.8 14c-1.3 1.9-1.4 4.3-.4 6.3-1.8 1.1-3.3 2.6-4.3 4.5-.2.3-.3.6-.4.8v.1l-.5.5-2.2-2.9-5.4-6.6c-1.2-1.5-3.1-2.4-5.1-2.4-2.2 0-4.2 1.1-5.5 2.9l-8 12.1c-1.4 2.1-1.4 4.7-.3 6.8C7.3 38 5 41.4 4.5 45.4L.7 75.7c-.3 2.1.4 4.2 1.8 5.8C3.9 83.1 6 84 8.1 84c3.7 0 6.9-2.8 7.3-6.5l2.2-16.3 5.3 17.5c.9 3.1 3.8 5.3 7.1 5.3.8 0 1.5-.1 2.2-.3 3.4-1.1 5.4-4.4 5.1-7.8 3.2-.6 5.5-3.5 5.3-6.9l-.3-4.3c2.7-.8 4.8-3.1 5.1-6l1.8-13.6 4.4 14.7c.9 3 3.7 5.1 6.8 5.1.7 0 1.5-.1 2.2-.3 3.2-1 5.1-4.1 4.9-7.3 1.3-.3 2.4-1 3.3-2 1.1-1.3 1.7-2.9 1.6-4.6l-.7-10.2 2.6-10.8c.3-1.1.3-2.2.2-3.2 4.9-.4 8.8-4.4 8.8-9.4z"/>
		<path d="M57.3 4.9c-1-1.2-2.9-1.1-3.8.2l-7.4 11.1c-.7 1.1-.4 2.5.7 3.3 1.1.7 2.5.4 3.3-.7l5.6-8.5 4.7 5.8s-9.2 4.4-15.4 7.3c-2.4 1.1-4 3.4-4.4 6l-3.5 27.9c-.2 1.9 1.2 3.5 3.1 3.5 1.6 0 2.9-1.2 3.1-2.8L47 30.6l3.2 4.1 7.2 23.8c.5 1.7 2.3 2.6 4 2.1 1.6-.5 2.5-2.3 2-4l-6.9-23 8.9-4.5L63 39.3c-.1.2-.1.5-.1.7l.8 11.1c.1 1.3 1.2 2.3 2.5 2.2 1.3-.1 2.3-1.2 2.2-2.5L67.7 40l2.7-11.3c.3-1.1.1-2.3-.3-3.4L64.8 14l-7.5-9.1z" fill="#ffe3b6"/>
		<path d="M47.1 30.7l3.2 4.1c.4 1.2 2.1 6.9 2.4 7.9l6.2-1.1-2.4-7.9-11.4-10.3c-2.4 1.1-4 3.4-4.4 6l-1.5 12.2 6.4 1c.5-3.8 1.1-8.4 1.5-11.9z" fill="#aa321e"/>
		<path d="M56.6 33.8l8.9-4.5-1.5 6.5 4.7.8c.2-.8 1.5-6.5 1.9-7.8.3-1.1.1-2.3-.3-3.4L69 23c-1.7.9-3.6-.4-3.7-2.3 0-1 .6-1.9 1.5-2.3l-2-4.3-4.8-6-3.2 3.5 3.7 4.5s-9.2 4.4-15.4 7.3l11.5 10.4z" fill="#ff3c3c"/>
		<circle cx="73.9" cy="17.1" r="5.4" fill="#ffe3b6"/>
		<path d="M26.5 19.3c-1.1-1.3-3.2-1.2-4.1.2l-8 12.1c-.8 1.2-.5 2.8.7 3.5 1.2.8 2.8.5 3.5-.7l6.1-9.2 5.1 6.3s-10 4.8-16.7 7.9c-2.6 1.2-4.4 3.7-4.7 6.5L4.7 76.2C4.5 78.2 6 80 8.1 80c1.7 0 3.2-1.3 3.4-3l4-29.7 3.5 4.5 7.8 25.8c.5 1.8 2.5 2.8 4.3 2.3 1.8-.6 2.7-2.5 2.2-4.3l-7.5-24.9 9.7-4.9-2.6 11c-.1.2-.1.5-.1.8l.8 12.1c.1 1.4 1.3 2.5 2.7 2.4 1.4-.1 2.5-1.3 2.4-2.7l-.8-11.7 2.9-12.3c.3-1.2.2-2.5-.4-3.7l-5.8-12.4-8.1-10z" fill="#ffb69e"/>
		<path d="M15.4 47.3l3.5 4.5c.4 1.3 2.2 7.5 2.6 8.5l6.7-1.2-2.6-8.5-12.4-11.3c-2.6 1.2-4.4 3.7-4.7 6.5L6.8 59.1l6.9 1c.6-4 1.2-9 1.7-12.8z" fill="#177d74"/>
		<path d="M25.7 50.6l9.7-4.9-1.7 7.1 5 .8c.2-.9 1.7-7 2-8.5.3-1.2.2-2.5-.4-3.7l-1.2-2.7c-.4.2-.8.3-1.2.3-1.6 0-2.7-1.3-2.8-2.8 0-1.1.7-2.1 1.7-2.5L34.6 29l-5.3-6.4-3.5 3.8 4 4.9s-10 4.8-16.7 7.9l12.6 11.4z" fill="#39ae96"/>
		<circle cx="44.5" cy="32.8" r="5.9" fill="#ffb69e"/>
	</symbol>
	<symbol id="result-dialog" viewBox="0 0 264 128">
		<path d="M65.4 127.5L79 99.1 0 84.5 3.1 27 47.9.5l195.9 20.3L264 65.4l-34.1 61L105.4 103l-40 24.5z"/>
		<path fill="#fff" d="M254.6 65l-16.5-36.3L49.8 9.2 11.2 32 8.8 77.6l82.6 15.2-6.1 12.5 18.5-11.2 1.5.3 120.3 22.5z"/>
	</symbol>
	<symbol id="result-sub-title" viewBox="0 0 248 52">
		<path d="M247.3 6.1l-.9-1.1-3.1-1.3-11.9 1.2-.4-1.2-1-1-2.6-1.1h-6.3l-2.7 1.2-.7.8-.7 1.5-12-.5-2.5.9-.3.3-.7-1.1-3-1.6-2.4.2-.4.1c-1.2.5-2.9 1-5 1.6l-.2-1.2-1.2-1.1-2.4-1H179l-2.5 1.1-.5-.4-2.2-.8h-5.7l-2.4.9-1 .9-1.1 2.3-.2 2.5-2.6.5-1.3-.4-1.9.4-1.6-4.5-8-2.6-2.8.3-1.3.7-1.3 1.7-.3-.3-.3-.3-2.4-1h-1.4l-.4-.4-2.2-.8h-5.9l-2.4.9-1 .9-1.1 2.3-.2 2.7-2.5-.5-2.1.3-.6-.5-2.5-.6-7.3.1V5.6l-.8-1.4-2.4-1.7-6.6-1.2-2.2.3-.8.4-1.6 1.5-.4.6-1.5 3L86 7l-.5.1-.5-.5-2.6-.9-12 .8-.2-.6-.9-1-2.6-1.1h-6.1l-2.6 1-.9.9-.3.6-11-1.1-1.8.4-1.5.8-1.7 2.8-.4 6.2.4 1.4-2.7-.2.7-7.6-.9-2.7-.9-1-2.6-1.1h-5.9L26 5.3l-.9.9-1 2.1-.3 3.2-.8-.8-1-.4.1-1.5-.6-2.2-.7-1.1-2.9-1.6h-5.7l-2.4.9-1 .8-1.1 2.3-.1 1.7h-.7l-2.5.9-.9.8-1.1 2.3-.4 6.6.6 2.2.8 1.2 1.5.6C4 25 3 25.7 2 26.4l-.9.6L0 31.9l2.7 4.6c.6 1 1.4 1.7 2.4 2.2l-1 7.2 3.7 4.2h8.9l1.6-1.6 16.6-.1 5.1.1 2.5-.9.3-.3 2.5 2.8L76 50l3.1-2.9 2.8 3.1h31.8l3.6-3.1.5-3.5 1 3.2c.5 1.7 1.9 3.7 5.4 3.7 3.4 0 7-.4 9.6-2.6l1.1 1c.2.3.5.5.6.7l.5.5 4.3.6 1.1-.6c2-1 3.3-1.9 4.5-2.7.6.6 1.2 1.3 2 1.9 1.1 1 2.4 1.5 3.7 1.5.8 0 2.2-.2 3.5-1.4l2.8-2.3c.8 2.2 2.6 3.5 5.1 3.5 3.5 0 7.1-.5 9.5-2.8l2.6 2.9 22.6-.4 2.5-2.4 2.5 2.7h7.8l3.6-3.3v-.4l2.6 2.9h8l1.5-1.5c.8 1.1 2.1 2.2 4.5 2.2 3.5 0 11.7 0 12.5-9.5l.6-9.3.8-8.8.5-4.1 1.2-1 1.1-2.3.5-7-.6-2.4zm-89.6 28.6c.1-.3.3-.6.4-.9l.7.9-.4.5c-.3-.2-.5-.3-.7-.5zm-117.8-.4l-3.3.4.4-4.8 3.4-.3.5-.2.1.2 1.6 2 .3.2-.2 3.2-2.8-.7z"/>
		<path d="M234.9 12.7l8.4-3.7v-.4l-.3-.3-16 1.5.3-3.4-.3-.3h-5.4l-.3.4-.3 3.3-15.7-.7-.4.3-.4 5.2.3.3 7.2-.1h8.6l-.2 2.2h-8.5l-5.1-.1-.3.3-.3 5.1-1 11.3-.3 2.6 2.1.3-2.2 1.1-.9 8.4h5.9l2.1-24.1h6.8l-3.6 1.3-.1.4c.6 1.1 1.1 2.1 1.5 3.5l-3.2-.1-.3.3-.3 3.9.3.3 5.5-.1h1l-.2 2.2h-1.8l-5.4-.1-.3.3-.4 4 .3.3 5.5-.1h1.8v.5l-.8 6.7h6.1l.4-6.7V38h2l5.4.1.3-.3.4-4-.3-.3-5.5.1h-2l.2-2.2h1.2l5.4.1.3-.3.3-3.9-.3-.3-3.5.1c.8-1.2 1.6-2.5 2.3-3.8l-.2-.3-3.4-1.1h7.3l-1.5 17.3c-.1.7-.2.9-1 .9-.5 0-2 .1-3.4.1l1.6 5.1c.1.4.2.5.9.5 5.6 0 7.5-1.2 7.9-5.2l.6-9.3.8-8.9.6-5.1-.3-.3-5.1.1h-9.1l.2-2.2h8.5l7.6.1.3-.3.3-3.8-8.6 1.8zm-11.8 14.4h-4.4l3-1.1.1-.4c-.5-1.4-1.1-2.5-1.9-3.7h5.5c-.6 1.7-1.4 3.5-2.3 5.2zM18 34.2h.5L22 31l.1-.4c-1.1-1.4-3.1-3.2-4.3-4.1h-.5l-1.4 1.3.1-1.2c2.2-2.6 4.3-5.6 6-9.2.1-.2.1-.3.2-.5 0-.3-.1-.6-.2-.7l-1.9-2-2.4.1H17l.5-5.6-.2-.3h-4.7l-.3.3-.5 5.6-4.6-.1-.3.2-.4 5.8.2.3 8.5-1.4c-2 4-6.6 8.4-10.8 11.2l2.3 3.8c.1.2.3.3.5.3s.4-.1.7-.3c.8-.6 2.1-1.7 2.8-2.4L8.9 45.5h6.9l-.2-14.7c.9 1.1 1.7 2.3 2.4 3.4z" fill="#fff"/>
		<path fill="#fff" d="M40.1 25l.2-.1.2-1.3-3 .3 3.1-1.2.2-1-.2-.2-7.4-.7 1-11.6-.3-.3H29l-.3.3-1 11.6H26l-5.1-.1-.2.2-.4 4.6.2.2 5.1-.1h1.7L25.8 40l-8.4-1.1-.2.2-.4 4.6.2.2 5.1-.1h12.8l4.6.1.3-.3.4-4.5-.2-.2-8.4 1.1 1.1-14.4zM176.6 22.7c-1.2.4-2.7.9-4.3 1.3l.4-4.8 3.8.1.3-.2.4-6-.2-.2-3.8 1.5.7-7.9-.3-.3h-4.9l-.4.3-.7 7.9-4.6-1.8-.3.3-.4 6.2.3.2 4.5-.1-.6 6.3c-1.8.5-3.6.9-5.4 1.2l-.2.4 1.2 4.9.4.2c1.1-.3 2.3-.6 3.5-1l-.7 7.6c-.1 1-.4 1.2-1.2 1.3-.7.1-2.1-1-4-1l2.2 6.4c.1.4.2.5.7.5 5.8 0 7.6-1.4 8-6.3l.6-9 .1-1.3c1.4-.5 2.6-.9 3.5-1.2.7-.3.9-.5 1-1.3l.4-4.2zM193.6 25.6H183l-4.6-.2-.3.2-.2 4.7-.5 5.3-1.2 10.3 20.7-.3.6-9.7.5-5.5.5-4.6-.3-.3-4.6.1zm-2.5 13.6l-8.2-.8-.1-1.6h8.6l-.3 2.4zm-8-6.4l.2-2.6 8 .8.6 1.6-8.8.2zM201.5 16l-4.5-1.7c-.6 3.7-.9 3.9-7.6 3.9-5 0-5.2-.1-5.1-1.7l.1-.7c4.8-.8 11.8-2.2 16-3.9l.1-.4-2.5-3.9h-.5c-3 1.2-8.2 2.6-12.8 3.5l2.1-4.6-.3-.3h-7l-.3.3-.2 2 2.2.4-2.2.6-.4 4.8-.5 3.9c-.4 4.7.8 5 10.6 5 8.1 0 9.6-.5 10.9-1.6 1.2-1 1.7-2.4 2.1-5 .2-.3.2-.5-.2-.6zM159.9 12.8L149.4 15c1.3-2.1 4.1-6.8 4.1-6.8L147 6.1l-.4.2c-1.5 5.6-3.9 11.2-7 15.6l-1.9-1.3h-.4c-1 1.6-2.3 3.4-3.5 4.9l.6-6.6h.8l5.8.1.3-.3.4-4.6-.2-.3-6 .1h-.8l.4-4.1c1.1 1.1 2 2.4 2.8 4h.4l3.6-2.3.2-.4c-.9-1.5-1.7-2.5-3-3.7h-.5l-3.4 2-.1.2.3-3-.3-.3h-5l-.4.3-.2 1.9 1.1.6h-1.1l-.4 4.8-7.1-1.3-.4.2-.4 5.9.3.3 6.2-.1h1l-.6 7c-.9-1.8-1.9-3.4-3.2-4.8h-.5l-3.8 2.3v.3c1.2 1.6 2.3 3.8 3 5.6h.5l3.9-2.4-1 11.9c-.1 1-.4 1.2-1.2 1.3-.7.1-2.1.2-4 .2l1.6 5c.1.4.2.5 1 .5 6.3 0 8-1.4 8.4-6.3l.4-5.6c1.4 1.3 2.7 2.9 3.7 4.6h.4l3.8-3.1.1-.4c-1.4-1.7-3-3.4-4.8-4.9h-.5l-2.6 2 .1-1.6.3-3.5 2.3 1.9c.1.1.2.1.3.1.1 0 .3-.1.5-.3.9-.7 1.7-1.6 2.5-2.5l1.5 1.7c.2.2.3.3.5.3s.4-.2.7-.5c.3-.3.6-.7.8-1 .3 3 1 5.9 2.3 8.6-2.9 2.7-6.6 4.6-11.1 6.2l4.3 4.2c.2.3.5.5.6.6l.6-.3c3.3-1.7 4.5-2.8 7.4-5.3 1.4 1.9 2.2 3.3 4.2 5.1.3.2.5.4.6.4.1 0 .3-.1.4-.3l6.2-5c-2.7-1.8-4.8-3.5-6.5-5.4 1-1.4 1.7-2.9 2.4-4.4 1.5-3.5 2.3-7.3 2.8-11h2.3l.3-.3.4-6.7-.1-.3zm-11.1 17.4c-1.1-3.2-1.4-6.7-1.5-10.2h3.3c-.5 3.5-.2 7-1.8 10.2z"/>
		<path d="M126.9 34.6v-.5l-.6-4.4c-1.9 1.3-5.3 3.4-7.6 4.5l-.1.4 1.7 4.3.4.1c2.2-1.2 4.2-2.5 6-4.1.2-.1.2-.2.2-.3zM117 11.6l-7 .1h-7.1c.9-1.4 1.8-2.8 2.7-4.4l-.1-.3-5.7-1.1-.4.2c-1 2-1.8 3.7-2.9 5.6h-3.2l-7-.1-.3.2-.5 7-1 11.4-.3 3.3 2.6-1.4L84 35l-1.1 10.6h29.9l3.7-26.7.7-7-.2-.3zm-9.9 26.6H89.7l.4-4.2 17.3.3-.3 3.9zm1.1-8.9H90.5l.3-3.9 17.4.4v3.5zm-16.9-8.7l.3-3.9 16.6 1.2.6 2.7H91.3zM71.9 18c-2.2 1.9-4.5 3.8-6.9 5.5 2.4 0 4.7-.2 7-.3-.6-.7-1.2-1.2-1.8-1.9l.1-.3 3.6-2h.4c2.7 2.2 4.7 4.5 6.4 7.3l-.1.3-4 2.7-.3-.1.2.2-.5 4.2-.4 5.1-.4 6.7-28.9.1.8-6.5.5-5.4.2-4.2.3-.3 5.8.1h16.7l5.8-.1c-.5-.8-.9-1.6-1.5-2.4-9.8.8-18.9 1.1-29.2 1.4l-.3-.2-1.2-4 .3-.3c4.5 0 8.5.1 12.3.1-2.3-1.6-4.7-2.9-7.2-4.1v-.3l2.7-2.9.4-.1 3 1.5c.7-.7 1.3-1.4 2-2.2h-6.8l-5.4.1-.2-.3.3-5.2.3-.2 14.7 1.5.2-2.7.2-.4h5.2l.2.3-.2 2.7 16-1.1.2.2-1.3 4.9-.3.3-5.4-.1h-6.6l3.1 2v.4zM52.7 38.2l.2 1.8h5.4l.2-1.8h-5.8zm0-5.4l-.2 1.7h6l.1-1.2-5.9-.5zm10.2-16.2c-1.3 1.3-2.4 2.4-3.8 3.4l2.1 1.5c2.2-1.9 4.4-3.9 6.4-6h-5.9l1.2.7v.4zm.6 23.4h5.6l1-1.8h-6.4l-.2 1.8zm.5-5.4h6.4l-.1-1.4H64v1.4z" fill="#fff"/>
		<path fill="#dbdbdb" d="M113.4 13.1L110 41.7l-26.6-1.1-.5 5h30l4.6-34h-4.2z"/>
		<path fill="#dbdbdb" d="M90.1 34l.6-1.9 16.7.6v1.7zM90.9 25.4l.4-2.7 16.9 1.5v1.5zM91.6 16.8v-.6l16.3-.6.3 2.3zM102.3 6.4l-3.1 5.4 3.7-.1 2.8-4.4-.2-.3zM46.2 45.5l28.9-.1s.1-2.5.6-8.7.7-7.1.7-7.1v-.2l-.2-.3-2.5.1L72.3 44l-25.7-1.2-.4 2.7zM52.7 32.8l.2-1.3 5.7.1v1.8z"/>
		<path fill="#dbdbdb" d="M52.7 38.2l-.3-1.3 6.1.4v.9zM63.6 38.2l.2-1.3h6.4l-.3 1.3zM64 33.2l.3-1.2 6.2-.4-.1 1.6zM77.9 22.4c-.9-1.1-2.7-2.7-2.7-2.7l-.9-.7h-.4l-1.2.7 3.7 4.6-1.1.1-14.2.9 3.9-1.8s2.4-1.7 4.4-3.4c2.1-1.7 2.5-2.1 2.5-2.1v-.4l-1.8-1.2-11.4 9-14 .9.5 1.6.3.2 18.7-.7 10.5-.7 2.5-.4 1.1 1.7 2.2-1.5.1-.3c.1 0-1-1.7-2.7-3.8zM198.5 25.8v.2c-.1 1.1-.7 5.8-.9 8.5-.2 3.1-.8 11.1-.8 11.1l-20.7.3.4-3.4 17.7.5 1.7-17.5 2.2-.1.4.4z"/>
		<path fill="#dbdbdb" d="M191.4 30.9l-1-1.6h-7.1v.8zM191.4 36.8v-1.9l-8.5.8-.1 1.1zM146.8 40.7s-.7-1.3-.9-2.2c0 0-4.3 4.3-9.1 5.7l2 2.1c.1-.1 5.5-3 8-5.6zM148.7 17.5l4.8-9.3-3.1-1s-3.9 8.2-5.2 10.7c-1.3 2.4-5.3 9-5.3 9l.9 1s.5.8 1.3-.3l2.3-3.3c1.3 12.7 9.7 20.1 9.7 20.1l4.3-3.4c-3.9-2.5-6.5-5.4-6.5-5.4 5-8 5.2-15.4 5.2-15.4h2.3l.3-.3.2-4.1-11.2 1.7zm1.4 16c-2.8-6.3-2.7-13.5-2.7-13.5l6.9.1c.4 7.6-4.2 13.4-4.2 13.4zM132 16.2l2.8-2.4.6-7.4-.3-.3h-2.2l-1.5 10-10.1.1-.2 2.3.3.3 7.2-.1h3c-.3 4.6-1.4 20.2-2.2 22.1-1 2.2-6.9 2.3-6.9 2.3l.6 2c.1.6.7.5.7.5h1.2c5.3.1 6.4-2.4 6.4-2.4 1-.8 1.1-5.2 1.1-5.2l1.6-19.3 6.9.3.3-.3.2-2.6-9.5.1zM199.5 15.2l2 .8s.4.1.3.5c-.1.4-.3 5-3.9 6 0 0-1.3.6-7 .6s-8.3-.1-9.8-.3c-1.4-.2-3.2-.6-3.1-3.2 0 0 15.3 1.8 18.3.4 3-1.3 2.7-2.8 3.2-4.8zM199.2 9.7c-5.4 2.6-13.6 3.6-14.7 3.7l.2-2.3 2.1-4.6-.2-.3h-4.1l-1.3 10.5 3.3 1c-.4-.2-.3-.7-.3-.7l.1-1.1v-.2l5.1-.9c6.4-1.2 10.9-2.9 10.9-2.9l.1-.4-1.2-1.8zM66 13.3c-1.9 0-3.6.2-5.5.1-8.2-.4-15.2-.9-15.2-.9l-.2 2.9.2.3 9.7-.1h5.8L57 19l2.1 1.1 2.4-2.1 1.3-1.3v-.4l-1-.7h5.5l13.5.1.3-.3.7-2.6c-2.3 0-9 .4-15.8.5zM16.8 27.5l2.7 3.2-2.1 2.5.6 1h.5L22 31l.1-.4s-1.5-2-4.3-4.1h-.5l-.8.7.3.3z"/>
		<path d="M21.9 16.3c-.1-.1-.2-.3-.3-.4l-.4-.4-.4.1-14.1 2-.1 2.4v.2l.2.3 12-2c-2.8 4-8.1 10.8-13.1 13.8l1 1.8s.4.7 1.2 0c.6-.5 3.5-3 5.9-5.3l-.5 14.3-4-.2-.3 2.5h6.9l-.2-13.9.4-5c2-2.5 4.5-5.5 5.4-8 0 0 .9-1.3.7-1.9-.2 0-.2-.1-.3-.3zM17.5 8.8l-.2-.3h-2.5l-.9 6.7 3.1-.9zM66.2 11.4l.2-2.7-.2-.3h-2.7l-.3 3.4zM227 9.8l.3-3.4-.3-.3h-3l-.3 4.7zM123.6 21.5l1.9 4.5-2.9 1.1 1 2.1h.5l3.9-2.4.1-1s-1.5-2.9-3.2-4.8h-.5l-.8.5zM124.5 30.9l.3 3.1-5.1 3.4.6 1.5.4.1s3.8-2.1 5.2-3.4c0 0 1.1-.6 1.1-1.2-.1-.6-.6-4.8-.6-4.8l-1.9 1.3zM135.8 30l2.3 4.9-2.4 2 1.1 1.6h.4l3.8-3.1.1-.4s-2.7-3.3-4.8-4.9h-.5zM137.7 20.6l1.9 1.3-1.4 2.6 1.1 1.7s-2.7 3.1-3.1 2.7c-.5-.4-1.1-.9-1.1-.9l2.5-2.2.1-5.2zM137.6 7.9l2 3.1-2.3 1.5.7 1.2h.4l3.6-2.3.2-.4s-.8-1.8-3-3.7h-.5l-1.1.6zM240.2 19.9h-1.1l-30.1-.2-2.1 26 2.8.1 2.1-24.1H238c-.2 4.8-1 17.3-1.7 19.2-1 2.2-6.9 1.9-6.9 1.9l.7 2.4c.1.6.7.5.7.5h1.2c5.3.1 6.1-2.3 6.1-2.3 1-.8 1.1-5.2 1.1-5.2l1.3-18.1-.3-.2zM171 17.1l2.1-2.8.7-7.9-.3-.3h-2.3l-.4 11.1h-.1l-8.2-1.1-.2 2.9.3.2h7.9l-.5 9c-.2 2.8-.7 10.9-1.5 12.8-1 2.2-6.9 2.3-6.9 2.3l.6 2c.1.6.7.5.7.5h1.2c5.3.1 6.4-2.4 6.4-2.4 1-.8 1.1-5.2 1.1-5.2l.7-9.1 2.7-.9c1.1-.3 1.1-1.1 1.1-1.1l.1-1.6-4 1.1.3-7 3.9-.3.3-.2.2-3-5.9 1z" fill="#dbdbdb"/>
		<path fill="#dbdbdb" d="M166.1 31.1l.2-2.9-4.7 1.5.6 2.2.3.2zM211.4 35.8l-.2 1.9.3.3h10l-.5 7.1h3l.5-7.1 6.7-.1.7.1.3-.3.2-2.4zM212.8 29.3l-.2 1.8.3.3h9.5l-.4 2.8 2.8-.7.2-2.1H231.6l.3-.3.2-2.3zM228.5 27s1.8-2.6 2.3-3.8l-.2-.3-2.2-.7-3.2 4.8h3.3zM219.8 21.7s1.6 2.4 2 3.8l-.1.4-3 1.1h-2.2l3.2-2-1.1-3.2h1.2z"/>
		<path d="M78.1 21.4L71.9 25l6.8-2.5z"/>
		<path d="M37.5 23.9l2-.8h-9l2.7-2.4 1-11.7-.2-.3h-2.6L30.2 23h-9.6l-.2 2.3.2.2 6.8-.1h2.5l-1 16.6-3-.1-8.9-.6-.2 2.4.3.2s18.5-.2 22.3 0h.3l.3-.3.2-2.3-8.7 1-2.1-.1 2.3-2.2.8-9.9.4-4.5 7.3-.5.2-.2.2-1.2-3.1.2z" fill="#dbdbdb"/>
		<path d="M72.2 45.5l-4.5-2.9 3.3 3.3zM8.2 44.3l5.9-4.3-5.2 5.5zM195.6 46.2l-6.6-5.4 3.4 5.4z"/>
		<path fill="#dbdbdb" d="M234.9 12.7l1.7-.7-9.9.7-6.1-.1-15.9-.7-.2 2.8.3.3 18.2-.1h.5l-.2 3 3-.8.2-2.2 14.3.1h1.8l.4-.3.2-3.1-4.5.3z"/>
	</symbol>
	<symbol id="result-title" viewBox="0 0 248 68">
		<path d="M79.4 49.9h10.8V54H79.4zM79.4 42h10.8v3.4H79.4zM103.6 16.8H89.2l-4.8 3.6 12.3.1c2.5-1.1 4.8-2.3 6.9-3.7zM97.8 49.9h11.1V54H97.8zM97.8 42h11.1v3.4H97.8zM139.8 19.9h27.3v5.7h-27.3zM139.8 44.5h27.3v6.2h-27.3zM139.8 32.1h27.3V38h-27.3z"/>
		<path d="M246.9 53.6c-.4-1.7-1.5-3.2-3.1-4-1.6-.9-3.5-2.1-5.6-3.8 1.2-2.7 2.2-5.9 3.1-9.4.8-3.2 1.4-6.2 1.8-8.9 2-1 3.3-3 3.3-5.4V15c0-3.3-2.7-6-6-6h-7v-.1c.5-3.1-1.5-6.1-4.6-6.8L222 .6c-.4-.1-.9-.2-1.3-.2-1.2 0-2.4.4-3.4 1.1-.6.4-1 .9-1.4 1.4l-.2-.2c-1.2-1.2-2.7-1.9-4.3-1.9-.8 0-1.6.2-2.3.5-.9-.5-1.9-.8-3-.8h-7.4c-3.3 0-6 2.7-6 6v3.8H187c-2.5 0-4.7 1.5-5.6 3.7v-1.3c0-3.3-2.7-6-6-6H164c0-1.1-.4-2.3-1.1-3.2-1.1-1.5-2.8-2.5-4.6-2.5l-8.7-.4h-.3c-2.8 0-5.3 2-5.9 4.7-.1.5-.2 1-.4 1.5h-11.5c-2.2 0-4.2 1.2-5.2 3-.4-3-2.9-5.3-6-5.3h-19.5c-.8-.8-1.6-1.6-2.6-2.5C97.1 1 95.6.4 94.1.4h-.4l-8.6.6c-2.1.1-4.1 1.6-5 3.6H67.3c-3.3 0-6 2.7-6 6v5.8c-.4-.1-.8-.1-1.2-.1h-4.2V6.6c0-3.3-2.7-6-6-6h-8.3c-3.3 0-6 2.7-6 6v7.3c-.9-2.3-3-3.9-5.6-3.9h-2c-.7-1.9-1.5-3.8-2.3-5.8C24.7 2 22.6.7 20.2.7c-.3 0-.6 0-.9.1l-6.9 1c-1.9.2-3.5 1.3-4.4 3-.9 1.6-1 3.5-.3 5.2-3 .3-5.3 2.9-5.3 6v6.1c0 3.3 2.7 6 6 6h2.5c-3.3 3.6-5.6 5.3-6.9 6.1-2.7 1.6-3.7 5.1-2.3 7.9l3.9 7.6c.8 1.7 2.4 2.8 4.2 3.2.3.1.7.1 1 .1v8.5c0 3.3 2.7 6 6 6h7.4c1.6 0 3.1-.6 4.2-1.7.3 0 .6.1.9.1h32.4c1.7 0 3.1-.7 4.2-1.7 1 2 3 3.4 5.4 3.4h8.1c1.9 0 3.5-.8 4.6-2.2h20.3c1.1 1.3 2.8 2.2 4.6 2.2h8.1c3.3 0 6-2.7 6-6V40.8l1.9-1.1c.2-.1.5-.3.7-.5v22.3c0 3.3 2.7 6 6 6h8.2c2.5 0 4.6-1.5 5.5-3.7h16.2c.9 2.2 3 3.7 5.5 3.7h8.3c3.3 0 6-2.7 6-6V50.1L184 55c.2.4.5.8.8 1.2l1.1 6.1c.5 2.9 3 4.9 5.9 4.9h6.8c4 0 7.3-1.3 9.6-3.6l1.1 1.5c1.2 1.6 3 2.4 4.8 2.4.9 0 1.8-.2 2.6-.6 3.3-1.6 6.4-3.6 9.1-5.8 2 1.9 4.3 3.7 6.7 5.4 1 .7 2.2 1 3.4 1 1.8 0 3.6-.8 4.8-2.4l5-6.6c1.2-1.4 1.5-3.2 1.2-4.9zM24.2 36.8v24.7h-7.4V40.7c-1 1.6-3 3.7-6 6.3L7 39.4c2.6-1.6 5.6-4.2 8.9-7.9s5.2-6.8 5.9-9.5H8.4v-6.1h7.9c-.7-2.7-1.7-5.5-3-8.3l6.9-1c1.5 3.2 2.6 6.3 3.4 9.3H30v5c-.9 3.2-2.3 6.3-4.2 9.2 2.8 1.7 5.3 3.6 7.5 5.5l-4 6.4c-1.5-1.5-3.1-3.3-5.1-5.2zm37.5 23.1H29.3v-7.4h12.3V29.8H31.5v-7.5h10.1V6.6h8.3v15.8h10.2v7.5H49.9v22.7h11.8v7.3zM33.4 46.5c.4-.4.7-.8 1-1.2l1.2-2v3.2h-2.2zm22.5 0V35.8h4.2c.8 0 1.6-.2 2.3-.5l.3 1.4c.3 1.7 1.3 3.1 2.7 4v7c-1-.8-2.3-1.2-3.6-1.2h-5.9zm61.1-9.1v24.2h-8.1v-2.2H79.4v2.2h-8.1v-25h43.4l-1.9-2.6c-14.5.7-29.3 1.3-44.3 1.6l-1.2-6.7 9.9.2c4.3-1.3 8-2.6 11-4.1-4.6.4-9.4.5-14.3.5h-1.8l-.8-5.7 5 .2 3.7-3.3H67.3v-6.1h22.1C88 9 86.7 7.8 85.6 6.9l8.6-.6c1.8 1.6 3.1 3 4 4.1h22.2v6.2h-12.5l4 2.6c-7 4.1-14.4 7.4-22.3 9.9l10-.2c2.3 0 5.3-.1 8.9-.3-1.4-1.4-2.7-2.6-3.9-3.6l6.1-1.8c4 3.4 7.8 7.1 11.3 11.1l-5 3.1zm2-14.6h1.4c2.2 0 4.1-1.2 5.1-2.9v9.8c-2-2.5-4.2-4.8-6.5-6.9zm56.4 38.7h-8.3v-3.7h-27.3v3.7h-8.2V12.8h15.3c1.1-2 1.9-4 2.4-6.2l8.7.4c-.8 2.6-1.6 4.6-2.5 5.8h19.9v48.7zm7.8-21.6c-.7.3-1.3.7-1.8 1.3V30.1c1.7 2.7 3.2 5.6 4.4 8.6-.8.4-1.7.8-2.6 1.2zM236 61.5c-4-2.7-7.2-5.7-9.8-9-3.3 3.7-7.3 6.7-12 9l-4.8-6.5c5.6-2.3 9.9-5.1 13-8.4-1.6-3.5-2.9-7.7-3.7-12.5l-1.4 2.8-3.5-4.9c-.8 2.3-1.6 4.1-2.5 5.7l-5.5-2.7v5.2l3.2-2.6c3 2.3 6.2 5.3 9.7 9.1l-5.3 5c-3-3.9-5.5-6.7-7.6-8.7v10.7c0 5-2.4 7.5-7.1 7.5h-6.8l-1.3-7.1 5.5.2c1.5 0 2.3-.7 2.3-2.2v-7.8c-2.5 3-5.6 5.5-9.1 7.8l-3.7-6.7c5.2-2.4 9.5-5.5 12.8-9.4V23.4H187v-7.1h11.5V6.6h7.4v9.8h5c-1.6-2.7-3.1-4.8-4.4-6.4l4.8-3.1c2.4 2.5 4.3 4.8 5.7 7l-3.6 2.5h3v7.1H206v10.4c1.8-2.9 3.2-6.2 4.2-9.9l5.3 1.9c2.8-6.1 4.6-12.5 5.4-19.3l6.8 1.6c-.3 2-.8 4.3-1.4 7h14.3v7.1h-2.9c-.1 3.5-.8 7.8-2 12.8s-2.8 9.1-4.7 12.1c0 .3 1.2 1.4 3.6 3.4 2.4 1.9 4.6 3.4 6.7 4.5l-5.3 6.4zm-49.6-34.8l5.5-2.9c1.9 2.7 3.9 6.1 6.1 10.3l-6.2 3.6c-1.4-3.9-3.2-7.5-5.4-11z"/>
		<path d="M223.6 23.4c.3 6 1.3 11.5 3.1 16.5 2.4-4.7 3.6-10.6 3.7-17.7H224l-.4 1.2z"/>
		<path d="M24.2 61.5V36.8c1.9 1.9 3.6 3.7 5.1 5.3l4-6.4c-2.2-2-4.7-3.8-7.5-5.5 1.9-2.9 3.3-6 4.2-9.2v-5h-6.4c-.8-3-1.9-6-3.4-9.3l-6.9 1c1.3 2.8 2.3 5.6 3 8.3H8.4v6.1h13.4c-.7 2.6-2.6 5.8-5.9 9.5S9.7 37.9 7 39.5l3.9 7.6c3-2.6 4.9-4.7 6-6.3v20.8l7.3-.1z" fill="#fbd528"/>
		<path fill="#fbd528" d="M61.7 52.5H49.9V29.8h10.2v-7.5H49.9V6.6h-8.3v15.7H31.5v7.5h10.1v22.7H29.3v7.4h32.4zM110.6 23.4l-6.1 1.8c1.1 1 2.4 2.2 3.9 3.6-3.6.2-6.6.3-8.9.3l-10 .2c7.9-2.5 15.4-5.8 22.3-9.9l-4-2.6h12.5v-6.2H98.2c-.9-1.1-2.3-2.5-4-4.1l-8.6.6c1.1.9 2.4 2.1 3.8 3.7H67.3v6.1H80l-3.7 3.3-5-.2.8 5.7h1.8c4.9 0 9.7-.2 14.3-.5-3 1.4-6.7 2.8-11 4.1l-9.9-.2 1.2 6.7c15-.4 29.7-.9 44.3-1.6l1.9 2.6H71.3v24.9h8.1v-2.2h29.5v2.2h8.1V37.4l4.9-2.9c-3.5-4-7.2-7.8-11.3-11.1zm-26.2-3l4.8-3.6h14.4c-2.1 1.4-4.4 2.7-6.8 3.7l-12.4-.1zM90.2 54H79.4v-4.1h10.8V54zm0-8.6H79.4V42h10.8v3.4zm18.7 8.6H97.8v-4.1h11.1V54zm0-8.6H97.8V42h11.1v3.4zM175.4 61.5V12.8h-19.9c.8-1.2 1.6-3.1 2.5-5.8l-8.7-.4c-.5 2.1-1.3 4.2-2.4 6.2h-15.3v48.7h8.2v-3.7h27.3v3.7h8.3zm-35.6-41.6h27.3v5.7h-27.3v-5.7zm0 12.2h27.3V38h-27.3v-5.9zm0 18.6v-6.2h27.3v6.2h-27.3zM198.1 34.1c-2.2-4.2-4.3-7.6-6.1-10.3l-5.5 2.9c2.2 3.5 4 7.2 5.5 11l6.1-3.6z"/>
		<path d="M234.3 50.4c-2.4-2-3.6-3.1-3.6-3.4 1.9-3.1 3.4-7.1 4.7-12.1 1.2-5 1.9-9.3 2-12.8h2.9V15H226c.6-2.7 1.1-5 1.4-7l-6.8-1.6c-.8 6.8-2.6 13.2-5.4 19.3l-5.3-1.9c-1 3.7-2.4 7-4.2 9.9V23.4h10.4v-7.1h-3l3.6-2.5c-1.4-2.2-3.3-4.5-5.7-7l-4.8 3.1c1.3 1.5 2.8 3.6 4.4 6.4h-5V6.6h-7.4v9.8H187v7.1h11.5v12.6c-3.3 3.9-7.6 7-12.8 9.4l3.7 6.7c3.5-2.2 6.6-4.8 9.1-7.8v7.8c0 1.5-.8 2.2-2.3 2.2l-5.5-.2 1.3 7.1h6.8c4.7 0 7.1-2.5 7.1-7.5V42.9c2.1 1.9 4.6 4.8 7.6 8.7l5.3-5c-3.5-3.8-6.7-6.8-9.7-9.1l-3.2 2.6v-5.2l5.5 2.7c.9-1.5 1.7-3.4 2.5-5.7l3.5 4.9 1.4-2.8c.8 4.8 2 9 3.7 12.5-3 3.3-7.4 6.1-13 8.4l4.8 6.5c4.7-2.3 8.8-5.3 12-9 2.6 3.3 5.8 6.4 9.8 9l5-6.6c-2.1-.9-4.3-2.4-6.8-4.4zm-7.6-10.5c-1.8-5-2.8-10.5-3.1-16.5l.4-1.2h6.4c-.1 7.1-1.3 13-3.7 17.7z" fill="#fbd528"/>
	</symbol>
	<symbol id="result-title-bg" viewBox="0 0 376 264">
		<path d="M152.8 215.7c-2.5-.4-4.8 1.3-5.2 3.7s1.3 4.7 3.7 5.1c2.5.4 4.8-1.3 5.2-3.7.3-2.4-1.3-4.7-3.7-5.1zM233.8 217.3c-2.3-.4-4.5 1.1-4.9 3.4-.4 2.3 1.1 4.4 3.4 4.8 2.3.4 4.4-1.1 4.8-3.4.4-2.3-1-4.4-3.3-4.8zM157.7 39.5c2.1.3 4.2-1.2 4.6-3.3.4-2.2-1.1-4.3-3.3-4.7-2.2-.4-4.3 1.2-4.7 3.4-.4 2.1 1.2 4.3 3.4 4.6zM193.5 33.4c2.1.3 4.1-1.2 4.4-3.3.3-2.1-1.2-4.1-3.3-4.4s-4.1 1.2-4.4 3.3c-.3 2.1 1.2 4.1 3.3 4.4zM294.8 53.3c-2-.4-4 .9-4.4 3s1 4.1 3.1 4.5c2 .4 4-1 4.4-3.1.3-2-1-4-3.1-4.4zM220.5 227.2c-2-.3-3.9 1-4.2 3.1-.3 2 1 3.9 3.1 4.2 2 .3 3.9-1 4.2-3.1.3-2-1.1-3.9-3.1-4.2zM139.6 226c-2-.4-3.9 1-4.3 3-.4 2 1 3.9 3 4.3 2 .3 3.9-1 4.2-3 .4-2.1-.9-3.9-2.9-4.3zM162.1 229.6c-2-.3-3.9 1-4.2 3.1-.3 2 1.1 3.9 3.1 4.2s3.9-1.1 4.2-3.1c.3-2.1-1.1-3.9-3.1-4.2zM170.8 29.4c1.9.3 3.7-.9 4-2.9.3-1.9-1-3.7-2.9-4s-3.7 1-3.9 2.9c-.3 2 .9 3.7 2.8 4zM84.7 205.9c-1.9-.3-3.7.9-4 2.9s.9 3.8 2.9 4.1c1.9.3 3.7-.9 4-2.9s-1-3.8-2.9-4.1zM335.4 90c1.7.2 3.3-1 3.6-2.7.3-1.7-.9-3.4-2.7-3.7-1.7-.3-3.4 1-3.6 2.7-.3 1.8.9 3.4 2.7 3.7zM229.2 26.7c1.7.3 3.4-.9 3.7-2.6s-.9-3.3-2.5-3.7c-1.7-.3-3.4.9-3.7 2.6s.8 3.4 2.5 3.7zM207.3 237.4c-1.7-.3-3.2.9-3.5 2.5-.3 1.7.8 3.2 2.5 3.5s3.2-.8 3.5-2.5-.8-3.3-2.5-3.5zM206.7 23c1.7.3 3.2-.8 3.5-2.5s-.8-3.2-2.5-3.5-3.2.8-3.5 2.5.8 3.2 2.5 3.5zM94.1 219.5c-1.7-.2-3.1.8-3.4 2.5s.8 3.2 2.5 3.5c1.7.2 3.1-.8 3.4-2.5s-.8-3.3-2.5-3.5zM243.1 231.5c-1.7-.3-3.2.8-3.5 2.5s.8 3.2 2.4 3.5c1.7.3 3.2-.8 3.5-2.5s-.7-3.2-2.4-3.5zM86.4 50.3c1.6.2 3.1-.9 3.4-2.5.2-1.6-.9-3.1-2.5-3.4-1.6-.2-3.1.9-3.4 2.5-.3 1.7.9 3.2 2.5 3.4zM148.3 25.2c1.6.2 3-.8 3.2-2.4.3-1.6-.8-3.1-2.4-3.3-1.6-.2-3 .9-3.2 2.4-.2 1.6.9 3.1 2.4 3.3zM348.5 135.2c-.3 1.6.8 3 2.3 3.2s2.9-.7 3.2-2.3c.3-1.6-.7-3-2.3-3.3-1.5-.2-3 .8-3.2 2.4zM33.4 163.7c-1.6-.3-3 .7-3.3 2.3-.3 1.5.7 2.9 2.2 3.2 1.6.3 3-.7 3.3-2.3.3-1.5-.6-2.9-2.2-3.2zM148.9 240.1c-1.4-.3-2.9.7-3.2 2.2s.7 3 2.2 3.2c1.4.3 2.9-.7 3.2-2.2s-.7-3-2.2-3.2zM99.6 40.6c1.5.2 2.8-.8 3.1-2.3.2-1.5-.8-2.9-2.3-3.2-1.5-.2-2.9.8-3.1 2.3-.3 1.6.8 3 2.3 3.2zM306.8 50.1c1.4.3 2.9-.8 3.1-2.2s-.8-2.9-2.2-3.1c-1.4-.3-2.9.8-3.1 2.2-.3 1.4.7 2.9 2.2 3.1zM184.1 19.1c1.4.2 2.9-.8 3.1-2.2.2-1.4-.8-2.9-2.2-3.1-1.4-.2-2.9.8-3.1 2.2-.3 1.4.7 2.9 2.2 3.1zM126.2 236.6c-1.5-.2-2.7.7-3 2.2-.2 1.5.7 2.7 2.2 3 1.5.2 2.7-.7 3-2.2.2-1.5-.8-2.8-2.2-3zM171.4 243.8c-1.4-.2-2.6.7-2.9 2.1-.2 1.4.7 2.7 2.1 2.9 1.4.2 2.7-.7 2.9-2.1.3-1.4-.6-2.7-2.1-2.9zM229.9 241.7c-1.4-.2-2.5.6-2.7 2-.2 1.3.7 2.4 2 2.6 1.3.2 2.4-.6 2.6-1.9.2-1.4-.6-2.5-1.9-2.7zM71.5 216.6c-1.2-.2-2.5.6-2.7 1.9-.2 1.2.6 2.4 1.8 2.6 1.2.2 2.5-.6 2.7-1.9.2-1.1-.6-2.3-1.8-2.6zM194.1 247.7c-1.2-.2-2.4.7-2.6 1.9-.1 1.2.7 2.3 1.9 2.5s2.4-.7 2.6-1.9c.1-1.1-.8-2.3-1.9-2.5zM103.5 233.4c-1.2-.2-2.3.7-2.5 1.8-.2 1.2.7 2.4 1.9 2.6 1.2.2 2.3-.7 2.5-1.8.2-1.3-.7-2.5-1.9-2.6zM299.7 34.7c.2-1.1-.6-2.2-1.7-2.3-1.1-.2-2.2.6-2.4 1.7-.2 1.1.5 2.2 1.6 2.4 1.2.1 2.4-.7 2.5-1.8zM161.4 14.9c1.1.2 2.2-.5 2.4-1.5.3-1.1-.5-2.3-1.6-2.5s-2.2.5-2.4 1.6c-.2 1 .6 2.1 1.6 2.4zM344.1 178.9c-1-.1-2.1.7-2.2 1.7s.6 2.1 1.7 2.2c1 .1 2.1-.6 2.2-1.7.2-1-.6-2.1-1.7-2.2zM242.6 16c1 .2 2.1-.6 2.3-1.6s-.6-2.1-1.6-2.3c-1.1-.2-2.2.6-2.3 1.7-.2 1.1.6 2.1 1.6 2.2zM219.9 12.5c1 .2 2.1-.6 2.3-1.6.2-1.1-.6-2.2-1.7-2.3-1-.1-2.1.6-2.2 1.7-.2 1 .6 2 1.6 2.2zM265.6 236.2c-1.1-.2-2.1.4-2.3 1.5-.2 1 .5 2 1.5 2.2 1.1.2 2.1-.4 2.3-1.5.2-1.1-.5-2-1.5-2.2zM125.8 20.6c1.1.2 2-.5 2.2-1.5.2-1.1-.5-2-1.5-2.2-1.1-.2-2 .5-2.2 1.5-.2 1.1.5 2.1 1.5 2.2zM348.6 79.1c1 .2 1.9-.5 2.1-1.5s-.5-1.9-1.5-2.1-1.9.5-2.1 1.5c-.2.9.5 1.9 1.5 2.1zM339.1 66c1 .2 1.9-.5 2.1-1.5s-.5-1.9-1.5-2.1c-1-.2-1.9.5-2.1 1.5-.2.9.5 1.9 1.5 2.1zM364.1 127.9c1 .1 1.9-.6 2.1-1.5.1-1-.6-1.9-1.5-2.1-1-.1-1.9.6-2.1 1.5-.2 1 .5 2 1.5 2.1zM197.3 8.6c.9.2 1.8-.4 2-1.3.2-1-.4-1.9-1.3-2-.9-.2-1.8.4-2 1.3s.3 1.8 1.3 2zM80.8 230.4c-.9-.1-1.7.5-1.8 1.3-.1.9.4 1.7 1.3 1.8.9.2 1.7-.4 1.9-1.3.1-.8-.5-1.7-1.4-1.8zM358.1 92c.9.2 1.7-.4 1.9-1.2.2-.9-.4-1.8-1.3-1.9s-1.7.4-1.8 1.3c-.2.8.4 1.6 1.2 1.8zM216.7 251.9c-.9-.2-1.8.3-2 1.2s.4 1.7 1.2 1.9c.9.2 1.7-.4 1.9-1.2.3-.8-.2-1.6-1.1-1.9zM329.6 52.5c.8.2 1.6-.4 1.8-1.2.1-.8-.4-1.6-1.3-1.7-.8-.1-1.6.5-1.7 1.3-.1.8.3 1.4 1.2 1.6zM29.6 187.6c-.8-.2-1.6.4-1.8 1.2-.1.8.4 1.7 1.3 1.7.9.1 1.5-.3 1.7-1.2.2-.7-.4-1.5-1.2-1.7zM135.6 250.8c-.9-.1-1.5.2-1.7 1.1-.2.9.2 1.5 1 1.7s1.7-.3 1.8-1.1c.2-.8-.2-1.4-1.1-1.7zM20.1 174.6c-.8-.1-1.4.3-1.6 1-.1.8.2 1.5 1 1.7s1.4-.2 1.7-1c.2-.7-.3-1.5-1.1-1.7zM158.2 254.5c-.8-.1-1.4.3-1.6 1.1-.1.8.2 1.4 1.1 1.6.8.2 1.4-.2 1.6-1 .2-.8-.3-1.6-1.1-1.7zM252.3 246.2c-.9-.1-1.4.3-1.6 1.1-.1.8.3 1.4 1.1 1.6.8.2 1.4-.2 1.6-1 .2-.8-.3-1.6-1.1-1.7zM63.9 45.1c.8.1 1.4-.3 1.6-1.1s-.4-1.5-1.2-1.6c-.9-.1-1.3.3-1.6 1.2.1.8.4 1.4 1.2 1.5zM77.1 35.5c.8.1 1.3-.3 1.5-1.1.1-.7-.3-1.3-1-1.4-.8-.1-1.3.3-1.5 1-.1.8.2 1.4 1 1.5zM112.9 247.5c-.7-.1-1.3.2-1.4 1-.2.8.2 1.3 1 1.5.7.1 1.3-.3 1.4-1 .2-.8-.2-1.4-1-1.5zM139 10.5c.8.1 1.4-.3 1.4-1.1.1-.8-.4-1.3-1.2-1.4-.7-.1-1.2.4-1.3 1.1.1.8.4 1.3 1.1 1.4zM367.8 104.6c.6.1 1.1-.2 1.3-.9.2-.7-.2-1.2-.9-1.4-.7-.2-1.1.2-1.4.9 0 .8.3 1.3 1 1.4zM37.7 63.9c.7.1 1.2-.2 1.3-.9s-.3-1.1-.9-1.3c-.7 0-1.2.3-1.3 1 0 .6.3 1.1.9 1.2zM180.8 258.3c-.7-.2-1.1.2-1.4.9 0 .7.2 1.2.9 1.3.6.1 1.1-.2 1.3-.8.3-.7-.1-1.2-.8-1.4zM320.1 39.1c.7.1 1.2-.3 1.3-1 .1-.6-.2-1.1-.9-1.3-.7-.2-1.1.2-1.4.9.1.7.3 1.2 1 1.4zM174.8 4.5c.6 0 1.1-.2 1.3-1 .1-.6-.2-1.1-.8-1.3-.7-.2-1.2.2-1.4.8-.2.8.2 1.2.9 1.5zM90.2 25.8c.6.1 1.1-.2 1.3-.9.1-.7-.2-1.1-.9-1.3-.7 0-1.1.2-1.3.9-.1.7.3 1.2.9 1.3zM301.1 231.1c-.5 0-.9.2-1 .8s.2 1 .8 1.1c.6.1 1-.2 1.1-.8 0-.5-.3-.9-.9-1.1zM314.1 221.6c-.6-.1-.9.3-1 .9 0 .6.2.9.8 1 .6.1 1-.2 1.1-.8.1-.6-.2-1-.9-1.1zM327.2 212.1c-.6-.1-.9.3-1 .9 0 .5.2.9.8 1 .6.1 1-.2 1.1-.8.1-.6-.2-1-.9-1.1zM10.3 161.9c-.5 0-.9.2-1 .8s.2 1 .8 1.1 1-.2 1.1-.9c.1-.6-.3-.9-.9-1zM239.2 256.3c-.5-.1-.8.1-.9.6-.1.5.1.8.7.9.4 0 .8-.2.8-.7 0-.3-.2-.7-.6-.8zM90.2 244.4c-.5-.1-.8.1-.9.6s.2.8.7.9c.4 0 .8-.2.8-.7.1-.4-.1-.8-.6-.8zM203.4 262.3c-.5-.1-.8.2-.9.7 0 .5.2.8.7.9.5 0 .8-.2.8-.7 0-.6-.2-.9-.6-.9zM103.4 16c.4.1.7-.1.8-.6.1-.5-.1-.8-.6-.9-.5-.1-.8.1-.9.6 0 .5.2.8.7.9zM24.8 73.1c.5 0 .8-.2.8-.7 0-.4-.2-.7-.6-.8-.5-.1-.8.2-.9.7 0 .5.2.8.7.8zM288 240.9c-.5-.1-.8.1-.9.6 0 .5.2.8.7.9.4.1.7-.1.8-.6.1-.5-.1-.8-.6-.9zM373.8 140c.5 0 .8-.2.9-.7 0-.5-.2-.8-.7-.8-.4 0-.7.2-.8.6-.1.5.1.8.6.9zM340.4 202.8c-.5-.1-.8.2-.9.7 0 .4.2.8.7.8.4.1.7-.2.8-.6.1-.5-.1-.8-.6-.9zM4.5 126.4c-.5-.1-.8.1-.9.7 0 .4.2.8.7.8.4.1.7-.1.8-.6s-.1-.8-.6-.9zM58 227.6c-.5 0-.8.2-.9.7-.1.4.2.7.6.8.5.1.8-.1.9-.6.1-.4-.1-.7-.6-.9zM255.9 5.3c.5 0 .8-.2.8-.7 0-.4-.2-.7-.6-.8-.5-.1-.8.2-.9.6 0 .6.2.9.7.9zM233.3 1.7c.4.1.7-.1.8-.6s-.1-.8-.6-.9-.8.1-.9.6c0 .5.2.9.7.9z"/>
		<path d="M375 159.7c.3-.5.5-1 .7-1.5 1-3.1-.5-6.5-3.4-7.9-18.3-9-28.4-14.4-38.6-20.6 1.3-1.5 2.7-3 4.2-4.6l.9-.9c.5.8 1.3 1.5 2.3 1.7 1.9.4 3.7-.9 4-2.8.2-1.4-.4-2.8-1.6-3.5 3.7-3.4 6.2-5.3 7.3-5.8.6-.1 1.1-.3 1.6-.5.1 1 .9 1.9 2 2.1 1.3.3 2.6-.6 2.9-2 .3-1.3-.6-2.6-1.9-2.9.6-1 .9-2.2.9-3.5 0-1.2-.4-2.3-1-3.3.7-1.1 1.1-2.4 1-3.7-.1-3.2-2.5-5.8-5.6-6.3-.3 0-.6-.1-1-.1-15.3-.2-23.1-.7-30.9-1.9h-.2c2-5.3 4.3-10.3 7-14.9h.1c1.7.3 3.3-.9 3.7-2.6.3-1.6-.7-3.1-2.1-3.6-.2-.8-.4-1.6-.9-2.3 0 0 0-.1.1-.1 1.4-2.3 1.2-5.2-.3-7.3-1.1-1.4-2.6-2.4-4.3-2.6-.8-.1-1.7-.1-2.6.1-.1 0-.2.1-.3.1-.4-.5-1-.8-1.8-.9-1.5-.2-2.9.7-3.3 2.1l-1.2.3c-8.9 2.2-17.5 4.3-27.2 5.4-.4-1.6-1.6-2.8-3.2-3.3-.1-.5-.3-.9-.5-1.3.2-.8.4-1.5.5-1.9.7-2.3.1-4.8-1.5-6.5-1-1.1-2.3-1.7-3.7-2-.8-.1-1.6-.1-2.4.1-.1-.1-.2-.2-.4-.3 2.3-2.3 4.7-4.5 7-6.6-.2 1.7 1.1 3.4 2.8 3.7 1.8.3 3.6-1 3.9-2.8s-1-3.7-2.8-4h-.5c3.8-3.2 7.2-5.9 9.6-7.8 3.5-2.8 4.8-3.8 5.6-4.8 1.7-2 2.1-4.8 1-7.2-.1-.2-.2-.5-.4-.7 1.2-1.9 1.3-4.3.4-6.3s-2.8-3.4-5-3.7c-.4-.1-.8-.1-1.2-.1-14.4.3-32.1 4.4-48.7 11.4-7.6 3.2-16.9 7.8-26.2 14.2.4-.5.7-1.1.8-1.8.3-2.2-1.2-4.2-3.3-4.6-2.2-.4-4.2 1.1-4.6 3.3-.4 2.2 1.1 4.2 3.3 4.6.6.1 1.2.1 1.8-.1-3.5 2.5-7 5.3-10.4 8.4.4-.5.6-1.1.8-1.8.5-2.6-1.1-5-3.7-5.5-2.2-.4-4.3.7-5.1 2.7-5.3-6-10.6-10.2-11.6-10.9-.9-.7-1.9-1.1-3-1.3-.9-.1-1.7-.1-2.6.1-1.9.5-3.6 1.8-4.4 3.6-2 4.2-4.3 8.8-6.4 12.8-.7-.7-1.6-1.2-2.6-1.4-2.4-.4-4.6 1-5.4 3.2-8.4-4.8-17.4-9-25.5-12.4.6-.5 1.1-1.2 1.2-2 .3-1.8-1-3.7-2.8-4s-3.6 1-3.9 2.8c-.1.3-.1.7 0 1-11-4.3-19.3-6.9-20-7.1-.3-.1-.6-.2-.9-.2-2-.3-4.1.3-5.6 1.8-1.7 1.7-2.4 4.1-1.8 6.5.2.8.4 1.5.5 2.3-.8 1.4-1 3.1-.5 4.7.8 3.2 1.4 6.3 1.8 9.1l-.3.9c-.2 1.1.1 2.1.7 3 .1.7.1 1.5.1 2.2 0 1-.1 1.9-.2 2.7-7.4-1.3-18.1-3.6-28.6-5.7-11-2.3-21.4-4.4-26.6-5.3-1-.2-1.8-.3-2.4-.3-2.4-.2-4.8.9-6.2 2.9s-1.5 4.6-.4 6.8c.1.2.2.3.2.5-1.2 2-1.3 4.4-.2 6.5 1.6 3 3.1 6.6 4.4 10.1-.8.3-1.3 1.1-1.5 2-.2 1.4.7 2.7 2.2 3 .4.1.7 0 1.1 0v.1C30.5 82.2 5.9 89.8 4.7 90.2 2.1 91 .2 93.3.1 96.1c-.1 1.4.3 2.8 1 4-.6.9-.9 1.9-1 3-.2 2.7 1.3 5.3 3.8 6.5 4.1 1.9 8.6 4.1 13.1 6.3-.6.2-1.1.7-1.3 1.5-.2 1.1.5 2 1.6 2.1 1.1.2 2-.5 2.1-1.6.1-.3 0-.6-.1-.9 4.4 2.1 8.6 4.2 12.3 6-1.6 1.6-3.4 3.3-5.2 5-1 .2-1.7.9-2 1.9-3.4 3.1-7 6.2-10.3 8.7-.9-.1-1.7.5-1.9 1.4-.2.1-.4.3-.6.4-2.2 1.5-3.2 4.1-2.7 6.7.2.8.5 1.5.9 2.2-.9 1.4-1.2 3.1-.9 4.8.5 2.6 2.5 4.6 5.1 5.2l3.2.7c8 1.8 22.5 5 31.1 7.5-1 3.5-2 7.2-3.1 10.9-.4-.9-1.2-1.6-2.3-1.8-1.6-.2-3.1.9-3.4 2.5-.2 1.6.9 3.1 2.5 3.4.8.1 1.5-.1 2.1-.5-2.2 7.5-4.2 14.5-5.5 18.8-.6.1-1.1.6-1.2 1.2 0 .5.1.9.5 1.2-.4 1.2-.6 2-.6 2-.5 1.7-.3 3.6.6 5.1-.3 1.2-.6 1.8-.6 1.9-.8 2.7.2 5.6 2.4 7.2.9.6 1.9 1 2.9 1.2 1.6.3 3.3-.1 4.8-1.1 12.4-8.4 33.4-16.6 45.4-20.3-.3 2.4 1.3 4.6 3.7 4.9 1.5.2 3-.3 3.9-1.4 1 2.9 1.8 6 2.4 8.9-.1.2-.1.4-.2.6-.2 1.1.2 2.2.8 3.1.6 3.8.8 7.1.8 9 0 2.3 1.3 4.5 3.2 5.6.7.4 1.5.7 2.3.8 1.4.2 2.9 0 4.1-.7 0 0 .5-.3 1.4-.7h.2c1.7.3 3.2-.6 3.8-2.1 8.2-4.1 24.3-11.8 38-16.1 14.2 14.5 26.8 32.7 26.9 32.9 1 1.5 2.6 2.5 4.4 2.8.2 0 .5.1.8.1 2.1.1 4.1-.8 5.4-2.4 5.4-6.6 21.1-24.1 31.7-30.5 6.2 1.3 16.4 4.5 26.7 8.3-.5.5-.9 1.1-1 1.9-.3 1.9.9 3.6 2.7 4 1.9.4 3.7-.9 4-2.8.1-.3.1-.6 0-.9 8.2 3.2 15.9 6.6 21.1 9.5.7.4 1.5.6 2.2.8 2 .3 4-.3 5.6-1.7 2.1-2 2.7-5.1 1.4-7.7-.1-.2-.2-.5-.3-.7.7-1.1 1-2.3.9-3.6.3.2.6.3 1 .3 1.4.2 2.7-.8 2.9-2.2.2-1.4-.8-2.7-2.2-2.9-1.2-.2-2.2.4-2.7 1.4-1.9-4-3-8.2-3.8-12 4.4.3 10.4.8 17.4 1.7-.4.4-.7.9-.8 1.5-.2 1.4.8 2.9 2.2 3.1 1.4.2 2.9-.8 3.1-2.2.1-.6-.1-1.3-.4-1.8 1.4.2 2.9.4 4.3.7 6.8 1.1 13.5 2.4 20 3.9.2 0 .3.1.5.1 2.7.4 5.3-.8 6.7-3.1 1.3-2.2 1.2-4.8-.1-6.9 0 0 0-.1.1-.1 1.5-2.5 1.2-5.6-.7-7.8-4.8-5.4-8.6-13.5-11.2-20.6 4.1-1 10.1-2.1 18.3-3.1 4.3-.5 8.3-.8 11.8-1.1-.4.2-.7.6-.8 1.1-.1.9.3 1.4 1 1.5.9.1 1.6-.3 1.7-1.1s-.2-1.4-1-1.6c5.9-.4 10-.4 11.1-.2 3.2.5 6.3-1.5 7.3-4.6.9-1.8.6-3.8-.4-5.4zM116.6 33.6c-2.5-.8-4-1.3-4.3-1.4-.3-.1-.6-.2-.9-.2s-.6-.1-.9-.1c0-.1-.1-.3-.1-.4 0 .1 2.4.8 6.2 2.1zM6.7 96.6c-.1 0 25.8-8.1 43.4-11.7 0 .1 0 .2.1.2-15.2 3-36.8 9.4-43.5 11.5zM51 54.2c-1-.2-1.8-.3-2.4-.3h-.5c-.1-.1-.1-.3-.2-.4.5.1 1.2.1 2.1.3 10.1 1.6 41.1 8.6 56.2 11.2v.3c-7.4-1.3-18.1-3.6-28.6-5.7-11-2.4-21.4-4.6-26.6-5.4zm132.5-18.7l.2-.4s.2.1.5.4h-.7zm20.9 11.8c.6-.1 1.1-.3 1.6-.6-.4.4-.8.8-1.3 1.2-.1-.3-.2-.5-.3-.6zm90.5-30.8l-.4.4c-11 .3-24 2.8-36.9 7.1 13.7-4.8 26.9-7.3 37.3-7.5zm-19.1 40.8c-.5 0-1.1.1-1.6.2-1.8.5-5.1 1.4-8.9 2.5 0 0 0-.1.1-.1 5.5-1.7 10.5-3 10.5-3s0 .1-.1.4zm5.3 15.6v-.4c14.8-1.2 26.7-4.6 39.6-7.6-.1.1-.1.3-.2.4-.4 0-.9.1-1.3.2-2.2.5-4.4 1.1-6.5 1.6-10.3 2.4-20 4.8-31.6 5.8zm37.7 25.9c-.8-.1-1.6-.3-2.4-.4 0-.1.1-.2.1-.3.4.1.9.1 1.3.2 8.5 1.3 17 1.8 31.8 2-.4 0-.8.2-1.2.4-14.4-.2-22-.7-29.6-1.9z"/>
		<path d="M312.2 195.2c6.3 1 13.2 2.3 20.4 4-11-12.5-16.3-35.2-16.3-35.2 9-5.7 47-8.6 53.1-7.7-24-11.9-34.2-17.5-49-27 3.3-6.6 23.6-28.4 29.2-28.9-14.8-.2-23.4-.7-31.8-2-3.1-.5-6.2-1.1-9.6-1.9 2.6-10.4 6.3-21.1 12.6-31.6-14.6 3.5-27.9 7.4-45.6 8-2-7 .7-16 .7-16s-19.1 5-23.6 7.9c3.2-20.1 39.8-45.1 42.5-48.3-25.1.5-67.6 14.3-91.8 42.7-3.9-12.2-19.4-24.1-19.4-24.1s-9.4 20-13.2 24.3c-22.9-16.6-60-27.8-60-27.8 5 19.1 1.3 34.2 1.3 34.2-.8-.1-1.7-.2-2.8-.4-13.7-2.2-48.2-10-59-11.7-.8-.1-1.5-.2-2.1-.3 5.8 11.2 11.3 30.4 9.5 30.1-16.5 2.3-50.8 13-50.8 13 17.1 8.1 40.7 19.9 40.7 19.9s-18.7 20.3-31.8 29.4c13.8 3.1 37.2 8.1 42.5 11.2-3.7 15.1-14.2 50.1-14.2 50.1 17.6-12 52.5-23.9 57.9-23.5 9.3 12.2 9.4 33.7 9.4 33.7s27.8-14.8 48.4-20.5c15.9 15.5 30.4 36.6 30.4 36.6s21.6-26.1 35.7-33.3c11.3 1.8 43.5 13.2 57.9 21.3-6.7-14-6.1-29.6-6.1-29.6s14.6.2 34.9 3.4z" fill="#fff"/>
	</symbol>
	<symbol id="stars" viewBox="0 0 64 68">
		<path d="M0 55.9l7-2.5 2-7.3 4.5 6 7.5-.4-4.2 6.1 2.7 7-7.2-2.1-5.8 4.7-.2-7.5zM28.5 35.5l4.6-13-8-11.2 13.8.4L47 .6l3.9 13.2L64 18.1l-11.4 7.8v13.8l-11-8.4z"/>
	</symbol>
	<symbol id="txt-gym-1" viewBox="0 0 152 84">
		<path d="M125 23.7l-3.7-2.7c-.7-.5-1.5-.7-2.3-.7h-.6c-.1-.6-.2-1.1-.3-1.7h4.1c2.2 0 4-1.8 4-4v-3.9c0-1.7-1-3.1-2.4-3.7-1.4-1.7-2.4-3-3.3-3.9-.8-.8-1.8-1.2-2.9-1.2-.6 0-1.2.1-1.8.4-.7-.5-1.5-.8-2.5-.8h-4.2c-1.1 0-2.1.4-2.9 1.2-.8.8-1.2 1.8-1.1 2.9v1.1H93.8c-2.2 0-4 1.8-4 4v2.6c-.5-.2-1.1-.4-1.7-.4H63.4c-1.1 0-2 .4-2.7 1.1v-.3c1-.7 1.6-1.9 1.6-3.2V7.3c0-2.2-1.8-4-4-4h-4.7C52.9 2.5 52 2 51 1.9l-3.6-.5h-.6c-1.4 0-2.7.8-3.4 2h-2.8c-.6-.9-1.5-1.4-2.5-1.5l-3.7-.5h-.6c-1.6 0-3 .9-3.7 2.4-.8 1.9-2 3.4-3.6 4.7-1 .8-1.6 2.1-1.5 3.4.1 1.3.9 2.5 2 3.1l.2.1v1.8c0 1 .4 2 1.1 2.7L27 26.5v.8c-.6.4-1 .9-1.3 1.6-.6 1.2-.5 2.6.2 3.7l2.2 3.8c.7 1.3 2.1 2 3.5 2 .5 0 1-.1 1.4-.3 2-.8 3.7-1.6 5.3-2.4.4 1.8 2 3.2 3.9 3.2h4.1c1.4 0 2.7-.7 3.4-1.8.8 0 1.6.1 2.5.1 2.5 0 5.7-.3 7.5-2.5 1.1-1.3 1.8-3.4 1.9-9.5.6.3 1.2.5 1.9.5h24.8c1.3 0 2.4-.6 3.1-1.5.3.5.7.9 1.2 1.2-.8.2-1.5.7-2 1.4-.7.9-1 2.1-.8 3.2l.8 4.1c.4 1.9 2 3.3 3.9 3.3h.5c6.5-.8 11.6-1.8 15.4-2.9 1.9 2.9 4.3 4.4 7.2 4.4 3.2 0 7.4-1.9 8.9-11 .3-1.8-.3-3.3-1.5-4.2zM27.1 60.6H33v2.2h-5.9zM27.1 65.8H33v2.4h-5.9zM27.1 55.6H33v2.1h-5.9zM60.7 62.5H65v3.2h-4.3zM60.7 55.9H65v2.8h-4.3zM60.7 69.4H65v3.5h-4.3zM98.7 55.9c.4 4 1.4 7.4 2.9 10.2 1.5-3.5 2.3-7.3 2.3-11.2H99l-.3 1z"/>
		<path d="M150.6 67.6c-.2-1.1-.9-2.1-1.8-2.7-1.2-.7-2.1-1.6-2.6-2.7.6-.2 1.1-.4 1.7-.6 1.1-.4 2-1.3 2.3-2.4.4-1.1.3-2.3-.3-3.3l-.8-1.3c.4-1.1.3-2.3-.3-3.3l-.4-.7c.1-.2.1-.3.2-.5.4-1.1.2-2.4-.4-3.4l-1.8-2.8c-.7-1.2-2-1.9-3.4-1.9-.5 0-1 .1-1.5.3-2.3.9-4.8 1.6-7.5 2.1-.7-1.2-2-2.1-3.5-2.1h-14.7c-2.2 0-4 1.8-4 4v1c-.5-.3-1.1-.4-1.8-.4h-4.4c.2-1-.1-2-.7-2.9-.6-.9-1.7-1.6-2.8-1.7l-4.6-.6H97c-2 0-3.7 1.5-4 3.5-.1.4-.2 1.1-.5 2h-.2c-.1-.2-.2-.3-.4-.4-1.9-1.9-3.9-3.4-6.2-4.7-.6-.3-1.3-.5-1.9-.5-.7 0-1.4.2-2.1.6l-3.6 2.2c-1.1.7-1.8 1.8-1.9 3.1-.5.2-.9.4-1.3.7-.4-.1-.8-.2-1.2-.2h-.6c-.8-1.7-1.6-3.2-2.5-4.6-.8-1.1-2-1.8-3.3-1.8-.3 0-.6 0-.9.1l-3.3.8-4.1-.8c-.2 0-.5-.1-.7-.1-1.7 0-3.2 1.1-3.8 2.6-.6-1.5-2-2.6-3.8-2.6h-4.3c-2.2 0-4 1.8-4 4v2.2h-.3v-1.2c0-2.2-1.8-4-4-4H22.9c-.4 0-.7 0-1.1.1H6c-2.2 0-4 1.8-4 4v3.9c0 1.2.5 2.2 1.3 2.9-.3.5-.6 1-1 1.4-1.1 1.3-1.2 3.2-.2 4.6.4.7.9 1.4 1.2 2-.7.7-1.1 1.7-1.1 2.8v3.8c0 .8.2 1.6.7 2.2-.2.2-.4.4-.6.7-.7.9-1 2.1-.7 3.2l.9 4.5c.4 1.9 2 3.2 3.9 3.2h.5c4.6-.6 8.7-1.3 12.2-2 .1 0 .1.1.2.1l4.1 2.3c.6.3 1.3.5 1.9.5 1 0 1.9-.4 2.7-1 .8-.7 1.5-1.5 2.2-2.3.1.3.3.6.4 1 .6 1.5 2.1 2.4 3.7 2.4.4 0 .8-.1 1.2-.2l4.3-1.4c1.2-.4 2.1-1.3 2.5-2.4.4-1.2.3-2.4-.4-3.5-.3-.5-.6-.9-.8-1.3.4.3.9.5 1.5.6h.1v4.2c0 2.2 1.8 4 4 4H51c1 0 1.9-.4 2.6-1 .7.6 1.6 1 2.6 1h4.6c1.3 0 2.5-.7 3.3-1.7h10.5c.9 0 1.8-.3 2.4-.9l.7.9c.8.9 1.9 1.4 3.1 1.4h.2c.9 0 1.7-.4 2.4-.9.2.1.4.1.7.1.6.1 1.4.1 2.3.1 2.4 0 4.2-.4 5.5-1.1.8 1.2 2 1.8 3.3 1.8.6 0 1.2-.1 1.8-.4 1.1-.6 2.4-1.5 4.2-3l.3-.3c1.3 1.2 2.8 2.3 4.4 3.2.6.4 1.3.5 2 .5 1.4 0 2.7-.7 3.5-2l.7-1.3c.6.7 1.3 1.3 2.3 1.5.3.1.6.1.9.1h.3c.7 1.1 1.9 1.8 3.3 1.8h4.2c1 0 1.9-.3 2.6-.9.6.3 1.2.5 1.9.5h.2c4.5-.2 8.2-.5 11.3-.9.4.4.9.7 1.4 1 .5.2 1 .3 1.5.3s1.1-.1 1.6-.3l3.8-1.7c1.1-.5 1.9-1.3 2.2-2.4.4-1.1.2-2.3-.4-3.3-.4-.6-.8-1.3-1.2-1.9l1.8-2.3c.7-.9 1-2.1.8-3.2zm-4.3-9.7c-3.6 1.4-7.9 2.5-12.9 3.4L132 58c4.6-.5 8.8-1.5 12.5-3.1l1.8 3zm-12.6 4.2c-.7 3.7-2 6.8-3.9 9.2l-4-2.4c.8-.7 1.6-1.9 2.4-3.5.8-1.5 1.4-2.9 1.6-4l3.9.7zm-.5-5.6l-1.4-3.3c4.5-.5 8.4-1.5 11.8-3l1.7 2.9c-4.3 1.7-8.3 2.8-12.1 3.4zm9.8-10.6l1.8 2.8c-4.5 1.7-8.5 2.8-12.2 3.2l-1.5-3.2c4.3-.4 8.3-1.4 11.9-2.8zm-27.2.3h14.7v2.6h-10.4v.7h10.1v1.8h-10.1v.7h10.1v1.9h-10.1v.8h11.6v2.7H129c.9 1.2 1.7 2.4 2.2 3.3l-3.6 1.1-.4-.9c-2.1.3-6.2.6-12.3 1.1l-.7-3.1h2.1l.8-1.4h-3.6v-2.7h2.4v-8.6zM110 66.8v.8c0 .7.2 1.4.5 1.9-.4-.2-.8-.5-1.2-.8.2-.5.5-1.2.7-1.9zM67.5 45.5c1 1.4 1.9 3.1 2.7 5.1l-4.1 1.2c-.5-1.9-1.3-3.7-2.3-5.4l3.7-.9zM22.6 62.1l-3.3 1.6c-.8-2.1-2-4.1-3.6-6.3 1.5-2.2 2.6-4.3 3.1-6.4l3.6 1.2c-.5 1.5-1.5 3.3-2.8 5.2.8 1.1 1.8 2.6 3 4.7zm-5.2.1l-3.5 1.6c-.7-2-1.8-4.2-3.4-6.4 1.4-1.9 2.4-4 3-6.4l3.6 1.2c-.7 2-1.6 3.7-2.7 5.2 1.1 1.5 2.1 3.1 3 4.8zM6 46.7h16v3.9H6v-3.9zm2.6 4.2l3.5 1.1c-.7 2-1.6 3.8-2.7 5.4 1.1 1.5 2 3.2 2.8 5L8.6 64c-.5-2-1.6-4.2-3.2-6.6C7 55.5 8 53.3 8.6 50.9zm-2.3 27l-.9-4.5c2.7-.2 4.9-.4 6.5-.6v-4.7H6.1v-3.8h15.7v3.8h-5.5v4c1.9-.3 3.9-.6 6-1.1v4c-4.2 1-9.5 2-16 2.9zm18.9.8l-4.1-2.3c1.9-1.3 3.4-2.9 4.4-4.8l3.9 1.1c-1 2.4-2.4 4.3-4.2 6zm-2.1-7.2V52.2h4.2l.8-2h-5.2v-3.7h15.3v3.7h-5.9l-.8 2h5.6v19.3h-14zm11.1 7.2c-1-2.3-2.1-4.3-3.6-6.1l3.7-.9c1.3 1.3 2.6 3.2 4.1 5.6l-4.2 1.4zM74.5 77H60.7v1.7h-4.6V59.3l-1.5 2.1-2.4-3.8 1.5-1.8h-2.9v2.7c1.9 1.5 3.4 2.9 4.5 4.2l-2.1 3.9c-.5-.9-1.3-2-2.4-3.4v15.3h-4.3V64c-.8 2.5-1.9 4.6-3.4 6.5l-1.9-5.1c.8-.8 1.8-2.2 2.9-4.1 1.1-1.9 1.9-3.7 2.3-5.4h-4.8v-4.1h4.9v-6.2h4.3v6.2h3.7V55c2-3.4 3.3-6.5 3.8-9.4l4.1.8c-.4 2.1-1 3.9-1.7 5.5h13.1v4h-5v2.8H73v3.8h-4.2v3.2H73v3.8h-4.2V73h5.5v4zm33.3 1.5c-2.6-1.5-4.7-3.3-6.3-5.5-.5.8-1.5 1.8-3 3s-2.6 2-3.4 2.5L92.3 74c1.1-.4 2.4-1.2 3.8-2.1 1.4-1 2.3-1.7 2.6-2.3-.5-.8-1.2-2.2-1.9-4.2s-1.1-3.5-1.2-4.4c0 .3-.5 1.2-1.6 2.9l-1.4-3.4c0 8.4-.3 13.4-.9 15-.7 1.6-2.5 2.4-5.5 2.4-.8 0-1.4 0-1.9-.1l-.8-4.4c1 .2 1.9.2 2.7.2.9 0 1.5-.4 1.7-1.1.2-.7.3-1.8.4-3.1.1-1.4.1-3 .1-4.9v-1.8h-3.2c-.1 2.8-.6 5.7-1.4 8.8-.9 3.1-1.9 5.4-3 7l-3.4-4.1c2.4-3.3 3.6-8.7 3.6-16.2v-3.1h-3.2v-4h6.6c-1-1.1-2.3-2.3-3.9-3.4l3.6-2.2c1.9 1.1 3.7 2.4 5.3 4L87 51.1h6.9v4h-8.5v3.6h6.5c1.2-1.5 2.4-3.7 3.4-6.6 1.1-2.9 1.7-5 1.9-6.5l4.6.6c-.4 1.7-.8 3.2-1.3 4.6h9.6v4.1h-1.8c-.1 2.1-.5 4.7-1.2 7.7s-1.6 5.4-2.7 7.2c0 .2.7.8 2.2 1.9 1.5 1.1 2.8 1.8 3.9 2.3l-2.7 4.5zm15.3-6.5v6.6h-4.2v-6c-.5 1.3-1.8 2.7-3.7 4.2l-1.9-4c2.6-1.3 4.4-3 5.4-5.3H114V64h4.9v-2.2h4.2V64h3.8v3.5h-3.8v.6c1.9.9 3.5 1.8 4.7 2.6l-1.9 3.5c-.8-.6-1.7-1.4-2.8-2.2zm18.8 6.6c-.4-1.1-.8-1.7-.9-1.7-3.2.6-7.7 1.1-13.4 1.3l-.8-4h2.8c2-2.4 3.4-5.1 4.1-8.2l4.3 1.3c-1 2.5-2.3 4.7-3.9 6.7 1.8 0 3.4-.2 5-.4-.6-1-1.2-1.9-1.8-2.7l3.4-1c1.7 2 3.4 4.3 4.9 6.9l-3.7 1.8zm1.9-6.7c-2.4-1.9-4-4.3-4.9-7h-3.8v-3.4h6.5c.7 2.9 2.4 5.2 5.1 6.9l-2.9 3.5z"/>
		<path d="M125.3 57.4h-4.1l-.8 1.3 5.6-.3z"/>
		<path d="M50.4 5.8l-3.6-.5c-.4 1.7-1.3 3.2-2.5 4.7V7.3h-7.6l.8-1.5-3.7-.5c-1 2.4-2.6 4.5-4.8 6.3l3.6 2c.9-.9 1.7-1.9 2.2-3.1h1.7c.4 1 .6 1.9.7 2.7l3.8-.5c-.1-.4-.5-1.2-1-2.3h4l-1.3 1.4 3.8 1.7c.8-.9 1.4-1.9 1.9-3H50c.4 1 .6 1.9.7 2.7l3.8-.5c-.3-.8-.6-1.5-1-2.2h4.7V7.3h-8.4l.6-1.5zM52 29.6c-.7 0-1.6-.1-2.7-.2l.5 3.6c.7 0 1.5.1 2.3.1 2.4 0 3.9-.4 4.5-1.1.6-.7.9-3.4.9-7.9H46.2V22h10.5v-8.3H31.4V17h10.7v1.8h-9.4L31 27.3h6.4c-2.2 1.6-4.9 2.7-8.2 3.3l2.2 3.8c5.1-2 8.7-4.3 10.6-6.8v7.3h4.1v-7.5h7c0 1.1-.1 1.8-.3 2s-.4.2-.8.2zm-5.8-12.7h6.4v1.8h-6.4v-1.8zM42.1 24h-6.3l.4-2.1h5.9V24zM63.4 16.9h24.8v4.7H63.4zM109.6 30.3v-4c-1.6.5-3.6 1-5.9 1.4v-5.8h5.1V18H94.6v3.8h4.9v6.6c-2.1.3-4 .6-5.8.7l.8 4.1c6.4-.9 11.4-1.8 15.1-2.9z" fill="#fbd528"/>
		<path d="M112.1 28.6c1.5 4 3.3 6 5.5 6 2.5 0 4.1-2.5 5-7.6l-3.7-2.7c-.3 3.7-.8 5.6-1.3 5.6-.6 0-1.4-1.6-2.3-4.8-.9-3.2-1.4-6.7-1.7-10.4h8.5v-3.9h-3.6l2-1.2c-1.3-1.6-2.3-2.8-3.1-3.7l-2.9 1.6c1 1.1 1.8 2.2 2.3 3.3h-3.5l-.2-5.3h-4.2l.2 5.3H93.8v3.9h15.8c.3 5.2 1.1 9.9 2.5 13.9z" fill="#fbd528"/>
	</symbol>
	<symbol id="txt-gym-2" viewBox="0 0 152 84">
		<path d="M124.3 23.7l-3.7-2.7c-.7-.5-1.5-.7-2.3-.7h-.6c-.1-.6-.2-1.1-.3-1.7h4.1c2.2 0 4-1.8 4-4v-3.9c0-1.7-1-3.1-2.4-3.7-1.4-1.7-2.4-3-3.3-3.9-.8-.8-1.8-1.2-2.9-1.2-.6 0-1.2.1-1.8.4-.7-.5-1.5-.8-2.5-.8h-4.2c-1.1 0-2.1.4-2.9 1.2-.8.8-1.2 1.8-1.1 2.9v1.1H93.2c-1.7 0-3.1 1.1-3.7 2.6-.4-1.7-2-3-3.9-3H65c-1.5 0-2.8.8-3.5 2v-1c0-2.2-1.8-4-4-4h-4.7c-.6-.8-1.5-1.3-2.5-1.4l-3.6-.5h-.6c-1.4 0-2.7.8-3.4 2h-2.8c-.6-.8-1.5-1.3-2.5-1.4l-3.7-.5h-.6c-1.6 0-3 .9-3.7 2.4-.8 1.9-2 3.4-3.6 4.7-1 .8-1.6 2.1-1.5 3.4.1 1.3.9 2.5 2 3.1l.2.1V17c0 1 .4 2 1.1 2.7l-1.4 6.9c-.1.2-.1.5-.1.8-.6.4-1 .9-1.3 1.6-.6 1.2-.5 2.6.2 3.7l2.2 3.8c.7 1.3 2.1 2 3.5 2 .5 0 1-.1 1.4-.3 2-.8 3.7-1.6 5.3-2.4.4 1.8 2 3.2 3.9 3.2h4.1c1.4 0 2.7-.7 3.4-1.8.8 0 1.6.1 2.5.1 2.5 0 5.7-.3 7.5-2.5.2-.2.4-.5.6-.8.6.4 1.4.7 2.2.7h27.1c.4 0 .8-.1 1.2-.2.5 1.7 2.1 2.9 3.8 2.9h.5c6.5-.8 11.6-1.8 15.4-2.9 1.9 2.9 4.3 4.4 7.2 4.4 3.2 0 7.4-1.9 8.9-11 .5-1.8-.2-3.3-1.4-4.2zm-62.6-1.9c-.5 0-1 .1-1.5.3-.1-.1-.2-.3-.3-.4v-8c.4-.3.8-.7 1-1.2v2.3c0 2.2 1.8 4 4 4h20.5c1.8 0 3.3-1.2 3.8-2.8.2.5.4.9.7 1.3.1.1.1.4.1.7v3.9c-.4-.1-.7-.2-1.1-.2H61.7zM10.4 66.6h2.5v5.1h-2.5zM10.4 50.5h2.5v4.4h-2.5zM10.4 58.3h2.5V63h-2.5zM23.5 50.5h8v2.4h-8zM23.5 56.5h8V59h-8zM46.6 68.5h7.3V73h-7.3zM98 55.9c.4 4 1.4 7.4 2.9 10.2 1.5-3.5 2.3-7.3 2.3-11.2h-4.9l-.3 1z"/>
		<path d="M149.9 67.6c-.2-1.1-.9-2.1-1.8-2.7-1.2-.7-2.1-1.6-2.6-2.7.6-.2 1.1-.4 1.7-.6 1.1-.4 2-1.3 2.3-2.4.4-1.1.3-2.3-.3-3.3l-.8-1.3c.4-1.1.3-2.3-.3-3.3l-.4-.7c.1-.2.1-.3.2-.5.4-1.1.2-2.4-.4-3.4l-1.8-2.8c-.7-1.2-2-1.9-3.4-1.9-.5 0-1 .1-1.5.3-2.3.9-4.8 1.6-7.5 2.1-.7-1.2-2-2.1-3.5-2.1h-14.7c-2.2 0-4 1.8-4 4v1c-.5-.3-1.1-.4-1.8-.4H105c.2-1-.1-2-.7-2.9-.6-.9-1.7-1.6-2.8-1.7l-4.6-.6h-.5c-2 0-3.7 1.5-4 3.5-.1.4-.2 1.1-.5 2h-.2c-.1-.2-.2-.3-.4-.4-1.9-1.9-3.9-3.4-6.2-4.7-.6-.3-1.3-.5-1.9-.5-.7 0-1.4.2-2.1.6l-3.6 2.2c-.4.2-.7.5-.9.8-.7-1.2-2-2.1-3.5-2.1H60.4c-1.4 0-2.6.7-3.3 1.8H55c-.3-.5-.6-1-1-1.6-.8-1.1-2-1.7-3.3-1.7h-.6l-4.9.8c-1.4.2-2.6 1.1-3.1 2.4h-.9c-.7 0-1.3.2-1.9.5-.6-1.4-2-2.5-3.7-2.5H19.2c-.3 0-.6 0-.9.1-.3-.1-.7-.1-1-.1H6.1c-2.2 0-4 1.8-4 4v31c0 2.2 1.8 4 4 4h4.3c.5 0 1-.1 1.5-.3.3.1.7.1 1.1.1h3.7c.6.4 1.4.6 2.2.6.3 0 .7 0 1-.1 2.7-.7 5.9-1.7 9.3-3 1 1 2.1 2 3.3 2.8.7.5 1.5.8 2.3.8 1.2 0 2.4-.6 3.2-1.6l.5-.7c.6 1.4 2 2.3 3.6 2.3h4.5c1.3 0 2.5-.7 3.3-1.7h1c.7.8 1.8 1.3 3 1.3h4.8c.5.2 1.1.4 1.7.4h4.5c2 0 3.7-1.5 4-3.5 2-.1 3.7-.8 5.1-1.8l3 3.6c.8.9 1.9 1.4 3.1 1.4h.2c.9 0 1.7-.4 2.4-.9.2.1.4.1.7.1.6.1 1.4.1 2.3.1 2.4 0 4.2-.4 5.5-1.1.8 1.2 2 1.8 3.3 1.8.6 0 1.2-.1 1.8-.4 1.1-.6 2.4-1.5 4.2-3l.3-.3c1.3 1.2 2.8 2.3 4.4 3.2.6.4 1.3.5 2 .5 1.4 0 2.7-.7 3.5-2l.7-1.3c.6.7 1.3 1.3 2.3 1.5.3.1.6.1.9.1h.3c.7 1.1 1.9 1.8 3.3 1.8h4.2c1 0 1.9-.3 2.6-.9.6.3 1.2.5 1.9.5h.2c4.5-.2 8.2-.5 11.3-.9.4.4.9.7 1.4 1 .5.2 1 .3 1.5.3s1.1-.1 1.6-.3l3.8-1.7c1.1-.5 1.9-1.3 2.2-2.4s.2-2.3-.4-3.3c-.4-.6-.8-1.3-1.2-1.9l1.8-2.3c.7-.7 1-1.9.8-3zM41.3 48.8h6.3c-.2-.5-.8-1.3-1.7-2.5l4.9-.8c.8 1.2 1.4 2.3 1.8 3.3h6.5v4.1H41.3v-4.1zm-6.6 29.9c-2.7-2-4.9-4.4-6.5-7.4-1.6-3-2.6-5.8-2.8-8.5h-2v9.4c1.7-.4 3.2-.9 4.4-1.4v4.6c-3.4 1.3-6.5 2.3-9.1 3L17.2 74v3.7h-4.3v-2.3h-2.5v2.4H6.1v-31h11.2v26.7l1.9-.4V46.8h16.5v15.9h-6c.1.9.5 2.2 1.1 4 1.5-.9 2.7-2.2 3.7-3.7l3 3.2c-1.4 1.6-3 3-4.6 4 1 1.6 2.7 3.1 5 4.4l-3.2 4.1zm23.7-.4h-4.5V77h-7.3v1.7h-4.5V64.6h16.3v13.7zm1.2-15.9H40.7v-4.2h3.9c-.3-1.1-1-2.5-2.1-4.3l4.5-1c1.1 1.9 1.8 3.6 2.3 5.3h2.2c.9-1.7 1.6-3.5 2-5.3l4.4 1.2c-.6 1.7-1.2 3-1.9 4.1h3.7v4.2zm86.1-4.5c-3.6 1.4-7.9 2.5-12.9 3.4l-1.4-3.3c4.6-.5 8.8-1.5 12.5-3.1l1.8 3zM133 62.1c-.7 3.7-2 6.8-3.9 9.2l-4-2.4c.8-.7 1.6-1.9 2.4-3.5.8-1.5 1.4-2.9 1.6-4l3.9.7zm-.5-5.6l-1.4-3.3c4.5-.5 8.4-1.5 11.8-3l1.7 2.9c-4.2 1.7-8.3 2.8-12.1 3.4zm9.8-10.6l1.8 2.8c-4.5 1.7-8.5 2.8-12.2 3.2l-1.5-3.2c4.3-.4 8.3-1.4 11.9-2.8zm-27.2.3h14.7v2.6h-10.4v.7h10.1v1.8h-10.1v.7h10.1v1.9h-10.1v.8H131v2.7h-2.7c.9 1.2 1.7 2.4 2.2 3.3l-3.6 1.1-.4-.9c-2.1.3-6.2.6-12.3 1.1l-.7-3.1h2.1l.8-1.4h-3.6v-2.7h2.4v-8.6zm-6.5 22.6c.2-.6.5-1.3.7-2v.8c0 .7.2 1.4.5 1.9-.4-.2-.8-.4-1.2-.7zm-34.1-9.1c.1-.4.2-.8.4-1.2.4.3.8.4 1.3.5 0 1.3-.1 2.5-.2 3.6-.4-1-.9-1.9-1.5-2.9zm-6.6 15.5c-.5 0-1 0-1.4-.1l-.9-4.6c.7.1 1.4.2 2 .2 1.1 0 1.7-.6 1.7-1.8 0-2.3-1.2-5.1-3.5-8.5 1.4-3.6 2.4-6.8 3-9.6H65v27.9h-4.5V47h12.8v2.9c-.1.3-.2.7-.2 1-.8 3.1-1.8 6.2-3 9.3 2.3 3 3.4 6.1 3.4 9.2 0 3.9-1.9 5.8-5.6 5.8zm39.2 3.3c-2.6-1.5-4.7-3.3-6.3-5.5-.5.8-1.5 1.8-3 3s-2.6 2-3.4 2.5L91.6 74c1.1-.4 2.4-1.2 3.8-2.1 1.4-1 2.3-1.7 2.6-2.3-.5-.8-1.2-2.2-1.9-4.2S95 61.9 94.9 61c0 .3-.5 1.2-1.6 2.9L92 60.4c0 8.4-.3 13.4-.9 15-.7 1.6-2.5 2.4-5.5 2.4-.8 0-1.4 0-1.9-.1l-.8-4.4c1 .2 1.9.2 2.7.2.9 0 1.5-.4 1.7-1.1.2-.7.3-1.8.4-3.1.1-1.4.1-3 .1-4.9v-1.8h-3.2c-.1 2.8-.6 5.7-1.4 8.8-.9 3.1-1.9 5.4-3 7l-3.4-4.1c2.4-3.3 3.6-8.7 3.6-16.2V55H77v-4h6.6c-1-1.1-2.3-2.3-3.9-3.4l3.6-2.2c1.9 1.1 3.7 2.4 5.3 4L86.2 51h6.9v4h-8.5v3.6h6.5c1.2-1.5 2.4-3.7 3.4-6.6 1.1-2.9 1.7-5 1.9-6.5l4.6.6c-.4 1.7-.8 3.2-1.3 4.6h9.6v4.1h-1.8c-.1 2.1-.5 4.7-1.2 7.7s-1.6 5.4-2.7 7.2c0 .2.7.8 2.2 1.9 1.5 1.1 2.8 1.8 3.9 2.3l-2.6 4.6zm15.3-6.5v6.6h-4.2v-6c-.5 1.3-1.8 2.7-3.7 4.2l-1.9-4c2.6-1.3 4.4-3 5.4-5.3h-4.8V64h4.9v-2.2h4.2V64h3.8v3.5h-3.8v.6c1.9.9 3.5 1.8 4.7 2.6l-1.9 3.5c-.7-.6-1.6-1.4-2.7-2.2zm18.8 6.6c-.4-1.1-.8-1.7-.9-1.7-3.2.6-7.7 1.1-13.4 1.3l-.8-4h2.8c2-2.4 3.4-5.1 4.1-8.2l4.3 1.3c-1 2.5-2.3 4.7-3.9 6.7 1.8 0 3.4-.2 5-.4-.6-1-1.2-1.9-1.8-2.7l3.4-1c1.7 2 3.4 4.3 4.9 6.9l-3.7 1.8zm1.9-6.7c-2.4-1.9-4-4.3-4.9-7h-3.8v-3.4h6.5c.7 2.9 2.4 5.2 5.1 6.9l-2.9 3.5z"/>
		<path d="M124.6 57.4h-4.1l-.8 1.3 5.6-.3z"/>
		<path d="M49.7 5.8l-3.6-.5c-.4 1.7-1.2 3.2-2.4 4.7V7.3h-7.6l.8-1.5-3.7-.5c-1 2.4-2.6 4.5-4.8 6.3l3.6 2c.9-.9 1.7-1.9 2.2-3.1h1.7c.4 1 .6 1.9.7 2.7l3.8-.5c-.1-.4-.5-1.2-1-2.3h3.8L42 11.8l3.8 1.7c.8-.9 1.4-1.9 1.9-3h1.6c.4 1 .6 1.9.7 2.7l3.8-.5c-.3-.8-.6-1.5-1-2.2h4.7V7.3h-8.4l.6-1.5zM51.3 29.6c-.7 0-1.6-.1-2.7-.2l.5 3.6c.7 0 1.5.1 2.3.1 2.4 0 3.9-.4 4.5-1.1.6-.7.9-3.4.9-7.9H45.5V22H56v-8.3H30.7V17h10.7v1.8H32l-1.7 8.6h6.4c-2.2 1.6-4.9 2.7-8.2 3.3l2.2 3.8c5.1-2 8.7-4.3 10.6-6.8V35h4.1v-7.5h7c0 1.1-.1 1.8-.3 2s-.3.1-.8.1zm-5.8-12.7h6.4v1.8h-6.4v-1.8zM41.4 24h-6.3l.4-2.1h5.9V24zM65 10.2h20.5v4.5H65zM61.7 25.8h27.1v4.7H61.7zM108.9 30.3v-4c-1.6.5-3.6 1-5.9 1.4v-5.8h5.1V18H94v3.8h4.9v6.6c-2.1.3-4 .6-5.8.7l.8 4.1c6.3-.9 11.3-1.8 15-2.9z" fill="#fbd528"/>
		<path d="M111.5 28.6c1.5 4 3.3 6 5.5 6 2.5 0 4.1-2.5 5-7.6l-3.7-2.7c-.3 3.7-.8 5.6-1.3 5.6-.6 0-1.4-1.6-2.3-4.8-.9-3.2-1.4-6.7-1.7-10.4h8.5v-3.9h-3.6l2-1.2c-1.3-1.6-2.3-2.8-3.1-3.7l-2.9 1.6c1 1.1 1.8 2.2 2.3 3.3h-3.5l-.2-5.3h-4.2l.2 5.3H93.2v3.9H109c.2 5.2 1 9.9 2.5 13.9z" fill="#fbd528"/>
	</symbol>
	<symbol id="txt-gym-3" viewBox="0 0 152 84">
		<path d="M124.3 23.7l-3.7-2.7c-.7-.5-1.5-.7-2.3-.7h-.6c-.1-.6-.2-1.1-.3-1.7h4.1c2.2 0 4-1.8 4-4v-3.9c0-1.7-1-3.1-2.4-3.7-1.4-1.7-2.4-3-3.3-3.9-.8-.8-1.8-1.2-2.9-1.2-.6 0-1.2.1-1.8.4-.7-.5-1.5-.8-2.5-.8h-4.2c-1.1 0-2.1.4-2.9 1.2-.8.8-1.2 1.8-1.1 2.9v1.1H93.2c-.9 0-1.8.3-2.4.9-.6-1.5-2-2.6-3.7-2.6H63.7c-.9 0-1.7.3-2.4.8-.6-1.4-2-2.4-3.7-2.4h-4.7c-.6-.8-1.5-1.3-2.5-1.4l-3.6-.5h-.6c-1.4 0-2.7.8-3.4 2H40c-.6-.8-1.5-1.3-2.5-1.4l-3.7-.5h-.6c-1.6 0-3 .9-3.7 2.4-.8 1.9-2 3.4-3.6 4.7-1 .8-1.6 2.1-1.5 3.4.1 1.3.9 2.5 2 3.1l.2.1v1.8c0 1 .4 2 1.1 2.7l-1.4 6.9c-.1.2-.1.5-.1.8-.6.4-1 .9-1.3 1.6-.6 1.2-.5 2.6.2 3.7l2.2 3.8c.7 1.3 2.1 2 3.5 2 .5 0 1-.1 1.4-.3 2-.8 3.7-1.6 5.3-2.4.4 1.8 2 3.2 3.9 3.2h4.1c1.4 0 2.7-.7 3.4-1.8.8 0 1.6.1 2.5.1 2.3 0 5.1-.3 7-2 .7.6 1.6 1 2.7 1h28.4c.5 0 1-.1 1.5-.3.7.8 1.8 1.3 2.9 1.3h.5c6.5-.8 11.6-1.8 15.4-2.9 1.9 2.9 4.3 4.4 7.2 4.4 3.2 0 7.4-1.9 8.9-11 .3-1.8-.3-3.3-1.6-4.2zm-35.3-7c.2-.1.4-.3.6-.4.1.3.3.6.5.9-.1.2-.1.5-.1.8v3.8c0 .7.2 1.4.6 2-.3-.1-.7-.2-1.1-.2h-.7c.2-.5.3-1 .3-1.6v-4.2c.1-.3 0-.7-.1-1.1zm-28.2 7c-.1-.8-.3-1.5-.8-2.1v-6.7c.4.8 1 1.4 1.7 1.8-.1.4-.2.8-.2 1.1V22c0 .6.1 1.1.3 1.6H61c0 .1-.1.1-.2.1zM62.8 60.5h5.9v2.1h-5.9zM62.8 65.7h5.9v2.4h-5.9zM62.8 55.6h5.9v1.9h-5.9zM53 49.7h1.6v3.8H53zM44.4 49.7h1.7v3.8h-1.7zM98.1 55.9c.4 4 1.4 7.4 2.9 10.2 1.5-3.5 2.3-7.3 2.3-11.2h-4.9l-.3 1zM124.6 57.4h-4.1l-.7 1.3 5.5-.3z"/>
		<path d="M149.9 67.6c-.2-1.1-.9-2.1-1.8-2.7-1.2-.7-2.1-1.6-2.6-2.7.6-.2 1.1-.4 1.7-.6 1.1-.4 2-1.3 2.3-2.4.4-1.1.3-2.3-.3-3.3l-.8-1.3c.4-1.1.3-2.3-.3-3.3l-.4-.7c.1-.2.1-.3.2-.5.4-1.1.2-2.4-.4-3.4l-1.8-2.8c-.7-1.2-2-1.9-3.4-1.9-.5 0-1 .1-1.5.3-2.3.9-4.8 1.6-7.5 2.1-.7-1.2-2-2.1-3.5-2.1h-14.7c-2.2 0-4 1.8-4 4v1c-.5-.3-1.1-.4-1.8-.4H105c.2-1-.1-2-.7-2.9-.6-.9-1.7-1.6-2.8-1.7l-4.6-.6h-.5c-2 0-3.7 1.5-4 3.5-.1.4-.2 1.1-.5 2h-.2c-.1-.2-.2-.3-.4-.4-1.9-1.9-3.9-3.4-6.2-4.7-.6-.3-1.3-.5-1.9-.5-.7 0-1.4.2-2.1.6l-3.6 2.2c-.2.1-.4.3-.6.5-.7-1.3-2-2.2-3.5-2.2H58.3c-.4 0-.7 0-1.1.1H41.5c-1.4 0-2.6.7-3.3 1.8-.6-.3-1.2-.5-1.9-.5H6c-2.2 0-4 1.8-4 4v4.6c0 2.2 1.8 4 4 4h6.8v22.1c0 2.2 1.8 4 4 4h5.1c2.2 0 4-1.8 4-4v-9.3c1.3.9 2.6 1.9 3.9 3 .7.6 1.6.9 2.5.9h.6c1.1-.2 2.1-.8 2.7-1.7l2-2.9c.4.5.9.9 1.5 1.1l-.1.2c-.4 1.2-.3 2.6.5 3.7.6.9 1.6 1.5 2.7 1.7L43 79c.4 1.7 1.8 2.9 3.5 3 .9.1 1.9.1 3 .1 3.1 0 5.2-.5 6.8-1.5l2.2 1.4c.7.4 1.4.6 2.1.6.8 0 1.6-.2 2.3-.7.9-.7 1.8-1.5 2.6-2.4.1.2.2.4.3.7.6 1.5 2.1 2.5 3.7 2.5.4 0 .8-.1 1.2-.2l4.3-1.3c.5-.2 1-.4 1.4-.8l.6.6c.8.9 1.9 1.4 3.1 1.4h.2c.9 0 1.7-.4 2.4-.9.2.1.4.1.7.1.6.1 1.4.1 2.3.1 2.4 0 4.2-.4 5.5-1.1.8 1.2 2 1.8 3.3 1.8.6 0 1.2-.1 1.8-.4 1.1-.6 2.4-1.5 4.2-3l.3-.3c1.3 1.2 2.8 2.3 4.4 3.2.6.4 1.3.5 2 .5 1.4 0 2.7-.7 3.5-2l.7-1.3c.6.7 1.3 1.3 2.3 1.5.3.1.6.1.9.1h.3c.7 1.1 1.9 1.8 3.3 1.8h4.2c1 0 1.9-.3 2.6-.9.6.3 1.2.5 1.9.5h.2c4.5-.2 8.2-.5 11.3-.9.4.4.9.7 1.4 1 .5.2 1 .3 1.5.3s1.1-.1 1.6-.3l3.8-1.7c1.1-.5 1.9-1.3 2.2-2.4s.2-2.3-.4-3.3c-.4-.6-.8-1.3-1.2-1.9l1.8-2.3c.7-.7 1-1.9.8-3zm-4.2-9.7c-3.6 1.4-7.9 2.5-12.9 3.4l-1.4-3.3c4.6-.5 8.8-1.5 12.5-3.1l1.8 3zm-12.6 4.2c-.7 3.7-2 6.8-3.9 9.2l-4-2.4c.8-.7 1.6-1.9 2.4-3.5.8-1.5 1.4-2.9 1.6-4l3.9.7zm-.6-5.6l-1.4-3.3c4.5-.5 8.4-1.5 11.8-3l1.7 2.9c-4.2 1.7-8.2 2.8-12.1 3.4zm9.8-10.6l1.8 2.8c-4.5 1.7-8.5 2.8-12.2 3.2l-1.5-3.2c4.4-.4 8.3-1.4 11.9-2.8zm-27.2.3h14.7v2.6h-10.4v.7h10.1v1.8h-10.1v.7h10.1v1.9h-10.1v.8H131v2.7h-2.7c.9 1.2 1.7 2.4 2.2 3.3l-3.6 1.1-.4-.9c-2.1.3-6.2.6-12.3 1.1l-.7-3.1h2.1l.8-1.4h-3.6v-2.7h2.4v-8.6zm-5.7 20.6v.8c0 .7.2 1.4.5 1.9-.4-.2-.8-.5-1.2-.8.2-.5.4-1.2.7-1.9zM50 46.7h7.5v9.7H50v-9.7zm7 11v3.4H42v-3.4h15zm-15.5-11H49v9.7h-7.5v-9.7zm-9.1 22.5c-3.6-2.9-7.1-5.3-10.4-7.1v16.6h-5.1V52.6H6V48h30.2v4.6H21.9v8.7l2.3-3c3.7 1.6 7.4 3.8 11.1 6.5l-2.9 4.4zm-2.6-12.6h6.5c.4 0 .8-.1 1.2-.2v.1c0 .7.2 1.4.5 1.9v1c-.5.4-.8 1-1 1.7-2.4-1.7-4.8-3.2-7.2-4.5zm26.1 16.9c-.4 1.9-1 3.1-1.7 3.7-.8.6-2.3.9-4.7.9-.9 0-1.8 0-2.6-.1l-1.1-4.3c2.1.2 3.6.4 4.5.4.7 0 1.3-.5 1.5-1.4.2-.5.3-1 .4-1.3h-9.4l2-5.4h-4v-3.7H58V66h-9.1l-.6 1.8h8.5c-.2 2-.5 3.8-.9 5.7zm4.8 5.2l-3.8-2.4c2-1.3 3.4-2.8 4.4-4.6l3.8 1.1c-1.2 2.7-2.7 4.6-4.4 5.9zm-2.1-7.2V52.2h4.2l.8-2h-5.4v-3.7h15.3v3.7h-5.7l-.8 2h5.7v19.3H58.6zm10.9 7.2c-1-2.3-2.1-4.3-3.4-6l3.7-.9c1.6 1.7 2.9 3.6 4 5.6l-4.3 1.3zm37.7-.2c-2.6-1.5-4.7-3.3-6.3-5.5-.5.8-1.5 1.8-3 3s-2.6 2-3.4 2.5L91.7 74c1.1-.4 2.4-1.2 3.8-2.1 1.4-1 2.3-1.7 2.6-2.3-.5-.8-1.2-2.2-1.9-4.2S95.1 61.9 95 61c0 .3-.5 1.2-1.6 2.9L92 60.4c0 8.4-.3 13.4-.9 15-.7 1.6-2.5 2.4-5.5 2.4-.8 0-1.4 0-1.9-.1l-.8-4.4c1 .2 1.9.2 2.7.2.9 0 1.5-.4 1.7-1.1.2-.7.3-1.8.4-3.1.1-1.4.1-3 .1-4.9v-1.8h-3.2c-.1 2.8-.6 5.7-1.4 8.8-.9 3.1-1.9 5.4-3 7l-3.4-4.1c2.4-3.3 3.6-8.7 3.6-16.2V55h-3.2v-4h6.6c-1-1.1-2.3-2.3-3.9-3.4l3.6-2.2c1.9 1.1 3.7 2.4 5.3 4L86.4 51h6.9v4h-8.5v3.6h6.5c1.2-1.5 2.4-3.7 3.4-6.6 1.1-2.9 1.7-5 1.9-6.5l4.6.6c-.4 1.7-.8 3.2-1.3 4.6h9.6v4.1h-1.8c-.1 2.1-.5 4.7-1.2 7.7s-1.6 5.4-2.7 7.2c0 .2.7.8 2.2 1.9 1.5 1.1 2.8 1.8 3.9 2.3l-2.7 4.6zm15.2-6.5v6.6h-4.2v-6c-.5 1.3-1.8 2.7-3.7 4.2l-1.9-4c2.6-1.3 4.4-3 5.4-5.3h-4.8V64h4.9v-2.2h4.2V64h3.8v3.5h-3.8v.6c1.9.9 3.5 1.8 4.7 2.6l-1.9 3.5c-.7-.6-1.6-1.4-2.7-2.2zm18.9 6.6c-.4-1.1-.8-1.7-.9-1.7-3.2.6-7.7 1.1-13.4 1.3l-.8-4h2.8c2-2.4 3.4-5.1 4.1-8.2l4.3 1.3c-1 2.5-2.3 4.7-3.9 6.7 1.8 0 3.4-.2 5-.4-.6-1-1.2-1.9-1.8-2.7l3.4-1c1.7 2 3.4 4.3 4.9 6.9l-3.7 1.8zm1.9-6.7c-2.4-1.9-4-4.3-4.9-7h-3.8v-3.4h6.5c.7 2.9 2.4 5.2 5.1 6.9l-2.9 3.5z"/>
		<path d="M51.3 29.6c-.7 0-1.6-.1-2.7-.2l.5 3.6c.7 0 1.5.1 2.3.1 2.4 0 3.9-.4 4.5-1.1.6-.7.9-3.4.9-7.9H45.5V22H56v-8.3H30.7V17h10.7v1.8H32l-1.7 8.6h6.4c-2.2 1.6-4.9 2.7-8.2 3.3l2.2 3.8c5.1-2 8.7-4.3 10.6-6.8V35h4.1v-7.5h7c0 1.1-.1 1.8-.3 2s-.3.1-.8.1zm-5.8-12.7h6.4v1.8h-6.4v-1.8zM41.4 24h-6.3l.4-2.1h5.9V24zM33.2 5.3c-1 2.4-2.6 4.5-4.8 6.3l3.6 2c.9-.9 1.7-1.9 2.2-3.1H36c.4 1 .6 1.9.7 2.7l3.8-.5c-.1-.4-.5-1.2-1-2.3h3.8L42 11.8l3.8 1.7c.8-.9 1.4-1.9 1.9-3h1.6c.4 1 .6 1.9.7 2.7l3.8-.5c-.3-.8-.6-1.5-1-2.2h4.7V7.3h-8.4l.6-1.5-3.6-.5c-.4 1.7-1.2 3.2-2.4 4.7V7.3h-7.6l.8-1.5-3.7-.5zM63.7 8.9H87v4.3H63.7zM65.6 17.9h19.6v4.2H65.6zM61.1 27.7h28.4v4.4H61.1zM111.5 28.6c1.5 4 3.3 6 5.5 6 2.5 0 4.1-2.5 5-7.6l-3.7-2.7c-.3 3.7-.8 5.6-1.3 5.6-.6 0-1.4-1.6-2.3-4.8-.9-3.2-1.4-6.7-1.7-10.4h8.5v-3.9H118l2-1.2c-1.3-1.6-2.3-2.8-3.1-3.7L114 7.5c1 1.1 1.8 2.2 2.3 3.3h-3.5l-.2-5.3h-4.2l.2 5.3H93.2v3.9H109c.2 5.2 1 9.9 2.5 13.9z" fill="#fbd528"/>
		<path d="M108.9 30.3v-4c-1.6.5-3.6 1-5.9 1.4v-5.8h5.1V18H94v3.8h4.9v6.6c-2.1.3-4 .6-5.8.7l.8 4.1c6.3-.9 11.4-1.8 15-2.9z" fill="#fbd528"/>
	</symbol>
	<symbol id="txt-gym-4" viewBox="0 0 152 84">
		<path d="M125 23.7l-3.7-2.7c-.7-.5-1.5-.7-2.3-.7h-.6c-.1-.6-.2-1.1-.3-1.7h4.1c2.2 0 4-1.8 4-4v-3.9c0-1.7-1-3.1-2.4-3.7-1.4-1.7-2.4-3-3.3-3.9-.8-.8-1.8-1.2-2.9-1.2-.6 0-1.2.1-1.8.4-.7-.5-1.5-.8-2.5-.8h-4.2c-1.1 0-2.1.4-2.9 1.2-.8.8-1.2 1.8-1.1 2.9v1.1H93.5c-.4-1.7-2-3-3.9-3H62.3c-.6 0-1.2.1-1.7.4-.7-.5-1.5-.8-2.4-.8h-4.7C52.9 2.5 52 2 51 1.9l-3.6-.5h-.6c-1.4 0-2.7.8-3.4 2h-2.8c-.6-.9-1.5-1.4-2.5-1.5l-3.7-.5h-.6c-1.6 0-3 .9-3.7 2.4-.8 1.9-2 3.4-3.6 4.7-1 .8-1.6 2.1-1.5 3.4.1 1.3.9 2.5 2 3.1l.2.1v1.8c0 1 .4 2 1.1 2.7l-1.4 6.9c.1.3.1.5.1.8-.6.4-1 .9-1.3 1.6-.6 1.2-.5 2.6.2 3.7l2.2 3.8c.7 1.3 2.1 2 3.5 2 .5 0 1-.1 1.4-.3 2-.8 3.7-1.6 5.3-2.4.4 1.8 2 3.2 3.9 3.2h4.1c1.4 0 2.7-.7 3.4-1.8.8 0 1.6.1 2.5.1 2.1 0 4.7-.2 6.6-1.6.6 1.3 2 2.3 3.6 2.3h4.2c1.6 0 3-1 3.6-2.3h11.6c.6 1.4 2 2.3 3.6 2.3h4.2c1.1 0 2.1-.4 2.8-1.2.6.4 1.3.6 2.1.6h.5c6.5-.8 11.6-1.8 15.4-2.9 1.9 2.9 4.3 4.4 7.2 4.4 3.2 0 7.4-1.9 8.9-11 .4-1.7-.3-3.2-1.5-4.1zM21.8 60.7h1.8v3.7h-1.8zM27.4 49.2c-1 1.5-2.1 2.6-3.3 3.5h6.7c-1.2-1-2.4-2.1-3.4-3.5zM11 57.4v6l2.3-1.5v-3.3l-1.1 1zM31.9 60.7h1.9v3.7h-1.9zM11 54.5l1.3-.9 1 1.5v-4.3H11zM57.7 50.3v3.5h-5.3c0 1.5 0 2.9-.1 4.4 0 2.2-.1 3.8-.3 4.9.2 0 .5-1 1.1-2.9.5-1.9.8-3.7.8-5.2l3.3.5c-.2 1.9-.5 3.4-.7 4.4l1.8 2v-9.6h4.4l.7-2h-5.7zM62.8 55.7h5.7v1.8h-5.7zM62.8 65.8h5.7v2.4h-5.7zM62.8 60.6h5.7v2.1h-5.7zM98.7 55.9c.4 4 1.4 7.4 2.9 10.2 1.5-3.5 2.3-7.3 2.3-11.2H99l-.3 1zM125.3 57.4h-4.1l-.8 1.3 5.6-.3z"/>
		<path d="M150.6 67.6c-.2-1.1-.9-2.1-1.8-2.7-1.2-.7-2.1-1.6-2.6-2.7.6-.2 1.1-.4 1.7-.6 1.1-.4 2-1.3 2.3-2.4.4-1.1.3-2.3-.3-3.3l-.8-1.3c.4-1.1.3-2.3-.3-3.3l-.4-.7c.1-.2.1-.3.2-.5.4-1.1.2-2.4-.4-3.4l-1.8-2.8c-.7-1.2-2-1.9-3.4-1.9-.5 0-1 .1-1.5.3-2.3.9-4.8 1.6-7.5 2.1-.7-1.2-2-2.1-3.5-2.1h-14.7c-2.2 0-4 1.8-4 4v1c-.5-.3-1.1-.4-1.8-.4h-4.4c.2-1-.1-2-.7-2.9-.6-.9-1.7-1.6-2.8-1.7l-4.6-.6H97c-2 0-3.7 1.5-4 3.5-.1.4-.2 1.1-.5 2h-.2c-.1-.2-.2-.3-.4-.4-1.9-1.9-3.9-3.4-6.2-4.7-.6-.3-1.3-.5-1.9-.5-.7 0-1.4.2-2.1.6l-3.6 2.2c-.3.2-.5.3-.7.6-.7-1.3-2-2.2-3.6-2.2H57.3c-.6 0-1.2.1-1.8.4-.7-.9-1.8-1.5-3.1-1.5h-4.3c-2.2 0-4 1.8-4 4v.3h-2.5c-1.6 0-2.9.9-3.6 2.2-2.3-1.2-4.1-2.8-5.6-4.8-.8-1-1.9-1.6-3.2-1.6h-4c-1.4 0-2.7.7-3.4 1.9-.2.3-.6.8-1.2 1.5-.7-1.3-2-2.2-3.6-2.2H7.3c-2.2 0-4 1.8-4 4v16.5c0 5.9-.8 8.7-1.5 10-.8 1.5-.5 3.5.9 4.7l3.8 3.3c.7.6 1.7 1 2.6 1 .2 0 .5 0 .7-.1.5-.1.9-.3 1.3-.5h3.1c.9 0 1.8-.1 2.5-.4l.1.1c.8.7 1.8 1.1 2.8 1.1.8 0 1.7-.3 2.4-.8.5-.4 1-.8 1.5-1.3.5.3 1.2.5 1.8.6h.3c.3 0 .6 0 .9-.1l.3.3c.8.8 1.8 1.2 2.9 1.2 1 0 1.9-.3 2.7-1 .3-.3.6-.5.9-.8.8 1 1.9 1.5 3.1 1.5h.1c1.3 0 2.5-.7 3.3-1.8l.5-.7.8 1.1c.6.9 1.5 1.5 2.6 1.7.2 0 .5.1.7.1.8 0 1.6-.2 2.3-.7 1.4-1 2.8-2.5 4.3-4.6l.3.6c.6 1.1 1.6 1.8 2.9 2h.4l2.8 1.9c.7.5 1.5.7 2.2.7.8 0 1.5-.2 2.2-.7 1.4-.9 2.7-2.1 3.8-3.4.4.6.9 1.3 1.3 2 .7 1.3 2.1 2 3.5 2 .6 0 1.2-.1 1.8-.4l4-2c.2-.1.4-.2.6-.4l1 1.2c.8.9 1.9 1.4 3.1 1.4h.2c.9 0 1.7-.4 2.4-.9.2.1.4.1.7.1.6.1 1.4.1 2.3.1 2.4 0 4.2-.4 5.5-1.1.8 1.2 2 1.8 3.3 1.8.6 0 1.2-.1 1.8-.4 1.1-.6 2.4-1.5 4.2-3l.3-.3c1.3 1.2 2.8 2.3 4.4 3.2.6.4 1.3.5 2 .5 1.4 0 2.7-.7 3.5-2l.7-1.3c.6.7 1.3 1.3 2.3 1.5.3.1.6.1.9.1h.3c.7 1.1 1.9 1.8 3.3 1.8h4.2c1 0 1.9-.3 2.6-.9.6.3 1.2.5 1.9.5h.2c4.5-.2 8.2-.5 11.3-.9.4.4.9.7 1.4 1 .5.2 1 .3 1.5.3s1.1-.1 1.6-.3l3.8-1.7c1.1-.5 1.9-1.3 2.2-2.4.4-1.1.2-2.3-.4-3.3-.4-.6-.8-1.3-1.2-1.9l1.8-2.3c.6-.6.9-1.8.7-2.9zm-4.2-9.7c-3.6 1.4-7.9 2.5-12.9 3.4l-1.4-3.3c4.6-.5 8.8-1.5 12.5-3.1l1.8 3zM133.7 62c-.7 3.7-2 6.8-3.9 9.2l-4-2.4c.8-.7 1.6-1.9 2.4-3.5.8-1.5 1.4-2.9 1.6-4l3.9.7zm-.5-5.5l-1.4-3.3c4.5-.5 8.4-1.5 11.8-3l1.7 2.9c-4.2 1.7-8.3 2.8-12.1 3.4zm9.8-10.6l1.8 2.8c-4.5 1.7-8.5 2.8-12.2 3.2l-1.5-3.2c4.3-.4 8.3-1.4 11.9-2.8zm-27.2.2h14.7v2.6h-10.4v.7h10.1v1.8h-10.1v.8h10.1v1.9h-10.1v.8h11.6v2.7H129c.9 1.2 1.7 2.4 2.2 3.3l-3.6 1.1-.4-.9c-2.1.3-6.2.6-12.3 1.1l-.7-3.1h2.1l.8-1.4h-3.6v-2.7h2.4v-8.7zm-6.5 22.7c.2-.6.5-1.3.7-2v.8c0 .7.2 1.4.5 1.9-.4-.2-.8-.4-1.2-.7zm-69.2 1.6c.3-.3.6-.7.8-1.1l.3.3c-.3.3-.6.6-1 .9 0 0-.1 0-.1-.1zm-3.8 7.9c-1-1.5-2.2-2.8-3.6-4.1-.6 1.6-1.6 3.1-3.1 4.5l-2.8-2.8-1.3 1.4c-.8-1.3-1.5-2.4-2.3-3.3-.9 2-2.1 3.5-3.6 4.7L17 76.2c-.4 1.2-1.3 1.8-2.7 1.8h-2.6l-.7-5c.8 0 1.5.1 1.9.1.3 0 .5-.3.5-.8v-5.6L12 67.9l-1-2.4v.6c0 2.3-.2 4.7-.6 7.3-.4 2.6-.8 4.2-1.3 5.1l-3.8-3.3c1.3-2.5 1.9-6.4 1.9-11.9V46.8h9.9v5.5c1.4-.5 2.9-1.5 4.6-2.8 1.7-1.4 2.9-2.7 3.6-3.8h4c2.4 3.2 5.7 5.6 9.7 7.2l-1.9 3.8c-1.3-.5-2.5-1.2-3.8-2.1v1.7H21.9v-1.7c-.9.8-2 1.5-3.2 2.1l-1.5-3.1v21.7c2.1-1.5 3.5-4 4.3-7.6h-3.1V57.5H27v10.1h-5.6l3.5 1.2c-.1.6-.3 1.2-.5 1.8 1.4 1.1 2.5 2.2 3.6 3.4 1.4-1.2 2.4-3.4 3.1-6.4h-2.7V57.5h8.8v10.1h-6.1l3.5 1.2c-.1.7-.3 1.4-.6 2 1.9 1.2 3.4 2.5 4.6 3.9l-2.3 3.6zm23.2.4l-3.6-2.4c2-1.1 3.6-2.6 4.8-4.6l3.7 1.2c-1 2.4-2.7 4.3-4.9 5.8zm-1.1-7.2v-6.9l-1.2 1.5c-.6-1.2-1.1-2.1-1.6-2.8-.3 1.2-.7 2.3-1.2 3.3l-2.5-2.3-.2 1.8c2.2 2 4.3 4.3 6.3 6.8L54.6 76c-1.4-2.5-2.8-4.6-4.3-6.2-.4 1.4-1.3 3-2.6 4.9-1.3 1.9-2.5 3.2-3.6 3.9l-2.7-4.1c3.4-2.3 5.3-5.3 6-9.2-.9-1.1-1.5-1.9-1.7-2.1-.1.8-.5 2.2-1.1 4l-3.2-2.6c1.4-2.6 2.1-5.8 2.2-9.8l3.5.4c-.1 1.3-.2 2.8-.5 4.5.4.4.9.8 1.5 1.4.1-.5.2-1.6.2-3.2v-2-2.2h-6.6v-3.9h6.5v-4.3h4.3v4.3h4.9v-3.2h16.8v2.9c-.1.2-.2.5-.2.8h-6l-.6 2H73v19.2H58.4zm11.9 7.2C69 76.5 67.6 74.6 66 73l3.5-1.3c1.4 1 2.7 2.4 4.1 4.1.1.4.3.7.6 1l-3.9 1.9zm37.5-.2c-2.6-1.5-4.7-3.3-6.3-5.5-.5.8-1.5 1.8-3 3s-2.6 2-3.4 2.5L92.3 74c1.1-.4 2.4-1.2 3.8-2.1 1.4-1 2.3-1.7 2.6-2.3-.5-.8-1.2-2.2-1.9-4.2s-1.1-3.5-1.2-4.4c0 .3-.5 1.2-1.6 2.9l-1.4-3.4c0 8.4-.3 13.4-.9 15-.7 1.6-2.5 2.4-5.5 2.4-.8 0-1.4 0-1.9-.1l-.8-4.4c1 .2 1.9.2 2.7.2.9 0 1.5-.4 1.7-1.1.2-.7.3-1.8.4-3.1.1-1.4.1-3 .1-4.9v-1.8h-3.2c-.1 2.8-.6 5.7-1.4 8.8-.9 3.1-1.9 5.4-3 7l-3.4-4.1c2.4-3.3 3.6-8.7 3.6-16.2v-3.1h-3.2v-4h6.6c-1-1.1-2.3-2.3-3.9-3.4l3.6-2.2c1.9 1.1 3.7 2.4 5.3 4L87 51.1h6.9v4h-8.5v3.6h6.5c1.2-1.5 2.4-3.7 3.4-6.6 1.1-2.9 1.7-5 1.9-6.5l4.6.6c-.4 1.7-.8 3.2-1.3 4.6h9.6v4.1h-1.8c-.1 2.1-.5 4.7-1.2 7.7s-1.6 5.4-2.7 7.2c0 .2.7.8 2.2 1.9 1.5 1.1 2.8 1.8 3.9 2.3l-2.7 4.5zm15.3-6.5v6.6h-4.2v-6c-.5 1.3-1.8 2.7-3.7 4.2l-1.9-4c2.6-1.3 4.4-3 5.4-5.3H114V64h4.9v-2.2h4.2V64h3.8v3.5h-3.8v.6c1.9.9 3.5 1.8 4.7 2.6l-1.9 3.5c-.8-.6-1.7-1.4-2.8-2.2zm18.8 6.6c-.4-1.1-.8-1.7-.9-1.7-3.2.6-7.7 1.1-13.4 1.3l-.8-4h2.8c2-2.4 3.4-5.1 4.1-8.2l4.3 1.3c-1 2.5-2.3 4.7-3.9 6.7 1.8 0 3.4-.2 5-.4-.6-1-1.2-1.9-1.8-2.7l3.4-1c1.7 2 3.4 4.3 4.9 6.9l-3.7 1.8zm1.9-6.7c-2.4-1.9-4-4.3-4.9-7h-3.8v-3.4h6.5c.7 2.9 2.4 5.2 5.1 6.9l-2.9 3.5z"/>
		<path d="M50.4 5.8l-3.6-.5c-.5 1.6-1.3 3.1-2.5 4.6V7.3h-7.6l.8-1.5-3.7-.5c-1 2.4-2.6 4.5-4.8 6.3l3.6 2c.9-.9 1.7-1.9 2.2-3.1h1.7c.4 1 .6 1.9.7 2.7l3.8-.5c-.1-.4-.5-1.2-1-2.3h4l-1.3 1.4 3.8 1.7c.8-.9 1.4-1.9 1.9-3H50c.4 1 .6 1.9.7 2.7l3.8-.5c-.3-.8-.6-1.5-1-2.2h4.7V7.3h-8.4l.6-1.5z" fill="#fbd528"/>
		<path d="M52 29.5c-.7 0-1.6-.1-2.7-.2l.5 3.6c.7 0 1.5.1 2.3.1 2.4 0 3.9-.4 4.5-1.1.6-.7.9-3.4.9-7.9H46.2v-2.1h10.5v-8.3H31.4v3.3h10.7v1.8h-9.4L31 27.3h6.4c-2.2 1.6-4.9 2.7-8.2 3.3l2.2 3.8c5.1-2 8.7-4.3 10.6-6.8v7.3h4.1v-7.5h7c0 1.1-.1 1.8-.3 2s-.3.1-.8.1zm-5.8-12.6h6.4v1.8h-6.4v-1.8zM42.1 24h-6.3l.4-2.1h5.9V24zM89.6 33.7v-26H62.3v26h4.2v-2.3h18.9v2.3h4.2zm-8.4-22.3h4.2v8.4h-3.1c-.7 0-1.1-.4-1.1-1.2v-7.2zM66.5 27.6V11.4h3.7v.7c0 5.1-1.2 8.9-3.6 11.3l3.6 3c2.7-3.2 4-8 4-14.2v-.7h3.1v8.3c0 2.6 1.3 4 3.8 4h4.4v4h-19zM112.2 28.5c1.5 4 3.3 6 5.5 6 2.5 0 4.1-2.5 5-7.6l-3.7-2.7c-.3 3.7-.8 5.6-1.3 5.6-.6 0-1.4-1.6-2.3-4.8-.9-3.2-1.4-6.7-1.7-10.4h8.5v-3.9h-3.6l2-1.2c-1.3-1.6-2.3-2.8-3.1-3.7l-2.9 1.6c1 1.1 1.8 2.2 2.3 3.3h-3.5l-.2-5.3H109l.2 5.3H93.9v3.9h15.8c.2 5.3 1 10 2.5 13.9z" fill="#fbd528"/>
		<path d="M109.6 30.3v-4c-1.6.5-3.6 1-5.9 1.4v-5.8h5.1V18H94.7v3.8h4.9v6.6c-2.1.3-4 .6-5.8.7l.8 4.1c6.3-.9 11.3-1.8 15-2.9z" fill="#fbd528"/>
	</symbol>
</svg>