<svg version="1.1" xmlns="http://www.w3.org/2000/svg" xmlns:xlink="http://www.w3.org/1999/xlink">
	<symbol id="boss" viewBox="0 0 156 232">
		<path d="M133.5 177.5c-.8.1-1.6 0-2.2 0l.7-5.4s-22.5-6.6-22.9-6.8c15.5-12.1 16.4-25.1 16.2-29.4.4-.3.9-.5 1.3-.8 0 0 8.8-40.5-11.8-80.8 1-2.1 1.5-12.2 1.5-12.2 8.4.2 8.9-9.4 6.1-13.5-2.8-4-8-1.7-8-1.7s.2-25-23.7-25.6c-12.5-.1-26.2 7.5-28.3 27.2-.1.7-5.5-1.2-7.9 3.1-2.4 4.3-1 13.8 7.3 12.8.1 2.4.4 5.4.4 5.6-1.7.7-14 10.5-17.5 13.7-.8.8-6.8.7-9-.9 0 0-9.6-6.8-12.7-10.3 0 0-1.6-1.6-1.3-2.2.3-.6 1.8-3.1.9-13 0-.6-2.1-1.8-2.6-1.2-.4.6-.9 5.1-1.1 6.5-.2.2-2.6-4.3-2.6-6.8 0-.9-5.1-2.8-5.6-2.9-.8-.2-2 2.1-6 4.3-.3.9-1.2 3.2-2 3.2-.9.1-.5 3.4.1 4.1 1.4 1.6 10.7 11 11.2 11.2.5.3.3 2.1-.2 2.7 0 0 9.6 21.6 18.3 27.5 3 2.1 6.2 2.4 9 2.1 1.7 3 3.3 6 6.6 11.4-1.7 12-3.7 28.6-3.1 40.8 0 0 .6.3 1.6.7.7 2.5 2.3 7.2 5.5 12.8C25.6 172.6 29 209.2 29 209.2c4.6 2.8 18 3.8 18 3.8 6.6-28.6 25.8-31.4 25.8-31.4 1.9-.5 3.8-1 5.6-1.5 12.2 6.8 28.7 11.7 51.1 11.6 0 0 1.3-6.8 1.3-6.7.7.4 1.5.8 2.2 1.2l.9-.6c.4-.2.8-.3 1.2-.2-.2-2.7-.9-5.3-1.6-7.9z" fill="#fff"/>
		<path d="M112.6 45.4c-3.3-.2-5.8 2.3-8 4.6-.9 1.3-2 2.6-3.4 3.3-1.5.8-3.3 1-5 .6-1.5-.3-2.9-1.2-4.4-1.7-1.5-.4-2.7.2-4 .9-1.4.7-2.8 1.4-4.4 1.6-5.1.6-10.3-1.9-13.9-5.6l-1.8-1.5c-.1-.1-.3-.3-.5-.4 0 0-.1-.1-.2-.1-.3-.2-.7-.5-1-.7-.1-.1-1.1-.6-.9-.6-.4-.1-.8-.3-1.1-.4H62.8c-.1.1-.3.2-.4.2.5-.3.3-.1-.1.2-.1.1-.2.3-.3.4-.1.2-.2.4-.2.5.2.3.2.5.1.7.1.8.1 1.5.2 2.1.2 3.1 1.4 12 11.7 12.2 10.3.2 26.3-.1 32.2-1.4 5.7-1.2 10.2-4.8 10.2-13.6-1.1-.8-2.3-1.2-3.6-1.3z" opacity=".1"/>
		<path d="M81 25.1c-.9 0-1.8-.1-2.6-.4-.4-.1-.7-.6-.5-1 .1-.4.6-.7 1-.5.8.3 1.7.4 2.6.3.7-.1 1.3-.3 1.6-.6.5-.5.5-1.4.5-2.3 0-.5.4-.8.8-.8.5 0 .8.4.8.8 0 1.2-.1 2.5-1 3.4-.6.6-1.5 1-2.6 1.1H81zM100 23.2c-.4 0-.9 0-1.3-.1-.9-.1-1.6-.3-2.2-.7-.8-.5-1.3-1.3-1.4-2.1-.1-.4.2-.9.7-.9.4-.1.9.2.9.7 0 .4.3.7.7 1 .4.2.8.4 1.5.5.9.1 1.8.1 2.7-.1.4-.1.9.2 1 .6.1.4-.2.9-.6 1-.7 0-1.3.1-2 .1zM77 29.9c-.4 0-.7-.2-.8-.6-.1-.4.1-.9.6-1 1.4-.4 2.9-.7 4.3-1 .4-.1.9.2 1 .7.1.4-.2.9-.7 1-1.4.2-2.8.6-4.2 1 0-.1-.1-.1-.2-.1z"/>
		<path d="M78.5 31.3c-.3 0-.6-.2-.8-.5-.2-.4 0-.9.4-1.1 1.1-.5 2.3-.7 3.5-.7.4 0 .8.4.8.8 0 .5-.4.8-.8.8-1 0-2 .2-2.9.6 0 .1-.1.1-.2.1zM102.3 28.7h-.3c-1.5-.5-3.1-.9-4.7-1.1-.4-.1-.8-.5-.7-.9s.5-.8.9-.7c1.7.2 3.4.6 5.1 1.2.4.2.6.6.5 1-.2.2-.5.5-.8.5z"/>
		<path d="M101.4 30.5c-.1 0-.2 0-.4-.1-1.3-.6-2.8-1-4.3-1.2-.5 0-.8-.4-.7-.9 0-.5.4-.8.9-.7 1.7.2 3.3.6 4.8 1.3.4.2.6.7.4 1.1-.1.4-.4.5-.7.5zM82.5 44.8h-.2c-.4-.1-.7-.5-.6-1 .4-1.8 1.1-3.4 2-5 .2-.4.7-.5 1.1-.3.4.2.5.7.3 1.1-.8 1.4-1.4 2.9-1.8 4.5-.1.4-.4.7-.8.7zM99.4 45c-.3 0-.6-.2-.7-.5-.8-1.7-1.9-3.2-3.2-4.5-.3-.3-.4-.8 0-1.2.3-.3.8-.4 1.2 0 1.5 1.4 2.8 3.1 3.6 5 .2.4 0 .9-.4 1.1-.3.1-.4.1-.5.1zM86.2 49.7h-.9c-.8 0-1.9 0-2.5-.9-.8-1.1-.2-2.5.8-3.4 1.6-1.5 3.7-2.5 6-2.7 2.2-.2 4.5.4 6.3 1.7 1.1.7 1.8 1.6 2.1 2.6.2.6.1 1.1-.1 1.5-.5.8-1.5.8-1.9.8l-5.9-.3c-.5 0-.8-.4-.8-.8 0-.5.4-.8.8-.8l5.8.1h.4v-.1c-.2-.6-.7-1.2-1.5-1.7-1.5-1-3.4-1.6-5.3-1.4-1.8.1-3.6 1-5 2.2-.5.5-.8 1-.6 1.3.1.2.5.2 1.2.2.3 0 .7 0 1 .1.4.1.8.5.7.9.1.4-.2.7-.6.7zM92.8 52.2h-.2c-1.6-.4-3.2-.4-4.8-.1-.4.1-.9-.2-1-.6-.1-.4.2-.9.6-1 1.8-.4 3.7-.4 5.5.1.4.1.7.6.6 1 0 .4-.3.6-.7.6z"/>
		<circle cx="86.7" cy="33.5" r="1.9" fill="#006198"/>
		<circle cx="92.9" cy="33.3" r="1.9" fill="#006198"/>
		<path d="M89.9 61.7c-1.2 0-2.4-.1-3.7-.2-.8-.1-1.3-.8-1.3-1.5.1-.8.8-1.3 1.5-1.3 2.4.2 4.9.2 7.3 0 .8-.1 1.5.5 1.6 1.2.1.8-.5 1.5-1.2 1.6-1.4.1-2.8.2-4.2.2z"/>
		<circle cx="65.4" cy="49.9" r=".2"/>
		<circle cx="65.3" cy="53.8" r=".2"/>
		<circle cx="70.6" cy="52.7" r=".2"/>
		<circle cx="69.5" cy="58" r=".2"/>
		<circle cx="74.8" cy="57.6" r=".2"/>
		<circle cx="71.7" cy="55.8" r=".2"/>
		<circle cx="102.5" cy="57.8" r=".2"/>
		<circle cx="92.4" cy="55.9" r=".2"/>
		<circle cx="91.1" cy="58.1" r=".2"/>
		<circle cx="88.2" cy="55.8" r=".2"/>
		<circle cx="109.6" cy="57.1" r=".2"/>
		<circle cx="106.3" cy="55.4" r=".2"/>
		<circle cx="107.8" cy="50.9" r=".2"/>
		<circle cx="110.8" cy="53" r=".2"/>
		<circle cx="112.9" cy="49.1" r=".2"/>
		<path d="M105.5 105.7c0-.2.1-.4.2-.6.1-.1.3-.2.5-.2 2.1-.6 4.1-1.8 6.2-2.3s4.8-.2 6 1.7c.5.8.7 1.9.7 2.8 0 1.2-.4 2.6-1.4 3.3-.6.4-1.4.6-2 1-.7.6-1 1.5-1.4 2.4-.4 1-1.2 2.1-2.4 1.9-.6-.1-1.1-.4-1.4-.9-.7-1.1-.6-2.3-.5-3.6.1-1 .1-2-.3-2.9-.1-.2-.2-.4-.4-.5-.2-.1-.4-.1-.6-.1-.3 0-.6.1-.8.1-1.3.4-2.5-.7-2.4-2.1 0 .1 0 .1 0 0z" opacity=".1"/>
		<path d="M56.9 65h-.4c-.8-.2-1.2-1-1-1.7.8-2.9 2-5.7 3.7-8.2.4-.6 1.3-.8 2-.4.6.4.8 1.3.4 2-1.5 2.2-2.6 4.7-3.3 7.3-.2.6-.8 1-1.4 1zM116.3 72.1c-.1 0-.3 0-.4-.1-1.1-.3-2.2-.3-3.2-.1-.8.2-1.5-.3-1.7-1.1-.2-.8.3-1.5 1.1-1.7 1.5-.3 3.1-.3 4.6.2.7.2 1.2 1 1 1.7-.2.7-.8 1.1-1.4 1.1z"/>
		<path d="M115.1 78s.1 0 .1.1c0-.1-.1-.1-.1-.1z" fill="#006198"/>
		<path d="M145.3 187.9c-1.2-3.1-1.1-3.9-.9-5.2.1-.9.2-2 .1-4-.2-2.8-1.9-4.7-4.7-5.1h-.2c-.7-.2-1.5-.1-2.1 0h-.2c-.9.1-1.8.3-2.7.7-.5.2-1.1.3-1.7.3l.3-2.4c0-.4-.1-.7-.3-1-.2-.3-.6-.5-.9-.5-.1 0-10-1.2-18.3-5-.1-.3-.2-.6-.4-.9-.2-.3-.5-.5-.7-.6 3.9-3.4 7-7.1 9.3-11.1 4.1-7.1 4.8-13.2 4.8-16.5l.6-.3c.3-.2.6-.5.7-.9 0-.1.3-1.5.6-4.1.1-.2.1-.4.1-.6v-.1-.1c0-.1.1-.1.1-.2s.1-.1.1-.2c.1-.2.2-.5.3-.9 0-.3 0-.5-.1-.7v-.1c.1-.4.1-.8 0-1.1.7-6.9 1.2-17.2.2-29 1.5.8 3 1.7 4.9 3.2.2.2.6.3.9.3.1 0 .3 0 .4-.1.4-.1.8-.4.9-.9.8-2.1 2.1-5 3.5-7.7.2-.4.2-1-.1-1.4l-.1-.2c-2.9-4.7-2.9-4.8-5.9-7.7l-.5-.5c-2.5-2.5-4.7-4.5-7.6-5.9-2.2-8.4-5.3-16.1-9.2-23 1-2.3 1.4-5 1.3-8.2 0-.9-.1-1.7-.1-2.5 2.9-.3 5.2-1.8 6.6-4.2 2-3.7 1.3-8.7-.6-11.4-.6-.8-1.3-1.5-2-1.9 1.7-2 2.1-4.3 1.1-6.7-.8-2-2.3-3.6-3.5-5-.4-.4-.7-.8-1-1.1l-.1-.1c-.2-.2-4.8-4.5-7.8-6.4-.6-.4-2.3-1.4-3.8-1.1C104.1 3.5 99.2.5 90.9.3 83.8-.1 77.1 2.1 72 6.2c-1.1.1-2.3.6-3.6 1.6-.9.5-8.9 5.4-11.5 10-2.1 3.8-2.3 7.3-.9 10.4-1.1.5-2.1 1.4-2.8 2.7-1.6 2.8-1.9 7.9.5 11.4 1.5 2.3 3.9 3.5 6.8 3.6.1.8.1 1.5.2 2.2 0 .4.1.7.1 1-1.7.8-3.6 1.9-5.3 3.5-.6.5-8.3 6.9-11.6 10l-.1.1c-.1 0-.1.1-.2.1 0 0-.2.1-.8.1-.3 0-.9-.1-1.5.3-.7-.3-1.3-.2-1.8-.1-1.1-.3-2.1-.8-3-1.4-.1-.1-9.5-6.7-12.4-10.1-.3-.3-.7-.5-1.1-.5 0-.1 0-.1.1-.2.1-.2.2-.3.3-.5.2-.4.4-.8.6-1.3.6-1.9 1-3.5.8-5.5-.1-.6-.2-1.3-.3-1.9-.2-1.4-.4-2.9-.3-4.2.1-1.7-.6-2.5-1.2-2.9-1.3-1-3.1-.3-4 .8-.6.9-.8 1.9-.9 2.7-.2-.7-.3-1.5-.3-2.2 0-1-.1-2.9-1.8-3.6-1.2-.5-2.4 0-3.2.9-.4-.7-1-1.2-1.7-1.4-1.5-.4-2.9.7-3.5 2-.2.4-.3.8-.4 1.2-.6-.2-1.2-.2-1.8 0-1 .3-1.8 1.1-2.1 2.1-.3.8-.2 1.6 0 2.3-.2-.1-.5-.1-.8-.1-.7.1-1.4.4-1.9 1-.5.7-.8 1.7-.6 2.5.2 1.3 1 2.2 1.6 2.9 1.5 1.6 3 3.3 4.8 4.6.4.3 1.6 1.8 1.8 2.2.7 1.4 1.6 2.9 3.2 3.9.4.2.7.4 1 .5.2.1.4.2.5.3l-.6.6c-.4.4-.4 1-.2 1.5.4.9 9.9 22 18.8 28 2.9 2 6.2 2.7 9.7 2.3 0 .6.1 1.3.4 1.8 0 0 0 .1.1.1 0 .3-.1.6-.1.9 0 .6 0 1.3.3 1.9.2.5.6.9 1.1 1.1v.4c0 .5 0 1.4.8 2.1.3.3.7.4 1.1.4.1.4.3 1 .9 1.4.2.1.4.2.5.2-1.2 8.1-2.4 18.2-2.9 27.6v.1c-.2.2-.5.5-.7.9-.2.5-.2 1.2.4 2-.1.3-.2.7 0 1.2.1.2.2.3.2.4v.7c0 .3 0 .6-.1.8v.1l-.1.4v.1c0 2.2 0 4.2.1 6.1 0 .5.3 1 .8 1.2.1 0 .5.2 1.1.5.8 2.4 2.4 6.4 5 11.1-4.8 3.6-9 8.1-12.3 13.3-3.7 5.7-6.5 12.4-8.2 19.8-3 12.5-2.1 22.8-2.1 23.2 0 .4.3.8.7 1.1.7.4 1.5.8 2.4 1.1-.3.4-.6.8-1.1 1.3-1 .6-6.6 4.1-10.8 7-.7.4-3.8 2.5-3.7 5.2.1 1.5 1.2 2.7 3.2 3.6 1.9.8 3.7 1.2 5.3 1.2 3.5 0 6.7-1.7 10.6-4.4 2.1-1.4 4.4-2.2 6.8-2.3h.3c2.1 0 3.3-.9 3.9-1.7 1.4-1.9.9-4.3.8-5v-.1c-.1-.4-.4-1.2-.6-2 .9.1 1.5.1 1.6.1h.1c.7 0 1.2-.4 1.4-1.1 3.4-14.9 10.4-22.5 15.7-26.2.1-.1.2-.1.2-.2l1-.8.3-.3h.4c.5 0 .9-.1 1.3-.4.4-.1.7-.2 1-.5.4-.1.9-.3 1.2-.6.2-.2.3-.3.4-.5.1 0 .3-.1.4-.2 1.6-.6 2.6-.7 2.6-.7h.1c1.7-.4 3.4-.9 5.1-1.4 10.4 5.9 29.4 11.5 49.4 11.5h1.9c.7 0 1.3-.5 1.4-1.2l.4-3.4c.1.1.2.1.2.2 1.4 1.5 2.3 3.4 2.8 5.5.7 3.3 1.6 5.8 2.9 7.5 1 1.3 2.4 2 4 2 1 0 1.9-.3 2.8-.9 3.1-1.8 5.4-5.8 2-14.9zm-19.1-61.3c-.1.2-.1.5-.1.9-.1.2-.3.5-.3.8 0 .3.1.6.2.9-.2.4-.4.9-.3 1.4-.2 1.7-.4 2.9-.5 3.5-14.2 8.4-27.4 11.2-36 12-7.5.7-12.9.2-14.8-.1l-2.4-7.6c.9-11.8 2-21.8 3-29.4l6.6 2.9c.5.3 2.5 1.2 6.7 1.2h.2c6 0 13.7-1.7 22.8-5.2.7-.3 1.1-1.1.8-1.8-.3-.7-1.1-1.1-1.8-.8-20.2 7.6-27.1 4.3-27.4 4.1-.1 0-.1-.1-.2-.1l-22.6-9.8 4.1-7.9c6.4 1 15.4.7 19.8.5 0 .1.1.3.2.4.2.3.3.6.4 1 .1.7.7 1.1 1.4 1.1h.3c.8-.2 1.2-.9 1.1-1.7-.1-.4-.2-.8-.4-1.2.1 0 .2-.1.3-.1 1.1 1.1 2 2 2.5 3v.4c.1.4.3.8.6 1.1.3.3.6.4 1 .4.2 0 .5-.1.7-.2.6-.3.8-1 .7-1.6-.5-2-1.8-3.5-3.1-4.7 3-2 5.8-4.3 7.9-6.2.9-.3 1.8-.6 2.8-.9 1.2-.4 2.7-1.1 4.2-1.8 1.4-.6 2.9-1.3 4.3-1.8 1.7.2 3.4.7 5 1.4 5.6 2.4 9.2 7.6 10.3 14.8.1.5.4.9.9 1.1.3.1.5.2.8.3 1.6 12.5 1 23.3.3 29.7zm-17.1 18.1l-.3.6c-.4.8-.9 1.6-1.4 2.3-.2-.7-.3-1.5-.3-2.2.6-.2 1.3-.4 2-.7zM92.8 81.3c.1 0 .1.1.2.1s.2 0 .3-.1c1.4-.2 2.5-.4 3.3-.6h.1c-.1.1-.1.2-.1.3 0 .1 0 .2.1.3-.1.1-.2.1-.2.2-2.6.8-5 1.2-7.6.7.4-.3.8-.6 1.2-.8.9 0 1.8 0 2.7-.1zm4.5-.8c.1 0 .2 0 .2-.1 0 .1 0 .1-.2.1.1 0 .1 0 0 0zm-20.6-7c.4.3.7.7.9 1l.2.2c0 .3 0 .9.4 1.4.3.5.8.7 1 .7.2.1.3.1.5.2.4 1.5 1.1 2.8 2 4-1.7 2.4-3.2 4.6-4.2 6.3.3-3.3.2-8.1-.8-13.8zm9.4-.4c-.1.6-.4 1.3-.8 2-.1 0-.1-.1-.2-.1-.1-.2-.3-.3-.5-.3s-.4.1-.5.3H84c-.8-.1-1.5-.2-2.3-.4-.3-.2-.6-.3-1-.3-.1 0-.1 0-.2-.1.1-1.2.5-2.3 1-3.3.2-.3.2-.3.3-.4.7-.5 3.4.3 4 1.1.4.4.4.9.3 1.5zm-3 4.7c.3 0 .6.1.9.1-.2.2-.3.4-.5.7-.1-.3-.2-.6-.4-.8zm3 6.4c.7.3 1.4.5 2.2.7 1.3.2 2.6.3 3.8.2-1.5 1.2-3.1 2.4-4.7 3.4-.1 0-.2.1-.3.2-.3 0-.5 0-.7.1-.4 0-.8.1-1.1.4-1.2.1-3 .2-5 .2 1.7-1.8 3.7-3.6 5.8-5.2zm3-12.7c-.4-1-1-2-1.9-3l7-2.7c-1.8 1.9-3.5 3.8-5.1 5.7zM78.2 71c-.8-.7-1.6-1.4-2.5-2.1-.5-1.8-1.1-3.7-1.8-5.6h1.8c2.3 1.2 4.4 2.8 5.9 4-1.5.8-2.6 2.3-3.4 3.7zm37 7s-.1 0-.1-.1c0 .1.1.1.1.1zm9.6 9c-2-3.8-5-6.7-8.7-8.6.1-.1.2-.2.2-.4 1.2.1 2.3.2 3.3.3.1.1.2.1.4.1h.2c1.1.2 2.1.5 3 .8.5 2.7 1.1 5.2 1.6 7.8zm1.7-5.9c1.5 1.1 3 2.4 4.7 4.1l.5.5c2.6 2.6 2.7 2.7 5.2 6.8-.9 1.8-1.7 3.6-2.4 5.2h-.2c-.1 0-.3.1-.4.1-1.9-1.3-3.4-2.1-5.1-2.9-.1-.5-.1-1-.2-1.5-.5-4.2-1.2-8.3-2.1-12.3zm-4.3-5c-2.1-.6-4.5-.9-7.5-.9-1.8 0-3.8.5-5.8 1.3-1.2-.1-2.4-.1-3.6-.1 1.5-1.6 3.3-3.1 4.7-3.5.7-.2 1.2-1 .9-1.8-.2-.7-1-1.2-1.8-.9-2.9.9-6.4 4.7-8 6.7-1.7.3-3.4.6-5.2 1.1-.3.1-.5.1-.8.2 3.9-2.3 6.8-3.7 6.9-3.7.4-.2.7-.6.8-1 .2-1.1 0-4-.1-5.8l3.8-1.1c.6-.2 1-.7 1-1.3 0-1.3-.4-2.5-.9-3.5 3.5-.8 6.2-2.4 8-4.7 3.4 6.1 5.8 12.6 7.6 19zM74.9 12.3c1.4-.7 2.9-1 4.1-1.3 5.4-1.1 11-.9 16.3.3.8.2 1.5-.3 1.7-1 .2-.8-.3-1.5-1-1.7-5.6-1.3-11.5-1.5-17.2-.4 4.9-1.8 10.4-2.4 15.5-1.5.8.1 1.5-.4 1.6-1.1.1-.8-.4-1.5-1.1-1.6-5.1-1-10.6-.5-15.6 1.1C83 3.4 87 2.7 90.7 2.8c7.3.2 11.6 2.8 13.7 4.7-.1.3-.1.8-.1 1.2.2 2.1 1.4 5.2 2.8 8.8 1 2.6 2.1 5.3 2.8 7.8.4 1.5.9 2.8 1.5 3.8l-13.3 2.4c-.1-.3-.3-.5-.6-.6-.4-.1-.9.1-1 .5 0 .1-.1.3-.1.4l-1.1.2c-.1-.3-.3-.5-.5-.7-.5-.5-1.2-.8-1.9-.8h-.1c-1.1 0-2 .6-2.4 1.5h-.5l-.2-4.2c0-.5-.4-.8-.9-.8s-.8.4-.8.9l.2 3.4c-.4-.3-.9-.5-1.5-.5h-.1c-1.2 0-2.2.8-2.6 1.9l-1.4-.1c-.2-.3-.5-.5-.8-.4-.2 0-.4.1-.6.3l-11-1c.1-.3.2-.5.3-.8.2-.4 0-.9-.5-1.1-.4-.2-.9 0-1.1.5-.2.4-.3.8-.5 1.3l-.4-.2c2.2-4.5 6-12.9 6.9-18.9zm12.2 24.1c.1-.1.2-.2.2-.3.5-.1 1-.4 1.4-.8.1.1.3.2.5.2.5 0 .8-.4.8-.9v-.9c.1 0 .2.1.3.1.1.5.3 1 .7 1.4.5.5 1.2.8 1.9.8h.5c0 .1.1.1.1.1.2.3.5.6.6.8.1.2 0 .3 0 .4-.1.1-.5.1-.6.1-.4 0-.6-.1-.6-.1-.2-.3-.5-.4-.8-.4-.3 0-.6.3-.7.6 0 .1-.2.2-.4.3-.3.1-.7.1-1.1 0h-.3c0-.2-.2-.3-.3-.5-.2-.2-.5-.2-.8-.1-.5.2-.9.3-1.3.3-.3 0-.5-.3-.5-.4 0-.2.2-.5.4-.7zm-.4-1.9c-.6 0-1-.5-1-1.1 0-.6.5-1 1.1-1 .6 0 1 .5 1 1.1 0 .6-.5 1-1.1 1zm5.2-1.3c0-.6.5-1 1.1-1 .3 0 .5.1.7.3.2.2.3.5.3.8 0 .6-.5 1-1.1 1-.3 0-.5-.1-.7-.3-.2-.2-.3-.5-.3-.8zm-22.8 4.6c-.2.3-.5.4-.8.4.2-1 .5-2 .7-2.9v.1c.1.3.1.6.2.8.2.7.1 1.3-.1 1.6zm-13 3c-1.7-2.5-1.5-6.4-.4-8.5.5-.9 1.2-1.4 1.9-1.7.3.3.5.6.8.9l.8.8c-.5.1-1.2.4-1.8 1-.8.8-1.1 1.9-1.1 3.4.1 3.5 2.5 4.5 3.8 4.5h.2v2c-1.8-.2-3.2-.9-4.2-2.4zm4.1-1.3c-.1 0-2.1-.1-2.2-2.9 0-1.2.3-2 1-2.4.5-.3 1.1-.4 1.1-.4.2 0 .4-.1.6-.2v.7c0 .8.5 1.4 1.3 1.5h.1c.4 0 .8-.2 1-.4.4.1.7.2 1.1.2h.4c1.4-.2 2.1-1.5 2.6-2.4 0-.1.1-.2.1-.3l.8.1c-.5 1.7-1 3.3-1.4 5 0 .1-.1.4 0 .7.1.4.3.7.7 1 .3.2.7.3 1 .3.8 0 1.6-.5 2.1-1.1.5-.7.6-1.7.4-2.8-.1-.3-.1-.6-.2-1s-.2-.8-.2-1.2c0-.4-.3-.7-.7-.7l11.4 1c0 .5-.1.9-.3 1.2-.3.3-.8.5-1.3.7-.4.1-.7.6-.5 1 .1.3.4.6.8.6h.3c.6-.2 1.5-.5 2-1.2.5-.6.7-1.3.7-2.1l1.3.1c.2.7.7 1.2 1.3 1.5-.3.4-.4.8-.4 1.2 0 .9.8 1.8 1.8 2 .6.1 1.1 0 1.5-.1.1.1.2.2.3.2 0 .1-.1.2-.1.3-.1.7-.1 1.5 0 2.2.1.4.4.7.8.7h.1c.5-.1.8-.5.7-.9-.1-.6-.1-1.2 0-1.8v-.2h.4c0 .5 0 1.1-.1 1.6-.1.4.2.9.7.9h.1c.4 0 .7-.3.8-.7.1-.7.2-1.5.1-2.2 0-.1 0-.2-.1-.3.5.2.9.2 1.1.2.4 0 1.1 0 1.7-.5.6-.5.8-1.4.5-2.2-.2-.5-.5-.9-.8-1.2.4-.4.6-.9.7-1.4l1-.2c.1.3.3.6.5.9.6.8 1.6 1.2 2.5 1.2h.2c.5 0 .8-.4.8-.9s-.4-.8-.9-.8-1-.2-1.4-.6c0-.1-.1-.1-.1-.2l14.7-2.7c.2.1.4.2.6.2h.1c.3.5.8.8 1.4.7.6-.1 1.1-.6 1.2-1.1.1-.1.2-.1.3-.2-.1.1-.1.3-.1.4 0 .4.4.8.9.8 0 0 .6 0 1.1.3.7.4 1.1 1.1 1.2 2.3.2 2.7-1.6 3-1.8 3-.5.1-.8.5-.7.9.1.4.4.7.8.7h.1c1.2-.2 3.5-1.3 3.3-4.8-.1-1.4-.6-2.5-1.4-3.2-1-.8-2.1-.9-2.5-.9.6-.4 1.3-1 2-1.7.7.3 1.3.7 1.8 1.5 1.4 1.9 1.9 5.8.4 8.5-.9 1.6-2.3 2.5-4.2 2.8 0-.6-.1-1.2-.1-1.8-.1-.8-.7-1.4-1.5-1.3-.8.1-1.4.7-1.3 1.5.2 2.3.3 4.6.4 7 .2 7.4-2.7 11.5-9.1 12.9-1.5.3-3.9.6-7 .9-.8.1-1.4.7-1.3 1.5v.1L85 66.4c-1.1-1-3.4-2.9-6.1-4.5 0-.7-.6-1.3-1.4-1.4H74c-8.5-.2-10.1-6.9-10.3-10.9 0-.5-.1-1.1-.1-1.7-.1-.9-.2-1.9-.2-3.2v-.3-.1c0-1-.1-2.1-.1-3.4 0-.8-.6-1.4-1.4-1.4-.4 0-.7.2-1 .4-.3-.3-.5-.4-.7-.4zM14 54.2c-.3-.1-.5-.2-.8-.4-1-.6-1.6-1.7-2.1-2.7-.4-.8-2.1-2.8-2.7-3.2L7.2 47l7.2-3.1c.4-.2.6-.7.4-1.1-.2-.4-.7-.6-1.1-.4l-7.8 3.4c-.7-.7-1.3-1.4-1.9-2.1-.4-.4-.9-1-1-1.5V42c.2.2.5.6.6.8 1.1 1.5 2.1 1.4 2.7 1.1 1.4-.8.9-2.7.2-4.3-.3-.7-.5-1.4-.4-1.9 0-.1.1-.1.1-.2.1.1.1.2.1.3.4.9.6 1.4.9 1.8.3.5.9 1.7 2.1 1.3 1.3-.4 1-1.9.9-2.7-.2-1.3-.4-2.6 0-3.5 0-.1.1-.2.1-.2v1.1c0 1.6.3 3.2 1 4.6.6 1.3 1.6 1.1 1.8 1.1 1.4-.3 1.5-1.7 1.5-5 0-.4 0-.9.1-1.3 0 .3 0 .7.1.8.1 2.5.9 4.8 1.7 7-1.2 1.4-1.8 3.4-1.6 5.3.1.8.8 1.3 1.6 1.2.8-.1 1.3-.8 1.2-1.6-.2-1.5.6-3.1 1.9-4 .4-.2.6-.6.6-1l.4-4.3c.1-.5.1-1.2.4-1.5v.3c-.1 1.6.1 3.2.4 4.8.1.6.2 1.2.2 1.8.2 1.5-.2 2.8-.7 4.4-.1.2-.2.5-.4.8-.1.2-.3.5-.4.7-.4.9-.5 1.8-.2 2.5-1.3.7-3 1.7-4.6 2.9-.2-.2-.5-.3-.8-.5 0-.1-.3-.2-.5-.4zm28.2 32.3c-2.8.6-6.1.5-9.2-1.6-7.3-4.9-15.5-22-17.4-26 2.2-2.2 5.6-3.9 7.1-4.7 3.6 3.7 11.8 9.5 12.2 9.8.9.7 1.9 1.2 3 1.5.2.5.7.8 1.3.8.1 0 .3 0 .4-.1.1 0 .2-.1.3-.1v.2c.2.9.2 1.9-.1 2.7-.2.7.1 1.5.9 1.8.1.1.3.1.5.1.6 0 1.1-.4 1.3-1 .3-.8.4-1.6.4-2.5.6.4 1.2.9 1.6 1.5.3.4.7.6 1.2.6.3 0 .5-.1.8-.2.6-.4.8-1.3.4-2-.5-.8-1.2-1.5-2-2 .1 0 .3-.1.4-.2.2-.1.4-.3.6-.5 3.4-3.1 11.5-9.9 11.6-10l.1-.1c1.2-1.1 2.5-1.9 3.8-2.6.3 1.7.9 3.6 2 5.4.9 1.5 2.1 2.7 3.6 3.7-.7.5-1.3 1-1.7 1.8-.4.6-.3 1.3.2 1.8l2.6 2.4c-1 1.3-2.5 3.3-2.9 4.3-.2.5-.1 1.2.4 1.6.1.1 6.8 6.3 9 16.5-3.6 0-7.3-.3-10.3-.8-.5-.1-1 .1-1.3.5-1-.7-1.7-1.7-2.4-2.6-.3-.4-.5-.7-.8-1-1.3-1.5-3-2.3-4.6-3.1-.7-.4-1.6-.8-2.6-.9.3-2.3.7-4.6 1.2-6.9.2-.8-.3-1.5-1-1.7-.8-.2-1.5.3-1.7 1-.6 2.5-1.1 5.2-1.4 7.8-.5.2-1 .5-1.5.7-1.2.7-2.4 1.4-3.6 2.2-1 .5-1.8 1.1-2.4 1.9zm3 5.8c0 .1 0 .1 0 0 0-.2 0-.4.1-.6.1-.2.2-.4.4-.6.5-.5.5-1.2 0-1.7-.2-.2-.5-.3-.8-.3.2-.4 0-1-.3-1.3-.1-.1-.2-.2-.4-.2.4-.4.9-.8 1.4-1.1 1.1-.7 2.2-1.4 3.4-2.1.6-.4 1.3-.7 1.9-.7.9-.1 1.8.3 2.9.8 1.4.7 2.9 1.3 3.8 2.4.2.2.4.5.7.9.7 1 1.7 2.3 3.1 3.3l-3.2 6.2-3.8-.8c-.2 0-.5-.1-.6-.2-.1-.1-.2-.3-.3-.4 0-.1-.1-.2-.1-.2-.6-1-1.5-1.9-2.6-2.4-.3-.1-.7-.3-1.3-.3-.3 0-.5.1-.7.2-.9.4-1.5.8-2 1.3.1-.5.2-.9.4-1.3.3-.6 0-1.3-.6-1.6-.4-.1-1.1.1-1.4.7zm.8 42v-.3c.1-.4.1-.7.1-1v-.5c0-.3.1-1-.2-1.6 0-.1.1-.2.1-.3.1-.5-.1-1-.3-1.3.4-.5.6-1 .5-1.6v-.1c.6-11.2 2.3-23.4 3.6-32h.1c.6.3 1.2.8 1.5 1.4 0 .1.1.1.1.2.2.3.4.8.8 1.1.5.5 1.2.6 1.6.7l3.2.6v.1c-.2.3-.2.7-.1 1.1.1.4.4.7.8.8l10.4 4.5c0 .2-.1.4-.1.6 0 .9.4 1.7 1 2.2v.5c0 .8.6 1.4 1.3 1.5h.1c.7 0 1.4-.6 1.4-1.3.1 0 .2-.1.3-.1-.3 2.5-.7 5.2-1 8.2-.2-.3-.4-.6-.7-.9.2-.7-.1-1.5-.8-1.8-.7-.3-1.5.1-1.8.8-.1.1-.1.3-.2.4-1.2.4-2 1.5-2 2.8 0 .9.4 1.7 1 2.2v.5c0 .8.6 1.4 1.3 1.5h.1c.7 0 1.4-.6 1.4-1.3.5-.2 1-.5 1.4-.9-.3 3-.6 6.2-1 9.6-.2-.5-.5-1-.9-1.4.2-.7-.1-1.5-.8-1.8-.7-.3-1.5.1-1.8.8-.1.1-.1.3-.2.4-1.2.4-2 1.5-2 2.8 0 .9.4 1.7 1 2.2v.5c0 .8.6 1.4 1.3 1.5h.1c.7 0 1.4-.6 1.4-1.3.8-.2 1.4-.7 1.8-1.4-.1 1.6-.3 3.1-.4 4.8-.1.1-.1.3-.2.4-.3 1.1-2.5 4.3-4.2 6.6-7.6-.7-16.3-4.2-19-5.3-.1-1.6-.1-3.3 0-5.1zm20.3 48.3c-.1 0-.1.1-.2.1H66c.1-.1.2-.2.2-.4h.2c0 .2 0 .3-.1.3zm6.2-2.4c-.3.1-1.5.3-3.2.9-.5 0-1.1.3-1.5.8l-.1.1h-.3c.3-.3.4-.7.3-1.1l-.3-2.1c-.1-.8-.8-1.3-1.6-1.2-.8.1-1.3.8-1.2 1.6v.4c-.5-.4-1-.7-1.5-1-.7-.4-1.5-.2-1.9.5-.4.7-.2 1.5.5 1.9.5.3.9.6 1.4 1 .3.2.4.3.4.4.1.5.5.9.9 1-.4.2-.8.5-1 .7l-1.1.9s-.1 0-.1.1c-5.5 3.9-12.7 11.7-16.4 26.6-4-.4-12-1.4-15.6-3.1-.1-2.5-.4-11.3 2.1-21.5 3.3-13.9 10.1-24.6 20-31.8.1 0 .3-.1.4-.2.2-.1.4-.3.5-.5 1.3-.9 2.6-1.7 4.1-2.5.7-.4.9-1.2.5-1.9s-1.2-.9-1.9-.5c-1.2.7-2.3 1.4-3.5 2.1-1.7-3.1-2.9-5.9-3.8-8.1 4.3 1.6 10.9 3.7 16.9 4.1.5 0 .9-.2 1.2-.5.5-.6 2.2-2.8 3.5-4.9l1.8 5.8c.2.5.6.9 1.1 1 .2 0 3.4.6 8.8.6 2.2 0 4.7-.1 7.6-.4 4.1-.4 9.1-1.2 14.8-2.8.1 1.2.4 2.4.8 3.5l-4.8 3.8c-.6.5-.7 1.4-.2 2 .3.4.7.5 1.1.5.3 0 .6-.1.9-.3l5-3.9c.7-.6 1.5-1.2 2.2-1.9.9-1 1.5-2.2 2.1-3.2.5-1 1.1-2.1 1.5-3.3 3.6-1.4 7.3-3.1 11.1-5.2-.2 3.1-1.1 8-4.3 13.4-5.4 8.5-17.8 20.6-47.2 28.2zm38.5-13.1zm-1.4 0c-.1.1-.2.1-.3.2-.7.7-1.6 1.2-2.6 1.5.9-.6 1.8-1.2 2.6-1.9.1.1.2.1.3.2zm18.6 23.1c-18.2.1-35.6-4.6-46.2-9.9 9.3-3 17.2-6.7 23.8-11-.2.3-.3.7-.2 1.1.2.6.7 1.1 1.4 1.1h.4c1.5-.4 2.8-1.1 3.9-2.2.4-.4.5-1.1.3-1.6.1.1.2.1.3.1.1 0 .1.1.2.1 7.1 3.3 15.1 4.8 18.3 5.3l-2.2 17zm5.7-4.7l-.9.6c-.4-.3-.8-.6-1.3-.8l1-7.8h.8c.7 2.6 1.4 5.2 1.6 7.9-.4-.2-.8-.1-1.2.1z"/>
		<path d="M120.1 78.5h-.2c-.1 0-.3-.1-.4-.1-1-.2-2.1-.3-3.3-.3 0 .2-.1.3-.2.4 5.9 2.8 9.8 8.4 11.2 15.8 2.4 1 4.3 1.9 6.8 3.6.1-.1.2-.1.4-.1h.2c.7-1.6 1.5-3.4 2.4-5.2-2.5-4.1-2.6-4.2-5.2-6.8l-.5-.5c-1.7-1.7-3.1-3-4.7-4.1-.1.2-.2.3-.4.3-.3 0-.5-.2-.5-.5 0-.1 0-.2.1-.3-1.7-1.1-3.5-1.8-5.7-2.2zM84.2 75.1c.1-.2.3-.4.5-.4s.4.1.5.3c.1 0 .1 0 .2.1.3-.7.6-1.3.8-2 .1-.6 0-1.1-.2-1.4-.6-.8-3.3-1.6-4-1.1 0 0-.1.1-.3.4-.6 1-1 2.2-1 3.3.1 0 .1 0 .2.1.4 0 .7.1 1 .3.7.2 1.5.3 2.3.4zM97.3 80.5c.2.1.3.2.3.4v.2c.7-.2 1.4-.5 2.2-.8.5-.2 1.1-.4 1.8-.7-1.4.2-2.8.5-4.3.9zM88.8 82.1c2.7.5 5.2.1 8.1-.8-.1-.1-.2-.2-.2-.4 0-.1 0-.2.1-.3h-.1c-.8.2-2 .5-3.3.6-.1.1-.2.1-.3.1-.1 0-.2 0-.2-.1-1.1.1-2.3.1-3.5-.2-.1.1-.2.2-.4.2-.3 0-.5-.2-.5-.4-1.6-.5-3.1-1.4-4.3-3.1-.3 0-.6-.1-1-.1 1 2.4 3.1 4.1 5.6 4.5z" fill="#006198"/>
		<path d="M126.1 86.1c-.3 0-.5.2-.5.5s.2.5.5.5.5-.2.5-.5-.3-.5-.5-.5zM121.9 80.4c-.3 0-.5.2-.5.5s.2.5.5.5.5-.2.5-.5-.2-.5-.5-.5zM124 83.2c-.3 0-.5.2-.5.5s.2.5.5.5.5-.2.5-.5-.2-.5-.5-.5zM128.1 83.2c-.3 0-.5.2-.5.5s.2.5.5.5.5-.2.5-.5-.2-.5-.5-.5zM130.2 86.1c-.3 0-.5.2-.5.5s.2.5.5.5.5-.2.5-.5-.2-.5-.5-.5zM128.1 88.9c-.3 0-.5.2-.5.5s.2.5.5.5.5-.2.5-.5-.2-.5-.5-.5z"/>
		<circle cx="132.3" cy="89.4" r=".5"/>
		<path d="M130.2 92c-.3 0-.5.2-.5.5s.2.5.5.5.5-.2.5-.5-.2-.5-.5-.5z"/>
		<circle cx="134.3" cy="92.5" r=".5"/>
		<path d="M132.3 94.8c-.3 0-.5.2-.5.5s.2.5.5.5.5-.2.5-.5-.3-.5-.5-.5zM82.6 71.8c-.3 0-.5.2-.5.5s.2.5.5.5.5-.2.5-.5-.2-.5-.5-.5z"/>
	</symbol>
	<symbol id="btn-bg-lg" viewBox="0 0 224 54">
		<path d="M5 52.2c-1.9 0-3.5-1.6-3.5-3.5V11.4C1.5 9.5 3.1 8 5 8h214c1.9 0 3.5 1.6 3.5 3.5v37.3c0 1.9-1.6 3.5-3.5 3.5H5z" fill="#ababab"/>
		<path d="M219 9.5c1.1 0 2 .9 2 2v37.3c0 1.1-.9 2-2 2H5c-1.1 0-2-.9-2-2V11.4c0-1.1.9-2 2-2h214m0-2.9H5c-2.8 0-5 2.2-5 5v37.3c0 2.8 2.2 5 5 5h214c2.8 0 5-2.2 5-5V11.4c0-2.7-2.2-4.9-5-4.9z" fill="#fff"/>
		<path d="M5.5 46c-2 0-3.5-1.5-3.5-3.4V5.3c0-1.9 1.6-3.5 3.5-3.5H219c1.9 0 3.5 1.6 3.5 3.5v37.3c0 1.9-1.6 3.5-3.5 3.5H5.5z"/>
		<path d="M219 3.3c1.1 0 2 .9 2 2v37.3c0 1.1-.9 2-2 2H5.5c-1.1 0-2-.9-2-2V5.3c0-1.1.9-2 2-2H219m0-3H5.5c-2.8 0-5 2.2-5 5v37.3c0 2.8 2.2 5 5 5H219c2.8 0 5-2.2 5-5V5.3c0-2.8-2.2-5-5-5z" fill="#fff"/>
		<path d="M213.7 6.9h-6.5c-.7 0-1.3.6-1.3 1.3v.2c0 .7.6 1.3 1.3 1.3h4.9v4.8c0 .7.6 1.3 1.3 1.3h.3c.7 0 1.3-.6 1.3-1.3V8.2c0-.7-.6-1.3-1.3-1.3zM9.1 30.5h-.2c-.7 0-1.3.6-1.3 1.3v6.4c0 .7.6 1.3 1.3 1.3h6.5c.7 0 1.3-.6 1.3-1.3V38c0-.7-.6-1.3-1.3-1.3h-4.9v-4.8c-.1-.8-.7-1.4-1.4-1.4z" fill="#fff"/>
	</symbol>
	<symbol id="btn-bg-sm" viewBox="0 0 244 68">
		<path d="M5 65.5c-1.7 0-3-1.3-3-3V13.2c0-1.7 1.3-3 3-3h234c1.7 0 3 1.3 3 3v49.3c0 1.7-1.3 3-3 3H5z" fill="#ababab"/>
		<path d="M239 12.2c.6 0 1 .4 1 1v49.3c0 .6-.4 1-1 1H5c-.6 0-1-.4-1-1V13.2c0-.6.4-1 1-1h234m0-4H5c-2.8 0-5 2.2-5 5v49.3c0 2.8 2.2 5 5 5h234c2.8 0 5-2.2 5-5V13.2c0-2.7-2.2-5-5-5z" fill="#fff"/>
		<path d="M239 4.5c.6 0 1 .4 1 1v49.3c0 .6-.4 1-1 1H5.5c-.6 0-1-.4-1-1V5.5c0-.6.4-1 1-1H239m0-4H5.5c-2.8 0-5 2.2-5 5v49.3c0 2.8 2.2 5 5 5H239c2.8 0 5-2.2 5-5V5.5c0-2.8-2.2-5-5-5z" fill="#fff"/>
		<path d="M239 4.5c.6 0 1 .4 1 1v49.3c0 .6-.4 1-1 1H5.5c-.6 0-1-.4-1-1V5.5c0-.6.4-1 1-1H239"/>
		<path d="M228 8.8h-7.6c-1 0-1.8.8-1.8 1.8s.8 1.8 1.8 1.8h5.9v6c0 1 .8 1.8 1.8 1.8s1.8-.8 1.8-1.8v-7.7c-.1-1.1-.9-1.9-1.9-1.9zM19.9 45.2H14v-6c0-1-.8-1.8-1.8-1.8s-1.8.8-1.8 1.8v7.7c0 1 .8 1.8 1.8 1.8h7.7c1 0 1.8-.8 1.8-1.8 0-.9-.8-1.7-1.8-1.7z" fill="#fff"/>
	</symbol>
	<symbol id="client" viewBox="0 0 160 320">
		<path d="M82.5 241.7c-1.2-.4-2-1.7-2-2.9 0-.8.6-1.5 1.1-2.1 1.2-1.6 2.5-3.1 3.7-4.7 5.6.2 11.3-.9 16.4-3.1 2.7-1.2 5.4-2.7 8.3-3 2-.2 4 0 6-.1 3.3-.2 6.5-1.4 9-3.5-.3-13-4.6-25.5-6.9-38.2-4.6-25.6 6-37.3 6-37.3 2.9-3.8 24.2-23.4 31-30.9l-2.6-13.2c3.4-13.5 3.3-28.7-1.2-41.4-.3-.8-.6-1.7-.6-2.6 0-1.1.5-2.1 1-3.1 2.8-5.9 4.4-10.3 5.9-16.6l-7.9-11c-.8.2-1.1 1.1-1.2 1.9-.9 4.7-2.5 9.2-4.9 13.3 0 0-1.9-2.9-3.4-5.1-.5-.8-2.8-.4-2.8 0-.2 2.6 1.9 4.7 2.3 7.3.4 2.2-.7 4.6-.1 6.8.4 1.7 1.7 3 2.6 4.5 1 1.6 1.5 3.5 1.9 5.3 2.1 9.1 2.6 19-1 27.7-.1-.3-6 16.5-28.8 25.5 0 0 9.1-45-11.6-49.8C82 60.7 77.4 97.7 77.4 97.7c-2.8-2.1-4.7-5.3-6.3-8.5-5.2-10.1-8.5-19.6-10.3-30.8-1.1.9-2.1 1.8-3 2.6-2-8-1.1-16.6 1.1-24.6.5-1.8 1.1-3.7 2.1-5.3.9-1.4 2.3-2.7 2.8-4.4.6-2.2-.3-4.5.2-6.8.5-2.5 2.8-4.6 2.7-7.2 0-.4-2.2-.9-2.8-.1-1.6 2.1-3.6 5-3.6 5-2.2-4.2-4.6-15.3-5.4-15.5l-8.4 10.7c1.2 6.4 2.6 10.9 5.1 16.8.4 1 .9 2.1.8 3.2 0 .9-.4 1.7-.7 2.5-4.4 10.9-5.6 24-3.9 36.2-1 1.3-2 2.6-3.5 4-1.3 1.2-2.2 1.8-2.7 3.4-.6 1.6.3 4 .8 5.7 5.2 17.8 8.2 22.3 15.6 39.5 2.1 4.9 9.2 23-6.7 62.1-2.8 6.8-9.2 10.7-14.4 15.9 1.5 1.4 3.1 2.8 4.6 4.1-4.4 7.1-8.1 14.9-9.5 23.1-3.6 20.4 6.1 41.3 2.5 61.7l7.3 6.3 1.4-5.1c9.3-31.9 5.6-49.8 4.6-53-1.1-3.1-1.3-2.5.6-6.8 1.1-2.5 5.5-8.4 8.9-12.8 2.9 2.3 5.8 4.5 9 6.4-.3 1-.7 2-.9 3.1-1.9 6.5-2.5 14.4 2.2 19.2 2.3 2.3 5.5 3.5 8.5 4.6 14.6 5.4 29.1 11.3 43.4 17.6l3.6-6.5c-16.5-10.1-24.8-17.3-40.6-22.3z" fill="#fff"/>
		<path d="M72.7 240.9c.5 0 .7.7.6 1.2-.1.5-.2 1.1.1 1.5.4.5 1.2.3 1.7.1.2-.1.3-.1.4-.3 0-.1 0-.3-.1-.4-.4-.7-.9-1.3-1.4-1.9-.2-.3-.5-.5-.9-.5s-.7.3-.6.6M38.9 235.2c.5.7-.7 1.4-.8 2.2 0 .5.3.9.8 1.1.5.2 1 .2 1.4.2.1-.9 0-1.9-.3-2.8-.1-.3-.3-.7-.5-.8-.3-.2-.8-.1-.9.2" opacity=".1"/>
		<path d="M83.3 112.8l8.7 4.1s-9.3 4.2-10.7 8c0 0-.6-6.3 2-12.1z" fill="#006197"/>
		<path d="M94.7 79.5c-.2-.1-.3-.1-.5-.2-.4-.2-.6-.7-.4-1.2.2-.4.7-.6 1.2-.4 1.3.6 3 .3 4.1-.7.4-.3.9-.3 1.3 0 .3.4.3.9 0 1.3-1.6 1.4-3.8 1.8-5.7 1.2zM98.5 92.5c-.2-.1-.5-.2-.6-.4-.2-.3-.4-.6-.3-.9 0-.5.4-.9.8-1.2.3-.2.6-.2.9-.2.1 0 .3 0 .5.1.3.2.5.5.6.9.1.4 0 .9-.3 1.2-.3.3-.7.5-1.1.5-.3.1-.4.1-.5 0zm.5-1.8s-.1 0-.3.1c-.2.1-.3.3-.3.4 0 .1.1.2.1.3.1.1.2.2.4.2.1 0 .3-.1.4-.2.1-.1.2-.3.1-.5-.1-.3-.1-.3-.2-.3H99zm.3 0zm0 0zM101.3 86.5c-.5-.2-.7-.6-.6-1.1.4-1.4.7-2.8.9-4.2.1-.5.5-.8 1-.8.5.1.8.5.8 1-.2 1.5-.5 3.1-1 4.6-.1.4-.6.7-1.1.5zM100.7 90c-.4-.1-.7-.6-.6-1l.3-1.7c.1-.5.6-.8 1-.7.5.1.8.6.7 1l-.3 1.7c-.1.6-.6.9-1.1.7 0 .1 0 .1 0 0zM95.8 87.5c-.5-.2-.8-.5-1-.8l-.2-.2c-.5-.5-1.3-.8-2-1-.3-.1-.5-.5-.4-.8.1-.3.5-.5.8-.4.8.3 1.8.6 2.5 1.4.1.1.1.2.2.3.1.2.3.4.4.4.4 0 .7.3.6.7 0 .4-.3.7-.7.6 0-.1-.1-.2-.2-.2zM97.4 103.6c-.4-.1-.9-.3-1.3-.5-.3-.2-.5-.6-.3-.9.2-.3.6-.5.9-.3 1 .5 2.2.8 3.3.9.4 0 .6.3.6.7 0 .4-.3.6-.7.6-.8 0-1.7-.2-2.5-.5z" fill="#000"/>
		<path d="M97.5 85.3c-.5-1.2-1.7-2.1-3.6-2.7-.3-.1-.6-.2-.8-.2-.1 0-.1 0-.2-.1-.1-.2-.1-.4-.1-.6 0 0-.1.2-.2.5-.1 0-.2-.1-.3-.1-.2-.3-.4-.7-.4-1.1 0 0-.2.5-.2.9-.1 0-.2-.1-.4-.1-.2-.3-.4-.7-.5-1.1 0 0-.2.4-.2.7-.1 0-.1-.1-.2-.1-.1-.1-.2-.1-.3-.1-.2-.3-.4-.6-.4-.9 0 0-.1.5-.1 1l-.1.1c-.2.3-.2.7.1.9.9.7 2.1 1 3.1 1.3.3.1.5.1.8.2 1.5.4 2.4 1.1 2.7 1.9.1.2.2.3.4.4h.5c.4 0 .6-.4.4-.8zM104.5 98.7c-.5-1-1.5-1.5-2.4-1.9-1.1-.5-2.3-.9-3.6-1.2-.9-.2-2-.3-3 0-1.2.4-2.1 1.3-2.2 2.4-.1.6.1 1.2.6 1.6.3.2.5.3.8.4l2.2.8c.3.1.7-.1.8-.4.1-.3-.1-.7-.4-.8l-2.2-.8c-.1 0-.3-.1-.4-.2-.1-.1-.1-.3-.1-.5.1-.7.7-1.1 1.3-1.3.2.4.5.7.9.9.5.3 1 .5 1.4.6l1 .3c.1 0 .2.1.3.1 1.1.4 2.5.7 3.8.4l.1.1c.3.5.2 1.2-.2 1.5-.3.2-.9.1-1.3 0-.7-.1-1.4-.3-2.1-.6-.3-.1-.7.1-.8.4-.1.3.1.7.4.8.8.3 1.5.5 2.3.6.7.1 1.6.2 2.3-.2 1-.4 1.1-1.9.5-3zm-4.9-1.2l-1-.3c-.3-.1-.6-.2-.8-.3.2 0 .3.1.5.1 1.2.3 2.3.6 3.4 1.1-.7-.1-1.3-.3-2.1-.6zM68.1 215c-.6-.2-1.1-.9-1-1.6l2.3-17.5c.2-1.2.3-2.6-.1-3.6-.3-.7-1.1-1.3-1.6-1.1-.7.3-1.6-.1-1.9-.8-.3-.7.1-1.6.8-1.9 2.2-.8 4.5.7 5.3 2.7.7 1.7.5 3.6.3 5.1L70 213.8c-.1.8-.8 1.3-1.6 1.2-.1.1-.2 0-.3 0z" fill="#000"/>
		<path d="M103 92c.2.2.3.5.4.8.3.5 1 .8 1.4 1.3.2.3.4.6.4.8 0 .3-.1.5-.4.6-.3.1-.6 0-1-.2-.3-.2-.6-.4-.8-.7-.5-.5-1-1.3-1.1-1.9 0-.4.3-1.5 1.1-.7z" fill="#c9c9c9"/>
		<path d="M105.7 94.9c0-.4-.2-.8-.5-1.1-.2-.2-.4-.4-.7-.6-.3-.2-.6-.4-.7-.7 0-.1-.1-.1-.1-.2v-.1c.2-.3.2-.6.1-1-.1-.6-.8-1-1.3-1.1-.5-.1-.9.1-1.1.5l-.3.5v.1c-.2.5-.2.9.1 1.3.1.1.3.3.5.4.2.8.9 1.7 1.2 2 .3.4.6.6.9.8.1.1.3.2.4.2.3.1.6.1.9.1.3-.2.6-.6.6-1.1zm-3.6-3.5c-.2.1-.3.3-.4.4 0 0 0-.1.1-.2l.3-.5h.2c.2 0 .4.1.5.2-.3-.1-.6 0-.7.1zm2.6 3.7c-.1 0-.4 0-.6-.2-.2-.1-.5-.3-.7-.6-.5-.6-.9-1.2-1-1.7 0-.1 0-.4.1-.5 0 0 .1.1.2.1.1.1.1.2.2.3 0 .1.1.2.1.3.2.4.6.7 1 1 .2.2.4.3.6.5.2.2.3.4.3.6-.1.2-.2.2-.2.2z" fill="#000"/>
		<path d="M107.1 95c.2 0 .3.2.5.3.3.2.7 0 1 0 .2 0 .4.2.5.4s.2.5.1.7c-.1.2-.2.4-.4.5-.2.1-.4 0-.6 0-.4-.1-.9-.3-1.2-.7-.1-.3-.5-1.3.1-1.2z" fill="#c9c9c9"/>
		<path d="M108 97.3c-.5-.2-.9-.4-1.2-.8-.2-.2-.6-1.1-.3-1.6.1-.3.4-.4.7-.3.3 0 .4.2.5.3l.1.1h.3c.2 0 .3-.1.6 0s.6.3.8.6c.2.3.3.7.2 1-.1.4-.3.7-.7.8-.2.1-.5.1-.8 0-.1-.1-.1-.1-.2-.1zm-.7-1.6c0 .1.1.2.1.2.2.3.6.5.9.5h.3l.1-.1c0-.1 0-.3-.1-.4l-.2-.2h-.3c-.1.2-.4.2-.8 0zm-.3-.3z" fill="#000"/>
		<path d="M129 279.5c.2-1 .1-2 0-3-.1-.9-.1-1.7 0-2.5.2-1 1-2 1.7-3 .9-1.2 1.9-2.5 2.3-4.2.1-.3.1-.9-.1-1.4-.2-.7-.8-1-1-1.2-2.3-1.7-5.3-2.4-8.1-2-.2 0-.7.1-1.1.3h-.1c-3-2-5.8-3.8-8.4-5.6-10.8-7.3-18.6-12.6-31.3-16.5-.5-.2-1-.9-1-1.5 0-.4.4-.9.7-1.3l3.3-4.2c5.6.1 11.2-1 16.3-3.2.6-.3 1.2-.6 1.8-.8 2.1-.9 4-1.8 6.1-2.1 1-.1 2.1-.1 3.2-.1.9 0 1.8.1 2.7 0 3.6-.2 7.1-1.6 9.8-3.9.3-.3.5-.7.5-1.1-.2-8.6-2.2-17.1-4.1-25.3-1-4.3-2.1-8.7-2.8-13.1-1.2-7.1-1.5-13.6-.8-19.4v-.3-.2c0-.2.1-.4.3-.5.2-.2.6-.6.6-1.4v-.3c.4-.4.6-1 .4-1.6.1-.2.3-.4.4-.6.2-.7 0-1.3-.1-1.5-.1-.2-.1-.5-.1-.7v-.1c1.1-3.5 2.8-6.7 4.9-9.4 3.8-4.9 7.1-8.6 10-11 7.9-6.6 14.1-12.3 20.9-19.7.4-.4.5-1 .3-1.5v-.1c0-.4-1.1-9.3-2.3-13.3 3.3-13.8 2.9-28.9-1.5-41.2v-.1c-.3-.7-.5-1.4-.5-2 0-.8.4-1.6.8-2.4v-.1c2.8-6 4.5-10.6 6-16.9.2-.6.4-1.7 0-2.7-.3-.7-.8-1.3-1.5-1.6.1-1.4-.4-2.5-1.5-3-.1 0-.2-.1-.3-.1 0-.6-.2-1.2-.5-1.7-.4-.6-1-1-1.7-1.1h-.7c-.2-.9-.7-1.7-1.5-2.2-.6-.4-1.3-.5-2-.4-1.8.4-2.1 2.4-2.3 3.1-.7 3.8-2 7.5-3.7 10.9-.6-1.1-1.3-2.2-2-3.2-.3-.4-1.2-1.7-2.6-1.9-.7-.1-1.3.1-1.8.5-.6.5-.9 1.2-1 2.1-.2 1.9.6 3.5 1.3 4.9.5.9.9 1.8 1 2.7.1.8 0 1.8-.1 2.8-.2 1.3-.3 2.7 0 4.1.4 1.4 1.1 2.5 1.9 3.6.3.4.6.9.8 1.3.9 1.5 1.4 3.3 1.7 4.9 2.2 9.5 2.1 17.9-.2 24.9-.5.1-1 .5-1.2 1-1.9 6.5-4.1 8.7-7.3 12-1.1 1.1-2.2 2.3-3.6 3.7l2.7-9.3c1.1-3.9 2.4-8.4 2.6-13 .4-9.3-4-18.7-11.2-23.8-2.7-1.9-6-3.5-10.1-4.7-8.1-2.4-15.8-1.8-21.7 1.9-6.5 4-12.2 10.2-15.7 17.1-2.3 4.5-3.6 9.3-3.8 14-.1 1.5 0 3 0 4.5-.3-.6-.7-1.2-1-1.9-4.8-10.6-8-19.9-9.7-30.7-.1-.5-.4-.9-.9-1.1-.5-.2-1-.1-1.4.2-.4.3-.8.7-1.2 1-1.1-6.3-.6-13.5 1.6-21.5.4-1.6 1-3.4 1.9-4.9l.9-1.2c.8-1 1.6-2.1 2-3.5.4-1.4.3-2.8.2-4.1-.1-1-.2-1.9 0-2.8.2-.9.7-1.7 1.2-2.7.8-1.4 1.6-3 1.5-4.9 0-.9-.4-1.6-.9-2.1-.5-.4-1.1-.6-1.8-.6-1.4.2-2.4 1.4-2.7 1.8-.8 1-1.5 2.1-2.2 3.2-1.6-3.5-2.7-7.2-3.2-11.1 0-.5-.3-2.6-2-3.1-.7-.2-1.4-.1-2 .3-.7.4-1.3 1.2-1.5 2.1h-.7c-.8.1-1.4.5-1.8 1.1-.4.5-.5 1.1-.6 1.7-.1 0-.2 0-.3.1-1.1.3-1.7 1.4-1.7 2.9-.7.3-1.2.8-1.5 1.5-.4 1-.2 2.1-.1 2.7 1.2 6.4 2.7 11 5.2 17.1v.1c.4.9.7 1.7.7 2.5 0 .6-.3 1.3-.6 1.9v.1c-4.4 10.8-5.8 23.8-4.1 36.3-.9 1.1-1.7 2.2-3 3.3-.2.2-.4.4-.6.5-1 .9-1.9 1.7-2.5 3.4-.7 1.9 0 4.1.6 5.9.1.2.1.4.2.6 3.8 13.1 6.5 19 10.5 28 1.5 3.3 3.2 7 5.2 11.7 6.1 14.2 3.7 35.3-6.7 61-1.9 4.6-5.6 7.9-9.5 11.3-1.5 1.3-3.1 2.7-4.5 4.1-.3.3-.4.7-.4 1.1 0 .4.2.8.5 1 1.2 1.1 2.5 2.2 3.7 3.3-4.8 7.9-7.8 15.3-9.1 22.6-1.9 10.4-.3 21.1 1.2 31.4 1.4 9.8 2.9 20 1.4 29.7-6.4 1.6-12.9 3.5-19.1 5.5-.7.2-1.9.6-2.5 1.7-.9 1.5-.3 3.3.7 4.4 1 1.1 2.4 1.8 3.7 2.2.9.3 1.9.5 2.7.7l6.2 1.3c1.1.2 2.3.5 3.6.4 1.2-.1 2.3-.5 3.4-.9 1.2-.4 2.3-.8 3.3-.7.8.1 1.6.6 2.5 1.1 1.3.8 2.8 1.6 4.6 1.5.7-.1 1.2-.3 1.6-.6.4-.4.6-.8.7-1 1.8-4.2 2.1-7.7.9-10.4-.2-1.3-.5-2.6-.6-3.2 3.9-13.5 6-26.1 6.1-37.3.1-10.5-1.5-15.7-1.7-16.2-.1-.4-.2-.7-.3-1-.4-1-.4-1.2-.4-1.6.1-.5.5-1.4 1.1-2.9l.1-.3c.9-2.1 4.5-7 7.8-11.3 2.2 1.7 4.6 3.5 7 5-.2.7-.4 1.3-.6 2-1.8 6.4-2.9 15.1 2.6 20.6 2.5 2.6 6 3.8 9.1 5 14.2 5.2 28.4 11 42.3 17.1l-.2 1.1c-.2.4-.3.7-.4 1.1-.9 3-1.7 6.1-2.5 9.1l-1.2 4.5c-.3.9-.7 2.5.1 3.9.5.8 1.2 1.3 2 1.6.9.3 1.9.3 2.7 0 1.4-.4 2.4-1.4 3.3-2.3 2-2 3.8-4.2 5.5-6.5.6-.9 1.6-2.4 1.9-4.2zm23.7-170.6l-.3-.6c0-.1.1-.2.1-.4.1.3.1.6.2 1zm-7.3-47.2c-.4-1.8-1-3.9-2.1-5.8-.3-.5-.6-1-1-1.5-.6-.9-1.2-1.7-1.4-2.6-.2-.9-.1-1.9 0-3.1.1-1.1.3-2.3.1-3.6-.2-1.3-.8-2.4-1.3-3.5s-1-2.1-1-3c.1.1.1.2.2.3 1.5 2.1 2.8 4.4 3.9 6.8.1.3.3.5.6.7.2.1 2.1 1.3 1.7 4.8-.1.8.5 1.5 1.3 1.6.8.1 1.5-.5 1.6-1.3.4-4.4-1.8-6.6-2.8-7.3-.1-.2-.2-.3-.2-.5.7-1.2 1.3-2.5 1.9-3.7 1.5.3 4 1.1 5 3.2.1.2.3.4.5.5.2.1.4.1.6 0 .4-.2.6-.7.4-1.2-1.2-2.7-4.1-3.8-5.9-4.2 1-2.6 1.8-5.3 2.3-8 0-.2.1-.3.1-.4v.1c0 .4-.2 1.7-.3 2.3 0 .3-.1.5-.1.7-.2 1.5.8 1.8 1.1 1.9.1 0 1.3.3 1.8-1.1.1-.2.1-.4.2-.7 0-.1.1-.2.1-.2 0 .1-.1.3-.1.5-.1.4-.2.7-.2.9-.3 1.2.4 1.7.7 1.8.5.2.9.2 1.2 0-.1.2-.1.4-.1.5-.3 1.3.3 1.8.9 2 .1 0 .6.2 1.1 0v.2c-1.5 6.2-3 10.5-5.8 16.3v.1c-.5 1.1-1.1 2.3-1.1 3.7 0 1.1.3 2.1.7 3v.1c4.5 12.7 4.7 28.4.7 42.4-.4-.8-.8-1.6-1.3-2.5-2.2-3.8-2.6-5-3.3-7.5-.4-1.2-.8-2.5-1.5-4.6 2.9-7.9 3.2-17.3.8-28.1zm-62.7 26c.1-.2.2-.3.2-.4.7.2 1.4-.1 1.7-.8.6-.2 1-.7 1.1-1.3v-.5c0-.3 0-.7.1-1.1 0-.2 0-.4.1-.6.2-1.5.2-2.2.6-3.5.2-.5.4-1.1.6-1.6l.2-.5c1.1-1.7 3.8-2.7 6-3.5l.3-.1c2.1-.8 4.4-1.8 5.8-3.6 1.2 1 2.6 1.7 4 2.4.9.4 1.7.8 2.4 1.3 2.5 1.6 4.3 4 5.1 6.8-.7-.4-1.3-.9-1.5-1.5-.2-.4-.7-.6-1.2-.4-.4.2-.6.7-.4 1.2.6 1.3 1.8 2 2.6 2.4.3.1.6.3.9.4.1.9.2 1.9.1 2.8-.1.2-.3.4-.4.6-.1 0-.1 0-.2-.1-.2 0-.3-.1-.5-.1-1.5-.4-3.1 0-4.3 1-.3.2-.3.7-.1.9.1.1.2.2.3.2.2.1.5 0 .6-.1.8-.7 2-1 3.1-.7.1 0 .3.1.4.1.2.1.5.1.7.2h.2v.4c-.1 0-.1 0-.2-.1-1.5-.1-3.1-.2-4.6.4-.3.1-.5.5-.4.9.1.2.2.3.4.4h.5c1.2-.5 2.7-.4 4-.3h.2c-.1 2.3-.3 4.7-.5 7v.1c-.1.2-.1.5 0 .8-.2 2.4-.4 4.9-.7 7.3-1 1.4-2.1 2.8-3.6 3.7-1.3.8-3 1.2-4.9 1.1-.8 0-1.5.6-1.5 1.4 0 .7.4 1.2 1 1.4.1 0 .3.1.4.1 1.9.1 3.8-.3 5.3-.9.8.4 1.5.9 2.3 1.4-.1.6-.2 1.2-.2 1.8-2.2.2-3.8.1-5.5-.1-1.9-.1-3.8-.2-6.5 0-1.3.1-2.7.5-4.2 1-2.5-1.3-5.1-2.5-7.6-3.7.3-1.3.6-2.7.7-4 .1-.7.1-1.4.1-2 .5.1 1.1.2 1.6.3 1.1 1.3 2.4 2.5 4.1 3.5.2.1.5.2.7.4.1 0 .1.1.2.1.7.2 1.4-.1 1.7-.7.4-.7.1-1.6-.7-1.9l-.6-.3c-1.1-.6-2.1-1.4-3-2.5-.1-.1-.2-.3-.3-.4v-.1c-.1-.2-.3-.4-.4-.6-.1-.1-.1-.2-.2-.2 0-.1-.1-.1-.1-.2-.1-.1-.1-.2-.2-.3 0-.1-.1-.1-.1-.2-.1-.1-.1-.2-.2-.4 0-.1-.1-.1-.1-.2-.1-.1-.1-.3-.2-.4 0-.1-.1-.1-.1-.2l-.3-.6c-1.1-2.5-1.6-5.2-2-7.8v-.5c0-.4-.1-.8 0-1 .2-.7-.3-1.4-.9-1.7-.1-.5-.4-.9-.8-1.1-.4-.2-.8-.5-1-.9-.1 0-.2 0-.1-.1-.1.1 0 .1 0 0zM89 117c-2.2 1.1-4.3 2.4-6.1 4 .3-2.1.8-4.2 1.3-6.3 1.6.7 3.2 1.5 4.8 2.3zM52.8 36v-.1c.3-.9.7-1.8.8-2.9.1-1.4-.5-2.6-.9-3.7v-.1c-1.5-3.4-2.5-6.3-3.4-9.4 1.4-1.9 4.9-3 6.3-3.3.5-.1.8-.6.7-1-.1-.5-.6-.8-1-.7-.2 0-4.1.8-6.5 3-.3-1.3-.6-2.7-.9-4.2.1.1.3.2.5.2.5.1 1.1 0 1.4-.4.5-.5.5-1 .3-1.7.5.2.9.1 1 .1.4-.1 1.3-.5 1-2 0-.2-.1-.5-.2-.9 0-.1-.1-.4-.2-.7-.1-.3-.1-.6-.2-1 0-.2-.1-.3-.1-.5 0 .1 0 .2.1.2.2.7.3 1.2.4 1.6.1.4.6 1.8 1.9 1.5.6-.2 1.3-.6 1-2.1-.1-.3-.2-.8-.3-1.4-.2-.9-.4-1.9-.3-2.6v-.1c0 .1 0 .3.1.4.7 4.8 2.1 9.3 4.3 13.6-.1.2-.2.3-.3.5-1 .7-3.3 2.8-3.1 7.2 0 .8.7 1.4 1.5 1.4s1.4-.7 1.4-1.5c-.2-3.5 1.8-4.6 1.9-4.7.3-.1.5-.3.6-.6 1.2-2.3 2.6-4.5 4.1-6.6.1-.1.1-.2.2-.3-.1.9-.6 1.9-1.2 3s-1.2 2.2-1.4 3.5c-.3 1.2-.2 2.4-.1 3.6.1 1.1.2 2.2-.1 3.1-.3.9-.9 1.7-1.5 2.6-.3.5-.7.9-1 1.4-1.2 1.8-1.8 3.9-2.3 5.7-2.5 9.2-3 17.4-1.3 24.6-.7.7-1.4 1.4-2 2.1-1.2 1.3-2.3 2.5-3.7 3.6-.7.6-1.2 1.1-1.8 1.7-1-11.2.4-22.6 4.3-32.1zm-6.1 195.9l-.1.3c-1.6 3.6-1.7 4-.8 6.6l.3.9c.1.2 5.6 17.2-4.6 52.1-.1.2-.1.5 0 .8 0 0 .2.6.3 1.4-.3-.1-.7-.3-.9-.4-.4-.2-.8-.3-1.1-.5-1-.3-2-.7-3-1-.2-.1-.3-.1-.5-.2s-.5-.2-.8-.3c.1-.1.1-.3.1-.4 1.8-10.4.3-21-1.2-31.3-1.5-10.1-3-20.5-1.2-30.4 1.2-6.8 4-13.7 8.4-21.2 4.4 3.9 8.8 7.8 13.4 11.5-3.4 4.5-7.3 9.7-8.3 12.1zm10.6-13.6c-6.4-5.2-12.6-10.7-18.7-16.2 1.1-1 2.2-2 3.3-2.9 4-3.5 8.2-7.1 10.3-12.4 7.5-18.4 14.8-44.3 6.7-63.2-2-4.7-3.7-8.5-5.2-11.8-4-8.8-6.6-14.7-10.4-27.6-.1-.2-.1-.4-.2-.7-.4-1.3-1-3.1-.6-4.1.4-1 .9-1.5 1.8-2.3l.6-.6c1.6-1.5 2.6-2.8 3.6-4.1 1-1.3 2-2.6 3.6-4 1.5-1.3 2.7-2.5 3.9-3.9 1.1-1.1 2.2-2.3 3.5-3.5 1.9 10 5 19 10 28.8 1.7 3.3 3.7 6.6 6.7 9l2.1 1.5c2.8 1.9 4.7 3.1 4.3 7.1-.2 2-.7 4.2-1.3 6.4-.9 3.6-1.8 7.3-1.5 11.1 0 .6.5 1.1 1.1 1.3.6.1 1.2-.1 1.6-.6 2.4-3.9 9.9-7.8 14.4-8.2 2.4-.2 4.2-.1 6 0 1.6.1 3.2.2 5.3.1-.2 1.4-.4 2.9-.6 4.3-.2 1.5-.5 3.1-.2 4.7.4 2.8 2.4 5.3 5.2 6.6.4.2.8.3 1.2.5 2.2.7 4.6.7 7 0 2-.6 3.3-1.5 4-2.9.5-1.1.5-2.5 0-3.6-.4-.7-1-1.3-1.8-1.5 1.5-2.7 2.4-5.7 3.2-8.3l2.4-7.8c1.3-1.1 2.5-2.2 3.6-3.5 1.4-1.6 2.6-2.8 3.7-3.9 2.7-2.7 4.9-4.9 6.7-9.3.3.8.5 1.5.7 2.1.8 2.4 1.2 3.9 3.6 8 1.1 1.9 1.7 3.4 2.4 4.9.9 2.2 1.9 4.4 4.1 7.7-6.4 6.9-12.4 12.3-19.9 18.6-3.1 2.6-6.5 6.4-10.4 11.5-2.4 3.1-4.2 6.7-5.5 10.7-.1.2-.1.4 0 .6 0 .4 0 .9.1 1.3-.2.2-.3.4-.4.7-.1.3-.1.5-.1.7l-.1.1c-.2-.1-.4-.2-.6-.2.1-.1.2-.2.2-.4.3-.7-.1-1.6-.8-1.9-1.4-.5-2.7-1.1-4-1.7-.7-.3-1.6 0-1.9.7-.3.7 0 1.6.7 1.9 1.2.5 2.4 1 3.5 1.5-1.1.4-2.2.9-3.2 1.4-.7.4-.9 1.3-.6 2 .2.3.5.6.8.7.4.1.8.1 1.1-.1.9-.5 1.8-.9 2.8-1.2.3-.1.4-.1.5-.1.2.1.4.1.6.1 0 .1-.1.2-.1.3 0 .1-.1.2-.1.3v.1c0 .1 0 .3-.1.4-.8 6.1-.6 13 .7 20.5.8 4.5 1.8 9 2.8 13.3 1.8 7.8 3.7 15.9 4 24-2.2 1.7-4.9 2.6-7.6 2.8h-2.4c-1.2 0-2.4-.1-3.7.1-2.5.3-4.7 1.3-6.9 2.3-.6.3-1.2.5-1.8.8-9.5 4.1-20.8 3.9-30.2-.3-4.8-2-9.3-5.4-13.5-8.7zm61.9 50.9c-14.1-6.2-28.6-12.1-43.1-17.4-2.9-1.1-5.9-2.2-8-4.3-4.5-4.5-3.5-12.2-1.9-17.8.1-.4.3-.9.4-1.3 1 .6 2.1 1.1 3.1 1.6 1.3.6 2.6 1.1 3.9 1.5 2.8.9 5.8 1.5 8.7 1.8l-2 2.6c-.5.6-1.3 1.6-1.4 2.9-.1 1.9 1.2 3.8 3 4.4 12.3 3.8 20 9 30.6 16.2 2.7 1.8 5.5 3.7 8.6 5.7-.2 1.4-1 2.7-1.9 4.1z" fill="#000"/>
		<path d="M59.4 156.2c.7-.3.7-1.1 1.3-1.6 1.3-1 1.9-1.2 3.3-.9 2.5.5 5.6 1.2 8 1.9 1.7.5 2.6 1 3.5 2.5.3.4.5 1.7.8 2 .3.3 1.6.7 2.1.8 11.8 3.6 25.6 5.5 37.8 7.2-.1 3-.2 4.5-.9 8-13.2-.4-25.8-3.1-38.5-6.8-.8-.2-1.8-.4-2.4.1-.7.6-1.1 1.7-1.4 2.6-.3 1-1.3 1.7-2.3 1.9-1 .3-2.3.1-3.3 0-3.2-.5-5-1-8-2.1-1-.4-2-.9-2.3-1.9-.2-.6-.4-1.1-.4-1.7 0-.9.3-3.1-1-3.4-.5-.1-1.2-1-1.4-1.5-.2-.5-.1-1 0-1.5.4-2.1.5-3.2 1.4-5.1.9-1.3 2.1.1 3.7-.5z" fill="#006196"/>
		<path d="M116.2 170.6c-.1 1.2-.2 2.2-.4 3.5-10.8-.5-24.6-3-38.1-6.9-.8-.2-2.9-.9-4.6.6-1.1 1-1.7 2.4-2.1 3.6 0 .1-.3.3-.6.4-.5.1-1.3.1-2.4 0-1.7-.2-2.9-.5-4.2-.9-.9-.3-1.9-.6-3.3-1.2-.6-.2-.8-.4-.9-.5 0-.1-.1-.3-.1-.4-.1-.2-.2-.5-.2-.6v-.4c0-.6 0-1.4-.1-2.2-.4-2-1.6-2.7-2.3-2.9v-.1c0-.1 0-.3.1-.4l.1-.5c.2-1.4.4-2.2.8-3.2.7.1 1.5.1 2.5-.2 1.3-.5 1.8-1.5 2.1-2v-.1c.6-.5.6-.5 1.3-.3 2.9.6 5.3 1.2 7.1 1.7.2.1.4.1.6.2 1.3.4 1.7.6 2.1 1.4 0 .1.1.3.1.4.2.8.5 1.6 1.2 2.2.6.6 1.5.9 2.8 1.3.1 0 .1 0 .2.1.3.1.6.2 1 .3 11.1 3.2 23.8 5.1 35.1 6.7M116.3 168.2c-11.9-1.7-25.3-3.6-36.9-7l-.9-.3c-.5-.1-1.7-.5-2.1-.8-.4-.3-.6-1.6-.8-2-.9-1.5-1.9-2-3.5-2.5-.2-.1-.4-.1-.7-.2-2.3-.7-5-1.3-7.3-1.7-1.4-.3-2.1-.1-3.3.9-.6.5-.6 1.3-1.3 1.6-1.6.6-2.8-.8-3.5.7-.9 1.9-1.1 3-1.4 5.1-.1.5-.2 1 0 1.5s.8 1.4 1.3 1.5h.2c1.1.3.9 2.5.9 3.3 0 .6.3 1.2.4 1.7.3 1 1.4 1.5 2.3 1.9 1.3.5 2.4.9 3.5 1.2 1.4.4 2.7.7 4.5.9 1 .1 2.3.3 3.3 0s2-.9 2.3-1.9c.3-.9.7-2 1.4-2.6.6-.6 1.6-.4 2.4-.1 12.7 3.7 25.3 6.4 38.5 6.8.5-3.5.6-4.9.7-8z" fill="#2d2d2d"/>
		<path d="M115.9 176.3c.6-3.5.8-5 .9-8.1 0-.2-.2-.4-.4-.5l-1.6-.2c-11.4-1.6-24.2-3.5-35.3-6.7l-.9-.3-.2-.1c-.4-.1-1.5-.4-1.7-.6-.1-.1-.3-.7-.4-1-.1-.4-.2-.7-.3-.9-1-1.6-2-2.2-3.8-2.7-.2-.1-.5-.1-.7-.2-1.9-.6-4.3-1.1-7.4-1.8-1.5-.3-2.3-.1-3.7 1-.4.3-.5.6-.7.9-.2.3-.3.5-.5.6-.6.2-1.1.1-1.6 0-.7-.1-1.6-.3-2.2.9-.9 1.8-1.1 2.9-1.4 4.7l-.1.5c-.1.5-.2 1.1 0 1.8.2.6.9 1.6 1.6 1.8h.2c.6.2.6 1.7.6 2.4v.5c0 .5.2 1 .3 1.5 0 .1.1.3.1.4.4 1.2 1.5 1.7 2.6 2.1 1 .4 1.9.7 2.6.9l.9.3c1.4.4 2.8.7 4.6.9 1 .1 2.3.3 3.5 0 1.3-.3 2.3-1.2 2.6-2.2.1-.4.6-1.8 1.3-2.4.4-.4 1.2-.2 2 0 14.6 4.3 26.9 6.4 38.6 6.8.3.1.5-.1.5-.3zm-.1-5.4l-.3 2.7c-10.9-.6-24.6-3.1-37.7-6.9-.9-.3-3.2-.9-5 .7-.7.6-1.2 1.5-1.6 2.3l-1.9-5.1 4.2-4c.2.6.5 1.1 1 1.6.7.6 1.6 1 3 1.4l.2.1c.3.1.6.2 1 .3 10.7 3.1 24.9 5.2 36.3 6.8l.8.1zm-47.3 1.4c.9.1 1.5.1 2 0 .2-.1.4-.1.6-.3l.4.9-3-.6zm-2.5-5.1c0-.1-.2-.3-.3-.3-.2 0-.3 0-.4.1l-2.9 3c-.5-.2-1.1-.4-1.7-.6-.4-.2-.6-.3-.7-.3 0-.1-.1-.2-.1-.2 0-.1-.1-.4-.2-.5v-.1l4.6-4.4c.1-.1.2-.3.1-.5l-2.2-5.9c.2-.3.4-.6.5-.8.4-.3.4-.3.8-.2.6.1 1.2.3 1.8.4l1.4 4.1c0 .1.2.3.3.3.1 0 .3 0 .4-.1l3-3c.1 0 .2 0 .2.1.2.1.4.1.6.2 1.2.4 1.5.6 1.9 1.2 0 .1 0 .1.1.2l-4.7 4.5c-.1.1-.2.3-.1.5l2.3 6.3c0 .1-.1.2-.1.2s-.2.1-.3.2c-.3.1-.9.1-2.2-.1-.2 0-.4-.1-.6-.1l-1.5-4.2zm.4 3.9c-.9-.2-1.7-.4-2.5-.6-.2-.1-.4-.1-.6-.2l2.1-2.2 1 3zm-8.5-1.3l1-.9c0 .1 0 .1.1.2 0 .1.1.2.1.3 0 .1.1.2.1.2.2.2.5.3 1.1.5.5.2 1 .4 1.4.5l-3.8-.8zm1.6-4.1c-.4-2-1.5-2.8-2.3-3.2v-.1l.1-.5c.2-1.2.3-2 .7-2.8.6.1 1.5 0 2.4-.3.5-.2.8-.4 1.2-.7l1.9 5.2-3.8 3.6c-.1-.4-.1-.8-.2-1.2zm4.1-10.1c-.7-.1-.9-.1-1.6.4-.1 0-.1.1-.1.1v.1s0 .1-.1.1l-.5-1.3 2.3.6zm2.7 1.5c1.1.3 2.2.5 3.1.7l-2.1 2.1-1-2.8zm7.6 2c-.5-.9-1.1-1.2-2.4-1.6-.1 0-.3-.1-.4-.1l.1-.1 3.7.8-1 1zm2.2 1.4c.4.3 1.2.6 2 .8l.2.1.9.3c11.1 3.2 24 5.1 35.4 6.7l1.2.2c0 .5 0 1-.1 1.4l-.8-.1c-11.4-1.6-25.5-3.7-36.2-6.8-.3-.1-.6-.2-1-.3l-.2-.1c-1.3-.4-2.1-.7-2.6-1.2-.5-.4-.7-1-.9-1.6l1.2-1.1c0 .1.1.2.1.3.4.6.5 1.1.8 1.4zM64 154.2c3 .6 5.4 1.2 7.3 1.7.2.1.5.1.7.2.9.3 1.6.6 2.2 1l-2.8-.6c-.3-.1-.5 0-.7.2l-.4.4c-1.2-.3-2.6-.7-4.1-1l-.2-.5c-.1-.2-.3-.4-.6-.5l-3.2-.7c.4-.4.9-.4 1.8-.2zm-6.7 13.7c0-1.1.1-2.9-1.2-3.3h-.2c-.3-.1-.9-.8-1.1-1.2-.1-.4 0-.9 0-1.3l.1-.5c.3-1.8.5-2.8 1.3-4.5.3-.5.5-.5 1.3-.4.6.1 1.2.2 2-.1.6-.2.8-.7 1-1l.6 1.7c-.3.3-.6.5-1.1.7-.9.3-1.8.3-2.3.2-.2 0-.4.1-.5.3-.4 1.1-.6 1.9-.8 3.3l-.1.5c0 .1-.1.3-.1.4 0 .1 0 .2.1.3l.1.1c.1.1.1.1.2.1.7.3 1.7.9 2 2.6.1.7.1 1.4.1 1.9l-1.4 1.3c-.1-.2-.1-.5-.1-.7.1-.1.1-.2.1-.4zm10.4 5.8c-1.8-.3-3.1-.5-4.5-.9-1-.3-2-.6-3.5-1.2-.5-.2-1-.4-1.4-.7l3.1.7c.3.1.5 0 .8-.2l.3-.4c.4.1.7.2 1 .3 1 .3 1.9.5 3.1.7l.1.4c.1.3.3.4.6.5l3.3.7c-.8.3-2.1.2-2.9.1zm9.4-4.7c-1-.3-2-.5-2.8.2-.8.7-1.2 1.9-1.5 2.8-.1.3-.3.6-.5.8l-.7-1.8c.4-1 .9-2.1 1.7-2.8 1.5-1.3 3.5-.7 4.2-.5 13.1 3.8 26.8 6.3 37.8 6.9-.1.4-.1.8-.2 1.3-11.5-.5-23.6-2.6-38-6.9z" fill="#000"/>
		<path d="M65.3 167c.1-.1.3-.2.4-.1.1 0 .3.1.3.3l1.6 4.9 3.7.8-3.1-8.2c-.1-.2 0-.4.1-.5l6.4-6.1-3.7-.8-3.7 3.8c-.1.1-.3.2-.4.1-.1 0-.3-.1-.3-.3l-1.7-5-3.7-.8 3.1 8.3c.1.2 0 .4-.1.5l-6.4 6 3.7.9 3.8-3.8z" fill="#006196"/>
		<path d="M69.5 171l-2.7-7 5.4-5.2c.2-.2.2-.4 0-.6-.2-.2-.4-.2-.6 0l-5.1 4.9-2.6-6.7c-.1-.2-.3-.3-.6-.3-.2.1-.3.3-.3.6l2.7 7.1-5.5 5.3c-.2.2-.2.4 0 .6.1.1.1.1.2.1.2 0 .3 0 .4-.1l5.2-5 2.6 6.6c0 .1.2.2.3.3h.3c.3-.1.4-.3.3-.6z" fill="#000"/>
		<circle cx="80.8" cy="95.9" r="1" fill="#006197"/>
	</symbol>
	<symbol id="heart" viewBox="0 0 24 22">
		<path d="M12 19.9C-7.5 9.3 6.6-3.9 12 5c5.4-8.9 19.5 4.3 0 14.9z" fill="#fbd528"/>
	</symbol>
	<symbol id="heart-o" viewBox="0 0 36 34">
		<path d="M18 31.4c-.3 0-.6-.1-.9-.2C.7 22.3 1.7 12.8 2.4 10.1c1.1-4.4 4.9-7.5 9.1-7.5 2.4 0 4.7 1 6.5 2.9 1.8-1.9 4.1-2.9 6.5-2.9 4.3 0 8 3.1 9.1 7.5.7 2.7 1.7 12.2-14.7 21.1-.3.1-.6.2-.9.2z" fill="#fbd528"/>
		<path d="M24.5 4.5c7.7 0 14.5 13.6-6.5 25-21-11.4-14.2-25-6.5-25 2.3 0 4.7 1.2 6.5 4.1 1.7-2.9 4.1-4.1 6.5-4.1m0-3.9c-2.3 0-4.6.8-6.5 2.2C16.1 1.4 13.9.6 11.5.6 6.4.6 1.8 4.3.5 9.5c-.8 3.1-1.9 13.7 15.6 23.3.6.3 1.2.5 1.8.5.6 0 1.3-.2 1.8-.5 17.6-9.5 16.4-20.2 15.6-23.3C34.1 4.3 29.6.6 24.5.6z"/>
	</symbol>
	<symbol id="icon-hint" viewBox="0 0 232 252">
		<path d="M18.6 4.8h95.2C123.9 4.8 132 13 132 23v207.6c0 10.1-8.2 18.2-18.2 18.2H18.6C8.5 248.8.4 240.6.4 230.6V23C.3 12.9 8.5 4.8 18.6 4.8z" fill="#fff"/>
		<path d="M12.5 38.2h108.3v170.1H12.5V38.2zm38-18.2h31.4c2 0 3.5 1.6 3.5 3.5S83.8 27 81.8 27H50.5c-2 0-3.5-1.6-3.5-3.5s1.5-3.5 3.5-3.5zm15.6 196.4c6.2 0 11.1 5 11.1 11.1 0 6.2-5 11.1-11.1 11.1-6.2 0-11.1-5-11.1-11.1s5-11.1 11.1-11.1z" fill="#00619c"/>
		<path d="M101.2 52l-1.4-1.4 4.4-4.4 4.5 4.5c-.4.3-.8.6-1.4 1.1-.5-.6-1.2-1.4-1.8-2.2-.1.1-.3.1-.3.2v9.9h-1.9V49.6c-.6.9-1.4 1.7-2.1 2.4zm7.8 2.2c.3.1.6.1.6.1v8.8h-11v-8.8c.3-.1.6-.1.9-.1v-1.7h-2.7V65h14.9v-1.1c0-4.2.1-6.2.1-10.5v-1H109v1.8zM109.8 193.3c1.1 0 2 .9 2 2s-.9 2-2 2-2-.9-2-2 .9-2 2-2zm-6 0c1.1 0 2 .9 2 2s-.9 2-2 2-2-.9-2-2 .9-2 2-2zm-6 0c1.1 0 2 .9 2 2s-.9 2-2 2-2-.9-2-2 .9-2 2-2zM194.4 1.8c-18.9 0-34.4 14.7-35.6 33.3l-41.6 21.7 46.2-1.5c6.2 10.8 17.7 18 31 18 19.7 0 35.7-16 35.7-35.7 0-19.8-16-35.8-35.7-35.8z" fill="#fff"/>
		<path d="M194.4 74.9c-13 0-25.1-6.9-31.9-18l-45.3 1.5c-.8 0-1.4-.5-1.5-1.2-.2-.7.1-1.4.8-1.8l40.8-21.3C159 15 175.2.2 194.4.2c20.5 0 37.3 16.7 37.3 37.3s-16.8 37.4-37.3 37.4zm-31-21.1c.6 0 1.1.3 1.3.8 6.1 10.6 17.5 17.2 29.7 17.2 18.8 0 34.2-15.3 34.2-34.2S213.2 3.4 194.4 3.4c-17.9 0-32.9 14-34.1 31.9 0 .5-.3 1-.8 1.3L124 55.1l39.4-1.3c-.1 0 0 0 0 0zm-4.6-18.6z" fill="#fbd528"/>
		<path d="M194.7 178.7c-13.3 0-24.9 7.3-31 18l-46.2-1.5 41.6 21.7c1.2 18.6 16.7 33.3 35.6 33.3 19.7 0 35.7-16 35.7-35.7 0-19.8-16-35.8-35.7-35.8z" fill="#fff"/>
		<path d="M180.8 214.9c0 3.3-2.6 5.9-5.9 5.9s-5.9-2.6-5.9-5.9c0-3.3 2.6-5.9 5.9-5.9s5.9 2.7 5.9 5.9zm11.9-5.9c-3.3 0-5.9 2.6-5.9 5.9 0 3.3 2.6 5.9 5.9 5.9 3.3 0 5.9-2.6 5.9-5.9 0-3.2-2.7-5.9-5.9-5.9zm17.7 0c-3.3 0-5.9 2.6-5.9 5.9 0 3.3 2.6 5.9 5.9 5.9 3.3 0 5.9-2.6 5.9-5.9 0-3.2-2.6-5.9-5.9-5.9z" fill="#00619c"/>
		<path d="M194.4 251.7c-19.3 0-35.4-14.8-37.1-33.9l-40.8-21.3c-.6-.3-1-1.1-.8-1.8.2-.7.8-1.2 1.5-1.2l45.3 1.5c6.7-11.1 18.9-18 31.9-18 20.5 0 37.3 16.7 37.3 37.3s-16.8 37.4-37.3 37.4zm-70.5-54.8l35.5 18.5c.5.2.8.7.8 1.3 1.2 17.9 16.2 31.9 34.1 31.9 18.8 0 34.2-15.3 34.2-34.2s-15.3-34.2-34.2-34.2c-12.2 0-23.6 6.6-29.7 17.2-.3.5-.8.8-1.4.8l-39.3-1.3z" fill="#fbd528"/>
		<path d="M196 44.3V19.9c0-.1.5-.3.8-.4 1.6 1.9 3.2 3.8 4.4 5.4 1.5-1.2 2.6-2.1 3.4-2.8-3.8-3.8-7.5-7.5-11.1-11L182.6 22l3.5 3.5c1.7-2 3.7-3.8 5.2-6v24.8h4.7z" fill="#00619c"/>
		<path d="M212.3 29v-2.5h-7v4.3c.8.1 1.5.2 1.5.3v21.6h-27.1V31.1c.8-.1 1.5-.2 2.3-.4v-4.3h-6.7v2.7c0 11.3-.1 16.6-.1 28.2H212v-2.7c.1-10.3.3-15.2.3-25.6z" fill="#00619c"/>
	</symbol>
	<symbol id="icon-more" viewBox="0 0 36 36">
		<path d="M8.7 14.8c1.8 0 3.2 1.4 3.2 3.2s-1.4 3.2-3.2 3.2-3.2-1.4-3.2-3.2 1.5-3.2 3.2-3.2zm6.1 3.2c0 1.8 1.4 3.2 3.2 3.2s3.2-1.4 3.2-3.2-1.4-3.2-3.2-3.2-3.2 1.4-3.2 3.2zm9.3 0c0 1.8 1.4 3.2 3.2 3.2s3.2-1.4 3.2-3.2-1.4-3.2-3.2-3.2-3.2 1.4-3.2 3.2z"/>
	</symbol>
	<symbol id="icon-landscape" viewBox="0 0 160 176">
		<path d="M16 40.5C7.4 40.5.5 47.4.5 56l-.1 63.2c0 8.5 6.9 15.5 15.5 15.5l128.2.2c8.6 0 15.5-6.9 15.5-15.5l.1-63.2c0-4.1-1.6-8-4.5-11-2.9-2.9-6.8-4.5-10.9-4.6L16 40.5z"/>
		<path d="M144.2 46.4L16 46.2c-5.4 0-9.8 4.4-9.8 9.8L6 119.2c0 5.4 4.4 9.8 9.8 9.8l128.2.2c5.4 0 9.8-4.4 9.8-9.8l.1-63.2c.1-5.4-4.3-9.8-9.7-9.8z" fill="#006198"/>
		<path d="M133.8 121.1l-116.1-.2c-.1 0-.2-.1-.2-.2l.1-66.3c0-.1.1-.2.2-.2l116.1.2c.1 0 .2.1.2.2L134 121c0 .1-.1.1-.2.1zM143.9 79.4c-3.6 0-6.4 2.9-6.4 6.4s2.9 6.4 6.4 6.4c3.6 0 6.4-2.9 6.4-6.4s-2.9-6.4-6.4-6.4zM10.9 77.8v19.6c0 .6.5 1 1 1h.2c.6 0 1-.5 1-1V77.8c0-.6-.5-1-1-1h-.2c-.6 0-1 .4-1 1z" fill="#fff"/>
		<path d="M97.9 0c-1.6 0-2.8 1.3-2.8 2.8v7.7c-7.4-7-15.8-6.9-17.4-6.9C63.5 2.9 55.9 10.5 52 17c-4.1 6.9-5 14-5 14.3-.2 1.6.9 3 2.5 3.1h.3c1.4 0 2.7-1.1 2.8-2.5.1-1 3-23.9 24.9-22.6h.4c.1 0 8-.6 14.5 6.6l-8.3 2.9c-1.5.5-2.3 2.1-1.7 3.6.4 1.2 1.5 1.9 2.7 1.9.3 0 .6-.1.9-.2l12.9-4.5c1.1-.4 1.9-1.5 1.9-2.7V2.8c0-1.5-1.3-2.8-2.9-2.8zM102.2 141.6c-1.6-.2-3 .9-3.1 2.5-.1 1-3 23.9-24.9 22.6h-.4c-.1 0-8 .6-14.5-6.6l8.3-2.9c1.5-.5 2.3-2.1 1.7-3.6-.5-1.5-2.1-2.3-3.6-1.7l-12.9 4.5c-1.1.4-1.9 1.5-1.9 2.7v14.2c0 1.6 1.3 2.8 2.8 2.8 1.6 0 2.8-1.3 2.8-2.8v-7.7c7.4 7 15.8 6.9 17.4 6.9.7 0 1.4.1 2 .1 12.8 0 19.9-7.2 23.7-13.4 4.1-6.9 5-14 5-14.3.2-1.7-.9-3.1-2.4-3.3z"/>
		<path d="M97.7 87.5c-1.5-1.6-4.2-.7-4.2-.7l-2.1-7.7-31.1-8.5-5.7 17.6c-3.5-.7-3.7 2.8-3.7 4.3-.1 1.5.9 3.9.9 3.9s.4.6 1.5 1.5 3.3.4 3.3.4c.1 3.2 1.9 7.4 1.9 7.4l3.3 5.1s.7.6.9.8c.6.4 1.2.7 1.9 1.2.1.1 3.9 1.8 4.3 1.8.8 0 1.5.1 2.3.1h2.3c.5 0 .9 0 1.4-.1.3 0 .5 0 .8-.1 0 0 .3 0 .4-.1 1.4-.2 2.8-.3 4.3-.3.5-.2 1.1-.4 1.6-.6.7-.2 1.3-.4 2-.6.3-.1.6-.1.9-.2h.1l.1-.1c.1 0 .1-.1.2-.1l.1-.1c.2-.2.4-.4.6-.5.4-.4.9-.7 1.4-1l-.1-.1 3-4.4c2.9-3.3 2.6-10.2 2.6-10.2 4.2 1 5.3-2.7 5.3-2.7s.9-4.3-.5-6z" fill="#fff"/>
		<path d="M74.3 99.9h-.1c-.4-.1-.8-.4-.8-1.4l-.2-6.5c0-.3.2-.5.5-.5s.5.2.5.5l.2 6.5c0 .3.1.4.1.5.3.1.4.4.3.6 0 .1-.2.3-.5.3zM54.6 95.4c-.1 0-.2 0-.2-.1-.9-.5-1.6-1.4-1.7-2.4-.1-1 .3-2.1 1.1-2.7.2-.2.6-.1.7.1.2.2.1.6-.1.7-.5.4-.8 1.1-.7 1.8.1.7.5 1.3 1.1 1.6.3.1.4.4.2.7 0 .2-.2.3-.4.3zM94.2 94c-.1 0-.3 0-.4-.1-.3-.1-.4-.4-.4-.6.1-.3.4-.4.6-.4.4.1.8-.2.9-.6.2-.4.2-.9 0-1.5-.1-.5-.3-.9-.6-1.1-.3-.3-.6-.4-.9-.3-.3.1-.6-.1-.7-.4-.1-.3.1-.6.4-.7.6-.2 1.4 0 1.9.6.4.4.7.9.8 1.6.2.9.2 1.6-.1 2.2 0 .9-.7 1.3-1.5 1.3z"/>
		<path d="M98 67.8c.5-1.5 1-3 1.8-4.3l2.1-3.7-3.6 2.3c-3.2 2.1-7 2.4-9.6 2.3-3.4-.1-6.7-.9-10.3-1.8h-.2c-2.7-.7-5.4-1.4-8.2-1.3-3.1.1-5.8 1.2-7.5 3.1-1.4 0-2.5.9-3.2 2-.8.2-1.6.5-2.3 1.1-1.4 1.1-2.2 2.6-2.8 4-1.6 3.8-2.5 8-2.5 12.1 0 1.2.1 2.6.7 3.9-.3.1-.6.3-.9.5-1.1.9-1.7 2.5-1.5 4.5.2 2.9.8 4.7 2.1 5.8 1 .9 2.2 1.1 3.4 1.1h.3c.4 2.8.6 3.6.7 3.9.6 1.8 1.8 4.6 5.4 8.6.5.6 3.2 2 3.5 2.2 1.9 1 3.9 1.5 5.8 1.5h.8c1.3-.1 2.5-.2 3.5-.2 7-.5 10-.7 13.3-4.8 3.1-3.7 4.4-7.1 5-13.1H94.1c3.7-.4 5.5-3.1 5.2-7.5-.1-1.5-.7-2.6-1.6-3.4-.8-.7-1.7-.9-2.4-1 .4-.8.3-1.8.2-2.7-.3-2.4-.8-4.8-1.5-7.1v-.1l-.1-.1c1.1-1.2 2-2.6 2.7-4 .5-1.3.9-2.6 1.4-3.8zm-.8 22.3c.3 3.2-.8 5-3.2 5.3h-.3v-.8c0-.6-.5-1-1.1-1-.6 0-1 .5-1 1.1v2.1c-.6 6.6-2.1 9.4-4.6 12.5-2.8 3.4-5.1 3.6-11.9 4-1.1.1-2.2.1-3.5.2-1.7.1-3.6-.3-5.4-1.2-.9-.5-2.6-1.5-2.9-1.7-3.3-3.7-4.4-6.3-5-7.9-.1-.2-.3-1-.7-4.3v-.2c0-.1 0-.2-.1-.3-.1-.5-.1-1-.2-1.6-.1-.6-.6-1-1.2-.9-.6.1-1 .6-.9 1.2 0 .3.1.5.1.7-.9 0-1.6-.2-2-.6-.8-.7-1.2-2.1-1.3-4.3-.1-1.3.2-2.3.8-2.8.8-.6 2-.5 2.4-.4H55.8c.6-.1 1-.6 1-1.1 0-.2-.1-.4-.2-.5 3.1-2.1 5.5-5.1 6.8-8.6l1.8.6c2.5.8 5.1 1.4 7.8 1.8 2.1.3 4 .5 5.9.5 2.8 0 5.3-.4 7.6-1.2.3 2.3 1.7 4.5 3 6 .3.4.9.9 1.6 1h.4c.3 0 .5 0 .7-.1.2.2.6.3.9.2l1.7-.4c.2 0 1.1 0 1.7.6.4.6.6 1.2.7 2.1z"/>
		<path d="M80 87.5c-.3 0-.6 0-1-.1-.6-.2-.9-.7-1-1.2 0-.3.2-.5.5-.6.3 0 .5.2.6.5 0 .1.1.2.3.3.2.1.5.1.8.1l4.2-.1c.3 0 .5.2.5.5s-.2.5-.5.5l-4.2.1H80zM64.8 88c-.2 0-.4-.2-.5-.4-.1-.3.1-.6.4-.6.9-.2 1.8-.5 2.7-.8.4-.1.4-.2.4-.2 0-.3.3-.5.5-.5.3 0 .5.3.5.6 0 .5-.4.9-1.2 1.2-.9.3-1.9.6-2.8.8.1-.1 0-.1 0-.1zM64.5 93.9c-.4 0-.9-.1-1.3-.4-.3-.3-.5-.8-.4-1.2-.1-.1-.1-.1-.1-.2-.1-.3 0-.6.3-.7 1.6-.6 3.4-.7 5-.1.2.1.6.2.7.6.1.2.1.5 0 .8-.2.4-.7.6-1.1.7-.8.2-1.7.3-2.5.5-.1-.1-.4 0-.6 0zm-.6-1.5c0 .1 0 .2.1.3.2.2.7.2 1.1.1.8-.1 1.6-.3 2.4-.4.1 0 .2 0 .2-.1-1.1-.4-2.3-.4-3.4-.2-.1.1-.2.2-.4.3zM81.7 93.6c-.4 0-.8-.1-1.3-.2s-1.2-.4-1.6-1c-.2-.3-.3-.6-.5-.9-.1-.3 0-.6.3-.7 1-.7 2.2-.4 2.9-.2.1 0 .3.1.4.1.6.1 1.2.2 1.8.6.2.1.4.5.4.7 0 .2-.1.4-.2.6-.4.7-1 .9-1.6 1h-.1c-.1-.1-.3 0-.5 0zm-2.2-2.1c0 .1.1.2.2.3.2.3.5.4 1.1.6.6.2 1 .2 1.4.1h.1c.5-.1.7-.2.9-.4-.4-.2-.8-.3-1.3-.3-.2 0-.3-.1-.5-.1-.7-.3-1.4-.4-1.9-.2zM82.4 102.9c-.1-.3-.4-.4-.7-.3-4.1 1.3-8.4 2.7-12.8 3h-.8c-.2-.1-.3-.2-.4-.3v-.1-.4c0-.3-.2-.6-.5-.6s-.6.2-.6.5c0 .4-.1.8 0 1.2 0 .3.3.5.5.5h.1c.2.1.3.2.5.3.3.1.5.1.8.1h.4c4.5-.3 8.8-1.7 13-3 .4-.3.6-.6.5-.9z"/>
	</symbol>
	<symbol id="icon-share" viewBox="0 0 36 36">
		<path d="M27.8 28.9H8.1c0-5.7 0-8.9.1-15v-1.4h3.6v2.4c-.4.1-.9.1-.9.2v11.5H25V15c0-.1-.4-.1-.9-.2v-2.4h3.5v15c.1.7.2 1.1.2 1.5zm-11.1-20v13.4h2.6V9.1c0-.1.2-.2.4-.2.8 1 1.7 2 2.4 2.9.8-.6 1.4-1.1 1.8-1.5-2.1-2-4-4-5.9-5.9l-5.8 5.8c.5.5.9 1 1.8 1.9.9-1 1.8-2 2.7-3.2z"/>
	</symbol>
	<symbol id="shared-dialog-1" viewBox="0 0 596 392">
		<path d="M323.4 388.8c-106.2 0-248.8-5.2-301.1-19.8-2.8-.8-5-2.9-6.9-6.7C2.5 337.4-6 223 13.7 167.9c1.5-4.3 5.2-7.5 9.7-8.4 32.4-6.5 170.8-7 212.5-7h9.8c3.7 0 6.5.1 9 .1 4.1 0 7.3 0 11.7-.1h.1c8.5-.1 21.3-.3 53.2-.4l-9.9-45.9-39.3 18c-.7.3-1.5.5-2.3.5-.9 0-1.8-.2-2.5-.6-1.5-.8-2.6-2.2-2.9-3.9L241 9.8c-.5-2.6.9-5.2 3.4-6.2.7-.3 1.4-.4 2.1-.4 1.9 0 3.6 1 4.7 2.5L294.5 73l39.1-31.2c1-.8 2.2-1.2 3.5-1.2.4 0 .9.1 1.3.2 1.7.4 3.1 1.5 3.8 3.1l48.7 107.8c12.8 0 51.2.1 90 .7 96.4 1.5 99.9 4.4 102.4 6.5 11 9.2 11.6 58.4 10.1 98-1.5 41.4-6.5 92.9-14.3 114.5-.7 1.8-2.2 3.1-4.1 3.6-39.1 8.5-135.6 13.8-251.6 13.8z"/>
		<path d="M246.5 5.2c1.2 0 2.3.6 3 1.6L294.1 76l40.8-32.5c.6-.5 1.4-.8 2.2-.8.3 0 .6 0 .8.1 1.1.3 2 1 2.4 2l49.2 109c9.9 0 50.5.1 91.3.7 95.7 1.5 99.2 4.5 101.1 6.1 10.9 9.2 10.6 64.4 9.4 96.4-1.5 41.3-6.5 92.5-14.1 113.9-.4 1.2-1.4 2-2.6 2.3-41.5 9-144.2 13.7-251.3 13.7-123.4 0-252.6-6.3-300.5-19.7-2.2-.6-4-2.4-5.7-5.7C4.4 336.7-4 223.3 15.6 168.6c1.3-3.6 4.4-6.4 8.2-7.1 32.4-6.5 173.4-7 212.1-7h9.8c3.7 0 6.5.1 9 .1 4.1 0 7.3 0 11.8-.1 8.9-.1 22.1-.3 55.6-.4l-11-50.7-41.5 19c-.5.2-1 .3-1.5.3-.6 0-1.1-.1-1.6-.4-1-.5-1.7-1.4-1.9-2.5L243 9.4c-.3-1.7.6-3.3 2.2-4 .4-.1.8-.2 1.3-.2m0-4c-1 0-1.9.2-2.8.5-3.4 1.4-5.3 4.9-4.6 8.5l21.7 110.4c.5 2.3 1.9 4.2 4 5.3 1.1.5 2.3.8 3.4.8s2.2-.2 3.1-.7l37-17 8.9 41c-30 .1-42.4.2-50.7.4h-.1c-4.4.1-7.6.1-11.7.1-2.6 0-5.5 0-9-.1h-9.9c-41.7 0-180.2.5-212.8 7-5.1 1-9.4 4.7-11.2 9.7v.1C3 191.9-1.2 231.7.3 276.4c1.3 39 6.6 73.9 13.4 86.9 2.2 4.3 4.9 6.8 8.2 7.7 22.7 6.3 65.1 11.5 122.8 15 51.5 3.1 115 4.8 178.8 4.8 116.1 0 212.7-5.3 252.1-13.8 2.6-.6 4.6-2.4 5.5-4.8 7.8-21.8 12.8-73.5 14.4-115.1.6-15.4 1-37.8-.2-57.2-1.9-31.6-7-39.4-10.7-42.4-3.1-2.6-6.5-5.5-103.6-7-37.7-.6-74.9-.7-88.8-.7L344 43.1c-1-2.1-2.8-3.7-5.1-4.2-.6-.1-1.2-.2-1.8-.2-1.7 0-3.4.6-4.7 1.6L295 70.1 252.8 4.6c-1.4-2.1-3.7-3.4-6.3-3.4z" fill="#fff"/>
		<path d="M48.1 337.6l-29.8 2.8c-.6-2.7-1.1-5.7-1.6-8.9l20.7.4-21.9-8.5c-1.5-10.8-2.7-23.6-3.5-38.1C10.8 262.9 9.6 207 22.4 171c.5-1.3 1.6-2.3 2.9-2.5 36.8-7.4 218.6-6.8 220.4-6.8 9.8.1 13.8 0 21-.1 9.2-.1 23.2-.3 59.9-.4 1.1 0 2.1-.5 2.8-1.3.7-.8.9-1.9.7-3l-12.9-59.4c-.2-1.1-.9-1.9-1.9-2.4-1-.5-2.1-.5-3.1-.1l-41.5 19-17.2-87.8 36.7 56.9c.5.8 1.4 1.4 2.4 1.6 1 .2 2-.1 2.8-.7l40.3-32.1L384 158.7c.6 1.3 1.8 2.1 3.2 2.1h.4c68.9 0 180.4 1.4 189.9 5.3 2.2 2.1 3.9 8.6 5 18l-30.5 7.6 31.5 2.8c.2 3 .4 6.1.5 9.3l-22.5-4.6 22.9 14.1c1.2 49.9-4 124.5-13.3 153.1-92.1 18.8-457.6 18.4-546.3-6.2-1.3-.9-2.8-4.4-4.4-10.2l27.7-12.4z" fill="#00619c"/>
	</symbol>
	<symbol id="shared-dialog-2" viewBox="0 0 516 264">
		<path d="M281.6.7000000000000002h-.3c-1.6.1-3 .7-4 1.7-23.9 22.8-57.9 47-64.4 48.4-7.9.1-18 .1-29.7.1-29.6.1-70.1.2-103.7 1.4-53.9 1.9-65.4 5.5-69.7 9.1-3.4 2.8-7 8.9-8.8 32.3-1.1 14.4-1.2 33-.5 53.8 1.3 36.1 5.7 80.9 12.4 99.7.7 2 2.4 3.5 4.5 3.9 34.5 7.5 117.7 12.1 217.2 12.1 92.6 0 217-4.5 262.8-17.3 4.3-1.2 6.4-5.6 7.1-7 5.7-11.6 10.3-43.3 11.3-77.2.7-23.6.1-67.4-11.4-95.6-.7-1.8-2.2-3.1-4.1-3.6-25-7-115.2-7.8-175-8.3-16.8-.2-31.8-.3-39.5-.5 0-5.7.4-18.4 1.8-46.2v-.6c0-3.4-2.7-6.1-6-6.2.1 0 0 0 0 0zm0 12.4z"/>
		<path d="M474.8 217.4l29 2.7c.5-2.5 1-5.2 1.5-8.1l-21.1.4 22.3-8.7c5.2-39.8 5.7-102.2-7.7-135.3-34.3-9.6-205.4-7.2-218.6-9 0 0 0 .1-.1.1-.3 0-1-3.8 1.5-52.7-22.6 21.6-60.8 50-68.4 50.1-48.5.6-187.2-1-199.5 9.3-2.7 2.3-4.6 9.6-5.8 20.1l1-2.5L37.6 91 7.1 93.7c-.2 2.7-.4 5.5-.5 8.5l22.7-4.7-23 14.2c-1 45.5 4.5 111.3 12.4 133.4 36.5 7.9 124.3 12 215.9 12 107.4 0 219.9-5.6 261.2-17.1 1.9-.5 3.9-4.3 5.7-10.5l-26.7-12.1z" fill="#00619c"/>
	</symbol>
</svg>