<svg width="0" height="0" xmlns="http://www.w3.org/2000/svg">
  <symbol id="goTop" viewBox="0 0 17 9">
    <path d="M16,8.75c-.18,0-.37-.07-.51-.2l-6.14-5.73c-.48-.45-1.23-.45-1.71,0L1.51,8.55c-.3.28-.78.27-1.06-.04-.28-.3-.27-.78.04-1.06L6.62,1.73c1.05-.98,2.7-.98,3.75,0l6.14,5.73c.3.28.32.76.04,1.06-.15.16-.35.24-.55.24Z"/>
  </symbol>
  <symbol id="arrow" viewBox="0 0 24 24">
    <path d="M16,20.26c-.18,0-.37-.07-.51-.2-.3-.28-.32-.76-.04-1.06l5.73-6.14c.45-.48.45-1.23,0-1.71l-5.73-6.14c-.28-.3-.27-.78.04-1.06.3-.28.78-.27,1.06.04l5.73,6.14c.98,1.05.98,2.7,0,3.75l-5.73,6.14c-.15.16-.35.24-.55.24ZM16.75,12.01c0-.41-.34-.75-.75-.75H2c-.41,0-.75.34-.75.75s.34.75.75.75h14c.41,0,.75-.34.75-.75Z"/>
  </symbol>
  <symbol id="play" viewBox="0 0 15 18">
    <path d="M13.5 6.40192C15.5 7.55662 15.5 10.4434 13.5 11.5981L4.5 16.7942C2.5 17.9489 -8.52615e-07 16.5056 -7.51668e-07 14.1962L-2.97406e-07 3.80385C-1.96458e-07 1.49445 2.5 0.0510705 4.5 1.20577L13.5 6.40192Z"/>
  </symbol>
</svg>
