<?xml version="1.0" encoding="utf-8"?>
<!-- Generator: Adobe Illustrator 27.0.1, SVG Export Plug-In . SVG Version: 6.00 Build 0)  -->
<svg version="1.1" id="圖層_1" xmlns="http://www.w3.org/2000/svg" xmlns:xlink="http://www.w3.org/1999/xlink" x="0px" y="0px"
	 viewBox="0 0 1920 1080" style="enable-background:new 0 0 1920 1080;" xml:space="preserve">
<path style="fill:#4D68EC;" d="M168.21,521.22c0.64,1.19,1.85,1.94,3.05,2.59c11.15,6.04,170.48,17.3,170.48-2.45
	c0-12.48-56.2-17.84-91.56-17.84l1.71,0.04c-29.93,0-59.86,1.76-77.47,8.88C170.69,513.95,166.29,517.62,168.21,521.22z"/>
<path style="fill:#5B66ED;" d="M442.5,496.88c23.67,5.85,48.57-2.56,72.99-5.44c16.71-1.95,33.86-1.33,50.3,1.9
	c23.93,4.69,46.09,14.78,70.33,18.19c24.24,3.41,53.36-2.26,64.08-20.54l69.99-67.91c6.65,0.48,11.48-6.29,9.71-11.6
	s-7.89-8.85-14.09-10.93c-25.48-8.45-55.66,1.6-81.45-6.24c-8.33-2.52-15.69-6.77-24.02-9.25c-39.67-11.73-81.5,20.45-122.98,14.39
	c-16.26-2.39-30.88-10.58-47.37-11.82c-36.96-2.79-65.63,29.03-102.5,32.4c-15.2,1.38-30.36-2.25-45.29-4.91
	c-14.97-2.7-31.11-4.29-45.11,0.8c-14,5.09-24.19,19.17-17.9,30.72c2.57,4.69,7.4,8.32,12.72,11.02
	c28.59,14.56,67.1,4.02,98.12,14.56C408.69,478.55,423.18,492.1,442.5,496.88z"/>
<path style="fill:#5E65EE;" d="M1771.76,264.86c-38.51,5.44-73.71,21.48-111.73,28.97c-26.08,5.15-53.36,6.16-79.93,3.01
	c-38.8-4.6-78.34-18.02-115.91-8.68c-30.74,7.61-53.68,29.17-83.35,39.24c-49.28,16.79-110.47,0.03-155.87,23.17
	c-8.45,4.31-16.15,10.08-20.22,17.56c-9.97,18.37,6.21,40.8,28.47,48.93c22.23,8.13,47.89,5.54,71.67,1.3
	c23.76-4.25,47.77-10.05,71.94-7.84c58.6,5.35,104.13,56.06,162.82,51.59c26.18-2.01,49.38-15.04,75.27-18.83
	c65.88-9.66,132.34,41.61,195.31,22.94c13.2-3.92,24.95-10.69,38.12-14.71c22.57-6.88,47.26-5.11,71.65-4.38V342.71l-46.44-45.15
	C1856.5,268.43,1810.27,259.42,1771.76,264.86z"/>
<path style="fill:#7E5FF2;" d="M1148.36,44.12c31.12,5.1,63.56,1.52,93.72,10.89c33.34,10.37,62.04,36.07,96.73,39.24
	c21.65,1.98,42.95-5.15,64.43-8.45c60-9.24,125.21,10.62,179.78-16.68c17.07-8.54,32.77-22.56,38-41.34
	c2.53-9.05,2.39-18.6,0.27-27.78h-539.88C1092.21,24.95,1121.12,39.65,1148.36,44.12z"/>
<path style="fill:#7061F1;" d="M0,291.72c22.53-7.65,44.74-18.59,68.16-22.7c56.89-10.01,113.54,21.01,171.24,19.11
	c69.4-2.3,129.78-51.34,198.84-58.81c47.71-5.17,101.4,8.63,140.29-19.58c11.33-8.2,20.85-21.38,18.75-35.24
	c-2.44-16.22-19.27-26.05-35.08-30.25c-70.1-18.62-147.69,27.04-215.23,0.61c-30.36-11.88-54.44-37.17-85.62-46.74
	c-34.15-10.48-70.66-0.5-106.06,4.08c-35.41,4.61-76.75,1.26-98.55-27.07c-6.08-7.9-9.69-17.76-16.94-24.59
	C26.46,37.99,12.97,35.53,0,36.4V291.72z"/>
<path style="fill:#456AEA;" d="M1920,592.75c-35.34-4.58-71.4-3.65-106.41,2.99c-35.06,6.64-69.44,18.88-105.12,19.02
	c-34.8,0.14-68.47-11.25-102.68-17.79c-32.77-6.27-66.23-8.13-99.49-5.51c-50.99,4.03-101.3,18.55-152.42,16.29
	c-32.9-1.46-65.38-9.87-98.31-9.03c-69.61,1.81-132.54,44.47-201.92,50.37c-63.55,5.41-130.44-20.12-189.84,3.17
	c-15.44,6.05-31.67,19.95-27.6,35.99c3.37,13.23,18.54,19.25,31.96,21.8c23.67,4.48,48.39,4.38,71.03,12.61
	c20.95,7.61,38.94,21.95,59.93,29.41c48.61,17.32,101.78-4.92,153.39-4.92c54.43,0,106.81,25.01,161.23,23.24
	c54.29-1.75,106.41-30.07,160.41-24.25c37.15,4.01,71.28,23.94,108.5,27.07c60.18,5.06,117.15-34.29,177.46-30.87
	c33.98,1.93,65.61,17.3,98.75,25.05c19.8,4.63,40.93,6.19,61.13,3.55V592.75z"/>
<path style="fill:#306DE8;" d="M222.16,903.53c19.93,4.31,39.77,10.55,60.14,9.96c39.47-1.13,73.23-27.12,109.93-41.68
	c91.15-36.19,196.22-0.65,291.5-23.9c7.88-1.92,16.4-4.79,20.56-11.75c8.52-14.24-7.41-30.82-22.5-37.71
	c-42.75-19.51-91.66-17.85-138.65-18.01c-43.6-0.16-87.81-2.33-129.23-15.88c-22.47-7.36-44.02-18.03-67.31-22.07
	c-42.75-7.41-86.06,8.31-129.45,8.48c-50.6,0.2-98.61-20.52-147.98-31.62c-22.72-5.11-45.9-8.17-69.17-9.17v187.29
	C74.01,897.02,150.12,887.95,222.16,903.53z"/>
<path style="fill:#2570E6;" d="M1601.16,1056.29c0.76-8-3.83-15.6-9.27-21.8c-13.77-15.72-34.23-26.16-55.8-28.49
	c-24.58-2.64-49.24,4.85-73.96,3.79c-36.6-1.54-70.43-21.62-107.05-21.43c-33.88,0.2-65.38,17.72-99.22,19.11
	c-25.89,1.05-51.43-7.41-77.32-6.36c-38.58,1.58-72.89,23.93-111.05,29.49c-39.83,5.81-81.88-6.98-120.27,4.5
	c-14.35,4.28-27.34,11.77-40.98,17.77c-21.83,9.6-47.38,20.89-72.93,27.13h749.86c1.42-1.03,2.83-2.09,4.2-3.2
	C1594.08,1071.41,1600.38,1064.54,1601.16,1056.29z"/>
</svg>
