<svg xmlns="http://www.w3.org/2000/svg" width="96" height="180">
  <path d="M92.8 63.1l-1-1v-.9c-.2-5-2.1-9.8-4-14.3-1-2.4-2-4.3-3.1-6-2.4-3.8-5.7-6.8-9.6-9.1.7-.1 1.4-.3 2-.6.5-.3 1-.7 1.5-1.2.5-.3 1-.8 1.4-1.3.8-1.1 1.2-2.5 1.1-4-.1-.7-.2-1.3-.4-2v-.4-.1c0-1.6-.7-3.1-1.8-4.2-1.5-1.5-3.5-1.7-4.5-1.7h-.2c-.3-.1-.9-.3-1.7-.3-1 0-2 .3-2.9.9.2-.5.2-1 .2-1.5.7-.3 1.4-.6 2-1h.1c.5-.3 1.9-1.1 2.6-2.8.6-1.4.5-3-.2-4.4 0 0 0-.1-.1-.1-.9-1.5-2.5-2.7-4.4-3-.8-.2-1.7-.2-2.6-.2-.3 0-.7 0-1 .1v-.1c-.5-1.3-1.5-2.3-2.7-2.7-.7-.7-1.8-1.2-3-1.2s-2.4.5-3.2 1.3c-1.3.3-2.4 1.1-3 2.3-.1.2-.2.5-.3.7-.4-.2-.7-.4-1.1-.5-.1-.1-.2-.1-.3-.2C49.2 1.3 45.1.2 40.8.2c-1 0-2 .1-3 .2-6 .8-9.6 3.5-11.5 5.5-.7.4-1.3.8-1.7 1.1-1.5 1.2-3.4 3.2-4.7 4.8-.2.2-.3.4-.5.6-.1.1-.1.2-.2.3l-.2.3c-1 1.3-1.9 2.7-2.4 4.5v.2c-.5-.3-1-.6-1.5-.8-.5-.1-1-.2-1.5-.2-2.4 0-4.6 1.5-5.4 3.7-1 2.7.2 5.9 2.8 7.2.8.4 1.7.6 2.7.6h.8c.3 0 .6-.1.9-.1.2 1.7.7 3.5 1.8 5.1.5.8 1.1 1.4 1.8 1.9-5.4 3.5-9.8 9.1-12.1 15.8C4.4 57.8 4 65.9 5.7 75c.5 2.5 1.2 5.4 2.7 8-.3.2-.6.3-.9.5-.4-.1-.8-.2-1.2-.2h-.4c-2.6 0-4.8 2-5 4.6-.3 3.4-.1 6.9.5 10.2.5 2.4 2.5 4.1 4.9 4.1H7.2c.1 0 .1 0 .2-.1.6 2.1 2.6 3.5 4.8 3.5h.5c.2 0 .6-.1.9-.2.4-.1.7-.3 1-.4 1 12.3 2 21.5 3.5 34.4l.1.8c.5 4.1 1 8.7 1.6 13.9-1.8 1.2-3.2 3-3.8 5.2-.9 3.1 0 6.5 2.4 9.4.9 1 1.8 1.9 2.8 2.8l.2.2c.4.4.8.7 1.1 1.1.3.3.5.6.9 1l.1.2c.7.8 1.6 1.8 2.7 2.7.2.2.4.3.7.5 1.3 1.1 3.5 3 6.8 3 .3 0 .6 0 .9-.1 1.3-.1 2.6-.6 3.8-1.3.7-.4 2.8-1.6 4-4.4 1.3-3.1 1-5.3.8-7.3 0-.3-.1-.6-.1-.9 2.1-1.4 3.1-3.4 3.3-5.1.7-4.8 1.5-9.2 2.3-13.4v-.1c.8-4.7 1.6-9.1 2.3-13.5.4 1.1.7 2 .7 2.7 0 .3.1.6.1 1v.1c.1 2 .2 5.3 2.9 7.5 1.3 1.1 3 1.7 4.8 1.7h.9c1.4-.2 2.7-.7 3.8-1.4 2.1-1.5 3.5-3.8 3.9-6.6.1-.8.2-1.7.2-2.4 1.4-.6 2.8-1.6 4-2.8 2.9-3 4.6-7 5.4-9.9l.1-.2v-.1c1.5-4.9 3.1-10.4 2.2-17-.6-4.4-2.3-10-3.7-13.4-.4-1-.9-2.2-1.5-3.5.5-1.2.6-2.3.6-2.7.2-6.5-1.2-12.7-2.5-18.7-.1-.4-.2-.8-.2-1.2.2.1.3.2.5.3.1.1.2.2.4.2.3.5.6 1 .8 1.3.2.3.4.6.6.8-.3 1.3-.3 2.6-.1 3.9.1.8.4 1.5.8 2.2.4 1.5 1.2 2.7 2.3 3.6 1.4 1.2 3.2 1.8 5.4 1.9h1c.8-.1 1.7-.3 2.5-.7H87.2c.1 0 .3 0 .4-.1 1.4-.3 2.7-.9 3.7-1.9.5-.3 1-.7 1.5-1.1 1.2-1.3 1.6-2.7 1.7-3.3 1.3-4.7.7-8.5-1.7-11.2z" fill="#fff"/>
  <path d="M64.4 61.9c.3.6.9 1.2 1.6 1 .1 0 1-7.4.1-7.6l-1.2-.3c-1.3-.2-2.9.2-3.5 1.4-.3.5-.3 1.2-.2 1.8.1.7.4 1.5 1.1 1.9.4.2.9.3 1.3.5.3.3.5.8.8 1.3" opacity=".1"/>
  <path d="M34.5 10.4c1.3.1 2.6.8 3.3 1.9l-6.6 3.6c-.8-1.1-.8-2.6-.1-3.8.6-1 1.7-1.6 2.8-1.7h.6" fill="#ef8985"/>
  <path d="M45.6 20.2c-.7 0-1.3-.1-1.7-.5-.6-.5-.7-1.3-.8-2 0-.3.2-.6.5-.6s.6.2.6.5c.1.6.1 1.1.5 1.3.2.2.5.3 1 .2.5 0 1.1-.1 1.6-.4.3-.1.6 0 .7.3.1.3 0 .6-.3.7-.5.2-1 .4-1.6.4-.2.1-.4.1-.5.1zM33.1 20.3c-.3 0-.5-.3-.5-.6s.3-.5.6-.5c.5 0 1.1 0 1.6-.1.4-.1.6-.2.9-.4.2-.2.3-.4.3-.6 0-.3.3-.5.5-.5.3 0 .5.3.5.5 0 .5-.3 1-.7 1.4-.3.3-.7.4-1.3.6-.3.1-.5.1-.8.1-.3.2-.7.2-1.1.1zM32.8 23.5c-.1-.3 0-.6.2-.7 1-.5 2-.8 3-1.1.3-.1.6.1.6.4.1.3-.1.6-.4.6-1 .2-1.9.6-2.8 1h-.2c-.1.1-.3 0-.4-.2zM45.8 30.9c-.3-.9-.8-1.8-1.4-2.6-.2-.2-.1-.6.1-.7s.6-.1.7.1c.7.9 1.2 1.9 1.5 2.9.1.3 0 .6-.3.7h-.1c-.2 0-.5-.1-.5-.4zM35.8 32.6c-.3-.1-.4-.4-.3-.7.4-1.2 1-2.4 1.9-3.3.2-.2.5-.2.8-.1.2.2.2.5.1.8-.7.8-1.3 1.9-1.7 2.9-.1.2-.2.3-.4.4h-.4zM43.8 34.1c-.1-.3.1-.6.4-.6.2 0 .4-.1.6-.1.3 0 .6-.1.7-.2.1-.1-.1-.5-.4-.7-.9-.7-2-1-3.2-1-1.1 0-2.2.5-3.1 1.2-.4.4-.7.7-.8 1.1h.2l3.5-.5c.3 0 .6.2.6.5s-.2.6-.5.6l-3.5.5c-.2 0-.9.1-1.2-.4-.1-.2-.2-.5-.1-.9.1-.6.5-1.2 1.1-1.7 1-.9 2.4-1.4 3.8-1.5 1.4 0 2.7.4 3.8 1.2.7.5 1.1 1.3.7 2.1-.3.6-1 .7-1.5.7-.2 0-.3 0-.5.1h-.1c-.1.1-.4-.1-.5-.4zM40 36.2c-.1-.3 0-.6.3-.7 1.1-.4 2.2-.6 3.4-.4.3 0 .5.3.5.6s-.3.5-.6.5c-1-.1-2 0-2.9.4h-.1c-.3 0-.5-.2-.6-.4z"/>
  <path d="M41.9 24.8c-.1-.6.4-1.2 1-1.3.6-.1 1.2.4 1.3 1s-.4 1.2-1 1.3c-.7.1-1.3-.4-1.3-1M38 25.1c-.1-.6.4-1.2 1-1.3.6-.1 1.2.4 1.3 1s-.4 1.2-1 1.3c-.6.1-1.2-.4-1.3-1" fill="#006196"/>
  <path d="M40.3 41.9c-.3 0-.5-.2-.5-.5s.2-.5.5-.5c1.5 0 3-.2 4.5-.5.3-.1.6.1.6.4.1.3-.1.6-.4.6-.7.1-1.4.3-2.2.3-.8.1-1.6.2-2.5.2zM57 33.3c0-.1 0-.2.1-.2s.2.1.2.1c0 .1-.1.2-.1.2-.1 0-.2 0-.2-.1M57.3 35.6c0-.1.1-.2.1-.2.1 0 .2.1.2.1 0 .1-.1.2-.1.2-.1.1-.2 0-.2-.1M55 38.5c0-.1 0-.2.1-.2s.2.1.2.1c0 .1-.1.2-.1.2-.1 0-.2 0-.2-.1M53.5 37.3c0-.1.1-.2.1-.2.1 0 .2.1.2.1 0 .1-.1.2-.1.2-.1 0-.2 0-.2-.1M34.9 40.5c0-.1 0-.2.1-.2s.2.1.2.1c0 .1-.1.2-.1.2-.2.1-.2 0-.2-.1M40.9 38.7c0-.1.1-.2.1-.2.1 0 .2.1.2.1 0 .1-.1.2-.1.2-.1.1-.2 0-.2-.1M41.8 40c0-.1.1-.2.1-.2.1 0 .2.1.2.1 0 .1-.1.2-.1.2-.1 0-.2 0-.2-.1M43.4 38.4c0-.1.1-.2.1-.2.1 0 .2.1.2.1 0 .1-.1.2-.1.2-.1 0-.2 0-.2-.1M30.5 40.6c0-.1.1-.2.1-.2l.2.1c0 .1-.1.2-.1.2-.1.1-.2 0-.2-.1M32.4 39.3c0-.1 0-.2.1-.2s.2.1.2.1c0 .1-.1.2-.1.2-.1.1-.2 0-.2-.1M31.2 36.8c0-.1 0-.2.1-.2s.2.1.2.1c0 .1-.1.2-.1.2-.2 0-.2-.1-.2-.1M29.5 38.2c0-.1.1-.2.1-.2l.2.1c0 .1-.1.2-.1.2s-.2 0-.2-.1M27.9 35.9c0-.1 0-.2.1-.2s.2.1.2.1c0 .1-.1.2-.1.2-.1.1-.2 0-.2-.1"/>
  <path d="M59.2 50.9c1.2.1 2.4.3 3.6.7 3.7 1.4 6.4 4.7 7.4 9.3 2.1.7 3.5 1.2 5.7 2.8.4-1.3 1.1-3.2 1.9-4.9-2.1-3.1-2-2.8-4.2-4.8-3.2-2.9-5.4-4.3-11-4-1-.1-2.2.3-3.4.9zM40.5 50.6c.1.1.2.1.3.2.4.1.7.2 1.1.3.7 2.1 2.5 3.8 4.8 4.1 2.6.3 4.8-.6 7.1-1.6 1.4-.6 3.4-1.8 5.2-2.6-2.5-.1-5.1.5-7.8 1.3-2.1.6-5.1 1.3-7-1.1h.6c.1 0 .2 0 .3-.1.2-.1.3-.3.3-.5.2-.6.4-1.2.5-1.8 0-.6-.1-1.3-.5-1.7-.8-.9-3.3-1.4-4.3-.5-.2.2-.3.4-.4.6-.4 1-.6 2.1-.6 3.1.3 0 .3.2.4.3z" fill="#006196"/>
  <path d="M45.4 71.2v.2c0 .3.3.5.6.5s.5-.3.5-.5v-.5c.1 0 .1-.1.2-.2.3-.3.4-.7.4-1 0-.4-.2-.8-.4-1s-.5-.3-.7-.4c-.1-.1-.1-.3-.2-.4-.1-.3-.4-.4-.7-.3s-.4.4-.3.7c0 .1.1.1.1.2-.4.2-.7.7-.7 1.3-.1.7.4 1.4 1.2 1.4zM46.3 78.5v.2c0 .3.3.5.6.5s.5-.3.5-.5v-.5c.1 0 .1-.1.2-.2.3-.3.4-.7.4-1s-.2-.8-.4-1-.5-.3-.7-.4c-.1-.1-.1-.3-.2-.4-.1-.3-.4-.4-.7-.3s-.4.4-.3.7c0 .1.1.1.1.2-.4.2-.7.7-.7 1.3-.1.7.5 1.3 1.2 1.4zM46.2 85.4c.2.2.5.4.9.4v.2c0 .3.3.5.6.5s.5-.3.5-.5v-.5c.1 0 .1-.1.2-.2.3-.3.4-.7.4-1 0-.7-.5-1.3-1.2-1.4-.1-.1-.1-.3-.2-.4-.1-.3-.4-.4-.7-.3s-.4.4-.3.7c0 .1.1.1.1.2-.4.2-.7.7-.7 1.3 0 .4.2.7.4 1zM51.9 52.9c.2 0 .3.1.3.3s-.1.3-.3.3-.3-.1-.3-.3c.1-.2.2-.3.3-.3M63.2 50.4c.2 0 .3.1.3.3s-.1.3-.3.3-.3-.1-.3-.3c.1-.1.2-.3.3-.3M67.1 52c.2 0 .3.1.3.3s-.1.3-.3.3c-.2 0-.3-.1-.3-.3.1-.2.2-.3.3-.3M69.7 51.8c.2 0 .3.1.3.3s-.1.3-.3.3c-.2 0-.3-.1-.3-.3 0-.1.1-.3.3-.3M68.5 53.6c.2 0 .3.1.3.3s-.1.3-.3.3c-.2 0-.3-.1-.3-.3 0-.1.1-.3.3-.3M71 53.5c.2 0 .3.1.3.3s-.1.3-.3.3c-.2 0-.3-.1-.3-.3.1-.2.2-.3.3-.3M69.9 55.3c.2 0 .3.1.3.3s-.1.3-.3.3c-.2 0-.3-.1-.3-.3 0-.1.1-.3.3-.3M72.4 55.2c.2 0 .3.1.3.3s-.1.3-.3.3c-.2 0-.3-.1-.3-.3s.1-.3.3-.3M71.3 57c.2 0 .3.1.3.3s-.1.3-.3.3c-.2 0-.3-.1-.3-.3s.1-.3.3-.3M73.8 56.8c.2 0 .3.1.3.3s-.1.3-.3.3c-.2 0-.3-.1-.3-.3 0-.1.1-.3.3-.3M72.6 58.7c.2 0 .3.1.3.3s-.1.3-.3.3c-.2 0-.3-.1-.3-.3 0-.1.2-.2.3-.3M75.2 58.6c.2 0 .3.1.3.3s-.1.3-.3.3c-.2 0-.3-.1-.3-.3 0-.1.1-.3.3-.3M74 60.4c.2 0 .3.1.3.3s-.1.3-.3.3-.3-.1-.3-.3.1-.3.3-.3M42.6 47.9c.2 0 .4.1.4.3s-.1.4-.3.4-.4-.1-.4-.3c0-.2.1-.3.3-.4M44.3 49.8c.2 0 .4.1.4.3s-.1.4-.3.4-.4-.1-.4-.3c-.1-.2.1-.4.3-.4"/>
  <path d="M21 69.8c0 .1.1.2.1.3.5.2 1.1.5 1.5.9.2-.2.4-.3.6-.4.1 0 .2-.1.3-.2h.1c.1-.1.2-.2.2-.3.1-.2.1-.2.1-.1 0-.1.1-.1.1-.2.1-.1.2-.7.2-.6V69c-.1-1-.1-2.1 0-3.1-.2-.4-.3-.8-.4-1.2-.2-.6-.5-1.4-1.2-1.4-.4 0-.7.1-1 .4-.5.5-.6 1.3-.6 2.1 0 .4-.1.9-.2 1.3.4.6.6 1.5.2 2.2l-.1.1c0 .1.1.2.1.4" opacity=".1"/>
  <path d="M61 13.5c0-.3.2-.6.4-.6 2.8-.5 5.5-1.4 8.1-2.7.1-.1.4-.2.4-.3v-.1c-.1-.2-.5-.4-.9-.5-1.9-.3-3.9-.1-5.6.7-.3.1-.6 0-.7-.3s0-.6.3-.7c1.9-.9 4.2-1.2 6.3-.8.6.1 1.3.4 1.6 1 .2.3.2.7.1 1-.2.5-.6.7-.9.8-2.6 1.4-5.4 2.3-8.4 2.8-.4.2-.6 0-.7-.3zM61.7 16.6c0-.3.2-.6.5-.6 1-.1 2-.4 3-.8.3-.1.6 0 .7.3s0 .6-.3.7c-1 .5-2.1.8-3.3.9-.3 0-.6-.2-.6-.5zM12.7 23.9c-.8-.4-1.2-1.4-.9-2.2.3-.8 1.3-1.3 2.1-1.1.3.1.4.4.4.7-.1.3-.4.4-.7.4-.3-.1-.7.1-.8.4s0 .7.3.9c.3.2.7.1 1.2 0l4.8-.9c.3-.1.6.1.6.4.1.3-.1.6-.4.6l-4.7.9c-.2 0-.4.1-.6.1-.3.1-.8.1-1.3-.2zM59.2 8.5c-.3-.1-.5-.3-.4-.6v-.1c.1-.2.1-.5.2-.7 0-.1-.1-.1-.2-.2-.3-.2-.7-.4-1-.9-.1-.2-.1-.4 0-.5.1-.2.3-.3.4-.3.5 0 1-.1 1.4-.1.1-.3.2-.5.3-.8.1-.2.3-.3.5-.3s.4.1.5.4c.1.1.1.3.2.5 0 .1.1.1.1.2h.8c.2 0 .4.1.5.4.1.2 0 .5-.2.6-.2.2-.5.3-.7.5.1.2.1.4.1.7 0 .1 0 .3-.1.4s-.2.2-.4.2c-.3 0-.6-.1-.9-.2l-.2.2c-.1 0-.2.1-.2.2v.1c-.1.2-.2.4-.5.4 0-.1-.1-.1-.2-.1zM28.4 28.5c-.2-.2-.2-.6-.3-.8 0-.4 0-.8.1-1.2.1-.3.4-.4.7-.4.3.1.4.4.4.7v.2c.2 0 .3.1.4.2s.3.6.2 1c0 .2-.2.4-.4.5-.1.1-.2.1-.3.1-.3.1-.6-.1-.8-.3zM29 21.6c-.3-.1-.6-.3-.7-.6-.1-.4-.1-.8.2-1.3.1-.1.1-.2.2-.3.1-.1.2-.3.2-.4.1-.3.4-.4.7-.3.3.1.4.4.3.7-.1.1-.1.3-.2.4.2.1.3.2.3.4v.8c0 .2-.1.4-.2.5s-.3.2-.4.2c-.2-.1-.3-.1-.4-.1zM49.1 75.5c-.1-.3.1-.6.4-.6 1.8-.4 3.6-1.2 5.2-2.3.2-.2.6-.1.7.1.2.2.1.6-.1.7-1.6 1.1-3.6 2-5.5 2.5h-.1c-.3 0-.5-.1-.6-.4zM55.2 81.4l-6.3-3.1c-.3-.1-.4-.4-.2-.7s.4-.4.7-.2l6.3 3.1c.3.1.4.4.2.7-.1.2-.3.3-.4.3-.1 0-.2-.1-.3-.1zM36.8 82.1c-.2-.2-.2-.5 0-.8 1.4-1.3 2.9-2.4 4.7-3.1.3-.1.6 0 .7.3.1.3 0 .6-.3.7-1.6.7-3.1 1.7-4.4 2.9-.1.1-.2.1-.3.2-.2 0-.3 0-.4-.2zM40.2 77.3l-3.5.2c-.3 0-.5-.2-.6-.5 0-.3.2-.5.5-.6l3.5-.2c.3 0 .5.2.6.5 0 .3-.2.6-.5.6zM53 105.8c-.3 0-.5-.3-.4-.6.1-.3.1-.6.1-1 0-.3 0-.6.1-.9.1-1.1.7-2.1 1.8-3.3.3-.3.5-.6.8-.9.6-.6 1.1-1.1 1.5-1.7.2-.2.5-.3.7-.1s.3.5.1.7c-.5.7-1 1.3-1.6 1.9-.3.3-.5.6-.8.8-.9 1-1.4 1.9-1.5 2.8v.8c0 .4 0 .8-.1 1.2-.1.2-.2.4-.5.4-.1 0-.1 0-.2-.1zM11.3 100.9C10 96.5 9.4 92 9.5 87.5c0-.6.5-1 1-1 .6 0 1 .5 1 1-.1 4.3.5 8.7 1.7 12.8.2.5-.1 1.1-.7 1.2h-.2c-.4.2-.9-.1-1-.6zM5.3 97.4c-.5-3-.7-6.1-.4-9.2 0-.6.5-1 1.1-.9s1 .5.9 1.1c-.2 2.9-.1 5.8.4 8.7.1.6-.3 1.1-.8 1.2h-.1c-.5 0-1-.4-1.1-.9zM68.9 25.2c.3.5.7.9 1.3 1.1-.1.5 0 1.1.4 1.6s1.1.7 2 .6c.6-.1 1.1-.3 1.4-.6.4.1.8.1 1.1-.1s.6-.5.7-.9c.3 0 .6-.2.8-.5.2-.3.3-.7.3-1.3-.1-.7-.3-1.3-.7-1.8.2-.3.3-.6.3-1 0-.5-.2-1-.6-1.4-.5-.5-1.3-.5-2-.6-.3 0-.5 0-.7-.1-.1 0-.2 0-.3-.1-.4-.1-.9-.3-1.6.2-.1.1-.4.4-.6.8-.2 0-.4 0-.6.1-.5.1-.8.5-1 .9 0 .1 0 .1-.1.2 0 .1 0 .1-.1.1l-.1.1-.1.1c-.1.9-.2 1.8.2 2.6zm1.1-1.7l.3-.3c.1-.1.1-.2.1-.3v-.1c.1-.1.2-.3.4-.3s.4-.1.5 0c.3.1.6 0 .7-.2s.1-.3 0-.5c.1-.1.2-.4.3-.4.1-.1.2-.1.6 0 .1 0 .2.1.4.1.3.1.6.1.9.1.5 0 1.1.1 1.3.3.1.1.2.4.2.6 0 .3-.1.5-.2.6s-.2.2-.2.4c0 .1.1.3.2.4.4.4.6.9.7 1.5 0 .2 0 .4-.1.5l-.1.1c-.2-.1-.3-.1-.5 0s-.3.2-.3.4c0 .3-.2.5-.3.6h-.3s-.1 0-.1-.1c-.1-.2-.3-.3-.5-.3h-.1c-.3 0-.4.3-.4.5s-.4.4-.8.4-.9 0-1.1-.2-.2-.5-.1-.8c.1 0 .1 0 .2-.1.1 0 .2-.1.2-.1.1.1.3.2.4.2.2.1.4.1.6 0 .2 0 .4-.1.6-.1.3-.1.4-.4.4-.7s-.4-.4-.7-.4c-.2.1-.5.1-.6.1h-.1c.1-.3 0-.5-.3-.7-.3-.1-.6 0-.7.3v.1c-.1.1-.2.2-.3.2H71c-.5-.1-.9-.4-1.1-.8-.2-.2-.2-.7.1-1zM67.3 31.6c-.1-.1-.2-.1-.2-.2H67c-.3 0-.6-.2-.8-.4-.2-.2-.2-.5-.2-.7-.1-.1-.3-.1-.4-.2-.3-.3-.5-.7-.5-1.1 0-.2.1-.4.3-.6.2-.2.4-.3.5-.3 0-.2.1-.4.2-.5.5-.8 1.3-.6 1.8-.5h.3c.6 0 1.1.1 1.4.5.2.2.2.5.2.8.2.2.4.5.4.8 0 .5-.1.9-.4 1.2-.2.2-.4.3-.6.4 0 .1 0 .1-.1.2-.2.4-.5.7-.9.8-.1 0-.2 0-.2.1-.3-.1-.5-.2-.7-.3zm.6-.6zm-.1-.3zm1.1-1s.1 0 .2-.1.1-.2.1-.4c-.1 0-.2-.1-.3-.1-.1-.1-.2-.3-.2-.5.1-.3 0-.4 0-.4s-.2-.1-.6-.1c-.1 0-.3 0-.4-.1-.5-.1-.7-.1-.7 0 .1.1.2.3.2.5s-.2.4-.4.4c-.2.1-.4.1-.5.1h-.1c0 .1 0 .2.1.2.1.1.2.1.3.1.2-.1.5 0 .6.2s.1.4-.1.6c0 .1-.1.2 0 .2.2-.2.5-.2.7 0 .1.1.2.2.2.3.1 0 .2-.1.2-.2v-.1c-.1-.2 0-.4.1-.6.1-.1.2-.1.3-.2 0 .1.2.1.3.2z"/>
  <path d="M31.4 24.3c-.2-2 1.2-3.9 3.3-4.1 2-.2 3.9 1.3 4.1 3.3.2 2-1.2 3.9-3.3 4.1s-3.9-1.3-4.1-3.3" opacity=".2" fill="#631c72"/>
  <path d="M89.8 65.8l-1-1c-.6-.5-1.1-1.1-1.4-1.6l.1-.1c.4-.6.3-1.3.3-1.6-.2-4.3-1.9-8.7-3.7-12.8-.9-2.2-1.8-3.9-2.8-5.4C76.9 36.1 68.4 31.8 60 32v-.2-1.2c1.7-.3 3.1-1.2 3.9-2.7 1.2-2.3.7-5.5-.5-7.1-.6-.9-1.5-1.4-2.3-1.6.6-1.9.2-3.8-1.2-5.9-1.8-2.6-7.1-5-7.5-5.2-.5-.3-.9-.5-1.3-.6-.2-.2-.4-.3-.6-.4-3.5-2.3-7.8-3.2-12.1-2.6-5.5.7-8.4 3.3-9.6 4.9-.7.1-1.4.7-1.6.8-1.7 1.3-4.2 4.3-4.3 4.4v.1c-.1.2-.3.5-.5.7-.7.9-1.4 2-1.8 3.2-.4 1.4-.1 2.6 1 3.6-.5.4-1 .8-1.4 1.5-1 1.8-1.1 4.9.4 7.1 1 1.4 2.5 2.2 4.3 2.2 0 .5.1.9.1 1.4 0 .7.1 1.3.3 1.9-6.5 2.5-11.9 8.3-14.5 15.8-2.2 6.3-2.6 13.8-1 22.1.4 2.2 1 4.8 2.4 7.1 1.1 1.9 2.7 3.4 4.6 4.5-.2 2.6.1 5.4.8 9.4.1.4.3.6.6.8 0 .7 0 1.4.1 2 1.1 16.2 2.3 26.4 4.1 41.8.6 4.9 1.2 10.5 1.9 16.9-2 .3-3.7 1.8-4.3 3.7-.5 1.8.1 4 1.6 5.8.7.9 1.5 1.6 2.3 2.3.5.5 1.1 1 1.5 1.5.3.4.7.7 1 1.1.7.8 1.4 1.6 2.3 2.3.3.2.5.4.8.6 1.2 1 2.6 2.2 4.7 2 .7-.1 1.5-.3 2.3-.8.5-.3 1.6-.9 2.2-2.4.9-2.2.7-3.5.5-5.3-.2-1.4-.3-2.6-.4-3.8 3.3-.9 3.6-3 3.6-3.3v-.1c.7-4.8 1.5-9.2 2.3-13.5 2.3-12.8 4.3-24.1 3.7-38.4l5 8.2 1.2 2.1c-.1.2-.1.4-.1.5s0 .5.4.9c.1.2.1.3.3.5.1.7 0 1.4-.1 2.1-.1.5-.1 1.1-.1 1.7 0 .4 0 .8.1 1.1-.3.1-.5.3-.7.6-.7.9-.8 2.3-.3 4.2.2.7.5 1.5.7 2.2.5 1.3.9 2.5 1 3.8 0 .4.1.9.1 1.3.1 1.6.1 3.5 1.5 4.7.7.6 1.7.9 2.7.8.7-.1 1.4-.3 1.9-.7 1.2-.8 2-2.3 2.3-4 .2-1.5.1-3-.1-4.4v-.4c2-.1 3.8-1 5.4-2.5 2.5-2.5 3.8-6.2 4.4-8.2l.1-.2c1.4-4.7 2.8-9.6 2.1-15.4-.5-3.9-2.1-9.2-3.4-12.4-.8-1.9-1.6-3.8-2.4-5.6.3-.2.6-.4.9-.8.3-.5.3-1.1.3-1.4.2-6.1-1.1-12-2.4-17.8-.6-2.6-1.1-5.2-1.6-7.9-.2-1.1-.3-2.2-.3-3.3.5.1 1 .2 1.5.4.4.9.7 1.8.9 2.8 0 .2.2.3.4.4 2.1.7 3.4 1.2 5.6 2.7.1.1.2.1.4.1h.2c.7 1 1.4 2 1.8 2.8.2.4.6.5 1 .5.1 0 .2-.1.4-.1 0 0 .1 0 .1-.1.2.5.2 1 .1 1.6-.1.2-.1.4-.2.7-.1.1-.1.3-.2.4-.5.7-.5 1.7-.4 2.7.1.5.3.9.6 1.2.2.9.6 1.7 1.2 2.3.9.8 2.1.9 2.9.9h.5c.5-.1.9-.2 1.4-.4.2-.1.6-.2 1-.3.2 0 .3 0 .4-.1.8-.2 1.7-.6 2.1-1.3.4-.1.7-.3 1-.5.5-.5.6-1.1.7-1.5.9-3.4.6-5.9-.9-7.5zm-30-44.5l.3-.3c.6.1 1.2.3 1.6 1 .8 1.1 1.2 3.4.3 5-.5.9-1.2 1.4-2.2 1.6v-.5c.9-.1 2.6-1.1 2.4-3.7-.1-1.1-.5-1.9-1.1-2.4-.4-.4-.9-.5-1.3-.7 0 .1 0 .1 0 0zm-31.9-.1c.3-1.6.7-3.3 1.2-5 .6-2.3 1.1-4.2 1.1-5.5v-.3c1-1.3 3.4-3.5 8.3-4.2 2.7-.4 5.8-.1 8.6 1.2-3.6-1-7.4-1.1-11 0-.3.1-.5.4-.4.7.1.3.4.5.7.4 4-1.2 8.5-.9 12.4.8v.2c-.8-.3-1.8-.4-2.5-.4-3.5-.3-7.1.2-10.4 1.3-.4-.2-.9-.3-1.4-.3-1.4-.1-2.9.7-3.6 1.9-.8 1.2-.7 2.9.1 4.1.1.1.2.1.3.1h.1c.1-.1.1-.2.1-.4-.7-1-.7-2.4-.1-3.5.6-1 1.9-1.7 3.1-1.6 1.2.1 2.4.8 3.1 1.8.1.1.2.2.4.1.1-.1.2-.2.1-.4-.3-.4-.6-.8-.9-1.1 2.9-.9 6.1-1.2 9.1-1 .8.1 1.9.2 2.9.6.9 3.7 4 8.8 5.5 11.3l-.7.1c-.1-.2-.2-.5-.4-.7-.1-.3-.5-.4-.7-.2-.3.1-.4.5-.2.7.1.1.2.3.2.4l-4.4.9c0-.2-.2-.3-.4-.4-.1 0-.2 0-.3-.1.3 0 .6.1.9.1h.1c.2 0 .4-.2.5-.4 0-.3-.1-.6-.4-.6-.9-.2-1.8-.3-2.7-.3-.3 0-.5.2-.6.5 0 .3.2.5.5.6h.2-.4c-.3 0-.5.3-.5.6 0 .2.1.3.2.4-.1.1-.2.2-.2.3l-.9.1c-.3-.7-1-1.1-1.8-1-.3 0-.6.2-.8.4l-.1-2.1c0-.3-.3-.5-.6-.5s-.5.3-.5.6l.2 2.6c-.1 0-.2 0-.3.1-.3-.5-1-.8-1.6-.8-.6.1-1.2.5-1.4 1.1H37c0-.1 0-.2-.1-.2l-.3-.3h.1c.3-.1.5-.3.4-.6-.1-.3-.3-.5-.6-.4-1 .2-2 .6-2.9 1.1-.1 0-.1.1-.2.2l-6.2-.4c.4-.8.6-1.6.7-2.6zm26.6 5.1c-.1 0-.3-.1-.4-.2-.2-.2-.2-.5-.2-.9v-.5c.2.5.4 1.1.6 1.6zm-15.4.4s0-.1 0 0c.1-.1.2-.1.3-.1.8-.1 1.4-.8 1.5-1.5 0 0 .1 0 .1-.1v.5c0 .3.3.5.6.5.1 0 .2 0 .3-.1 0 0 .1 0 .1.1.2.2.5.3.8.3 0 .1.1.1.2.2.2.1.3.3.3.3 0 .1-.1.2-.3.3-.2 0-.4 0-.8-.1-.2-.1-.4 0-.5.1s-.2.2-.2.3h-.1c-.2.1-.5.1-.7.1-.1 0-.2-.1-.2-.1-.1-.2-.3-.4-.5-.4s-.4.1-.5.3c0 0-.1.1-.3.1h-.4v-.2c0-.1.1-.3.3-.5zm-.5-1.7c0-.3.2-.6.5-.7.3 0 .6.2.7.5 0 .3-.2.6-.5.7-.2 0-.3 0-.5-.1-.1-.1-.2-.2-.2-.4zm4 .2c-.1-.1-.2-.2-.2-.4 0-.3.2-.6.5-.7.3 0 .6.2.7.5 0 .2 0 .3-.1.5-.1.1-.2.2-.4.2s-.3-.1-.5-.1zM36 24c-.1.1-.1.2-.1.3h-.5c.1-.2.4-.2.6-.3zm-11.8.7c.2 0 .4-.1.4-.3v.1c0 .6.4 1 1 1 .5 0 .9-.3 1-.8l9.3.7v.1c-.2.3-.4.4-.8.4-.3 0-.5.3-.5.6s.3.5.6.5h.1c.6-.1 1.2-.4 1.5-.9.1-.2.2-.4.2-.6h.6c.1.3.3.6.5.8-.2.2-.3.5-.4.8-.1.5.1 1 .5 1.3s.8.2 1.1.2c.1 0 .4 0 .7-.2v.2c0 .5.1.9.2 1.3.1.2.3.4.6.4h.1c.3-.1.5-.4.4-.7-.1-.3-.1-.6-.2-1h.2v.1c.1.4.1.7.1 1.1 0 .3.2.5.5.5h.1c.3 0 .5-.3.5-.5 0-.4 0-.9-.1-1.3 0-.1 0-.1-.1-.1.1 0 .1-.1.2-.1.3 0 .6.1.9 0 .6-.2 1-.8 1-1.4 0-.3-.1-.5-.3-.7.1-.1.3-.2.4-.3.2-.2.2-.4.3-.7l.7-.1c.1.4.2.9.6 1.2.4.4.9.5 1.3.6h.2c.2 0 .4-.2.5-.4.1-.3-.1-.6-.4-.6-.4-.1-.7-.1-.8-.3-.2-.1-.2-.4-.3-.6l6.7-1.4c-.1.1-.2.3-.2.4 0 .2 0 .5-.1.7 0 .2 0 .4-.1.6 0 .7.1 1.3.5 1.7.3.4.8.6 1.4.6.2 0 .4-.1.6-.2.2-.2.4-.4.4-.7 0-.2 0-.3-.1-.4-.3-1-.7-2-1.2-2.9l.8-.2c.3.5.8 1.1 1.5 1.1h.2c.1 0 .2-.1.3-.1.2.4.6.6 1 .5h.1c.5-.1.9-.6.8-1.1-.1-.3-.1-.6-.2-.9h.3s.7 0 1.2.4c.4.3.7.9.7 1.7.2 2.3-1.5 2.5-1.5 2.5-.2-.4-.6-.6-1-.6-.6.1-.9.6-.9 1.1.1.8.1 1.5.2 2V30.1c0 .8.1 1.4.1 2v1.1c.1 2.4-.4 6.5-5.5 7.2l-2.1.3c-.5.1-.9.5-.9 1-2.8.9-5.5 3-6.5 3.7-.8-.4-2.7-1.4-4.8-2 .1-.2.2-.4.2-.6 0-.5-.5-1-1-1-1.9.1-3.3 0-4.3-.1-4-.4-5.9-2.6-6.3-7.2-.1-1.5-.2-2.9-.2-4.3 0-.6-.5-1-1-1-.4 0-.7.2-.8.5-.1-.1-.2-.2-.4-.2s-1.7-.1-1.8-2.3c0-.8.1-1.4.5-1.8.3-.7 1-.7 1-.7zm41.4 36.8c.4 2.7 1 5.4 1.6 8 1.2 5.7 2.5 11.5 2.3 17.3v.4c0 .1-.2.2-.3.2-3 1.7-6.4 3.7-9.9 4.8-3 .9-6.2 1.2-9.3 1.5-.8.1-1.4.1-1.9-.1-.8-.4-1-1.7-1-2.9 0-.4-.3-.7-.6-.9-1.1-7.5-2.2-16.2-2.7-25.1 0-.1 0-.2-.1-.3 0-.1-.1-.3-.2-.6 2.1-3.6 4.5-6.4 6.7-8.4 1.3-.3 2.6-.8 4.1-1.4.7-.3 1.6-.8 2.5-1.2s1.8-.9 2.6-1.3c1.1.1 2.2.3 3.3.7 1.4.5 2.6 1.2 3.6 2.2-1.3 2.1-1.1 4.8-.7 7.1zm-30.7-18h.3c2.4.2 5.2 1.4 6.7 2.2-1.2.8-1.7 2.3-1.9 3.3-2-1.1-5.2-2.4-6.4-2.9.4-1.6 1-2.3 1.3-2.6zm-1.8.7c-.2-.3-.5-.6-.7-.9.2 0 .3 0 .5.1.2 0 .4 0 .6.1-.1.2-.3.4-.4.7zm13.8 8c-.5-.1-1-.3-1.4-.7h.1c.4-.2.5-.6.6-.8.1-.3.2-.5.3-.8h.1c.1 0 .2-.1.3-.2.6-.6 1.6-1.4 2.7-2.1-1.1 1.6-1.9 3.1-2.7 4.6zm-.2-3.8c-.4-.9-1.1-2.4-2.4-2.9 1.4-1 4.1-2.8 6.5-3.3.3.2 1.1.8 1.7 2.3-1.1.6-4 2.4-5.8 3.9zm-1.4-.6c0 .1-.1.2-.1.2 0 .2.2.3.3.3 0 0 0 .1.1.1v.2c0 .6-.2 1.1-.4 1.6 0 .1-.1.2-.1.2H45c-1.1.1-2.2.1-3.2-.1 0-.1-.2-.2-.4-.2-.1 0-.2 0-.2.1h-.1-.1v-.1-.6c.2-.9.7-2.9 2.2-3.1h.4c.1.1.2.2.3.2h.1c.5.1.9.6 1.3 1.2zM43 51.6c-.1 0-.1 0 0 0zm-3.1-1.4c0 .2 0 .5.3.7.2.2.4.3.6.3.3.1.6.1.9.2.6 1.8 2.1 3.2 3.8 3.8-1.3 2.9-2.2 5.3-2.6 6.7-1.1-3-3.2-8.3-6.9-13.8 1.3.7 2.9 1.5 3.9 2.1zm16.2 1.6c-.9.5-1.7.9-2.4 1.2-2.4 1-4.5 1.8-6.8 1.5-.8-.1-1.5-.4-2.2-.8v-.1c0-.2-.2-.3-.3-.3s-.1 0-.2.1c-.4-.3-.7-.7-1-1.2.1-.1.2-.2.2-.3s-.1-.3-.2-.3h1.1c.7.9 1.7 1.4 2.6 1.6-.1.1-.2.2-.1.3 0 .2.2.3.3.3.2 0 .3-.2.3-.3s0-.1-.1-.2c.7.1 1.4.1 2 0v.1c0 .2.2.3.3.3.2 0 .3-.2.3-.3v-.1c.7-.1 1.4-.3 1.8-.5 1.8-.6 3.5-1 5.1-1.2-.3 0-.5.1-.7.2zm-3.2-9c-.2-.2-.3-.5-.5-.7.1 0 .3 0 .4-.1.2 0 .5-.1.7-.1-.2.4-.4.6-.6.9zM22.1 29.6c-1-1.5-1-3.8-.3-5 .3-.6.9-1 1.4-1.1.1.1.2.1.3.2-.4.1-.9.3-1.3.8-.6.6-.8 1.5-.8 2.5.1 2.6 1.9 3.3 2.9 3.3h.1c.1 0 .2 0 .2-.1v.7c-1.1 0-1.9-.4-2.5-1.3zM27 70.5l-.3-.9c0-.1-.1-.3-.1-.4-.1-.2-.1-.4-.1-.6h.4c.5-.1.9-.6.8-1.2-.1-.8-.2-2.3.6-3 .4-.3.9-.4 1.7-.4.3 0 .6.1.9.2.6.3 1.2.4 1.7.5.1 0 .3.1.4.1.5.1.8.4.8.5 0 .4.2.8.5 1s.6.2.9.1c.1.1.1.4.2.5.7 2.9.5 4.8-.6 6-.2.3-.6.6-.9.9-.7.7-1.5 1.4-2 2.3-2.2-.1-3.7-.8-5.4-2.5.5-.9.7-2 .5-3.1zm7.9 6.8c.1-.3 0-.6-.2-.9-.1-.1-.3-.2-.4-.3l.9-.9c.4-.3.7-.6 1-1 1.6-1.7 1.9-4.3 1.1-7.9-.1-.5-.3-1.1-.7-1.5-.3-.3-.7-.5-1-.6-.4-.7-1.3-1.2-2.2-1.4-.2 0-.3-.1-.5-.1-.4-.1-.8-.2-1.1-.3-.6-.3-1.2-.5-1.9-.5-.8 0-2 .1-3 .9-.5.4-.9 1-1.1 1.6-.6.3-1.1 1-1.3 1.9-.2 1.1-.2 2.2.1 3.3.1.2.1.3.2.5s.2.5.2.7c.1.4.1.8 0 1.1-.2-.2-.6-.2-.8-.1-.2.1-.4.2-.5.2-.1.1-.2.1-.3.1 0 0-.3-.1-.8-.6.2-.2.2-.5.2-.7 0-.3-.2-.6-.5-.8-.1-.3-.4-.4-.6-.5-.3-.1-.7-.1-1 .1-.2.1-.4.3-.5.6h-1.4c-.3 0-.5.2-.5.5s.2.5.5.5h1c-.9.4-1.6 1.1-2 2-.1.3 0 .6.3.7h.3c.2 0 .4-.1.4-.3.3-.7.9-1.2 1.6-1.5.1 0 .2-.1.3-.2 0 0 0 .1.1.1l.2.5c.1.1.1.2.2.2.3.4.6.6.9.8-.1.1-.3.3-.5.4-.2.2-.2.5 0 .8.1.1.3.2.4.2s.2-.1.3-.1c.3-.3.6-.6.8-.7.4 0 .8 0 1.1-.2 0 .1.1.2.2.3.1.1.2.1.2.2 2.5 2.6 4.6 3.6 8 3.6-1.3 4-4.2 6.8-7.7 7.4-2.2.4-4.5 0-6.5-1-.1-.1-.3-.3-.5-.3-1.7-.9-3.1-2.3-4.1-3.9-1.2-2-1.7-4.2-2.1-6.4-1.5-8-1.2-15.1.9-21.1 2.4-6.8 7.3-12.2 13.2-14.5.7 1.8 1.8 3.1 3.3 4-.7.7-1.5 1.7-1.6 3.2 0 .2.1.4.3.5l3 1.5c-.2 1-.6 3.7-.6 4.6 0 .2.1.3.3.4.1 0 7.4 3.8 12.3 12.4.4 8.9 1.6 17.6 2.7 25l-.2.2-2.2 3.5c-.1.2-.3.4-.4.5-.1.1-.5.2-.8.2-7 .8-12.5 1.1-18.5.4l-1-.1c-.5-.1-1-.1-1.5-.2H20c-.2 0-.5-.1-.7-.1-.5-3.1-.8-5.4-.7-7.4 1.9.7 4 1 6 .8.2 0 .4 0 .6-.1 4.7-.8 8.5-4.7 9.7-10.2zM22 96.7c-.1.3-.1.6-.3.9-.1.4-.4.9-.9 1.3v-2.4c.4.1.8.1 1.2.2zm14.8 66.2v.2c.1 1.3.2 2.5.3 3.7l-3.1-2.4-.6-.9c-.5-.6-.9-1.3-1.7-2.1-.4-.4-.7-.9-1.1-1.4-.2-.2-.4-.5-.6-.8.8-.1 1.8-.2 3.1-.1 1.4 0 2.5 0 3.5.2.1 1.2.1 2.4.2 3.6zm2-1.3c0-.6 0-1.2-.1-1.8.5.2 1 .5 1.5.9-.2.3-.7.7-1.4.9zm35.3-54.3c.7 5.3-.7 10-2 14.5l-.1.2c-.5 1.8-1.8 5.2-3.9 7.4-1.9 2-4.4 2.5-6.9 1.4-2.5-1-4.3-3.8-4.3-6.5 0-.5.1-1 .1-1.5.1-.8.2-1.6.1-2.5v-.2c.5.2.9.4 1.4.7.1.1.2.1.4.1.1 0 .3-.1.4-.2.2-.2.1-.6-.1-.7-.6-.4-1.2-.7-1.8-.9-.2-.1-.4 0-.5.1v-.1c.5-.4.9-1.1 1-1.7 0-.3-.1-.6-.4-.6-.3 0-.6.1-.6.4-.1.2-.1.5-.3.7-.4-.8-.8-1.6-1.2-2.3l-7.1-11.7c-.2-.4-.7-.6-1.2-.4-.4.1-.7.6-.7 1 1.2 16.1-.9 28.1-3.4 42-.7 3.9-1.4 7.9-2.1 12.2-2.3-1.4-4.5-1.5-7.6-1.6-2.1 0-3.5.1-4.8.5-.7-.4-1.4-.7-2.2-.9-.7-6.5-1.4-12.1-2-17.1-1.4-12.6-2.5-21.6-3.4-33.4h.2c.3 0 .5-.3.5-.6-.3-1.8-.4-3.6-.5-5.4.8-.4 1.4-1.2 1.8-2.2.1-.4.2-.8.3-1.1 6.1.7 11.7.4 18.9-.4.5 0 1.2-.1 1.7-.6.4-.3.7-.7.9-1l.8-1.3c.3.7.8 1.4 1.6 1.9 1 .6 2.2.4 3 .4.7-.1 1.4-.1 2.1-.2 2.5-.3 5.1-.6 7.6-1.4 3.1-.9 6.1-2.5 8.8-4 .8 1.8 1.5 3.5 2.3 5.4 1.1 2.8 2.7 7.9 3.2 11.6zm2.4-47.1c-.2 0-.3.2-.3.3s0 .1.1.2c-.3.7-.5 1.4-.8 2.1-.1-.1-.2-.1-.2-.1h.1c.2 0 .3-.2.3-.3 0-.2-.2-.3-.3-.3-.2 0-.3.2-.3.3v.2c-1.2-.8-2.2-1.2-3.3-1.6v-.1c0-.2-.2-.3-.3-.3-.1 0-.2.1-.3.2-.2-.1-.4-.1-.6-.2-.1-.4-.2-.7-.3-1.1.1-.1.1-.2.1-.3s-.1-.3-.3-.3c-1.3-3.8-3.8-6.5-7.2-7.8-.5-.2-1.1-.4-1.6-.5.4-.1.9-.2 1.3-.2 1.1-.1 2.1 0 2.9 0v.1c0 .2.2.3.3.3.2 0 .3-.2.3-.3 2.9.4 4.7 1.7 7.1 3.8l.3.3c1.8 1.6 1.8 1.6 3.6 4.2-.2.5-.4 1-.6 1.4zm2.7 5c-.6-1-1.3-2-2.2-3.1.4-1 .8-2 1.2-3.1.1-.2.1-.4-.1-.5l-.1-.1c-1.7-2.4-1.9-2.8-3.2-3.9v-.3c-.2-.8 0-.9 1-1.7l.1-.1c.2-.2.3-.5.1-.7-.2-.2-.5-.3-.7-.1l-.1.1c-.7.5-1.4 1-1.5 1.8-3.1-2.7-5.4-4.3-11.2-4.1-1.1 0-2.3.4-3.5 1-1.1 0-2.2 0-3.3.2 0-1.1-.4-3.3-.6-4.2l3-1.6c.2-.1.3-.3.3-.5-.2-1.7-1.2-2.8-1.9-3.5 1.2-.7 2.1-1.8 2.7-3.1.6-1.3.8-2.6.9-3.7 7.7-.3 15.5 3.7 19.7 10.2.9 1.4 1.7 3 2.6 5.1 1.7 4 3.3 8.2 3.5 12.2v.5s-.3.2-.4.2c-.9.5-2.2 1.1-3.5 1.7-1 .4-2 .9-2.8 1.3zm9.5 7.6c0 .1-.1.3-.2.5-.3-.1-.6-.1-.8.1-.4.2-.6.6-.5 1-.1.1-.3.3-.8.4-.1 0-.2.1-.4.1-.5.1-1.1.2-1.7.5-.3.1-.5.2-.8.2-.8 0-1.3-.2-1.6-.5-.7-.6-.6-2-.5-2.8.1-.5-.3-1.1-.8-1.2-.3 0-.6 0-.8.2 0-.3.1-.6.2-.8 0-.1.1-.3.1-.4.1-.3.2-.5.2-.8.2-.9.1-1.6-.2-2.3.8-.4 1.6-.8 2.5-1.1 1-.5 2.1-1 3-1.4.4.8 1.1 1.4 1.7 2l.8.8c1.2.9 1.3 2.8.6 5.5z"/>
  <path d="M34.8 11.8c0-.1.1-.3.2-.3s.3.1.3.2-.1.3-.2.3c-.2 0-.3-.1-.3-.2M33 14.5c0-.1.1-.3.2-.3s.3.1.3.2-.1.3-.2.3c-.2.1-.3 0-.3-.2M31.5 13.5c0-.1.1-.3.2-.3s.3.1.3.2-.1.3-.2.3c-.2.1-.3 0-.3-.2M32.9 12.3c0-.1.1-.3.2-.3s.3.1.3.2-.1.3-.2.3c-.2 0-.3-.1-.3-.2M34.6 13.4c0-.1.1-.3.2-.3s.3.1.3.2-.1.3-.2.3-.3-.1-.3-.2"/>
  <path d="M59.1 32.8v-1.3c0-.1-.1-.2-.1-.3 0-.1-.1-.2-.2-.3l-.2-.2c-.2-.1-.4-.2 0-.1-.1 0-.2-.1-.2-.1H58h-.4c-.2.1-.3.1-.5.2v.1c0 .6-1.4 2.3-1.7 2.8.1.1.2.1.2.2.1.1-1.6 2.6-1.8 2.6h-.4c-.3.7-1 2.5-2.9 3-.2 0-1.1-.3-1.2-.6 0-.2.8-1.7 1.5-2.7-1.4.7-2.9 1.2-4.4 1.2-1 0-1.9-.3-2.8-.6-.8-.3-1.6-.6-2.5-.3-.9.4-1.6 1-2.6 1.3s-2.1.3-3.1-.1c-.9-.3-1.7-1.1-2.3-1.8-1.4-1.3-3.2-2.7-5.2-2.3-.8.1-1.5.5-2.1 1 .6 5.4 3.5 7.2 7.1 7.6 3.7.4 13.4-.5 19.7-1.3 6.4-.6 6.6-6.1 6.5-8z" opacity=".1"/>
  <path d="M52.8 33.9c-.1 0-.2.1-.3.2s-.1.2-.1.3c0 .2 0 .5.2.6h.3c.2 0 .3.2.5.3s.4.1.5 0-.1-.3 0-.4c0-.1.1-.1.1-.1.1-.1.1-.4-.1-.5-.1 0-.1-.1-.2-.1 0 0-.1-.1-.1-.2-.1-.1-.2-.2-.4-.1-.1-.1-.2 0-.4 0" opacity=".8" fill="#911d1e"/>
  <path d="M55.6 30.4v.1h-.1l.1-.1c-.1 0-.1 0 0 0M56.1 30.8s.1.1 0 .1H56l.1-.1c-.1-.1 0-.1 0 0M55.1 30.6s.1.1 0 .1H55l.1-.1c-.1 0-.1 0 0 0M55.6 30.9s.1.1 0 .1h-.1l.1-.1M56.2 31.3s.1.1 0 .1h-.1l.1-.1c-.1 0-.1 0 0 0M55.1 31.2s.1.1 0 .1H55l.1-.1M55.7 31.5s.1.1 0 .1h-.1l.1-.1c-.1 0-.1 0 0 0M56.2 31.8v.1h-.1l.1-.1M54.6 31.4s.1.1 0 .1h-.1l.1-.1M55.2 31.7s.1.1 0 .1h-.1l.1-.1c-.1 0-.1 0 0 0M55.7 32s.1.1 0 0c-.1 0 0 0 0 0M54.7 31.9s.1.1 0 .1h-.1l.1-.1c-.1 0 0 0 0 0M55.3 32.2s.1.1 0 0c-.1 0-.1 0 0 0M54.2 32.1s.1.1 0 0c-.1 0 0 0 0 0M54.8 32.4s.1.1 0 0c-.1 0-.1 0 0 0M55.3 32.8c-.1-.1 0-.1 0 0M54.3 32.7s.1.1 0 0-.1-.1 0 0M51.3 36.2s.1.1 0 0M51.9 36.5c0 .1-.1.2 0 0-.1 0-.1 0 0 0M52.4 36.9s.1.1 0 0c0 .1-.1.2 0 0-.1 0 0-.1 0 0M51.4 36.8c0 .1-.1.2 0 0-.1 0 0-.1 0 0M52 37.1s.1.1 0 0c0 .1-.1.2 0 0-.1 0-.1-.1 0 0M50.9 37s.1.1 0 0c-.1 0 0 0 0 0M51.4 37.3s.1.1 0 0c-.1 0 0 0 0 0M51 37.5s.1.1 0 0c-.1 0-.1 0 0 0M51.5 37.8s.1.1 0 0M50.5 37.7c-.1 0-.1 0 0 0M51 38s.1.1 0 0M51.6 38.3s.1.1 0 0c0 .1-.1.2 0 0-.1 0-.1 0 0 0M50.5 38.2s.1.1 0 0c0 .1-.1.2 0 0M51.1 38.5s.1.1 0 0c0 .1-.1.2 0 0M50 38.4c.1 0 .1.1 0 0M50.6 38.8c-.1-.1 0-.1 0 0"/>
  <path d="M57.1 30.3c-.2-.3-.5-.4-.8-.5-.2-.1-.5-.1-.8-.1-.8.1-1.3.9-1.5 1.3l-.9 1.5c-.9.1-1.4 1.1-1.8 1.8-.1.2-.2.3-.3.5-.1.1-.2.4-.1.6v.1c-.6.8-1.1 1.7-1.6 2.5-.1.2-.3.5-.2.9 0 .3.3.6.6.7.2.1.4.1.7.1h.1c.7-.1 1.4-.6 2-1.3.4-.5.7-1.1 1-1.7H53.8c.2-.1.4-.2.5-.3.6-.6 1-1.3 1.4-2 .1-.1.2-.4.1-.6 0-.1-.1-.1-.1-.2.2-.3.4-.5.6-.7.1-.1.2-.2.3-.4.5-.6.7-1.2.7-1.7-.1-.2-.1-.4-.2-.5zm-4.2 6.4c-.1 0-.1 0 0 0-.2.3-.3.5-.4.7v-.1h-.1v.1h.1c-.1.2-.3.4-.4.6H52v.1c-.5.5-1 .9-1.6 1h-.6c-.2-.1-.3-.2-.3-.3v-.1h.1v-.1c0-.1.1-.2.1-.3.1-.1.1-.2.2-.3h.1v-.1c.1-.2.2-.4.4-.6h.1v-.1c.1-.2.3-.4.4-.6h.1v-.1c.1-.2.3-.4.4-.6l.4.2v.1h.1l.4.2v.1h.1v-.1l.5.3c.1-.1.1 0 0 0zm2.3-2.5c-.3.7-.8 1.3-1.3 1.9l-.2.2c-.1 0-.2 0-.4-.1l-1.8-.8c-.1 0-.1-.1-.1-.1l.1-.2c.1-.2.2-.3.3-.5.4-.9.8-1.5 1.4-1.5.1 0 .3 0 .4.1.5.2 1.1.4 1.6.7l.2.1c-.1 0-.2.2-.2.2zm1.5-3.3v.3-.1h-.1v.1h.1c-.1.3-.2.7-.6 1l-.3.3h-.1v.1c-.2.2-.4.4-.5.6-.1-.1-.3-.1-.4-.2h.1v-.1h-.1v.1c-.3-.2-.7-.3-1.1-.4h-.1l.1-.1h.1v-.1l.7-1.1c.3-.5.7-1 1.2-1.1h.3v.1h.2c.2 0 .4.1.5.3v.3z"/>
  <path d="M56.5 30.6v.1h.1l-.1-.1c0-.1 0-.1 0 0zM50.1 39s.1.1 0 0M16.5 54.9c0 .1.2.2.3.2.4-.1.8-.2 1.3-.3.1.1.2.3.3.4 0 .1.1.1.2.1 0 0 .1 0 .1-.1.1-.1.1-.2.1-.4-.1-.1-.1-.2-.2-.2.4-.1.7-.2 1.1-.2l1.2 1.5c.1.1.1.1.2.1s.1 0 .1-.1c.1-.1.1-.3 0-.4l-1.1-1.3h.1c.1 0 .2-.2.2-.3s-.2-.2-.3-.2c-.1 0-.3.1-.4.1l-.4-.4c.2-.1.5-.1.7-.2.3.3.5.7.8 1 .1.1.2.1.3.1h.1c.1-.1.2-.2.1-.4l-.6-.9c.4-.1.7-.2 1.1-.3.1-.1.2-.2.2-.3-.1-.1-.2-.2-.3-.2-.4.1-.9.3-1.3.4-.3-.3-.5-.6-.8-.8-.1-.1-.3-.1-.4 0s-.1.3 0 .4l.6.6c-.2.1-.4.1-.7.2-.1-.1-.2-.1-.4 0l-.1.1c-.4.1-.8.1-1.1.2-.1 0-.1 0-.1.1-.2-.3-.5-.5-.7-.8-.1-.1-.3-.1-.4 0s-.1.3 0 .4c.4.5.9 1 1.3 1.5-.4.1-.7.2-1 .3-.1-.2-.1-.1-.1.1zm1.8-.8c-.1-.2-.2-.3-.4-.5.4-.1.7-.1 1.1-.2l.3.4c-.3.1-.6.2-1 .3zM60.5 84.3c0 .1.2.2.3.2.6-.2 1.3-.3 1.9-.5.2.2.3.5.5.7 0 .1.1.1.2.1 0 0 .1 0 .1-.1.1-.1.1-.2.1-.4-.1-.2-.3-.3-.4-.5.6-.1 1.2-.3 1.8-.4l1.8 2.3c.1.1.1.1.2.1s.1 0 .1-.1c.1-.1.1-.3 0-.4l-1.7-2c.1 0 .3-.1.4-.1s.2-.2.2-.3-.2-.2-.3-.2c-.2.1-.4.1-.7.1l-.7-.8 1.2-.3 1.2 1.5c.1.1.2.1.3.1h.1c.1-.1.2-.2.1-.4-.3-.5-.7-1-1-1.4.6-.2 1.2-.3 1.7-.5.1-.1.2-.2.2-.3-.1-.1-.2-.2-.3-.2-.6.2-1.3.4-2 .6-.4-.4-.8-.9-1.2-1.3-.1-.1-.3-.1-.4 0s-.1.3 0 .4l1 1-1.2.3c-.1-.1-.3-.1-.4 0 0 0-.1.1-.1.2-.6.1-1.1.2-1.7.3-.1 0-.2.1-.2.2-.4-.4-.7-.8-1.1-1.3-.1-.1-.3-.1-.4 0-.1.1-.1.3 0 .4.7.7 1.3 1.5 1.9 2.3-.6.1-1.1.3-1.7.4.3 0 .2.2.2.3zm2.5-.9c-.2-.3-.5-.6-.7-.9.6-.1 1.2-.2 1.9-.4l.7.8c-.7.2-1.3.4-1.9.5zM28.6 132.9c0 .1.2.2.3.2.6-.2 1.3-.3 1.9-.5.2.2.3.5.5.7 0 .1.1.1.2.1 0 0 .1 0 .1-.1.1-.1.1-.2.1-.4-.1-.2-.3-.3-.4-.5.6-.1 1.2-.3 1.8-.4l1.8 2.3c.1.1.1.1.2.1s.1 0 .1-.1c.1-.1.1-.3 0-.4l-1.7-2c.1 0 .3-.1.4-.1.1 0 .2-.2.2-.3s-.2-.2-.3-.2c-.2.1-.4.1-.7.1l-.7-.8 1.2-.3 1.2 1.5c.1.1.2.1.3.1h.1c.1-.1.2-.2.1-.4-.3-.5-.7-1-1-1.4.6-.2 1.2-.3 1.7-.5.1-.1.2-.2.2-.3-.1-.1-.2-.2-.3-.2-.6.2-1.3.4-2 .6-.4-.4-.8-.9-1.2-1.3-.1-.1-.3-.1-.4 0-.1.1-.1.3 0 .4l1 1-1.2.3c-.1-.1-.3-.1-.4 0 0 0-.1.1-.1.2-.6.1-1.1.2-1.7.3-.1 0-.2.1-.2.2-.4-.4-.7-.8-1.1-1.3-.1-.1-.3-.1-.4 0s-.1.3 0 .4c.7.7 1.3 1.5 1.9 2.3-.6.1-1.1.3-1.7.4.2 0 .2.1.2.3zm2.4-.9c-.2-.3-.5-.6-.7-.9.6-.1 1.2-.2 1.9-.4l.7.8c-.7.2-1.3.3-1.9.5z"/>
</svg>
