<svg xmlns="http://www.w3.org/2000/svg" width="112" height="236">
  <path d="M110.9 125.4c-.8 1-2 1.7-3.3 1.8h-.6c-.2 0-.4 0-.5-.1-.1.7-.3 1.4-.5 2.1-.7 2-2.6 3.3-4.7 3.3-.6 0-1.1-.1-1.6-.3-2.6-.9-3.9-3.7-3.1-6.3.6-1.8-.6-4.4-2.4-5.1-2.6-.9-3.9-3.8-2.9-6.4.7-1.9 2.6-3.2 4.6-3.2.6 0 1.2.1 1.7.3.7.3 1.4.6 2.1 1 .9-1 2.2-1.6 3.6-1.6 1 0 2 .3 2.9.9 3.2 2.2 5.3 5.9 5.7 9.7.2 1.5-.2 2.8-1 3.9zM96.5 137c.4 1.5 0 3-.9 4.2-2 2.6-4.8 4.5-7.9 5.3-.7.2-1.4.3-2 .5-.6.1-1.1.2-1.5.3-.4.1-.8.4-1.2.7.3 4.2.5 8.8.4 10.8-.1 2.2-.3 3.2-.5 4.3-.1.4-.2.7-.3 1.5-.1.7-.4 3.6-1 8.7-1.4 12.1-3.7 32.1-4.1 37.7.2.4.6 1 .9 1.7 3.9 7 8.8 15.6 3.7 20.6-.3.3-.7.6-1.2.9-1.2.7-2.6.8-3.5.8-2.6 0-9.3-1.1-16.1-11.3-.1-.1-.3-.2-.4-.3-.6-.4-1.3-.9-2-1.5-1.6-1.6-2.4-3.9-2.3-6.5.1-2.2 1-4.4 2.6-6.1 1-1 1.3-2 1.4-2.6.2-1.1.2-2.2.1-3.3-.1-1.1-.3-2.5-.6-4.1-1.2-8.1-3.3-21.8.2-32.4.1-.4.2-.9.3-1.3.2-1.6.2-5.3-.2-10-.8 0-1.5-.1-2.3-.2-1.7 3.5-3.8 6-6.3 7.5-.5.3-1 .6-1.6.8-1.3 1.6-2.7 3.1-4.7 5.2l-.1.1c.4.7.7 1.5.8 2.3.1 1.3-.3 2.6-1.2 3.6 0 .1-.1.1-.1.1.3 1.9-.4 3.9-2.2 5-1.5 1-3.2 1.5-5 1.5-.3 0-.6 0-1-.1-1.7-.2-3.1-1.2-3.9-2.7-1.3-.3-2.4-1-3.1-2.1-.7-1.1-1-2.4-.7-3.7-1.4-1.2-3.9-4.4-1.1-10.3 2.5-5.4 5.3-8.8 7.3-11.1 0-.9.2-1.8.3-2.7-3-.4-6.1-1.1-9-2.7-1.2-.7-2-1.8-2.4-3.1-.3-1.3-.1-2.7.6-3.9 2.5-3.9 7.8-16 8.5-19.8.6-3.4 1-6.6 1.2-9.5v-.8c0-.5.1-1 .1-1.4v-2.2-.7c0-.2 0-.4-.1-.6v-.3c-.1-.3-.1-.6-.1-.9v-.1c-.3-1.2-.2-2.4.3-3.6-.7-6.7-2.7-9.1-4-10.8-.3-.4-.6-.7-.9-1.1-1.9-2.7-3.6-4.9-5-6.8-4-5.3-6.7-8.9-11.1-17.1-.1-.1-.1-.2-.2-.3-.8-1.4-2-3.6-1.7-6.2.3-2.2 1.2-3.5 1.9-4.4.1-.1.2-.2.2-.3.1-.2.3-.4.4-.6-2.7-8.1-3.5-16.7-2.2-24.4-.1-.2-.3-.4-.4-.6-1.5.7-2.9 1.5-4.3 2.3-.8.4-1.6.7-2.5.7-1.8 0-3.4-.9-4.3-2.4-1.4-2.4-.6-5.4 1.8-6.8 1.4-.8 2.8-1.6 4.3-2.3-.3-.6-.6-1.2-.9-1.9-2.1-4.2-1-7.3.9-9C7.1 6 7.9 4.9 9 4.3c.5-.7.8-1.3 1.3-1.7 1.1-1 2.5-1.6 3.9-1.6h.4c2.8.2 4.9 2.4 5.7 4.4.1.2.1.4.2.6.2-.1.3-.1.5-.2.6-.2 1.2-.3 1.8-.3.9 0 1.8.2 2.6.7 1.4.8 2.4 2.1 2.9 3.7 0 .1 0 .2.1.2 4-.9 8-1.6 12-2 3.1-.3 6.3-.5 9.4-.5 8.4 0 16.6 1.1 24.4 3.2v-.3c-.1-3.7 1.9-5.3 3.2-5.9.7-.4 1.6-.6 2.4-.6.7 0 1.4.1 2 .4.6.2 1.2.6 1.7 1 1.2.2 2.3.7 3.1 1.6l.3.3c2.6 1 4.2 3.9 4.1 7.6-.1 4.6-.5 8-1.5 12.6v.1c4.9 7.8 7.6 17.9 7.5 28 .9 1.8 1.8 4.2 2.4 6 1.5 1.6 1.7 3.9.7 5.8-3.4 6-6.7 10.7-11 16.2-1.4 1.8-2.8 4.4-4.4 7.9-.8 1.8-2.1 5.8-2.5 8 .4 1 .4 1.8.3 2.5v.1c0 .4 0 .9-.1 1.3v.7c0 .1.1.2.1.4.1.2.1.4.1.7.1.4.3.8.5 1.2.1.1.1.3.2.4.2.6.3 1.1.4 1.5v.2c.2.5.3 1 .3 1.6.2.4.4.8.6 1.1.6 1.2 1.2 2.5 1.8 3.8 1.2 2.9 2.7 5.5 4.1 8 2.2 4.1 4.6 8.4 6 14zm-69-100.3c.5.1 1 .3 1.4.6 0-1.1.4-2.2 1.2-3.1 1-1.2 2.6-1.9 4.2-1.9h.7c2.3.3 4.4 1.5 5.8 3.3.7-1 1.5-2 2.4-2.8-.9-.5-1.6-1.4-1.9-2.4-.1-.2-.3-.3-.4-.5-.7-1-1.1-2.2-1.4-3.4-.2-1.3 0-2.4.4-3.2-4.2.1-8.4.7-12.5 1.7-.1.2-.2.3-.2.5-.2.6-.3 1.7-.3 2.2-.2 3.4 0 6.3.6 9zm4.4 5.3c1 2.1 2 4.2 3.2 6.2.1-.4.2-.7.3-1.1.3-1.3.8-2.6 1.3-3.9-.3 0-.5-.1-.8-.2H35.3c-1.3-.2-2.4-.5-3.4-1zm18.4-14c2.5-1 5.3-1.5 8.2-1.5.7 0 1.3 0 2 .1 2.1.2 3.9.5 5.6.9.6-.1 1.1-.2 1.7-.3h.5c1.4 0 2.7.3 3.9 1-.8-1.5-.9-3-1-4 0-.2-.1-.6-.1-.7-.1-.2-.3-.4-.5-.7-.6-.8-1.4-1.8-1.9-3.1-5.5-1.3-11.3-2-17-2.1.1.4.1.9.1 1.3-.1 1.8-1.3 3.4-2.8 4.1 0 .1.1.1.1.2.8 1.4 1.2 3.1 1.2 4.8z" fill="#fff"/>
  <path d="M48.3 156.3c-.5.2-.9.5-1.3.8h1.5c.2-.6.4-1.2.7-1.8-.4.3-.8.6-1.3.9" opacity=".1"/>
  <path d="M59 76.1c-2.2-.3-4.4-.4-6.6-.3l2.3 9.5 4.3-9.2z" fill="#006196"/>
  <path d="M51.8 50c-.2 0-.4 0-.6-.1-.2 0-.3-.2-.3-.4s.2-.3.4-.3c1 .2 2.2-.3 2.8-1.1.1-.2.3-.2.5-.1s.2.3.1.5c-.7.9-1.8 1.5-2.9 1.5zM55.9 58.1c-.2 0-.4-.1-.6-.2-.2-.2-.3-.4-.4-.6-.1-.3.1-.7.4-.9.2-.2.4-.3.6-.3h.4c.2.1.4.3.5.5.1.3.1.6 0 .9-.1.3-.4.5-.7.5-.1.1-.2.1-.2.1zm-.1-1.2c-.1 0-.2.3-.2.3s0 .1.1.1.1.1.2.1.1-.1.2-.1v-.2c0-.1-.1-.1-.1-.1-.1-.1-.1-.1-.2-.1zm.3-.1s-.1 0 0 0c-.1 0 0 0 0 0zM56.8 53.5c-.2 0-.4-.2-.4-.4.1-1 .1-1.9 0-2.9 0-.2.1-.4.3-.4.2 0 .4.1.4.3.1 1 .1 2 0 3 0 .3-.1.4-.3.4zM56.9 55.9c-.2 0-.4-.2-.4-.4v-1.1c0-.2.2-.4.4-.4s.4.2.4.4v1.1c-.1.2-.2.4-.4.4zM53.4 55.1c-.3 0-.6-.2-.8-.4l-.1-.1c-.4-.3-1-.3-1.4-.4-.2 0-.3-.2-.3-.4s.2-.3.4-.3c.6.1 1.2.1 1.8.5.1 0 .1.1.2.1.1.1.3.2.4.2.2 0 .4.1.4.3 0 .2-.1.4-.3.4-.2.1-.3.1-.3.1zM60.6 55.1c-.1 0-.2-.1-.3-.2-.1-.2-.1-.4.1-.5.9-.6 2-.8 2.9-.9.2 0 .4.1.4.3 0 .2-.1.4-.3.4-.9.1-1.9.3-2.6.8-.1 0-.1.1-.2.1zM57.3 65.3c-.5 0-1-.1-1.5-.2-.2 0-.3-.2-.3-.4s.2-.3.4-.3c.7.2 1.5.2 2.3.1.2 0 .4.1.4.3 0 .2-.1.4-.3.4-.3.1-.6.1-1 .1z"/>
  <path d="M54 53.6c-.5-.7-1.4-1.1-2.6-1.2h-.6-.1c-.1-.1-.2-.2-.2-.4 0 0-.1.2 0 .4h-.2c-.2-.2-.4-.4-.5-.7v.7h-.2c-.2-.2-.5-.4-.6-.7 0 0-.1.3 0 .6-.1 0-.1 0-.2-.1h-.1c-.2-.2-.4-.4-.4-.6 0 0 0 .4.1.7-.1.2 0 .4.2.5.7.3 1.5.4 2.2.4h.6c1 .1 1.7.4 2.1.9.1.1.2.2.3.2.1 0 .1 0 .2-.1.1-.2.1-.5 0-.6zM60.5 61.2c-.5-.5-1.2-.8-1.8-.9-.8-.2-1.6-.2-2.5-.2-.6 0-1.3.1-1.9.4-.6.3-1.1 1-1.1 1.8 0 .4.3.7.6.9.2.1.4.1.5.1l1.5.2c.2 0 .4-.1.4-.3 0-.2-.1-.4-.3-.4l-1.5-.2c-.1 0-.2 0-.3-.1-.1 0-.2-.2-.2-.3-.1-.5.3-.9.7-1.1h.1c.2.2.4.4.7.5.3.1.7.2 1 .2l.7.1c.3 0 .7.1 1.1.1.5 0 1.1-.1 1.6-.4l.1.1c.3.3.4.8.1 1.1-.1.2-.5.2-.8.2-.5 0-1 0-1.5-.1-.2 0-.4.1-.4.3 0 .2.1.4.3.4.4 0 .9.1 1.3.1h.3c.5 0 1-.1 1.4-.4.6-.5.4-1.5-.1-2.1zm-3.3 0l-.7-.1c-.3 0-.5-.1-.8-.1 0 0-.1 0-.1-.1h.6c.8 0 1.6.1 2.4.2.1 0 .2.1.4.1-.5.1-1.1 0-1.8 0z"/>
  <path d="M75.4 76.8s0-.1-.1-.1l-.1.1h.2z" fill="#231815"/>
  <path d="M75 102.5c-.1 0-.1 0 0 0-1.1-.2-2-.3-3-.5-.3-.1-.5-.4-.5-.7.1-.3.4-.5.7-.5 1 .2 1.9.4 2.9.5.3 0 .5.3.5.7-.1.3-.3.5-.6.5zM60.8 58.5c-.1-.3-.3-.5-.5-.7-.2-.1-.4-.2-.5-.3-.2-.1-.4-.2-.5-.3l-.1-.1V57c0-.2 0-.4-.1-.6-.2-.4-.7-.6-1.1-.5-.4 0-.6.2-.7.5l-.1.4v.1c-.1.4 0 .6.3.9.1.1.2.1.3.2.3.5.8 1 1.1 1.1.3.2.5.3.7.4.2 0 .3.1.5.1s.3 0 .5-.1c.2-.3.3-.6.2-1z"/>
  <path d="M61.7 58.4c.1 0 .2.1.4.1.2.1.4-.1.7-.1.1 0 .3 0 .4.2.1.1.2.3.2.4 0 .2-.1.3-.2.4-.1.1-.2.1-.4.1-.3 0-.6-.1-.9-.3-.2-.2-.6-.8-.2-.8z" fill="#c8c8c8"/>
  <path d="M62.8 59.8s-.1 0 0 0c-.2 0-.7 0-1.1-.4-.2-.1-.6-.7-.5-1.1.1-.2.2-.4.5-.4.2 0 .3.1.4.1h.2c.1 0 .2-.1.4-.1s.5.1.7.3c.2.2.3.5.3.7 0 .3-.1.5-.3.7-.2.2-.4.2-.6.2zm-.6-.9c.2.1.4.2.6.2h.2V59c0-.1 0-.1-.1-.2l-.1-.1h-.2c-.1.2-.3.2-.4.2zm-.5-.1z"/>
  <path d="M74.3 160.8c-.5.3.1 1-.1 1.6-.1.3-.5.5-.8.5-.3 0-.6-.1-.9-.3.2-.6.5-1.1.9-1.6.2-.2.3-.3.6-.4.2 0 .5.1.5.4" opacity=".1"/>
  <path d="M41.4 101.9c-.2 0-.5-.1-.5-.4-.1-.3 0-.6.3-.8.4-.2.8-.6.9-1 .1-.3.4-.5.7-.4.3.1.5.4.4.7-.2.8-.8 1.5-1.6 1.9h-.2z"/>
  <path d="M62.9 126.1c-.8 4.1-1.7 8.1-2.5 12.2 1.4-1.6 3-2.9 4.8-4 1-.6 2-1.1 2.6-2-1.3-.9-2.2-2.1-2.9-3.5-.5-1-.8-3.4-1.7-3.9-.2.3-.3.8-.3 1.2z" opacity=".1"/>
  <path d="M37.2 39.2c-.2 0-.4-.1-.5-.3-.2-.2-.4-.5-.6-.7v.2c0 .3-.3.6-.6.5-.7-.1-1.4-.3-2-.6-.1-.1-.5-.3-.7-.7-.1-.3 0-.6.2-.9.3-.4 1-.5 1.4-.5 1.3.2 2.5.9 3.2 2 .2.3.1.6-.2.8.1.1 0 .2-.2.2zm-2.8-1.8c.3.1.7.2 1 .3-.3-.1-.7-.2-1-.3zM76.4 34.9h-.5c-.3 0-.6-.3-.5-.6v-.2c-.3.1-.5.3-.7.5-.2.2-.6.2-.8 0-.2-.2-.2-.6 0-.8.9-.9 2.3-1.4 3.6-1.3.4 0 1 .3 1.3.7.2.3.2.6 0 .9-.2.4-.6.5-.8.6-.6.1-1.1.2-1.6.2zm-.1-1.2c.4 0 .7 0 1-.1-.4 0-.7.1-1 .1zM45.5 29.5h-.2c-.3-.1-.5-.4-.4-.7.1-.3.1-.6.2-.9l-.1.1c-.3.2-.6.1-.8-.2-.4-.6-.6-1.2-.8-1.9 0-.2-.1-.6.2-1 .2-.3.5-.4.8-.4.5 0 1 .4 1.2.8.7 1.1.8 2.5.5 3.8-.1.2-.3.4-.6.4zm-.9-3.6c.1.3.2.7.4 1-.1-.3-.2-.7-.4-1zM101.3 128.6c-.1 0-.2 0-.3-.1-.5-.2-.8-.7-.6-1.2 1.3-3.9-.9-8.7-4.8-10.1-.5-.2-.7-.7-.6-1.2.2-.5.7-.7 1.2-.6 4.9 1.8 7.6 7.7 5.9 12.5 0 .5-.4.7-.8.7zM107 123.2c-.5 0-.9-.4-.9-.8-.3-2.2-1.5-4.3-3.3-5.6-.4-.3-.5-.9-.2-1.3s.9-.5 1.3-.2c2.2 1.6 3.8 4.2 4.1 6.9.1.5-.3 1-.8 1.1-.1-.1-.1-.1-.2-.1zM35.6 175.1c-.6 0-1.2-.1-1.8-.2-.5-.1-.8-.6-.7-1.1.1-.5.6-.8 1.1-.7 2.3.5 4.8-.3 6.4-2.1.3-.4 1-.4 1.3-.1.4.3.4 1 .1 1.3-1.5 1.8-4 2.9-6.4 2.9zM37.8 177.5h-.5c-.5-.1-.9-.5-.8-1 .1-.5.5-.9 1-.8.7.1 1.5-.1 2.1-.5.4-.3 1-.2 1.3.3.3.4.2 1-.3 1.3-.9.4-1.8.7-2.8.7z"/>
  <circle cx="51.2" cy="54.1" r="3.8" opacity=".2" fill="#631c72"/>
  <path d="M20.5 37.3c-.1-.1-.2-.1-.4-.2-.1 0-.3 0-.4.1 0 .1-.1.1-.1.2-.1.1-.1.1-.2.1-.2.1-.2.4-.1.5l.1.1c.1.1 0 .3 0 .5.1.2.3.2.5 0s.3-.3.5-.3h.3c.2-.1.2-.4.2-.6 0-.1 0-.3-.1-.4 0 .1-.1 0-.3 0" opacity=".8" fill="#911d1e"/>
  <circle cx="17.8" cy="33.9" r=".1" fill="#231815"/>
  <circle cx="17.8" cy="34.4" r=".1" fill="#231815"/>
  <circle cx="18.2" cy="34.6" r=".1" fill="#231815"/>
  <circle cx="17.7" cy="35" r=".1" fill="#231815"/>
  <circle cx="18.2" cy="35.2" r=".1" fill="#231815"/>
  <circle cx="17.7" cy="35.5" r=".1" fill="#231815"/>
  <circle cx="18.7" cy="35.4" r=".1" fill="#231815"/>
  <circle cx="18.1" cy="35.7" r=".1" fill="#231815"/>
  <circle cx="19.2" cy="35.6" r=".1" fill="#231815"/>
  <circle cx="18.6" cy="35.9" r=".1" fill="#231815"/>
  <circle cx="18.1" cy="36.2" r=".1" fill="#231815"/>
  <circle cx="22.2" cy="39.7" r=".1" fill="#231815"/>
  <circle cx="21.6" cy="40.1" r=".1" fill="#231815"/>
  <circle cx="21.1" cy="40.4" r=".1" fill="#231815"/>
  <circle cx="22.1" cy="40.3" r=".1" fill="#231815"/>
  <circle cx="21.6" cy="40.6" r=".1" fill="#231815"/>
  <circle cx="22.1" cy="40.8" r=".1" fill="#231815"/>
  <circle cx="21.5" cy="41.1" r=".1" fill="#231815"/>
  <circle cx="22.6" cy="41" r=".1" fill="#231815"/>
  <circle cx="22" cy="41.4" r=".1" fill="#231815"/>
  <circle cx="22.5" cy="41.6" r=".1" fill="#231815"/>
  <circle cx="22.5" cy="42.1" r=".1" fill="#231815"/>
  <circle cx="23" cy="42.3" r=".1" fill="#231815"/>
  <path d="M33.1 63.7c-.4-.1-.7-.2-1.1-.3l1.5-1.8c.2-.2.2-.6-.1-.8-.2-.2-.6-.2-.8.1-.3.3-.6.7-.8 1h-.1c-.5-.1-1-.2-1.4-.2l-.1-.1c-.2-.2-.5-.2-.7 0-.1 0-.3-.1-.4-.1l.6-.6c.2-.2.2-.6 0-.8-.2-.2-.6-.2-.8 0-.4.3-.7.7-1.1 1.1-.6-.1-1.1-.3-1.7-.5-.3-.1-.6.1-.7.4-.1.3.1.6.4.7l1.2.3c-.2.3-.5.6-.7 1-.2.3-.1.6.2.8.1.1.2.1.3.1.2 0 .4-.1.5-.3.1-.1.1-.2.2-.2l.3.3-1.2 1.6c-.2.3-.2.6.1.8.1.1.2.1.4.1s.3-.1.5-.2l1.6-2c.3.1.7.1 1 .2 0 0 0 .1-.1.1-.2.3-.1.6.1.8.1.1.2.1.3.1.2 0 .4-.1.5-.2.1-.2.2-.3.4-.5.5.1 1.1.3 1.6.4h.2c.3 0 .5-.2.6-.4-.2-.5-.4-.8-.7-.9zM28 62.5s-.1 0 0 0c0-.1.1-.2.1-.3.2 0 .3.1.5.1l-.2.2c-.1.1-.3.1-.4 0zm1.7.4l.2-.2c.3.1.7.1 1 .2-.1.1-.1.2-.2.3-.3-.2-.7-.3-1-.3z" fill="#006196"/>
  <path d="M85.9 81.3c4.1-5.4 7.4-10 10.7-15.8.2-.4.1-.9-.2-1.2-.2-.1-.3-.3-.4-.4-.5-1.5-1.9-5.3-3-7.3.3-9.5-2.2-19.4-6.9-26.8v-.1c-.3-.4-.5-.8-.6-1.3-.1-.5 0-1.1.2-1.8 1-4.3 1.4-7.5 1.4-11.8 0-.4 0-3.8-2.2-4h-.4c-.1-.4-.3-.8-.6-1.1-.4-.4-.8-.5-1.3-.5-.3 0-.6.1-.8.3 0-.1 0-.1-.1-.2-.2-.6-.7-1.1-1.2-1.3-.5 0-1 0-1.3.2-1 .5-1 1.7-.9 2.2.1 1.9-.1 3.8-.4 5.7-11.7-3.9-24.5-5.3-37.1-4-5.7.6-11.4 1.7-16.9 3.3.1-.4.2-.7.3-1.1.3-1 .6-2.2.3-3.4-.2-.6-.5-1-.9-1.2-.4-.2-.8-.2-1.3-.1-.9.3-1.4 1.2-1.5 1.5-.3.8-.7 1.5-.9 2.3-1.5-2.1-2.5-4.4-3.3-6.6-.4-.8-1.3-1.7-2.3-1.8-.5 0-.9.1-1.3.5s-.7 1.1-.7 1.8c-.3 0-.6 0-.9.2-.5.2-.8.6-1 1.1-.1.3-.2.7-.1 1-.1 0-.3.1-.4.2-1 .5-1.9 1.8-.4 4.7 0 .1 0 .1.1.1.9 2 1.7 3.7 2.6 5.3-2.6 1.2-5.2 2.5-7.7 4-.5.1-.6.7-.4 1.2.2.3.5.5.8.5.2 0 .3 0 .5-.1 2.5-1.5 5.1-2.8 7.7-4 .7 1.1 1.4 2.2 2.3 3.4.4.5.7 1 .8 1.5.1.4 0 .9-.1 1.3v.1c-1.3 7.6-.3 16.2 2.6 24.1-.4.8-.8 1.7-1.4 2.6-.1.1-.2.3-.3.4-.5.7-1 1.4-1.2 2.6-.2 1.3.6 2.7 1.2 3.8.1.1.2.3.2.4 4.4 7.9 6.9 11.4 10.8 16.6 1.4 1.9 3.1 4.1 5 6.8.2.3.5.6.7.9 1.6 2 4.4 5.3 5 14v.5c-.1.1-.3.2-.4.4-.1.2-.2.5-.1.8.1.2.2.4.3.5-.1.1-.1.2-.1.4 0 .3.2.7.4.9v.9c0 4.5-.5 9.8-1.5 15.7-.8 4.6-6.5 17.3-9 21.3-.1.2-.2.5-.1.7.1.3.2.5.5.6 2.8 1.6 6.2 2 9.5 2.5.9.1 1.7.2 2.6.4-.7 2-1.5 4.9-1.4 7.6l-.3.3c-2 2.2-4.8 5.3-7.4 10.9-1.6 3.5-.7 5 .3 5.7.6.4 1.3.5 2.1.5 2.6 0 6.1-1.9 7.9-3.7l.7-.7c2.4-2.5 3.9-4 5.2-5.9.7-.1 1.3-.4 2-.8 2.9-1.7 4.8-5.5 5.9-8.6.4.1.8.2 1.3.3 1.7.4 3.5.5 5.3.5.6 0 1.2 0 1.8-.1.6 6.4.7 12.1.4 14.5-.1.7-.2 1.3-.5 2-3.2 9.7-1.3 22.7-.1 30.5.3 1.7.5 3.1.6 4.3.2 1.5.1 2.9-.1 4.4-.2 1.2-.7 2.9-2.4 4.7-.9 1-1.5 2.3-1.5 3.5-.1 1.9.6 3 1.2 3.6.3.3.8.6 1.3 1 .5.3 1.1.7 1.3 1 5.4 8.3 10.5 10 13 10 .7 0 1.3-.1 1.6-.3.1-.1.2-.1.3-.2 2.7-2.6-.7-9.2-4.4-15.8-.5-.9-.9-1.6-1.2-2.2-.2-.4-.3-.9-.3-1.4.4-5.1 2.8-25.8 4.2-38.2.5-4.6.9-7.9 1-8.6.1-1 .2-1.6.3-2.1.2-.7.3-1.5.4-3.5.1-2.3-.3-8.7-.6-12.6.1-.1.3-.2.4-.3 1.2-.9 2.3-1.8 3.6-2.2.6-.2 1.3-.4 2.1-.5.6-.1 1.1-.2 1.7-.4 2.3-.6 4.4-2 5.8-3.9.2-.2.2-.5.2-.8-1.3-5.1-3.4-8.9-5.7-12.9-1.5-2.6-3-5.3-4.4-8.5-.5-1.2-1.1-2.5-1.7-3.6-1.3-2.7-2.5-5.2-2.8-8v-.1-.2c0-.1 0-.3.1-.4.1-.2.3-.5.2-1v-.2c.2-.3.2-.7 0-1.1.1-.1.1-.3.2-.5.1-.5-.2-.8-.3-1-.1-.1-.1-.3-.2-.5.3-2.4 2-7.8 3-10.2 1.9-3.8 3.5-6.6 5-8.6zm7-22.2c.4.9.7 1.8 1.1 2.7l-1.2-1.5c0-.5 0-.8.1-1.2zm-1.6-.8c-.4-.5-.8-1-1.4-1.6-2-2.2-2.4-2.9-3.2-4.3-.4-.7-.9-1.6-1.8-2.9.2-1.2.3-2.5.2-3.8l1.1-1.4c.2 0 .3.1.5.1-.1.2 0 .5.2.7.1.1.2.1.3.1.2 0 .4-.1.5-.2.1-.1.1-.2.2-.3.4.1.7.2 1.1.3h.2c.3 0 .5-.2.6-.4.1-.3-.1-.6-.4-.7-.2-.1-.4-.1-.6-.2.3-.4.6-.7.9-1.1 1.4 5 1.9 10.4 1.6 15.7zm-7.1-40.5l.3-4.9c.1-.2.1-.4.2-.4.4.1.7 1.4.7 2.4 0 1.5-.1 2.9-.2 4.3-.3-.3-.7-.6-1.1-.9.1-.2.1-.3.1-.5zM82 11.7c0-.3.4-.7.6-.7.1.1.4.6.4 1.1v.7c0 .2-.1.3-.1.4l-.2 4.3c-.3-.2-.7-.3-1-.4l.3-5.4zM77.4 18c0 .1 0 .2-.1.3-.1-.2-.3-.3-.4-.5.2.1.3.1.5.2zm-3.1-.6c1.3 1.2 2.4 2.5 3.5 3.9.1.1.2.2.4.3.1 0 1.6.5 1.9 3 .1.4.5.8.9.7.4-.1.8-.5.7-.9-.4-2.9-2.1-3.9-2.8-4.2-.1-.1-.2-.3-.3-.4.2-.7.4-1.3.5-2 0-.1.1-.1.1-.2s.1-.3 0-.4c.5-2.3.7-4.5.6-6.9v-.6l.3.3c.2.5.2 1.2.1 1.8l-.2 4.7c-.2 0-.5.2-.5.4-.1.3.1.6.4.7 1.9.5 3.6 1.4 4.4 2.2.1.1.3.2.4.2.1 0 .3 0 .4-.1-.2 2-.6 4-1.1 6.4-.2.7-.4 1.6-.2 2.5.1.7.5 1.3.8 1.8v.1c2 3.2 3.6 6.9 4.7 10.8-.2 0-.4 0-.6.2-.2.2-.4.4-.6.7-.3-.1-.7-.1-1-.2 0 0 0-.1-.1-.1-.2-.1-.4-.2-.6-.1l.2-.2c.2-.2.2-.6 0-.8-.2-.2-.6-.2-.8 0-.3.2-.5.5-.7.8-.2 0-.3-.1-.5-.1-.5-3.2-1.7-6.6-3.4-10.2-.2-1.2-.9-2.5-1.8-3.5-.3-.3-.6-.5-.8-.8-.5-.5-1.1-1-1.3-1.5-.3-.6-.4-1.3-.4-2-.1-.8-.1-1.5-.5-2.3-.3-.8-.8-1.4-1.3-2.1-.6-.7-1.1-1.4-1.2-2.1l.4.2zM22.9 27.6c.1-1.1.1-2.3.6-3.4.1-.3.3-.6.4-.9.2-.5.5-1 .6-1.5 7.2-2 14.9-2.7 22.3-2.2.5 0 1-.4 1-.9s-.4-1-.9-1c-7.4-.5-15 .2-22.3 2.1-.1-.6-.3-1.2-.4-1.7-.1-.2-.1-.4-.2-.6 15.6-4.7 32.5-5.1 48.3-.9-.1.3-.1.6-.1.9.2 1.2.9 2.1 1.5 2.9.4.6.9 1.1 1.1 1.6.2.5.3 1.2.3 1.8.1.9.2 1.8.6 2.6.4.8 1.1 1.4 1.7 2 .3.2.5.5.7.7.8.9 1.4 2 1.9 3 2.8 5.9 4 11.3 3.5 16.1-.4.1-.7.5-.7.9-.3 4.5-1.4 6.2-3 8.8-.6.9-1.2 1.9-1.9 3.2-.1.2-.2.3-.3.5.1-1.6.2-3.3.3-4.9.5-.1.9-.3 1.4-.6.6-.4.8-.9.7-1.4-.2-.5-.8-.7-1.2-.5-.3.1-.5.2-.7.4v-.2c0-.5.1-1.1.1-1.6l.9-.9c.3-.3.6-.6.7-1.1.1-.5-.1-1.2-.6-1.4-.3-.1-.6 0-.8.1 0-1.3-.1-2.5-.3-3.8-.7-3.8-2.5-7.3-5.2-9.9.1-.9-.2-1.8-.6-2.5-.8-1.3-2.4-2.1-4-2-.6 0-1.2.2-1.8.5-1.7-.6-3.7-1-6-1.1-5.5-.4-10.3 1.1-13.5 4.2-3.6 3.5-6.3 8.3-7.6 13.2-.8 3.2-1 6.4-.4 9.4.2 1.2.5 2.4.9 3.6-.5-.5-1-1.1-1.5-1.7-4.9-5.9-8.3-11.5-11-18.2-.1-.3-.4-.5-.7-.6-.3 0-.7.1-.9.4-.2.3-.4.5-.6.8-1.9-4-2.6-8.8-2.3-14.2zM53 75.2c0-.2-.1-.5-.2-.7-.4-2.1-2.1-4.4-3.9-6.3.6 0 1.2-.1 1.6-.1.9.7 1.9 1.3 3.1 1.7.2 0 .3.1.5.1h.1c.3 0 .5-.2.6-.4.1-.3-.1-.6-.4-.7-.2 0-.3-.1-.5-.1-1.1-.3-2.2-1-3.2-1.8l-.1-.1-.1-.1-.2-.2-.1-.1-.2-.2-.1-.1c-.1-.1-.1-.2-.2-.2l-.1-.1c-.1-.1-.2-.2-.3-.4l-.6-.9c-.8-1.2-1.3-2.6-1.8-3.9 0-.1-.1-.2-.1-.3-.1-.3-.2-.5-.2-.8 0-.3-.3-.6-.6-.6h-.2c0-.3-.2-.5-.5-.6-.4-.1-.7-.3-1-.5-.1-.1-.1-.1-.1-.2v-.3c0-.2.1-.4.2-.5.1-.1.2-.1.2-.1.3 0 .6-.2.7-.5v-.1c.3-.1.5-.4.5-.7l.2-.5c0-.2-.1-.5-.1-.7v-.4c-.1-1-.2-1.5-.1-2.4 0-.4.1-.8.2-1.2l.1-.4c.5-1.4 2.2-2.5 3.5-3.3l.2-.1c1.3-.8 2.7-1.9 3.3-3.4 1 .6 2.1.9 3.2 1.2.6.2 1.2.3 1.8.5 2.1.7 3.8 2.3 4.7 4.3v.1c-.1 0-.3 0-.4-.1-.5-.1-1.1-.3-1.5-.9-.1-.2-.4-.2-.5-.1-.2.1-.2.4-.1.5.6.7 1.4 1 1.9 1.1.3.1.6.1.9.1l.6 2.1c-.2.2-.3.4-.3.4.1-.2-.1-.6-.1-.6 0 .2-.1.4-.2.6h-.4c-1 0-2 .4-2.6 1.2-.1.2-.1.4.1.5.1 0 .1.1.2.1s.2-.1.3-.1c.5-.6 1.2-1 2-.9h.8c.2 0 .4 0 .5-.1 0 .2.1.5.1.7.3 1.6.5 3.2.7 4.8-.2 0-.4.2-.4.4-.1.4.3.9.5 1.1l.1.1c.2 1.4.4 2.9.5 4.3-.4 1.1-1 2.3-1.9 3.2-.8.7-1.9 1.3-3.2 1.5-.3.1-.5.4-.5.7.1.3.3.5.6.5h.1c1.3-.2 2.4-.7 3.3-1.4.7.2 1.4.4 2.1.7 0 .4.1.8.1 1.2-1.5.2-2.9.6-4.6 1.7-1.1.7-2.1 1.8-3 3.1-2-.3-3.7-.4-5.5-.3zm4.6 1.3c-1.1 1.9-2 4-2.7 5.9-.6-1.9-1.1-3.8-1.6-6.1 1.4 0 2.9 0 4.3.2zM45.3 59.2H45.6v.3h-.2v-.1s0-.1-.1-.2zm-1.9-1.4c.1.3.3.4.4.6.3.3.7.6 1.2.7-.1 0-.3.2-.3.3-.1 0-.3-.1-.4-.2-.6-.3-1-.9-1.1-1.5-.1-.6.1-1.2.5-1.8.3-.4.7-.7 1.2-.8v.2c-.4 0-.8.2-1.1.5-.2.3-.4.6-.5 1-.1.5 0 .8.1 1zM23.2 42.4c-.5-.1-1-.4-1.5-1-.3-.4-.6-.8-.8-1.2l1.2-.5c.1.1.1.2.2.3.2.8.5 1.6.9 2.4zM18.1 26c-.1-.5-.3-.9-.5-1.3h.1c.3 0 .5-.1.7-.3.9-1 2.3-1.5 3.7-2-.2.3-.3.7-.5 1.1-.5 1.4-.6 2.8-.7 4-.2 3.1 0 5.9.4 8.6-.2-.2-.5-.4-.8-.4l-.9-1.4c-.3-.5-.9-1.4-1.8-1.5h-.3c.1-1.6.2-3.2.5-4.7V28c.1-.6.2-1.3.1-2zM20 36.8c.5-.2.8.3 1.4 1.3.1.1.2.3.2.4l-1.6.8c-.1 0-.1 0-.2.1l-.1-.1c-.5-.5-.9-1.1-1.3-1.8.6-.2 1.1-.5 1.6-.7zm2.5-24.9c0-.1.1-.1.1-.2.1.6-.1 1.3-.3 2.1-.2.7-.4 1.5-.4 2.3-.3.1-.6.2-1 .3.4-1.6 1-3.1 1.6-4.5zm-2.8 6.8c.8-.3 1.6-.6 2.4-.8.1.2.1.4.2.6.2.6.3 1.1.4 1.7-.4.1-.8.2-1.2.4-.5.2-1.1.3-1.6.6 0-.2.1-.3 0-.5-.2-.9-.2-1.5-.2-2zm-7.4-9.6c.1 0 .2.2.4.5l1.2 2.4 1.2 2.4v.1l-.2.2c-.4-.7-.8-1.5-1.2-2.2-.5-.9-1-1.7-1.4-2.6-.1-.2-.1-.6 0-.8zm.7 8.3c-.6-1.1-1.2-2.4-1.8-3.7 0 0 0-.1-.1-.2-.6-1.3-.6-1.8-.5-2 .1.1.2.2.3.4.4.7.8 1.5 1.3 2.2.4.6.8 1.3 1.1 1.9 0 0 0 .1.1.1 0 .1.1.2.2.3-.2.3-.4.6-.6 1zm.5.9c.2 0 .4-.1.5-.4.5-1.1 1.7-2.5 3.2-3.8.3-.2.3-.6.1-.8-.2-.2-.5-.3-.7-.1-.3-.6-.6-1.3-.9-1.9-.3-.8-.7-1.6-1.1-2.3-.2-.5-.3-1.1-.4-1.8V7c.2.1.4.3.4.5 1 2.6 2.2 5.5 4.4 8.1 0 .1-.1.2-.1.4-.2.2-.6.7-.8 1.3-1.4.5-2.9 1.1-4.3 1.7 0-.2-.1-.4-.3-.7zm3.4 4.8c-.1.1-.1.2-.2.3-.7-1-1.3-1.9-1.8-2.8 1-.4 1.9-.8 2.9-1.2 0 .5.1 1 .3 1.6.1.3.3.5.6.6-.7.5-1.3.9-1.8 1.5zm.6 10.8h.2c.4 0 .7.5 1 .9l.7 1c-.3.1-.7.3-1 .5-.2-.2-.3-.4-.5-.6-.1-.1-.2-.2-.2-.3-.2-.4-.2-.9-.2-1.5zm.2 4.5c.4.6.8 1.2 1.3 1.7.1.1.3.3.6.4h.2c.3.6.6 1.1 1 1.6.6.8 1.4 1.2 2.2 1.4H23.6c-.3.5-.7 1.1-1 1.6-.6 1-1.1 1.9-1.9 2.9-.3.5-.6.9-.9 1.3-1.1-3.4-1.8-7.2-2.1-10.9zm31.2 119.3c-1.2.7-2.5.8-3.9.4-1.5-.5-2.6-1.4-3.1-2.7-1.2-2.9 0-7 .9-9.5 1.3.3 2.6.7 3.8 1.2 2.4 1.2 4.9 2.3 7.5 3.2-1.2 2.7-2.8 6-5.2 7.4zm28.6 1c-.1 1.8-.2 2.4-.4 3.1-.1.5-.3 1.1-.4 2.3-.1.7-.4 4-1 8.6-.2 1.9-.5 4-.7 6.2-.1-.2-.2-.3-.4-.3-.2-.1-.4-.1-.6-.2.3-.4.6-.8 1-1.1.2-.2.2-.6-.1-.8-.2-.2-.6-.2-.8.1-.2.2-.4.4-.6.7-.3-.1-.7-.1-1-.2 0 0 0-.1-.1-.1-.2-.1-.4-.2-.6-.1l.2-.2c.2-.2.2-.6 0-.8-.2-.2-.6-.2-.8 0-.3.2-.5.5-.7.8-.4-.1-.8-.2-1.1-.3-.3-.1-.6.1-.7.4-.1.3.1.6.4.7.2.1.5.1.7.2-.1.2-.3.4-.4.6-.2.3-.1.6.2.8.1.1.2.1.3.1.1 0 .2 0 .3-.1l-.7.9c-.2.3-.2.6.1.8.1.1.2.1.4.1s.3-.1.5-.2l1.1-1.4c.2 0 .3.1.5.1-.1.2 0 .5.2.7.1.1.2.1.3.1.2 0 .4-.1.5-.2.1-.1.1-.2.2-.3.4.1.7.2 1.1.3h.2c.2 0 .3-.1.5-.2-1.4 12.1-3.1 27.3-3.4 31.5 0 .5 0 .9.1 1.4-2.4-.3-4.5-.7-6.2-1.9.5-1.1.8-2.1.9-2.9.3-1.6.3-3.2.1-4.9-.1-1.2-.3-2.6-.6-4.3-1.1-7.6-3.1-20.4 0-29.6.3-.8.5-1.6.6-2.4.3-2.5.2-8.4-.4-14.9 3.9-.5 7.6-1.9 10.9-4 .2 3.5.5 8.9.4 10.9zm-1.4-58.6c0 .1 0 .3.1.4.1.3.1.6.3.8-.1.1-.2.3-.2.5s0 .3.1.5c-.1.1-.2.3-.2.4-.1.3 0 .6.2.9-.1.3-.2.5-.2.8V105c.3 3.2 1.7 6 3 8.7.6 1.1 1.1 2.3 1.6 3.5 1.4 3.3 2.9 6 4.5 8.7 2.2 3.8 4.2 7.3 5.4 12-1.2 1.4-2.8 2.4-4.5 2.9-.5.1-1 .2-1.6.3-.8.1-1.6.3-2.4.6-1.6.6-2.9 1.6-4.1 2.5-.3.3-.7.5-1 .8-5.6 4-12.9 5.5-19.6 4.1-3.6-.7-7-2.3-10.2-3.9-2.6-1.3-5.8-1.7-8.8-2.1-2.9-.4-5.6-.8-7.9-1.8 2.8-4.9 8-16.5 8.8-21.1 1-6 1.5-11.4 1.6-16.1v-.8-.7c0-.2-.1-.3-.1-.4v-.2c0-.2 0-.5-.1-.7.2-.3.2-.6.2-.9v-.7-.1c-.7-9.3-3.7-12.9-5.4-15.1-.3-.3-.5-.6-.7-.8-2-2.7-3.6-4.9-5.1-6.9-3.9-5.1-6.4-8.5-10.7-16.4-.1-.1-.1-.3-.2-.4-.5-.8-1.1-1.9-1-2.6.1-.7.3-1.1.8-1.7.1-.1.2-.3.3-.4.8-1.2 1.3-2.2 1.7-3.1.5-1 .9-2 1.8-3.1.8-1 1.4-2 2-3.1.5-.9 1.1-1.8 1.8-2.8 2.7 6.2 6 11.6 10.6 17.2 1.6 1.9 3.3 3.8 5.6 4.8 2.5 1.2 7.9 6 8.7 9.5 1 4.5 1.7 7.1 2.9 10.9.1.4.5.7.9.7s.8-.3.9-.6l.1-.3c1.1-3.1 3.3-9.6 6.4-11.5 1.4-.9 2.5-1.2 3.8-1.4.1 1 .2 2 .2 3.1.1 1 .1 2 .5 3 .7 1.6 2.2 2.9 4 3.3.5.1 1 .2 1.4.2 1.2 0 2.5-.3 3.7-1 1.1-.6 1.8-1.4 2-2.2.2-.7 0-1.5-.5-2-.3-.4-.8-.6-1.3-.6-.1 0-.2 0-.3.1v-.1c.7-2.1.9-4.3 1-6.2.1-1.4.2-2.7.3-4.1.6-.9 1.1-1.9 1.7-3 .2-.3.4-.7.6-1.1.7-1.2 1.3-2.2 1.8-3.1 1.4-2.2 2.4-3.9 3-7 .3.5.5.9.7 1.3.8 1.5 1.3 2.4 3.5 4.7 1 1.1 1.6 1.9 2.3 2.8.9 1.3 1.9 2.6 3.8 4.4-3.1 5.4-6.2 9.8-10.2 14.9-1.6 2.1-3.3 5-5.1 8.9-1.1 2.6-3 8.6-3.2 11.3z"/>
  <path d="M45.7 63.3c-.1.1-.3.2-.5.2h-.1c.1-.2.2-.4.2-.6 0-.2 0-.4-.1-.6h.1c.2 0 .3.1.4.2l.4-.3c-.2-.2-.5-.4-.8-.4-.2 0-.4 0-.5.1-.1-.1-.3-.2-.5-.2-.3 0-.6.1-.8.3l.3.4c.1-.1.3-.2.5-.2h.1c-.1.2-.2.4-.2.6 0 .2 0 .4.1.6h-.1c-.2 0-.4-.1-.5-.3l-.4.2c.2.3.5.5.8.5.2 0 .4 0 .5-.1.1.1.3.2.5.2.3 0 .7-.1.9-.3l-.3-.3zm-1-.1c-.1-.1-.1-.2-.1-.4 0-.1.1-.3.2-.4.1.1.1.2.1.4-.1.2-.1.3-.2.4z" fill="#006196"/>
  <path d="M77.6 52.2l.9-.9c.2-.2.4-.5.5-.8.1-.2 0-.4-.2-.5-.2-.1-.5.2-.7.5-.4.7-.6 1.4-.7 2.2l.1-.1c-.1-.1-.1-.2.1-.4zM79 54.9h-.1c-.2.1-.4.3-.6.4l-.7.7c.4-.1.9-.3 1.3-.5.3-.2.4-.4.4-.5-.1-.1-.2-.1-.3-.1zM65.5 59.3c-.1 0-.2.1-.4.1.2.1.4.2.6.2h.2v-.1c0-.1 0-.1-.1-.2l-.1-.1s-.1.1-.2.1z" fill="#c8c8c8"/>
  <path d="M71 37.1c.6-.9.6-2.2 0-3.2-.6-.9-1.8-1.5-2.9-1.5-1.1.1-2.2.7-2.8 1.7l5.7 3z" fill="#ef8985"/>
  <circle cx="67.6" cy="33.2" r=".3"/>
  <circle cx="69.4" cy="36" r=".3"/>
  <circle cx="69.5" cy="33.7" r=".3"/>
  <circle cx="67.8" cy="34.9" r=".3"/>
  <circle cx="71" cy="35" r=".3"/>
  <path d="M78.9 108.4c-.6-1.3-1-2.7-1.2-4-4.1.2-8.2.3-12 0-.3 0-1.1 0-1.4-.2-.3-.2-.6-.9-.8-1.1-.6-.7-1.2-.9-2-1-.2.1-.4.1-.6.1-1.4 0-2.8-.2-4.1 0-.6.1-1.3.2-1.9.6-.6.4-1 1-1.6 1.4-.3.2-.6.2-.9.2-.4.1-1 .1-1.2.1-3.8 0-7.9-.3-12-.7.2 1.9.2 3.8 0 5.7 3.7.3 7.5.5 11.3.5.2 0 .5 0 .7.1.2 0 .4.1.6.2.8.4 1.3 1.1 1.7 1.9.4.8.5 1 1.4 1.2l1.2.3c1.8.1 3.7.3 5.5-.2.8-.2 1.8-.6 2-1.4.3-1.2.8-2.3 2.2-2.2.3 0 .5.1.7.2 4.4.2 8.4.4 12.7.1-.1-.6-.1-1.3-.3-1.8z" fill="#006196"/>
  <path d="M39.4 105.2c3.8.4 7.6.7 11.2.7h.7c.7 0 2.2-.2 2.6-.5.7-.5.9-1.2 1-1.5v-.1c.3-.4.3-.4.7-.4 1.9-.1 3.5 0 4.7 0h.4c.9.1 1.1.2 1.5.6 0 .1.1.2.1.2.2.4.5.9 1 1.2.5.3 1 .3 1.9.4h.7c3.8.2 7.8.1 11.8-.1-.1-.5-.3-1-.3-1.5-3.9.2-7.7.3-11.4.1h-.6c-.3 0-1.1 0-1.4-.2-.3-.2-.6-.9-.8-1.1-.8-.8-1.4-1-2.5-1.1h-.5c-1.5-.1-3.3-.1-4.8 0-.9 0-1.3.2-1.9 1-.3.4-.2.9-.6 1.2-.2.2-.7.2-.7.2-.4.1-.9.1-1.2.1h-.6c-3.7 0-7.5-.3-11.3-.7.2.5.3 1 .3 1.5zM78.9 108.4c-4.1.2-8.4.2-12.8 0-.5 0-2-.1-2.8 1.1-.5.8-.7 1.8-.8 2.6 0 0-.1.2-.3.3-.3.1-.8.3-1.5.3-1.1.1-1.9.1-2.7.1-.6 0-1.3-.1-2.2-.2-.4-.1-.6-.1-.6-.2s-.1-.1-.1-.2c-.1-.1-.2-.3-.2-.4v-.2c-.1-.4-.2-.9-.4-1.4-.5-1.2-1.9-1.5-1.9-1.5s-1.5-.3-1.8-.3c-3.8 0-7.6-.2-11.2-.5 0 .5 0 1-.1 1.6 3.7.3 7.5.5 11.3.5.4 0 2.2.2 2.7 2.3.1.4.3.8.5 1.1.3.6 1.1.6 1.7.7.9.1 1.6.2 2.3.3.9.1 1.8 0 2.9-.1.7-.1 1.5-.2 2.1-.5.6-.3 1.1-.9 1.2-1.5 0-.6.2-1.3.5-1.8.3-.4.9-.4 1.5-.4 4.6.3 8.8.4 13.3.2-.4-.7-.4-1.4-.6-1.9z" fill="#2d2d2d"/>
  <path d="M79.9 109.9c-.2-.5-.2-1.1-.4-1.6-.2-.7-.6-1.3-.8-2-.2-.6-.2-1.4-.4-2-.3-.8-1.3-.5-2-.4.9-.4-.1-1.2-.7-1.1-.8.1-1.5.8-2.1 1.2H69c-1.3 0-3 .2-4.3-.3-.6-.7-.8-1.4-1.7-1.8-.4-.2-.7-.3-1.1-.4-.9-.2-1.8-.2-2.6-.2-1.3 0-3-.2-4.3.1-.5.2-.9.5-1.3.9-.3.3-.4 1.1-.7 1.3-.2.1-.8.1-1 .1-2.2.1-4.3-.1-6.5-.2 1.1-1.1-1.9-1.2-2.3-1.3-.4-.1-1.1-.4-1.5 0-.4.5.2.9.6 1-.5 0-1-.1-1.5-.1-.4 0-1.1-.3-1.5-.1-.7.3-.3 1.5-.3 2.1v2.9c-.1 1.2-.2 1.7 1.1 1.8 2.1.2 4.1.3 6.2.4 1.1 0 2.2.1 3.3.1.6 0 1.1-.1 1.7.1 1.6.4 1.4 2.1 2.2 3.1.8 1.1 3 1.1 4.3 1.1 1.7.1 4 .2 5.6-.6.8-.4 1.3-1.1 1.5-2 .1-.8 0-1.6.9-1.7 1.1-.2 2.3.1 3.4.2 1.3.1 2.5.1 3.8.1h4c.4.2 3.4.4 2.9-.7zm-16.4-5.8c.6 1 1.8.9 2.8.9 1.2.1 2.3.1 3.5.1 2.5 0 4.9 0 7.4-.2 0 .1 0 .2.1.3-2.7.1-5.5.2-8.2.2-1.1 0-2.3-.1-3.4-.1-.9-.1-1.8-.1-2.4-.9l.2-.3zm-3.1 0zm-.5-1.4c0 .1-.1.1-.1.2h-2.6c0-.1-.1-.1-.1-.2.9-.1 1.8 0 2.8 0zm-.8 1.4l-.6.9-.6-.9c.4-.1.8-.1 1.2 0zm-2.6 0c.3.5 1.4 3 2.2 2.6l-.3.5-2.1-3.1h.2zm-16.6.2c2.5.3 5.1.5 7.6.6 1.3.1 2.6.1 3.9.1.8 0 1.8.1 2.4-.4l.1.2c-.6.6-1.8.6-2.5.6h-2.9c-2.8-.1-5.7-.3-8.5-.6-.1-.2-.1-.3-.1-.5zm14.1 7.3c-.5-1-1.3-1.9-2.5-2.2-1.1-.3-2.4-.1-3.6-.1-2.7-.1-5.4-.2-8.1-.4v-.4c3.3.3 6.6.4 9.9.5 2 0 3.8.3 4.3 2.5v.1zm1-1.4c-.7-1.9-2.9-2.4-4.7-2.4-3.4 0-6.8-.2-10.2-.5v-1.4c2.9.3 5.8.5 8.8.6 1.7 0 4.4.4 5.8-.7l1.6 2.5-1.3 1.9zm.4 1.6c0-.1 0-.1 0 0 .3-.7.7-1.2 1.1-1.8.3-.4 1.1-1.2 1-1.8-.1-.6-.8-1.3-1.1-1.7-.4-.6-.7-1.1-1.1-1.7v-.1l2.4 3.5-2.3 3.6zm2.7.4l.4-.6.4.7c-.3-.1-.5-.1-.8-.1zm2.1-.1c-.3-.5-1-2.3-1.7-2.3s-1.4 1.7-1.7 2.2h-.2l1.8-2.8 1.9 2.8c0 .1 0 .1-.1.1zm1.5-.2l-2.5-3.7c.8-1.3 1.8-2.5 2.5-3.9.1 0 .1.1.2.1-.4.6-.8 1.2-1.1 1.8-.3.5-1 1.2-1.2 1.9-.2.6.7 1.5 1 2 .3.5.8 1.2 1.1 1.8zm1.1-2.8c-.3.4-.5.9-.6 1.3l-1.5-2.2 1.8-2.8c.8.9 1.8 1 2.9 1.1 1.2.1 2.4.1 3.7.1 2.8 0 5.6 0 8.4-.2.1.5.3.9.5 1.4-3.1.1-6.2.2-9.2.1-2 0-4.7-.7-6 1.2zm4 .3c-1.6-.9-3.1.4-3.5 1.9.6-3 3.6-2.2 5.9-2.1 3.1.1 6.2.1 9.3-.1 0 .2.1.3.1.5-4 .1-7.8 0-11.8-.2z"/>
  <path d="M73.6 57.4c-.1-.1-.3-.2-.5-.2-.3.1-.5.3-.7.5l-.9.9c-.1.1-.3.1-.4.1v.1c.8-.1 1.5-.3 2.2-.7.1-.2.3-.5.3-.7zM60.1 58.7c0-.1-.1-.2-.2-.3-.1-.1-.3-.1-.4-.2-.3-.1-.6-.3-.8-.5l-.2-.2c-.1-.1-.1-.1-.1-.2v.2c.1.3.5.6.9.9.2.1.4.2.5.3.1.1.3 0 .3 0z" fill="#c8c8c8"/>
</svg>
