<svg xmlns="http://www.w3.org/2000/svg" width="164" height="304">
  <path d="M161.3 241.3c-.1-.4-.3-.9-.4-1.1 0-.3.3-1.1.5-1.6.6-1.6 1.4-3.7 1.2-6.3-.1-1.3-.5-2.4-1.2-3.4-1.1-1.5-2.6-2-3.1-2.2-1.6-.6-3.2-.8-5-.8-2.1 0-4.2.5-6.1 1.3-2.7-.8-5.2-1.6-7.6-2.4-11.2-3.5-19.6-6.2-31.1-6.8l.1-.2c5.1-1.7 9.9-4.3 13.9-7.7.5-.4 1-.9 1.5-1.3 1.5-1.3 2.8-2.4 4.1-3 .6-.3 1.5-.5 2.4-.7.8-.2 1.8-.5 2.8-.8 4.1-1.5 7.7-4.3 10.1-7.9.9-1.4 1.1-3.1.6-4.6-2.7-8.4-7-15.9-11.2-23.2-2.1-3.7-4.3-7.5-6.2-11.2-2.9-5.8-4.8-11.3-5.7-16.3.3-.8.4-1.6.3-2.4.1-.6.1-1.2 0-1.9v-.4c.1-1.1-.2-2.2-.8-3.3.2-2.8.7-5.4 1.6-7.9 2.1-5.4 4-9.4 5.9-12.3 5.6-8.5 9.9-15.6 14.3-24.7.8-1.6.7-3.5-.2-5-.6-1.3-3.3-7.6-5.5-11.3-.9-14.3-5.9-28.5-13.6-39l-.1-.1c-.1-.1-.2-.3-.3-.4 0-.2.1-.6.1-.8v-.1c1-6.7 1.3-11.6.9-18.2 0-.9-.2-2.9-1.5-4.7-.5-.7-1.2-1.3-1.9-1.7-.7-1.3-1.8-2.2-3-2.8-.3-.4-.6-.7-.9-1-1-.9-2.3-1.4-3.6-1.6-.7-.6-1.5-1-2.4-1.3-.6-.1-1.2-.2-1.9-.2-1.1 0-2.3.3-3.2.9-1.4.8-3.7 2.9-3.2 7.4.1 1.2.2 2.4.2 3.5-.6-.2-1.3-.3-2-.3-.3 0-.6 0-.9.1-1.8.2-3.3 1.2-4.3 2.6-.7 1.1-1.5 2.8-1 5.3.6 2.9 2.4 4.8 3.6 6.1.4.4.9 1 1.1 1.3.1.2.2 1 .3 1.5.2 1.5.6 3.3 1.7 5.2 1.1 1.8 2.5 3 3.7 3.9.3.3.7.5.9.8.8.8 1.6 2 2.2 3.2 3 5.4 5 10.5 5.8 15.2-2.9-9.4-10.3-17.2-19.2-20.2-3.5-1.2-7.4-1.8-12-1.8h-.2c-9.3 0-17.3 3.2-22.5 9.1C53.9 49.9 50 58 48.5 66c-.4 2-.6 3.9-.6 5.9-3.7-4.9-6.8-10-9.6-15.7-.8-1.7-2.5-2.9-4.5-3h-.4-.1C31.8 49 31.1 44 31 38.5c0-1.3 0-2.8.3-3.9.1-.3.2-.7.4-1.1.5-1.4 1.2-3.1 1.2-5.2 0-2.2-.7-3.9-1.2-5.3-.2-.5-.5-1.2-.5-1.5 0-.3.1-1.1.3-1.7.4-1.7.9-4.3-.1-7.1-.8-2.4-2.4-3.5-3.6-4-.8-.4-1.7-.6-2.6-.6-.8 0-1.7.2-2.5.5-1 .4-1.8 1-2.4 1.7-.6-1-1.1-2.1-1.6-3.2-1.8-4-4.7-4.6-6.3-4.7h-.2c-1.8 0-3.5.8-4.8 2.1-.7.8-1.2 1.6-1.5 2.4-1.1.8-1.9 1.9-2.3 3.2-.1.4-.2.8-.3 1.3-.8 1.1-1.2 2.5-1.2 3.9-.4.8-.7 1.6-.8 2.5-.2 2.3.7 4.1 1.1 4.8 3.1 5.9 5.8 10 10.1 15.2.2.2.4.4.5.6v.6c-1.1 11.3 1 23.8 5.9 35.4-.3.6-.6 1.2-.9 1.9-.1.2-.2.4-.4.6-.8 1.3-1.9 3-2 5.8-.2 3.3 1.6 6 2.8 7.8.1.2.2.3.3.5 7.3 11.4 11.5 16.2 17.9 23.6 2.3 2.7 4.9 5.7 8 9.4 4.5 5.4 7.6 13 9.2 22.7-1.7 1.1-2.2 2.9-2.4 4-.4 2.5-.2 4.1 0 6l.1.5c.1.7.3 2.3 1.3 3.7.5.6 1.3 1.5 2.4 2.1 0 5.2-.2 10.8-.8 16.7-.4 3.9-2.6 7.4-5.1 11.4-1.1 1.7-2.2 3.4-3.2 5.3-.7 1.3-.9 2.8-.4 4.3.5 1.4 1.5 2.6 2.8 3.2.5.2 1 .5 1.4.7-1.8 7.9-2.3 15.1-1.5 21.8 1.2 10.9 5.8 20.7 10.2 30.1 3.6 7.7 7.2 15.6 8.8 23.6-2 1.2-4 2.5-6 3.8-.6.4-1.3.9-2 1.3l-.2.1-.1.1c-.6.4-1.2.8-1.7 1.1l-.5.3-.3.2-.3.2-.9.6c-.7.5-1.4.9-2 1.4-.8.6-2.8 1.9-3.5 4.6-.8 3.1.7 6.5 3.7 8.4 1.7 1 3.7 1.6 6.1 1.6h.5c1 0 1.9-.1 2.6-.1l6.1-.5c1.2-.1 2.9-.2 4.6-.9 1.6-.6 2.8-1.5 3.8-2.2.3-.3.8-.6 1.1-.8.3 0 .7.2 1.1.2 1 .3 2.3.6 3.8.6 1.2 0 2.3-.2 3.3-.6 1.4-.6 2.6-1.5 3.3-2.7.7-1.2.8-2.3.9-2.7 0-.3.1-.7.1-1V292.8v-.6-.4-.5-.5-.5-.4-.5-.5-.4c0-.2 0-.3-.1-.5 0-.1 0-.2-.1-.4 0-.2-.1-.3-.1-.5 0-.1 0-.2-.1-.3 0-.2-.1-.3-.1-.5l-.1-.2c-.1-.2-.1-.4-.2-.6 0-.1 0-.1-.1-.2-.1-.2-.1-.4-.2-.6l-.1-.2c-.4-1.1-1-2-1.6-2.9l-.9-1.8c-.2-13.6-1.8-25.9-4.8-36.5-2.9-10.3-6-15-6.6-15.8-.2-.3-.4-.6-.6-.8 0-.4.1-1 .2-1.5v-.4c0-.3.3-2.1 2.5-8 .5.2 1.1.4 1.6.5.3 10.3 3.8 17.6 10.2 21.1 3.8 2.1 8.1 2.4 11.5 2.6 13.4.9 27 2.1 40.5 3.7 0 2.7.4 11 .4 12.5 0 1.2.1 4.2 2.4 6.4 1.3 1.3 3.1 2 4.9 2h.2c1.6 0 3.3-.5 4.6-1.4 2.1-1.4 3.2-3.5 3.7-4.5 1.4-2.6 2.6-5.3 3.6-8.1.7-2 1.3-4.2 1-6.7-.3-1.4-.8-2.6-1.2-3.6z" fill="#fff"/>
  <path d="M95.2 225.2c.5-.1.8.5.9 1s.1 1.1.5 1.3c.5.3 1.2 0 1.7-.4.1-.1.3-.2.3-.4 0-.1-.1-.3-.2-.4-.6-.5-1.2-1-1.8-1.4-.3-.2-.6-.3-1-.3s-.6.5-.4.8M62.2 229.2c.6.5-.3 1.5-.1 2.3.1.5.6.8 1 .8s.9-.1 1.4-.2c-.2-.9-.5-1.8-1-2.5-.2-.3-.4-.5-.7-.6-.3-.1-.7.1-.7.4" opacity=".1"/>
  <path d="M69.5 102.9l9.3 1.4s-7.5 6.5-7.7 10.4c-.1 0-2.3-5.7-1.6-11.8z" fill="#006197"/>
  <path d="M74.6 68c-.2 0-.3-.1-.5-.2-1.1-.9-2.8-1-4-.2-.4.2-.9.1-1.2-.3-.2-.4-.1-.9.3-1.2 1.8-1.1 4.3-.9 5.9.4.4.3.5.8.2 1.2-.2.2-.5.3-.7.3zM78.1 80c-.3 0-.6-.1-.8-.2-.3-.2-.6-.5-.7-.9-.1-.5.1-1.1.5-1.5.3-.3.6-.5.9-.5.1 0 .3-.1.6 0 .4.1.7.4.9.8.2.4.3.9.1 1.4-.2.5-.6.8-1 .9h-.5zm0-1.8c-.1.1-.2.3-.2.4 0 0 0 .1.1.1s.2.1.2 0c.1 0 .1-.1.2-.2v-.3l-.1-.1c-.1.1-.2.1-.2.1zm-.1 0zm.4-.1z" fill="#231815"/>
  <path d="M81.2 79.5c-.3 0-.6-.1-.9-.3-.6-.4-.6-.9-.6-1.4v-.1l.2-.5c.1-.5.5-.8 1.1-.9.6-.1 1.4.1 1.8.7.2.4.3.9.1 1.4-.2.5-.6.9-1.1 1-.2.1-.4.1-.6.1zm-.1-1.3c.1.1.2.1.4 0 .1 0 .2-.1.3-.3.1-.1 0-.2 0-.2-.1-.1-.4-.1-.5-.1l-.2.6c0-.1 0-.1 0 0zm0 0zM79 73.4c-.5 0-.8-.4-.8-.9 0-1.4-.1-2.8-.3-4.2-.1-.5.2-.9.7-1 .5-.1.9.2 1 .7.3 1.5.4 3 .4 4.5-.1.6-.5.9-1 .9zM79.4 76.9c-.4 0-.8-.3-.8-.8l-.1-1.6c0-.5.3-.9.8-.9s.9.3.9.8l.1 1.6c0 .4-.3.8-.9.9.1 0 0 0 0 0zM80.1 90.5c-.5 0-.9-.1-1.4-.1-.4-.1-.6-.4-.5-.7.1-.4.4-.6.7-.5 1.1.2 2.2.2 3.3-.1.3-.1.7.1.8.5.1.3-.1.7-.5.8-.7 0-1.5.1-2.4.1zM83.8 202.3c-.7 0-1.2-.5-1.3-1.2l-2.7-16.9c-.2-1.2-.4-2.5-1.1-3.4-.5-.6-1.4-.9-1.8-.6-.6.5-1.5.3-2-.3s-.3-1.5.3-2c1.8-1.4 4.4-.6 5.7 1.1 1.1 1.4 1.4 3.2 1.7 4.7l2.7 16.9c.1.8-.4 1.5-1.2 1.6-.1.1-.2.2-.3.1zM75.2 73.4c-.8-1-2.2-1.5-4.1-1.5H70c-.1-.1-.2-.3-.3-.5v.5h-.4c-.3-.2-.6-.6-.7-.9v.9h-.4c-.3-.2-.6-.6-.8-.9v.7c-.1 0-.1 0-.2-.1h-.3c-.3-.2-.5-.5-.6-.7 0 0 0 .5.2.9 0 0-.1.1-.1.2-.1.3 0 .7.4.8.7.2 1.4.3 2 .4-.1.2-.2.3-.2.5-.1.2-.1.3 0 .5 0 .2 0 .3.1.5s.3.4.5.5c.2.2.6.4.9.4h.3l.6-.3c.3-.2.5-.5.6-.8.1-.1.1-.3.1-.4 0-.3 0-.5-.1-.8 1.1.1 1.9.4 2.4 1 .1.2.3.2.5.2.1 0 .3 0 .4-.1.4-.4.5-.8.3-1zM89.5 82c-.2-.1-.3-.1-.5-.2-.5-.2-.7-.3-1-.5v-.1c-.4-.7-.5-1-.5-1.1 0-.4-.2-.7-.6-.8-.4-.1-.8.2-.9.6-.1.4 0 .8.4 1.5 0 0-.1 0-.1.1-2.7 1.2-12.9 2.4-13 2.4-.3 0-.6.3-.6.7.1 3.6 5 3.9 5.2 3.9h.7c5.3.1 8.3-2.1 9.3-4.3.2-.4.3-.7.3-1 .1.1.3.1.4.1.1 0 .3.1.4.2h.2c.3 0 .6-.2.7-.5.1-.4-.1-.9-.4-1zM78 87.1c.7-.3 1.6-.5 2.6-.6l1.1-.1c.4 0 .8-.1 1.1 0 .1 0 .2 0 .3.1-1.2.4-2.9.7-5.1.6zm8.4-3.1c-.2.4-.8 1.2-2 1.8-.3-.4-.8-.6-1.4-.7-.5-.1-1 0-1.5 0l-1.1.1c-1.2.1-2.8.3-4 1.3l-.2.2c-.9-.3-2-.8-2.3-1.8 2.4-.3 10.3-1.3 12.8-2.4.1.3.1.8-.3 1.5z" fill="#231815"/>
  <path d="M59.3 150c.6-.5.3-1.2.8-1.8.9-1.3 1.5-1.6 2.9-1.7 2.5-.2 5.5-.4 8-.4 1.7 0 2.7.2 4 1.4.4.3.9 1.4 1.3 1.6.4.2 1.7.2 2.1.2 12 0 25.4-2 37.3-3.8.8 2.9 1.1 4.3 1.4 7.7-12.4 3.3-24.9 4.3-37.7 4.4-.8 0-1.8.1-2.2.8-.5.7-.5 1.9-.6 2.8 0 1-.7 1.9-1.6 2.4-.9.5-2.1.8-3.1.9-3.1.5-4.9.5-8.1.2-1-.1-2.1-.3-2.7-1.1-.3-.5-.7-.9-.9-1.5-.3-.8-.6-3-1.9-2.9-.5.1-1.4-.6-1.7-1-.3-.4-.4-.9-.4-1.4-.2-2-.4-3.1-.1-5.1.4-1.7 1.9-.8 3.2-1.7z" fill="#006196"/>
  <path d="M115.7 145.4c-11.5 1.7-24.6 3.7-36.3 3.8h-1c-.5 0-1.7 0-2.1-.2-.4-.2-1-1.3-1.3-1.6-1.2-1.1-2.3-1.4-4-1.4h-.7c-2.3 0-5.1.2-7.3.4-1.4.1-2 .5-2.9 1.7-.5.6-.2 1.4-.8 1.8-1.3 1-2.8 0-3.1 1.6-.3 2-.2 3.1.1 5.1.1.5.1 1 .4 1.4.3.4 1.1 1 1.7 1h.2c1.2 0 1.5 2.1 1.8 2.9.2.5.6 1 .9 1.5.6.8 1.7 1 2.7 1.1 1.4.1 2.5.2 3.6.2 1.4 0 2.7-.1 4.5-.4 1-.2 2.2-.4 3.1-.9.9-.5 1.6-1.4 1.6-2.4 0-.9.1-2.1.6-2.8.4-.7 1.4-.8 2.2-.8 12.8-.1 25.3-1.1 37.7-4.4-.5-3.4-.8-4.8-1.6-7.6zm-36.3 9.8c-.8 0-3 0-4.1 1.9-.7 1.2-.9 2.7-.9 3.9 0 .1-.2.3-.5.5-.4.3-1.2.5-2.3.6-1.6.2-2.9.4-4.1.4-.9 0-1.9 0-3.4-.2-.6 0-.9-.1-1-.2-.1-.1-.1-.2-.2-.3-.1-.2-.3-.4-.3-.5 0-.1-.1-.2-.1-.3-.2-.6-.4-1.3-.7-2-.9-1.7-2.2-2.1-3-2.1h-.1c0-.1 0-.3-.1-.4l-.1-.5c-.2-1.4-.3-2.2-.1-3.2.6-.1 1.5-.3 2.3-.9 1.1-.8 1.3-1.9 1.4-2.4v-.1c.4-.6.5-.6 1.1-.7 2.9-.3 5.3-.4 7.1-.4h.7c1.3 0 1.7.1 2.4.7.1.1.2.2.2.3.4.6.9 1.4 1.7 1.8.7.4 1.6.4 3 .4h1.2c11.2-.1 23.6-1.9 34.6-3.5l2.3-.3c.3 1.1.4 2.1.6 3.4-10.4 2.4-23.9 4-37.6 4.1z" fill="#2d2d2d"/>
  <path d="M157.6 242.7c-.3-.8-.6-1.6-.7-2.3-.1-1 .3-2.1.8-3.3.5-1.3 1.1-2.9.9-4.5 0-.3-.1-.9-.5-1.3-.4-.5-1-.8-1.2-.8-2.6-.9-5.6-.8-8.1.4-.2.1-.6.3-1 .6 0 0-.1 0-.1.1-3.4-1-6.4-2-9.4-2.9-12.1-3.8-20.8-6.5-33.8-6.7-.5 0-1.2-.6-1.3-1.1-.1-.3.2-.9.3-1.4l1.9-4.8c5.2-1.5 10.1-4 14.3-7.5.5-.4 1-.9 1.5-1.3 1.7-1.5 3.2-2.8 5.1-3.6.9-.4 1.9-.7 3-1 .8-.2 1.6-.4 2.5-.7 3.3-1.2 6.2-3.4 8.1-6.3.2-.4.3-.8.2-1.2-2.6-8-6.8-15.3-10.9-22.4-2.1-3.7-4.3-7.6-6.3-11.4-3.1-6.3-5.2-12.3-6.1-17.8v-.3-.2c0-.2 0-.4.1-.6.1-.2.4-.8.2-1.4 0-.1-.1-.2-.1-.2.3-.5.3-1.1 0-1.7.1-.2.2-.4.2-.7 0-.7-.4-1.2-.5-1.4-.2-.2-.2-.4-.3-.7v-.1c.1-3.6.7-7 1.9-10.2 2.2-5.7 4.2-9.9 6.3-13 5.5-8.4 9.7-15.4 14-24.2.2-.5.2-1-.1-1.4v-.1c-.1-.4-3.6-8.4-5.8-11.7-.7-13.8-5.3-27.7-12.9-38l-.1-.1c-.4-.6-.8-1.1-1-1.7-.2-.7-.1-1.6.1-2.5v-.1c1-6.4 1.2-11.1.9-17.4 0-.6-.1-1.7-.7-2.5-.4-.6-1.1-1-1.8-1-.3-1.4-1.1-2.2-2.3-2.3h-.3c-.2-.5-.5-1.1-.9-1.4-.5-.5-1.2-.7-1.9-.6-.2 0-.4.1-.6.2-.4-.8-1.2-1.4-2-1.6-.7-.2-1.4-.1-2 .2-1.5.9-1.3 2.8-1.3 3.5.4 3.7.2 7.5-.4 11.2-.9-.9-1.8-1.7-2.8-2.5-.4-.3-1.6-1.2-2.9-1-.6.1-1.2.4-1.6 1-.4.6-.5 1.3-.4 2.2.4 1.8 1.5 3.1 2.6 4.2.7.8 1.3 1.5 1.7 2.2.4.7.5 1.7.7 2.6.2 1.3.4 2.6 1.2 3.8.7 1.2 1.7 2 2.7 2.8.4.3.8.6 1.1 1 1.3 1.2 2.2 2.7 3 4.1 4.7 8.3 6.9 16.1 6.7 23.2-.5.2-.8.7-.8 1.3 0 6.6-1.4 9.2-3.5 13.2-.7 1.3-1.5 2.7-2.3 4.5 0-3.2 0-6.3-.1-9.4 0-4-.1-8.5-1.2-12.8-2.2-8.8-8.9-16.3-17.1-19.1-3.1-1-6.6-1.6-10.8-1.6-8.2 0-15.2 2.7-19.7 7.8-4.9 5.5-8.5 12.9-9.9 20.3-.9 4.8-.7 9.7.4 14.1.4 1.4.8 2.8 1.3 4.2l-1.5-1.5C44.5 76 39 68.1 34.4 58.6c-.2-.4-.7-.7-1.2-.8-.5 0-1 .2-1.3.6-.3.4-.6.8-.8 1.2-2.8-5.6-4.3-12.4-4.5-20.5 0-1.6 0-3.4.5-5.1.1-.5.3-.9.5-1.4.4-1.2.9-2.4.9-3.8s-.5-2.7-.9-3.9c-.4-.9-.7-1.8-.8-2.6-.1-.9.1-1.8.3-2.8.3-1.5.7-3.2.1-5-.3-.8-.8-1.4-1.4-1.7-.6-.3-1.2-.3-1.8 0-1.2.5-1.8 2-2 2.4-.4 1.2-.8 2.3-1.1 3.5-2.4-2.8-4.5-6-6.1-9.4-.3-.6-1.1-2.3-2.8-2.4h-.1c-.7 0-1.3.3-1.8.8-.4.2-.7 1.1-.7 2-.2 0-.4.1-.6.2-.7.3-1.1.8-1.4 1.5-.2.6-.2 1.2-.1 1.7-.1 0-.2.1-.3.2-.9.7-1.2 1.8-.8 3.2-.6.4-.9 1.1-1 1.8-.1 1.1.4 2 .7 2.6 2.9 5.6 5.5 9.5 9.6 14.5v.1c.6.7 1.2 1.4 1.3 2.1.1.6.1 1.2 0 2v.1c-1.1 11.2 1.2 23.8 6.2 35-.5 1.3-1 2.5-1.8 3.9-.1.2-.3.4-.4.6-.7 1.1-1.3 2.1-1.4 3.9-.1 1.9 1.1 3.8 2.2 5.4.1.2.2.4.4.5 7.2 11.1 11.3 15.9 17.5 23.1 2.3 2.7 4.9 5.7 8.1 9.5 5.5 6.6 9 16.1 10.6 28-.2.1-.5.1-.8.1-.7.1-1.9.2-2.2 1.8-.3 2-.2 3.1 0 4.9l.1.5c.1.5.1 1.2.6 1.8.3.5 1.4 1.4 2.4 1.4h.2c.1 0 .3.1.6 1.1.1 5.9-.1 12.3-.8 19-.5 4.8-3 8.9-5.7 13.2-1 1.6-2.1 3.3-3.1 5.1-.2.3-.2.7-.1 1.1.1.4.4.7.7.8 1.4.7 2.9 1.4 4.4 2.1-2.3 8.7-3 16.5-2.2 23.6 1.2 10.2 5.6 19.7 9.8 28.9 4.1 8.8 8.3 17.8 9.5 27.3-2.8 1.6-5.5 3.3-8.2 5.1-.7.4-1.4.9-2 1.3-.1.1-.2.1-.3.2-.6.4-1.1.8-1.7 1.1-.3.2-.5.4-.8.5-.4.3-.8.5-1.2.8-.7.5-1.3.9-2 1.4-.6.4-1.6 1.1-1.9 2.3-.4 1.6.7 3.1 1.9 3.9 1.3.8 2.7 1 4.1 1.1 1 0 1.9-.1 2.7-.1l6.1-.5c1.1-.1 2.3-.2 3.5-.7 1.1-.4 2-1.1 2.9-1.7 1-.7 1.9-1.4 2.9-1.5.8-.1 1.7.1 2.6.4 1.4.4 3 .8 4.7.1.6-.2 1-.6 1.3-1 .3-.4.3-.9.3-1.1 0-.3.1-.6.1-.9v-.3-.5-.3-.4-.4-.4-.4-.4-.4-.3c0-.1 0-.3-.1-.4v-.3c0-.1 0-.3-.1-.4 0-.1 0-.2-.1-.3 0-.1-.1-.3-.1-.4 0-.1 0-.1-.1-.2 0-.1-.1-.3-.1-.4 0-.1 0-.1-.1-.2 0-.1-.1-.3-.1-.4v-.1c-.3-.9-.8-1.6-1.4-2.3-.5-1.1-1.1-2.3-1.4-2.8-.1-13.7-1.7-26-4.7-36.4-2.8-9.9-5.7-14.2-6.1-14.6-.2-.3-.4-.6-.6-.8-.6-.8-.7-1-.8-1.3-.1-.5 0-1.4.2-3v-.4c.3-2.2 2.2-7.7 4.1-12.7 2.6 1 5.2 2 7.9 2.7v2.1c.1 6.4 1.5 14.9 8.1 18.5 3.1 1.7 6.7 1.9 9.8 2.1 14.7.9 29.5 2.3 44.1 4.2l.1 1.1c0 .4-.1.8-.1 1.2 0 3.1.1 6.1.2 9.1.1 1.5.1 3 .2 4.5 0 .9.1 2.5 1.2 3.6.6.6 1.5.9 2.3.9.9 0 1.8-.3 2.5-.7 1.2-.8 1.9-2 2.4-3.1 1.3-2.4 2.4-5 3.3-7.6.5-1.4 1-3.1.8-4.9.4-1 0-1.9-.3-2.8zm-25-163.6c.1.3.3.6.4.9l-.5-.5c.1-.2.1-.3.1-.4zm-19.4-41c-.9-1.6-2-3.4-3.5-4.8-.4-.4-.9-.8-1.3-1.1-.8-.7-1.6-1.3-2.1-2-.5-.8-.6-1.8-.8-2.9-.2-1.1-.4-2.3-.9-3.4-.6-1.1-1.4-2-2.2-2.9-.8-.9-1.5-1.6-1.8-2.5.1.1.2.1.3.2 2 1.6 3.8 3.4 5.5 5.3.2.2.4.4.8.4.2.1 2.3.7 3 4 .1.8.9 1.3 1.6 1.1.8-.1 1.3-.9 1.1-1.6-.8-4.2-3.5-5.6-4.6-6.1-.1-.1-.2-.3-.4-.4.3-1.3.5-2.7.7-4 1.5-.2 4.1-.1 5.6 1.6.2.2.4.3.6.3.2 0 .4-.1.6-.2.4-.3.4-.9.1-1.2-1.9-2.2-4.8-2.4-6.7-2.2.2-2.7.2-5.4-.1-8.1v-.4c.1.3.3 1.7.4 2.2 0 .3.1.5.1.7.2 1.4 1.2 1.5 1.5 1.4.1 0 1.3-.1 1.3-1.5v-.7V9v1.4c.1 1.2.9 1.5 1.2 1.5.5.1.9-.1 1.2-.3v.5c.1 1.3.8 1.6 1.4 1.6.1 0 .6 0 1-.3v.2c.3 6.2.1 10.6-.9 16.8v.1c-.2 1.1-.4 2.4 0 3.7.3 1 .9 1.8 1.4 2.6l.1.1c7.7 10.6 12.3 25.2 12.4 39.3-.6-.6-1.2-1.3-1.9-2-3.1-3-3.8-4-5.1-6-.7-1-1.4-2.2-2.7-3.8.7-8.1-1.6-17-6.9-26.3zM62 79.7c0-.2.1-.4.1-.4.7 0 1.2-.5 1.3-1.2.5-.3.8-.9.6-1.5v-.5c-.1-.3-.2-.7-.2-1 0-.2-.1-.4-.1-.6-.3-1.4-.4-2.1-.4-3.4 0-.5 0-1.1.1-1.7l.1-.6c.5-1.9 2.8-3.5 4.6-4.9l.2-.2c1.8-1.3 3.6-2.9 4.4-4.9 1.4.6 2.9.9 4.4 1.1.9.2 1.8.3 2.6.6 2.5.7 4.7 2.2 6.2 4.3-.8.3-1.5.6-2.2 1-.5.2-.7.7-.5 1.2.1.3.4.5.7.5.1 0 .3 0 .4-.1.8-.4 1.6-.8 2.4-1 .6 1.1 1 2.3 1.4 3.6 0 .3-.1.5-.2.7h-.7c-1.5.1-2.9.9-3.7 2.1-.2.3-.1.7.2.9.1.1.2.1.3.1.2 0 .4-.1.6-.3.1-.1.2-.3.3-.4 0 .1.1.3.1.4.1.2.3.4.5.5.2.2.6.4.9.4h.3l.6-.3c.3-.2.5-.5.6-.8.1-.1.1-.3.1-.4 0-.3-.1-.6-.2-.8h.8c.1.3.2.6.2 1 1.2 5 2.2 10.1 3.1 15.2-.5 1.5-1.2 3.2-2.3 4.5-1 1.1-2.5 1.9-4.2 2.4-.7.2-1.2 1-1 1.7.2.6.7 1 1.3 1h.4c1.8-.5 3.4-1.3 4.7-2.4.8.1 1.7.4 2.5.7.1.6.2 1.1.3 1.7-2 .8-3.5 1.1-5.2 1.5-1.8.4-3.6.8-6 1.8-1.1.5-2.4 1.2-3.7 2.1-2.7-.5-5.4-1-8.1-1.4-.1-1.3-.2-2.7-.5-3.9-.1-.7-.3-1.3-.5-1.9.5 0 1.1-.1 1.6-.2 1.3.9 2.9 1.7 4.8 2.1.2.1.5.1.8.1h.2c.7 0 1.3-.5 1.4-1.2.1-.8-.4-1.5-1.1-1.6-.2 0-.4-.1-.7-.1-1.2-.2-2.4-.8-3.5-1.5-.1-.1-.3-.2-.4-.3h-.1c-.2-.1-.4-.3-.6-.4-.1-.1-.2-.1-.2-.2-.1 0-.1-.1-.2-.1l-.3-.3c-.1 0-.1-.1-.2-.1l-.3-.3-.1-.1-.3-.3-.1-.1c-.1-.2-.3-.3-.4-.5-1.7-2-2.9-4.4-4-6.7-.1-.1-.1-.3-.2-.4-.2-.4-.3-.7-.3-1-.1-.7-.6-1.2-1.3-1.3-.2-.4-.6-.7-1.1-.8-.4-.1-.9-.3-1.2-.5.2-.5.2-.5.2-.6 0 .1 0 0 0 0zm14 25.5c-1.7 1.6-3.4 3.5-4.5 5.4-.3-2-.4-4.1-.5-6.2 1.6.2 3.3.5 5 .8zM19.7 36.7c-.3-1.3-1.2-2.3-1.9-3.2v-.1c-2.3-2.8-4.1-5.2-5.7-7.8.8-2.2 3.8-4.2 4.9-4.8.4-.2.6-.7.4-1.2-.2-.4-.7-.6-1.2-.4-.2.3-3.6 2.1-5.2 4.8-.7-1.1-1.4-2.3-2-3.6.1.1.3.1.5.1.5 0 1-.3 1.2-.8.3-.6.2-1-.2-1.7.5.1.9-.1 1-.2.4-.2 1.1-.8.4-2.1-.1-.2-.2-.4-.5-.8-.1-.1-.2-.3-.4-.6-.1-.2-.3-.5-.5-.8-.1-.1-.1-.3-.2-.4 0 .1.1.1.1.2.3.6.6 1.1.9 1.4.3.4 1 1.5 2.2.9.5-.3 1-1 .4-2.2-.1-.3-.4-.7-.7-1.2-.4-.8-.9-1.6-1-2.4v-.1c.1.1.1.2.2.4 2 4.2 4.6 8.1 7.8 11.5 0 .2-.1.4-.1.5-.8.9-2.3 3.5-.9 7.6.3.7 1.1 1.1 1.8.9.7-.3 1.1-1.1.9-1.8-1.1-3.2.4-4.8.5-5 .2-.2.4-.5.4-.8.5-2.5 1.2-4.9 2-7.3 0-.1.1-.2.1-.3.2.9 0 1.9-.3 3.1-.2 1.2-.5 2.3-.4 3.6.1 1.2.5 2.3.9 3.4.4 1 .8 2 .8 2.9 0 .9-.4 1.8-.7 2.8-.2.5-.4 1.1-.6 1.6-.6 2-.6 4.1-.6 5.9.2 9.2 2.1 17 5.6 23.2-.5.9-.9 1.7-1.3 2.6-.8 1.5-1.5 2.9-2.4 4.4-.5.7-.8 1.4-1.2 2.1-4.1-10.1-5.9-21.1-5-31.1v-.1c.2-1 .3-2 0-3.1zm30.2 83c-3.2-3.8-5.8-6.8-8.1-9.5-6.2-7.1-10.2-11.8-17.3-22.8-.1-.2-.2-.4-.4-.6-.7-1.1-1.8-2.7-1.7-3.7.1-1.1.4-1.6 1-2.6.1-.2.3-.4.4-.7 1.1-1.8 1.6-3.3 2.2-4.8.6-1.5 1.2-3 2.3-4.7 1-1.6 1.8-3.1 2.6-4.7.7-1.4 1.4-2.7 2.3-4.3 4.5 8.8 9.9 16.3 17.3 24 2.5 2.6 5.3 5.2 8.8 6.5.8.3 1.6.6 2.4.8 3.1.9 5.2 1.6 5.9 5.4.4 2 .5 4.1.6 6.3.2 3.6.4 7.3 1.7 10.8.2.6.8.9 1.4.9.6 0 1.1-.4 1.3-1 1.2-4.3 7.1-10 11.1-11.7 2.2-.9 3.9-1.3 5.6-1.7 1.5-.3 3-.7 5-1.4l.6 4.2c.2 1.5.4 3 1.1 4.5 1.2 2.5 3.7 4.3 6.7 4.8.4.1.8.1 1.2.1 2.2.1 4.5-.6 6.5-1.9 1.7-1.1 2.7-2.4 2.9-3.8.2-1.2-.2-2.5-1-3.3-.6-.6-1.3-.9-2-.9.7-2.9.7-5.9.7-8.6v-8c.9-1.3 1.7-2.7 2.4-4.2.8-1.8 1.7-3.3 2.4-4.7 1.8-3.3 3.2-5.9 3.7-10.5.5.7.9 1.3 1.2 1.8 1.4 2.1 2.2 3.3 5.5 6.5 1.6 1.5 2.6 2.7 3.6 3.9 1.5 1.7 3 3.6 6 6-4 8.3-8.1 14.9-13.4 22.9-2.1 3.3-4.3 7.7-6.5 13.6-1.4 3.5-2.1 7.4-2.1 11.5 0 .2 0 .4.1.6.1.4.3.8.5 1.2-.1.2-.2.5-.2.8 0 .3.1.5.1.7 0 .1-.1.1-.1.2h-.1c-.2 0-.4-.1-.6-.1 0-.1.1-.3.1-.4.1-.8-.5-1.4-1.3-1.5-1.4-.1-2.8-.3-4.2-.4-.8-.1-1.5.4-1.6 1.2-.1.8.4 1.5 1.2 1.6 1.2.2 2.5.3 3.7.4-.9.7-1.8 1.4-2.6 2.2-.5.6-.5 1.4 0 2 .3.3.6.4.9.4.4 0 .8-.1 1-.4.7-.7 1.4-1.4 2.3-1.9.3-.2.4-.2.4-.3h.6v.7c0 .1 0 .3.1.4.2 1.1.4 2.1.6 3.2l-.7.1c-11 1.6-23.5 3.5-34.7 3.5h-1.1c-.8 0-1.4 0-1.5-.1-.1-.1-.4-.5-.5-.7-.2-.3-.4-.6-.6-.8-1.4-1.3-2.7-1.6-4.6-1.6h-.7c-2 0-4.4.1-7.4.4-1 .1-1.7.3-2.3.8-1.6-10-4.8-19.5-10.7-26.6zm66 30.6c-10.3 2.4-23.5 3.9-36.5 4-.9 0-3.5 0-4.9 2.3-.8 1.3-1 2.9-1 4.1h-.1c-.2.1-.7.3-2 .5-1.6.2-2.8.3-4 .4-.9 0-1.9 0-3.3-.2-.2 0-.4 0-.5-.1-.1-.1-.2-.3-.2-.3 0-.1 0-.1-.1-.2-.2-.6-.4-1.4-.8-2.2-.9-1.7-2.1-2.3-3-2.5v-.2c-.1-1.1-.2-1.7-.2-2.4.8-.2 1.4-.5 2-.9 1.3-.9 1.6-2.2 1.7-2.8l.1-.1h.3c2.8-.3 5.2-.4 7-.4h.6c1.2 0 1.4.1 1.7.4 0 .1.1.2.1.2.5.7 1 1.5 2 2.1.9.4 1.9.5 3.4.5h1.2c10.9-.1 24.7-2.1 35.8-3.7l.4-.1c.1.4.2 1 .3 1.6zm-57.3 8h-.2c-.2 0-.8-.4-1-.7-.2-.2-.2-.7-.3-1l-.1-.5c-.2-1.7-.3-2.7 0-4.4 0-.3 0-.3.7-.4.6-.1 1.3-.2 2.1-.7.6-.5.7-1.1.8-1.5 0-.3.1-.4.2-.5.8-1.1 1.2-1.3 2.2-1.4 2.9-.3 5.3-.4 7.2-.4h.7c1.5 0 2.4.2 3.4 1.1.1.1.3.3.4.5.4.5.7 1 1.1 1.3.5.2 1.2.3 2.3.3h1.2c11.3-.1 23.8-1.9 34.9-3.6l.8-.1c0 .2.1.3.1.5h-.3c-11 1.6-24.8 3.7-35.5 3.7h-1.2c-1.2 0-2 0-2.6-.3-.6-.3-1-.9-1.4-1.5-.1-.1-.2-.3-.2-.3 0-.1-.1-.1-.1-.1-.9-.8-1.5-.9-2.9-.9h-.7c-1.9 0-4.3.1-7.2.4-.9.1-1.2.2-1.7 1-.1.1-.1.2-.1.3v.1c-.1.5-.2 1.3-1 1.9-.7.5-1.4.7-1.9.8-.4.1-.7.4-.7.8-.1 1.2 0 2 .1 3.4l.1.5c0 .1 0 .3.1.4 0 .2.2.4.3.5 0 0 .1 0 .1.1.1.1.3.2.5.2.7 0 1.6.3 2.3 1.6.3.6.5 1.3.7 1.9 0 .1.1.3.1.4v.1c.1.2.2.3.4.7.1.1.1.2.2.3.1.1.2.2.4.3.3.1.7.2 1.3.2 1.5.1 2.5.2 3.5.2 1.3 0 2.6-.1 4.3-.4 1.2-.2 2-.4 2.6-.7.5-.3.9-.8.9-1.2v-.1c0-1.1.1-2.5.8-3.5.9-1.4 2.6-1.5 3.4-1.5 13.1-.1 26.4-1.5 36.8-4v.4c-10.7 2.7-22.4 4.1-36.8 4.1-.7 0-2.2 0-2.9 1.2-.6.9-.7 2.3-.7 3.2 0 .6-.5 1.3-1.2 1.7-.8.5-2 .7-2.8.8-1.7.3-3 .4-4.4.4-1 0-2 0-3.5-.2-.8-.1-1.7-.2-2-.7-.1-.1-.2-.2-.3-.4-.2-.3-.4-.6-.5-.9 0-.1-.1-.2-.1-.4-.6-1-1.1-3-2.7-3zm9.9 65.8v.4c-.5 3.8-.5 4.2 1.1 6.4.2.2.3.5.5.8.1.1 10 14.5 10.2 49.8 0 .2.1.5.2.7 0 0 .3.5.7 1.2-.3 0-.7-.1-1-.1-.4 0-.8-.1-1.2-.1-1 0-2.1-.1-3.1-.1h-.5-.1c-.2 0-.5 0-.8-.1v-.4c-1.2-10.2-5.6-19.6-9.8-28.8-4.2-9-8.5-18.2-9.6-28-.8-6.6-.1-13.9 2-22.1 5.2 2.4 10.4 4.8 15.7 7-1.9 4.9-4 10.8-4.3 13.4zm6.1-15.7c-7.4-3-14.7-6.5-21.9-9.9.7-1.2 1.5-2.5 2.3-3.7 2.8-4.4 5.6-8.9 6.2-14.4.5-4.8.8-10 .8-15.3.6.2 1.3.3 1.8.4 1.1.1 1.9.1 2.7.2h1c1.4 0 2.8-.1 4.6-.4 1-.1 2.4-.4 3.4-1 1.2-.7 2-1.9 2-3.2 0-1.1.2-1.9.4-2.4.2-.3.9-.4 1.5-.4 14.9-.1 26.9-1.5 37.9-4.4.1 0 .2-.1.3-.1.8 2.1 1.8 4.3 2.9 6.5 2 3.9 4.2 7.8 6.3 11.6 3.9 6.8 7.9 13.8 10.4 21.3-1.6 2.1-3.8 3.8-6.3 4.7-.7.3-1.5.5-2.3.7-1.1.3-2.3.6-3.4 1.1-2.2 1-4.1 2.6-5.8 4.1-.5.4-1 .8-1.4 1.2-7.7 6.4-18.3 9.4-28.2 8.1-5.2-.8-10.4-2.8-15.2-4.7zm71.8 30.2c-14.9-1.9-30-3.3-45-4.3-3-.2-6.1-.4-8.7-1.8-5.4-3-6.6-10.4-6.7-16.1v-1.3c1.1.2 2.2.5 3.4.6 1.4.2 2.7.3 4.1.3 2.9.1 5.8-.2 8.6-.7l-1.2 3c-.3.7-.8 1.9-.5 3.1.4 1.8 2.2 3.2 3.9 3.3 12.5.2 21.1 2.9 33 6.6 3 .9 6.1 1.9 9.6 2.9.3 1.5-.1 2.9-.5 4.4z" fill="#231815"/>
  <path d="M75.6 162.2l-5.3-7 4.4-7.6c.1-.2 0-.5-.3-.5l-3.9.2c-.1 0-.2.1-.3.2l-2.4 4.6-3-4.2c-.1-.1-.2-.1-.3-.1l-3.9.2c-.2 0-.4.3-.2.5l5.3 7-4.4 7.6c-.1.2 0 .5.3.5l4-.2c.1 0 .2-.1.3-.2l2.4-4.5 2.9 4.2c.1.1.2.2.3.1l4-.3c.2-.1.3-.4.1-.5z" fill="#006196"/>
  <path d="M76.3 161.6l-4.9-6.5 4.1-7.1c.2-.4.2-.8 0-1.2-.2-.4-.6-.6-1.1-.6l-3.9.2c-.4 0-.8.2-1 .6v.1l-1.8 3.3-2.2-3.1v-.1c-.3-.3-.6-.5-1-.4l-3.9.2c-.4 0-.8.3-1 .7-.2.4-.1.8.2 1.2l4.9 6.6-4.1 7.1c-.2.4-.2.8 0 1.2.2.3.6.6 1 .6h.1l4-.2c.4 0 .8-.2 1-.6v-.1l1.7-3.3 2.1 3v.1c.3.3.7.5 1.1.5l4-.3c.4 0 .8-.3 1-.7 0-.4 0-.8-.3-1.2zm-5.5-13.4h0l-1.6 3 1.6-3zm-3.7 4.4c.2.2.5.4.8.4.2 0 .4-.1.5-.2l-.6 1-3.9-5-.1-.1h.4l2.9 3.9zm-.8 3.3c.2-.3.1-.7-.1-.9l-4.7-6.2.9-.1c-.2.3-.2.7 0 1l4.3 5.6-3.5 6.2c-.2.3-.1.7.1 1l-1 .1 4-6.7zm2.6 2.2c-.2-.2-.5-.4-.8-.4-.3 0-.6.2-.7.5l-2.2 4.3h-.4s0-.1.1-.1l3.2-5.6 3.8 5c.1.1.2.2.3.2h-.5l-2.8-3.9zM73 162c0-.1 0-.1 0 0 .4-.3.5-.9.2-1.2l-4.3-5.5 3.5-6.1c.2-.3.1-.8-.1-1l1.2-.1-3.9 6.7c-.2.3-.1.7.1.9l4.7 6.2-1.4.1z" fill="#231815"/>
  <path d="M63.4 87.9c0-.5-.4-.9-.9-1-.5 0-.9.4-1 .9 0 .5.4.9.9 1 .6 0 1-.4 1-.9z" fill="#006197"/>
</svg>
