<svg xmlns="http://www.w3.org/2000/svg" width="160" height="228">
  <path d="M159 199.4c.3-1.3.6-2.9.6-4.6 0-3.4-1.2-6.4-3.5-8.3-2.5-2.2-5.5-2.5-8.1-2.5h-1.8c-1.2 0-2.5-.1-3.7-.2-.1-.5-.3-1-.6-1.5-1.1-2-2.9-2.8-3.6-3.2L113 167.5l-1.6-19.4c.7-.6 1.3-1.1 1.8-1.7 5.5-6 7.6-15.5 5.6-25.3-1-4.9-1.8-8.5-2.5-10.8v-.3l-2.1-12.4c6 2.9 12.7 5.3 19.3 5.3.8 0 1.5 0 2.2-.1 1.6-.1 3.7-.4 5.7-1.6 3-1.8 4.9-5.2 5.2-9.1.2-2.8-.5-5.4-1-7.5l-8-30.6c-.5-2.1-2.3-3.6-4.4-3.8.7-6 .7-10.5.2-16.5v-.3c0-.6-.1-1.3-.3-2.1-.5-2.2-2.7-5.5-5.9-6.1-.2-.2-.4-.4-.7-.6-1-.8-2.2-1.3-3.4-1.4-.7-.5-1.5-.8-2.3-1.1-.6-.1-1.1-.2-1.7-.2-1.1 0-2.3.3-3.2.9-2.8 1.8-3.4 5.4-3.1 7.4.1.9.2 1.7.3 2.5-.4-.1-.8-.1-1.2-.1-.4 0-.7 0-1.1.1-1.3.2-2.5.9-3.3 1.8-.3-.4-.7-.8-1.1-1.1-.1-.1-.3-.2-.4-.3 1.1-1.4 1.8-2.5 1.9-2.6.4-.6.6-1.3.7-2.1.1-.6.5-6-2.7-11-.3-.4-.5-.8-.7-1.1-2-3.1-4-6.3-10.1-6.5h-.7l-3.2.3-6.1-7.2-.1-.1c-1.7-2-4-3-6.5-3-1.8 0-3.2.6-4.1 1-1.8.9-7.7 2.9-11.4 4.2-6.2 2.3-8 7.6-8.4 8.9-.1.4-.6 2.1-1 3.9-.9 4.2-.6 6.9.9 8.8.1.4.1 1.2.2 1.9v.1c.1.5.1 1 .2 1.7.3 2.5 1.3 4.7 2.5 6.5-.8 1.3-1.3 3.1-1.2 5.6.1 2.4.6 5.8 3.3 8.2.7.6 1.5 1.1 2.4 1.4.1.6.2.9.3 1.2.3.9.7 2 1.5 3.4-.3.1-.5.2-.7.3-.4.2-.7.4-1 .6-.2-.1-.5-.2-.7-.3-1.2-.4-2.4-.6-3.7-.6-2.2 0-4.3.6-5.9 1l-.4.1c-2.8.8-5.8 1.3-8.7 1.6-.4 0-.8.1-1.2.1-.4-.2-.9-.4-1.4-.6-.4-.3-.8-.5-1.3-.7-.1-.3-.2-.6-.3-.8-1.5-4.6-3-9.3-4.4-14-.4-1.4-1.4-2.5-2.6-3.1-.1 0-.1-.1-.2-.1 0-.2.1-.4.1-.7.3-1.3.6-3 .3-4.9-.3-2-1.2-3.5-1.9-4.7-.2-.4-.6-1-.7-1.2-.1-.2 0-1 0-1.5.1-1.7.2-4.1-1.1-6.5-1.1-2.1-2.7-2.9-3.9-3.2-.5-.1-1-.2-1.5-.2-1.1 0-2.2.3-3.1.9-.8.5-1.4 1.1-1.8 1.8-.6-.8-1.3-1.6-1.8-2.5-1.9-2.8-4.1-3.4-5.7-3.4-.3 0-.7 0-1 .1-1.6.3-3.1 1.2-4 2.7-.4.7-.8 1.4-.9 2.3-1 .9-1.6 2.1-1.9 3.4-.9.8-1.5 1.9-1.7 3.2-.6 3 1.2 6.2 2.8 8.3 2.9 3.9 5.5 6.9 8.8 10-.6 1-.9 2.2-.7 3.4 1.5 11.1 4.6 22 9.3 32.2 1.1 2.3 2.4 5 5.1 6.9 3.1 2.2 6.5 2.4 9.6 2.5h1.8c5 0 11.5-.4 14-.5 1.6-.1 3.1-.2 4.4-.3.7 8.5 3.3 17.1 8.1 26.1.3.7.9 1.6 1.7 2.6.5 4.4 1.3 9 2.4 14.4-.3.2-.7.4-1 .6-2.2 1.3-4.4 2.6-6.6 4.2-6.9 5.3-10.9 12.9-14.1 19.6-6.5 13.5-11.8 27.6-16.9 41.3-.4-.2-.7-.4-1.1-.6-2.1-1.1-4.5-1.6-6.8-1.6-3.4 0-6.4 1.3-8.4 3.7-1.4 1.6-2.2 3.7-2.4 6-.6 6.6 3.7 11.8 7.9 14.6 2.9 1.8 6.1 3.1 9.5 3.5.2 0 .4 0 .6.1.3 0 .7.1.9.1.2.1.6.5.9.8.3.3.7.6 1 .9 3 2.4 6.7 3.8 10.6 3.8.6 0 1.1 0 1.7-.1.9-.1 1.7-.4 2.5-.9 3.9-2.8 4.6-7.1 5-10.4.1 0 .2.1.3.1.5.1 1.2.3 2.1.3.8 0 1.6-.2 2.4-.5 1.5-.6 3.4-2.1 4-5.5.8-4.2 1.9-8.4 3.4-12.4 3.2-8.7 8.2-16.9 13.1-24.8.5-.9 1.1-1.8 1.6-2.6.7 2.4 1.4 4.7 2.2 7 1.2 3.7 2.6 7.6 5.6 10.7 2.8 3 6.4 4.6 9.3 5.9L111 202c6.5 3 13.3 6 20.9 7.3.3.1 1 .2 1.8.2 1.2 0 2.3-.3 3.3-.8 0 .6.1 1.3.1 1.9l.2 6.7c0 1.3.1 3.1 1 5 1.1 2.4 3.2 4.2 6 5 .9.3 1.9.4 2.9.4 2.1 0 4.2-.6 5.9-1.7 3.4-2.3 5.5-6.4 5.8-11.2.1-2.2-.1-4.3-.3-6.1-.1-.9-.2-1.9-.2-2.8-.1-1.8.1-3.5.4-5.3 0-.5.1-.8.2-1.2zM108.7 45c.3.4.7.7 1 1 .4.4.9.9 1 1.1.1.2.2.9.3 1.4.3 1.4.6 3 1.7 4.7.6.9 1.2 1.5 1.8 2.1-.3.8-.4 1.8-.2 2.7l1.1 5.5-2.6-2.3c-1.8-1.6-4.3-3.5-7.5-4.2-.5-1.2-1.3-2.4-2.3-3.3.4-1.2.7-2.3.8-3.7 2.4-.9 4-2.6 4.9-5z" fill="#fff"/>
  <path d="M83.6 62.9h-.8c-.4 0-.7-.4-.7-.8s.4-.7.8-.7c1.3.1 2.6-.1 3.8-.4.4-.1.8.1.9.5.1.4-.1.8-.5.9-1.1.3-2.3.5-3.5.5zM75.5 31c-.7 0-1.4-.2-2-.6-.3-.2-.4-.6-.2-1 .2-.3.6-.4 1-.2.6.3 1.2.5 1.7.3.5-.1.9-.6 1-1.1 0-.4.4-.7.8-.7s.7.4.7.8c-.1 1.1-.9 2-2 2.3-.4.2-.7.2-1 .2zM89.5 30.1c-.4 0-.7-.3-.7-.6 0-.5-.7-.8-1.2-.8-.7 0-1.5.4-2.2.8-.3.2-.8.1-1-.3-.2-.3-.1-.8.3-1 .8-.4 1.7-1 2.8-1h.1c1.2 0 2.5.8 2.6 2.1 0 .4-.3.8-.7.8zM82.6 46.9h-.1c-.4 0-.8 0-1.2-.2-.2-.1-.3-.2-.5-.4h-.3c-.5 0-1-.2-1.3-.6-.3-.4-.4-.9-.2-1.4.1-.5.5-.9.9-1 .4-.1.8.1.9.4.1.4-.1.8-.4.9l-.1.1v.1h.2c.2-.3.6-.4.9-.2.3.1.5.4.4.7.1.1.3.1.6.1h.5c-.1-.3-.1-.6.2-.8.3-.3.7-.2 1 0 .1 0 .2.1.3.1.1 0 .2-.1.2-.1v-.3l-.2-.2c-.4 0-.7-.3-.7-.7 0-.4.3-.7.7-.7.6 0 1.1.3 1.4.8s.4 1.1.1 1.6c-.2.5-.7.9-1.3.9h-.4c-.1.2-.2.3-.4.4-.4.4-.8.5-1.2.5zM81.5 48.2c0-.5-.3-1-.7-1.3-.5-.4-1.2-.5-2.1-.5-.6 0-1 .2-1.4.3-1.2.5-2.1 1.6-2.4 2.9-.1.3-.2 1.2.4 1.5.1.1.3.1.4.1.5 0 .9-.4 1.4-.9.2-.2.5-.5.6-.5.3-.1.6-.2 1-.2.1 0 .2 0 .4.1.2 0 .4.1.6.1.6 0 1.1-.2 1.4-.5.3-.3.4-.7.4-1.1zM91.1 49.1c-.3-1.3-1.2-2.5-2.4-2.9-.4-.2-.9-.3-1.4-.3-.9-.1-1.6.1-2.1.5-.4.3-.7.8-.7 1.3s.1.9.4 1.2c.3.4.9.5 1.4.5.2 0 .4 0 .6-.1.1 0 .3 0 .4-.1.3 0 .7 0 1 .2.1.1.4.3.6.5.5.4 1 .9 1.4.9.1 0 .3 0 .4-.1.6-.4.5-1.2.4-1.6zM83.9 58.2c-.5 0-1-.1-1.5-.2-.4-.1-.6-.5-.5-.8.1-.4.5-.6.8-.5.8.2 1.7.2 2.6-.1.4-.1.8.1.9.5.1.4-.1.8-.5.9-.6.1-1.2.2-1.8.2z"/>
  <circle cx="75.8" cy="37.7" r="3.7" fill="#006196"/>
  <circle cx="89.2" cy="37" r="3.7" fill="#006196"/>
  <path d="M84.4 70.8c-1.6 0-3.2-.1-4.7-.4-.4-.1-.6-.4-.6-.8.1-.4.4-.6.8-.6 4.6.9 9.5.4 13.9-1.5.4-.2.8 0 .9.4.2.4 0 .8-.4.9-3.1 1.3-6.5 2-9.9 2zM61.5 71.6c-.3 0-.6-.2-.7-.5-.7-2-.8-4.1-.3-6.1.1-.4.5-.6.8-.5.4.1.6.5.5.8-.4 1.8-.3 3.7.3 5.4.1.4-.1.8-.4.9h-.2zM99.9 76.3c-.3 0-.6-.2-.7-.6-.7-3.4.2-7.1 2.4-9.8.2-.3.7-.3 1-.1.3.2.3.7.1 1-1.9 2.3-2.7 5.6-2.1 8.6.1.4-.2.8-.5.8-.1.1-.1.1-.2.1zM37.1 70.7c-.3 0-.6-.2-.7-.5-.5-1.4-.5-2.9-.1-4.2.1-.4.5-.6.9-.5.4.1.6.5.5.9-.3 1.1-.3 2.3.1 3.4.1.4-.1.8-.4.9h-.3z"/>
  <path d="M155.1 198.6c.3-1.2.5-2.5.5-3.8 0-2.2-.7-4.1-2.1-5.2-1.8-1.6-4.3-1.5-6.4-1.5h-.3c-2.7 0-5.3-.2-8-.7 0-.6 0-1.1-.1-1.7 0-.4 0-.9-.3-1.4-.4-.8-1.2-1.2-1.7-1.4l-26.4-12.1c-.4-.2-.8-.4-.9-.6-.2-.2-.2-.7-.3-1.2l-1.9-22.7c1.1-.7 2.1-1.6 3-2.6 4.7-5.1 6.4-13.2 4.7-21.8-1.1-5.2-1.9-8.9-2.6-10.9v-.4L109 90.2c7.8 4.6 16.4 8.8 24.6 8.8.6 0 1.3 0 1.9-.1 1.2-.1 2.7-.3 3.9-1.1 1.9-1.1 3.1-3.3 3.2-5.9.1-2.2-.4-4.3-.9-6.2l-8-30.6c-.1-.5-.6-.9-1.1-.9-.7 0-1.4.1-2.1.1 0-.1-.1-.1-.1-.2l-.1-.1c-.4-.5-.8-1-1-1.6-.2-.7-.1-1.5 0-2.4v-.1c.7-5.8.7-10.2.2-15.9v-.4c0-.5-.1-1-.2-1.5-.2-.9-1.4-3-2.9-3.1-.4 0-.7.1-1 .4l-.1.1c-.2-.7-.6-1.4-1.2-1.9-.5-.4-1.1-.6-1.7-.5-.2 0-.4.1-.5.2-.4-.6-1.2-1.2-2-1.4-.7-.2-1.3-.1-1.7.2-1.1.7-1.4 2.6-1.3 3.5.6 4.1.7 7.2.3 10.2-.9-.8-1.9-1.6-2.9-2.4-.3-.2-1.4-1-2.6-.8-.5.1-1 .4-1.3.8-.3.5-.4 1.1-.2 1.9.4 1.6 1.4 2.6 2.5 3.7.7.7 1.3 1.3 1.7 2 .4.7.5 1.5.7 2.4.2 1.1.5 2.3 1.2 3.4.7 1 1.6 1.7 2.5 2.4.4.3.8.6 1.1.8.4.4.8.8 1.2 1.3-.6.1-1.2.2-1.8.4-.6.1-1 .7-.9 1.3l3.3 17.2L110.3 64c-2.1-1.8-4.6-3.6-8.1-3.5v-.2c-.1-1.9-1.3-3.7-3-4.7-.4-.2-.8-.4-1.3-.5 1.8-3 2-4.3 2.4-8.5H100.6c3.4-.3 5.2-2.9 4.8-7-.1-1.4-.6-2.4-1.5-3.2-1.3-1.1-2.8-1-3.1-1h-.6v-2c.3-.2.7-.5 1.1-1 2-2.3 3.3-4.2 3.3-4.3.1-.1.1-.2.1-.3 0-.2.4-4.5-2.1-8.4-.3-.4-.5-.8-.7-1.2-1.9-2.9-2.9-4.5-6.9-4.7h-.1l-3.9.4c-.6.1-1.2.4-1.5.9-.2-.9-.6-1.6-.7-1.8 0-.1-.1-.1-.1-.2l-6.5-7.6c-2.1-2.4-4.7-1.7-5.9-1-1.1.4-7.9 2.6-11.7 4.1-4.6 1.7-5.8 5.8-5.9 6.3-.1.2-.6 1.8-.9 3.6-.8 3.7-.3 4.9.2 5.5.8 1 .8 1 1.1 4 .1.5.1 1.1.2 1.8.4 3.3 2.4 5.9 4 7.5-.4.1-.8.3-1.2.7-1.1.9-1.6 2.3-1.5 4.2.2 2.6.8 4.3 1.9 5.3.9.8 2.1 1 3.2 1h.1c.4 2.4.5 3.1.6 3.4.5 1.6 1.5 3.9 4.4 7.3-.5.4-1 .8-1.3 1.4-1.5-.4-3.5-.3-4.6.2-.3.2-.6.3-.9.5-.7.4-1.3.8-1.9.8-.4 0-.8-.2-1.3-.4-.3-.1-.5-.2-.8-.3-2.4-.8-5-.1-7.2.5l-.4.1c-3.1.9-6.2 1.4-9.4 1.8-1.3.1-2.3.2-3.2.1l-.4-.1c0-.3-.2-.5-.4-.7-.3-.2-.6-.3-.9-.3 0-.1-.1-.1-.1-.2-.3-.5-1-.6-1.5-.3h-.1c-.8-.8-1.2-2-1.7-3.5-1.5-4.7-3-9.4-4.4-14.1-.1-.3-.3-.6-.6-.7-.3-.1-.6-.2-.9 0-.4.2-.9.3-1.3.4-.2-1.3-.4-2.8-.2-4.2.1-.4.2-.9.2-1.4.2-1.1.5-2.3.3-3.5-.2-1.3-.8-2.3-1.4-3.3-.5-.8-.9-1.5-1.1-2.3-.2-.8-.2-1.7-.1-2.7.1-1.5.1-3-.6-4.4-.4-.7-.8-1.1-1.4-1.2-.5-.1-1-.1-1.5.2-1 .6-1.3 1.9-1.4 2.3-.2 1.2-.4 2.5-.6 3.8-2.8-2.3-5.2-5-7.2-7.9-.3-.5-1.3-1.9-2.7-1.6-.6.1-1 .4-1.4.9-.4.6-.5 1.5-.4 2.3v.1c-.2 0-.4.1-.6.2-.7.4-1.1.9-1.3 1.7-.1.6 0 1.1.1 1.6-.3 0-.6 0-1 .2-.5.3-.8.7-.9 1.3-.3 1.8 1.5 4.4 2.1 5.2 3.4 4.6 6.4 7.8 10.8 11.7.7.6 1.3 1.1 1.6 1.8.1.2.1.4.2.5-.8 0-1.7 0-2.5-.1-.3 0-.7.1-.9.4-.2.3-.4.6-.3.9 1.4 10.7 4.4 21.2 8.9 31 .9 2 1.9 4 3.8 5.3 2.1 1.5 4.8 1.7 7.3 1.8 5 .1 12.5-.3 15.5-.5 2.5-.2 4.9-.3 6.7-.5.8-.1 1.4-.1 1.8-.2 0 9.3 2.5 18.7 7.8 28.6.4.8 1 1.8 1.9 2.5 0 0 .1 0 .1.1.6 6 1.7 12.1 3.1 18.2-1.1.7-2.3 1.4-3.5 2.1-2.1 1.2-4.2 2.4-6.1 3.9-6.2 4.8-9.9 11.9-13 18.1-6.8 14-12.2 28.8-17.5 43.1-.1.3-.1.7.1 1 .2.3.5.5.8.6 2.3.4 4.4 1.5 6.4 2.8-1.5.6-3.2.6-4.9 0-1.6-.6-3-1.6-4.4-2.6-1.2-.8-2.4-1.6-3.7-2.3-3.2-1.6-7.8-2-10.3 1-.9 1-1.4 2.4-1.5 3.9-.5 4.8 2.9 8.7 6.1 10.9 2.4 1.5 5.1 2.5 7.8 2.9.2 0 .4 0 .5.1.7.1 1.3.2 1.9.4.8.3 1.4.9 2.1 1.5.3.3.6.5.9.8 2.3 1.8 5.2 2.9 8.1 2.9.4 0 .9 0 1.3-.1.2 0 .4-.1.5-.2 2.6-1.9 3-5.1 3.4-8.2.2-1.7.4-3.3.9-4.6 1.4.8 2.8 1.5 4.4 1.9.3.1.7.2 1.1.2.3 0 .6 0 .9-.2 1.3-.5 1.5-1.9 1.6-2.5.8-4.4 2-8.8 3.6-13.1 3.4-9 8.5-17.4 13.4-25.5 1.8-2.9 3.6-5.9 5.9-8.4.3-.3.5-.6.8-.8 1.3 4.9 2.8 9.7 4.3 14.4 1.1 3.4 2.3 6.7 4.7 9.2 2.3 2.4 5.3 3.8 8 5l15.9 7.2c6.3 2.8 12.8 5.8 19.9 7 .3 0 .7.1 1.1.1.5 0 1.1-.1 1.6-.4 1.1-.6 1.4-1.9 1.6-2.5.2-.6.3-1.2.5-1.8 1.1.7 2.1 1.3 2.7 2.6.9 2.2 1 4.6 1 7l.2 6.7c0 1.1.1 2.3.6 3.5.6 1.4 1.8 2.4 3.4 2.8.6.2 1.2.3 1.8.3 1.3 0 2.6-.4 3.7-1.1 2.4-1.6 3.8-4.5 4.1-8.2.1-1.9-.1-3.7-.2-5.5-.1-1-.2-2-.2-3-.1-2.1.1-4.2.4-6.2 0-.2.1-.6.2-1zM119.9 51.8c-.8-.6-1.5-1.1-2-1.9-.5-.7-.7-1.7-.9-2.7-.2-1-.4-2-.9-3s-1.3-1.8-2.1-2.5c-.9-.9-1.7-1.7-1.9-2.7v-.1c.2 0 .4.2.7.4 1.9 1.4 3.6 3 5.2 4.6.2.2.4.3.6.3.1 0 2.3.5 3 3.7.1.6.7.9 1.3.8.6-.1.9-.7.8-1.3-.9-3.8-3.4-4.9-4.4-5.2l-.5-.5c.9-4.6.5-8.8 0-12.3-.1-.4.1-1.1.3-1.4.3 0 .7.3.9.5.2.6.2 3.7.1 5v1.7c0 .5.1.9.1 1.2 0 .2 0 .3.1.4.1.8.8 1 1.1 1 1 0 1.1-1.1 1.1-1.5v-1.5c0-1 .2-3.9.5-5.2.2.3.4.7.4 1.2 0 1 .2 2.7.3 4.6.1.8.1 1.5.2 2 .1 1.1.2 1.4.7 1.7.3.2.7.2 1.1 0 .5-.3.5-.8.5-1.3 0-.8.2-4.3.6-5.9.2.3.5.7.5.9.1.4.1.8.1 1.2v.4c.2 2.6.4 4.8.3 7-1.7-1.2-4.7-3.2-6.8-2.9-.3 0-.6.4-.5.7s.4.6.7.5c1.8-.3 5.1 2 6.6 3.2-.1 2.2-.2 4.4-.5 6.9v.1c-.1 1-.3 2.2.1 3.3.2.5.4 1 .7 1.4-1.6.2-3.1.4-4.7.6-.6-.9-1.3-1.7-2.2-2.4-.4-.4-.8-.7-1.2-1zm-19-13.9c.1 0 .9 0 1.5.4.4.3.6.9.7 1.6.3 4.1-1.9 4.5-2.7 4.5h-.1v-.5c0-.1 0-.2-.1-.3h.1c.1 0 .3.1.4.1.7 0 1.5-.5 1.8-1.2.3-.6.3-1.3.1-2.2-.2-.7-.4-1.2-.8-1.6-.4-.4-1-.7-1.6-.6v-.2h.7zM76 19.2c1.1-.6 2.1-1.2 3-1.8 3.8-2.4 7.2 1.1 7.3 1.2.3.3.7.4 1.2.3.4-.1.7-.3 1-.5.1.2.2.3.3.4.1.1 3.2 1.9 5.3 2.3.2 0 .4.2.7.5.7.9 1.2 1.8 1.6 2.8.1.1.1.3.2.4.9 2.5 1.3 5.2 1.1 7.5v.2c0 .1.1.3.3.6v.1l-4.6 1.7c-.7-1.5-2.3-2.6-4.1-2.6-2.1 0-3.9 1.5-4.3 3.4-.4-.2-.9-.4-1.5-.4-.3 0-.5-.1-.8-.1v-.6c0-.4-.3-.7-.7-.7-.4 0-.7.3-.7.7v.7c-.1 0-.2 0-.2.1-.4.1-.7.3-1 .5-.6-1.7-2.3-3-4.2-3-2.2 0-4.1 1.6-4.4 3.8l-5-.2c-.5-2.5-.5-6.8-.5-7.6 1.2-4.7 5.9-7.4 10-9.7zM92.2 37c0 1.7-1.4 3-3 3s-3-1.4-3-3 1.4-3 3-3c1.4 0 2.5.9 2.9 2.1V36.4c.1.2.1.4.1.6zm-13.4.7c0 1.7-1.4 3-3 3s-3-1.4-3-3 1.4-3 3-3 3 1.3 3 3zM68.3 51.3c-.1-.2-.2-.9-.7-3.8v-.2c0-.1 0-.2-.1-.3-.1-.4-.1-.9-.2-1.5s-.7-1.1-1.3-1c-.6.1-1.1.7-1 1.3 0 .1 0 .3.1.4-.7 0-1.1-.2-1.5-.5-.7-.6-1-1.8-1.1-3.7 0-.8 0-1.8.6-2.3.3-.2.7-.3 1.1-.4v.1c0 .1 0 .2.1.3-.1 0-.2.1-.2.1-.8.6-1.2 1.7-1.1 2.7.1 1 .7 1.9 1.7 2.4.1 0 .2.1.3.1.3 0 .5-.1.6-.4.2-.4 0-.8-.3-.9-.5-.2-.8-.7-.9-1.2-.1-.5.2-1.1.6-1.4.2-.1.3-.4.3-.6h.2c.6-.1 1.1-.7 1-1.3.2-.2.3-.5.3-.9l4.5.2c.4 2.1 2.2 3.7 4.4 3.7 2.3 0 4.2-1.8 4.4-4.1V38c.2-.4.5-.7 1-.9l.1 2.8c0 1 .6 1.3.9 1.4h.2c.3 0 .6-.2.7-.5.1-.3 0-.6-.3-.8v-.1l-.1-3h.6c.7.1 1.3.4 1.4.8 0 .2.1.3.3.4.5 1.9 2.2 3.3 4.3 3.3 2.5 0 4.4-2 4.4-4.4v-.5l4.3-1.6v3.8c0 .6.5 1.1 1.1 1.1.3 0 .5-.1.7-.3h.4c.2 0 .4 0 .6.2.2.2.3.5.5.9.1.5.1.9 0 1.2-.1.2-.4.4-.6.4-.4-.1-.8.1-.9.5v.2c-.2-.1-.4-.2-.7-.2-.6 0-1.1.5-1.1 1.2v1.9l-.1.7c-.5 5.1-.5 5.3-4.1 10.6-.4.6-.9 1.2-1.5 1.8-.5.4-.5 1.2 0 1.6.2.2.5.3.8.3.3 0 .6-.1.8-.3.6-.6 1.1-1.2 1.6-1.9v.1c.1.4.5.6.9.5.1 0 .2.2.2.4 0 .4-.4.8-.7 1-1.7 1.6-4.1 2.8-7 3.4-2.6.5-5.3.5-8.1.5-2.1 0-3.9-.1-5.7-.5-.5-.1-1.1-.3-1.5-.7-.2-.3-.3-.7-.1-.9.2-.2.3-.4.2-.6.7.4 1.4.8 2.3 1.2.2.1.3.1.5.1.4 0 .9-.3 1.1-.7.3-.6 0-1.3-.6-1.5-2.2-1-3.7-2.1-4-2.4-3-3.3-4.1-5.7-4.6-7.2zm-49.6-9.7c-2.5-2.2-4.4-4-6.2-6.1v-.2c-.3-2 2.3-5.8 3.3-7.1.2-.3.2-.7-.1-.9-.3-.2-.7-.2-.9.1-.4.4-3 3.9-3.5 6.7-1-1.2-2.1-2.5-3.1-4-.8-1.1-1.5-2.4-1.7-3.1.9.5 2.5 2 3.3 3 .4.5.7.9 1.4.8.4-.1.7-.3.8-.7.2-.5 0-.9-.4-1.4-.2-.3-.5-.7-.8-1.1-.3-.5-1.2-1.7-2.1-2.7-.3-.4-.5-1-.5-1.3.4.3 1.4 1.2 3.3 3.5.1.1.1.2.2.2.2.2.3.4.4.5.8.8 1.5.2 1.6.2.7-.6.2-1.5 0-1.8-.2-.3-.4-.6-.6-1-.6-.9-1.2-1.8-1.8-2.4-.5-.7-1.1-1.4-1.3-2.1-.1-.2 0-.5 0-.6.1.1.3.2.6.7 2.4 3.6 5.3 6.7 8.7 9.3v.7c-.5.9-1.6 3.3.3 6.8.3.5.9.7 1.4.4.5-.3.7-.9.4-1.4-1.6-2.9-.3-4.7-.2-4.8.1-.2.2-.4.2-.6.1-2.3.3-4.7.8-6.9.1-.3.2-.6.3-.8v.1c.5.9.4 2.1.4 3.3 0 1.1-.1 2.2.2 3.3.3 1.1.8 2 1.3 2.8.5.9 1 1.7 1.1 2.6.1.8-.1 1.8-.3 2.7l-.3 1.5c-.2 1.8 0 3.5.3 5.1-1.4.3-2.8.6-4.2.7-.1-.4-.2-.9-.4-1.3-.2-1.3-1.1-2.1-1.9-2.7zm42.9 41.3c0-.2 0-1.5-1-1.7-.3-.1-.6-.1-.9.1-1.8.3-16.7 1.4-24.3 1.3-2.3 0-4.4-.2-6.1-1.3-1.4-1-2.3-2.7-3-4.4-4.2-9.2-7.1-19-8.6-29h.6c0 .5 0 .9.1 1.4 0 .4.4.6.7.6h.1c.4-.1.7-.4.6-.8-.1-.4-.1-.8-.1-1.2.4 0 .9 0 1.3-.1 0 .4.1.9.3 1.3.1.3.4.5.7.5h.2c.4-.1.6-.5.5-.9-.1-.3-.2-.7-.2-1.1.9-.1 1.8-.3 2.7-.5v.3c0 .4.3.7.6.8h.1c.4 0 .7-.3.7-.6v-.7c.6-.1 1.1-.3 1.7-.5 1.3 4.4 2.7 8.7 4.1 13 .5 1.5 1.1 3.3 2.5 4.6l.2.2.4.3s-.1 0-.1.1c-1.1.6-2 1.6-2.5 2.8-.1.4.1.8.4.9h.2c.3 0 .6-.2.7-.5.3-.9 1-1.6 1.8-2 .3-.2.5-.6.3-1 0 0 0-.1-.1-.1.2.2.4.3.7.4h.1c.1.2.2.4.4.5.3.2.7.3 1.1.2l.7.1h.1c1.1.1 2.2.1 3.7-.1 3.3-.3 6.6-1 9.8-1.8l.4-.1c2-.6 4.1-1.1 5.9-.5.2.1.4.2.7.3.6.3 1.3.6 2.1.6h.1v.1c0 1.3.3 2.6 1 3.7.1.2.4.3.6.3.1 0 .3 0 .4-.1.3-.2.4-.6.2-1-.6-.9-.8-1.9-.8-2.9 0-.1 0-.2-.1-.3.6-.2 1.2-.5 1.7-.9.3-.2.5-.3.7-.4.7-.4 2.1-.1 2.3.2.1.2.2.3.4.4 0 .9.3 1.8.8 2.6.5.9 1.3 1.8 2.4 2.6.1.1.3.1.4.1.2 0 .4-.1.6-.3.2-.3.2-.8-.2-1-.9-.7-1.6-1.4-2.1-2.1-.4-.6-.6-1.3-.6-2 .4-.3.5-.9.3-1.4.3-.6.7-1 1.2-1.4l.1.1s.5.4 1.3 1c-.1 0-.1.1-.2.1-.9.8-.7 2.1 0 2.9.6.7 1.5 1 2.2 1.2 1.9.4 3.9.5 6 .5h1c2.5 0 5-.1 7.4-.6 3.1-.6 5.8-1.9 7.7-3.7.5-.5 1.1-1.1 1.1-2 0-.6-.2-1.1-.7-1.5-.1-.5-.5-.7-1-.5H96c.1-.2.3-.4.4-.6.5 0 1.1.2 1.6.4 1.1.6 1.8 1.7 1.8 2.8 0 1.1-.7 2.2-1.6 2.5-.6.2-.9.9-.7 1.5.2.5.6.8 1.1.8.1 0 .2 0 .4-.1 1.1-.4 2-1.2 2.5-2.2 2.5-.3 4.6.5 7.2 2.8l12.8 11.4h.1c.1.1.1.1.2.1l.5.3c.1 0 .2.1.4.1-.1 1-.1 2.1.2 3.1.1.3.4.5.7.5h.2c.4-.1.6-.5.5-.9-.2-.8-.3-1.7-.2-2.6 0-.2 0-.4-.1-.5.4-.2.6-.5.6-1 0-.3 0-.7-.2-1l-.2-.5-3.5-16.9c.4-.1.8-.2 1.3-.3 0 .5 0 1 .1 1.4 0 .4.4.6.7.6h.1c.4-.1.7-.4.6-.8-.1-.5-.1-1-.1-1.5.4-.1.9-.1 1.3-.2 0 .6.1 1.2.3 1.7.1.3.4.5.7.5h.2c.4-.1.6-.5.5-.9-.1-.5-.2-1-.2-1.5.9-.1 1.8-.2 2.8-.3v.6c0 .4.3.7.6.8h.1c.4 0 .7-.3.7-.6v-.8c.5 0 1-.1 1.5-.1l7.8 29.7c.5 1.8 1 3.7.8 5.5-.1 1.4-.7 3.2-2.1 4.1-.9.5-2 .7-2.9.8-9.4.8-19.9-5.1-29-10.7-.5-.3-1.2-.2-1.6.4-.3.5-.2 1.2.4 1.6.4.3.9.5 1.3.8l3.6 21.8c-1.1.8-2.3 1.4-3.6 1.9 0-.2 0-.4-.1-.5-.1-.4-.4-.7-.8-.6-.4.1-.7.4-.6.8 0 .3.1.5.1.8-.9.3-1.8.5-2.7.7 0-.3-.1-.6-.3-.9-.2-.4-.6-.5-.9-.3-.4.2-.5.6-.3.9.1.2.1.4.1.6-1.7.3-3.5.4-5.3.5 0-.5-.1-1-.3-1.4-.1-.4-.5-.6-.9-.4-.4.1-.6.5-.4.9.1.3.2.7.2 1h-3.8c-2 0-4.1-.1-6.1-.2-.1-.5-.1-.9-.1-1.4 0-.4-.3-.7-.7-.7-.4 0-.7.3-.7.7 0 .4 0 .9.1 1.3-1.6-.1-3.2-.1-4.8-.2-.4-.6-.5-1.3-.3-1.9.1-.4-.2-.8-.5-.8-.4-.1-.8.2-.8.5-.2.7-.1 1.5.1 2.2-.9-.1-1.7-.1-2.6-.2-.2-.5-.4-1-.4-1.5 0-.4-.4-.7-.8-.6-.4 0-.7.4-.6.8 0 .4.1.9.3 1.3-.8-.1-1.5-.2-2-.6-.5-.4-.9-1.1-1.2-1.7-5.5-10.3-8-19.6-7.9-28.7zM43.8 221.1c-.6.1-1.3.2-1.9.2-1.9 0-3.8-.5-5.5-1.5-.7-.4-1.4-.9-2-1.4-.7-.5-1.4-1-2.1-1.4-1-.5-2.2-.8-3.5-1.1l-.3-.1c-2.6-.6-5.7-1.5-8.1-3.4-2.8-2.2-4.2-5.5-3.6-8.4.1-.6.7-1 1.4-.9.6.1 1 .7.9 1.4-.5 2.4 1 4.8 2.7 6.1 2.1 1.6 4.8 2.4 7.2 3l.3.1c1.3.3 2.7.7 4 1.3.9.5 1.6 1 2.4 1.6.6.4 1.2.9 1.8 1.2 1.7 1 3.8 1.4 5.8 1 .6-.1 1.2.3 1.3.9.3.6-.2 1.2-.8 1.4zm1.4-8.3c-3.5-.6-6.8-2.1-9.9-3.7 1.2-.2 2.8 0 3.3-1 .1-.3.1-.5 0-.7 1-.2 1.9-.6 2.8-1.1.5.3.9.7 1.4 1.1 1.1.8 2.1 1.6 3.3 2.4-.4.8-.7 1.9-.9 3zm32-50.9c-2.5 2.7-4.3 5.7-6.1 8.7-5 8.2-10.1 16.7-13.6 25.9-1.6 4.4-2.9 8.9-3.7 13.5-.1.5-.2.7-.2.8-.1 0-.2 0-.4-.1-3.2-.9-6-3-8.8-5.2-2.9-2.2-6-4.5-9.6-5.5 5.1-13.9 10.4-28.2 17-41.7 2.9-6 6.5-12.8 12.3-17.3 1.8-1.4 3.9-2.6 5.9-3.8 1.4-.8 2.9-1.7 4.4-2.7 2.2-1.5 3.9-3 5.3-4.7.4-.5.3-1.2-.2-1.6-.5-.4-1.2-.3-1.6.2-.9 1.1-2.1 2.2-3.5 3.3-1.2-5.4-2.2-10.7-2.7-15.9.5.1 1 .1 1.4.1 5.8.4 11.7.7 17.6.8h2c6.1 0 12.7-.5 18-3.8.7 2.3 1.4 5.9 2.2 9.6 1.6 7.8 0 15.2-4.1 19.8-2.4 2.6-5.8 4.1-9.1 5.6-.4.2-.7.3-1.1.5-3.9 1.8-7.8 3.8-11.5 6.1-3.3 1.8-7 4.1-9.9 7.4zm57.5 40c-.1.3-.3 1-.6 1.2-.3.2-.9.1-1.2 0-6.7-1.1-13.1-4-19.3-6.8l-15.9-7.2c-2.6-1.2-5.4-2.4-7.3-4.5-2-2.2-3.1-5-4.2-8.3-1.7-5.1-3.2-10.3-4.6-15.5 2.1-1.8 4.5-3.3 6.6-4.5 3.6-2.2 7.4-4.2 11.3-5.9.4-.2.7-.3 1.1-.5 1.5-.7 3.1-1.4 4.6-2.2l1.8 21.5c.1.7.1 1.5.7 2.3.5.7 1.3 1.1 1.8 1.3l26.4 12.1c.2.1.6.3.7.4 0 .1.1.4.1.5.1 5.4-.5 10.9-2 16.1zm9.4 1.1c-.6 0-.2-1.3-.9-1.7-.6-.3-1.2-.3-1.7-.1-.8-1.2-1.9-1.9-2.9-2.5-.2-.1-.5-.3-.7-.4.6-2.9.9-5.8.9-8.7 2.2.4 4.4.6 6.6.7v10.1c0 1-.4 2.5-1.3 2.6zm8.6 4.7c.2 1.4.3 2.8.3 4.2 0 4.1-1.5 7.4-4.1 9-.2.1-.4.2-.6.2-.4 0-.8-.2-1-.5-.3-.5-.2-1.2.4-1.6 1.9-1.2 3-3.8 3-7.1 0-1.3-.1-2.6-.3-3.9-.2-1.7-.4-3.5-.3-5.3.1-1.1.2-2.3.4-3.4.4-2.6.8-5.1-.3-7.1-.3-.6-.1-1.3.5-1.6.6-.3 1.3-.1 1.6.5 1.5 2.7 1 5.7.6 8.6-.2 1.1-.3 2.1-.4 3.1-.1 1.6 0 3.2.2 4.9z"/>
  <path d="M127.3 81.9c-.3 0-.6-.2-.7-.5-.3-1-1-2-1.9-2.6-.3-.2-.4-.7-.2-1 .2-.3.7-.4 1-.2 1.2.8 2 2 2.5 3.3.1.4-.1.8-.4.9-.2.1-.3.1-.3.1zM81.9 55.9c-1.7 0-3.3-.7-4.3-1.8-.6-.7-.9-1.6-.7-2.3.1-.5.5-1 1-1.3.6-.3 1.3-.4 2-.2.3.1.5.3.7.4.2.1.3.2.4.2 1.4.4 2.2-.1 2.5-.4.3-.3.6-.5.9-.6.5-.2.9-.3 1.4-.4.8-.1 1.4.1 2 .4.8.5 1.3 1.7 1 2.7-.2.8-.8 1.4-1.5 1.8-1.4.7-3.3 1.3-5 1.4-.1.1-.3.1-.4.1zm-2.8-4.2c-.2 0-.4 0-.5.1-.1.1-.3.2-.3.4-.1.3.1.7.4 1 .8.9 2.1 1.4 3.6 1.3 1.5-.1 3.2-.5 4.4-1.2.4-.2.7-.6.8-1 .1-.4-.1-.9-.4-1.1-.4-.2-.9-.2-1.2-.2-.3 0-.7.1-1 .3-.2.1-.3.2-.5.3-.4.4-1.6 1.4-3.8.8-.3-.1-.6-.3-.8-.4-.1-.1-.3-.2-.4-.2-.1-.1-.2-.1-.3-.1z"/>
</svg>
