<svg xmlns="http://www.w3.org/2000/svg" width="316" height="528">
  <path d="M314.5 38.2c.9-2.9.3-5.3-1-7 .2-1 .2-1.9 0-2.9-.3-2-1.4-3.8-3.1-4.9-.1-1.7-.6-3.3-1.4-4.6-1.2-1.8-3-3-5-3.3-.4-.1-.8-.1-1.2-.1-4.4 0-6.8 3.7-7.6 4.9-2.8 4.2-6.1 8.1-9.7 11.6l-.3-1.8c-.3-1.4-1.3-5-4.3-6.9-1.2-.7-2.5-1.1-3.8-1.1-.6 0-1.3.1-1.9.3-1.5.4-3.5 1.4-5 4.2-2 3.7-1.8 7.6-1.7 10.8.1 1.8.2 3.3-.1 4.5-.3 1.1-1 2.4-1.9 3.8-1.3 2.2-2.8 4.7-3.3 7.9-.5 3.1.1 5.9.6 8.4.1.6.3 1.2.4 1.8-1.2.2-2.3.9-3.1 1.9-2.7 3.2-5.5 6.7-8.9 10.8-.7.5-1.3 1.2-1.6 2-15.3 18.9-30 38.6-43.6 58.3-4.4 6.4-9.2 12.7-15 13.6-1.2-1.4-2.5-2.8-3.8-4.1 4.8-6.2 6.7-10.9 7.7-14 .2-.7.6-2 1.1-5.7 2.6-.3 4.8-1.3 6.6-2.8 3.3-2.8 5-7.2 5.4-13.9.4-6.3-2-9.8-4.1-11.7.6-2.3.7-4.5.7-6.4 0-8.8-1.9-17.6-5.4-25.7-1.4-3.1-3.2-6.7-6.5-9.4-1.4-1.1-3-2-4.7-2.5-1.8-2.3-4.3-3.9-7-4.3-4.1-3.9-9.9-6.1-16.5-6.4h-1.2c-5.8 0-11.1 1.4-16.3 2.7l-.4.1c-7.1 1.8-13.4 3.3-19.9 3.5h-1.4c-4.4 0-10.7-.7-16-4.1l-5.1-3.3c-.7-.4-1.4-.6-2.2-.6-1 0-2 .4-2.7 1.1-1.3 1.3-1.7 3.3-.8 4.9l2.9 5.3c1.3 2.4 2.3 5.1 3.3 8 .9 2.5 1.8 5.2 3 7.8 1.2 2.6 2.7 5 4.5 7.3-1.3 4.6-2.4 9.9-2.9 13.7-.1 1-.2 2.1-.1 3.3-1 .4-2 1-3 1.8-2.5 2.1-4.1 5.3-4.4 9.1-.8 10 3.6 16.9 11.7 18.5.9 9.5 1.8 12.2 8 21.6-.6.3-1.2.7-1.7 1.2-1.9 1.8-3.5 3.3-5 5.1-7-2.5-19.6-9.7-22-11.7-2.9-5.1-5.8-9.9-8.6-14.6l-.1-.1C71.3 101 59.4 81 55.3 52.4c-.3-2-1.7-3.7-3.6-4.4.1-.4.2-.9.3-1.4.5-2.5 1.1-5.3.6-8.4-.5-3.2-2-5.7-3.3-7.9-.9-1.5-1.6-2.7-1.9-3.8-.3-1.2-.2-2.7-.1-4.5.1-3.1.3-7-1.7-10.8-1.5-2.7-3.5-3.8-5-4.2-.6-.2-1.3-.3-1.9-.3-1.3 0-2.7.4-3.8 1.1-3 1.9-4 5.5-4.3 6.9l-.3 1.8c-3.6-3.5-6.9-7.4-9.7-11.6-.6-1.2-3-4.9-7.4-4.9-.4 0-.8 0-1.2.1-2.1.3-3.8 1.5-5 3.3-1 1.3-1.4 3-1.5 4.6-1.7 1.2-2.8 2.9-3.1 5-.1.9-.1 1.9 0 2.9-1.3 1.7-1.9 4.2-1 7-.7 1.3-1 2.7-.9 4.1.1 2.9 1.7 5 2.6 6.1 6 8.1 11.3 14 18.2 20.5-.5 1-.7 2.2-.6 3.3.7 4.8 1.1 9.1 1.4 12.4v.3c0 .4 0 .8.1 1.2l.3 3.9c.9 12.1 1.6 22.5 7.4 36.4 10.6 25.2 22.5 53.6 44.9 73.3-7.4 2.9-12.6 7.6-18.1 13.2l-1 1c-5.8 5.8-6.1 6.2-11.9 15.6l-.3.4c-1 1.6-1.1 3.6-.2 5.3 2.7 5.3 5.1 10.9 6.7 14.8.6 1.6 2 2.9 3.6 3.3.5.1 1 .2 1.5.2 1.2 0 2.4-.4 3.3-1.1 6.4-4.9 10-6.5 16.4-9.1 1.8-.7 3-2.4 3.3-4.2 1.9-12.2 7.8-21.3 16.8-25.9 2.6 1.3 5.2 2.4 7.8 3.4 2.4 9.4 2.8 15.5 2.3 16.8-.4.9-.5 1.9-.4 2.8l-.3 1.2c-2 16.2-3.5 35.3.6 54.4-.2.5-.3 1-.3 1.5l-.7 10.7c-1.1 7.1-1.8 14.5-2.1 22.7v.7c-.7 19.7 1.1 39.3 2.9 58.3 2.3 24.8 4.7 50.4 1.4 75.1-.1.7 0 1.5.2 2.2l1.5 5.2-.3 34c0 1.9-.1 6.9 2.8 10.6-2 11.2 4.6 23.5 15.4 28.5 2.7 1.2 5.3 1.9 7.7 1.9 1.3 0 2.5-.2 3.7-.5 6.6-1.9 9.5-8.4 11.1-11.9 1.9-4.1 3.9-8.8 5.1-13.7 1-.3 1.8-.7 2.6-1.4 2.4-2 2.7-4.8 2.8-5.9.4-3.6.9-7 1.5-10.4 1.1-6.6 2.1-12.8 2-19.9l.1-.6c2.9-15.2 4-30.1 5-44.6.5-6.6 1-13.6 1.7-20.9 2.7 6.4 5.9 11.9 9.7 16.7 1.7 2.8 5.2 4.8 10.5 5.9 1.6.3 3.3.6 5.2.7 5.8 10.3 14.1 12.6 20.3 12.6 5.7 0 10.5-2 11.8-2.7.4-.2.8-.5 1.1-.8 6.5-6.4 3.7-23.7 1.7-32.3.9-1.5 1.7-3.3 2.5-5.4 1.5-4.1 1-9.2.5-13.7-.1-1.1-.2-2.1-.3-3-1.3-20.1-8.3-39.1-15.1-55.1l-4.9-48c0-.2 0-.4-.1-.5.5-14.9.1-26.8-1.4-38.4v-.2-.2c-1.1-5.1-1.4-9.6-1.8-14.3-.3-3.3-.6-6.5-1-10 .1-.7 0-1.4-.2-2.1l-.2-.5-.1-.3c-.8-2.4-1.3-4.3-1.6-5.9 24.9-10.8 38.4-32.7 52.6-55.8l.9-1.4c4.4-7.1 8.4-14.3 12.3-21.2 3.8-6.9 7.8-13.9 12.1-20.9.1-.2.3-.5.4-.8l9.9-23.6c.6-1.5.6-3.2-.2-4.6-.2-.4-.5-.8-.8-1.2 8-7.3 13.7-13.6 20.4-22.5.8-1.1 2.4-3.2 2.6-6.1-.3-1.6-.6-3-1.3-4.3z" fill="#fff"/>
  <path d="M127.6 109.6c-.4 0-.8-.1-1.2-.3-1-.4-1.8-1.3-2-2.4-.3-1.4.2-2.9 1.4-4.2.4-.4 1-.5 1.5-.4 0-.3-.1-.6-.2-.9-.2-.8.3-1.6 1.2-1.8.8-.2 1.6.3 1.8 1.2.3 1.5.5 3.1.5 4.7 0 .6 0 2.6-1.6 3.5-.4.5-.9.6-1.4.6zm0-4.3c-.3.4-.4.8-.3 1 0 .1.1.2.2.2 0-.1.1-.4.1-.9v-.3zM156.4 124.7c-.7 0-1.3-.4-1.4-1.1-.2-.7.1-1.4.8-1.7 0-.1.1-.3.1-.6l.4-13c0-.8.7-1.5 1.5-1.4.8 0 1.5.7 1.4 1.5l-.4 13c-.1 2.4-1.3 3.1-2 3.3h-.4zM196 115.7c-.6 0-1.1-.3-1.3-.8-.4-.7-.1-1.6.7-2 1.1-.5 1.9-1.6 2-2.8s-.4-2.4-1.3-3.2c-.6-.5-.7-1.5-.2-2.1.5-.6 1.5-.7 2.1-.2 1.7 1.4 2.7 3.6 2.4 5.9-.2 2.2-1.6 4.2-3.6 5.2h-.8zM115 113c-1.6 0-3.2-1-3.9-2.7-.6-1.3-.7-2.9-.2-4.8.4-1.5 1-2.6 1.8-3.4 1.2-1.2 2.9-1.7 4.3-1.2.8.2 1.2 1.1 1 1.9-.2.8-1.1 1.2-1.9 1-.4-.1-1 .1-1.4.5-.4.4-.8 1.1-1 2.1-.3 1.2-.3 2.1 0 2.8.3.6.9 1 1.4.9.8-.2 1.6.3 1.8 1.1.2.8-.3 1.6-1.1 1.8-.2-.1-.5 0-.8 0z"/>
  <path d="M184.6 202.8c-.6 0-1.2-.4-1.4-.9-2.3-5.9-3.9-12-4.6-18.2-.1-.8.5-1.6 1.3-1.7.8-.1 1.6.5 1.7 1.3.7 6 2.2 11.9 4.4 17.5.3.8-.1 1.6-.8 1.9-.2 0-.4.1-.6.1zM134.7 224.5c-.4 0-.8-.2-1.1-.5l-19.3-20.3c-.6-.6-.5-1.5.1-2.1.6-.6 1.5-.5 2.1.1l19.3 20.3c.6.6.5 1.5-.1 2.1-.2.3-.6.4-1 .4z" fill="#231815"/>
  <path d="M145 99.8h-.6l-8.5-.2c-.8 0-1.5-.7-1.5-1.5s.7-1.5 1.5-1.5l8.5.2c.5 0 1.1 0 1.5-.1.2-.1.3-.2.3-.2 0-.8.7-1.4 1.6-1.4.8 0 1.4.8 1.4 1.6-.1 1.2-.9 2.3-2.2 2.8-.6.2-1.3.3-2 .3zM175.5 100.8h-.4c-1.9-.5-3.8-1-5.6-1.7-2.1-.7-2.6-1.9-2.6-2.8 0-.8.6-1.5 1.4-1.5.8 0 1.4.5 1.5 1.2.1.1.3.2.6.3 1.8.6 3.6 1.1 5.4 1.6.8.2 1.3 1 1.1 1.8-.1.7-.7 1.1-1.4 1.1zM153.9 143.4c-.6 0-1.3 0-2-.1-5.3-.3-9-2-11-5-2.9-4.2-1.2-9.4-1.1-9.7.2-.6.7-1 1.4-1 .6 0 1.2.4 1.4.9.5 1.4 1.1 2.7 2.2 3.1.3.1.7.2 1.1.2 7.5.9 15.2 1 22.8.4.5 0 .9.1 1.3.5.3.4.4.9.3 1.3-.2.6-2.5 9.4-16.4 9.4zm-11.7-9.7c.1 1 .5 2 1.1 3 1.5 2.2 4.4 3.4 8.7 3.6 8.8.5 12.6-2.6 14.2-4.8-6.9.5-13.9.3-20.8-.6-.5-.1-1.2-.1-1.8-.4-.5-.2-1-.4-1.4-.8z"/>
  <path d="M60.5 201.5c-6.6 6.6-6.2 6-12.4 16 2.7 5.5 5.3 11.2 6.9 15.3 6.9-5.3 11-7.1 17.6-9.9C74.9 208 82.7 197 94.4 192c3.7-1.6 7.5-2.5 11.2-3-3.9-1.5-7.8-2.6-11-2.5-17.8.4-24.4 5.4-34.1 15zM163.8 182.7c-.1-2.9-.2-2.4-1.6-4.9-.3-.6-2 1.1-2.5.7-2.8-2-4.6-8.3-6.5-5.7-1 1.4-5.8 5.9-5.5 7.6.3 1.7 1.1 3.2 1.8 4.7.3.5.6 1.1 1.1 1.3.3.1.6.1.9.1h1.3c-5.3 8.8-15.5 7.1-22.2 5.4-8.7-2.2-16.9-3.6-25-2.7 6.1 2.3 12.5 5.6 17.2 7.3 7.7 2.8 14.9 5.1 22.9 3.7 7.4-1.3 13.3-7.5 14.7-14.9.8-.2 1.6-.5 2.3-.8.3-.1.6-.3.9-.5.2-.4.2-.9.2-1.3z" fill="#006198"/>
  <path d="M129 194.1c.5 0 1 .4 1 1 0 .5-.4 1-1 1-.5 0-1-.4-1-1s.4-1 1-1z"/>
  <circle cx="92.6" cy="189.4" r="1"/>
  <path d="M80.5 194.1c.5 0 1 .4 1 1 0 .5-.4 1-1 1-.5 0-1-.4-1-1s.5-1 1-1zM72.4 194.1c.5 0 1 .4 1 1 0 .5-.4 1-1 1-.5 0-1-.4-1-1 .1-.6.5-1 1-1zM76.5 199.6c.5 0 1 .4 1 1 0 .5-.4 1-1 1-.5 0-1-.4-1-1s.4-1 1-1zM68.4 199.6c.5 0 1 .4 1 1 0 .5-.4 1-1 1-.5 0-1-.4-1-1s.5-1 1-1zM72.4 205.3c.5 0 1 .4 1 1 0 .5-.4 1-1 1-.5 0-1-.4-1-1 .1-.6.5-1 1-1zM64.4 205.3c.5 0 1 .4 1 1 0 .5-.4 1-1 1-.5 0-1-.4-1-1s.4-1 1-1zM68.4 210.7c.5 0 1 .4 1 1 0 .5-.4 1-1 1-.5 0-1-.4-1-1 0-.5.5-1 1-1z"/>
  <circle cx="60.3" cy="211.7" r="1"/>
  <path d="M64.4 216.7c.5 0 1 .4 1 1 0 .5-.4 1-1 1-.5 0-1-.4-1-1s.4-1 1-1z"/>
  <circle cx="56.3" cy="217.6" r="1"/>
  <path d="M60.3 222.2c.5 0 1 .4 1 1 0 .5-.4 1-1 1-.5 0-1-.4-1-1 .1-.6.5-1 1-1zM56.3 227.8c.5 0 1 .4 1 1 0 .5-.4 1-1 1-.5 0-1-.4-1-1s.5-1 1-1z"/>
  <path d="M234.2 132.5c-.6 0-1.1-.3-1.3-.8-.5-1.1-1.4-1.9-2.5-2.4-.8-.3-1.1-1.2-.8-2 .3-.8 1.2-1.1 2-.8 1.7.7 3.2 2.1 4.1 3.8.4.7.1 1.6-.7 2-.4.2-.6.2-.8.2zM231.6 135.7c-.3 0-.6-.1-.8-.3-.6-.4-1.3-.5-2-.4-.8.2-1.6-.3-1.8-1.1-.2-.8.3-1.6 1.1-1.8 1.5-.4 3.1-.1 4.4.8.7.5.8 1.4.4 2.1-.4.5-.8.7-1.3.7zM69.2 129.3c-.4 0-.9-.2-1.2-.6-.5-.6-.4-1.6.2-2.1l3.2-2.6c.6-.5 1.6-.4 2.1.2.5.6.4 1.6-.2 2.1l-3.2 2.6c-.2.3-.5.4-.9.4zM71.9 134.5c-.3 0-.6-.1-.9-.3-.7-.5-.8-1.4-.3-2.1l2.4-3.3c.5-.7 1.4-.8 2.1-.3.7.5.8 1.4.3 2.1l-2.4 3.3c-.3.4-.8.6-1.2.6z" fill="#231815"/>
  <path d="M177.3 112c.6.8 1.6 1.1 2.6 1.2 1 .1 2 0 2.9.2.9.3 1.8.8 2.5 1.4 1 1 .2 2.8-.2 3.1-.5.3-1.2.3-1.8.5-.8.2-3.6-.3-4.1-.6-1.9-.9-2.8-2.5-3.2-3.2-.4-.7-.5-1.5-.3-2.2" fill="#00a0f9"/>
  <path d="M186.3 113.7c-.9-.9-2-1.5-3.1-1.8-.8-.2-1.7-.2-2.4-.2h-.8c-.7 0-1.3-.2-1.5-.5.1-.1.1-.3.2-.4.2-.8-.2-1.6-1-1.9-.8-.2-1.6.2-1.9.9-.1 0-.3.2-1.1.3-1.6.2-3.3.2-4.9 0-1-.1-1.6-.3-1.8-.6-.5-.7-1.4-.9-2.1-.4-.7.5-.9 1.4-.4 2.1 1 1.5 2.7 1.8 3.9 2 1 .1 1.9.2 2.9.2.6 0 1.1 0 1.7-.1 0 .7.2 1.5.6 2.2.4.8 1.5 2.7 3.9 3.8.5.2 2.8.7 4.2.7.3 0 .6 0 .9-.1.1 0 .3-.1.4-.1.5-.1 1.2-.2 1.8-.6.8-.5 1.2-1.8 1.3-2.8.2-1.1-.1-2.1-.8-2.7zm-2.2 3c-.1 0-.3.1-.5.1s-.5.1-.7.1c-.6.1-2.7-.3-3.2-.5-1.4-.6-2.1-1.7-2.4-2.4.7.4 1.5.6 2.4.6h1c.6 0 1.2 0 1.6.1.7.2 1.3.6 1.9 1.1.1.2 0 .6-.1.9z"/>
  <path d="M135.6 112c-2.2 1.1-4.1 1.7-6.5 1.2-1.9-.3-2.3 1.7-2.2 1.9 0 1 .3 1.4 1 2.1.6.6 1.7.5 2.6.5.9 0 1.7-.3 2.5-.6 1.2-.4 2.4-.8 3.3-1.7.6-.6 1-1.3 1.4-2.1.2-.5.4-1.2.1-1.6" fill="#00a0f9"/>
  <path d="M146.6 108.8c-.8-.2-1.6.2-1.9.9-.1 0-.3.2-1.1.3-1.6.2-3.3.2-4.9 0-1-.1-1.6-.3-1.8-.6-.5-.7-1.4-.9-2.1-.4-.6.4-.8 1.3-.5 1.9-1.7.8-3.2 1.2-5.1.8-1.3-.2-2.2.3-2.7.7-1.1.9-1.3 2.3-1.2 2.7 0 1.5.6 2.2 1.4 3.1.8.9 1.9 1 2.8 1H130.4c1.1 0 2.1-.4 3-.7 1.2-.4 2.7-.9 3.8-2 .9-.8 1.4-1.8 1.7-2.5.2-.3.3-.7.3-1 .6.1 1.3.1 1.9.1.9 0 1.8 0 2.7-.1 2.5-.3 3.3-1.4 3.6-2.4.4-.7-.1-1.5-.8-1.8zm-11.4 5.6c-.7.6-1.7 1-2.8 1.4-.7.3-1.5.5-2.1.5h-1.4c-.5-.6-.6-.7-.6-1.1 0-.2.1-.4.2-.5h.3c2.7.5 4.8-.1 7.1-1.2-.2.4-.4.7-.7.9zM153.2 183c.5 0 1 .4 1 1 0 .5-.4 1-1 1-.5 0-1-.4-1-1s.4-1 1-1z"/>
  <path d="M310.3 39.1l-.4-.4c1.4-2.2 1.5-4.2.2-5.5-.3-.3-.7-.6-1.1-.7.6-1.1.9-2.4.7-3.5-.2-1-.7-1.8-1.6-2.4-.6-.4-1.2-.6-2-.6.1-.3.2-.5.2-.8.4-1.5.1-3.1-.6-4.3-.6-.9-1.4-1.4-2.3-1.6-2.6-.4-4.3 2.1-4.9 3-4.4 6.6-9.8 12.4-16 17.3-.3-3-.7-6-1.3-9-.1-.7-.7-3.2-2.5-4.3-.8-.5-1.7-.6-2.5-.4-1 .3-1.8 1-2.5 2.2-1.5 2.8-1.3 5.8-1.2 8.7.1 2 .2 3.9-.3 5.7-.4 1.7-1.3 3.2-2.3 4.9-1.2 2-2.4 4.1-2.8 6.6-.4 2.4.1 4.7.6 6.9.2 1 .4 1.9.5 2.9.2 1.4.2 2.9.1 4.3l-2.8-.7c-.6-.1-1.1.1-1.5.5-3.1 3.7-6.2 7.5-9.2 11.2-.4.2-.7.5-.8.9v.1c-15.3 18.9-30 38.6-43.8 58.6-5.2 7.5-10.9 14.9-18.9 15.5-.3 0-.7.2-.9.4-2.3-3-4.9-5.7-7.7-8.2 6.1-7.2 8.3-12.3 9.4-15.6.2-.7.6-2.3 1.5-8.3h1c2.3 0 4.6-.4 6.5-2 2.4-2 3.6-5.6 4-11.1.2-3.9-.7-6.8-2.9-8.5-.7-.6-1.5-1-2.2-1.2 1.5-2.5 1.7-5.5 1.7-8.1 0-8.2-1.8-16.6-5-24.1-1.2-2.7-2.7-5.7-5.3-7.8-1.3-1-2.9-1.8-4.6-2.1-1.3-2.2-3.6-4-6.4-4-3.4-3.8-8.7-6-14.9-6.2-5.6-.2-11.1 1.2-16.4 2.6l-.4.1c-7.3 1.9-13.9 3.4-20.7 3.7-5.4.2-13.1-.5-19.6-4.8l-5.1-3.3L106 51c1.5 2.7 2.5 5.6 3.6 8.7.8 2.4 1.7 5 2.8 7.3 1.4 2.9 3.2 5.7 5.3 8.1-1.5 4.8-2.8 10.9-3.3 15.1-.2 2-.3 4.1.8 5.8-1.2 0-3.5.3-5.4 1.9-1.7 1.5-2.7 3.6-3 6.3-.7 8.5 2.9 13.8 9.8 14.5h1.5l.1.9c1.1 11.8 1.2 12.8 9.8 25.4l-1.6 2.2c-1-.2-2.1.1-2.9.8-2.5 2.3-4.4 4.3-6.3 6.7-6.9-1.6-24.9-11.8-26.5-13.8-3-5.3-6-10.3-8.9-15.1-14-23.5-26.1-43.8-30.4-73.1-.1-.8-.9-1.4-1.7-1.3l-2.3.3c0-1.1 0-2.2.1-3.3.1-.9.3-1.9.5-2.9.5-2.2.9-4.5.6-6.9-.4-2.5-1.6-4.5-2.8-6.6-1-1.7-1.9-3.2-2.3-4.9-.4-1.8-.3-3.7-.3-5.7.1-2.9.3-5.9-1.2-8.7-.6-1.2-1.5-1.9-2.5-2.2-.9-.2-1.8-.1-2.5.4-1.8 1.1-2.4 3.6-2.5 4.3-.6 3-1 6-1.3 9-6.2-4.9-11.6-10.8-16-17.3-.6-.9-2.3-3.5-4.9-3-1 .2-1.8.7-2.3 1.6-.8 1.1-1 2.8-.6 4.3.1.3.1.5.2.8-.7 0-1.3.2-2 .6-.9.5-1.4 1.4-1.6 2.4-.2 1.1.2 2.4.7 3.5-.4.2-.8.4-1.1.7-1.3 1.3-1.2 3.4.2 5.6-.2.1-.3.2-.4.4-.8.8-1.3 1.9-1.2 3 .1 1.7 1.1 3 1.8 3.9 7 9.4 12.9 15.8 21.8 23.7l-2.1.3c-.4 0-.8.3-1 .6-.2.3-.3.7-.3 1.1.7 4.7 1.1 9 1.4 13.1v.3c0 .2 0 .3.1.5.1 1.5.2 2.9.3 4.3.8 11.7 1.6 21.9 7.1 35.1 11 26.3 23.5 56.1 47.9 75.2.6.5 1.2.9 1.8 1.4-10.8 2.1-16.6 7.1-23.8 14.3l-1 1c-5.6 5.5-5.7 5.7-11.3 14.8l-.3.4c-.3.4-.3 1-.1 1.4 2.7 5.4 5.3 11.1 6.8 15.2.2.4.5.8 1 .9.1 0 .3.1.4.1.3 0 .6-.1.9-.3 6.7-5.2 10.8-7 17.3-9.7.5-.2.8-.6.9-1.2 2.2-14.3 9.6-24.9 20.8-29.8 3.3 1.7 6.6 3.2 10.1 4.5.2.1.3.1.5.1.1 0 .2 0 .4-.1 2.1 7.9 4.2 18.4 2.7 21.8-.3.6-.1 1.4.5 1.8-.5.2-.8.6-.9 1.2-2 16.3-3.5 35.6.8 54.6-.3.3-.5.6-.6 1.1l-.7 10.9c-1.2 7.5-1.9 15-2.1 22.5v.3c-.7 19.4 1.1 38.9 2.9 57.9 2.3 25 4.7 50.9 1.4 76v.6l1.6 5.7-.3 34.6c0 1.8 0 7 3.3 9.3l-.3 1.2c-2.2 9.6 3.5 20.6 12.9 25 2.2 1 4.2 1.5 6 1.5.9 0 1.8-.1 2.6-.4 4.5-1.3 6.8-5.7 8.6-9.7 2.4-5.3 4.6-10.5 5.5-15.7h.7c.8 0 1.8-.1 2.6-.8 1.1-.9 1.3-2.4 1.4-3.2.4-3.6 1-7.2 1.5-10.7 1.1-6.5 2.1-12.7 1.9-19.5l.2-1.1c2.9-14.9 3.9-29.8 4.9-44.2.9-12.8 1.9-25.9 4.1-39.5 2.6 11.9 6.8 23.7 14.7 33.4 1 1.9 3.7 3.3 8 4.2 2 .4 4.4.7 6.9.8 8.8 18.7 26.3 10.9 27.7 10.2.1-.1.2-.1.3-.2 4.5-4.4 3-18.9.2-30.1 1.1-1.9 2.2-3.8 3-6.2 1.2-3.2.7-7.8.2-11.9-.1-1.1-.2-2.2-.3-3.1-1.3-19.7-8.3-38.5-15-54.3l-5-48.6c0-.2-.1-.3-.1-.4.5-14.9.1-26.9-1.4-38.4v-.1-.1c-1.1-5.3-1.5-9.9-1.9-14.7-.3-3.3-.6-6.7-1.1-10.3.1-.3.1-.6 0-.9-.1-.3-.2-.6-.3-.8-1.2-3.9-2-6.8-2.2-9.6 25.5-9.8 39.2-31.9 53.6-55.4l.9-1.4c4.4-7.1 8.4-14.2 12.2-21.1 3.9-6.9 7.8-14 12.2-21 0-.1.1-.1.1-.2l9.8-23.6c.2-.4.2-.9 0-1.2-.2-.4-.6-.7-1-.8l-3.6-.9c.7-.8 1.4-1.5 2.3-2.2l.1-.1c9.1-8 15.1-14.5 22.1-24 .7-.9 1.7-2.3 1.8-3.9.5-1.2.1-2.3-.7-3.1zm-2.4-3.8c.2.2 0 1.1-.9 2.2-.5.6-.9 1.2-1.4 1.8l-.5.5c-2.5 2.6-5 5.4-7.4 8.2-.2-.3-.3-.7-.5-1 .2-.1.3-.2.4-.3l8.7-10.6c.6-.5 1.1-.8 1.4-.8.2-.1.2 0 .2 0zm-1.4-6.2c.1.1.2.2.2.3.1.7-.5 2.1-1.4 3.2l-1.2 1.4-.9.9-7.5 9.3c-.5-.8-1-1.6-1.5-2.3l9.5-11.2c1.1-1.2 2.3-1.9 2.8-1.6zM188.7 157.5c.1.1.2.2.2.3-.1.1-.3.2-.5.4-4.6 4.1-8.5 6.4-13.6 9.2-2.9 1.6-7.5 4.5-11.1 6.9-1.5 1-3.2 2.1-4.1 2.6-2-2.6-3.7-5.5-5.1-8.4-.1-.1-.1-.2-.1-.3.1-.1.2-.1.5-.2 4.1-1.6 8.1-3.7 11.9-6 3-1.9 5.9-4 8.8-6l6.3-4.5c.3-.2.6-.6.6-1 2.2 2.1 4.3 4.5 6.2 7zM157 190.4c-.8 1.5-1.9 2.8-3.2 4-.2-.2-.4-.3-.7-.3-.5 0-1 .4-1 1 0 .2.1.4.2.5-2 1.5-4.4 2.6-6.9 3.1-7.4 1.3-14.1-.7-22.1-3.6-.6-.2-1.1-.4-1.7-.7-.2-.2-.4-.3-.7-.3-1.7-.7-3.5-1.5-5.4-2.4-.9-.4-1.9-.9-2.9-1.3 5.5.2 11.4 1.3 17.7 2.9 1.4.4 3.6.9 6 1.2-.1.2-.2.3-.2.5 0 .5.4 1 1 1 .5 0 1-.4 1-1 0-.1 0-.3-.1-.4 2.2.1 4.5.1 6.7-.5-.3.2-.5.5-.5.8 0 .5.4 1 1 1 .5 0 1-.4 1-1 0-.5-.4-.9-.9-1 3.2-.9 6.3-2.7 8.6-6.1 1.5-.1 3.1-.3 4.6-.7-.2.5-.3.9-.5 1.4-.2-.1-.4-.2-.6-.2-.5 0-1 .4-1 1-.2.6.2 1 .6 1.1zm-5.4-5.3h-.3c-.1-.1-.3-.5-.4-.6-.7-1.4-1.4-2.9-1.7-4.4v-.1c.7-.3 1.2-.9 1.4-1.1 1.2-1.6 2.4-3.3 3.4-5.1.8 1.4 1.7 2.7 2.6 3.9-.2.2-.3.4-.3.7 0 .5.4 1 1 1 .2 0 .3 0 .4-.1.4.4 1 .9 1.8.9h.2c.4 0 .7-.1 2.1-1 .3 1.2.5 2.4.6 3.7v.3c-.1 0-.1.1-.2.1s-.2.1-.3.1c-.2-.1-.4-.2-.6-.2-.5 0-.8.3-.9.7-2.9.7-5.9 1.2-8.8 1.2zm27.5-108.4c1.6-2.7 2.8-5.4 3.1-8.5.2-2.6.1-5.1 1-7.6.3-.8 1.5-.4 1.2.3-1 2.9-.6 5.9-1.1 8.9-.4 2.7-1.7 5.1-3.1 7.5-.4.8-1.5.2-1.1-.6zm-58.1.4c.8.8 1.3 1.9 2.3 2.5 1.1.7 2.3 1.2 3.4 1.8.7.4.1 1.5-.6 1.1-1.2-.7-2.6-1.3-3.7-2-1-.7-1.5-1.7-2.2-2.5-.7-.6.2-1.5.8-.9zm.3 42.4l-.1-1.6v-4.3c0-.8-.7-1.5-1.5-1.5s-1.5.7-1.5 1.5v2.2h-1.3c-5.3-.6-7.6-4.3-7.1-11.3.5-5.6 5-5.6 5.8-5.5l3.4.7c.6.1 1.2-.1 1.5-.6.5.1 1 .3 1.6.3.2 0 .5 0 .8-.1 1.4-.3 2.3-1.2 2.9-1.9 2.8-3.1 4.3-7.4 4.6-13 .4.2.9.4 1.3.5 4.6 1.8 9.8 2.6 15.8 2.6 3.6 0 7.5-.3 11.7-1 5.2-.8 10.4-2 15.5-3.5 1.4-.4 2.8-.9 4.1-1.5 2.8 7.3 7.8 13.7 14.4 18-.5.2-.8.7-.8 1.2-.1.8.5 1.5 1.3 1.6h1s3.4-.8 5.4.9c1.4 1.1 2 3.2 1.8 6.1-.3 4.6-1.2 7.6-2.9 9-1.1 1-2.7 1.4-5.1 1.3.1-.7.2-1.4.3-2.2.1-.8-.5-1.6-1.3-1.7-.8-.1-1.6.5-1.7 1.3-.2 1.2-.3 2.4-.5 3.4-.1.1-.1.3-.1.4v.3c-.9 6.4-1.3 8.3-1.5 8.8-1.1 3.3-3.3 8.5-10.1 16.1-.5.5-1 1-1.6 1.3-2 1.1-6 3.2-10.2 5.1-.8.3-1.1 1.2-.8 2 .2.6.8.9 1.4.9.2 0 .4 0 .6-.1 3.9-1.7 7.6-3.6 9.8-4.8l-4.4 3.1c-2.8 2-5.6 4-8.6 5.9-3.6 2.2-7.4 4.1-11.3 5.7-3.6-1.4-6.6-3.3-9.9-5.3l-.9-.5c-1.9-1.2-3.5-2.4-5.3-3.7-.9-.7-1.9-1.4-2.9-2.2-1-.7-2.3-1.7-3.5-2.6L129 149l.9-1.3c.6.7 1.2 1.4 1.9 2l.1.1c.2.1 4 3.4 9.8 4h.2c.8 0 1.4-.6 1.5-1.3.1-.8-.5-1.6-1.3-1.6-4.6-.5-7.8-3-8.1-3.2-1.2-1.2-2.4-2.6-3.4-4.1-8.1-12.1-8.2-12.8-9.3-24.1zm-2.1 38c2-2.6 3.9-4.7 6.5-7.1.1-.1.4-.1.5 0 1 .7 2.3 1.7 3.5 2.6 1.2.9 2.5 1.9 3.6 2.7 1 .7 1.9 1.4 2.8 2.1 1.7 1.3 3.5 2.7 5.5 3.9l.9.5c3 1.8 5.8 3.6 9 5v.1c-.2 1 .2 1.8.4 2.3.1.3.3.6.4.9-1.1 2.1-2.4 4.2-3.9 6.2l-.3-.3c-1.4-.9-2.5-1.7-3.6-2.5-3.9-2.7-6.1-4.2-10.2-6.4-2.4-1.3-4.9-3-7.3-4.6-2.6-1.8-5.2-3.6-7.9-5-.1 0-.1-.1-.2-.1.1 0 .2-.1.3-.3zM9.3 14.1c0-.2.1-.3.2-.3.5-.3 1.6.4 2.7 1.7l9.5 11.2c-.5.7-1 1.5-1.5 2.3l-7.5-9.3c-.2-.2-.5-.6-.9-.9l-1.2-1.4c-.8-1.3-1.4-2.6-1.3-3.3zm-1.2 5.8l.1-.1c.3 0 .9.3 1.4.8l8.7 10.6c.1.1.3.3.4.3-.2.3-.3.7-.5 1-2.4-2.8-4.9-5.5-7.4-8.2-.1-.2-.3-.3-.5-.5-.5-.6-.9-1.2-1.4-1.8-.8-1-1-1.9-.8-2.1zm.6 9c-.6-.8-1.1-1.6-1.2-2.3 0-.4.3-.8.4-.8.1 0 .2.1.3.2 2.8 3.5 5.8 6.8 9 9.8-.2.6-.3 1.1-.4 1.7-.1.8.4 1.6 1.2 1.7h.2c.7 0 1.4-.5 1.5-1.3.5-3.4 2.9-8 6.4-12.3.5-.6.4-1.6-.2-2.1-.6-.5-1.6-.4-2.1.2l-.2.2-8.3-10.3c-1.2-1.4-2.3-2.9-2.8-4.6-.2-.7-.1-1.5.2-1.9.2-.1.3-.1.4-.1.3-.1.9.2 1.9 1.8 5 7.4 11.1 13.9 18.2 19.3 0 .6-.1 1.3-.1 1.9-.9 1.5-3.4 6.4.5 13.5.4.7 1.3 1 2 .6s1-1.3.6-2c-3.6-6.5-.6-10.5-.4-10.6.2-.3.3-.6.3-.9.2-4.8.7-9.7 1.6-14.4.2-1.2.8-2.1 1.2-2.3.1-.1.1-.1.2 0 .1 0 .4.3.6.7 1.1 2 1 4.5.9 7.1-.1 2.1-.2 4.4.3 6.5.5 2.1 1.6 3.9 2.6 5.7 1.1 1.9 2.1 3.6 2.4 5.5.3 1.9-.1 3.8-.5 5.9-.2 1-.4 2-.6 3.1-.2 1.4-.2 2.7-.2 4.1L32 53.9c-.5-.5-1-.9-1.5-1.3l-.1-.1c-9-8-14.7-14.1-21.7-23.6zm19.1 28.5l21-2.6c.5 3 1 5.8 1.6 8.6 0 0-.1 0-.1.1-5.7 4.3-13 4.8-21.4 4.7-.2-3.4-.6-6.9-1.1-10.8zm66 133.4c-10.5 4.6-18 13.7-21.3 25.9h-.1c-.5 0-1 .4-1 1 0 .4.2.7.6.9-.3 1.1-.5 2.3-.7 3.5-.7.3-1.4.6-2 .8-.1-.4-.5-.7-.9-.7-.5 0-1 .4-1 1 0 .2.1.3.1.5-4 1.8-7.4 3.6-11.9 6.9-.8-2-1.8-4.3-2.9-6.7.2-.2.4-.4.4-.8 0-.5-.4-1-1-1h-.2c-.7-1.5-1.4-3-2.2-4.6 1.3-2.1 2.3-3.7 3.1-5 .4-.1.7-.5.7-.9v-.1c1.2-1.9 2.2-3.1 3.5-4.5.3-.1.4-.3.5-.6l2.9-2.9 1-1c7.2-7.2 12.6-11.6 22.1-13.5 0 .1-.1.2-.1.3 0 .5.4 1 1 1 .5 0 1-.4 1-1 0-.2-.1-.4-.2-.6 2.8-.4 5.8-.7 9.4-.7 1.5 0 3.1.2 4.9.7-1.9.6-3.8 1.2-5.7 2.1zm5 1.3c1.6-.5 3.3-.9 4.9-1.2.4 1 .8 2.4 1.3 3.9-2.1-.8-4.1-1.7-6.2-2.7zm6.9-8.4c-.1-2.3-.1-4.7-1-7.2-.3-.8-1.1-1.2-1.9-.9-.8.3-1.2 1.1-.9 1.9.7 2 .8 4.1.8 6.3 0 .9.1 1.9.1 2.9-2.9-.9-5.7-1.5-8.2-1.5-2.6 0-4.9.2-7.1.4-1.4-1-2.9-2-4.3-3.1-23.8-18.6-36.1-48-47-74-5.4-12.8-6.1-22.7-6.9-34.2-.1-1-.1-2.1-.2-3.1h.9c6.6 0 14.7-.4 21.1-4.7 5.6 23.1 16.2 40.9 28.2 61 2.9 4.8 5.9 9.9 8.9 15.1 1.2 2 10.8 7.3 12.7 8.3 3.1 1.7 10.2 5.3 14.9 6.7-.1.4 0 .8.1 1.3.4 1 1.3 1.5 1.7 1.7 2.5 1.3 5.1 3.1 7.6 4.8 2.4 1.7 5 3.5 7.6 4.8 3.9 2.1 6.1 3.6 9.9 6.2 1 .7 2.1 1.4 3.3 2.3 0 .6 0 1.3.2 1.9.4 1.9 1.2 3.6 2 5.1.3.6.8 1.6 1.9 2-4.8 5.3-12.6 4.3-19.1 2.6-9.1-2.3-17.2-3.6-25-2.8-.2-1.1-.3-2.5-.3-3.8zm1.3 7.6c2.4 1 4.8 2.1 7.2 3.1 3 1.3 5.7 2.6 8.1 3.4 8.4 3 15.5 5.2 23.7 3.7 2-.4 3.9-1.1 5.7-2-.2 6.8.4 13.7.9 20.4.2 2.2.4 4.5.5 6.7.8 10.6 1 20.3.7 29.6 0 0-.1 0-.1.1-.7.4-.9 1.3-.5 2 .1.2.3.4.5.5-.3 7.6-1 15-2 22.2-1.3-.1-2.6-.1-3.9 0-9.3-.5-18.6-1.8-27.5-4.5-.2 0-.3-.1-.5-.1l-7.9.4c-4.3-18.6-2.8-37.6-.8-53.8.1-.6-.2-1.1-.6-1.4.3-.1.6-.4.8-.8 2.7-5.7-2.4-23.6-4.3-29.5zm53.9 122.3l-1.4-19.6h.2c.4 0 .8.1 1.2.1l1.3 19.5c.3 4.2-1.3 11.9-2.5 18.1 0 .2-.1.4-.1.5l-.1-.5c0-.1.1-.2.1-.3 1.1-6.5 1.7-11.6 1.3-17.8zM160 291c-1.4-.1-2.8-.1-4.2-.1H154c-3.7 0-7.1.1-10.6-1.2 0-.3 0-.6-.1-.8v-.2c.2-.8 0-1.9-.1-3.1 0-.3-.1-.7-.1-1.1.2 0 .5-.1.7-.1 1.4-.2 2.8-.3 4.2-.4 1.7.1 3.4.1 5.1.2.9.1 3.3.1 6.1 0 .8 0 1.6 0 2.5-.1 4.3-.1 8.8-.3 9.8-.3v.2l.5 6.9h-.1c-8.1.5-8.1.5-11.9.1zm-19.6-1.8c-9.3.1-21.1-2-28.8-4.9-.1 0-.3-.1-.4-.1l.3-4.2 8.4-.4c6.6 2 13.4 3.2 20.3 3.9 0 .8.1 1.6.2 2.5.1.8.2 1.8.1 2.1-.1.4-.2.7-.1 1.1zm-21.7.4l-2 5.5c-.1.3-.2.6-.3 1-1.5-1.3-2.5-3.5-3.4-5.6-.3-.8-1.2-1.1-1.9-.8-.1.1-.2.1-.4.2v-.1-.1l.2-2.3c2.4.7 5 1.5 7.8 2.2zm-8.3 2.4c.8 2.1 2.2 5.3 4.9 7-.2.6-.5 1.1-.7 1.6-1.4 3-3.4 5.7-5.8 8 .3-5.5.8-11.1 1.6-16.6zm49.7 126.5c-1.1 15-2.1 29.1-4.9 43.9l-.2 1.2v.3c.2 6.6-.8 12.7-1.9 19.1-.6 3.5-1.1 7.1-1.5 10.8 0 .3-.1 1.1-.3 1.2-.2.2-.9.1-1.2.1-5.3-.3-10.1-.3-14.8-.3 4.7-50 6.1-100.8 3.9-151 0-.8-.7-1.5-1.6-1.4-.8 0-1.5.7-1.4 1.6 2.1 50.2.8 100.9-4 150.9-4.2 0-8.5-.1-13.2-.3-.8 0-1.7-.1-2.4-.4-1.7-.7-2.5-3.1-2.5-7.1l.3-34.8c0-.1 0-.3-.1-.4l-1.6-5.6c3.3-25.3.9-51.3-1.4-76.4-1.7-18.8-3.5-38-2.9-57.1 3.6-2.9 6.6-6.7 8.6-10.9.4-.7.7-1.5 1-2.2.3-.2.6-.5.7-.8.1-.3.1-.6 0-.9.2-.6.4-1.2.7-1.8l2.1-5.9c6 1.2 12.5 2 18.3 2h1.6c4.3 1.8 8.4 1.7 12.4 1.7h2.5l1.4 19.9c.3 4 .1 7.5-.4 11.4-.3-.2-.6-.2-1-.1-.8.2-1.3 1-1.1 1.8l10.1 44.5c-3 16.3-4.1 31.9-5.2 47zm49.8-97.2c-.2-.3-.4-.5-.8-.6-.8-.3-1.6.2-1.9 1-.5 1.5-1.7 2.9-3.1 3.6-.7.4-1 1.3-.7 2 .3.5.8.8 1.3.8.2 0 .4 0 .6-.2 2.2-1.1 3.9-3 4.6-5.3 0 .1 0 .2.1.3.4.9.8 1.8 1.2 2.8-.2-.2-.4-.4-.7-.5-.8-.3-1.6.1-1.9.9-1 2.8-2.9 5.2-5.4 6.7-.7.4-.9 1.4-.5 2.1.3.5.8.7 1.3.7.3 0 .5-.1.8-.2 3.1-1.9 5.4-4.8 6.7-8.2.1-.2.1-.5.1-.7 6.1 14.9 12.2 32.1 13.4 50.1.1 1 .2 2.1.3 3.3.4 3.5.9 7.9-.1 10.5-1.1 2.9-2.4 5-3.9 7.5-.5.9-1.1 1.8-1.7 2.8-1.4 2.3-3 4.4-4.8 6.4h-.1c-2.3 0-3.7-2.9-5.3-6.7-.2-.4-.3-.7-.5-1.1-1.4-3.4-3.7-6.4-5.8-9.2-1.9-2.4-3.6-4.7-4.9-7.3-1.7-3.4-2.5-7.1-3.4-10.8l-7.9-35c-.2-.8-1-1.3-1.8-1.1-.8.2-1.3 1-1.1 1.8l7.9 35c.9 3.8 1.8 7.8 3.6 11.5 1.4 2.8 3.3 5.4 5.2 7.8 2.1 2.8 4.2 5.5 5.5 8.5.1.3.3.7.4 1.1 1.2 3 2.8 6.8 5.8 8.1-1.1 1.1-2.2 2.2-3.3 3.2-2.1 2-11.7 2.6-18.6 1.2-3.9-.8-5.7-2-6-2.8l-.1-.1-.1-.1c-11.4-14.1-15-33.1-17-50-.1-.7-.7-1.3-1.4-1.3l-4.6-20.1c0-.1.1-.2.1-.3.3-1.8.8-4.2 1.3-6.8 1.3-6.4 2.9-14.3 2.6-18.9l-1.3-19.1h.4c1.5 0 3.6-.1 7.8-.2.8 0 2-.1 2.6-.9 2.3 0 4.8-.2 7.5-.7 4.4-.7 8.9-1.9 13.7-3.6h.1c.4 6 4.1 11 7.3 15l4.8 6.3c.2.2.4.4.7.5l1 10.3zM199 287.9c1.4-.5 2.9-1 4.3-1.7-.1.1-.1.3-.2.4-.7 3.3-1.3 5.7-2.5 8-1-2.2-1.7-4.4-1.6-6.7zm9.2 17.6l-2.6-3.4c-1.1-1.4-2.3-3-3.3-4.6 2.2-3.4 2.9-6.8 3.7-10.3.2-.8-.3-1.6-1.1-1.8h-.2c.5-.3 1-.6 1.4-.9l2.1 21zm-2.5-24.7c-2.1 2.3-5.9 3.6-9.2 4.7-.5.2-1 .3-1.5.5-4.7 1.6-9 2.8-13.3 3.5-2.5.4-4.7.6-6.7.7l-.5-6.3v-.4c5.5-.4 10.8-1 16-1.6 5.2-.6 10.9-1.6 14.9-4.9l.3 3.8zm71.6-183.2c-4.3 7-8.3 14.1-12.2 21-3.9 6.9-7.8 14-12.2 21l-.9 1.4c-14 22.6-27.2 44.1-51.1 53.7.3-2.9 1.2-5.8 2.9-9.7.3-.8 0-1.6-.8-2-.8-.3-1.6 0-2 .8-4.2 9.7-4 14.6-.9 24.6.6 4.1.9 7.8 1.2 11.4.4 4.9.8 9.6 1.9 15 1.5 11.4 1.9 23.3 1.3 38.3-3.2 4-9.3 5.1-14.8 5.7-9.1 1.1-18.8 2.1-28.6 2.3-.7 0-1.5 0-2.2.1h-4.4c1.1-7.6 1.7-15.3 2-23.3 9-5.8 16.7-13.6 22.3-22.8.4-.7.2-1.6-.5-2-.7-.4-1.6-.2-2 .5-5 8.2-11.7 15.3-19.6 20.8.2-8.8-.1-18-.8-27.9-.2-2.3-.4-4.5-.5-6.8-.6-7.3-1.2-14.8-.8-22.2 3.4-2.8 5.9-6.7 6.9-11.1.5-.2 1.1-.4 1.6-.6.4-.1 1-.4 1.5-1 .6-.8.6-1.7.5-2.2-.1-1.8-.4-3.5-.9-5.2.3-.2.6-.4 1-.6 3.4-2.2 8.1-5.3 10.9-6.8 5.3-2.8 9.4-5.3 14.2-9.6 0 0 .1-.1.2-.1.4-.2.9-.6 1.2-1.4.2-.6.2-1.1.1-1.6 9.1-.9 15.5-9.1 20.7-16.7 13.7-19.9 28.2-39.4 43.5-58.1 7.7 2.5 15.8 4.8 24.1 4.8h1.4l-4.2 10.3zm9.1-21.9l-3.6 8.5c-8.3.6-16.7-1.7-24.7-4.2 2.5-3.1 5.1-6.2 7.6-9.3l20.7 5zm20.9-31.4c-7 9.4-12.7 15.6-21.7 23.6l-.1.1c-1.2 1-2.5 2.2-3.5 3.7L271.3 69c.1-1.8.2-3.6-.1-5.4-.1-1.1-.4-2.1-.6-3.1-.4-2.1-.8-4-.5-5.9.3-1.9 1.3-3.7 2.4-5.5 1-1.8 2.1-3.6 2.6-5.7.5-2.2.4-4.4.3-6.5-.1-2.6-.2-5.1.9-7.1.3-.5.5-.7.6-.7h.2c.4.2.9 1.1 1.2 2.3.9 4.7 1.5 9.6 1.6 14.4 0 .3.1.6.3.9.1.2 3.1 4.1-.4 10.7-.4.7-.1 1.6.6 2 .7.4 1.6.1 2-.6 3.9-7.1 1.4-12 .5-13.5 0-.6-.1-1.3-.1-1.9C289.9 38 296 31.5 301 24.1c1-1.6 1.6-1.8 1.9-1.8.1 0 .2 0 .3.3.3.4.4 1.2.2 1.9-.4 1.7-1.6 3.2-2.8 4.6l-8.3 10.3c-.1-.1-.1-.2-.2-.2-.5-.6-1.5-.7-2.1-.2-.6.5-.7 1.5-.2 2.1 3.5 4.3 5.8 8.9 6.4 12.3.1.7.7 1.3 1.5 1.3h.2c.8-.1 1.4-.9 1.2-1.7-.1-.6-.2-1.1-.4-1.7 3.2-3.1 6.2-6.4 9-9.9.1-.1.2-.2.3-.2.1 0 .4.4.4.8.1.7-.5 1.4-1.1 2.3z"/>
</svg>
