<svg xmlns="http://www.w3.org/2000/svg" width="256" height="408">
  <path d="M250.8 357.2c-2.4-3.8-5.9-6.5-9-8.9-1.2-.9-2.3-1.8-3.3-2.6-.1 0-.1-.1-.2-.1-.7-1.7-2-3.2-3.7-4.2-12.8-7.6-19.5-13.1-30.7-27.1.9.4 1.8.5 2.6.5h.1c1.1 0 2.1-.3 2.9-.7.4 3.7 2.6 5.2 4 5.8.8.4 1.7.6 2.6.6.4 0 .8 0 1.2-.1.4 1.6 1.2 3.5 3 5.1.8.7 1.9 1.2 3 1.3h.6c.7 0 1.5-.1 2.1-.4l2.2-.9c1.3-.6 2.4-1.6 2.9-3s.5-2.8 0-4.2c-.7-1.7-2.2-2.8-3.9-3.2-1.2-3.7-4-6.3-7.3-6.6-.3-1.2-.9-2.6-1.8-3.8-1.7-2.2-4.4-3.6-7.2-3.6-.8 0-1.5.1-2.3.3-.4-.7-.9-1.4-1.7-2-1.4-1.2-3.2-1.8-5.1-1.8-.5 0-.9 0-1.4.1l-.2-.9c-.5-2.6-2.7-4.4-5.4-4.4-.3 0-.7 0-1 .1-1.4.3-2.6 1-3.4 2.1 0-5.4 1-14.3 1.8-21.7 1.3-12.4 1.9-18.4 1.3-22 3.9-5.7 7-12.1 9.2-19.2.8-2.2 6-18.5-1.2-35.9.2-22.1-13.9-56.9-16.5-62.4-7.5-18.8-28.4-34.4-34.7-38.8-2.8-2-12.6-8.5-24.2-13.1-.7-1.3-1.9-2.3-3.3-2.7l-12-3.4c.6-2.6.8-5.3.9-7.8.4-7.9-.9-15.8-3.8-23.5-1.7-4.5-3.7-9.2-6.7-13 1.5-3.4 2.7-7.1 3.5-11.2.5-2.8.9-5.8 1.1-8.8 0-.9.1-1.9.1-2.7v-.1V8c.3-2.3-.5-4.6-2.3-6.2-1.1-.9-2.5-1.5-4-1.5-.9 0-1.7.2-2.6.5-1.1.2-2.2 1.2-2.9 2.4-.5.2-1.1.5-1.5.6-1.7.7-3.7 1.4-5.9 2-1.5.4-2.9 1-4.2 1.5-1.4.5-2.6 1.1-3.9 1.4-2.3.5-4.6.8-6.8.8-1.6 0-3.2-.1-4.7-.4-1.8-.3-3.5-.7-5.3-1.2-2.7-.7-5.5-1.4-8.5-1.7-1.6-.1-3.2-.2-4.8-.2-3.4 0-6.7.3-9.8 1-5.5 1.2-10.5 3.8-14.5 7.5-1.9.5-3.9 1.4-5.9 2.7C12.2 21.4 8.4 28.5 5.6 35 1.5 44.3.4 53.1 2.2 61c.2.9.6 1.7 1 2.3.1.6.4 1.3.7 1.8C-.6 86 3.7 99 5.5 104.6c.2.5.3.9.4 1.2 2.3 7.5 9.5 16.1 16.5 19.5 4.4 2.1 13.2 4.1 16.1 4.6 1.2.2 2.4.4 3.6.5 2 .2 4 .3 5.9.3 2.6 0 5.1-.2 7.6-.6-7.7 15-13 32.8-14.9 44.7-1.4 8.8-3.8 17.2-6.2 25.4-2.4 8.5-4.9 17.2-6.4 26.7-.1.7-.1 1.4.1 2.1l-.3.9c-.4 1.4-.2 2.9.5 4.2.1.2.2.4.4.7-.2.6-.4 1.3-.5 2L28 238c-.2.8-.5 1.6-.7 2.4-1.8 6.1-4.1 13.7-1 21.1.6 1.5 1.4 2.5 2.2 3.2-.2 3.4.3 7.2 3.2 9.8 1.5 1.3 3.2 2 5.1 2 .6 0 1.2-.1 1.7-.2 1 .7 2.2 1.2 3.5 1.3h1.6c2.6-.2 4.7-1.5 6.1-3.6 1-.2 2.1-.7 3.1-1.4 1.3-.9 2.3-2.2 2.9-3.8h.1c3.1-1.3 5-3.7 5.7-7.3.8-4.1 1.2-7 1.5-9.8.1-1.2.3-2.3.5-3.5.1 0 .2-.1.3-.1.2-.1.4-.1.6-.2.1-.1.3-.1.4-.2.1-.1.3-.2.5-.3l.3-.3.4-.4.3-.3c.1-.2.2-.3.3-.5.1-.1.2-.3.2-.4.1-.2.2-.3.2-.5 0-.1.1-.2.1-.3 0-.1.1-.3.1-.4 1-4.1 1.9-7.9 2.7-11.5l3.5 8.2c.8 1.8 2.5 3 4.4 3.3H78.4c2 0 3.9-1.1 4.8-2.9L93.9 221c.4-.8.6-1.7.6-2.6l-.7-36.9c2.6 4.8 5.1 9.1 6.9 12-.9 12.9-1.8 25.1-1.6 37.9l-4 3.3-.6.6c-18.8 21-15.5 47.1-12.3 72.4.7 5.9 1.5 12 1.9 17.8v.2c.3 2.2.5 4.4.8 6.6 1.2 9.9 2.3 19.4 1.8 28.9-2.5.5-5.3 1-8.1 1.4-5.2.8-10.5 1.6-14.4 3.1-2.8 1-6.6 2.4-9.2 5.9-4.9 6.4-2.3 15.1 2.9 19.8 4.6 4.1 10.4 5.4 15.4 6.3.8.1 1.8.3 3.1.4 3 .3 7 .6 10.8.9 3.8.3 7.4.5 9.2.8l20.3 2.7c1 .1 2.3.3 3.7.3 2.7 0 5-.6 6.9-1.9 6.3-4.1 5.4-12.3 5.1-15.4-.1-1.3-.2-3.5-.2-5.5v-2.3c1.1-.8 1.9-1.9 2.2-3.3.1-.3.1-.7.1-1 0-.1 0-.2.1-.4.7-5.2 1.1-10.4 1.3-15.6.5 2.9 2.3 4.7 4.1 6-.3.5-.5 1.2-.6 1.9-1 5.1 3.5 7.6 4.9 8.5.1 0 .2.1.3.1.8 1.7 2.4 3 4.4 3.2h1c1.5-.1 2.8-.8 3.7-1.9 1-1.1 1.4-2.5 1.3-4-.1-2-1-3.5-2-4.6.4-.5.8-1 1-1.7.9-1.9.6-4.2-.8-5.8-1.6-2-3.8-3.1-5.4-3.9-.2-.1-.6-.3-.9-.5l.3-.6c.9-2.2 2.1-4.9 2-8.1-.1-3-1.5-6-3.8-7.9-1.6-1.4-3.7-2.1-5.7-2.1-.4 0-.8 0-1.2.1-1.3.2-2.4.8-3.3 1.7-1.2-14-3.7-28.3-6.8-44.1-.3-1.4-.4-2.3-.3-2.6.3-.3 1.1-.7 2.4-1.3 3.1-1.4 6.3-2.7 9.4-4-.6 7.7-.3 15.4.9 23 1.6 10.3 4.6 17.9 9.4 23.7 2.9 3.6 6.4 6.3 9.4 8.7 13.7 10.8 28 21.4 42.3 31.4l.1.1c-3.3 6.4-8.7 18.6-6.5 26.1 1 3.4 3 6.1 5.7 7.7 1.3.7 2.7 1.2 4.3 1.4.5.1 1 .1 1.5.1s.9 0 1.4-.1c7-.6 12.4-5 16.4-8.3 4.1-3.3 7.7-6.1 11.1-8.7 3.5-2.7 7.1-5.5 11.3-8.9 2.3-1.8 3.9-4.6 5.3-7.2 4.6-7.5.2-14.6-1.7-17.6zm-112.4-10.3c-.1.8-.6 1.9-1.1 3-.2.4-.4.8-.5 1.2-.3.7-.6 1.5-.8 2.4 0-2.6 0-5.2-.2-7.8.8.6 1.6 1.1 2.6 1.2zm61.4-38.1zM68.6 319.4c.1 0 .2-.1.3-.1l-3-1.5c-2.2-1.1-3.4-3.6-2.8-6 .5-2.5 2.4-4.6 4.7-5.6.6-.3 1.3-.4 2-.4 2.2 0 4.2 1.3 5.1 3.4.1.3.2.7.3 1l1.5.8c1.2.6 3.4 1.7 4.7 4.2 2.3 4.2.4 8.9-2.7 11.4-.4.3-.8.6-1.3.9 2.5 2.6 3.2 6.2 1.8 9.3-.2.4-.4.8-.7 1.2l4.1 1.7c1.5.6 2.6 1.9 3.1 3.5s.2 3.2-.7 4.6c-1.4 2.1-3.2 3.4-4.7 4.5-.2.1-.4.3-.6.4.9.7 1.5 1.6 1.9 2.7.4 1.4.3 2.9-.4 4.2-.7 1.3-1.8 2.2-3.2 2.7-.7.2-1.5.4-2.3.4h-.8c-1.5-.2-2.9-.8-4.2-1.8-2.3-1.9-3.6-4.8-3.4-7.7.2-2.4 1.2-4.6 3.1-6.6l-1.7-.7c-.9-.4-3.1-1.3-4.3-3.7-.8-1.7-1-3.6-.4-5.4.4-1.3 1.3-2.5 2.4-3.5-.5-.4-1.1-.9-1.6-1.4-.8-.9-1.4-1.8-1.7-2.9-1-4 1.2-7.9 5.5-9.6z" fill="#fff"/>
  <path d="M118.2 216.6c-.2 0-.4-.1-.5-.2-.7-.4-1-1.3-.6-2 2.8-5.2 4.8-10.8 6.2-16.5.2-.8 1-1.3 1.8-1.1.8.2 1.3 1 1.1 1.8-1.4 6-3.6 11.8-6.4 17.2-.4.6-1 .8-1.6.8zM52.3 196.4c-.2 0-.4-.1-.5-.2-.7-.4-1-1.3-.6-2 2.8-5.2 4.8-10.8 6.2-16.5.2-.8 1-1.3 1.8-1.1.8.2 1.3 1 1.1 1.8-1.4 6-3.6 11.8-6.4 17.2-.4.6-1 .9-1.6.8zM166.4 138.6c-.3 0-.5-.1-.7-.3-8.8-6.7-15.9-15.6-20.6-25.7-.3-.7 0-1.6.7-1.9.7-.3 1.6 0 1.9.7 4.5 9.6 11.3 18.2 19.7 24.6.6.5.8 1.4.3 2-.3.5-.8.6-1.3.6zM161 185.9c-.4 0-.7-.2-1-.5-.5-.6-.4-1.5.2-2.1l21-17.7c.6-.5 1.5-.4 2.1.2.5.6.4 1.5-.2 2.1l-21 17.7c-.3.3-.7.4-1.1.3zM38.5 84.8c-.2 0-.3-.1-.5-.2-.9-.4-1.8-1.5-1.3-3.9l2.8-14.9c.1-.8.9-1.3 1.7-1.2.8.1 1.3.9 1.2 1.7l-2.8 14.9c-.1.5-.1.8-.1.9.6.4.8 1.2.5 1.9-.3.6-.9.9-1.5.8zm1-2.6zM67.9 61.1h-.1L58 59.2c-.8-.2-1.9-.4-2.8-1-1.3-.8-1.9-2.2-1.7-3.5.1-.8.9-1.3 1.7-1.2.8.1 1.3.9 1.2 1.7 0 .1.1.4.4.6.5.3 1.1.4 1.8.5l9.8 1.8c.8.1 1.3.9 1.2 1.7-.2.9-.9 1.4-1.7 1.3zM22.5 52.9c-.7-.1-1.3-.7-1.3-1.4 0-.8.6-1.5 1.4-1.5 2.2-.1 4.4-.3 6.6-.5.6-.1.9-.2 1-.2.2-.7 1-1.2 1.7-1 .8.2 1.3 1 1.1 1.8-.2.9-1 2-3.4 2.3-2.3.3-4.5.5-6.8.5h-.3z" fill="#231815"/>
  <path d="M59.3 123.6l16-6.2-5.2-18-1.4-7.2-2.1-6.9-1.6-6.2s-1.4-3.4-3-3.6c-1.6-.3-5.8-1.5-5.8-1.5l-1.5 4.5s-1.3 6 1.2 10.8 3.3 28.8 3.4 34.3zM26.8 71.9l.8-4.4-5.9-.2-4.6.7-4.4 7.4-1.3 6.2L6.9 84l3.6 17.7 2.5-4.6 5-5.5 2.9-8.2c-.1 0 5.5-9 5.9-11.5z" fill="#45cfff"/>
  <path d="M24.5 107.3c-.7-.1-1.4-.3-2.2-.6-2.3-1-3.7-2.5-4.2-4.4-.4-1.5-.2-3.8.5-5.8.8-2.1 2.5-4 5.1-5.5 1.5-.9 3.8-1.7 5.3-1.8 3.9-.3 7.2.4 10.7 1.1 3.2.7 6.8 1.6 9.4 4.1 4.8 4.5 4.1 10 3 11.9-.7 1.3-1.9 2.2-3.4 2.6-1.8.5-3.9.1-5.5-.9-.6-.4-1.2-.8-1.8-1.3-1-.8-2.2-1.7-3.1-1.9-4-.9-6.3.2-8.4 1.2-1.6.8-3.3 1.6-5.4 1.3zm4.7-15.1c-1 .1-2.8.6-4 1.4-2 1.2-3.3 2.6-3.9 4.1-.6 1.6-.7 3.2-.5 4 .3 1.1 1.1 1.9 2.5 2.5 2 .9 3.3.2 5.2-.7 2.4-1.2 5.3-2.6 10.4-1.4 1.5.4 3 1.5 4.3 2.5.6.4 1.1.8 1.5 1.1 1 .6 2.3.8 3.3.6.7-.2 1.2-.6 1.5-1.2.4-.6 1.4-4.7-2.5-8.3-2.1-2-5.3-2.8-8-3.4-3.1-.9-6.3-1.5-9.8-1.2zM224 322.7c-.3 0-.6-.2-.8-.3-1.3-1.2-1.7-2.8-2.1-4.2-.1-.4-.2-.7-.3-1-.3-1.1-1.1-2-1.7-1.9-.2.1-.5.2-.7.4-.7.4-1.9 1.1-3.2.5-1.8-.8-1.7-2.9-1.7-3.8.1-1.7-.2-2.9-.8-3.7-.6-.8-1.7-1.1-2.3-.7l-.8.8c-.6.8-1.5 1.9-3 1.9-2.6 0-3-2.5-3.3-4-.2-.9-.3-1.9-.8-2.3-.4-.4-1.4-.1-2.4.1-1.5.4-3.6.9-5.1-.7-.2-.2-.3-.5-.4-.7l-1-5.3c-.1-.8.4-1.6 1.2-1.7.8-.2 1.6.4 1.7 1.2l.9 4.7c.4.1 1.2 0 2.1-.3 1.6-.4 3.5-.8 5 .5 1.2 1 1.5 2.7 1.7 4 .1.5.2 1.3.4 1.6.2-.1.6-.6.8-.8.4-.4.8-1 1.3-1.4 2.1-1.5 4.9-.5 6.3 1.3 1.4 1.8 1.4 4.1 1.4 5.6v.9c.1-.1.3-.2.4-.3.4-.3.9-.5 1.5-.7 2.5-.7 4.5 1.5 5.2 3.9l.3 1.2c.2.7.3 1.4.6 2l1.2-.5c.7-.3 1.6 0 1.9.8.3.7 0 1.6-.8 1.9l-2.2.9c-.1.1-.3.1-.5.1zM75.5 358.5c-.7-.1-1.5-.4-2.1-.9-1.3-1-2-2.7-1.9-4.3.2-2.1 1.4-4 3.8-5.8.4-.3.7-.5 1.1-.8.6-.5 1.3-.9 1.8-1.4l-7.7-3.2c-.7-.3-1.8-.7-2.3-1.8-.4-.7-.4-1.5-.1-2.3.4-1.3 1.6-2.2 2.6-2.7.2-.1.5-.2.7-.3.8-.3 1.5-.7 1.7-1.1.3-.6-.4-1.5-1.1-2.1-.4-.3-.8-.6-1.3-.8-.9-.5-1.8-1.1-2.6-1.9-.3-.3-.6-.7-.8-1.4-.5-1.7.7-3.6 3-4.5.4-.2.8-.3 1.2-.4 1.2-.4 2.3-.8 3.1-1.5.8-.7 1.4-1.9 1-2.7-.3-.5-1-.9-1.8-1.3l-5.8-3c-.6-.3-.9-1-.8-1.6.3-1.2 1.1-2.3 2.3-2.7.7-.3 1.6.1 1.9.8.3.6 0 1.4-.5 1.7l4.2 2.1c1 .5 2.3 1.2 3 2.5 1.2 2.2 0 4.9-1.7 6.4-1.2 1-2.6 1.5-3.9 2-.4.1-.7.3-1.1.4-.8.3-1.3.8-1.3 1 0 0 0 .1.2.2.5.5 1.2.9 1.9 1.4.5.3 1.1.6 1.6 1 1.7 1.2 3 3.5 2 5.7-.7 1.5-2.1 2.1-3.2 2.5l-.6.3c-.7.3-1.1.9-1.1 1 0 .1.3.2.8.4l9.6 4c.4.2.7.5.8.9.1.4.1.9-.2 1.2-1 1.5-2.4 2.5-3.7 3.5-.3.3-.7.5-1 .8-1.7 1.3-2.6 2.6-2.7 3.8-.1.6.3 1.4.8 1.8.2.2.5.4.9.2.8-.2 1.6.2 1.8 1 .2.8-.2 1.6-1 1.8-.5.1-1 .2-1.5.1zM149.5 373c-.7-.1-1.2-.6-1.3-1.4 0-.5-1-1-1.8-1.5-1.4-.8-3.4-2-3-4.3.3-1.7 1.9-2.4 3-2.9l.6-.3c-.7-.5-1.5-.9-2.2-1.3-2.2-1.1-4.7-2.4-5-5.3-.1-1.2.2-2.4.7-3.4.2-.4.3-.8.5-1.2.8-1.8 1.5-3.5 1.4-5.2 0-1-.6-2.1-1.3-2.8-.5-.4-1-.6-1.5-.5-.8.1-1.5-.4-1.7-1.2-.1-.8.4-1.5 1.2-1.7 1.3-.2 2.7.2 3.8 1.1 1.4 1.2 2.3 3.1 2.4 4.9.1 2.3-.8 4.4-1.6 6.4-.2.4-.3.8-.5 1.1-.3.7-.5 1.4-.5 2 .1 1.3 1.4 2 3.4 3.1 1.4.7 3 1.6 4.2 2.9.4.4.4 1 .2 1.5-.6 1.3-1.9 1.9-2.9 2.4-.5.2-1.3.6-1.3.8-.1.3 1 .9 1.6 1.2 1.3.8 3.1 1.8 3.2 3.8.1.8-.6 1.5-1.4 1.6 0 .2-.1.2-.2.2zM88.9 84.5c-.5-.1-.9-.3-1.2-.8-.4-.7-.1-1.6.7-2 3.1-1.5 4-2.6 4.2-3.3.1-.2.1-.6-.2-1.1-.1-.2-.2-.3-.3-.3-.3 0-1 .4-1.4.8-.6.6-1.5.6-2.1 0-.6-.6-.6-1.5 0-2.1.3-.3 2-1.9 3.9-1.6.7.1 1.7.5 2.4 1.8.6 1.1.7 2.3.4 3.4-.6 1.8-2.3 3.3-5.7 5-.1.2-.4.2-.7.2z" fill="#231815"/>
  <path d="M87.6 142.3c.5-.2.9-.7 1.2-1.2.9-1.4 1.8-2.8 2.3-4.4.5-1.6.9-6-.3-4.9-3.9 3.5-3.8-2-8.8-7.1-.5-.5-3.1 4-3.5 4.5-1.7 2.3-2.9 5.1-3.3 7.9-.1.4-.1.9.1 1.2.2.3.5.5.8.6 1.4.8 2.9 1.4 4.4 1.9-.1.2-.2.3-.3.5-2.2 4.8-1 30.1-2.2 39.8-1.2 9.8-6.2 41.8-6.2 41.8l6.8 15.7L89 218.5l-1.4-76.2z" fill="#006198"/>
  <ellipse transform="rotate(-83.73 83.03228098 174.14673631)" cx="83" cy="174.1" rx=".9" ry=".9"/>
  <path d="M85.8 181c-.5-.1-1 .3-1 .8-.1.5.3 1 .8 1 .5.1 1-.3 1-.8.1-.5-.3-1-.8-1zM82.9 187.6c-.5-.1-1 .3-1 .8-.1.5.3 1 .8 1 .5.1 1-.3 1-.8.1-.5-.2-.9-.8-1zM86.3 193.4c-.5-.1-1 .3-1 .8-.1.5.3 1 .8 1 .5.1 1-.3 1-.8.1-.5-.3-1-.8-1zM81.7 198.4c-.5-.1-1 .3-1 .8-.1.5.3 1 .8 1 .5.1 1-.3 1-.8.1-.4-.2-.9-.8-1zM83.4 205.9c-.5-.1-1 .3-1 .8-.1.5.3 1 .8 1 .5.1 1-.3 1-.8.1-.4-.3-.9-.8-1zM81.8 149.2c-.5-.1-1 .3-1 .8-.1.5.3 1 .8 1 .5.1 1-.3 1-.8.1-.5-.3-1-.8-1zM84.9 144c-.5-.1-1 .3-1 .8-.1.5.3 1 .8 1 .5.1 1-.3 1-.8.1-.5-.2-1-.8-1z"/>
  <ellipse transform="rotate(-83.73 79.23249923 211.83250535)" cx="79.2" cy="211.8" rx=".9" ry=".9"/>
  <ellipse transform="rotate(-83.73 81.99301987 161.33569628)" cx="82" cy="161.3" rx=".9" ry=".9"/>
  <ellipse transform="rotate(-83.73 82.52461388 218.03674652)" cx="82.5" cy="218" rx=".9" ry=".9"/>
  <path d="M85.4 166.2c-.5-.1-1 .3-1 .8-.1.5.3 1 .8 1 .5.1 1-.3 1-.8.1-.5-.2-1-.8-1zM78.1 222c-.5-.1-1 .3-1 .8-.1.5.3 1 .8 1 .5.1 1-.3 1-.8.1-.5-.3-.9-.8-1zM82.2 132.7c-.5-.1-1 .3-1 .8-.1.5.3 1 .8 1 .5.1 1-.3 1-.8.1-.5-.3-1-.8-1zM85.5 138.6c-.5-.1-1 .3-1 .8-.1.5.3 1 .8 1 .5.1 1-.3 1-.8.1-.5-.3-.9-.8-1z"/>
  <path d="M247.4 359.4c-2-3.2-5.1-5.6-8-7.8-1.2-.9-2.4-1.8-3.5-2.8l-.9 1c0-.3.1-.6 0-.9-.1-1.7-1-3.2-2.4-4-17.8-10.6-24.2-17.1-45.7-46.5-.7-4.7.5-16 1.6-26 1.3-11.9 2-19.4 1.1-21.9 0-.1-.1-.3-.2-.4 4.2-5.7 7.5-12.3 9.7-19.7.4-1.1 5.8-17.2-1.4-33.9.6-21.5-14.2-57.5-16.2-61.7-7.1-17.8-27.2-32.8-33.3-37-2.5-1.7-13.1-8.9-25.3-13.5.1-.3.1-.7-.1-1-.2-.4-.5-.7-.9-.8l-16-4.6c1.6-3.2 1.9-7.4 2.1-10.7.4-7.5-.9-14.9-3.5-21.9-1.8-4.8-4.1-10.1-7.8-13.8 2.1-3.9 3.4-8.3 4.3-12.6.5-2.7.8-5.5 1-8.3 0-.8.1-1.7.1-2.5v-.6c.2-1 0-2-1-2.8-.7-.6-1.7-.6-2.5-.3-.9.4-1.3 1-1.4 1.8-.1.1-.2.1-.2.2-.8.5-2 1-3 1.4-2 .8-4.2 1.5-6.2 2.1-2.8.8-5.4 2.2-8.2 2.9-4.3 1-8.8 1.2-13.2.5-4.6-.8-8.9-2.4-13.6-2.9-4.4-.4-9-.2-13.3.7-5.2 1.1-9.8 3.7-13.4 7.3-2 .3-3.9 1.2-5.6 2.3-5.4 3.6-8.7 10.2-11.3 16C6 44 4.3 52.2 6.1 60.1c.2.7.6 1.2 1.1 1.6-.2 1.1.3 1.9 1.1 2.3-5 21-.9 33.6 1 39.4.2.5.3 1 .4 1.4 1.9 6.5 8.4 14.1 14.4 17 4 1.9 12.4 3.8 15 4.3 1.1.2 2.3.3 3.3.5 8.2.9 14.7-.3 21.2-2.5-9.5 15-16.7 36.8-19.1 51.6-1.5 9-3.9 17.6-6.3 25.9-2.4 8.4-4.8 17-6.3 26.2-.1.8.4 1.5 1.2 1.7h.1c.8.1 1.5-.4 1.6-1.2 1.5-9 3.9-17.6 6.3-25.9 2.4-8.4 4.8-17 6.3-26.2 2.3-14.4 9.3-35.6 18.5-50.2l7.6 11.6c0 .5 0 1 .4 1.6.4.7 1 1 1.3 1.2 1 .5 2.1 1 3.1 1.4-1 3.5-1.2 11.1-1.3 22-.1 3.8-.1 7.6-.2 10.9-4.5 14-7 25.6-9.9 39.1-1.1 5.2-2.3 10.8-3.7 17-7.3.2-18.3-4.5-24-7.7-.7-.4-1.6-.1-2 .6-.4.7-.1 1.6.6 2 5.2 2.9 14.8 7 22.5 7.9.8.1 1.6.1 2.3.1-.6 2.5-1.2 5.1-1.9 7.8-9.9.3-22.1-3.2-26.3-10.7-.4-.7-1.3-1-2-.6s-1 1.3-.6 2c.3.6.7 1.2 1.2 1.8-.3 1.2-.6 2.4-1 3.8-.1.4-.2.8-.3 1.1-.2.8-.5 1.6-.7 2.5-1.7 5.8-3.7 12.4-1.1 18.5.8 2 2 2.3 2.8 2.2-.5 3.5-.6 7.3 1.6 9.3 1.1 1 2.4 1.2 3.6.8.5-.2 1-.5 1.5-1 .2.5.5 1 .9 1.3.6.6 1.3.9 2.1 1h.8c2.3-.2 3.4-1.8 3.9-3.6.7.3 1.9.4 3.3-.6 1.3-.9 1.8-2.4 2.1-4 .6 0 1.2 0 1.8-.3 2.3-1 3-2.8 3.3-4.4.8-3.9 1.1-6.8 1.5-9.5.3-2.3.5-4.3 1-6.7.7 0 1.4 0 2.1-.1h.4c.1 0 .1 0 .2-.1 0 0 .1 0 .1-.1l.1-.1s.1 0 .1-.1l.1-.1s0-.1.1-.1l.1-.1s0-.1.1-.1c0 0 0-.1.1-.1v-.1-.1c2.8-11.1 4.8-20.5 6.6-28.9 1.7-7.9 3.2-15.1 5.1-22.5-1.9 13-4.7 30.7-4.7 30.9 0 .3 0 .6.1.8l6.8 15.7c.2.5.7.8 1.2.9h.1c.6 0 1.1-.3 1.3-.8l10.5-20.2c.1-.2.2-.5.2-.7l-1-55c4.6 10.8 11.8 23.7 15.4 29 0 .4-.1.8-.1 1.2-1 13.4-1.9 26.3-1.5 39.5l-5.5 4.5c-.1 0-.1.1-.2.2-17.6 19.7-14.4 44.9-11.3 69.2.8 6 1.5 12.1 2 18v.1c.2 2.2.5 4.4.8 6.5 1.3 10.8 2.5 20.9 1.7 31.5 0 .4.1.7.3 1-3.2 1-7.5 1.6-11.6 2.3-5 .8-10.1 1.6-13.6 2.9-2.4.9-5.5 2-7.4 4.6-3.4 4.5-1.4 11 2.4 14.4 3.8 3.4 8.9 4.6 13.5 5.4.8.1 1.7.3 2.8.4 2.9.3 6.9.6 10.7.9 3.8.3 7.5.5 9.4.8l20.3 2.7c2.1.3 5.4.7 7.9-1 3.8-2.5 3.7-7.5 3.3-11.6-.2-1.5-.2-3.7-.2-5.9 0-1.9 0-3.9-.1-5.5.2 0 .4.1.6.1h.1c.7.1 1.4-.4 1.6-1.2v-.7c.1-.1.1-.3.2-.5 3.5-25.3-.5-49.2-6.1-77.8-.4-1.9-.7-3.8.1-5.2.7-1.5 2.5-2.3 4.4-3.2 3.4-1.5 7-3 10.4-4.5 1.8-.7 3.5-1.5 5.3-2.3-1.4 9.6-1.3 19.2.2 28.8 1.5 9.6 4.2 16.5 8.5 21.8 2.6 3.2 5.9 5.8 8.8 8 13.7 10.8 27.9 21.3 42.1 31.3.6.4 1.5 1.1 2.6 1.2H208.5c-4.6 7.7-10.2 20.8-8.4 27.1.7 2.4 2.1 4.3 3.9 5.3.8.5 1.7.7 2.8.9.7.1 1.4.1 2.2 0 5.7-.5 10.5-4.3 14.3-7.4 4.2-3.4 7.7-6.1 11.2-8.8 3.5-2.7 7.1-5.5 11.2-8.8 1.7-1.4 3-3.7 4.3-6 2.1-4.5 0-9.1-2.6-13.2zM102.2 7c-.1-.2 0-.1 0 0zM56 250.8c-.3 2.7-.7 5.5-1.5 9.3-.3 1.3-.6 1.9-1.5 2.2-.1.1-.3.1-.5 0v-.6-1c0-1.1 0-2.2.1-3.3v-.5c.2-2.8.3-5.6 0-8.4v-.2c-.1-.7-.8-1.2-1.5-1.2s-1.3.6-1.4 1.4c-.1.8-.1 1.8 0 2.7v.2c0 1.8 0 3.6-.1 5.3-.1 1.7-.3 3.3-.4 5.1v.2c-.1.6.1 1.1.3 1.5-.1 1.3-.3 2.7-1 3.2-.2.2-.4.2-.5.3-.3-.3-.6-1.3-.6-2.4.2-3.1.4-6.3.7-9.4.1-1.4.2-2.7.3-4.1.1-.8-.5-1.5-1.3-1.6-.8-.1-1.5.5-1.6 1.3-.1 1.4-.2 2.7-.4 4.1-.3 2.8-.5 5.8-.6 8.7v1.9c-.1 3-.4 4.8-1.6 4.9-.4 0-.6-.1-.6-.2-.6-.6-.8-2.4-.5-5.3v-.1c.4-4.1.6-8.3.8-12.3v-.5c0-.8-.5-1.4-1.3-1.5h-.1c-.8-.1-1.5.5-1.6 1.3-.2 1.8-.3 3.7-.4 5.5-.2 3.1-.5 6.2-.8 9.3-.1 1-1 2.3-1.7 2.5-.1 0-.3.1-.6-.2-1.8-1.6-.5-7.5.1-10.4.1-.6.3-1.2.3-1.7.1-.8.3-1.5.4-2.3.4-2 .6-4 .9-6 .1-1.2.3-2.4.5-3.6 0-.3.1-.5.1-.8.1-.8-.4-1.5-1.2-1.7-.8-.1-1.5.4-1.7 1.2 0 .2-.1.4-.1.5V244.4c-.3 1.6-.5 3.3-.7 4.9l-.6 4.5c-.3 1.3-1 3.4-1.5 4.4-2.1-5.1-.4-10.9 1.3-16.5.3-.8.5-1.7.7-2.5.1-.4.2-.8.3-1.1.2-.7.4-1.4.6-2 4.7 4.3 11.9 6.8 19.1 7.6.8.1 1.6.1 2.4.2-.4 2.8-.7 4.8-1 6.9zm140.8-48.9c-.5 0-.9.2-1.2.6-1.9 2.5-5 4-7.7 5.3-13.5 6.2-27.5 9.7-42.5 10.6.2-2.5.7-5.1 1.3-7.6 9.6-.2 19.2-3.5 28.7-6.7 6.6-2.3 13.4-4.6 20.2-5.9.4 1.2.8 2.5 1.2 3.7zM179.1 136l-.1-.1c0 .1.1.1.1.1zm-72.5-54.2v-.9l12.9 3.7-2 4.3c-8.3 19-14.3 27.3-28.8 42.9l-5.2-9.2c10.6-11.5 17.9-24.4 22.9-40.5.2-.1.2-.2.2-.3zm-2.8-4.7zM97.6 5.8c-.2-.1.6-.1 0 0-.1.1-.1.1 0 0-.1 0-.1 0 0 0zm-21.1 36c2.8-1.2 5.7-2.2 8.5-3.5 2.9-1.3 4.3-3.8 6.6-5.7.6-.5 1.4.5.8 1-2.2 1.9-3.6 4.3-6.3 5.6-2.9 1.5-6.1 2.6-9.1 3.8-.7.2-1.2-.9-.5-1.2zM10.6 97.4C9.7 94 9 89.7 8.9 84.3c.1 0 .2-.1.3-.2.3-.2.5-.3.8-.5 1.4-.8 2.9-1.7 3.6-3.8.4-1 .5-1.9.6-2.8.1-.8.2-1.5.4-2.2.5-1.2 1.5-2.3 2.6-3.3.9-.9 1.8-1.8 2.6-3 .4.1.9.2 1.3.2h.5c1.5.1 3.1.2 4.6.2-.5 2.9-2.1 5.5-3.7 8-.7 1.1-1.3 2.1-1.9 3.2-1.2 2-2.1 4.2-3 6.3-1.8 4.5-3.6 8.5-7 11zm9-32.5s.1 0 0 0c3.1-.5 5.2-.2 7.8 1.2-1.8 0-3.7 0-5.5-.2-.8-.1-1.8-.2-2.2-.7-.1 0-.1-.2-.1-.3zm20.1 58.3c-2.7-.5-10.8-2.4-14.3-4-5.2-2.5-11.2-9.6-12.9-15.2-.1-.4-.3-.9-.5-1.5-.2-.5-.4-1.1-.6-1.8.1 0 .2-.1.3-.1 4.7-3 6.8-7.9 8.9-12.6.9-2 1.8-4.1 2.8-6 .5-1 1.2-2 1.8-3.1 1.8-2.9 3.9-6.2 4.3-10.2.4-.2.8-.4 1.1-.8.4-.5.6-1.2.5-1.9-.2-1.1-1.1-1.6-1.5-1.8-3.4-2.1-6.3-2.7-10.3-2-1 0-1.8.6-2.3 1.5-.5 1-.5 2.2 0 3.1-.5.9-1.3 1.7-2.2 2.6-1.2 1.2-2.6 2.6-3.3 4.6-.4 1-.5 1.9-.6 2.9-.1.8-.2 1.5-.4 2.2-.3.7-.7 1.1-1.6 1.7.2-4.9.9-10.5 2.6-17 .3-.3.5-.7.6-1.3.7-3.3 3.4-6.3 5.3-9 2.2-3 4.5-5.9 6.9-8.7.2-.3.4-.5.7-.8 1.4.9 3 1.5 4.8 1.6 2.9.9 6.1 1.2 9.1 1.5 10.4 1.1 21 .8 31.4.1h.1c3.8 6.6 7.8 13.2 12.3 19.4 1 1.3 2.3 3.4 3.8 4.9-.4.6-.3 1.5.3 1.9.6.5 1.5.4 2.1-.2l.1-.1c.3.1.7.2 1 .2 1.7.2 3.2-.9 5-.9 2.8.1 3.6 1.9 3.8 4.5v.5c0 1.1-.8 8.2-10.4 10.9-.8.2-1.2 1-1 1.8.2.6.7 1 1.2 1.1h.6c7.4-2.1 10.5-6.6 11.8-10.1 1 .4 1.9.2 2.7-.3v.9c-5 15.8-12.2 28.4-22.7 39.7l-4.1-2.7c1.3-.6 2.7-1.2 4.1-1.9.7-.3 1.1-1.2.7-1.9-.3-.7-1.2-1.1-1.9-.7-1.3.6-2.5 1.1-3.7 1.7-1.1-2.2-3-10-4.8-19-.2-1-.3-1.9-.4-2.9-.2-1.4-.3-2.9-.7-4.4-.4-1.5-.9-2.8-1.5-4.2-.6-1.5-1.2-3-1.5-4.4-.1-.4-.1-.8-.2-1.1-.2-1.5-.5-3.2-1.5-4.5l.1-.1.1-.1c.4-.4.7-.8.8-1.3 0-.4-.2-1.5-.7-2-1.2-1.1-2.5-1.6-3.8-2.2-.3-.1-.6-.3-1-.4-1.6-.7-4.4-2-7-.9 0 0-.1 0-.1.1-.7.2-1.2.9-1.1 1.6.1.8.2 1.6.6 2.4.2.4.4.8.7 1.1 0 .1-.1.1-.1.2-3.1 6.6-.9 14.3 1.8 20.9 2.4 6 3.1 19.9 1.4 26-.3.9.3 1.8 1.1 2.1.1 0 .2 0 .3.1h.5c-5.8 1.1-11.8 1.6-19.4.3zm23.5-50c-.3.3-.8.3-1.9.3h-.2c-.9 0-1.9-.3-3.1-.9-1.1-.6-1.7-1.1-2-1.7-.1-.1-.1-.3-.1-.4 1.2-.1 2.5.4 3.9 1.1.3.2.7.3 1 .4.9.4 1.7.8 2.4 1.2zm-4 49.2c.5-.2.9-.6 1.1-1.1 1.9-6.8 1.1-21.5-1.5-28.1-2.4-6.1-4.3-12.5-2-17.9 1.3.6 2.5 1 3.6 1.1h2c.1.1.1.2.2.2.7.7.9 2 1.2 3.4.1.4.1.8.2 1.3.4 1.8 1 3.4 1.7 5 .5 1.3 1 2.5 1.3 3.8.3 1.3.5 2.5.6 3.9.1 1 .2 2.1.5 3.2 2.4 12.4 4 17.6 5 19.8-5 2.3-9.4 4.2-13.9 5.4zM75 134.2l-7.2-11c.1-.1.1-.2.2-.3l5.7-3 6.2 3.9-4.9 10.4zm3.5 4.4c-.1-.4-.4-.8-.8-.8-.2 0-.4 0-.6.1-.1-.1-.2-.1-.3-.2 0 0-.1-.1-.2-.1v-.1l5.5-11.6 5.1 9c.2.4.6.7 1.1.7.4 0 .9-.1 1.2-.4.1.1.2.1.4.1h.1c0 .3-.1.5-.2.8-.4 1.4-1.3 2.8-2.1 4.1-.1.1-.3.5-.4.6h-.5c-2.9-.3-5.7-1.1-8.3-2.2zm9 73.6c-.1-.2-.4-.4-.7-.5-.5-.1-1 .3-1 .8-.1.5.3 1 .8 1 .4 0 .7-.2.9-.5l.1 5-5.4 10.3c-.1-.3-.4-.5-.7-.5-.5-.1-1 .3-1 .8-.1.5.3 1 .8 1h.3l-2.9 5.5-5.4-12.5c.1-.8.4-2.6.8-5 .1.1.3.2.6.3.5.1 1-.3 1-.8.1-.5-.3-1-.8-1-.2 0-.4 0-.5.1.4-2.7.9-5.9 1.4-9.3h.1c.5.1 1-.3 1-.8.1-.5-.3-1-.8-1 .6-3.7 1.1-7.5 1.7-11 .1.2.3.3.6.3.5.1 1-.3 1-.8.1-.5-.3-1-.8-1-.2 0-.4 0-.6.1.7-4.6 1.2-8.7 1.6-11.2v-.2h.1c.5.1 1-.3 1-.8.1-.5-.3-1-.8-1h-.2c.3-4.1.4-9.7.5-15.6.1-8.4.2-17.8 1.2-21.1 1.6.5 3.3.8 4.9 1l.2 11.4c-.4.1-.7.4-.8.8-.1.5.3 1 .8 1l1 55.2zm21-30.6c.2-2.8.3-5.6.5-8.3 1.1-19.8 2.1-38.4 11.9-55.7.4-.7.2-1.6-.5-2-.7-.4-1.6-.2-2 .5-10.2 17.8-11.2 36.8-12.3 56.9-.1 2.7-.3 5.5-.5 8.3-.1 2.1-.3 4.1-.4 6.1-5.1-8.5-13.2-23.7-15.9-33l-.2-11.4c.5-.4.8-.9 1-1.2.9-1.4 1.9-3 2.4-4.8.5-1.8.5-3.5 0-5 13.5-14.7 19.5-23.3 27.7-41.9l1.6-3.4c11.9 4.4 22.4 11.5 24.9 13.2 5.8 4.1 25.5 18.7 32.2 35.7 0 .1.1.1.1.2.4.9 16.1 37 15.9 59.4-6.9 1.3-13.9 3.7-20.6 6-11.5 4-22.4 7.7-33.1 6.3 0-.3.1-.6.1-.8 1.7-14.4 3.2-28.1 4.8-43.3.1-.8-.5-1.5-1.3-1.6-.8-.1-1.5.5-1.6 1.3-1.5 15.2-3.1 28.8-4.7 43.2-1.4 12.5-2.9 25.4-4.5 40-1.1-.3-2.5-.4-4.2-.6-1.3-.1-2.7-.3-4-.5h-.1l-19-2.1c-1.4-16.7-.2-32.6 1-49.3.2-3.9.5-8.1.8-12.2zm34 36.9c-.8 0-1.7.1-2.5.1l.9-8.1c.3 0 .5.1.8.1.7.1 1.3.1 2 .2-.6 2.5-1 5.1-1.2 7.7zm-18.6 42c.1.8.2 1.6.5 2.5 0 .1 0 .1.1.2.3 1.8.6 3.6.9 5.3.2 1 .3 2 .5 3 .1.3.1.6.2 1 .3 1.4.8 3.9 0 4.7-.1.1-.2.2-.3.2-.3-.3-.7-1.1-.9-2-.4-2.9-.7-5.8-1-8.6-.1-1.2-.3-2.5-.4-3.7-.1-.8-.8-1.4-1.6-1.3-.8.1-1.4.8-1.3 1.6.1 1.2.3 2.5.4 3.7.2 2.6.5 5.3.9 8 0 .2.1.5.2.9 0 .3.1.5.1.9.4 2.6.5 4.3-.5 4.6-.3.1-.4 0-.5 0-.6-.4-1.1-2-1.3-4.6v-.1c-.4-3.8-.9-7.6-1.4-11.3l-.1-.5c-.1-.8-.8-1.4-1.6-1.3-.8.1-1.4.8-1.3 1.6l.6 5.1c.3 2.8.7 5.7.9 8.5.1.8-.5 2.1-1 2.5-.1.1-.2.1-.5-.1-1.8-1.1-1.7-6.6-1.7-9.3v-1.6-1.9c0-1.9-.1-3.9-.2-5.8-.1-1.1-.1-2.3-.2-3.3v-.8c0-.8-.7-1.4-1.5-1.4s-1.4.7-1.4 1.5v.8c.1 1.5.1 3.1.2 4.6.1 1.5.2 3 .2 4.5 0 1.1-.2 2.7-.5 3.7-2.4-3.8-2.3-8.6-2.3-13.2v-4.3-.3c1.1.4 2.2.6 3.1.7 2.2.3 7 .9 11.6 1.5 2.3.3 4.7.6 6.8.9 0 1.7.2 3.8.4 5.9.2 2.3.4 4.6.4 6.5 0 1-.1 1.6-1 2.2-.6-2-.9-4.1-1.3-6.3-.3-2-.6-4.1-1.2-6 0-.1 0-.1-.1-.2-.3-.7-1-1-1.7-.9-.8.2-1.3.9-1.2 1.7zm-.9-6.7c-4.6-.6-9.4-1.2-11.6-1.5-1.4-.2-2.7-.4-3.4-1.2-.1-.1-.2-.3-.3-.4-.1-1.4-.2-2.9-.4-4.4l18 2c1.4.2 2.9.4 4.2.5 1.5.1 3.4.3 4.2.6-.2 1.9-.4 3.8-.6 5.8-2.5-.4-6.4-.9-10.1-1.4zm15.4 25.2c-3.4 1.4-7 2.9-10.5 4.5-2.3 1-4.6 2.2-5.8 4.5-1.1 2.2-.8 4.7-.3 7.1 5.5 28.2 9.4 51.7 6.1 76.3-2.9-.6-5.9-1.2-8.8-1.7-2.6-.5-5.3-1-7.9-1.5-1.9-25-3.5-50.4-4.7-75.4 0-.8-.7-1.4-1.5-1.4s-1.4.7-1.4 1.5c1.2 24.8 2.7 49.9 4.6 74.7-5-1.1-10-2.3-14.7-3.8 0-.1.1-.2.1-.3.8-10.9-.4-21.2-1.7-32.1-.3-2.1-.5-4.3-.8-6.5-.4-6-1.2-12.1-2-18.1-3-23.7-6.1-48.2 10.5-66.8l3.7-3.1c.2 3.8.5 7.6.9 11.5.1.9.2 2 .6 3 .1 1.1.1 2.3.2 3.5.1 1.3 0 2.7 0 4.1 0 4.9-.1 10.5 2.9 15.1 1.1 1.6 2.1 1.8 2.9 1.6.1 3.3.8 6.7 3 8 .5.3 1 .5 1.5.5.7.1 1.4-.1 2-.5.4-.3.8-.6 1.1-1 .3.4.6.7 1 .9.8.6 1.9.7 2.9.4 2.1-.6 2.8-2.2 2.9-3.9.7.1 1.7 0 2.8-1.2 1-1 1.2-2.4 1.2-3.8 3.3-1.3 3.7-3.4 3.8-5.3 0-2.1-.2-4.5-.4-6.8-.2-1.8-.3-3.6-.4-5.1 1.3.2 3 .6 3.4-.9v-.1-.1c.5-2.2.6-3.8.7-5.9 0-.7.1-1.5.1-2.3 1-9.8 2-18.8 3-27.4 3.3-.1 6.6-.2 9.8-.5 0 .1 0 .1-.1.2-.6 3.1.4 6.6 2.7 9.7 1.9 2.6 4.5 4.6 6.9 6.5.2.2.5.3.7.3h.1c-6.4 6.2-13.4 11.8-20.9 16.7-.7.4-.9 1.3-.4 2 .2.4.6.6 1.1.7.3 0 .7 0 .9-.2 11.6-7.4 21.9-16.5 30.6-27.1.5-.6.4-1.5-.2-2.1-.6-.5-1.5-.4-2.1.2-2.4 2.9-4.9 5.7-7.5 8.3 0-.4-.2-.8-.6-1.1-2.3-1.8-4.7-3.6-6.4-5.9-1.8-2.4-2.6-5.1-2.2-7.4.1-.3 0-.7-.2-1 12.9-1.5 25.1-4.9 37-10.3 2.9-1.3 6.1-3 8.4-5.7 2.9 13.1-1 24.4-1 24.5v.1c-4.6 15-12.8 25.8-25.9 34-9.6 6.6-20.8 11.3-31.7 15.9zm92.9 71.7c-3.1 2.3-5.8 4.3-8.5 6.3-.5.4-1.1.8-1.6 1.2l-11-8.7c-3.6-2.9-7.4-5.8-10.8-9-3.2-2.9-6.2-6.2-9.1-9.3-5.2-5.6-10.6-11.3-17-15.7l-5.6-35c-.1-.8-.9-1.3-1.7-1.2-.8.1-1.3.9-1.2 1.7l5.7 35.6c.1.4.3.8.6 1 6.4 4.3 11.8 10 17 15.6 3 3.2 6 6.5 9.3 9.5 3.5 3.3 7.3 6.3 11 9.2l10.3 8.2c-2.6 1.9-5.4 4-8.7 6.5-.8.6-1.8 1.3-2.5 1.2-.4-.1-.9-.4-1.4-.7-14.2-10-28.4-20.5-42-31.2-2.8-2.2-5.9-4.6-8.3-7.6-4-4.8-6.5-11.3-7.9-20.4-1.5-9.6-1.5-19.4 0-29v-.6c8.3-3.6 16.6-7.5 24.3-12.3 5.9-3.7 10.8-8 15-12.9.2 3.7-.7 11.7-1.5 19-1.2 10.7-2.4 21.8-1.5 26.9 0 .1.1.3.1.4 0 .2.1.4.2.6 21.6 29.6 28.6 36.7 46.6 47.5.6.4 1 1 1 1.7.1.5-.2 1.1-.8 1.5z"/>
</svg>
