<svg xmlns="http://www.w3.org/2000/svg" width="164" height="68">
  <path d="M122.9 13.1c-1.1-1.1-2.7-1.8-4.3-1.8h-8.8V6.6c0-3.3-2.7-6-6-6h-8.1c-3.3 0-6 2.7-6 6v.1c-.5-.1-.9-.2-1.4-.2H67c-2.1 0-3.9 1-5 2.6-.3-.4-.6-.8-1-1.1-2.4-2.2-5-4.2-7.5-5.9-1-.7-2.2-1-3.3-1-.9 0-1.7.2-2.5.6-1-.7-2.2-1.1-3.4-1.1h-7.5c-1.6 0-3.1.6-4.3 1.8-1.1 1.1-1.8 2.7-1.7 4.3v2.6H11.6c-3.3 0-6 2.7-6 6v12.1c0 15.8-2.3 22.8-4.3 25.9-1.7 2.7-1 6.2 1.6 8l6.8 4.9c1 .7 2.3 1.1 3.5 1.1.5 0 .9-.1 1.4-.2 1.7-.4 3.1-1.5 3.9-3.1.9-1.7 1.7-3.5 2.4-5.4l4.8 6.1c1.2 1.5 2.9 2.3 4.7 2.3.9 0 1.8-.2 2.7-.6 3.3-1.6 6.3-3.4 8.8-5.3 3.2 4 7 6 11.3 6 5.5 0 8.9-3.7 11-7.9.1 0 .1.1.2.1 1 .6 2.1 1 3.2 1 .5 0 1-.1 1.5-.2 2.5-.7 4.9-1.4 7.4-2.2.4.7.9 1.4 1.5 2l7.2 6.1c1.1.9 2.5 1.4 3.9 1.4 1.5 0 2.9-.5 4.1-1.6s2.3-2.2 3.4-3.4c.8 2.3 2.9 3.9 5.4 3.9 1.1 0 2.3.1 3.6.1 7.5 0 11.8-1.2 14.4-4 2.2-2.4 3.5-6 3.9-11.2.4-4 .6-15.1.7-33.8.1-1.6-.6-3.1-1.7-4.3zM89.4 30.7c-.1.5-.2 1.1-.3 1.6h-.2c-.5 0-1.1.1-1.6.2v-2.2c.7.3 1.4.4 2.1.4zm-25.5-.1c.5-1.4.4-2.9-.1-4.3.3-.3.5-.6.7-.9.8.3 1.6.5 2.5.5h.8v13.4c-.9.2-1.8.4-2.6.6-1 .2-1.9.6-2.7 1.2l-2.3-1.5c1.4-2.9 2.6-5.9 3.7-9zM53.2 61.2c-3.8 0-7.1-3.1-9.9-9.2-3.1 3.3-7.4 6.3-13 9l-5.1-6.5c5.7-1.9 10.8-5.1 15.2-9.6-2.3-6-3.4-13.6-3.6-22.9H19.1v6h15.5v1.8c0 10.7-.6 17-1.9 19-1.3 2-4.3 3-8.9 3-1.2 0-2.3 0-3.3-.1l-1.2-7.1c1.2.2 2.5.3 3.8.3h.5c1.9 0 3-1 3.2-2.8s.3-4 .3-6.5v-.7h-8.2c-.2 10.7-2.2 19.5-5.8 26.5l-6.8-4.9c3.5-5.5 5.2-15.2 5.2-29.1V15.3h25.1l-.1-8.6H44v8.6h6.6c-1.2-1.4-2.8-2.9-4.8-4.4l4.4-3.7c2.3 1.6 4.6 3.3 6.8 5.4l-3.2 2.7h5.6v6.9H44.3c.2 5.8.8 11.2 1.8 16.3 2.7-4.2 4.7-8.7 6.1-13.6l6.1 3.7c-2.3 6.7-5.4 12.7-9.3 18 0 .4.5 1.5 1.5 3.3.9 1.8 1.7 2.6 2.3 2.6 1.1 0 2-3 2.6-8.9l4.9 3.2.6 3.8c-1.8 7.1-4.3 10.6-7.7 10.6zm14.4-6.8l-.6-3.5c.2-.8.3-1.5.4-2 .2-1.1.1-2.2-.3-3.3 1.9-.4 4.1-1 6.6-1.7v-24h-6.8v-7.4h21.5v7.4h-7.1v21.5c3.2-1.2 5.7-2.2 7.6-3.2v8.2c-7 3.5-14.1 6.1-21.3 8zm50.4-3.7c-.4 3.8-1.1 6.3-2.4 7.7-1.2 1.4-4.6 2-10 2-1.3 0-2.4 0-3.4-.1l-1.6-8.5c2.3.3 4.3.5 6.2.5 1.6 0 2.6-.4 3-1.2.4-.8.7-3.2.8-7 .2-3.9.2-9 .2-15.4v-4.1h-7.1c-.2 15.7-5.1 28-14.6 36.8l-7.2-6.1c4.1-2.8 7.5-6.9 10-12.4 2.6-5.5 3.9-11.6 3.9-18.1v-.1h-6.4v-7.4h6.4V6.6h8.1v10.7h14.8c-.1 18.5-.3 29.6-.7 33.4zM157.6 7.4l-.8 35.6h-7.4l-1.1-35.6h9.3m0 41v9.5h-8.8v-9.5h8.8m0-47h-9.2c-1.6 0-3.2.7-4.3 1.8-1.1 1.2-1.7 2.7-1.7 4.4l1.1 35.6c0 .6.1 1.3.3 1.8-.6.9-1 2.1-1 3.3v9.5c0 3.3 2.7 6 6 6h8.8c3.3 0 6-2.7 6-6v-9.5c0-1.3-.4-2.5-1.1-3.5.2-.5.3-1.1.3-1.7l.8-35.5v-.3c0-3.2-2.7-5.9-6-5.9zm0 12z"/>
  <path d="M43.3 52c2.8 6.1 6.1 9.2 9.9 9.2s6.6-4.5 8.3-13.5l-6.2-4.1c-.6 5.9-1.5 8.9-2.6 8.9-.6 0-1.3-.9-2.3-2.6-1-1.8-1.5-2.8-1.5-3.3 3.9-5.3 7-11.3 9.3-18l-6.1-3.7c-1.4 4.9-3.4 9.4-6.1 13.6-1-5.1-1.6-10.5-1.8-16.3h15.2v-6.9h-5.6l3.2-2.7c-2.2-2-4.5-3.8-6.8-5.4l-4.4 3.7c1.9 1.5 3.5 3 4.8 4.4h-6.4V6.7h-7.5l.1 8.6H11.6v12.1c0 13.9-1.7 23.6-5.2 29.1l6.8 4.9c3.6-7 5.5-15.8 5.8-26.5h8.2v.7c0 2.5-.1 4.6-.3 6.5-.2 1.8-1.3 2.8-3.2 2.8h-.5c-1.3 0-2.6-.1-3.8-.3l1.2 7.1c.9.1 2 .1 3.3.1 4.6 0 7.6-1 8.9-3 1.3-2 1.9-8.3 1.9-19V28H19.1v-6H37c.1 9.3 1.3 17 3.6 22.9-4.4 4.5-9.5 7.7-15.2 9.6l5.1 6.5c5.5-2.7 9.8-5.7 12.8-9zM102.3 60.4c1 0 2.1.1 3.4.1 5.4 0 8.7-.7 10-2 1.2-1.4 2-3.9 2.4-7.7.3-3.8.6-14.9.6-33.3h-14.8V6.6h-8.1v10.7h-6.4v7.4h6.4v.1c0 6.6-1.2 12.6-3.9 18.1-2.6 5.5-5.9 9.6-10 12.4l7.2 6.1c9.6-8.8 14.4-21.1 14.6-36.8h7.1v4.1c0 6.4-.1 11.6-.2 15.4-.2 3.9-.4 6.2-.8 7-.4.8-1.4 1.2-3 1.2-1.9 0-3.9-.2-6.2-.5l1.7 8.6z" fill="#fff"/>
  <path d="M89 46.5v-8.2c-1.9.9-4.4 2-7.6 3.2V19.9h7.1v-7.4H67v7.4h6.8v23.9c-2.9.9-5.4 1.5-7.6 1.9l1.5 8.6c7.1-1.8 14.2-4.4 21.3-7.8zM148.4 7.4l1 35.6h7.4l.8-35.6zM148.8 48.4h8.8v9.5h-8.8z" fill="#fff"/>
</svg>
