<svg id="圖層_1" xmlns="http://www.w3.org/2000/svg" width="224" height="68">
  <path d="M222.3 51.7c-.6-1.6-1.9-2.9-3.5-3.5-.2-.1-.3-.1-.5-.2 1.9-4.1 2.8-8.7 2.8-13.9 0-8.1-2.2-14.8-6.7-19.8-4.9-5.6-11.7-8.4-20.1-8.4-8.3 0-15 2.7-19.8 7.9-1.2 1.3-2.3 2.8-3.2 4.4-.8-1.4-1.8-2.8-2.8-4-4.9-5.6-11.7-8.4-20.1-8.4-8.3 0-15 2.7-19.8 7.9-.2.3-.4.5-.7.8-.2-3.2-2.8-5.7-6-5.7h-6.7c0-.2.1-.3.1-.5.3-1.6-.1-3.3-1.1-4.6s-2.4-2.2-4.1-2.4l-7.5-.9h-.7c-1.3 0-2.7.5-3.7 1.3-.4.3-.8.7-1.1 1.1-.8-.3-1.6-.5-2.5-.5H70.1c-3.3 0-6 2.7-6 6v6.2c-.8-2.4-3-4.2-5.7-4.2H45.9V6.7c0-3.3-2.7-6-6-6h-8.4c-2 0-3.8 1-4.9 2.5l-4.3-.9c-.4-.1-.8-.1-1.2-.1-2.5 0-4.9 1.6-5.7 4.1-.7 2-2 4.4-4.1 7.2s-4 4.8-5.8 6.1c-1.5 1-2.4 2.7-2.5 4.5-.1 1.4.3 2.7 1.1 3.8-.8 1-1.3 2.3-1.3 3.8v7.4c0 3.3 2.7 6 6 6h4.8c-2.3 1.2-4.9 2.1-7.7 2.8-1.9.5-3.4 1.8-4.1 3.5-.7 1.8-.6 3.8.4 5.4L7 64.6c1.1 1.8 3.1 2.9 5.1 2.9.6 0 1.2-.1 1.8-.3 6-1.8 11.6-4.9 16.7-9 2.2-1.8 4.1-3.6 5.7-5.6 1.7 2.1 3.6 4.1 5.6 6 4.6 4.1 9.3 7 13.8 8.6.6.2 1.3.3 2 .3 2 0 4-1 5.1-2.8l1.6-2.6 5.6 4.3c1.1.8 2.4 1.2 3.6 1.2 1.6 0 3.1-.6 4.3-1.8 1.8-1.8 3.5-4 5-6.4.4.7.8 1.4 1.1 2.1.7 1.5 2.1 2.6 3.6 3.1.6.2 1.1.3 1.7.3 1 0 2.1-.3 3-.8l.5-.1.6.9c1.2 1.6 3 2.5 4.9 2.5 1 0 2.1-.3 3.1-.8 2.5-1.5 4.8-3.1 6.8-4.9 2 1.9 4.2 3.5 6.4 4.9 1 .6 2 .9 3.1.9 1.9 0 3.8-.9 5-2.6l4.7-6.9c.7-1 1-2.2 1-3.4 4.8 5.3 11.5 7.9 20.1 7.9 3 0 5.8-.4 8.5-1.2 3.4 2.3 6.3 3.7 8.8 4.5.6.2 1.2.3 1.7.3 2.2 0 4.3-1.2 5.3-3.2l3.2-6.1c.1-.1.1-.3.2-.5 4.6 4.1 10.8 6.2 18.3 6.2 3 0 5.8-.4 8.5-1.2 3.4 2.3 6.3 3.7 8.8 4.5.6.2 1.2.3 1.7.3 2.2 0 4.3-1.2 5.3-3.2l3.2-6.1c.8-1.7.9-3.5.3-5.1zM63.8 48.1c-2.7-.6-5.1-1.5-7.2-2.8h4.8c1 0 1.9-.2 2.7-.7v2.2c0 .5.1 1 .2 1.4-.1 0-.3 0-.5-.1zm56.6-2.1c.6-1.6 1.1-3.4 1.7-5.5.5 3 1.4 5.8 2.6 8.3-1.4-.7-2.8-1.6-4.3-2.8zm33.6-9.3c-1.2-.6-2.3-1-3.5-1.4-.6-.2-1.3-.3-1.9-.3-2.3 0-4.4 1.3-5.4 3.4l-.2.4c-.4-1.2-.5-2.8-.5-4.5 0-2.4.4-4.5 1.1-6.1.8-1.7 1.8-2.7 4.7-2.7 2.7 0 3.7.9 4.5 2.1.9 1.6 1.4 3.8 1.4 6.6-.1.9-.1 1.7-.2 2.5zm46 0c-1.2-.6-2.3-1-3.5-1.4-.6-.2-1.3-.3-1.9-.3-2.3 0-4.4 1.3-5.4 3.4l-.2.4c-.4-1.2-.5-2.8-.5-4.5 0-2.4.4-4.5 1.1-6.1.8-1.7 1.8-2.7 4.7-2.7 2.7 0 3.7.9 4.5 2.1.9 1.6 1.4 3.8 1.4 6.6-.1.9-.1 1.7-.2 2.5z"/>
  <path fill="#fff" d="M42.8 39.3h18.6v-7.4H39.2c.4-2 .6-4.7.7-8.3h18.6v-7.1H39.9V6.9h-8.4v9.6h-5.7c1-1.7 2-3.9 3-6.5l-7.6-1.5c-.9 2.6-2.5 5.5-5 8.8s-4.9 5.8-7.1 7.4l6.4 5.9c2.9-2.6 4.9-4.9 6.2-7h9.7c0 2.4-.3 5.2-.9 8.3H8.9v7.4h19.5c-1 3-3.5 5.8-7.4 8.6-3.9 2.7-8.4 4.7-13.5 6l4.8 7.8c5.2-1.6 10.1-4.3 14.7-8 4.5-3.7 7.6-7.8 9.3-12.2 2.5 5 5.7 9.2 9.7 12.8 4 3.6 7.9 6.1 11.8 7.4l4.7-7.7c-8.4-1.9-15-6.8-19.7-14.7zM116.3 50.5c-2.2-1.7-3.3-2.7-3.3-2.9 1.4-2.1 2.6-5.9 3.8-11.1 1.1-5.3 1.7-10.1 1.7-14.4h3.3v-7h-14.2c.8-2.5 1.4-5 1.8-7.5l-7.5-.9c-.3 3-1.3 6.5-2.8 10.7-1.6 4.2-3 7.3-4.5 9.1v-18H70.1v38.4h24.5V31l2.8 5.6c1.5-2 2.2-3.1 2.2-3.6.4 5.6 1.9 10.4 4.4 14.4-2.5 2.7-5.5 4.8-9.2 6.3-1.5-2.5-3.4-4.7-5.6-6.7l-5.9 2.4c2.3 2.6 4.4 5.8 6.2 9.5l5-2.9 3.8 5.3c4.1-2.5 7.5-5.3 10-8.4 2.9 3.5 6 6.3 9.4 8.4l4.7-6.9c-1.9-.9-3.9-2.2-6.1-3.9zM87.2 40.4h-9.6v-4.9h9.6v4.9zm0-10.8h-9.6V25h9.6v4.6zm0-10.4h-9.6v-4.3h9.6v4.3zm21.3 22.4c-2-5.2-3.2-11.5-3.5-18.9l.3-.7h6.2c0 7-1 13.5-3 19.6z"/>
  <path fill="#fff" d="M73.8 61.7c2.9-3 5.5-7 7.7-12.2L74.9 47c-1.8 4-4.3 7.2-7.6 9.8l6.5 4.9zM133 18c-3.6 3.9-5.4 9.4-5.4 16.2 0 6.4 1.6 11.6 4.7 15.5 3.6 4.5 9.1 6.7 16.3 6.7 3.4 0 6.5-.6 9.4-1.8.7.4 1.2.8 1.6 1.1 3.2 2.2 5.9 3.7 8 4.3l3.2-6.1c-1.6-.6-3.1-1.3-4.5-2.1-.6-.4-1.4-.9-2.4-1.6 3.5-4.1 5.3-9.5 5.3-16 0-6.7-1.7-12-5.2-15.9-3.7-4.2-8.9-6.3-15.6-6.3-6.7 0-11.8 2-15.4 6zm24.9 6.5c1.5 2.5 2.2 5.8 2.2 9.7 0 4.8-1.1 8.5-3.3 11.2-2.7-2-5.5-3.5-8.3-4.5l-2.3 5c2 .7 3.8 1.6 5.3 2.7-1.2.2-2.3.4-3.2.4-3 0-5.5-.9-7.6-2.6-2.9-2.5-4.3-6.6-4.3-12.1 0-3.3.5-6.2 1.6-8.6 1.9-4.1 5.3-6.2 10.1-6.2 4.6-.1 7.8 1.6 9.8 5zM179 18c-3.6 3.9-5.4 9.4-5.4 16.2 0 6.4 1.6 11.6 4.7 15.5 3.6 4.5 9.1 6.7 16.3 6.7 3.4 0 6.5-.6 9.4-1.8.7.4 1.2.8 1.6 1.1 3.2 2.2 5.9 3.7 8 4.3l3.2-6.1c-1.6-.6-3.1-1.3-4.5-2.1-.6-.4-1.4-.9-2.4-1.6 3.5-4.1 5.3-9.5 5.3-16 0-6.7-1.7-12-5.2-15.9-3.7-4.2-8.9-6.3-15.6-6.3-6.7 0-11.8 2-15.4 6zm24.9 6.5c1.5 2.5 2.2 5.8 2.2 9.7 0 4.8-1.1 8.5-3.3 11.2-2.7-2-5.5-3.5-8.3-4.5l-2.3 5c2 .7 3.8 1.6 5.3 2.7-1.2.2-2.3.4-3.2.4-3 0-5.5-.9-7.6-2.6-2.9-2.5-4.3-6.6-4.3-12.1 0-3.3.5-6.2 1.6-8.6 1.9-4.1 5.3-6.2 10.1-6.2 4.6-.1 7.8 1.6 9.8 5z"/>
</svg>
