<svg xmlns="http://www.w3.org/2000/svg" width="200" height="50" style="enable-background:new 0 0 200 50" xml:space="preserve"><path style="fill:#fff" d="M62.6 12.7h12.1v2.6H67v7.5h7.2v2.6H67v9.7h-4.3V12.7zm15.3 22.5h4V18.4h-4v16.8zm-.7-22.7 2.6 2.7 2.7-2.7-2.7-2.7-2.6 2.7zm13.6 10.1-.1-4.2h-3.6v16.8h4v-6c0-1.2 0-3.7.6-5.2s1.8-2.3 2.9-2.3c.3 0 .9.1 1.3.2l.7-3.5c-.7-.2-1.2-.3-1.6-.3-1.6 0-3.3 1.6-4.2 4.5zm14.2 2.7-1.5-1c-1.4-.9-2-1.6-2-2.4 0-.9.8-1.8 2.3-1.8 1 0 2 .3 3 .7l.8-2.1c-1.8-.8-3.4-.9-4-.9-3.5 0-5.8 2.2-5.8 4.7 0 1.8 1 3.2 2.9 4.5l1.3.9c1.2.8 2.8 1.6 2.8 3.1 0 1.3-1.2 2.1-2.5 2.1-1.5 0-2.8-.6-3.6-1.1l-1 2.1c1.1.6 2.7 1.3 4.7 1.3 3.6 0 6-2.3 6-5.1.1-2.4-1.7-3.8-3.4-5zm12.5 7.7c-1.5 0-1.5-1.1-1.5-2.5v-9.9h3v-2.2h-3.2v-4.5h-3.6l-.1 4.5h-2.5v2.2h2.3v10.2c0 1 0 2 .5 2.9.6 1.1 1.8 1.7 3.4 1.7 1.2 0 2.3-.1 3.4-.5l-.6-2.2c-.1.2-.5.3-1.1.3zm29.3-4.2c0 2.1-1.1 4.3-3.3 5.3-1.4.8-2.9 1.1-6.5 1.1h-5.5V12.7h6.7c2 0 3.8.1 5.4 1 1.5.8 2.3 2.3 2.3 4.1 0 2.4-1.5 4.6-4.7 5.5.8.1 2.1.3 3.3 1.1 1.5 1 2.3 2.4 2.3 4.4zm-11-6.4h1.4c.9 0 2.2 0 3.1-.5 1.1-.6 1.6-2 1.6-3.4 0-.9-.2-2.1-1.1-2.7-.8-.6-1.7-.6-3.2-.6h-1.7v7.2zm6.5 6.1c0-1.2-.3-2.5-1.4-3.2-.9-.6-2.1-.7-3.8-.7h-1.4v8h1.7c1 0 2.4 0 3.3-.6 1.3-.6 1.6-2.1 1.6-3.5zm19.8.5c0 2 .1 4.1.5 6.2h-3.9l-.3-2.8c-1.2 2.1-2.9 3.1-4.9 3.1-3 0-4.6-2.3-4.6-4.5 0-3.6 3.7-5.1 9.3-7v-.4c0-2.2-1.2-3.1-3.3-3.1-1.7 0-3.1.7-4.1 1.2l-.9-2.1c1.5-.7 3.5-1.6 6-1.6 1.6 0 4.6.4 5.8 2.6.4.8.5 1.6.5 3.4v5zm-3.9-3c-3.9 1.5-5.4 2.5-5.4 4.6 0 1.7 1.2 2.5 2.3 2.5 1.2 0 2-.8 2.5-1.9.5-1.2.6-2.5.6-4.3V26zm17.6-8c-1.8 0-3.8.8-5 3.3l-.2-2.9H167v16.8h4v-8.1c0-1.6-.1-6.4 3.2-6.4 2.6 0 2.4 3.1 2.4 4.2v10.3h4V24.6c0-1.7 0-3.1-.5-4.1-.6-1.2-2-2.5-4.3-2.5zm23.4.4H196l-6.4 7.6V10.5h-4v24.7h4v-8.4l5.4 8.4h4.8l-6.7-10 6.1-6.8zM34.1 25l-8.2-8.2-8.3 8.2 8.2 8.2 8.3-8.2zm2.6 13.7c0-.1 0-.1 0 0l-.1-.1-.2-.2c-2.9 2.4-6.7 3.8-10.8 3.8-9.4 0-17.4-7.7-17.4-17.1 0-13.8 10-21.7 22-21.7 4.7 0 9.1 1.5 12.7 4.1l.1-.2.2-.2C38.6 2.7 32.4 0 25.5 0 11.5 0 .2 11.2.2 25c0 11.4 9.3 20.3 20.9 20.3 6.2 0 11.8-2.4 15.6-6.6zm-6.1-34c-3.1 0-6 .6-8.6 1.7h-.1l-1.2.6c-.2.1-.5.2-.7.4-.1 0-.1.1-.2.1-1.8 1-3.4 2.3-4.8 3.9l.1.1.2.2c2.9-2.4 6.7-3.8 10.8-3.8 9.4 0 17.4 7.7 17.4 17.1 0 13.8-10 21.7-22 21.7-4.7 0-9.1-1.5-12.7-4.1l-.3.3c4.6 4.4 10.8 7.1 17.7 7.1 14 0 25.3-11.2 25.3-25 0-2.9-.6-5.5-1.6-8C46.7 9.7 39.3 4.7 30.6 4.7z"/></svg>