<svg width="30" height="30" fill="none" xmlns="http://www.w3.org/2000/svg"><g clip-path="url(#clip0_443_1342)" fill="#000"><path d="M1.76 7.033h-.064s.043.032.065.054v-.054z"/><path d="M28.25 8.794v10.424c.475.098.886.055 1.437-.13-.033.79-.875 1.081-1.437.897v2.626c.389.14.875.486.918.756l-.68.26-.238-.368v3.23h-7.195c-2.744 0-4.278 1.545-4.656 1.76h-2.787c-.378-.204-1.912-1.76-4.656-1.76H1.76V7.594c-.508.303-1.696.832-1.534.152l.94-.443-.076-.27H0v17.879l1.091-.551v.54l-.94.54L0 25.28v2.97h8.945c2.474 0 3.749 1.665 3.878 1.762h4.365c.13-.098 1.426-1.761 3.878-1.761h8.945V8.794H28.25zM4.04 28.099v-.044l-.389-.497h-.54l.14.54c-.615.098-1.134-.086-1.08-.788l1.47-.54.389 1.296.032.043H4.04v-.01zm23.778-1.318v.248l-1.329.27v-.54h1.329v.022z"/><path d="M4.3 23.831l-.41.52h-.38v.377h3.057l.616-1.177H8.88c.54.086.162 1.058.162 1.058h-.01s-.476-.27-.865-.205a3.4 3.4 0 00-.497.195l-.021.032h-.022c-.086.022-.162.065-.249.108h1.578c1.188 0 2.344.238 3.414.702-.098-2.344-2.053-4.213-4.451-4.213H5.283V12.91c-.378.14-.66.356-.757 1.037h-.021l-.962-1.286c.53-.486 1.178-.313 1.729-.367V5.953l-.249.4-.648-.865.638-.475.259.378V3.543H3.51v20.04l.789.27h-.011l.01-.022zm11.58 2.615c.12-.087.249-.184.411-.281 2.377-1.588 4.105-1.502 8.264-1.448-.259-.216-.453-.389-.367-.756l.81.27v.497H26.5V5.272h-2.085l-.076.389-.82.162.453-.551h-2.895c-1.858 0-3.652.486-5.24 1.426.043.4.065.81.065 1.22v18.539l-.021-.011zm10.339-9.777h-.54v-.789h.54v.79zm-.454-10.284c.616.086.821 1.318.692 1.858-.746-.465-1.167.518-1.74.55l-.67-.81.81-.27-.658-.162c-.119 0-.249-.032-.4-.097l.4.097c.8.022.961-1.264 1.577-1.166h-.01zM22.967 10.1h.81c0-.54-.713-1.21.27-1.059l.27 1.977-1.35.95c.378-.658.357-1.198 0-1.868z"/><path d="M7.033 9.658v9.787h.875c3.424 0 6.212 2.766 6.212 6.158V7.908c0-1.89-.508-3.63-1.448-4.991-.216.443-1.383 1.502-1.664 1.588l-.486-.648c.303-.562 1.232-.378 1.448-.54.13-.087.075-.789.497-.692C11.235 1.015 9.387-.01 7.033-.01V9c.173.194.14.432 0 .659zm2.063 6.99c-.227-.919.508-1.21 1.178-1.545.183.8-.562 1.318-1.178 1.545zm2.355-.422l.432 1.016c-1.458.918-1.717-.238-.432-1.016zm1.232 2.096c-.022.648-.713 0-.767 0-.432.022-.595.702-.94-.065.367-.26 1.74-.875 1.707.065zm-.854-2.042l-.8-1.059.433-.324c.324.39.745.897.367 1.383zm.14-11.84c.184.637-1.22 1.07-1.544 1.502-.173-.638 1.22-1.07 1.545-1.502zM9.238 8.167c.69-.324.55.897.799 1.253.205.303.572.454.832.692l-.27.67-1.297.356h.011l.897-1.026c-.173-.832-1.21-.249-1.491-.735-.173-.302.14-1.037.508-1.21h.01zm-1.589-2.82l.487.595.799-.206-1.653.908h.011c-.086-.249.032-1.383.367-1.286l-.01-.01zm-.507 2.896l.075-.573.314-.237.864.702-1.253.097v.01zm-5.154-.811c0-.097-.087-.227-.227-.345v.507c.13-.075.227-.14.227-.162zM6.99 24.22l.637.39s.021-.012.043-.022l.378-.508-1.059.13v.01zm17.598.53h.4v-.033h-.444a.15.15 0 00.044.033z"/></g><defs><clipPath id="clip0_443_1342"><path fill="#fff" d="M0 0h30v30H0z"/></clipPath></defs></svg>