<svg width="30" height="30" fill="none" xmlns="http://www.w3.org/2000/svg"><g clip-path="url(#clip0_443_1741)"><path d="M29.82 9.05c0-4.53-3.628-8.21-8.095-8.21-2.921 0-5.477 1.568-6.901 3.914C13.4 2.408 10.844.84 7.922.84 3.455.84-.172 4.52-.172 9.05c0 0-.682 9.247 14.996 19.79C30.5 18.297 29.819 9.05 29.819 9.05zM.314 9.568l.097-.506-.23-.086c.06-.16.437-.284.522-.198.037.025-.121 1.136-.389.79zm1.838-.407v-.395h.377v.012l.146.383h-.523zm7.826 0c.366-.025.84-.05.962.395h-.962v-.395zm-.39.79c.536.247.512.914.378 1.37-.62-.271-.475-.827-.377-1.37zm-.023 5.68l-.293.394-.474-.296.767-.099zM3.979 5.84c.304.123.06.802.134 1.06-.305-.123-.061-.802-.134-1.06zm-.134 2.666l.523-.136-.328.53-.195-.197v-.197zm-.317-3.47c.146-.049.256 1.038.195 1.198h-.402c-.133-.284.22-.605.22-.74 0-.087-.39-.322-.013-.457zm-.462 2.79h.377l.158-.394-.134.926c-.121-.05-.523-.432-.389-.531h-.012zm1.485 8v.383l-.682.395-.28-.296.962-.494v.013zm-.11-5.863l-.426-.321.231-.47c.439-.135.45.741.195.79zm.706 4.679h.584l-.097.79c-.231-.26-.56-.42-.487-.79zm.025-5.075l.377.21c-.11.482-.402.692.012 1.111H4.77c-.061-.58.657-.753.402-1.333v.012zm1.509 8.988v-.025l-.28-.37h-.39l.098.395c-.438.074-.816-.062-.78-.58l1.06-.395.28.95.024.025h-.012zm.182-3.123l-.292.382h-.28v-.592l.585.197-.013.013zm-1.046-6.53l-.134-.667c-.378-.185-.45.408-.73.37-.171-.024-.366-.37-.33-.567.074-.37.512.049.731.061.183 0 .353-.086.511-.123l.183.309-.244.63.013-.013zm4.333 8.284s-.341-.198-.621-.148c-.243.049-1.242.605-1.302.543l.596-1.173h1.217c.39.062.122.778.122.778h-.012zm.584-7.432l.779.197c-.11 1.26-.889.901-.779-.197zm1.4.642c-.17.259.146.654-.438.518.012-.32.243-1.395.779-.975.365.296-.317.42-.341.444v.013zm.973-2.47c.134-.234.134-.432 0-.666h.293c0-.198-.256-.432.097-.383l.097.716-.474.346-.012-.012zm.573-2.679l-.086.408-.292.062.378-.47zm12.22 5.556v.593h-1.448c.182-.655.888-.63 1.448-.593zm-7.632 8.914l.67.852-.524-.1-.146-.74v-.012zm.998 4.777l-.852-.617.17-1.271c.622-.087.171.345.171.69h.511c-.23.433-.243.779 0 1.198zm3.384-11.84s-1.059-.234-.499-.678c.791-.642 1.157.975 1.169 1.469-.889.198-.402-.395-.67-.79zm.937-.666l1.169-.296c.158 1.642-1.01 2.185-1.169.296zm2.337 2.05c-.206-.692-.243-1.692.573-2.062.145.802.377 1.642-.573 2.062zm-.45-8.951c-.073.272.17.975-.134 1.099.073-.272-.17-.976.134-1.099zM24.147 8.42l-.182-.469.146-.234c.134.024.255.098.39.098.157 0 .498-.333.56-.049.036.148-.122.42-.244.432-.207.025-.268-.42-.56-.284l-.098.506h-.012zm.195 1.531c.317-.32.097-.481 0-.852l.292-.16c-.195.444.353.58.305 1.012h-.61.013zm-.426 5.803l-.243.148-.146-.198.401.05h-.012zm-.377.679c-.146-.025-.317.086-.329.074 0 0-.146-.37.061-.408h.633l.316.605s-.547-.259-.681-.284v.013zm1.655-7.186c-.195-.037-.182-.716.146-.604l.183.358-.329.246zm.463-.975l-.159.148-.255-.407.401.099v.148l.013.012zm.28-4c.39.136-.025.383-.013.482 0 .135.353.456.22.753h-.414c-.061-.173.048-1.284.207-1.235zm.012 3.753l-.098-.716.122.284h.292c.098.087-.207.383-.304.42l-.012.012zm-1.023 7.58l.305-.098v.308h-.147l-.158-.197v-.013zm.39 1.618l.049-.21h-.207l-.146.185v.012l.146-.506.547.21c.025.272-.17.346-.401.296l.012.013zm.255-1.617l-.048-.408h.304c.036.198-.134.272-.256.407zm.913.604l-.353-.21v-.197l.5.247-.147.148v.012zm1.57-8.185h-.377l.11-.271h.28v.271h-.012zm1.327.297c-.195.246-.316-.556-.28-.58.073-.062.341.024.378.147l-.17.062.072.37z" fill="#000"/></g><defs><clipPath id="clip0_443_1741"><path fill="#fff" d="M0 0h30v30H0z"/></clipPath></defs></svg>