<svg width="30" height="30" fill="none" xmlns="http://www.w3.org/2000/svg"><path d="M15.492 21.62l-.492.307c.23.333.541.32.721.413.05.027 0 .2.148.253.049.014.098.014.131.027v-.12l-.508-.88z" fill="#000"/><path d="M20.916 1c-.58 0-1.042.478-1.042 1.076v8.366c0 2.781-2.2 5.052-4.895 5.052-2.695 0-4.895-2.27-4.895-5.052V2.076C10.084 1.478 9.621 1 9.042 1S8 1.478 8 2.076v8.366c0 3.607 2.579 6.595 5.937 7.117v5.574a3.023 3.023 0 00-1.895 2.825c0 .706.242 1.347.642 1.869.032-.305.127-.663-.158-.935.074 0 .295 0 .348-.032.126-.13 0-.305.147-.326.21.228.084.413 0 .673.042.13.6.011.768.109.137.076.127.26.148.271.031.011.347-.304.59-.032l-.506.315.295.326-.516-.044.042.5h.01-.01c-.379.011-.358-.37-.62-.271a2.87 2.87 0 001.757.619c1.621 0 2.937-1.358 2.937-3.031 0-1.293-.79-2.39-1.895-2.825v-.457l-.716.185-.158.63c-.379-.304-.379-.174-.79.044v.195c-.325-.445-.525-.054-.904-.184.115-.142.326-.142.452-.316.221-.282-.147-.26.453-.337l.042.305.6-.185-.2-.348.547-.195-.084-.261c-.284.152-.368 0-.473-.26l-.432.238-.063-.282c.147-.261.452-.065.515-.076.253-.087-.273-.728-.2-.87l.474-.086.106-.5.347.293c-.348.218-.516.424-.221.804.558-.12.42.163.747.326V17.57C19.421 17.048 22 14.06 22 10.453V2.076C22 1.478 21.537 1 20.958 1h-.042zm-4.969 23.371l-.02-.293.336-.12.21.337-.768.446c0-.304.01-.261.242-.38v.01zm-2.084-.054l.116.359-.379.021h-.01l.126.37c-.295.163-.19-.272-.41.032-.106-.25-.148-.456.126-.565l-.222-.087.053-.369c.18.217.326.25.61.239h-.01zm6.58-19.112L20.2 5.4l.126-.793.19.294c.19-.076.042-.283.379-.174l.073.695-.515-.217h-.01zm7.569.132a1.195 1.195 0 00-1.664 0 1.11 1.11 0 000 1.615 4.224 4.224 0 010 6.1 1.11 1.11 0 000 1.614c.226.219.535.334.832.334.297 0 .606-.115.832-.334a6.479 6.479 0 000-9.34v.011z" fill="#000"/><path d="M25.746 7.272c-.402-.363-1.052-.363-1.444 0-.392.364-.403.95 0 1.304.743.67.846 1.714.31 2.487.123-.112.247-.382.35-.308v.354l.124.038v.111c-.206-.046-.155.15-.33.103-.114-.019-.186-.093-.238-.177a1.627 1.627 0 01-.216.242c-.403.363-.403.95 0 1.304.196.177.464.27.722.27.258 0 .526-.093.722-.27 1.672-1.509 1.672-3.958 0-5.467v.01zm-.32 2.32h.01l.125.27.278-.112-.124.335-.33.056-.062-.056c.072-.168-.062-.084-.123-.13-.372-.29-.021-.261.247-.364h-.02zm.465 2.477l-.186.363-.03-.233h-.465c0-.223.165-.251.371-.27l-.31-.196-.01.01v-.01c.145-.14.63-.056.465-.288 0-.01-.31-.037.02-.159l-.062-.251s.217.168.227.186c.031.037.062.075.062.121l-.289.699.186.028h.02zm.371-2.198l-.31-.065.032-.112c.247.112.227-.233.516.01.185.27-.403.604-.238.157v.01zM3.653 6.95a1.11 1.11 0 000-1.613 1.191 1.191 0 00-1.66 0c-2.657 2.58-2.657 6.76 0 9.329.225.219.533.334.83.334.296 0 .605-.115.83-.334a1.11 1.11 0 000-1.612 4.222 4.222 0 010-6.093v-.012z" fill="#000"/><path d="M5.696 7.272c-.405-.363-1.06-.363-1.455 0-.955.855-1.35 2.018-1.215 3.134.166.018.332-.447.467-.344v.353l.125.037v.112c-.208-.047-.156.149-.332.102-.125-.019-.188-.093-.25-.186.114.818.51 1.618 1.205 2.25.198.177.468.27.728.27.26 0 .53-.093.727-.27.405-.362.405-.948 0-1.302-.873-.78-.873-2.064 0-2.845.405-.363.405-.948 0-1.302v-.009zM3.961 8.89h.01l.125.27.28-.112-.124.335-.333.056-.062-.056c.073-.168-.062-.084-.125-.13-.374-.289-.02-.26.25-.363H3.96zm.467 2.473l-.187.363-.03-.232h-.468c0-.224.166-.252.374-.27l-.312-.195-.01.009v-.01c.145-.139.633-.055.467-.288 0-.009-.311-.037.021-.158l-.062-.25s.218.167.228.185c.031.037.063.075.063.121l-.291.697.187.028h.02zm.375-2.194l-.312-.065.031-.112c.25.112.229-.232.52.01.187.27-.406.604-.24.158v.009z" fill="#000"/></svg>