<svg width="30" height="30" fill="none" xmlns="http://www.w3.org/2000/svg"><g filter="url(#filter0_g_100_1383)" clip-path="url(#clip0_100_1383)"><path d="M20.349.011c.37 2.373 2.283 4.359 4.713 4.473.753.034 1.698-.341 2.542-.17.022 2.315-.023 4.63 0 6.946 0 1.124.326 2.27 0 3.53l-.686-.113.686.34c-.585 7.64-6.67 11.657-12.733 14.983-4.275-2.838-8.976-5.153-11.181-10.113-2.194-4.938-1.16-10.33-1.384-15.574C5.647 4.813 9.213 3.95 9.54 0l10.81.023V.01zm-4.95 3.383h-1.124v.454l1.124-.227v-.227zm2.036 3.416h-4.623l-.348.341v3.757H8.403v5.017h4.06v4.098h4.972v-4.098h3.667l1.069.908c.27-.76-.607-.806-.664-1.055-.101-.443.45-1.045.45-1.329 0-.136-.416-.09-.461-.272-.214-.817.146-2.338 0-3.269h-4.06V6.81zm1.136 1.817L18.46 7.49c-.36.25-.236.727-.349 1.136h.461zm4.725 6.174l-.315-.034-.788.59 1.125.114c.203.216-.618 1.476.45 1.362l-.202-.885.416-.239c-.574.034-.574-.442-.697-.896l.01-.012zm-2.239 3.167l.225-.567-.438-.34-.225.567.438.34z" fill="#000"/></g><defs><clipPath id="clip0_100_1383"><path fill="#fff" d="M0 0h30v30H0z"/></clipPath><filter id="filter0_g_100_1383" x="1.654" y="-.6" width="26.695" height="31.2" filterUnits="userSpaceOnUse" color-interpolation-filters="sRGB"><feFlood flood-opacity="0" result="BackgroundImageFix"/><feBlend in="SourceGraphic" in2="BackgroundImageFix" result="shape"/><feTurbulence type="fractalNoise" baseFrequency="1.4285714626312256 1.4285714626312256" numOctaves="3" seed="9269"/><feDisplacementMap in="shape" scale="1.2" xChannelSelector="R" yChannelSelector="G" result="displacedImage"/><feMerge result="effect1_texture_100_1383"><feMergeNode in="displacedImage"/></feMerge></filter></defs></svg>