<svg width="30" height="30" fill="none" xmlns="http://www.w3.org/2000/svg"><g clip-path="url(#clip0_443_1202)" fill="#000"><path d="M8.42 15.69a1.437 1.437 0 002 .38c.66-.45.83-1.34.38-2a6.26 6.26 0 01-.25-6.6c.4-.69.16-1.57-.53-1.96-.69-.4-1.57-.16-1.96.53-1.73 3-1.58 6.79.37 9.65h-.01zm10.92.38a1.437 1.437 0 002-.38c1.95-2.85 2.09-6.63.38-9.63-.39-.69-1.27-.93-1.96-.53-.69.39-.93 1.27-.53 1.96a6.264 6.264 0 01-.26 6.59c-.45.66-.28 1.55.38 2l-.01-.01z"/><path d="M24.99 1.42a1.436 1.436 0 00-2.03 2.03c3.92 3.92 3.92 10.3 0 14.23a1.436 1.436 0 001.02 2.45c.37 0 .74-.14 1.02-.42 5.04-5.04 5.04-13.25 0-18.29h-.01zm.53 12.89l-.11.53-.38.08.48-.6.01-.01zm-1.48 3.72c.17-.3.17-.55 0-.86h.37c0-.25-.33-.55.12-.49l.12.9-.62.44.01.01zm1.6-1.71c-.34-.21-.53.24-.8.25l-.31-.37.37-.12-.3-.08c-.05 0-.12-.01-.19-.05l.19.05c.37 0 .44-.58.72-.53.28.04.38.6.31.85h.01zm-19.37.77l-.21.54.15.53-.38-.38c-.35-.17-.37-.36-.56-.19-1.33 1.17-.43-.49-.32-.75.14-.32.48.05.68.05.14 0 .27-.05.39-.09-3.12-3.95-2.86-9.7.78-13.34a1.436 1.436 0 00-2.03-2.03C2.17 4.02.92 7.47 1 10.89c.08-.14.33-.47.51-.41.29.17.14 1.35-.34.89l.03-.41-.19-.04c.08 3.2 1.33 6.37 3.77 8.8.28.28.65.42 1.02.42s.74-.14 1.02-.42c.56-.56.56-1.47 0-2.03-.19-.19-.36-.39-.54-.59l-.01-.01zm-3-4.72c.36.14.07.94.16 1.24-.36-.14-.07-.94-.16-1.24zm-.54-.93c.17-.06.3 1.21.23 1.4h-.47c-.16-.34.25-.7.25-.86 0-.1-.46-.38-.02-.54h.01zM1.6 13.99v-.42l.4.02.16.4h-.57.01zm.98.45l.4-.02.17-.4-.14.99c-.13-.05-.57-.46-.42-.57h-.01zm.98 2.27l-.46-.35.25-.5c.47-.14.49.79.21.84v.01zm.08-1.14l-.22-.21v-.2l.57-.14-.35.56v-.01zm1.06 1.48h-.73c-.05-.53.61-.69.37-1.23l.35.19c-.1.45-.38.64.01 1.03v.01zm10.18-4.08a2.4 2.4 0 100-4.8 2.4 2.4 0 000 4.8zm2.74 10.53l-2.4-9.6c-.11.01-.22.02-.34.02-.12 0-.23 0-.34-.02l-1.97 7.88c.23.18.23.53.15.78a.417.417 0 01-.27-.3l-.31 1.24h5.48zm-1.93-2.19c.38.3-.33.43-.35.46-.18.27.16.68-.46.54.01-.34.26-1.44.81-1zm-1.82-.2l.81.2c-.11 1.3-.92.93-.81-.2zm-.8-.21v-.41c.38-.02.88-.05 1 .41h-1zm7.56 3.56H9.13c-.79 0-1.44.64-1.44 1.44v.96c0 .79.64 1.44 1.44 1.44h11.5c.79 0 1.44-.64 1.44-1.44v-.96c0-.79-.64-1.44-1.44-1.44zm-6.57 1.07l-.26.35-.43-.26.69-.09zm-4.52.18v.34l-.61.35-.25-.26.86-.44v.01zm.53-1.06h.52l-.09.7c-.21-.23-.5-.37-.44-.7h.01zm1.38 3.48v-.02l-.25-.33h-.35l.09.35c-.4.07-.74-.06-.7-.52l.96-.35.25.84.02.02h-.01l-.01.01zm.17-2.77l-.27.34h-.25v-.53l.52.18v.01zm2.97 1.56s-.31-.17-.57-.14c-.22.04-1.13.54-1.18.49l.54-1.04h1.1c.35.06.11.69.11.69z"/></g><defs><clipPath id="clip0_443_1202"><path fill="#fff" d="M0 0h30v30H0z"/></clipPath></defs></svg>