<svg width="30" height="24" fill="none" xmlns="http://www.w3.org/2000/svg"><g clip-path="url(#clip0_71_522)" fill="#E00"><path d="M26.52 8l3.126-2.53a.96.96 0 00.147-1.335.937.937 0 00-1.321-.148l-3.125 2.53a.96.96 0 00-.147 1.335.932.932 0 001.32.148zm0 6.735a.937.937 0 00-1.32.148.953.953 0 00.147 1.335l3.125 2.53a.932.932 0 001.32-.148.953.953 0 00-.146-1.335l-3.125-2.53zm2.539-4.31h-3.125a.948.948 0 00-.941.951c0 .524.423.951.94.951h3.126a.948.948 0 00.941-.95.948.948 0 00-.941-.952zM23.335.166a.942.942 0 00-.872-.096L7.01 6.316H2.814C1.26 6.316 0 7.59 0 9.16v3.472c0 1.056.596 1.885 1.528 2.277.052-.122.19-.349.078-.47l-.354.07c-.104-.699.51.086.518-.298h.112c.259.28.19.55.25.873-.043.009-.051 0-.077 0 .233.052.483.087.75.087h.847c.13-.349.725-.183.708-.741l-.225-.175.648-.61-.233-.053.086-.314-.561.297.095-.471.414.096.207-.166v.314l.467-.07.077.314.389-.07c.06.375-.466.306-.423.698-.216.044-.216-.279-.354-.323-.337-.113-.233.323-.302.48-.078.192-.294.323-.233.602l-.225-.087-.078.21.294.27-.5.035 1.096 7.782c.069.47.457.81.923.81H9.67a.937.937 0 00.7-.313.962.962 0 00.232-.742l-.733-6.63L22.446 21.4a.898.898 0 00.872-.096.948.948 0 00.414-.785V.951a.948.948 0 00-.414-.785h.017zM2.987 13.05h-.009c-.362-.113-.112-.515-.604-.34.086-.183-.13-.253-.147-.297-.06-.314.397-.637.182-1.055.06.017.224.087.276.07.13-.07.078-.227.198-.21.104.236-.034.34-.172.506 0 .105.466.175.57.288.086.096.025.227.043.253.017.017.354-.13.466.13l-.475.105.147.323-.389-.174-.095.392h.009v.01zm.803 1.51v.017c-.181.096-.734-.41-.673-.654l.388-.061.078.191.233-.034-.087.235.242.044-.181.261zm.32-4.485l-.303-.087H3.8v.305c-.277.044-.078-.261-.32-.087-.017-.218 0-.384.25-.392l-.155-.123.13-.27c.086.21.19.28.405.349v.305zm1.32.515c.087-.227.078-.192.285-.218l.06-.227h.294l.078.314-.708.131H5.43zm1.26-1.474c-.155.034-.146-.157-.207-.21-.043-.035-.146-.017-.207-.026l-.069-.637-.31.105c.043.253.198.288.276.384.017.026-.043.122.017.183.104.096.31.07.31.21l-.906-.08-.285.428c-.215-.331-.25-.227-.63-.183l-.043.157c-.147-.427-.397-.183-.656-.384.12-.078.285-.017.432-.113.25-.157-.052-.236.44-.131l-.052.236.51.017-.07-.314h.475V8.54c-.259.035-.285-.096-.302-.323l-.397.07.017-.227c.181-.166.371.078.414.078.216 0-.025-.619.07-.706l.388.06.207-.357.19.314c-.32.079-.51.183-.38.55.466.061.285.235.492.454.113.113.311.174.475.209l-.207.471.009-.017zm13.252-2.05c.208.104.19-.219.432.008.155.253-.337.567-.198.148l-.26-.06.026-.105v.008zm-8.425-1.24l-.199.158.104-.637.155.235c.155-.06.034-.227.31-.14l.061.56-.423-.175h-.008zm7.674 2.714c-.172-.044-.13.14-.276.096-.13-.026-.198-.122-.25-.253.146.113.302-.419.423-.314V8.4l.103.035v.105zm.285-1.57h.009l.104.252.233-.104-.104.314-.276.052-.052-.052c.06-.157-.052-.079-.104-.122-.31-.27-.017-.245.207-.34h-.017zm.389 2.32l-.156.34-.026-.218h-.388c0-.21.138-.235.31-.253l-.258-.183-.009.009v-.009c.121-.13.527-.052.389-.27 0-.01-.26-.035.017-.149l-.052-.235s.181.157.19.174c.026.035.052.07.052.114l-.242.654.155.026h.018zm1.148 9.692c-.25.262-.345.541-.751.594.043-.297-.38-.48-.25-.733l.768.297-.216-.297.181-.148.32.148-.043.14h-.009zm.112.01l.06-.219-.129-.052.155-.402.432.157c-.034.35-.155.454-.51.506l-.008.01zm1.684.278H22.8l-.147-.218c-.224.236-.32.018-.578 0l.078.297c-.708-.262.267-.75.44-.585.017.018-.017.14.026.192.077.096.267.07.198.314h-.008z"/><path d="M3.859 15.162v-.096l-.138.096h.138zm-1.908-.34v.018c-.164-.053-.242.043-.31.113.12.044.241.07.37.105-.051-.061.018-.2-.06-.236z"/></g><defs><clipPath id="clip0_71_522"><path fill="#fff" d="M0 0h30v24H0z"/></clipPath></defs></svg>