<svg width="30" height="30" fill="none" xmlns="http://www.w3.org/2000/svg"><path d="M4.094 15.921l.097-.214-.183.042.086.172zm-.777.912h.021-.021c-.735-.226-.227-1.03-1.232-.665.173-.365-.27-.494-.292-.59-.108-.611.757-1.234.39-2.038l-.617 1.544H0v3.11s.076.022.108.022h2.269c.41 0 .788-.236.95-.611l.605-1.362-.432-.193-.194.772.01.01z" fill="#000"/><path d="M6.514 17.884l.173-.633-1.134.59.194-.933.843.193.421-.322v.633l.648-.097L5.693 9.84a1.047 1.047 0 00-1.966-.16l-1.523 3.806c.14.054.432.161.518.118.27-.128.152-.46.4-.418.216.461-.076.665-.346 1.008 0 .215.94.343 1.156.58.173.193.054.46.098.493.021.021.183-.043.378-.054l.28-.622.227.847s.044.054.065.097h-.032l.918 3.496 1.124-1.05-.465-.097h-.01zM4.97 10.719v.633c-.55.097-.15-.515-.648-.171-.043-.44 0-.762.497-.783l-.313-.247.27-.536c.173.418.389.557.821.686v.611l-.616-.171-.021-.022h.01zm4.958-6.864l-.065.419c.076-.075.076-.236.065-.419z" fill="#000"/><path d="M27.558 15.642l-1.34-4.14a1.041 1.041 0 00-1.987.043l-1.577 5.32-2.625-11.55a1.048 1.048 0 00-.854-.795 1.034 1.034 0 00-1.199.858l-2.7 16.11-2.68-15.927-.335.75v.022c-.313.054-.291-.322-.421-.44-.097-.075-.292-.043-.421-.053l-.13-1.266-.637.204c.097.493.4.579.561.761.044.054-.097.247.044.365.216.193.637.129.637.418l-1.826-.15-.583.858-.821 5.416c.054 0 .13-.01.216-.021l.119-.461h.594l.151.632-1.145.215-.68 4.494h.054l.15.622.79-.129c.118.74-.94.611-.854 1.394-.443.097-.443-.547-.713-.654-.67-.225-.475.654-.616.954-.14.344-.497.612-.475 1.052l.55 2.112c.109.397.444.708.854.762a1.04 1.04 0 001.189-.869l2.268-15.004L13.84 23.74l.28-.043.152.386.475-.075-.173.46.486.098-.367.514v.032c-.14.076-.41-.042-.659-.235l.216 1.276c.076.504.519.869 1.026.869.519 0 .951-.365 1.027-.87l2.7-16.108 2.626 11.55c.097.462.507.794.983.805.475.01.896-.29 1.037-.74l1.199-4.054-.195-1.33.227.547h.195l.151-.483.173.504h.032s.043.097.022.161l.842 2.51c.108.311.346.547.66.654a1.033 1.033 0 001.317-.654l.432-1.287H30v-2.574h-2.442v-.01zm-5.78 5.599c.617-.622.184-.923.022-1.609l.562-.3c-.378.836.67 1.083.584 1.909h-1.167zm.865-3.304c-.4.054-.518-.793-1.07-.536l-.194.955-.356-.89.27-.44c.248.053.497.193.756.182.313-.01.961-.622 1.07-.086.064.29-.227.783-.476.815zm.767 1.952c-.389-.075-.356-1.34.28-1.147l.347.675-.627.472zm.875-1.823l-.292.29-.486-.762.778.193v.28zm4.591-.461h-.734l.205-.515h.01l.52-.021v.536z" fill="#000"/><path d="M11.105 2.322l.39.633c-.66.15-1.038.364-.768 1.093.94.118.573.472 1.005.901.205.204.54.311.843.386l-.41-2.456a1.047 1.047 0 00-2.063.01v.055l.593.086.421-.708h-.01zM5.952 19.418l.13.493a1.18 1.18 0 00.043-.365l-.173-.128zm4.343-14.265c-.313.043-.443-.043-.518-.204l-.098.655h.616v-.45zm-2.387 12.13l-.249.032.152.58.097-.612zM2.16 13.476s.011.043.022.064l.022-.043s-.033-.01-.043-.01v-.011z" fill="#000"/></svg>