<svg xmlns="http://www.w3.org/2000/svg" width="115" height="108" fill="none" viewBox="0 0 115 108"><foreignObject width="120" height="118.911" x="-2.5" y="-11.5"><div xmlns="http://www.w3.org/1999/xhtml" style="backdrop-filter:blur(10px);clip-path:url(#a);height:100%;width:100%"/></foreignObject><g data-figma-bg-blur-radius="20" filter="url(#b)"><path fill="url(#c)" fill-opacity=".7" d="M38 9c-11.046 0-20 8.954-20 20v24c0 7.54 4.173 14.104 10.334 17.512l-2.496 9.36c-.3 1.124.933 2.036 1.92 1.419L41.025 73H77c11.046 0 20-8.954 20-20V29c0-11.046-8.954-20-20-20z" shape-rendering="crispEdges"/><path fill="url(#d)" d="m28.334 70.512.242-.438.342.19-.1.377zm-2.496 9.36-.483-.13zm1.92 1.419.266.424zM41.025 73l-.265-.424.122-.076h.143zM77 9v-.5zM38 9v.5c-10.77 0-19.5 8.73-19.5 19.5h-1c0-11.322 9.178-20.5 20.5-20.5zM18 29h.5v24h-1V29zm0 24h.5c0 7.35 4.067 13.75 10.076 17.074l-.242.438-.242.437C21.778 67.457 17.5 60.73 17.5 53zm10.334 17.512.483.129L26.321 80l-.483-.129-.483-.129 2.496-9.36zm-2.496 9.36.483.128c-.183.687.57 1.243 1.173.867l.265.424.265.424c-1.373.857-3.086-.41-2.67-1.973zm1.92 1.419-.264-.424 13.265-8.291.265.424.265.424-13.265 8.291zM41.025 73v-.5H77v1H41.024zM77 73v-.5c10.77 0 19.5-8.73 19.5-19.5h1c0 11.322-9.178 20.5-20.5 20.5zm20-20h-.5V29h1v24zm0-24h-.5c0-10.77-8.73-19.5-19.5-19.5v-1c11.322 0 20.5 9.178 20.5 20.5zM77 9v.5H38v-1h39z"/></g><defs><radialGradient id="c" cx="0" cy="0" r="1" gradientTransform="rotate(126.276 21.53 34.443)scale(57.9292 159.986)" gradientUnits="userSpaceOnUse"><stop stop-color="#fff" stop-opacity=".4"/><stop offset="1" stop-color="#fff"/></radialGradient><linearGradient id="d" x1="110.175" x2="6.193" y1="25.568" y2="71.461" gradientUnits="userSpaceOnUse"><stop stop-color="#fff" stop-opacity="0"/><stop offset=".5" stop-color="#fff"/><stop offset="1" stop-color="#fff" stop-opacity="0"/></linearGradient><clipPath id="a" transform="translate(2.5 11.5)"><path d="M38 9c-11.046 0-20 8.954-20 20v24c0 7.54 4.173 14.104 10.334 17.512l-2.496 9.36c-.3 1.124.933 2.036 1.92 1.419L41.025 73H77c11.046 0 20-8.954 20-20V29c0-11.046-8.954-20-20-20z"/></clipPath><filter id="b" width="120" height="118.911" x="-2.5" y="-11.5" color-interpolation-filters="sRGB" filterUnits="userSpaceOnUse"><feFlood flood-opacity="0" result="BackgroundImageFix"/><feColorMatrix in="SourceAlpha" result="hardAlpha" values="0 0 0 0 0 0 0 0 0 0 0 0 0 0 0 0 0 0 127 0"/><feOffset dy="8.473"/><feGaussianBlur stdDeviation="8.473"/><feComposite in2="hardAlpha" operator="out"/><feColorMatrix values="0 0 0 0 0.611765 0 0 0 0 0.0862745 0 0 0 0 0.117647 0 0 0 0.1 0"/><feBlend in2="BackgroundImageFix" result="effect1_dropShadow_1088_21125"/><feBlend in="SourceGraphic" in2="effect1_dropShadow_1088_21125" result="shape"/><feColorMatrix in="SourceAlpha" result="hardAlpha" values="0 0 0 0 0 0 0 0 0 0 0 0 0 0 0 0 0 0 127 0"/><feOffset/><feGaussianBlur stdDeviation="6.834"/><feComposite in2="hardAlpha" k2="-1" k3="1" operator="arithmetic"/><feColorMatrix values="0 0 0 0 1 0 0 0 0 1 0 0 0 0 1 0 0 0 0.8 0"/><feBlend in2="shape" result="effect2_innerShadow_1088_21125"/></filter></defs></svg>