<svg xmlns="http://www.w3.org/2000/svg" width="1312" height="1312" fill="none" viewBox="0 0 1312 1312"><path fill="url(#a)" fill-opacity=".35" d="M159.075 399.529a2.1 2.1 0 0 1-1.308 1.015 2.1 2.1 0 0 1-1.64-.214l-50.838-29.126q-.86-.492-1.093-1.352a2.1 2.1 0 0 1 .214-1.641l12.975-22.646q3.624-6.325 7.858-9.19 4.156-2.909 8.587-2.859 4.477-.029 8.928 2.521 2.968 1.7 4.606 4.091 1.605 2.268 2.116 4.635.555 2.289.486 4.221 3.15-2.24 7.773-2.704 4.621-.465 9.151 2.131 4.685 2.684 7.148 6.895 2.462 4.212 2.2 9.559-.342 5.301-3.831 11.393zm-3.133-13.723 7.471-13.041q2.416-4.216 1.404-7.701-1.09-3.529-4.37-5.408-3.435-1.968-6.998-1.001-3.517.888-5.888 5.028l-7.472 13.041zm-23.974-13.735 7.024-12.26q2.371-4.14 1.582-7.288-.822-3.272-4.024-5.106-3.28-1.879-6.284-.8-3.037.957-5.409 5.096l-7.024 12.26zm65.81-34.602q-2.73 3.801-6.398 5.82-3.74 1.967-7.538 2.009-3.818-.083-6.962-2.341-5.117-3.676-5.172-9.922-.076-6.372 3.783-13.905l5.733-11.064-1.535-1.103q-3.07-2.205-5.854-1.878t-5.462 4.055q-1.89 2.631-2.002 5.1a7.84 7.84 0 0 0 1.045 4.408q.53 1.267-.258 2.363l-4.148 5.775q-.578.804-1.331.927-.702.05-1.432-.475-1.118-.912-2.168-2.998-1.052-2.085-1.221-5.088-.243-3.055.814-6.84t4.102-8.024q3.309-4.605 6.736-6.907 3.407-2.428 6.673-2.964a14.14 14.14 0 0 1 6.454.426q3.188.96 6.039 3.009l22.951 16.489q.73.525.875 1.404a2.08 2.08 0 0 1-.381 1.61l-4.254 5.921q-.578.804-1.457.948-.826.071-1.557-.455l-2.851-2.047q.706 1.947.793 4.448.014 2.449-.862 5.365-.897 2.791-3.155 5.934m-5.158-7.474q1.837-2.558 2.212-5.392.426-2.908-.999-5.705-1.447-2.923-4.955-5.444l-1.535-1.102-4.082 8.149q-2.44 4.785-2.501 7.955t2.058 4.693q1.608 1.155 3.461 1.045 1.832-.236 3.519-1.35a12.5 12.5 0 0 0 2.822-2.849m29.062-26.237q-.594.676-1.483.732a2.08 2.08 0 0 1-1.565-.537l-31.893-28.06a2.08 2.08 0 0 1-.733-1.484 2.1 2.1 0 0 1 .538-1.565l4.875-5.541q.594-.675 1.483-.732a2.08 2.08 0 0 1 1.565.537l2.771 2.438q-.616-3.66.342-7.611.951-4.077 4.518-8.132 3.627-4.122 8.194-5.498 4.499-1.435 9.305-.085 4.865 1.284 9.594 5.445l18.987 16.705q.676.595.733 1.484a2.08 2.08 0 0 1-.538 1.565l-5.231 5.946a2.08 2.08 0 0 1-1.484.733 2.1 2.1 0 0 1-1.565-.538l-18.582-16.349q-3.919-3.448-7.872-3.45-3.895-.07-7.105 3.579-3.092 3.513-2.705 7.57.388 4.056 4.306 7.505l18.582 16.348q.676.595.733 1.484a2.1 2.1 0 0 1-.538 1.565zm38.572-42.87q-.657.615-1.547.587a2.08 2.08 0 0 1-1.506-.686l-40.747-43.468a2.1 2.1 0 0 1-.587-1.547 2.08 2.08 0 0 1 .686-1.506l5.318-4.986q.723-.677 1.547-.586a2.08 2.08 0 0 1 1.506.685l21.051 22.456 1.244-20.78q.099-1.08.312-1.773.153-.759 1.072-1.621l6.106-5.724q.657-.615 1.42-.591t1.379.681a2.2 2.2 0 0 1 .422.714q.177.451.029 1.084l-1.647 25.352 30.432 2.066q1.273.04 1.703.501.616.656.526 1.481-.025.764-.616 1.317l-6.238 5.848q-.985.923-1.691 1.091-.7.042-1.785.07l-24.913-1.442 11.941 12.738q.615.657.587 1.547.036.83-.686 1.506zm73.044-59.923q-6.843 4.82-12.878 6.097-6.014 1.154-10.722-.375-4.686-1.653-7.373-5.155-.466-.662-.336-1.414.131-.753.793-1.219l6.549-4.612q.957-.674 1.709-.543a4.1 4.1 0 0 1 1.557.334q1.425 1.088 3.661 1.605 2.184.443 4.94-.177 2.83-.671 6.14-3.003 5.298-3.732 6.63-7.311 1.405-3.632-.719-6.649-1.503-2.133-3.782-2.4-2.331-.34-6 .703-3.647.916-9.259 3.108-6.451 2.562-11.5 3.366-5.026.678-8.961-.845-3.86-1.574-6.97-5.989-3.005-4.267-3.056-9.186.022-4.97 2.943-9.888 2.994-4.971 8.954-9.168 4.784-3.369 9.395-4.635 4.56-1.34 8.491-.917 3.88.35 6.841 1.898 2.982 1.422 4.663 3.651.414.589.335 1.415-.057.7-.792 1.219l-6.844 4.819a3.2 3.2 0 0 1-1.384.535q-.796.12-1.734-.43-2.049-1.97-5.617-1.879t-7.394 2.786q-3.974 2.799-5.365 5.98t.784 6.272q1.452 2.06 3.613 2.63 2.184.443 5.558-.392 3.449-.888 8.693-2.819 7.239-3.007 12.508-3.966 5.27-.959 9.13.615 3.808 1.501 6.866 5.842 3.42 4.857 3.207 10.181-.192 5.199-3.606 10.355-3.413 5.155-9.668 9.561m31.668-22.759a2.08 2.08 0 0 1-1.637.241 2.08 2.08 0 0 1-1.324-.992l-21.736-36.498a2.08 2.08 0 0 1-.241-1.637 2.08 2.08 0 0 1 .992-1.324l6.418-3.822q.85-.507 1.637-.242a2.08 2.08 0 0 1 1.324.992l21.736 36.499q.46.773.241 1.637-.141.817-.992 1.324zM336.75 131.53q-.85.506-1.668.365-.786-.266-1.293-1.116l-3.315-5.567q-.46-.774-.319-1.591.22-.864 1.07-1.37l7.036-4.191q.85-.506 1.715-.287a2.08 2.08 0 0 1 1.324.992l3.315 5.567q.507.85.288 1.715-.266.786-1.116 1.292zm50.675 33.908a2.1 2.1 0 0 1-1.651.117 2.08 2.08 0 0 1-1.245-1.089l-18.922-38.034a2.08 2.08 0 0 1-.117-1.65 2.08 2.08 0 0 1 1.089-1.245l6.608-3.288a2.08 2.08 0 0 1 1.65-.117q.845.283 1.246 1.089l1.643 3.304q.813-3.62 3.194-6.916 2.422-3.417 7.257-5.822 4.916-2.446 9.663-1.993 4.709.372 8.647 3.439 4.018 3.026 6.825 8.667l11.264 22.643q.402.805.118 1.65a2.08 2.08 0 0 1-1.089 1.246l-7.091 3.527a2.08 2.08 0 0 1-1.651.118 2.08 2.08 0 0 1-1.245-1.089l-11.024-22.16q-2.325-4.673-5.985-6.17-3.579-1.536-7.93.628-4.19 2.085-5.366 5.986-1.175 3.903 1.15 8.576l11.024 22.159q.402.806.118 1.651a2.08 2.08 0 0 1-1.09 1.245zm69.364-30.686q-6.737 2.541-12.258 1.929-5.436-.643-9.498-4.017-3.978-3.405-6.474-9.005a73 73 0 0 1-1.481-3.674 72 72 0 0 1-1.313-3.737q-1.855-5.937-1-11.069.906-5.247 4.565-9.32 3.743-4.104 10.311-6.581t12.005-1.834q5.52.611 9.582 3.985 4.114 3.258 6.642 8.942.656 1.483 1.482 3.673.825 2.19 1.313 3.737 1.822 5.853 1 11.069-.738 5.184-4.481 9.289-3.658 4.072-10.395 6.613m-3.144-8.337q4.463-1.683 5.857-5.383 1.363-3.784-.449-9.353-.392-1.295-1.154-3.316a55 55 0 0 0-1.323-3.253q-2.285-5.294-5.806-7.236t-7.985-.26q-4.464 1.684-5.826 5.468t.417 9.269q.393 1.294 1.154 3.316.763 2.02 1.323 3.252 2.317 5.379 5.839 7.321 3.489 1.858 7.953.175m37.72-4.835q-.87.23-1.64-.219a2.08 2.08 0 0 1-1-1.319L473.781 63.39q-.252-.957.196-1.727a2.08 2.08 0 0 1 1.319-1l23.322-6.151q6.789-1.791 12.409-.947 5.599.757 9.531 4.374 3.91 3.53 5.608 9.97 1.722 6.525.062 11.525-1.683 4.911-6.179 8.332-4.497 3.42-11.284 5.21l-12.967 3.42 5.372 20.364q.23.87-.219 1.64-.362.747-1.319.999zm1.711-34.797 12.705-3.352q5.047-1.331 7.126-4.392 2.054-3.15.815-7.848-1.147-4.351-4.36-6.296-3.235-2.032-8.631-.609l-12.705 3.352zm66.486 19.602q-4.623.732-8.638-.455-4.029-1.275-6.73-3.946-2.626-2.772-3.231-6.595-.986-6.223 3.415-10.656 4.476-4.536 12.546-7.09l11.896-3.706-.295-1.866q-.591-3.734-2.782-5.483-2.19-1.75-6.724-1.03-3.2.506-5.033 2.163a7.84 7.84 0 0 0-2.399 3.843q-.528 1.267-1.862 1.48l-7.022 1.111q-.978.154-1.596-.294-.528-.464-.669-1.352-.136-1.436.606-3.65.744-2.212 2.759-4.446 2.001-2.32 5.435-4.232 3.434-1.911 8.589-2.727 5.6-.886 9.648-.07 4.122.714 6.799 2.66a14.16 14.16 0 0 1 4.237 4.887q1.56 2.942 2.108 6.409l4.421 27.912a2.1 2.1 0 0 1-.383 1.61q-.524.72-1.413.861l-7.2 1.141q-.978.155-1.699-.369-.632-.538-.773-1.427l-.549-3.467q-.888 1.872-2.604 3.693-1.73 1.732-4.42 3.16-2.615 1.326-6.437 1.931m1.685-8.924q3.11-.492 5.389-2.22 2.367-1.74 3.352-4.722 1.061-3.084.385-7.35l-.295-1.868-8.664 2.83q-5.118 1.631-7.415 3.817-2.295 2.186-1.888 4.764.31 1.956 1.691 3.195 1.455 1.136 3.435 1.552a12.4 12.4 0 0 0 4.01.002m57.322 1.94q-6.468.403-11.559-1.713-5.002-2.123-8.073-6.53-2.987-4.503-3.665-11.043a55 55 0 0 1-.309-3.497 61 61 0 0 1-.14-3.689q-.14-6.574 2.268-11.323 2.494-4.846 7.192-7.573 4.79-2.734 11.257-3.138 5.748-.36 9.891 1.005t6.9 3.627 4.182 4.879q1.51 2.52 1.735 4.67.151.984-.528 1.657-.596.578-1.493.634l-7.905.494q-.898.056-1.465-.36-.477-.42-.983-1.29-1.572-3.51-3.907-4.806-2.251-1.393-5.664-1.18-4.492.28-7.007 3.324-2.432 2.947-2.229 9.066.033 3.425.393 6.288.567 6.186 3.345 8.809 2.87 2.616 7.36 2.335 3.504-.218 5.569-1.79 2.06-1.662 3.184-5.34.393-.926.814-1.403.511-.483 1.409-.538l7.905-.494a2.08 2.08 0 0 1 1.566.533q.752.495.724 1.488.012 1.623-.668 3.739-.595 2.02-2.167 4.283-1.488 2.168-3.891 4.12-2.409 1.865-5.934 3.167-3.436 1.297-8.107 1.588m59.276-1.926a2.1 2.1 0 0 1-1.474-.752 2.08 2.08 0 0 1-.503-1.576l4.773-58.396q.08-.986.76-1.563a2.08 2.08 0 0 1 1.576-.503l26.013 2.126q7.266.594 11.657 3.21 4.4 2.527 6.237 6.56 1.928 4.04 1.509 9.153-.279 3.41-1.747 5.907-1.371 2.416-3.297 3.885-1.836 1.475-3.614 2.233 3.366 1.9 5.749 5.888 2.384 3.987 1.958 9.19-.44 5.382-3.206 9.4t-7.719 6.051q-4.945 1.944-11.941 1.372zm11.093-8.665 14.98 1.224q4.844.397 7.568-2 2.732-2.485 3.039-6.253.323-3.947-2.066-6.76-2.3-2.808-7.053-3.196l-14.98-1.224zm2.25-27.538 14.083 1.151q4.755.389 7.27-1.663 2.613-2.134 2.913-5.812.308-3.768-1.945-6.029-2.156-2.343-6.911-2.732l-14.083-1.15zm59.258 44.888q-4.6-.86-7.985-3.324-3.367-2.553-5.017-5.975-1.543-3.493-.832-7.297 1.158-6.192 6.791-8.893 5.737-2.772 14.196-2.472l12.451.498.348-1.858q.694-3.716-.782-6.098-1.478-2.382-5.989-3.226-3.186-.595-5.468.35a7.83 7.83 0 0 0-3.548 2.816q-.923 1.018-2.25.77l-6.989-1.307q-.973-.183-1.404-.813-.343-.613-.178-1.498.353-1.398 1.795-3.235 1.443-1.836 4.09-3.264 2.664-1.515 6.54-2.164 3.875-.648 9.006.311 5.573 1.043 9.113 3.17 3.644 2.055 5.514 4.785a14.2 14.2 0 0 1 2.352 6.025q.483 3.295-.163 6.746l-5.196 27.778a2.1 2.1 0 0 1-.901 1.388q-.735.503-1.619.338l-7.166-1.341q-.973-.182-1.477-.917-.415-.718-.249-1.603l.645-3.45q-1.464 1.466-3.692 2.605-2.21 1.052-5.224 1.495-2.908.372-6.712-.34m4.58-7.841q3.096.579 5.822-.285 2.813-.846 4.742-3.324 2.034-2.55 2.828-6.796l.347-1.858-9.111-.24q-5.368-.18-8.265 1.11-2.896 1.29-3.376 3.855-.364 1.946.521 3.577.99 1.558 2.716 2.614a12.4 12.4 0 0 0 3.776 1.347m36.068 15.188a2.08 2.08 0 0 1-1.292-1.034 2.08 2.08 0 0 1-.176-1.645l11.907-40.777a2.08 2.08 0 0 1 1.034-1.292 2.08 2.08 0 0 1 1.645-.176l7.084 2.069a2.08 2.08 0 0 1 1.292 1.033q.428.782.176 1.645l-1.034 3.542q3.053-2.108 7.039-2.913 4.096-.867 9.28.647 5.27 1.54 8.451 5.093 3.207 3.468 4.019 8.393.899 4.95-.868 10.998l-7.088 24.276a2.08 2.08 0 0 1-1.034 1.292 2.1 2.1 0 0 1-1.645.176l-7.603-2.22a2.08 2.08 0 0 1-1.292-1.034 2.1 2.1 0 0 1-.176-1.645l6.938-23.758q1.462-5.01-.21-8.593-1.586-3.558-6.252-4.92-4.492-1.311-8.003.757-3.51 2.07-4.973 7.08l-6.938 23.758a2.1 2.1 0 0 1-1.033 1.292 2.1 2.1 0 0 1-1.646.176zm55.134 16.773a2.08 2.08 0 0 1-1.186-1.154 2.1 2.1 0 0 1-.015-1.655l22.178-55.298a2.08 2.08 0 0 1 1.155-1.186 2.08 2.08 0 0 1 1.654-.015l6.766 2.714q.92.368 1.186 1.154.35.82.015 1.655l-11.458 28.568 19.361-7.654q1.019-.367 1.738-.466.753-.183 1.922.286l7.768 3.116q.836.335 1.136 1.037t-.035 1.537a2.2 2.2 0 0 1-.469.685q-.335.35-.969.484l-23.674 9.22 10.987 28.455q.501 1.17.266 1.755-.335.835-1.121 1.102-.701.3-1.454-.001l-7.935-3.183q-1.253-.503-1.704-1.071a58 58 0 0 1-.817-1.589l-9.221-23.188-6.499 16.205a2.08 2.08 0 0 1-1.155 1.185q-.736.384-1.654.016zm85.097 40.932q-7.254-4.176-10.956-9.111-3.577-4.968-4.176-9.882-.476-4.947 1.569-8.859.404-.702 1.142-.9t1.439.205l6.942 3.997q1.014.584 1.212 1.321.322.704.352 1.553-.384 1.752.088 3.997.518 2.167 2.241 4.405 1.8 2.283 5.311 4.304 5.616 3.233 9.423 2.933 3.886-.255 5.727-3.453 1.302-2.263.583-4.441-.674-2.257-3.164-5.146-2.369-2.92-6.72-7.088-5.041-4.772-7.897-9.012-2.731-4.273-3.009-8.482-.198-4.165 2.496-8.845 2.604-4.523 7.043-6.641 4.517-2.073 10.208-1.497 5.769.622 12.087 4.259 5.07 2.919 8.161 6.568 3.137 3.571 4.409 7.315 1.316 3.666 1.16 7.003-.033 3.304-1.347 5.767-.359.624-1.141.901-.66.244-1.44-.206L965.815 138a3.2 3.2 0 0 1-1.069-1.03q-.445-.672-.34-1.754.924-2.688-.662-5.885-1.586-3.198-5.642-5.533-4.212-2.425-7.684-2.347t-5.358 3.354q-1.257 2.184-.862 4.384.518 2.168 2.696 4.876 2.258 2.754 6.219 6.696 5.776 5.299 8.866 9.674 3.088 4.375 3.288 8.539.243 4.086-2.406 8.688-2.964 5.148-7.882 7.197-4.796 2.017-10.91 1.093-6.115-.924-12.744-4.741m33.977 19.131a2.08 2.08 0 0 1-.909-1.383 2.08 2.08 0 0 1 .343-1.619l23.948-35.086a2.1 2.1 0 0 1 1.383-.908 2.1 2.1 0 0 1 1.619.342l6.17 4.211q.818.56.908 1.383a2.08 2.08 0 0 1-.342 1.619l-23.949 35.086a2.08 2.08 0 0 1-1.382.909q-.802.216-1.619-.343zm30.45-45.25q-.817-.558-1.033-1.359-.091-.825.467-1.642l3.653-5.352q.506-.744 1.311-.96c.58-.11 1.15.021 1.69.393l6.77 4.618c.54.372.87.85.98 1.433s-.01 1.123-.34 1.619l-3.66 5.352c-.37.545-.85.873-1.43.983-.55.061-1.1-.095-1.64-.467zm-9.393 60.25a2.08 2.08 0 0 1-.802-1.447q-.1-.885.462-1.589l26.511-33.196q.555-.703 1.44-.802a2.1 2.1 0 0 1 1.59.462l5.77 4.605c.47.374.73.857.8 1.447s-.09 1.12-.46 1.589l-2.3 2.883c2.41-.527 4.95-.534 7.61-.021q4.125.755 8.34 4.125c2.86 2.283 4.82 4.924 5.89 7.922 1.09 2.95 1.27 6.047.52 9.29q-1.05 4.92-4.98 9.844l-15.78 19.762a2.06 2.06 0 0 1-1.44.803 2.1 2.1 0 0 1-1.59-.463l-6.19-4.941a2.06 2.06 0 0 1-.8-1.447c-.07-.591.08-1.12.46-1.589l15.44-19.341c2.17-2.719 3.2-5.396 3.07-8.029-.08-2.595-1.38-4.904-3.91-6.925-2.44-1.947-5-2.727-7.69-2.341q-4.035.58-7.29 4.66l-15.446 19.341a2.1 2.1 0 0 1-1.447.802 2.1 2.1 0 0 1-1.589-.462zm57.121 49.958q-5.145-5.032-6.93-10.293c-1.14-3.466-1.26-6.901-.37-10.306.94-3.363 2.74-6.588 5.42-9.674a73 73 0 0 1 2.71-2.896 72 72 0 0 1 2.83-2.77c3.06-2.793 6.26-4.655 9.61-5.586 3.42-.931 6.88-.865 10.37.197q5.31 1.656 10.32 6.562c3.35 3.27 5.6 6.638 6.74 10.104 1.19 3.507 1.34 6.964.44 10.369-.81 3.403-2.57 6.67-5.29 9.799-.71.815-1.62 1.78-2.71 2.896a72 72 0 0 1-2.83 2.77c-3.02 2.751-6.22 4.613-9.61 5.586-3.34 1.015-6.77.97-10.31-.134-3.49-1.062-6.95-3.27-10.39-6.624m6.23-6.374c2.28 2.222 4.73 3.233 7.36 3.032q4.005-.365 8.28-4.361a58 58 0 0 0 2.52-2.448c1-1.03 1.8-1.888 2.39-2.574 2.55-2.873 3.92-5.647 4.1-8.322s-.87-5.123-3.14-7.346c-2.28-2.222-4.75-3.211-7.42-2.968q-4.005.366-8.22 4.297a58 58 0 0 0-2.52 2.448 55 55 0 0 0-2.39 2.574c-2.59 2.916-3.98 5.711-4.16 8.386-.14 2.633.93 5.06 3.2 7.282m20.36 32.162c-.38-.461-.55-.987-.49-1.578.05-.592.31-1.08.77-1.465l44.97-37.548q.765-.635 1.65-.555.885.081 1.47.771l15.45 18.516q4.5 5.388 6.12 10.838c1.13 3.594 1.15 7.09.08 10.486-1.03 3.358-3.24 6.46-6.65 9.305-3.46 2.884-6.93 4.531-10.42 4.942-3.44.371-6.83-.317-10.16-2.066-3.34-1.748-6.5-4.419-9.5-8.011l-8.6-10.295-16.16 13.497c-.47.385-.99.55-1.58.497-.56-.007-1.04-.264-1.47-.771zm32.25-13.2 8.42 10.087c2.23 2.671 4.56 4.202 7 4.591 2.48.352 4.96-.511 7.45-2.587 2.3-1.923 3.59-4.129 3.85-6.618.32-2.528-.72-5.22-3.1-8.075l-8.42-10.087zm10.44 68.536c-1.75-2.583-2.83-5.255-3.25-8.014q-.555-4.19.72-7.768c.93-2.37 2.46-4.279 4.6-5.726 3.47-2.355 7.17-2.831 11.09-1.429 4.01 1.419 7.92 4.203 11.75 8.352l8.4 9.199 1.57-1.06c2.08-1.413 3.35-3.028 3.78-4.845q.66-2.726-1.92-6.526c-1.21-1.789-2.57-3.002-4.09-3.64a7.85 7.85 0 0 0-4.5-.541q-1.38.06-2.13-1.058l-3.99-5.887c-.37-.546-.5-1.069-.41-1.569.13-.45.44-.844.94-1.18.83-.489 2.02-.822 3.56-1 1.55-.178 3.28.026 5.2.611 1.97.551 4.01 1.593 6.14 3.125 2.12 1.532 4.16 3.739 6.11 6.62 2.12 3.13 3.51 6.032 4.16 8.707q1.11 4.036.48 7.285a14.1 14.1 0 0 1-2.63 5.911c-1.33 1.773-2.97 3.316-4.91 4.629l-23.4 15.847q-.735.505-1.62.336a2.1 2.1 0 0 1-1.38-.913l-4.08-6.036q-.555-.819-.39-1.695c.14-.533.47-.968.96-1.305l2.91-1.968c-1.38-.007-2.87-.27-4.45-.791q-2.295-.832-4.74-2.661c-1.54-1.204-3.03-2.874-4.48-5.01m8.8-2.261c1.18 1.739 2.61 3.051 4.3 3.938 1.72.935 3.62 1.279 5.69 1.031 2.17-.232 4.44-1.156 6.82-2.771l1.57-1.059-6.24-6.645q-3.645-3.942-6.6-5.094c-1.97-.767-3.68-.663-5.12.312-1.09.741-1.82 1.703-2.17 2.887-.28 1.2-.26 2.457.05 3.769.36 1.279.92 2.489 1.7 3.632m22.57 52.729q-3.105-5.685-3.36-11.194-.195-5.43 2.49-10.081c1.87-3.076 4.69-5.745 8.44-8.005.77-.485 1.78-1.073 3.04-1.764 1.32-.72 2.41-1.284 3.28-1.692q5.895-2.916 11.22-2.751c3.63.134 6.93 1.234 9.91 3.298 3 2.118 5.54 5.071 7.61 8.861 1.85 3.369 2.94 6.497 3.29 9.384s.23 5.482-.35 7.786c-.59 2.305-1.47 4.257-2.65 5.858-1.09 1.625-2.26 2.809-3.49 3.553-.55.369-1.13.444-1.72.225-.52-.196-.92-.557-1.21-1.083l-3.8-6.948q-.435-.79-.3-1.48.18-.61.75-1.437c1.68-1.942 2.57-3.801 2.7-5.578.2-1.752-.25-3.629-1.34-5.629-1.44-2.632-3.43-4.277-5.98-4.934-2.47-.634-5.52-.024-9.16 1.829-2.06.989-3.9 1.997-5.53 3.024-3.57 2.092-5.76 4.348-6.55 6.767-.77 2.472-.43 5.024 1.01 7.656 1.12 2.053 2.45 3.48 3.98 4.283 1.59.774 3.65.979 6.19.617.67-.025 1.21.022 1.61.141.44.172.8.521 1.09 1.048l3.8 6.948q.435.789.18 1.644c-.08.594-.43 1.023-1.04 1.287-.97.466-2.2.793-3.67.982-1.39.212-2.98.164-4.8-.145-1.72-.285-3.52-.876-5.38-1.774-1.8-.927-3.6-2.27-5.38-4.03-1.76-1.707-3.38-3.929-4.88-6.666m26.81 52.799a2.07 2.07 0 0 1 .06-1.653c.25-.54.66-.914 1.22-1.122l54.96-20.313c.61-.229 1.19-.219 1.73.029s.92.654 1.12 1.217l9.05 24.481q2.535 6.837 2.01 11.923c-.29 3.369-1.39 6.177-3.31 8.422-1.9 2.301-4.46 4.045-7.66 5.231-2.14.79-4.17 1.093-6.1.908-1.84-.149-3.48-.599-4.91-1.35-1.41-.695-2.59-1.473-3.55-2.334q-.3 3.854-2.91 7.697c-1.74 2.562-4.24 4.446-7.51 5.653-3.37 1.248-6.67 1.601-9.87 1.059-3.21-.541-6.12-2.023-8.75-4.444-2.56-2.442-4.66-5.858-6.28-10.247zm12.54 6.401 5.21 14.097q1.68 4.558 5.01 6.018c2.27.951 4.59.99 6.95.117 2.48-.916 4.23-2.491 5.26-4.726 1.05-2.179 1.02-4.76-.08-7.743l-5.21-14.098zm25.92-9.58 4.89 13.254c1.11 2.982 2.63 4.945 4.58 5.888 2.02.979 4.19 1.042 6.5.189 2.36-.874 3.91-2.309 4.64-4.307.81-1.963.67-4.436-.44-7.418l-4.89-13.254zm-15.71 72.648c-.78-3.023-.89-5.904-.35-8.642.59-2.754 1.7-5.109 3.3-7.068q2.52-2.871 6.27-3.83 6.105-1.559 10.92 2.411c3.29 2.69 6.03 6.634 8.23 11.833l4.79 11.501 1.84-.468c2.44-.624 4.17-1.717 5.2-3.279 1.02-1.562 1.15-3.826.4-6.791-.54-2.092-1.41-3.696-2.62-4.81a7.9 7.9 0 0 0-4.05-2.032q-1.32-.408-1.65-1.716l-1.76-6.888q-.24-.96.15-1.616c.27-.38.7-.644 1.28-.793q1.41-.269 3.69.265t4.68 2.334c1.67 1.184 3.24 2.857 4.72 5.018q2.22 3.241 3.51 8.299c.94 3.662 1.26 6.862.97 9.599-.22 2.781-.89 5.12-2.02 7.018a14.1 14.1 0 0 1-4.47 4.672c-1.85 1.217-3.92 2.115-6.18 2.694l-27.38 6.994c-.59.149-1.13.072-1.64-.231a2.1 2.1 0 0 1-.99-1.327l-1.81-7.063q-.24-.96.21-1.726.48-.678 1.35-.901l3.4-.869c-1.29-.474-2.6-1.224-3.92-2.25-1.25-1.042-2.44-2.411-3.55-4.108q-1.56-2.48-2.52-6.23m9.04.849c.52 2.035 1.42 3.755 2.71 5.16q1.95 2.194 5.01 2.899c2.12.513 4.57.413 7.36-.3l1.83-.467-3.62-8.364c-1.4-3.296-2.9-5.639-4.49-7.028q-2.4-2.083-4.92-1.437-1.92.49-3.03 1.98c-.66 1.037-1.07 2.225-1.22 3.564-.1 1.325.03 2.656.37 3.993m1.42 39.103q-.135-.89.39-1.608c.36-.478.83-.762 1.42-.852l42-6.377c.59-.09 1.13.041 1.61.394.48.352.76.824.85 1.418l1.11 7.296a2.1 2.1 0 0 1-.39 1.607c-.36.479-.83.763-1.42.853l-3.65.554q3.195 1.881 5.61 5.156c1.67 2.234 2.78 5.131 3.32 8.69.55 3.619.2 6.889-1.06 9.81-1.2 2.913-3.17 5.306-5.92 7.18-2.74 1.934-6.19 3.215-10.34 3.846l-25 3.796c-.6.09-1.13-.041-1.61-.393a2.07 2.07 0 0 1-.85-1.418l-1.19-7.83q-.135-.89.39-1.608a2.1 2.1 0 0 1 1.42-.852l24.47-3.715c3.44-.523 6.01-1.793 7.7-3.81q2.565-2.937 1.83-7.742-.705-4.627-4.05-6.94-3.36-2.312-8.52-1.529l-24.47 3.715c-.59.09-1.13-.041-1.61-.393a2.07 2.07 0 0 1-.85-1.418zm8.02 57.106c-.03-.599.15-1.12.55-1.562s.89-.68 1.49-.712l59.49-3.248c.6-.033 1.12.149 1.57.545.44.397.68.894.71 1.494l.4 7.279c.03.659-.15 1.179-.55 1.562-.4.442-.89.68-1.49.712l-30.74 1.678 15.12 14.318c.5.513.89.972 1.15 1.379.33.403.51 1.024.56 1.862l.45 8.358c.03.599-.12 1.088-.46 1.467q-.51.568-1.41.618c-.24.013-.51-.032-.82-.136-.3-.103-.59-.328-.84-.674l-18.36-17.566-21.15 21.976c-.57.632-1.06.959-1.48.982q-.9.05-1.47-.551c-.38-.339-.59-.779-.62-1.318l-.46-8.537c-.05-.899.03-1.565.25-1.997.28-.376.64-.846 1.09-1.412l17.13-18.15-17.43.951c-.6.033-1.12-.149-1.57-.545-.44-.337-.67-.835-.71-1.494zm-1.06 94.514q.705-8.34 3.6-13.787 2.97-5.349 7.17-7.977c2.85-1.688 5.75-2.468 8.69-2.341.53.045.97.262 1.3.651.32.389.47.852.42 1.39l-.67 7.982c-.07.777-.29 1.33-.68 1.659-.34.393-.75.719-1.26.978-1.16.263-2.36.856-3.58 1.777-1.16.926-2.17 2.225-3.04 3.899-.86 1.733-1.41 3.945-1.64 6.636q-.54 6.458 1.35 9.777c1.25 2.273 3.11 3.512 5.56 3.718 1.73.146 3.15-.307 4.27-1.357 1.17-1.046 2.27-2.729 3.31-5.05 1.09-2.257 2.28-5.288 3.56-9.094 1.46-4.394 3.06-8.053 4.81-10.976 1.81-2.859 3.94-4.968 6.4-6.326 2.46-1.299 5.48-1.798 9.07-1.497q5.205.438 9 3.557c2.53 2.139 4.43 5.008 5.69 8.606 1.26 3.658 1.69 7.909 1.28 12.752-.33 3.886-1.15 7.279-2.48 10.178-1.27 2.904-2.85 5.27-4.75 7.097q-2.76 2.748-5.85 4.025-3 1.373-5.79 1.229c-.48-.04-.91-.257-1.3-.651-.34-.329-.48-.793-.43-1.391l.7-8.34q.06-.718.48-1.405c.28-.458.76-.809 1.45-1.053q2.82-.305 5.04-3.098c1.48-1.863 2.35-4.349 2.62-7.458q.405-4.842-1.14-7.953-1.545-3.11-5.31-3.427c-1.68-.14-3.12.22-4.34 1.081q-1.74 1.389-3.27 4.512-1.53 3.213-3.42 8.474c-1.56 4.986-3.23 9.031-4.99 12.134-1.77 3.103-3.88 5.304-6.34 6.603-2.4 1.304-5.36 1.808-8.89 1.511-3.94-.331-7.23-1.691-9.86-4.08-2.57-2.323-4.45-5.461-5.62-9.413s-1.55-8.47-1.12-13.552m-2.89 38.885c.09-.593.38-1.063.86-1.41a2.08 2.08 0 0 1 1.61-.378l41.94 6.787a2.1 2.1 0 0 1 1.41.866c.35.482.47 1.019.38 1.611l-1.2 7.374c-.1.652-.39 1.121-.86 1.41-.49.347-1.02.473-1.62.377l-41.93-6.786a2.1 2.1 0 0 1-1.41-.866c-.36-.423-.48-.96-.38-1.611zm53.89 8.357c.11-.652.37-1.156.8-1.513q.705-.433 1.68-.274l6.4 1.035c.59.096 1.06.355 1.42.777q.525.723.36 1.7l-1.3 8.085c-.11.652-.4 1.151-.88 1.499-.49.347-1.02.473-1.62.377l-6.39-1.035q-.975-.158-1.5-.881c-.29-.472-.38-1.034-.28-1.685zm-58.53 17.058c.14-.583.46-1.03.97-1.34.5-.311 1.05-.396 1.63-.255l41.3 9.927c.59.14 1.03.464 1.34.97.31.507.4 1.052.26 1.635l-1.72 7.176c-.15.583-.47 1.03-.98 1.34-.5.31-1.05.395-1.63.255l-3.59-.862c1.5 1.965 2.59 4.262 3.25 6.89.71 2.7.64 5.801-.2 9.301q-1.275 5.338-4.68 8.687-3.3 3.37-8.19 4.419c-3.26.757-6.94.645-11.02-.337l-24.59-5.91a2.07 2.07 0 0 1-1.34-.97 2.1 2.1 0 0 1-.26-1.635l1.85-7.701c.14-.583.47-1.03.97-1.34.51-.31 1.05-.395 1.64-.255l24.06 5.784c3.39.813 6.24.605 8.58-.624 2.31-1.17 3.85-3.331 4.61-6.481q1.095-4.55-1.14-7.958-2.235-3.407-7.32-4.626l-24.06-5.784a2.1 2.1 0 0 1-1.34-.97 2.1 2.1 0 0 1-.26-1.635zm-21.04 72.868c1.59-4.529 3.72-8.074 6.4-10.633q3.975-3.753 9.18-4.698c3.44-.574 7.13-.299 11.06.823 1.03.301 2.29.709 3.76 1.225s2.71.981 3.71 1.394c3.83 1.596 6.87 3.711 9.13 6.345 2.29 2.71 3.69 5.872 4.21 9.486.49 3.67-.04 7.713-1.58 12.13-1.55 4.416-3.65 7.876-6.31 10.378q-4.02 3.838-9.21 4.783c-3.43.707-7.13.489-11.12-.653-1.04-.301-2.3-.709-3.77-1.225s-2.71-.98-3.71-1.394q-5.655-2.364-9.12-6.345c-2.33-2.597-3.75-5.731-4.24-9.401-.51-3.613.02-7.685 1.61-12.215m8.41 2.947q-1.575 4.501.36 7.947c1.35 2.317 3.84 4.205 7.46 5.664.83.354 1.92.77 3.28 1.246s2.47.835 3.34 1.076c3.69 1.099 6.78 1.166 9.28.198 2.5-.967 4.28-2.952 5.33-5.953q1.575-4.502-.45-7.976c-1.35-2.317-3.81-4.195-7.37-5.635-.83-.354-1.93-.77-3.28-1.246a55 55 0 0 0-3.35-1.075q-5.61-1.68-9.36-.229c-2.44.988-4.19 2.982-5.24 5.983m-20.53 32.009c.26-.543.67-.915 1.22-1.116a2.1 2.1 0 0 1 1.66.081l53.01 24.95q.9.422 1.2 1.26c.2.558.17 1.109-.08 1.652l-10.28 21.824c-1.99 4.235-4.4 7.607-7.24 10.117q-4.185 3.803-9.48 4.493c-3.48.485-7.22-.218-11.24-2.109-4.07-1.916-7.03-4.368-8.87-7.358-1.79-2.963-2.6-6.326-2.42-10.088s1.27-7.76 3.26-11.994l5.71-12.134-19.05-8.968a2.06 2.06 0 0 1-1.12-1.221c-.23-.505-.2-1.056.08-1.653zm25.57 23.669-5.6 11.889c-1.48 3.149-1.88 5.91-1.21 8.283q1.095 3.597 5.49 5.667c2.71 1.277 5.26 1.512 7.62.704 2.43-.782 4.43-2.856 6.02-6.222l5.59-11.889zm-57.74 38.355c1.6-2.675 3.57-4.784 5.9-6.327 2.37-1.512 4.82-2.386 7.34-2.623 2.54-.153 4.92.434 7.13 1.762q5.4 3.242 5.97 9.463c.41 4.229-.47 8.952-2.62 14.168l-4.81 11.498 1.63.973c2.16 1.297 4.15 1.76 5.98 1.39 1.84-.37 3.54-1.866 5.11-4.49 1.12-1.852 1.64-3.601 1.58-5.248-.04-1.564-.51-2.999-1.4-4.306q-.645-1.22.06-2.377l3.66-6.096c.34-.566.75-.911 1.25-1.034.46-.072.95.047 1.46.355.8.546 1.6 1.482 2.41 2.81s1.36 2.984 1.64 4.97c.32 2.017.24 4.312-.25 6.884-.5 2.573-1.64 5.351-3.43 8.334-1.95 3.241-3.99 5.721-6.15 7.439-2.13 1.8-4.26 2.967-6.4 3.502s-4.3.57-6.47.106q-3.255-.695-6.27-2.501l-24.22-14.546a2.05 2.05 0 0 1-.99-1.327c-.15-.576-.06-1.122.25-1.636l3.75-6.251c.34-.565.79-.92 1.37-1.064q.825-.14 1.59.324l3.01 1.807c-.58-1.256-.96-2.712-1.16-4.368q-.21-2.439.42-5.418c.44-1.904 1.33-3.961 2.66-6.173m5.75 7.024c-1.08 1.8-1.66 3.652-1.76 5.556q-.18 2.933 1.47 5.603c1.12 1.863 2.91 3.535 5.38 5.018l1.62.972 3.4-8.457c1.36-3.313 1.97-6.024 1.84-8.134-.13-2.109-.95-3.612-2.44-4.507-1.13-.68-2.31-.932-3.53-.757-1.21.257-2.34.802-3.4 1.635a12.4 12.4 0 0 0-2.58 3.071m-38.31 42.689c2.56-3.477 5.48-6.064 8.74-7.759 3.22-1.647 6.62-2.311 10.19-1.993 3.58.402 7.18 1.83 10.82 4.284.76.485 1.72 1.155 2.87 2.01a63 63 0 0 1 2.92 2.261c3.42 2.744 5.83 5.748 7.22 9.013 1.41 3.348 1.81 6.807 1.19 10.38-.66 3.61-2.26 7.16-4.83 10.64-2.28 3.09-4.65 5.4-7.12 6.93-2.47 1.54-4.88 2.52-7.21 2.96-2.34.44-4.48.47-6.43.07-1.93-.3-3.5-.86-4.69-1.67-.57-.34-.88-.83-.93-1.46-.04-.56.11-1.07.47-1.56l4.7-6.37c.35-.49.76-.78 1.22-.89.41-.07.95-.04 1.62.07 2.46.7 4.53.73 6.19.09 1.67-.55 3.19-1.74 4.54-3.58 1.78-2.41 2.43-4.92 1.95-7.5-.46-2.509-2.3-5.019-5.51-7.537q-2.655-2.174-5.07-3.737c-3.41-2.36-6.37-3.391-8.9-3.094-2.57.345-4.74 1.725-6.52 4.14-1.39 1.884-2.13 3.69-2.21 5.419-.03 1.764.65 3.721 2.05 5.869.31.6.49 1.11.55 1.53.03.46-.13.94-.49 1.42l-4.7 6.38c-.35.48-.83.77-1.41.85-.58.18-1.11.04-1.61-.4-.83-.68-1.64-1.66-2.43-2.91-.78-1.17-1.41-2.64-1.9-4.41-.47-1.69-.69-3.57-.65-5.63.07-2.029.54-4.223 1.38-6.582q1.215-3.466 3.99-7.234m-36.6 46.616c.43-.43.93-.64 1.53-.64q.885-.015 1.53.63l41.64 41.21c.47.47.7 1 .71 1.59q0 .9-.63 1.53l-18.36 18.55c-3.42 3.45-6.74 5.74-9.96 6.86-3.18 1.16-6.19 1.35-9.03.56q-4.335-1.125-7.98-4.74c-1.62-1.6-2.76-3.31-3.4-5.13-.65-1.74-.93-3.41-.86-5.03.04-1.57.24-2.97.62-4.2-2.41.9-5.15 1.11-8.21.61-3.05-.49-5.82-1.96-8.29-4.41-2.56-2.53-4.27-5.37-5.14-8.5-.86-3.14-.75-6.4.34-9.8 1.12-3.36 3.33-6.7 6.63-10.03zm-.5 14.07-10.57 10.68c-2.28 2.3-3.39 4.66-3.34 7.08.1 2.46 1.04 4.58 2.83 6.35 1.88 1.86 4.05 2.78 6.51 2.77 2.42.03 4.75-1.09 6.98-3.35l10.58-10.68zm19.64 19.44-9.94 10.04c-2.24 2.26-3.37 4.47-3.4 6.63-.03 2.25.82 4.24 2.57 5.97 1.79 1.78 3.75 2.57 5.87 2.39 2.12-.09 4.3-1.27 6.54-3.53l9.94-10.04zm-72.5 16.51c2.41-1.98 4.97-3.3 7.68-3.98q4.125-.93 7.8 0c2.45.71 4.49 2.06 6.13 4.05 2.67 3.25 3.48 6.89 2.45 10.92-1.05 4.12-3.46 8.27-7.23 12.47l-8.39 9.21 1.2 1.46c1.6 1.95 3.33 3.06 5.18 3.32 1.85.27 3.95-.57 6.32-2.51q2.505-2.055 3.24-4.41c.49-1.49.53-3 .13-4.53-.13-.91.16-1.65.85-2.22l5.5-4.51c.51-.42 1.01-.61 1.52-.56.46.09.88.37 1.26.83.57.78 1.01 1.93 1.33 3.45.32 1.53.27 3.27-.13 5.24-.37 2.01-1.22 4.14-2.55 6.4-1.33 2.25-3.33 4.49-6.02 6.7-2.92 2.4-5.69 4.04-8.29 4.94-2.61.98-5.01 1.36-7.21 1.15-2.19-.22-4.24-.91-6.13-2.07-1.89-1.17-3.57-2.66-5.06-4.46l-17.939-21.84a2.08 2.08 0 0 1-.485-1.58c.058-.59.319-1.08.783-1.46l5.631-4.63q.765-.63 1.65-.54c.55.1 1.01.38 1.39.84l2.23 2.71c-.12-1.37 0-2.87.38-4.5.41-1.58 1.14-3.23 2.21-4.96 1.06-1.65 2.58-3.29 4.57-4.93m3.07 8.55c-1.63 1.34-2.8 2.88-3.53 4.65-.77 1.8-.94 3.72-.5 5.77.43 2.13 1.56 4.3 3.39 6.53l1.2 1.46 6.04-6.83c2.39-2.66 3.88-5.01 4.46-7.04.59-2.03.32-3.72-.78-5.07-.84-1.01-1.86-1.65-3.08-1.89-1.22-.17-2.46-.03-3.74.4-1.24.47-2.4 1.15-3.46 2.02m-34.836 17.89c.499-.34 1.04-.44 1.622-.33a2.1 2.1 0 0 1 1.374.92l23.61 35.32q.495.75.33 1.62c-.12.58-.43 1.04-.93 1.37l-6.13 4.11c-.5.33-1.04.44-1.62.32-.59-.11-1.04-.42-1.38-.92l-2.048-3.07c-.23 2.47-.993 4.89-2.288 7.27-1.311 2.46-3.463 4.7-6.456 6.7-3.043 2.03-6.153 3.1-9.332 3.2q-4.717.24-9.014-2.31c-2.914-1.66-5.538-4.23-7.872-7.72l-14.056-21.03a2.08 2.08 0 0 1-.326-1.62c.116-.58.423-1.04.922-1.37l6.584-4.41a2.08 2.08 0 0 1 1.622-.32c.583.11 1.041.42 1.374.92l13.755 20.58c1.934 2.89 4.175 4.67 6.722 5.35 2.497.72 5.092.17 7.786-1.63 2.593-1.73 4.113-3.94 4.559-6.62s-.298-5.47-2.232-8.36l-13.755-20.57a2.1 2.1 0 0 1-.327-1.63c.116-.58.423-1.04.922-1.37zm-48.288 31.51a2.06 2.06 0 0 1 1.646-.17q.854.255 1.279 1.05l28.191 52.49c.284.52.34 1.07.169 1.64s-.521 1-1.05 1.28l-6.422 3.45c-.582.31-1.131.37-1.646.17a2.07 2.07 0 0 1-1.279-1.05L942 1170.92l-6.55 19.76c-.248.68-.501 1.23-.757 1.64q-.342.69-1.452 1.29l-7.374 3.96c-.529.28-1.037.35-1.524.2-.488-.14-.873-.48-1.157-1.01a2.2 2.2 0 0 1-.225-.8q-.054-.48.251-1.05l8.115-24.08-28.877-9.82q-1.218-.375-1.516-.93-.426-.795-.127-1.56c.147-.49.458-.86.934-1.12l7.533-4.04c.792-.43 1.431-.64 1.914-.62q.688.135 1.743.39l23.703 7.8-8.261-15.38a2.1 2.1 0 0 1-.169-1.65c.119-.54.469-.96 1.05-1.27zm-85.988 39.01c5.238-1.93 9.911-2.78 14.017-2.56 4.071.3 7.491 1.34 10.259 3.14 2.733 1.87 4.662 4.17 5.788 6.89.186.5.172.99-.042 1.45s-.575.78-1.081.97l-7.52 2.76c-.732.27-1.329.3-1.791.08-.498-.13-.97-.38-1.417-.72-.731-.95-1.772-1.78-3.122-2.5q-1.995-.99-4.817-1.11c-1.938-.06-4.174.38-6.709 1.31-4.055 1.49-6.82 3.27-8.296 5.35-1.531 2.09-1.873 4.3-1.026 6.61.6 1.63 1.61 2.73 3.032 3.29 1.442.62 3.434.92 5.977.88 2.507.04 5.756-.17 9.748-.61 4.597-.53 8.59-.63 11.979-.27 3.354.43 6.166 1.47 8.437 3.13q3.32 2.52 5.182 7.59c1.199 3.27 1.39 6.49.574 9.67q-1.308 4.785-5.402 8.79c-2.786 2.68-6.46 4.86-11.023 6.53-3.661 1.35-7.086 2.03-10.274 2.05-3.168.07-5.981-.36-8.439-1.31-2.438-.9-4.476-2.1-6.116-3.61-1.675-1.43-2.862-3.01-3.559-4.73-.165-.45-.151-.94.042-1.45.158-.45.518-.77 1.081-.98l7.858-2.88c.45-.17.942-.22 1.476-.16q.8.09 1.563.87c.979 1.62 2.625 2.71 4.939 3.26 2.313.56 4.934.3 7.863-.77 3.042-1.12 5.286-2.58 6.731-4.39s1.734-3.9.866-6.26q-.869-2.37-2.809-3.48c-1.33-.66-3.154-1.01-5.471-1.06q-3.56-.03-9.125.48c-5.181.68-9.55.88-13.109.59s-6.445-1.28-8.659-2.96c-2.194-1.62-3.9-4.1-5.12-7.42-1.364-3.72-1.518-7.27-.462-10.66 1.02-3.32 3.075-6.34 6.163-9.07s7.026-4.98 11.814-6.73m-36.461 13.77c.577-.16 1.125-.1 1.643.19.519.29.859.73 1.022 1.3l11.52 40.89q.245.87-.192 1.65-.435.765-1.301 1.02l-7.19 2.02c-.636.18-1.183.12-1.644-.19a2.07 2.07 0 0 1-1.021-1.3l-11.52-40.89a2.07 2.07 0 0 1 .191-1.64q.35-.75 1.302-1.02zm15.137 52.4c.635-.18 1.204-.15 1.706.08q.69.465.959 1.41l1.757 6.24q.245.87-.105 1.62c-.29.52-.753.87-1.388 1.04l-7.883 2.23c-.635.17-1.212.12-1.73-.17a2.1 2.1 0 0 1-1.021-1.3l-1.758-6.24c-.179-.64-.123-1.21.167-1.73q.46-.69 1.413-.96zm-40.125-45.9a2.07 2.07 0 0 1 1.625.31q.742.495.919 1.38l8.383 41.64a2.1 2.1 0 0 1-.316 1.63c-.329.49-.787.8-1.375.92l-7.235 1.45c-.588.12-1.13.02-1.624-.31a2.1 2.1 0 0 1-.92-1.38l-.728-3.62q-1.726 3.285-4.882 5.85c-2.151 1.78-4.991 3.03-8.521 3.74-3.588.72-6.871.52-9.849-.59-2.967-1.06-5.452-2.91-7.456-5.57-2.062-2.64-3.508-6.03-4.337-10.14l-4.99-24.8a2.08 2.08 0 0 1 .315-1.62c.329-.49.788-.8 1.376-.92l7.764-1.56a2.07 2.07 0 0 1 1.625.31q.741.495.919 1.38l4.884 24.26c.687 3.41 2.078 5.92 4.175 7.52 2.038 1.61 4.645 2.09 7.821 1.45 3.059-.61 5.304-2.08 6.737-4.38q2.15-3.465 1.119-8.58l-4.884-24.27a2.07 2.07 0 0 1 .316-1.62c.328-.5.787-.8 1.375-.92zm-74.982 11.62c4.776-.47 8.889-.03 12.339 1.31 3.389 1.36 6.1 3.47 8.133 6.34q2.958 4.32 3.919 10.38.249 1.605.479 3.93c.153 1.55.253 2.87.3 3.95q.252 6.21-1.903 10.95c-1.49 3.22-3.765 5.83-6.824 7.82-3.119 2-7.007 3.22-11.664 3.68-4.657.47-8.681.02-12.07-1.33-3.449-1.35-6.19-3.46-8.223-6.34q-3.129-4.215-4.098-10.35a72 72 0 0 1-.479-3.94 72 72 0 0 1-.3-3.95q-.243-6.12 1.902-10.95c1.371-3.21 3.616-5.81 6.735-7.81q4.588-2.985 11.754-3.69m.876 8.87c-3.165.31-5.515 1.54-7.052 3.68q-2.296 3.3-1.99 9.15c.029.9.114 2.07.256 3.5q.212 2.145.434 3.48c.557 3.81 1.802 6.64 3.734 8.5s4.48 2.63 7.645 2.32 5.512-1.57 7.043-3.77q2.296-3.3 1.999-9.06-.043-1.35-.256-3.51-.211-2.145-.435-3.48-.843-5.79-3.742-8.58c-1.926-1.8-4.471-2.55-7.636-2.23m-37.733-5.09q.9 0 1.528.63.629.63.626 1.53l-.158 58.59q-.003.99-.635 1.62-.631.63-1.531.63l-24.12-.07q-7.02-.015-12.234-2.28c-3.476-1.45-6.17-3.68-8.082-6.68-1.912-2.95-2.862-6.64-2.85-11.08.012-4.5.982-8.22 2.91-11.15 1.928-2.88 4.634-5.03 8.117-6.46q5.226-2.145 12.246-2.13l13.41.04.057-21.06q.003-.9.634-1.53.542-.63 1.532-.63zm-10.62 33.18-13.14-.04c-3.48-.01-6.152.8-8.016 2.41-1.865 1.68-2.801 4.13-2.81 7.37-.008 3 .855 5.41 2.59 7.21 1.735 1.87 4.463 2.8 8.183 2.81l13.14.04zm-59.246-36.05c3.104.32 5.848 1.2 8.233 2.65 2.379 1.51 4.21 3.36 5.495 5.54 1.219 2.24 1.697 4.64 1.434 7.21-.427 4.17-2.438 7.32-6.031 9.42-3.658 2.16-8.306 3.37-13.942 3.64l-12.45.54-.192 1.88c-.257 2.5.172 4.51 1.285 6.01s3.191 2.41 6.235 2.72q3.224.33 5.42-.81c1.399-.7 2.5-1.73 3.303-3.1.557-.72 1.283-1.04 2.178-.95l7.073.72c.657.07 1.146.3 1.467.7.262.39.362.88.301 1.48-.157.94-.664 2.07-1.521 3.37s-2.125 2.5-3.805 3.59q-2.53 1.725-6.338 2.7c-2.539.64-5.539.79-9.001.43q-5.64-.57-9.344-2.4c-2.534-1.16-4.498-2.6-5.891-4.31a14.16 14.16 0 0 1-2.844-5.81c-.502-2.16-.635-4.41-.396-6.74l2.876-28.11c.061-.6.322-1.08.783-1.46.46-.37.989-.53 1.586-.47l7.252.74c.657.07 1.172.34 1.548.8.315.45.442.98.381 1.57l-.357 3.49c.892-1.05 2.046-2.02 3.463-2.9q2.116-1.23 5.082-1.92c1.912-.41 4.151-.48 6.717-.22m-3.914 8.2c-2.089-.22-4.015.04-5.778.76-1.823.72-3.306 1.96-4.45 3.71-1.211 1.8-1.962 4.14-2.255 7.01l-.193 1.88 9.1-.52c3.577-.18 6.291-.77 8.145-1.79s2.868-2.39 3.045-4.12c.134-1.32-.138-2.49-.816-3.52-.744-.98-1.718-1.78-2.923-2.38a12.3 12.3 0 0 0-3.875-1.03m-54.905-16.57q6.354 1.275 10.734 4.62c2.86 2.23 4.903 5.02 6.128 8.38 1.155 3.42 1.393 7.29.712 11.62-.117.89-.316 2.05-.598 3.46a63 63 0 0 1-.81 3.6c-1.034 4.26-2.732 7.71-5.096 10.36-2.434 2.7-5.399 4.52-8.893 5.48q-5.33 1.41-11.685.15c-3.765-.76-6.867-1.92-9.303-3.51q-3.656-2.385-5.739-5.28c-1.39-1.93-2.32-3.86-2.792-5.78-.542-1.89-.702-3.54-.479-4.96q.105-.99.935-1.47c.482-.27 1.017-.35 1.606-.23l7.767 1.55q.882.18 1.324.72.353.54.618 1.5c.414 2.53 1.262 4.41 2.545 5.65 1.213 1.28 2.937 2.15 5.173 2.59q4.413.885 7.624-1.41c2.07-1.49 3.563-4.22 4.479-8.2.564-2.21.975-4.27 1.233-6.17.692-4.09.367-7.21-.976-9.38q-2.102-3.255-6.515-4.14-3.442-.69-5.842.3-2.418 1.08-4.446 4.35-.617.795-1.146 1.14c-.412.23-.912.28-1.501.16l-7.767-1.55a2.06 2.06 0 0 1-1.377-.91c-.4-.45-.506-.99-.318-1.63.27-1.04.805-2.19 1.604-3.44.729-1.2 1.793-2.39 3.193-3.58 1.329-1.15 2.935-2.14 4.817-2.99 1.871-.79 4.053-1.3 6.548-1.54q3.653-.375 8.243.54m-57.685-13.36q.847.3 1.228 1.11.381.795.078 1.65l-19.739 55.16q-.333.93-1.139 1.32c-.537.25-1.088.28-1.653.07l-24.574-8.79q-6.864-2.46-10.427-6.12-3.595-3.585-4.324-7.95c-.543-2.94-.239-6.01.913-9.23.769-2.15 1.841-3.9 3.218-5.26 1.301-1.32 2.698-2.28 4.191-2.89 1.438-.64 2.794-1.04 4.069-1.22-1.839-1.81-3.181-4.2-4.027-7.18s-.683-6.11.49-9.38q1.82-5.085 5.532-8.25c2.475-2.11 5.483-3.39 9.023-3.85q5.28-.6 11.889 1.77zm-12.959 5.49-14.151-5.06q-4.576-1.635-7.828-.03-3.282 1.695-4.556 5.25c-.889 2.49-.808 4.84.244 7.07.996 2.2 2.99 3.84 5.985 4.91l14.151 5.06zm-9.309 26.02-13.303-4.76c-2.995-1.08-5.479-1.17-7.453-.28q-3.077 1.38-4.319 4.86c-.849 2.37-.744 4.48.317 6.32.983 1.89 2.972 3.36 5.966 4.43l13.304 4.76zm-45.57-58.71q4.218 2.025 6.846 5.28c1.725 2.23 2.823 4.59 3.291 7.07.389 2.52.024 4.94-1.093 7.27-1.819 3.78-4.775 6.06-8.869 6.82-4.174.79-8.958.36-14.351-1.3l-11.893-3.72-.819 1.7q-1.637 3.405-.83 6.09.808 2.685 4.945 4.68 2.92 1.395 5.371 1.08a7.9 7.9 0 0 0 4.158-1.8c.77-.49 1.561-.55 2.372-.16l6.409 3.08c.595.29.977.67 1.145 1.15.115.46.042.95-.218 1.5-.469.83-1.328 1.72-2.574 2.65-1.247.93-2.846 1.63-4.798 2.09q-2.966.765-6.877.39t-8.616-2.64q-5.111-2.46-7.975-5.43c-1.99-1.95-3.35-3.97-4.081-6.05a14.16 14.16 0 0 1-.705-6.43c.26-2.21.897-4.37 1.91-6.47l12.238-25.48c.26-.54.67-.91 1.231-1.1q.84-.3 1.652.09l6.571 3.16c.595.28.99.71 1.187 1.27.143.53.084 1.07-.176 1.61l-1.52 3.16c1.197-.69 2.611-1.2 4.243-1.55 1.605-.3 3.416-.32 5.433-.09 1.936.27 4.067.96 6.393 2.08m-6.461 6.38c-1.893-.91-3.792-1.33-5.696-1.24q-2.937.09-5.443 1.98c-1.751 1.28-3.25 3.23-4.497 5.82l-.819 1.71 8.736 2.6c3.425 1.04 6.181 1.4 8.269 1.07 2.089-.32 3.509-1.27 4.263-2.84.571-1.19.714-2.39.426-3.59-.367-1.18-1.015-2.25-1.943-3.23a12.4 12.4 0 0 0-3.296-2.28m-30.891-24.05c.513.31.839.76.979 1.34.141.57.055 1.12-.257 1.63l-22.085 36.29a2.1 2.1 0 0 1-1.334.98c-.577.14-1.121.05-1.634-.26l-6.304-3.84a2.07 2.07 0 0 1-.98-1.33 2.07 2.07 0 0 1 .258-1.63l1.918-3.16q-3.497 1.245-7.554.99-4.182-.225-8.794-3.03c-3.127-1.91-5.407-4.28-6.84-7.12q-2.196-4.17-1.701-9.15c.278-3.34 1.509-6.8 3.692-10.39l13.148-21.6c.312-.52.757-.84 1.334-.98a2.1 2.1 0 0 1 1.635.25l6.765 4.12c.513.31.839.76.98 1.33.14.58.054 1.13-.258 1.64l-12.867 21.14c-1.809 2.97-2.485 5.76-2.029 8.35.406 2.57 1.993 4.69 4.761 6.38 2.665 1.62 5.307 2.07 7.925 1.34 2.618-.72 4.832-2.57 6.641-5.54l12.867-21.14c.312-.52.757-.84 1.334-.98a2.1 2.1 0 0 1 1.635.25zm-48.921-30.52c.48.36.762.83.847 1.42s-.054 1.12-.414 1.6l-35.723 47.68c-.36.48-.834.77-1.422.85a2.1 2.1 0 0 1-1.602-.41l-5.834-4.37c-.528-.4-.811-.87-.847-1.43a2.1 2.1 0 0 1 .413-1.6l18.456-24.63-20.681 2.39q-1.08.09-1.8 0c-.516-.02-1.11-.27-1.782-.78l-6.699-5.02q-.72-.54-.829-1.29c-.072-.5.072-1 .432-1.48q.215-.285.629-.54t1.062-.21l25.253-2.79-3.256-30.33c-.12-.84-.055-1.43.197-1.76q.54-.72 1.368-.78c.504-.07.972.06 1.404.38l6.843 5.13q1.08.81 1.368 1.47c.109.46.235 1.04.379 1.75l2.911 24.78 10.469-13.97c.36-.48.834-.76 1.421-.85q.81-.18 1.603.42zm-71.686-61.54c3.956 3.93 6.704 7.81 8.242 11.62 1.453 3.82 1.951 7.36 1.494 10.63-.543 3.27-1.808 5.98-3.796 8.15-.381.39-.826.58-1.335.58q-.763 0-1.338-.57l-5.68-5.65q-.83-.825-.831-1.59c-.087-.5-.067-1.04.059-1.59.548-1.06.863-2.35.943-3.88.039-1.49-.305-3.1-1.031-4.84q-1.154-2.67-4.025-5.52c-3.063-3.05-5.847-4.8-8.352-5.26q-3.82-.75-6.422 1.86c-1.227 1.24-1.796 2.62-1.707 4.15.047 1.57.625 3.49 1.735 5.78q1.536 3.435 4.67 8.58 3.644 5.91 5.312 10.74 1.54 4.83.725 8.97c-.586 2.72-2.149 5.35-4.687 7.91-2.454 2.46-5.292 4-8.515 4.6-3.265.56-6.682.17-10.249-1.18-3.61-1.39-7.139-3.8-10.585-7.22-2.765-2.75-4.831-5.57-6.197-8.45-1.408-2.84-2.2-5.57-2.377-8.2-.22-2.59.007-4.95.68-7.07.588-2.12 1.516-3.86 2.785-5.23q.508-.51 1.335-.57.7-.075 1.338.57l5.935 5.9c.341.34.596.76.768 1.27.171.51.13 1.1-.123 1.78-1.056 1.57-1.347 3.53-.874 5.86s1.816 4.6 4.028 6.8c2.298 2.28 4.571 3.7 6.822 4.24q3.375.825 6.04-1.86 1.778-1.785 1.962-4.02.057-2.22-1.352-5.4-1.473-3.24-4.286-8.07c-2.813-4.41-4.839-8.28-6.079-11.63s-1.566-6.38-.98-9.1q.816-4.005 4.56-7.77c2.792-2.81 5.949-4.46 9.469-4.93 3.435-.48 7.043.11 10.823 1.75q5.671 2.46 11.096 7.86m-27.922-27.24c.392.46.567.98.523 1.57-.044.6-.292 1.09-.747 1.48l-32.159 27.75c-.454.4-.978.57-1.57.53a2.13 2.13 0 0 1-1.477-.75l-4.88-5.65c-.431-.5-.606-1.03-.523-1.57.044-.6.293-1.09.747-1.48l32.159-27.76c.455-.39.978-.56 1.57-.52q.83 0 1.477.75zM195.257 1061c.431.5.648 1.03.65 1.58q-.124.825-.874 1.47l-4.906 4.23c-.454.39-.958.59-1.511.59q-.888-.06-1.535-.81l-5.351-6.2c-.431-.5-.625-1.05-.582-1.64s.293-1.09.747-1.48l4.906-4.23c.499-.43 1.045-.63 1.638-.58q.82.12 1.467.87zm24.561-55.81c.357.48.492 1.02.404 1.6a2.1 2.1 0 0 1-.855 1.42l-34.15 25.27c-.482.35-1.017.49-1.604.4a2.1 2.1 0 0 1-1.417-.85l-4.389-5.94a2.07 2.07 0 0 1-.404-1.6 2.1 2.1 0 0 1 .856-1.42l2.966-2.19c-2.471-.12-4.927-.76-7.368-1.94-2.524-1.19-4.857-3.24-6.998-6.13-2.177-2.94-3.393-6-3.648-9.17-.304-3.13.322-6.171 1.877-9.113q2.279-4.485 7.344-8.232l20.33-15.042a2.08 2.08 0 0 1 1.604-.404q.882.132 1.417.855l4.711 6.367q.535.723.403 1.605a2.1 2.1 0 0 1-.855 1.416l-19.896 14.721c-2.798 2.07-4.475 4.397-5.032 6.967-.592 2.53.075 5.1 2.002 7.7 1.856 2.51 4.133 3.92 6.831 4.24s5.446-.56 8.243-2.63l19.896-14.719a2.1 2.1 0 0 1 1.605-.404 2.08 2.08 0 0 1 1.416.856zm-42.357-62.962q3.684 6.187 4.05 11.729.32 5.466-2.288 10.056-2.655 4.514-7.729 7.953a74 74 0 0 1-3.357 2.103 72 72 0 0 1-3.449 1.949q-5.52 2.867-10.722 2.927-5.325.027-9.976-2.859-4.698-2.964-8.289-8.997-3.591-6.031-3.912-11.497-.366-5.542 2.242-10.133 2.486-4.622 7.638-8.108a73 73 0 0 1 3.356-2.103 73 73 0 0 1 3.449-1.948q5.443-2.822 10.722-2.927 5.233-.183 9.931 2.782 4.65 2.887 8.334 9.073m-7.656 4.558q-2.44-4.099-6.327-4.822-3.965-.677-9.129 2.083-1.206.613-3.062 1.719a55 55 0 0 0-2.97 1.872q-4.812 3.178-6.106 6.987-1.293 3.808 1.146 7.907 2.44 4.098 6.405 4.776 3.964.677 9.052-2.038 1.206-.612 3.062-1.718a55 55 0 0 0 2.97-1.873q4.889-3.224 6.182-7.032 1.218-3.762-1.223-7.861m-11.383-36.291q.38.816.073 1.653a2.1 2.1 0 0 1-1.123 1.215l-53.147 24.662q-.897.417-1.734.111a2.1 2.1 0 0 1-1.216-1.123l-10.153-21.879q-2.955-6.368-3.11-12.05-.24-5.645 2.631-10.151 2.788-4.468 8.83-7.272 6.122-2.841 11.335-2.085 5.13.793 9.287 4.62 4.157 3.825 7.112 10.193l5.644 12.164 19.104-8.864a2.08 2.08 0 0 1 1.653-.073q.799.225 1.215 1.123zm-34.557 4.427-5.531-11.919q-2.197-4.736-5.576-6.243-3.46-1.47-7.868.575-4.082 1.894-5.433 5.398-1.431 3.543.917 8.604l5.531 11.919zm7.628-68.889q1.531 4.422 1.067 8.583-.55 4.19-2.704 7.318-2.27 3.072-5.927 4.338-5.954 2.061-11.09-1.494-5.25-3.61-9.179-11.108l-5.736-11.062-1.786.618q-3.57 1.237-4.91 3.7-1.336 2.463.165 6.801 1.06 3.061 3.013 4.576a7.84 7.84 0 0 0 4.204 1.687q1.34.298 1.783 1.574l2.326 6.718q.324.936-.01 1.623-.363.602-1.213.896-1.39.387-3.7.043-2.31-.343-4.86-1.936-2.638-1.563-5.12-4.609-2.484-3.045-4.192-7.977-1.854-5.358-1.76-9.486-.02-4.184 1.425-7.161a14.15 14.15 0 0 1 4.07-5.028q2.622-2.052 5.94-3.2l26.704-9.246a2.08 2.08 0 0 1 1.652.094q.801.39 1.095 1.24l2.386 6.889q.324.934-.066 1.737-.418.715-1.269 1.011l-3.316 1.148q1.998.546 4.092 1.917 2.008 1.4 3.886 3.797 1.764 2.342 3.03 5.999m-9.081-.094q-1.03-2.977-3.131-4.916-2.129-2.025-5.237-2.473-3.222-.503-7.304.91l-1.786.619 4.305 8.033q2.503 4.753 5.058 6.63 2.555 1.878 5.021 1.024 1.871-.648 2.849-2.225.863-1.632.926-3.654a12.4 12.4 0 0 0-.701-3.948m-8.122-56.758q1.528 6.297.333 11.681-1.215 5.295-5.018 9.089-3.912 3.727-10.233 5.539-1.29.405-3.39.915-2.186.53-3.607.782-6.448 1.287-11.545-.255-5.206-1.608-8.714-5.758-3.528-4.238-5.056-10.535-1.358-5.598-.738-9.915.62-4.318 2.365-7.427 1.747-3.11 4.073-4.971 2.22-1.927 4.296-2.524.942-.321 1.723.231.674.484.886 1.359l1.867 7.697q.212.875-.098 1.505-.33.544-1.1 1.193-3.18 2.161-4.049 4.687-.977 2.46-.171 5.784 1.06 4.372 4.496 6.318 3.326 1.878 9.317.61 3.366-.632 6.122-1.485 5.992-1.64 8.089-4.833 2.075-3.282 1.014-7.655-.828-3.411-2.737-5.171-1.996-1.738-5.812-2.201-.98-.225-1.525-.557-.564-.419-.776-1.293l-1.868-7.697a2.08 2.08 0 0 1 .252-1.635q.356-.827 1.338-.973 1.596-.295 3.798.005 2.094.233 4.597 1.385 2.392 1.086 4.737 3.111 2.255 2.046 4.154 5.29 1.877 3.156 2.98 7.704m-12.172-57.967a2.08 2.08 0 0 1-.487 1.582q-.57.684-1.466.767l-58.343 5.373q-.986.09-1.67-.479a2.08 2.08 0 0 1-.768-1.466l-2.394-25.99q-.668-7.259 1.151-12.036 1.73-4.769 5.386-7.274 3.648-2.597 8.756-3.066 3.405-.313 6.12.701 2.617.934 4.395 2.578 1.77 1.554 2.823 3.175 1.29-3.644 4.808-6.679 3.516-3.036 8.714-3.514 5.378-.495 9.812 1.537 4.436 2.031 7.293 6.558 2.767 4.536 3.41 11.526zm-10.449-9.431-1.378-14.967q-.445-4.839-3.276-7.11-2.92-2.261-6.683-1.915-3.944.363-6.303 3.202-2.37 2.749-1.931 7.498l1.378 14.967zm-27.513 2.533-1.296-14.07q-.438-4.75-2.893-6.874-2.552-2.205-6.227-1.867-3.765.347-5.602 2.957-1.936 2.527-1.5 7.278l1.296 14.07zm33.97-66.15q-.048 4.68-1.887 8.441-1.929 3.76-5.013 5.978-3.172 2.127-7.042 2.087-6.3-.066-9.937-5.144-3.726-5.169-4.9-13.551l-1.671-12.348-1.89-.02q-3.78-.039-5.87 1.829-2.088 1.87-2.137 6.458-.033 3.24 1.295 5.324a7.84 7.84 0 0 0 3.39 3.006q1.161.732 1.148 2.082l-.074 7.109q-.01.99-.556 1.524-.545.445-1.445.436-1.44-.106-3.497-1.207-2.059-1.101-3.925-3.461-1.955-2.36-3.267-6.064t-1.257-8.924q.059-5.669 1.539-9.524 1.39-3.946 3.755-6.262a14.16 14.16 0 0 1 5.525-3.362q3.162-1.047 6.671-1.011l28.259.293q.9.01 1.523.646.624.637.614 1.537l-.076 7.289q-.01.99-.647 1.614-.635.533-1.535.524l-3.51-.037q1.698 1.188 3.207 3.184 1.42 1.995 2.38 4.885.87 2.799.83 6.669m-8.517-3.149q.032-3.15-1.291-5.684-1.323-2.624-4.098-4.092-2.864-1.56-7.184-1.605l-1.89-.02 1.347 9.015q.755 5.317 2.527 7.947 1.773 2.628 4.383 2.655 1.98.021 3.432-1.134 1.364-1.247 2.103-3.129.65-1.883.67-3.953m8.687-38.206a2.08 2.08 0 0 1-.792 1.453 2.08 2.08 0 0 1-1.589.461l-42.232-4.582a2.1 2.1 0 0 1-1.453-.791 2.08 2.08 0 0 1-.461-1.589l.796-7.337a2.08 2.08 0 0 1 .791-1.453 2.08 2.08 0 0 1 1.59-.462l3.668.398q-2.61-2.637-4.101-6.42-1.571-3.882-.988-9.25.593-5.458 3.534-9.213 2.853-3.764 7.56-5.426 4.716-1.751 10.98-1.072l25.142 2.728a2.1 2.1 0 0 1 1.453.792q.558.694.461 1.589l-.854 7.874a2.1 2.1 0 0 1-.792 1.453 2.08 2.08 0 0 1-1.589.461l-24.605-2.67q-5.19-.563-8.424 1.711-3.225 2.185-3.749 7.017-.504 4.653 2.147 7.747 2.652 3.094 7.841 3.657l24.606 2.67q.894.097 1.453.791.558.695.461 1.589zm6.858-57.242a2.08 2.08 0 0 1-.928 1.37 2.08 2.08 0 0 1-1.626.306l-58.336-12.113a2.08 2.08 0 0 1-1.37-.928 2.08 2.08 0 0 1-.305-1.626l1.482-7.138q.201-.968.927-1.37a2.1 2.1 0 0 1 1.627-.305l30.137 6.257-10.938-17.713q-.54-.94-.764-1.63-.313-.708-.057-1.942l1.702-8.195q.183-.882.821-1.3.64-.42 1.52-.236.352.073.757.341.403.267.646.869l13.24 21.684 26.08-15.818q1.064-.698 1.681-.57.881.183 1.282.91.419.638.254 1.431l-1.738 8.372q-.275 1.322-.755 1.865-.55.438-1.42 1.084l-21.207 13.153 17.095 3.55a2.08 2.08 0 0 1 1.37.928q.507.657.306 1.626zm25.344-90.942q-2.84 7.873-7.051 12.381-4.265 4.394-8.998 5.843-4.787 1.334-8.996.007-.762-.276-1.087-.967-.324-.69-.049-1.453l2.719-7.534q.396-1.101 1.088-1.425.637-.44 1.467-.619 1.792.072 3.92-.786 2.043-.89 3.945-2.978 1.932-2.173 3.307-5.983 2.2-6.095 1.237-9.791-.932-3.781-4.403-5.033-2.455-.886-4.474.203-2.105 1.058-4.512 4.017-2.462 2.843-5.802 7.857-3.815 5.8-7.49 9.353-3.728 3.438-7.824 4.448-4.065.925-9.144-.908-4.911-1.772-7.773-5.771-2.832-4.084-3.26-9.788-.4-5.789 2.075-12.646 1.986-5.503 5.037-9.186 2.967-3.713 6.43-5.621 3.378-1.938 6.692-2.369 3.258-.546 5.913.316.678.245 1.087.966.355.607.05 1.453l-2.842 7.873a3.2 3.2 0 0 1-.827 1.233q-.583.555-1.667.642-2.808-.44-5.678 1.682t-4.46 6.524q-1.649 4.572-.964 7.976t4.24 4.688q2.37.855 4.468.081 2.043-.889 4.328-3.509 2.316-2.705 5.503-7.295 4.206-6.616 7.972-10.423t7.831-4.733q3.981-.955 8.975.847 5.587 2.017 8.467 6.5 2.824 4.368 2.986 10.55.16 6.182-2.436 13.378m12.905-36.917a2.1 2.1 0 0 1-1.198 1.141 2.1 2.1 0 0 1-1.654-.048l-38.8-17.296a2.08 2.08 0 0 1-1.141-1.198 2.08 2.08 0 0 1 .048-1.654l3.041-6.823q.403-.904 1.198-1.141a2.1 2.1 0 0 1 1.654.048l38.8 17.296q.822.366 1.141 1.198.356.75-.048 1.654zm-49.961-21.877q-.404.903-1.153 1.259-.795.237-1.7-.166l-5.918-2.638q-.821-.368-1.178-1.116-.319-.832.084-1.737l3.335-7.48q.402-.905 1.235-1.223a2.08 2.08 0 0 1 1.654.047l5.918 2.639q.904.402 1.223 1.235.237.795-.166 1.699z"/><defs><linearGradient id="a" x1="380.627" x2="421.127" y1="157.127" y2="346.127" gradientUnits="userSpaceOnUse"><stop offset="0" stop-color="#FFBEC4"/><stop offset="1" stop-color="#fff"/></linearGradient></defs></svg>