<?xml version="1.0" encoding="utf-8"?>
<!-- Generator: Adobe Illustrator 27.0.1, SVG Export Plug-In . SVG Version: 6.00 Build 0)  -->
<svg version="1.1" id="圖層_1" xmlns="http://www.w3.org/2000/svg" xmlns:xlink="http://www.w3.org/1999/xlink" x="0px" y="0px"
	 viewBox="0 0 198 62" style="enable-background:new 0 0 198 62;" xml:space="preserve">
<path style="fill:#0F2034;" d="M116.8,33.5l1.3,0.6l0.1,0v0.1l4.9,2.2l-0.7,1.6l2.5,1.1l0-0.5h6.4v-4.3h7.1v0.9h8.6v6.9h-0.9v5.8
	l1,0l0.2-0.2c1-1,1.8-2.1,2.6-3.3l0.4-0.6l0.1-0.1h-3.3v-7l6.9,0l1-2.9l7,2.1l-0.3,0.8h10.7v7l-1.1,0v8.7c0,3.2-1.9,5.3-5.1,5.5
	l-0.2,0l-0.3,0l-0.5,0l-0.6,0l-0.2,0v2.7h-7.2v-2.1l-6.7,0V54l-0.6-0.6l-3.7,7l-1.7-0.5c-1.5-0.5-3-1-4.4-1.7l-0.6-0.3l-0.4-0.2v2.9
	H132v-3l-0.2,0.1c-1.6,0.8-3,1.4-4.3,1.8l-0.4,0.1l-0.4,0.1l-1.7,0.5l-1.2-2.1c-0.4,0.7-0.9,1.3-1.4,1.7c-0.8,0.6-1.7,0.9-2.6,0.9
	c-0.9,0-1.7-0.3-2.4-0.8l-0.2-0.2l-0.1-0.1l-0.1,0c-0.3,0.2-0.6,0.3-0.9,0.5l-0.5,0.2l-0.5,0.2l-1.8,0.7l-1.4-2.4l-0.1,0.2l-0.1,0.2
	l-0.1,0.2l-0.3,0.4l-1.2,1.7l-2.7-1.7v0.9h-6.9v-5.8L99.2,53h-7.9v1.6c0,1.7-0.2,2.9-0.9,3.9l-0.1,0.2l-0.2,0.2
	c-1,1.1-2.5,1.6-4.3,1.6c-1.3,0-2.4-0.1-3.6-0.2l-0.6-0.1L80.1,60l-1.2-7h-2.8v3.2h-3.8v4.3h-7.1v-4.3h-3.1v3.9h-6.9l-0.9,1.4
	l-2.9-2.3v1.3H26.5V45l3,0l0-10.1h19.3l0,10.1H51V34.8l3.8,0v-0.5h6.9V36h1.4l0.7-2.5l7.4,2.1L71.1,36l3.3,0l-0.2-0.7h3.1
	c5.5,0,11-0.3,16.5-0.9l1.5-0.2l1.5-0.2l2.4,4.3h1.5v-4.2h6.9v3.3l0.2-0.3l0.1-0.1l0.1-0.4l0.1-0.4l0.3-0.7l0.8-2.2l2.3,1l3.3-0.3
	l0.8-0.1l1.1-0.1L116.8,33.5L116.8,33.5z M148.1,51.5v1.4l1.7,0.3L148.1,51.5z M124.9,39.2l-1,2.3l-0.3,0.7l0,0c0.4,1,0.7,2,1,3.1
	l0.1,0.6l0.1,0.7l0.1,0.5V39.2z M100,45.2l-1.2,0v0.6l1,0l0.1-0.4L100,45.2z M75.8,40.1v5.8H76v-5.1C76,40.8,75.8,40.1,75.8,40.1z
	 M69.7,0.5h8.2v6l0.2-0.1c0.9-0.3,1.8-0.5,2.8-0.6l0.4,0l0.3,0c4.2,0,7.7,2.3,9.6,5.6c1.9-3.4,5.4-5.5,9.5-5.5
	c1.3,0,2.5,0.3,3.6,0.7l0.3,0.1l0.2,0.1l0-0.3h5.8l0-6h8.4v8.8c2-2.2,4.8-3.5,8.1-3.5c1.3,0,2.5,0.3,3.6,0.7l0.3,0.1l0.2,0.1l0-0.3
	h6.7l0,0h7.8l0.2-0.1c0.7-0.3,1.5-0.4,2.3-0.5l0.4,0l0.4,0c2.5,0,5.3,1.1,7,3c0.5,0.6,0.9,1.2,1.2,1.8c2.1-3,5.5-4.9,9.3-4.9
	c3.7,0,7.4,1.7,9.6,5.4c2-3.2,5.6-5.4,9.8-5.4c6.5,0,11.4,5.2,11.4,11.1c0,0.3,0,0.6,0,0.9l0,0.4l0,0.3l0.3,0l-0.8,2.3l-0.1,0.2h0
	l0,0c-1.3,4-5.5,7.1-10.1,7.4l-0.3,0l-0.3,0c-4.2,0-7.8-2.1-9.9-5.3c-2,3.3-5.5,5.3-9.5,5.3c-3.2,0-6.2-1.4-8.4-3.7l0,2.8h-8.3V17
	c0-2.3-0.5-3.4-1.8-3.4c-0.5,0-1.2,0.3-1.5,0.8c-0.2,0.2-0.3,0.8-0.4,1.6l0,0.4l0,0.4l0,0.4v10.6h-7.1l0,0.3h-7.8v-0.4l-0.3,0.1
	c-1.1,0.5-2.3,0.8-3.5,0.9l-0.4,0l-0.3,0c-3.1,0-5.8-1.3-7.8-3.4l0,2.5h-6.4v0.3h-7.8v-0.4l-0.2,0.1c-1.1,0.5-2.3,0.8-3.5,0.9
	l-0.4,0l-0.3,0c-4,0-7.5-2.1-9.3-5.5c-1.8,3.2-5,5.5-9.4,5.5c-1.4,0-2.6-0.2-3.7-0.6l-0.3-0.1l-0.2-0.1l0,0.2h-7.8V0.5z M35.2,5.9
	H44l1.8,6l1.6-6h6.4l1.6,6l1.8-6h8.9l-8.1,21.7h-5.5l-2-6.8l-2,6.8h-5.5l-2.7-7.5l-0.2,0.5l-0.1,0.4h0l0,0c-1.3,4-5.5,7.1-10.1,7.4
	l-0.3,0l-0.3,0c-3.5,0-6.5-1.4-8.7-3.7v2.8h-8.3V17c0-2.3-0.5-3.4-1.8-3.4c-0.5,0-1.2,0.3-1.5,0.8c-0.2,0.2-0.3,0.8-0.4,1.6l0,0.4
	l0,0.5l0,0.7v10.2H0.5V6.5h7.8l0.2-0.1c0.7-0.3,1.5-0.4,2.3-0.5l0.4,0l0.4,0c2.5,0,5.3,1.1,7,3c0.5,0.6,0.9,1.2,1.2,1.9
	c2.1-3,5.5-5,9.6-5c2.5,0,4.7,0.8,6.5,2C35.9,7.9,35.2,5.9,35.2,5.9z M166.5,13.6c-1.8,0-3.2,1.3-3.2,3.6c0,2.1,1.4,3.6,3.4,3.6
	c0.8,0,1.5-0.4,2.1-1.3l0.1-0.2l0.6-0.9h4.9c-0.1-0.7-0.1-1.4,0-2.2h-4.9l-0.6-1C168.3,14,167.8,13.6,166.5,13.6L166.5,13.6z"/>
<path style="fill:#F8D001;" d="M31.7,37.1v8.7h14.9v-8.7L31.7,37.1L31.7,37.1z M34.4,43.2v-3.4h9.4v3.4L34.4,43.2L34.4,43.2z
	 M38.2,47.2h-9.5v11.1h2.7v-0.9h4.1v0.9h2.7V47.2z M31.4,54.8v-5h4.1v5H31.4z M49.2,47.2h-9.7v11.1h2.7v-0.9h4.2v0.9h2.7V47.2z
	 M42.3,54.8v-5h4.2v5H42.3z M65.4,36.3c-0.2,0.7-0.4,1.4-0.7,2h-3.4v10.3h2.5c-0.7,0.6-1.6,1.1-2.6,1.5l1.1,1.4h-1.5V54h6.6v4.3h2.7
	V54H74v-2.6h-3.8v-2.3h-2.7v2.3h-3.3c1.2-0.6,2.3-1.5,3.1-2.5c0.1-0.1,0.2-0.3,0.3-0.4h6.1V38.2h-5.8c0.1-0.3,0.3-0.7,0.5-1.1
	C68.3,37.1,65.4,36.3,65.4,36.3z M64.1,46v-1.4H66c-0.1,0.5-0.2,1-0.4,1.4H64.1z M68.8,44.5h2.1V46h-2.3
	C68.7,45.5,68.7,45.1,68.8,44.5z M64.1,42.1v-1.3h2.1v1.3H64.1z M68.9,40.8h2v1.3h-2V40.8z M53.2,37v12.4c0,1.3-0.1,2.6-0.3,3.8
	c-0.2,1.2-0.6,2.3-1.2,3.4l2.1,1.6c0.6-0.9,1-2.1,1.4-3.6c0.4-1.5,0.6-3.3,0.6-5.2v-0.4h1.6v8.8h2.6V46.6h-4.2v-1.9h5.1v-2.5h-1.3
	v-5.7H57v5.7h-1.2V37L53.2,37L53.2,37z M95.5,36.5c-6.1,0.7-12.2,1-18.2,1l0.9,2.6c2.7,0,5.3-0.1,8-0.2v2.6h-7.9v2.8h7.9v2.8h-9.7
	v2.7h9.7v3.1c0,0.6-0.1,1-0.2,1.3c-0.1,0.2-0.4,0.3-0.7,0.3c-1.3,0-2.5-0.1-3.8-0.4l0.5,2.9c1.2,0.2,2.4,0.3,3.8,0.3
	c1.3,0,2.2-0.3,2.7-0.9c0.4-0.5,0.6-1.5,0.6-2.9v-3.8h9.2v-2.7h-9.2v-2.8h7.5v-2.8h-7.5v-2.7c2.8-0.1,5.4-0.4,7.8-0.7L95.5,36.5
	L95.5,36.5z M100.8,40.7v2.4h2v0.3c-0.3,1.2-0.6,2.3-0.9,3.5c-0.5,1.7-1,3.1-1.5,4.1l1.5,1.9c0.4-0.8,0.7-1.7,0.9-2.6v8.1h2.5V47.6
	c0.4,0.6,0.7,1.2,1.1,1.8l1.4-2l0.1,0.6c1.7,0,3.3-0.3,4.6-0.8c0,0.2,0,0.4,0.1,0.6l1.7-0.5c0.1,0.5,0.2,1,0.3,1.5h-7v2.3h1.6
	c-0.1,1.3-0.3,2.3-0.5,3.2c-0.3,0.9-0.8,1.8-1.4,2.6l2.2,1.4c0.7-0.9,1.2-1.9,1.5-3.1c0.1-0.2,0.1-0.6,0.2-0.9
	c0.7,0.4,1.3,0.8,2,1.3l1.4-2c-0.9-0.5-1.9-1.1-3-1.6c0-0.3,0-0.6,0-0.9h3.4c0.3,1.1,0.7,2.3,1.2,3.3c-0.8,0.6-1.9,1.2-3.2,1.7
	l1.2,2.2c1.2-0.5,2.2-1,3.2-1.7c0,0.1,0.1,0.2,0.2,0.3c0.7,0.9,1.4,1.4,2.2,1.4c0.5,0,0.9-0.1,1.3-0.4c0.6-0.4,1.1-1.3,1.5-2.7
	l-2.3-0.9c0,0.5-0.1,0.9-0.2,1.2c-0.1,0.2-0.1,0.3-0.2,0.3c-0.2,0-0.4-0.2-0.7-0.6c0.6-0.7,1.2-1.6,1.8-2.6l-2.2-1
	c-0.3,0.4-0.6,0.8-0.8,1.2c-0.2-0.5-0.4-1-0.5-1.5h4.9v-2.3h-1.9l0.7-0.8c-0.4-0.4-0.9-0.7-1.4-1c0.3,0,0.6-0.1,0.9-0.3
	c0,0.2,0.1,0.4,0.1,0.7l1.9-0.6c-0.2-1.4-0.6-2.7-1.1-4l-1,0.3c0.5-0.9,0.9-1.9,1.4-3l-2.1-0.9c-0.3,0.9-0.7,1.8-1.1,2.7
	c-0.2-0.1-0.3-0.2-0.4-0.4c0.6-1.1,1.2-2.5,1.8-4.2l-2.1-0.9c-0.4,1.4-0.9,2.7-1.5,4c-0.1-0.1-0.2-0.1-0.3-0.2l-0.3,0.6
	c-0.1-1.5-0.1-3-0.1-4.5l-2.5,0.2c0,1.4,0,2.7,0.1,3.9l-1.8-0.8c-0.3,0.6-0.6,1.3-0.9,1.9l-0.4-0.3c0.6-1.1,1.3-2.4,2-3.9l-2.1-0.9
	c-0.5,1.3-1,2.6-1.7,3.8c-0.1-0.1-0.3-0.1-0.4-0.2l-1.3,1.7c1,0.5,2,1.1,2.9,1.8c-0.4,0.7-0.8,1.5-1.3,2.2c-0.3,0-0.7,0-1.1,0l0.2,1
	c-0.8-0.9-1.6-1.7-2.4-2.5v-1.3h1.5v-2.4h-1.5v-4.2h-2.5v4.2H100.8L100.8,40.7z M118.6,48.9H117c0-0.1-0.1-0.2-0.1-0.4
	c-0.3-1.6-0.6-3.6-0.7-6c0.6,0.4,1.2,0.8,1.8,1.3c-0.2,0.5-0.5,1-0.8,1.5c-0.2,0-0.4,0-0.7,0l0.4,2.1c0.6,0,1.1,0,1.7-0.1l-0.8,1
	C118,48.5,118.3,48.7,118.6,48.9z M114,45.5c-0.2-0.7-0.4-1.4-0.6-2l-1.3,0.4c0.5-0.8,1-1.8,1.5-2.8C113.6,42.7,113.8,44.1,114,45.5
	z M112,45.3c-0.3,0.1-0.6,0.2-0.9,0.2c0.2-0.3,0.4-0.7,0.7-1.1C111.9,44.7,111.9,45,112,45.3z M120.2,45c-0.2,0-0.4,0.1-0.6,0.1
	c0.1-0.2,0.3-0.5,0.4-0.8C120.1,44.5,120.1,44.7,120.2,45z M125.2,50.1v2.5h6.2c-0.5,0.3-1.1,0.6-1.7,0.8c-1.7,0.7-3.3,1.3-4.9,1.6
	l1.3,2.3c1.5-0.4,3.4-1.2,5.6-2.4c0.8-0.5,1.6-1.1,2.4-1.7v4.8h2.7v-4.8c0.8,0.6,1.7,1.2,2.6,1.7c1.7,1,3.6,1.8,5.7,2.4l1.5-2.8
	c-2-0.4-3.8-0.8-5.2-1.4c-0.6-0.2-1.2-0.5-1.7-0.7h6.2v-2.5h-9v-0.8h7v-8.5h-7.6v-0.8h8.6v-2.5h-8.6v-0.9h-2.7v4.3h-6.4v8.5h7.1v0.8
	H125.2L125.2,50.1z M129.7,46.9v-0.8h11.5v0.8H129.7L129.7,46.9z M129.7,43.9v-0.7h11.5v0.8L129.7,43.9L129.7,43.9z M149.3,38.9v2.6
	h4.9c-0.3,0.6-0.6,1.2-1,1.8c-1.1,2-2.6,4-4.3,5.9l2.1,2.1c0.6-0.6,1.2-1.3,1.8-1.9v6.9h2.9v-8.5h3.9v10.6h2.8V47.8h4.1v4
	c0,0.9-0.2,1.3-0.6,1.3c-0.8,0-1.6-0.1-2.6-0.3l0.6,2.8c0.7,0.1,1.4,0.1,2,0.1c2.2,0,3.4-1.1,3.4-3.3v-7.3h-6.9v-3h-2.8v3h-3.8
	c0,0,0.1-0.1,0.1-0.2c0.6-1.1,1.2-2.2,1.7-3.4h12.8v-2.6h-11.7c0.2-0.5,0.4-1,0.6-1.5l-2.8-0.8c-0.3,0.8-0.6,1.6-0.9,2.4L149.3,38.9
	L149.3,38.9z M2.4,25.7h4.4v-8.2c0-1.5,0-3.3,0.8-4.3c0.8-1.1,2.2-1.5,3-1.5c3.7,0,3.7,4.1,3.7,5.5v8.5h4.4v-9.3
	c0-1.3,0-4.2-1.7-6.1c-1.5-1.7-4-2.4-5.5-2.4c-2.8,0-4.3,1.4-5.1,2.1V8.4H2.4V25.7z M29.4,7.8c5.8,0,9.5,4.8,9.5,9.2
	c0,0.8-0.1,1.5-0.3,2.1H24.3c0.2,1.1,1.9,3.6,5.1,3.6c1.9,0,3.4-0.8,4.2-2.2h4.6c-1.1,3.2-4.6,6.1-8.8,6.1c-5.5,0-9.7-4.2-9.7-9.3
	C19.8,12,24.1,7.8,29.4,7.8C29.3,7.8,29.4,7.8,29.4,7.8L29.4,7.8z M42.6,7.8l3.3,10.9H46l3-10.9h3.5l3,10.9h0.1l3.3-10.9h4.7
	l-6.7,17.9h-2.7l-3.4-11.6h-0.1l-3.4,11.6h-2.7L37.9,7.8H42.6z M29.4,11.6c-1.6,0-4.4,0.9-5.2,4.1h10.1
	C33.9,12.9,31.6,11.6,29.4,11.6L29.4,11.6z M71.6,26h4v-2.1c1.1,1.2,2.6,2.7,6.1,2.7c6.6,0,9-6,9-9.5c0-4.7-3.6-9.4-9.1-9.4
	c-2,0-4.2,0.7-5.7,2.2V2.4h-4.3V26z M75.7,16.9c0-2.6,2.1-5.3,5.4-5.3c2.7,0,5.3,2.1,5.3,5.5c0,3.4-2.4,5.6-5.2,5.6
	C78.6,22.7,75.7,20.8,75.7,16.9z M110.8,8.4h-4v2.2h-0.1c-0.1-0.3-2.3-2.8-6-2.8c-5,0-9.1,3.9-9.1,9.3c0,5.9,4.1,9.5,8.8,9.5
	c2.3,0,5-1.2,6.3-2.8V26h4V8.4z M106.6,17.2c0,3.3-2.3,5.5-5.3,5.5c-3.1,0-5.4-2.4-5.4-5.4c0-2.6,1.8-5.6,5.4-5.6
	C103.9,11.7,106.6,13.5,106.6,17.2z M112.6,25.7h4.6V2.4h-4.6V25.7L112.6,25.7z M137.2,8.4h-4v2.2h-0.1c-0.1-0.3-2.3-2.8-6-2.8
	c-5,0-9.1,3.9-9.1,9.3c0,5.9,4.1,9.5,8.8,9.5c2.3,0,5-1.2,6.3-2.8V26h4C137.2,26,137.2,8.4,137.2,8.4z M133,17.2
	c0,3.3-2.3,5.5-5.3,5.5c-3.1,0-5.4-2.4-5.4-5.4c0-2.6,1.8-5.6,5.4-5.6C130.3,11.7,133,13.5,133,17.2L133,17.2z M139.9,25.7h4.4v-8.2
	c0-1.5,0-3.3,0.8-4.3c0.8-1.1,2.2-1.5,3-1.5c3.7,0,3.7,4.1,3.7,5.5v8.5h4.4v-9.3c0-1.3,0-4.2-1.7-6.1c-1.5-1.7-4-2.4-5.5-2.4
	c-2.8,0-4.3,1.4-5.1,2.1V8.4h-4.1L139.9,25.7L139.9,25.7z M170.6,20.3c-1.1,1.8-2.5,2.4-3.9,2.4c-3.2,0-5.3-2.5-5.3-5.5
	c0-3.6,2.5-5.5,5.1-5.5c2.6,0,3.6,1.7,4.1,2.6h4.8c-1.8-5.4-6.6-6.4-8.9-6.4c-4.9,0-9.3,3.9-9.3,9.3c0,5.8,4.9,9.5,9.4,9.5
	c4.1,0,7.4-2.4,8.8-6.3L170.6,20.3L170.6,20.3z M195.2,19.1c0.1-0.6,0.3-1.3,0.3-2.1c0-4.4-3.7-9.2-9.5-9.2c-5.3,0-9.6,4.2-9.6,9.5
	c0,0,0,0,0,0c0,5.1,4.2,9.3,9.7,9.3c4.3,0,7.8-2.9,8.8-6.1h-4.6c-0.8,1.5-2.3,2.2-4.2,2.2c-3.1,0-4.9-2.5-5-3.6
	C180.9,19.1,195.2,19.1,195.2,19.1z M180.8,15.7c0.8-3.2,3.6-4.1,5.2-4.1c2.2,0,4.5,1.3,4.9,4.1H180.8L180.8,15.7z"/>
</svg>
