<svg xmlns="http://www.w3.org/2000/svg" xml:space="preserve" style="enable-background:new 0 0 76 70" viewBox="0 0 76 70"><path d="M39.9 1.1c19.3 1.3 30.9 11.6 34.8 31v8.3l-4.2 11.1c-7.1 12.4-19 18.4-35.7 17.9-16.6-.5-15-23.2 5.1-68.3z" style="fill:#d59600"/><path d="M1.3 35.3c0 18.9 15.3 34.1 34.1 34.1 18.9 0 34.1-15.3 34.1-34.1 0-18.9-15.3-34.1-34.1-34.1C16.6 1.1 1.3 16.4 1.3 35.3" style="fill:#ffd701"/><path d="M35.7 63.7c15.9 0 28.7-12.9 28.7-28.7S51.6 6.3 35.7 6.3C19.9 6.3 7 19.1 7 35s12.9 28.7 28.7 28.7z" style="fill:#eeae01"/><path d="M54.6 13.3 16.9 56.7C13 53.3 10.1 49 8.4 44L40.9 6.7c5.2 1 9.9 3.3 13.7 6.6zM62 23.4c-.9-2.1-2.1-4-3.4-5.8L21.7 60.1c1.9 1.1 4 2 6.2 2.6L62 23.4z" style="opacity:.44;fill:#fff"/><path d="M35.7 6.3c7.7 0 14.7 3 19.8 7.9-4.9-3.6-10.8-5.5-16.9-5.5-15.8 0-28.7 12.9-28.7 28.7 0 8.2 3.4 15.6 8.9 20.8C11.7 53 7 44.6 7 35 7 19.1 19.9 6.3 35.7 6.3zm-6.3 32.5-1.5 2.3-8.3-.4.8-1.3 9-.6zm5.6-8 .7 2.9-11.6-.8.8-1.4c.1-.1 10.1-.7 10.1-.7zm-7.1-3.5h6.8l.5 1.7-8.1-.5.8-1.2zm-.8 15.5-1.2 2.3h-8.6l.8-1.6 9-.7zm14.8-5.2L39.8 41h2c.9 0 2.6-.4 3.1-1.7.5-1.2-.4-1.8-1-1.8l-2 .1zm1.9-3.4h1.7c1.1 0 2.3-.5 2.8-1.6.4-1-.1-1.8-.9-1.8h-1.7l-1.9 3.4zm-7.9-.6 1.7-3 5.8-.4.2-.4-5.4-.4 1.3-2.2h10c3.1 0 5.4 1.1 4.5 4.3-.3 1-1.5 3.4-5.2 4.5.8.1 2.7.9 2.4 3.2-.6 3.9-5.7 5.8-8.5 5.8H30.9l-.6-2.3 6.2-.4.2-.4-6.7-.3-.7-2.7 9.5-.6.2-.3-17.1-1.1.8-1.4 18.5-1.2.2-.4c-.1 0-5.5-.3-5.5-.3z" style="opacity:.759;fill:#936600;enable-background:new"/><path d="M38.6 0H35.7C16.4 0 .7 15.7.7 35s15.7 35 35 35h2.9c20.2 0 36.7-15.7 36.7-35S58.8 0 38.6 0zM2.2 35c0-18.5 15-33.5 33.5-33.5s33.5 15 33.5 33.5-15 33.5-33.5 33.5S2.2 53.5 2.2 35zm49.7 31c11.2-5.9 18.8-17.6 18.8-31 0-13.5-7.6-25.2-18.8-31 12.8 5 21.8 17 21.8 31s-9 26-21.8 31zm-16.3-1.7c-.4 0-.7-.3-.7-.7 0-.4.3-.7.7-.7 15.4 0 28-12.6 28-28.1 0-4.8-1.2-9.5-3.6-13.7-.2-.4-.1-.8.3-1 .4-.2.8-.1 1 .3 2.5 4.4 3.7 9.4 3.7 14.4C65 51 51.8 64.3 35.6 64.3zm-.2-57.1c-10.8 0-20.5 6-25.3 15.8-.1.3-.4.4-.7.4-.1 0-.2 0-.3-.1-.4-.2-.5-.6-.3-1C13.7 12.2 24.1 5.7 35.4 5.7c9.4 0 18.3 4.5 23.8 12 .2.3.2.8-.2 1-.3.2-.8.2-1-.2-5.3-7.1-13.7-11.3-22.6-11.3zM12 50.1c.2.3.1.8-.2 1-.1.1-.3.1-.4.1-.3 0-.5-.1-.6-.3-1.6-2.4-2.8-5-3.7-7.8-.1-.4.1-.8.5-.9.4-.1.8.1 1 .5.7 2.6 1.9 5.1 3.4 7.4zm22.6-21.6-8.1-.5.8-1.3h6.8l.5 1.8zm-10.2 2.3 10-.6.7 2.9-11.6-.8.9-1.5zm-6.9 12.1 9-.7-1.2 2.3h-8.6l.8-1.6zm33.2-4.2c.3-2.2-1.6-3.1-2.4-3.2 3.7-1 4.9-3.5 5.2-4.5.9-3.2-1.4-4.3-4.5-4.3H39l-1.3 2.2 5.4.4-.2.4-5.8.3-1.7 3 5.4.3-.2.4-18.5 1.2-.8 1.4 17.1 1.1-.2.4-9.5.6.7 2.7 6.7.4-.2.4-6.2.4.6 2.3h11.8c2.9-.1 8-2 8.6-5.9zm-5.5-8.5h1.7c.7 0 1.3.8.9 1.8-.4 1.1-1.6 1.6-2.8 1.6h-1.7l1.9-3.4zm-6 10.3 2.1-3.4h2c.6 0 1.5.6 1 1.8-.5 1.2-2.2 1.7-3.1 1.7h-2zm-10.5-2.2-1.4 2.2-8.3-.4.8-1.3 9-.6-.1.1z" style="fill:#0f2034"/></svg>