<?xml version="1.0" encoding="utf-8"?>
<!-- Generator: Adobe Illustrator 27.0.1, SVG Export Plug-In . SVG Version: 6.00 Build 0)  -->
<svg version="1.1" id="圖層_1" xmlns="http://www.w3.org/2000/svg" xmlns:xlink="http://www.w3.org/1999/xlink" x="0px" y="0px"
	 viewBox="0 0 296 156" style="enable-background:new 0 0 296 156;" xml:space="preserve">
<path style="fill:#89321F;" d="M295.48,122.26l0-6.95c-1.88-0.8-3.11-2.65-3.1-4.7
	c0-2.05,1.22-3.9,3.11-4.7l0-6.95c-2.6-1.11-3.8-4.11-2.7-6.7c0.52-1.21,1.48-2.18,2.7-2.7l0-6.95c-1.88-0.8-3.11-2.65-3.1-4.7
	c0-2.05,1.22-3.9,3.11-4.7l0-6.95c-1.88-0.8-3.11-2.65-3.11-4.7c0-2.05,1.22-3.9,3.11-4.7l0-6.95c-1.88-0.8-3.11-2.65-3.11-4.7
	c0-2.05,1.22-3.9,3.11-4.7l0-6.95c-1.88-0.8-3.11-2.65-3.11-4.7c0-2.05,1.22-3.9,3.11-4.7V21.1c-11.33,0-21.45-9.2-21.45-20.55
	L21.98,0.5c0,11.35-10.13,20.55-21.45,20.55v3.06c2.57,1.15,3.72,4.18,2.57,6.75C2.58,32,1.66,32.91,0.52,33.43l0,7.04
	c2.57,1.15,3.72,4.18,2.57,6.75c-0.51,1.14-1.43,2.06-2.57,2.57v7.04c2.57,1.15,3.72,4.18,2.57,6.75c-0.51,1.14-1.43,2.06-2.57,2.57
	l0,7.04c2.57,1.15,3.72,4.17,2.57,6.75c-0.51,1.14-1.43,2.06-2.57,2.57v7.04c2.57,1.15,3.72,4.17,2.57,6.74
	c-0.51,1.14-1.43,2.06-2.57,2.57l0,7.04c2.57,1.15,3.72,4.18,2.57,6.75c-0.51,1.14-1.43,2.05-2.57,2.57l0,7.04
	c2.57,1.15,3.72,4.17,2.57,6.75c-0.51,1.14-1.43,2.06-2.57,2.57v3.33c11.33,0,21.45,9.21,21.45,20.56l252.08,0.05
	c0-11.35,10.13-20.55,21.45-20.55v-3.29c-1.88-0.8-3.11-2.65-3.1-4.7C292.37,124.91,293.6,123.06,295.48,122.26L295.48,122.26z"/>
<path style="fill:#FFFFFF;" d="M272.69,46.5v1.39h2.79c0.5,0,1.11,0,1.47,0.25
	c0.39,0.25,0.52,0.7,0.52,0.95c0,1.17-1.39,1.17-1.88,1.17h-2.89v1.39h3.17c0.46,0,1.43,0,2.08-0.53c0.59-0.48,0.81-1.24,0.81-1.74
	c0-0.88-0.49-1.36-0.71-1.59h0.51V46.5H272.69z M274.99,57.97c0.19,0.04,0.43,0.08,0.71,0.08c1.48,0,3.08-1.16,3.08-3
	c0-1.79-1.52-3.05-3.18-3.05c-1.71,0-3.1,1.34-3.1,3.06c0,1.36,0.98,2.46,2.04,2.8V56.4c-0.49-0.26-0.75-0.72-0.75-1.34
	c0-0.99,0.82-1.54,1.2-1.6L274.99,57.97L274.99,57.97z M276.12,53.42c1.09,0.26,1.37,1.13,1.37,1.64c0,0.69-0.43,1.41-1.37,1.57
	L276.12,53.42L276.12,53.42z M272.69,59.84v0.86l3.8,1.1v0.02l-3.8,1.09v0.86l5.86,2.12v-1.48l-3.58-1.07v-0.02l3.58-0.94v-1.11
	l-3.58-0.95v-0.02l3.58-1.06v-1.48L272.69,59.84z M272.69,68.57v1.27h0.71c-0.39,0.34-0.9,0.84-0.9,1.96c0,2.12,1.97,2.88,3.15,2.88
	c1.55,0,3.1-1.15,3.1-2.92c0-0.65-0.24-1.33-0.73-1.81h2.48v-1.39L272.69,68.57L272.69,68.57z M275.7,69.87
	c0.86,0,1.76,0.66,1.76,1.72c0,0.88-0.68,1.69-1.83,1.69c-1.14,0-1.85-0.76-1.85-1.67C273.79,70.8,274.4,69.87,275.7,69.87z
	 M278.55,81.17v-1.28h-0.74v-0.02c0.09-0.04,0.94-0.74,0.94-1.92c0-1.61-1.3-2.91-3.09-2.91c-1.95,0-3.16,1.33-3.16,2.82
	c0,0.73,0.39,1.59,0.92,2.03h-0.73v1.28H278.55z M275.63,79.85c-1.09,0-1.85-0.73-1.85-1.69c0-0.99,0.81-1.72,1.8-1.72
	c0.88,0,1.87,0.58,1.87,1.72C277.46,78.98,276.85,79.85,275.63,79.85z M272.69,81.91v1.39h7.81v-1.39H272.69z M278.55,89.84v-1.27
	h-0.74v-0.02c0.08-0.04,0.94-0.74,0.94-1.92c0-1.61-1.3-2.91-3.09-2.91c-1.95,0-3.15,1.33-3.15,2.82c0,0.73,0.39,1.59,0.92,2.03
	h-0.73v1.27C272.69,89.84,278.55,89.84,278.55,89.84z M275.63,88.52c-1.09,0-1.85-0.73-1.85-1.69c0-0.99,0.81-1.72,1.81-1.72
	c0.88,0,1.87,0.58,1.87,1.72C277.46,87.65,276.85,88.52,275.63,88.52z M272.69,90.58v1.39h2.79c0.5,0,1.11,0,1.47,0.25
	c0.39,0.25,0.52,0.7,0.52,0.95c0,1.17-1.39,1.17-1.88,1.17h-2.89v1.39h3.17c0.46,0,1.43,0,2.08-0.53c0.59-0.48,0.81-1.24,0.81-1.75
	c0-0.88-0.49-1.36-0.71-1.59h0.51v-1.28C278.55,90.58,272.69,90.58,272.69,90.58z M274.6,100.67c-0.59-0.37-0.81-0.82-0.81-1.29
	c0-1.05,0.83-1.75,1.84-1.75c1.2,0,1.84,0.84,1.84,1.68c0,0.86-0.56,1.18-0.85,1.35v1.57c1.8-0.6,2.14-2.19,2.14-2.92
	c0-1.6-1.31-3.07-3.1-3.07c-1.94,0-3.15,1.6-3.15,3.08c0,1.36,0.79,2.43,2.1,2.9V100.67z M274.99,108.42
	c0.19,0.04,0.43,0.08,0.71,0.08c1.48,0,3.08-1.16,3.08-3c0-1.79-1.52-3.05-3.18-3.05c-1.71,0-3.1,1.34-3.1,3.06
	c0,1.36,0.98,2.47,2.04,2.8v-1.46c-0.49-0.26-0.75-0.72-0.75-1.34c0-0.99,0.82-1.54,1.2-1.6L274.99,108.42L274.99,108.42z
	 M276.12,103.87c1.09,0.26,1.37,1.13,1.37,1.64c0,0.69-0.43,1.41-1.37,1.57V103.87z M15.69,46.5v1.39h2.79c0.5,0,1.11,0,1.47,0.25
	c0.39,0.25,0.52,0.7,0.52,0.95c0,1.17-1.39,1.17-1.88,1.17h-2.89v1.39h3.17c0.46,0,1.44,0,2.08-0.53c0.59-0.48,0.81-1.24,0.81-1.74
	c0-0.88-0.49-1.36-0.71-1.59h0.51V46.5H15.69z M17.99,57.97c0.19,0.04,0.43,0.08,0.71,0.08c1.48,0,3.08-1.16,3.08-3
	c0-1.79-1.52-3.05-3.18-3.05c-1.71,0-3.1,1.34-3.1,3.06c0,1.36,0.98,2.46,2.04,2.8V56.4c-0.49-0.26-0.75-0.72-0.75-1.34
	c0-0.99,0.82-1.54,1.2-1.6L17.99,57.97L17.99,57.97z M19.12,53.42c1.09,0.26,1.37,1.13,1.37,1.64c0,0.69-0.43,1.41-1.37,1.57
	L19.12,53.42L19.12,53.42z M15.69,59.84v0.86l3.8,1.1v0.02l-3.8,1.09v0.86l5.86,2.12v-1.48l-3.58-1.07v-0.02l3.58-0.94v-1.11
	l-3.58-0.95v-0.02l3.58-1.06v-1.48L15.69,59.84z M15.69,68.57v1.27h0.71c-0.39,0.34-0.9,0.84-0.9,1.96c0,2.12,1.97,2.88,3.15,2.88
	c1.55,0,3.1-1.15,3.1-2.92c0-0.65-0.24-1.33-0.73-1.81h2.48v-1.39L15.69,68.57L15.69,68.57z M18.7,69.87c0.85,0,1.76,0.66,1.76,1.72
	c0,0.88-0.68,1.69-1.83,1.69c-1.14,0-1.85-0.76-1.85-1.67C16.79,70.8,17.4,69.87,18.7,69.87z M21.55,81.17v-1.28h-0.74v-0.02
	c0.09-0.04,0.94-0.74,0.94-1.92c0-1.61-1.3-2.91-3.09-2.91c-1.95,0-3.16,1.33-3.16,2.82c0,0.73,0.39,1.59,0.92,2.03h-0.73v1.28
	H21.55z M18.63,79.85c-1.09,0-1.85-0.73-1.85-1.69c0-0.99,0.81-1.72,1.81-1.72c0.88,0,1.87,0.58,1.87,1.72
	C20.46,78.98,19.85,79.85,18.63,79.85z M15.69,81.91v1.39h7.81v-1.39H15.69z M21.55,89.84v-1.27h-0.74v-0.02
	c0.08-0.04,0.94-0.74,0.94-1.92c0-1.61-1.3-2.91-3.09-2.91c-1.95,0-3.15,1.33-3.15,2.82c0,0.73,0.39,1.59,0.92,2.03h-0.73v1.27
	C15.69,89.84,21.55,89.84,21.55,89.84z M18.63,88.52c-1.09,0-1.85-0.73-1.85-1.69c0-0.99,0.81-1.72,1.81-1.72
	c0.88,0,1.87,0.58,1.87,1.72C20.46,87.65,19.85,88.52,18.63,88.52z M15.69,90.58v1.39h2.79c0.5,0,1.11,0,1.47,0.25
	c0.39,0.25,0.52,0.7,0.52,0.95c0,1.17-1.39,1.17-1.88,1.17h-2.89v1.39h3.17c0.46,0,1.44,0,2.08-0.53c0.59-0.48,0.81-1.24,0.81-1.75
	c0-0.88-0.49-1.36-0.71-1.59h0.51v-1.28C21.55,90.58,15.69,90.58,15.69,90.58z M17.6,100.67c-0.59-0.37-0.81-0.82-0.81-1.29
	c0-1.05,0.83-1.75,1.84-1.75c1.2,0,1.84,0.84,1.84,1.68c0,0.86-0.56,1.18-0.85,1.35v1.57c1.8-0.6,2.14-2.19,2.14-2.92
	c0-1.6-1.31-3.07-3.1-3.07c-1.94,0-3.15,1.6-3.15,3.08c0,1.36,0.79,2.43,2.1,2.9V100.67z M17.99,108.42
	c0.19,0.04,0.43,0.08,0.71,0.08c1.48,0,3.08-1.16,3.08-3c0-1.79-1.52-3.05-3.18-3.05c-1.71,0-3.1,1.34-3.1,3.06
	c0,1.36,0.98,2.47,2.04,2.8v-1.46c-0.48-0.26-0.75-0.72-0.75-1.34c0-0.99,0.82-1.54,1.2-1.6L17.99,108.42L17.99,108.42z
	 M19.12,103.87c1.09,0.26,1.37,1.13,1.37,1.64c0,0.69-0.43,1.41-1.37,1.57V103.87z"/>
<path style="fill:#FFCC9F;" d="M27.74,149.01l240.49,0.05c2.29-9.7,10.15-17.59,19.82-19.88
	l0.02-103.3c-9.67-2.3-17.53-10.19-19.81-19.89L27.77,5.94c-2.29,9.7-10.15,17.59-19.82,19.88l-0.02,103.3
	C17.6,131.42,25.46,139.3,27.74,149.01L27.74,149.01z M269.36,150.47l-242.76-0.05l-0.12-0.56c-2.04-9.61-9.84-17.44-19.41-19.48
	l-0.56-0.12L6.54,24.68l0.56-0.12c9.57-2.04,17.38-9.87,19.42-19.48l0.12-0.56l242.76,0.05l0.12,0.56
	c2.04,9.61,9.84,17.44,19.41,19.49l0.56,0.12l-0.02,105.57l-0.56,0.12c-9.58,2.04-17.38,9.87-19.42,19.48L269.36,150.47
	L269.36,150.47z M31.5,13.59h-1v5.03h1C31.5,18.62,31.5,13.59,31.5,13.59z M31.5,22.64h-1v5.03h1V22.64z M31.5,32.71h-1v5.03h1
	V32.71z M31.5,41.77h-1v5.03h1V41.77z M31.5,51.83h-1v5.03h1V51.83z M31.5,60.89h-1v5.03h1V60.89z M31.5,70.96h-1v5.03h1V70.96z
	 M31.5,80.01h-1v5.03h1V80.01z M31.5,89.07h-1v5.03h1V89.07z M31.5,99.14h-1v5.03h1V99.14z M31.5,108.2h-1v5.03h1V108.2z
	 M31.5,118.26h-1v5.03h1V118.26z M31.5,127.32h-1v5.03h1C31.5,132.35,31.5,127.32,31.5,127.32z M30.5,137.38v5.03h1v-5.03H30.5z
	 M265.5,13.58h-1v5.03h1V13.58z M265.5,22.64l-1,0v5.03h1V22.64L265.5,22.64z M265.5,32.71h-1v5.03h1V32.71z M265.5,41.77h-1v5.03h1
	V41.77z M265.5,51.83h-1v5.03h1C265.5,56.86,265.5,51.83,265.5,51.83z M265.5,60.89h-1v5.03h1C265.5,65.92,265.5,60.89,265.5,60.89z
	 M265.5,70.96h-1v5.03h1V70.96z M265.5,80.01h-1v5.03h1V80.01z M265.5,90.08h-1v5.03h1V90.08z M265.5,99.14h-1v5.03h1V99.14z
	 M265.5,108.2l-1,0v5.03h1V108.2L265.5,108.2z M265.5,118.26h-1v5.03h1V118.26z M265.5,127.32h-1v5.03h1V127.32z M265.5,137.38h-1
	v5.03h1V137.38z M148.5,15.57l2.01,6.15l6.52,0l-5.27,3.8l2.01,6.15l-5.27-3.8l-5.27,3.8l2.01-6.15l-5.27-3.8l6.51,0
	C146.49,21.72,148.5,15.57,148.5,15.57z M125.42,18.59l1.3,4.23h4.21l-3.41,2.61l1.3,4.23l-3.41-2.61l-3.41,2.61l1.3-4.23
	l-3.41-2.61h4.22L125.42,18.59L125.42,18.59z M106.36,18.59l1.3,4.23l4.22,0l-3.41,2.61l1.3,4.23l-3.41-2.61l-3.41,2.61l1.3-4.23
	l-3.41-2.61h4.22L106.36,18.59L106.36,18.59z M189.64,18.59l1.3,4.23h4.22l-3.41,2.61l1.3,4.23l-3.41-2.61l-3.41,2.61l1.3-4.23
	l-3.41-2.61h4.22L189.64,18.59L189.64,18.59z M169.57,18.59l1.3,4.23h4.22l-3.41,2.61l1.3,4.23l-3.41-2.61l-3.41,2.61l1.3-4.23
	l-3.41-2.61h4.22L169.57,18.59L169.57,18.59z M148.5,124.33l2.01,6.15l6.52,0l-5.27,3.8l2.01,6.15l-5.27-3.8l-5.27,3.8l2.01-6.15
	l-5.27-3.8l6.51,0L148.5,124.33L148.5,124.33z M125.42,127.35l1.3,4.23l4.21,0l-3.41,2.61l1.3,4.23l-3.41-2.61l-3.41,2.61l1.3-4.23
	l-3.41-2.61h4.22L125.42,127.35L125.42,127.35z M106.36,127.35l1.3,4.23l4.22,0l-3.41,2.61l1.3,4.23l-3.41-2.61l-3.41,2.61l1.3-4.23
	l-3.41-2.61h4.22L106.36,127.35L106.36,127.35z M189.64,127.35l1.3,4.23l4.22,0l-3.41,2.61l1.3,4.23l-3.41-2.61l-3.41,2.61l1.3-4.23
	l-3.41-2.61l4.22,0L189.64,127.35L189.64,127.35z M169.57,127.35l1.3,4.23l4.22,0l-3.41,2.61l1.3,4.23l-3.41-2.61l-3.41,2.61
	l1.3-4.23l-3.41-2.61h4.22L169.57,127.35L169.57,127.35z"/>
<linearGradient id="SVGID_1_" gradientUnits="userSpaceOnUse" x1="-199.9345" y1="215.3488" x2="-199.3433" y2="215.2336" gradientTransform="matrix(149.061 0 0 -49.107 29907.2832 10650.165)">
	<stop  offset="0" style="stop-color:#FFFFFF"/>
	<stop  offset="1" style="stop-color:#D0D0D0"/>
</linearGradient>
<path style="fill:url(#SVGID_1_);" d="M103.41,86.57c0-3.32-1.33-5.97-3.87-7.96c-1.32-0.99-4.08-2.26-8.28-3.92V63.75
	c2.59,0.77,3.97,2.76,4.14,6.08h7.34c-0.06-3.65-1.05-6.63-3.04-8.89c-1.99-2.21-4.8-3.54-8.45-4.03v-3.09h-5.36v3.09
	c-3.31,0.44-6.02,1.71-8.12,3.76c-2.21,2.21-3.31,4.92-3.31,8.12c0,3.15,1.16,5.69,3.59,7.62c1.66,1.38,4.25,2.71,7.84,3.92v11.66
	c-1.88-0.33-3.2-1.27-3.97-2.71c-0.61-1.11-0.94-2.76-0.99-4.97h-7.45c0.06,4.2,1.1,7.57,3.09,10.05c2.15,2.71,5.24,4.2,9.33,4.53
	v2.98h5.36v-3.15C99.33,97.73,103.41,93.7,103.41,86.57z M85.91,72.65c-2.65-1-3.97-2.43-3.97-4.31c0-2.1,1.33-3.59,3.98-4.47
	C85.91,63.86,85.91,72.65,85.91,72.65z M95.96,86.74c0,2.71-1.6,4.42-4.69,5.19v-9.83c1.49,0.55,2.59,1.05,3.26,1.49
	C95.46,84.36,95.96,85.41,95.96,86.74z M145.69,85.22c0-4.71-1.5-8.71-4.35-11.85c-2.93-3.07-6.78-4.64-11.49-4.64
	c-2.57,0-4.92,0.57-7.2,1.71l0.29-8.28h20.54v-7.99h-28.89l-1.36,29.34h8.27c1.14-4.21,3.57-6.35,7.42-6.35
	c2.43,0,4.28,0.79,5.63,2.21c1.28,1.43,2,3.43,2,5.85c0,2.57-0.71,4.64-2,6.21c-1.5,1.86-3.42,2.71-5.85,2.71
	c-2.5,0-4.28-0.57-5.35-1.78c-1.07-1.14-1.78-3-2.07-5.64h-8.99c0.43,10.42,6.06,15.63,16.83,15.63c4.99,0,9.06-1.64,12.13-4.93
	C144.2,94.29,145.69,90.22,145.69,85.22L145.69,85.22z M184.21,78.14c0-6.78-1.2-12.28-3.53-16.56c-3.03-5.42-7.76-8.14-14.11-8.14
	c-6.42,0-11.14,2.71-14.11,8.14c-2.4,4.28-3.53,9.78-3.53,16.56c0,6.85,1.2,12.35,3.6,16.49c2.96,5.28,7.62,7.92,14.04,7.92
	c6.35,0,11.08-2.64,14.04-7.92C183.01,90.49,184.21,84.99,184.21,78.14L184.21,78.14z M175.01,77.41c0,10.63-2.87,15.94-8.47,15.94
	c-5.6,0-8.4-5.31-8.4-15.94c0-10.84,2.8-16.29,8.4-16.29C172.14,61.12,175.01,66.57,175.01,77.41z M222.55,78.14
	c0-6.78-1.2-12.28-3.53-16.56c-3.03-5.42-7.76-8.14-14.11-8.14c-6.42,0-11.15,2.71-14.11,8.14c-2.4,4.28-3.53,9.78-3.53,16.56
	c0,6.85,1.2,12.35,3.6,16.49c2.96,5.28,7.62,7.92,14.04,7.92c6.35,0,11.08-2.64,14.04-7.92C221.35,90.49,222.55,84.99,222.55,78.14z
	 M213.35,77.41c0,10.63-2.87,15.94-8.47,15.94c-5.6,0-8.4-5.31-8.4-15.94c0-10.84,2.8-16.29,8.4-16.29
	C210.48,61.12,213.35,66.57,213.35,77.41z"/>
</svg>
