<?xml version="1.0" encoding="utf-8"?>
<!-- Generator: Adobe Illustrator 27.1.1, SVG Export Plug-In . SVG Version: 6.00 Build 0)  -->
<svg version="1.1" id="圖層_1" xmlns="http://www.w3.org/2000/svg" xmlns:xlink="http://www.w3.org/1999/xlink" x="0px" y="0px"
	 viewBox="0 0 296 156" style="enable-background:new 0 0 296 156;" xml:space="preserve">
<path style="fill:#89321F;" d="M295.48,122.26l0-6.95c-1.88-0.8-3.11-2.65-3.1-4.7
	c0-2.05,1.22-3.9,3.11-4.7l0-6.95c-2.6-1.11-3.8-4.11-2.7-6.7c0.52-1.21,1.48-2.18,2.7-2.7l0-6.95c-1.88-0.8-3.11-2.65-3.1-4.7
	c0-2.05,1.22-3.9,3.11-4.7l0-6.95c-1.88-0.8-3.11-2.65-3.11-4.7c0-2.05,1.22-3.9,3.11-4.7l0-6.95c-1.88-0.8-3.11-2.65-3.11-4.7
	c0-2.05,1.22-3.9,3.11-4.7l0-6.95c-1.88-0.8-3.11-2.65-3.11-4.7c0-2.05,1.22-3.9,3.11-4.7V21.1c-11.33,0-21.45-9.2-21.45-20.55
	L21.98,0.5c0,11.35-10.13,20.55-21.45,20.55v3.06c2.57,1.15,3.72,4.18,2.57,6.75C2.58,32,1.66,32.91,0.52,33.42l0,7.04
	c2.57,1.15,3.72,4.18,2.57,6.75c-0.51,1.14-1.43,2.06-2.57,2.57v7.04c2.57,1.15,3.72,4.18,2.57,6.75c-0.51,1.14-1.43,2.06-2.57,2.57
	l0,7.04c2.57,1.15,3.72,4.17,2.57,6.75c-0.51,1.14-1.43,2.06-2.57,2.57v7.04c2.57,1.15,3.72,4.17,2.57,6.74
	c-0.51,1.14-1.43,2.06-2.57,2.57l0,7.04c2.57,1.15,3.72,4.18,2.57,6.75c-0.51,1.14-1.43,2.05-2.57,2.57l0,7.04
	c2.57,1.15,3.72,4.17,2.57,6.75c-0.51,1.14-1.43,2.06-2.57,2.57v3.33c11.33,0,21.45,9.21,21.45,20.56l252.08,0.05
	c0-11.35,10.13-20.55,21.45-20.55v-3.29c-1.88-0.8-3.11-2.65-3.1-4.7C292.37,124.91,293.6,123.06,295.48,122.26L295.48,122.26z"/>
<path style="fill:#FFCC9F;" d="M31.5,13.59h-1v5.03h1C31.5,18.62,31.5,13.59,31.5,13.59z
	 M31.5,22.64h-1v5.03h1V22.64z M31.5,32.71h-1v5.03h1V32.71z M31.5,41.77h-1v5.03h1V41.77z M31.5,51.83h-1v5.03h1V51.83z
	 M31.5,60.89h-1v5.03h1V60.89z M31.5,70.96h-1v5.03h1V70.96z M31.5,80.01h-1v5.03h1V80.01z M31.5,89.07h-1v5.03h1V89.07z
	 M31.5,99.14h-1v5.03h1V99.14z M31.5,108.19h-1v5.03h1V108.19z M31.5,118.26h-1v5.03h1V118.26z M31.5,127.32h-1v5.03h1
	C31.5,132.35,31.5,127.32,31.5,127.32z M30.5,137.38v5.03h1v-5.03H30.5z M265.5,13.58h-1v5.03h1V13.58z M265.5,22.64l-1,0v5.03h1
	V22.64L265.5,22.64z M265.5,32.71h-1v5.03h1V32.71z M265.5,41.77h-1v5.03h1V41.77z M265.5,51.83h-1v5.03h1
	C265.5,56.86,265.5,51.83,265.5,51.83z M265.5,60.89h-1v5.03h1C265.5,65.92,265.5,60.89,265.5,60.89z M265.5,70.95h-1v5.03h1V70.95z
	 M265.5,80.01h-1v5.03h1V80.01z M265.5,90.08h-1v5.03h1V90.08z M265.5,99.14h-1v5.03h1V99.14z M265.5,108.2l-1,0v5.03h1V108.2
	L265.5,108.2z M265.5,118.26h-1v5.03h1V118.26z M265.5,127.32h-1v5.03h1V127.32z M265.5,137.38h-1v5.03h1V137.38z"/>
<path style="fill:#FFFFFF;" d="M272.69,46.5v1.39h2.79c0.5,0,1.11,0,1.47,0.25
	c0.39,0.25,0.52,0.7,0.52,0.95c0,1.17-1.39,1.17-1.88,1.17h-2.89v1.39h3.17c0.46,0,1.43,0,2.08-0.53c0.59-0.48,0.81-1.24,0.81-1.74
	c0-0.88-0.49-1.36-0.71-1.59h0.51V46.5H272.69z M274.99,57.97c0.19,0.04,0.43,0.08,0.71,0.08c1.48,0,3.08-1.16,3.08-3
	c0-1.79-1.52-3.05-3.18-3.05c-1.71,0-3.1,1.34-3.1,3.06c0,1.36,0.98,2.46,2.04,2.8V56.4c-0.49-0.26-0.75-0.72-0.75-1.34
	c0-0.99,0.82-1.54,1.2-1.6L274.99,57.97L274.99,57.97z M276.12,53.42c1.09,0.26,1.37,1.13,1.37,1.64c0,0.69-0.43,1.41-1.37,1.57
	L276.12,53.42L276.12,53.42z M272.69,59.84v0.86l3.8,1.1v0.02l-3.8,1.09v0.86l5.86,2.12v-1.48l-3.58-1.07v-0.02l3.58-0.94v-1.11
	l-3.58-0.95v-0.02l3.58-1.06v-1.48L272.69,59.84z M272.69,68.57v1.27h0.71c-0.39,0.34-0.9,0.84-0.9,1.95c0,2.12,1.97,2.88,3.15,2.88
	c1.55,0,3.1-1.15,3.1-2.92c0-0.65-0.24-1.33-0.73-1.81h2.48v-1.39L272.69,68.57L272.69,68.57z M275.7,69.87
	c0.86,0,1.76,0.66,1.76,1.72c0,0.88-0.68,1.69-1.83,1.69c-1.14,0-1.85-0.76-1.85-1.67C273.79,70.8,274.4,69.87,275.7,69.87z
	 M278.55,81.17v-1.28h-0.74v-0.02c0.09-0.04,0.94-0.74,0.94-1.92c0-1.61-1.3-2.91-3.09-2.91c-1.95,0-3.16,1.33-3.16,2.82
	c0,0.73,0.39,1.59,0.92,2.03h-0.73v1.28H278.55z M275.63,79.85c-1.09,0-1.85-0.73-1.85-1.69c0-0.99,0.81-1.72,1.8-1.72
	c0.88,0,1.87,0.58,1.87,1.72C277.46,78.98,276.85,79.85,275.63,79.85z M272.69,81.91v1.39h7.81v-1.39H272.69z M278.55,89.84v-1.27
	h-0.74v-0.02c0.08-0.04,0.94-0.74,0.94-1.92c0-1.61-1.3-2.91-3.09-2.91c-1.95,0-3.15,1.33-3.15,2.82c0,0.73,0.39,1.59,0.92,2.03
	h-0.73v1.27C272.69,89.84,278.55,89.84,278.55,89.84z M275.63,88.52c-1.09,0-1.85-0.73-1.85-1.69c0-0.99,0.81-1.72,1.81-1.72
	c0.88,0,1.87,0.59,1.87,1.72C277.46,87.65,276.85,88.52,275.63,88.52z M272.69,90.58v1.39h2.79c0.5,0,1.11,0,1.47,0.25
	c0.39,0.25,0.52,0.7,0.52,0.95c0,1.17-1.39,1.17-1.88,1.17h-2.89v1.39h3.17c0.46,0,1.43,0,2.08-0.53c0.59-0.48,0.81-1.24,0.81-1.74
	c0-0.88-0.49-1.36-0.71-1.59h0.51v-1.29C278.55,90.58,272.69,90.58,272.69,90.58z M274.6,100.67c-0.59-0.37-0.81-0.83-0.81-1.28
	c0-1.05,0.83-1.75,1.84-1.75c1.2,0,1.84,0.84,1.84,1.68c0,0.86-0.56,1.18-0.85,1.35v1.57c1.8-0.6,2.14-2.18,2.14-2.92
	c0-1.6-1.31-3.07-3.1-3.07c-1.94,0-3.15,1.6-3.15,3.08c0,1.36,0.79,2.43,2.1,2.9V100.67z M274.99,108.42
	c0.19,0.04,0.43,0.08,0.71,0.08c1.48,0,3.08-1.16,3.08-3c0-1.79-1.52-3.05-3.18-3.05c-1.71,0-3.1,1.34-3.1,3.06
	c0,1.36,0.98,2.47,2.04,2.8v-1.46c-0.49-0.26-0.75-0.72-0.75-1.34c0-0.99,0.82-1.54,1.2-1.6L274.99,108.42L274.99,108.42z
	 M276.12,103.87c1.09,0.26,1.37,1.13,1.37,1.64c0,0.69-0.43,1.41-1.37,1.57V103.87z M15.69,46.5v1.39h2.79c0.5,0,1.11,0,1.47,0.25
	c0.39,0.25,0.52,0.7,0.52,0.95c0,1.17-1.39,1.17-1.88,1.17h-2.89v1.39h3.17c0.46,0,1.44,0,2.08-0.53c0.59-0.48,0.81-1.24,0.81-1.74
	c0-0.88-0.49-1.36-0.71-1.59h0.51V46.5H15.69z M17.99,57.97c0.19,0.04,0.43,0.08,0.71,0.08c1.48,0,3.08-1.16,3.08-3
	c0-1.79-1.52-3.05-3.18-3.05c-1.71,0-3.1,1.34-3.1,3.06c0,1.36,0.98,2.46,2.04,2.8V56.4c-0.49-0.26-0.75-0.72-0.75-1.34
	c0-0.99,0.82-1.54,1.2-1.6L17.99,57.97L17.99,57.97z M19.12,53.42c1.09,0.26,1.37,1.13,1.37,1.64c0,0.69-0.43,1.41-1.37,1.57
	L19.12,53.42L19.12,53.42z M15.69,59.84v0.86l3.8,1.1v0.02l-3.8,1.09v0.86l5.86,2.12v-1.48l-3.58-1.07v-0.02l3.58-0.94v-1.11
	l-3.58-0.95v-0.02l3.58-1.06v-1.48L15.69,59.84z M15.69,68.57v1.27h0.71c-0.39,0.34-0.9,0.84-0.9,1.95c0,2.12,1.97,2.88,3.15,2.88
	c1.55,0,3.1-1.15,3.1-2.92c0-0.65-0.24-1.33-0.73-1.81h2.48v-1.39L15.69,68.57L15.69,68.57z M18.7,69.87c0.85,0,1.76,0.66,1.76,1.72
	c0,0.88-0.68,1.69-1.83,1.69c-1.14,0-1.85-0.76-1.85-1.67C16.79,70.8,17.4,69.87,18.7,69.87z M21.55,81.17v-1.28h-0.74v-0.02
	c0.09-0.04,0.94-0.74,0.94-1.92c0-1.61-1.3-2.91-3.09-2.91c-1.95,0-3.16,1.33-3.16,2.82c0,0.73,0.39,1.59,0.92,2.03h-0.73v1.28
	H21.55z M18.63,79.85c-1.09,0-1.85-0.73-1.85-1.69c0-0.99,0.81-1.72,1.81-1.72c0.88,0,1.87,0.58,1.87,1.72
	C20.46,78.98,19.85,79.85,18.63,79.85z M15.69,81.91v1.39h7.81v-1.39H15.69z M21.55,89.84v-1.27h-0.74v-0.02
	c0.08-0.04,0.94-0.74,0.94-1.92c0-1.61-1.3-2.91-3.09-2.91c-1.95,0-3.15,1.33-3.15,2.82c0,0.73,0.39,1.59,0.92,2.03h-0.73v1.27
	C15.69,89.84,21.55,89.84,21.55,89.84z M18.63,88.52c-1.09,0-1.85-0.73-1.85-1.69c0-0.99,0.81-1.72,1.81-1.72
	c0.88,0,1.87,0.59,1.87,1.72C20.46,87.65,19.85,88.52,18.63,88.52z M15.69,90.58v1.39h2.79c0.5,0,1.11,0,1.47,0.25
	c0.39,0.25,0.52,0.7,0.52,0.95c0,1.17-1.39,1.17-1.88,1.17h-2.89v1.39h3.17c0.46,0,1.44,0,2.08-0.53c0.59-0.48,0.81-1.24,0.81-1.74
	c0-0.88-0.49-1.36-0.71-1.59h0.51v-1.29C21.55,90.58,15.69,90.58,15.69,90.58z M17.6,100.67c-0.59-0.37-0.81-0.83-0.81-1.28
	c0-1.05,0.83-1.75,1.84-1.75c1.2,0,1.84,0.84,1.84,1.68c0,0.86-0.56,1.18-0.85,1.35v1.57c1.8-0.6,2.14-2.18,2.14-2.92
	c0-1.6-1.31-3.07-3.1-3.07c-1.94,0-3.15,1.6-3.15,3.08c0,1.36,0.79,2.43,2.1,2.9V100.67z M17.99,108.42
	c0.19,0.04,0.43,0.08,0.71,0.08c1.48,0,3.08-1.16,3.08-3c0-1.79-1.52-3.05-3.18-3.05c-1.71,0-3.1,1.34-3.1,3.06
	c0,1.36,0.98,2.47,2.04,2.8v-1.46c-0.48-0.26-0.75-0.72-0.75-1.34c0-0.99,0.82-1.54,1.2-1.6L17.99,108.42L17.99,108.42z
	 M19.12,103.87c1.09,0.26,1.37,1.13,1.37,1.64c0,0.69-0.43,1.41-1.37,1.57V103.87z"/>
<path style="fill:#FFCC9F;" d="M27.74,149.01l240.49,0.05c2.29-9.7,10.15-17.59,19.82-19.88
	l0.02-103.3c-9.67-2.3-17.53-10.19-19.81-19.89L27.77,5.94c-2.29,9.7-10.15,17.59-19.82,19.88l-0.02,103.3
	C17.6,131.42,25.46,139.3,27.74,149.01L27.74,149.01z M269.36,150.47l-242.76-0.05l-0.12-0.56c-2.04-9.61-9.84-17.44-19.41-19.49
	l-0.56-0.12L6.54,24.68l0.56-0.12c9.57-2.04,17.38-9.87,19.42-19.48l0.12-0.56l242.76,0.05l0.12,0.56
	c2.04,9.61,9.84,17.44,19.41,19.49l0.56,0.12l-0.02,105.57l-0.56,0.12c-9.58,2.04-17.38,9.87-19.42,19.48L269.36,150.47
	L269.36,150.47z M148.5,15.56l2.01,6.15l6.52,0l-5.27,3.8l2.01,6.15l-5.27-3.8l-5.27,3.8l2.01-6.15l-5.27-3.8l6.51,0
	C146.49,21.71,148.5,15.56,148.5,15.56z M125.42,18.58l1.3,4.23h4.21l-3.41,2.61l1.3,4.23l-3.41-2.61l-3.41,2.61l1.3-4.23
	l-3.41-2.61h4.22L125.42,18.58L125.42,18.58z M106.36,18.58l1.3,4.23l4.22,0l-3.41,2.61l1.3,4.23l-3.41-2.61l-3.41,2.61l1.3-4.23
	l-3.41-2.61h4.22L106.36,18.58L106.36,18.58z M189.64,18.58l1.3,4.23h4.22l-3.41,2.61l1.3,4.23l-3.41-2.61l-3.41,2.61l1.3-4.23
	l-3.41-2.61h4.22L189.64,18.58L189.64,18.58z M169.57,18.58l1.3,4.23h4.22l-3.41,2.61l1.3,4.23l-3.41-2.61l-3.41,2.61l1.3-4.23
	l-3.41-2.61h4.22L169.57,18.58L169.57,18.58z M148.5,124.33l2.01,6.15l6.52,0l-5.27,3.8l2.01,6.15l-5.27-3.8l-5.27,3.8l2.01-6.15
	l-5.27-3.8l6.51,0L148.5,124.33L148.5,124.33z M125.42,127.35l1.3,4.23l4.21,0l-3.41,2.61l1.3,4.23l-3.41-2.61l-3.41,2.61l1.3-4.23
	l-3.41-2.61h4.22L125.42,127.35L125.42,127.35z M106.36,127.35l1.3,4.23l4.22,0l-3.41,2.61l1.3,4.23l-3.41-2.61l-3.41,2.61l1.3-4.23
	l-3.41-2.61h4.22L106.36,127.35L106.36,127.35z M189.64,127.35l1.3,4.23l4.22,0l-3.41,2.61l1.3,4.23l-3.41-2.61l-3.41,2.61l1.3-4.23
	l-3.41-2.61l4.22,0L189.64,127.35L189.64,127.35z M169.57,127.35l1.3,4.23l4.22,0l-3.41,2.61l1.3,4.23l-3.41-2.61l-3.41,2.61
	l1.3-4.23l-3.41-2.61h4.22L169.57,127.35L169.57,127.35z"/>
<linearGradient id="SVGID_1_" gradientUnits="userSpaceOnUse" x1="-804.1725" y1="609.0747" x2="-803.4042" y2="608.8969" gradientTransform="matrix(111.299 0 0 -49.617 89614.6172 30294.3066)">
	<stop  offset="0" style="stop-color:#FFFFFF"/>
	<stop  offset="1" style="stop-color:#D0D0D0"/>
</linearGradient>
<path style="fill:url(#SVGID_1_);" d="M122.36,86.56c0-3.28-1.32-5.91-3.86-7.88c-1.32-0.99-4.08-2.24-8.27-3.89V63.97
	c2.59,0.77,3.97,2.73,4.13,6.02h7.33c-0.06-3.61-1.05-6.57-3.03-8.81c-1.98-2.19-4.79-3.5-8.43-3.99v-3.06h-5.35v3.06
	c-3.31,0.44-6.01,1.7-8.1,3.72c-2.21,2.19-3.31,4.87-3.31,8.04c0,3.12,1.16,5.64,3.58,7.55c1.65,1.37,4.24,2.68,7.83,3.88v11.54
	c-1.88-0.33-3.2-1.26-3.97-2.68c-0.61-1.1-0.94-2.74-0.99-4.93h-7.44c0.06,4.16,1.1,7.5,3.09,9.96c2.15,2.68,5.24,4.16,9.32,4.49
	v2.96h5.35V98.6C118.28,97.61,122.36,93.62,122.36,86.56L122.36,86.56z M104.89,72.77c-2.65-0.99-3.97-2.41-3.97-4.27
	c0-2.08,1.32-3.56,3.97-4.43V72.77L104.89,72.77z M114.92,86.72c0,2.68-1.6,4.38-4.68,5.14v-9.74c1.49,0.55,2.59,1.04,3.25,1.48
	C114.42,84.37,114.92,85.41,114.92,86.72L114.92,86.72z M165.26,87.64c0-4.33-1.96-7.87-5.79-10.47c3.33-2.46,4.99-5.71,4.99-9.75
	c0-4.55-1.81-8.16-5.36-10.76c-3.26-2.31-7.24-3.47-11.94-3.47c-4.78,0-8.68,1.23-11.87,3.54c-3.62,2.6-5.36,6.21-5.36,10.69
	c0,4.04,1.66,7.29,5.07,9.75c-3.91,2.67-5.79,6.14-5.79,10.47c0,4.91,1.81,8.67,5.43,11.41c3.33,2.46,7.46,3.76,12.52,3.76
	c5.07,0,9.26-1.23,12.59-3.68C163.38,96.38,165.26,92.55,165.26,87.64L165.26,87.64z M155.2,67.42c0,3.83-2.68,5.71-8.03,5.71
	c-5.36,0-7.96-1.88-7.96-5.71c0-2.02,0.8-3.54,2.46-4.62c1.38-0.87,3.18-1.37,5.5-1.37c2.24,0,4.05,0.51,5.5,1.37
	C154.33,63.88,155.2,65.4,155.2,67.42L155.2,67.42z M155.92,87.64c0,2.31-0.94,4.12-2.68,5.27c-1.59,1.16-3.62,1.66-6.08,1.66
	c-2.46,0-4.49-0.5-6.08-1.66c-1.74-1.23-2.6-2.96-2.6-5.27c0-4.19,2.9-6.36,8.69-6.36C152.96,81.29,155.92,83.45,155.92,87.64z
	 M203.78,87.64c0-4.33-1.95-7.87-5.79-10.47c3.33-2.46,4.99-5.71,4.99-9.75c0-4.55-1.81-8.16-5.36-10.76
	c-3.26-2.31-7.24-3.47-11.94-3.47c-4.78,0-8.69,1.23-11.87,3.54c-3.62,2.6-5.36,6.21-5.36,10.69c0,4.04,1.66,7.29,5.07,9.75
	c-3.91,2.67-5.79,6.14-5.79,10.47c0,4.91,1.81,8.67,5.43,11.41c3.33,2.46,7.45,3.76,12.52,3.76c5.07,0,9.27-1.23,12.59-3.68
	C201.9,96.38,203.78,92.55,203.78,87.64L203.78,87.64z M193.72,67.42c0,3.83-2.68,5.71-8.03,5.71c-5.36,0-7.96-1.88-7.96-5.71
	c0-2.02,0.8-3.54,2.46-4.62c1.38-0.87,3.18-1.37,5.5-1.37c2.24,0,4.05,0.51,5.5,1.37C192.85,63.88,193.72,65.4,193.72,67.42
	L193.72,67.42z M194.45,87.64c0,2.31-0.94,4.12-2.68,5.27c-1.59,1.16-3.62,1.66-6.08,1.66c-2.46,0-4.49-0.5-6.08-1.66
	c-1.74-1.23-2.61-2.96-2.61-5.27c0-4.19,2.9-6.36,8.69-6.36C191.48,81.29,194.45,83.45,194.45,87.64z"/>
</svg>
