<?xml version="1.0" encoding="utf-8"?>
<!-- Generator: Adobe Illustrator 27.0.1, SVG Export Plug-In . SVG Version: 6.00 Build 0)  -->
<svg version="1.1" id="圖層_1" xmlns="http://www.w3.org/2000/svg" xmlns:xlink="http://www.w3.org/1999/xlink" x="0px" y="0px"
	 viewBox="0 0 222 36" style="enable-background:new 0 0 222 36;" xml:space="preserve">
<path style="fill:#0F2034;" d="M87.12,0l5.89,4.9l-0.24,0.2l0.09,0.05l0.81,0.42l0.82,0.4l0.83,0.38c1.96,0.92,3.99,1.7,6.09,2.34
	l0.9,0.27l2.32,0.66l-3.96,6.67h0.85v7.45h-2.41l-0.22,0.61c-0.35,0.97-0.74,1.92-1.18,2.85l5.27,0v7.42H69.77V27.2h5.58
	c-0.26-0.53-0.55-1.06-0.86-1.56l-0.31-0.5l-0.91-1.39h-2.05V16.3h0.97l-3-5.38l0,0.18l-0.04,1.65l-0.04,1.59l-0.05,1.54l-0.06,1.49
	l-0.02,0.36l-0.02,0.36l-0.07,1.41l-0.02,0.35l-0.02,0.34l-0.08,1.34l-0.09,1.29l-0.1,1.24l-0.05,0.6l-0.06,0.59l-0.12,1.13
	l-0.06,0.55l-0.06,0.54l-0.13,1.03l-0.03,0.25l-0.04,0.25l-0.15,0.96c-0.31,1.5-1.02,2.76-2.13,3.7l-0.23,0.18l-0.13,0.09
	c-1.27,0.82-2.76,1.26-4.28,1.25c-1.14,0-2.45-0.12-3.89-0.35l-0.55-0.09l-1.41-0.25l-0.2-2.21l-0.23,0.25l-0.29,0.3l-0.29,0.29
	l-0.59,0.58l-1.38,1.33L48,30.36l0,4.81h-7.44v-9.23l-0.83,0.33l-2.08,0.79l-3.04-7.37l1.88-0.64l0.94-0.32l-2.1-1.09h-0.75v5.7
	h1.23v7.04l-1.35,0l-0.05,0.26c-0.56,2.63-2.49,4.19-5.45,4.38l-0.32,0.01l-0.31,0c-0.81,0-1.67-0.12-2.62-0.37l-0.41-0.11
	l-1.08-0.31l-0.82-3.87h-1.94v4.66h-7.48v-0.51l-1.05,1.26l-1.45-1.41c-0.89-0.86-1.69-1.82-2.37-2.85
	c-0.48,0.88-1.03,1.73-1.65,2.52l-0.29,0.35L5.94,35.8l-5.82-5l1.33-1.41c0.53-0.56,1.01-1.16,1.43-1.8l-0.99,0V1.18H16V2.5h0.75
	V0.77h14.52l0,1.73h3.57v6.91h-0.65v1.31h1.19l0,1.03c0.39-1.97,0.68-3.9,0.86-5.8l0.07-0.81l0.17-2.23l4.07,1.08l0-3.08H48l0,5.71
	h0.66l0.2-0.54c0.29-0.79,0.55-1.64,0.81-2.52l0.19-0.67l0.18-0.69l0.45-1.79l6.94,1.65l-0.3,1.72l-0.13,0.69L56.9,4.88h12.37
	l-0.02,2.76l-0.02,1.49l1.27-0.42c5.32-1.76,10.2-4.2,14.66-7.3l0.78-0.56L87.12,0z M90.1,23.75v0.9c0.19-0.3,0.36-0.6,0.52-0.9
	L90.1,23.75L90.1,23.75z M220.7,11.27v7.55h-8.37v8.24l0.39-0.01l0.51-0.01l0.61-0.03l0.05-0.16l0.05-0.65l0.06-0.93l0.04-0.94
	l0.12-3.04l7.73,4.32l-0.1,1.19c-0.26,3.05-0.8,5.03-1.87,6.19l-0.16,0.16l-0.2,0.17c-0.66,0.47-1.5,0.79-2.5,0.97l-0.32,0.06
	l-0.05,0.01c-0.1,0.02-0.22,0.04-0.35,0.06l-0.42,0.05l-0.49,0.04l-0.27,0.02l-0.6,0.03l-0.67,0.02l-0.74,0.02l-0.8,0.01l-0.84,0
	c-0.73,0-1.41-0.04-2.09-0.12l-0.4-0.06l-0.16-0.01c-2.67-0.21-4.16-2.11-4.33-5.04l-0.01-0.31l0-0.3v-9.97h-0.77l0,0.06
	c-0.14,2.18-0.4,4.03-0.79,5.55l-0.11,0.41l-0.12,0.39c-0.94,2.5-2.37,4.54-4.34,6.11c-1.69,1.32-3.68,2.42-5.98,3.33l-0.64,0.24
	l-1.51,0.56l-3.86-6.92l2.08-0.73c1.81-0.63,3.29-1.44,4.44-2.41c0.98-0.78,1.75-1.79,2.25-2.95c0.28-0.66,0.49-1.67,0.64-3.03
	l0.04-0.38l0.02-0.23h-7.54v-7.55L220.7,11.27L220.7,11.27z M218.59,2.37v7.55H190.4V2.37H218.59L218.59,2.37z M123.35,1.44l0,2.28
	l0.13,0.03c1.64,0.45,3.03,1.19,4.16,2.25l0.28,0.27l0.27,0.29c1.46,1.67,2.23,3.81,2.34,6.35l0.01,0.45l0.03,1.88h-7.1l0.32,0.14
	l0.75,0.32l0.68,0.31c0.97,0.45,1.71,0.84,2.27,1.22l0.18,0.12l0.16,0.12c2.05,1.62,3.12,3.83,3.12,6.48c0,4.77-2.49,7.89-7.06,9.09
	l-0.35,0.09l-0.19,0.04l0,2.28h-7.04v-2.14l-0.28-0.06c-1.87-0.46-3.43-1.34-4.66-2.66l-0.26-0.29l-0.23-0.28
	c-1.44-1.81-2.21-4.17-2.32-6.97l-0.01-0.5l-0.02-1.88h6.29l-0.23-0.11c-0.66-0.32-1.3-0.7-1.9-1.12l-0.32-0.24l-0.25-0.2
	c-1.95-1.57-2.94-3.7-2.94-6.26c0-2.51,0.88-4.69,2.63-6.45c1.11-1.09,2.46-1.91,3.94-2.38l0.42-0.13l0.16-0.04V1.44H123.35
	L123.35,1.44z M144.64,0.99c3.28,0,6.12,0.84,8.49,2.54c2.67,1.98,4.05,4.8,4.05,8.24c0,2.15-0.62,4.04-1.82,5.63l-0.23,0.29
	l-0.18,0.21l0.01,0.01c0.94,0.94,1.67,2.07,2.13,3.31c-0.06-0.86-0.09-1.73-0.09-2.59c0-4.61,0.79-8.37,2.43-11.33
	c2.18-4.02,5.76-6.1,10.44-6.1c4.64,0,8.21,2.07,10.44,6.1c1.63,3.02,2.43,6.79,2.43,11.32c0,4.62-0.82,8.4-2.49,11.3
	c-2.18,3.92-5.75,5.94-10.39,5.94c-4.67,0-8.2-2.01-10.38-5.92c-0.81-1.4-1.42-3-1.83-4.8c-0.13,3.39-1.52,6.16-4.13,8.17
	c-2.4,1.79-5.38,2.68-8.9,2.68c-3.48,0-6.43-0.91-8.87-2.74c-2.71-2.08-4.08-4.99-4.08-8.63c0-2.51,0.83-4.67,2.46-6.44l0.26-0.28
	l-0.18-0.21c-1.23-1.46-1.92-3.2-2.06-5.18l-0.02-0.4l-0.01-0.36c0-3.43,1.37-6.24,4.06-8.2C138.53,1.86,141.35,0.99,144.64,0.99
	L144.64,0.99z"/>
<path style="fill:#F8D001;" d="M15.19,4.36v3.19h3.43v0.92h-2.52v3.19h2.52v0.92h-3.98v3.19h7.85v0.78h-6.66v8.63h-1.46v3.33h1.46
	v4.66h3.74v-4.65h9.38c-0.07,0.82-0.27,1.19-0.65,1.19c-0.98,0-2.07-0.2-3.3-0.65l0.78,3.7c0.95,0.27,1.77,0.41,2.52,0.41
	c2.92,0,4.39-1.43,4.39-4.25v-0.41h1.22v-3.33H32.7v-8.63h-6.63v-0.78h7.45v-3.19H29.4v-0.92h2.92V8.47H29.4V7.55h3.57V4.36H29.4
	V2.63h-3.74v1.73h-3.3V2.63h-3.74v1.73H15.19z M19.57,25.19V24h2.92v1.19H19.57z M26.07,25.19V24h2.92v1.19H26.07z M22.36,12.58
	v-0.92h3.3v0.92H22.36L22.36,12.58z M25.66,8.47h-3.3V7.55h3.3L25.66,8.47L25.66,8.47z M19.58,20.94v-1.19h2.92v1.19L19.58,20.94
	L19.58,20.94z M26.07,19.75h2.92v1.19h-2.92V19.75z M3.76,3.03v22.7h10.37V3.04L3.76,3.03L3.76,3.03z M7.33,22.16v-2.92h3.2v2.92
	L7.33,22.16L7.33,22.16z M7.33,15.78v-2.92h3.2v2.92H7.33z M7.33,9.42V6.6h3.2v2.82L7.33,9.42L7.33,9.42z M5.63,26.51
	c-0.75,1.56-1.67,2.92-2.82,4.15l2.92,2.51c1.02-1.19,2.01-2.89,2.92-5.06L5.63,26.51z M12.4,26.41l-2.92,1.97
	c0.8,1.74,1.92,3.32,3.3,4.65l2.55-3.06C14.13,28.99,13.13,27.78,12.4,26.41L12.4,26.41z M38.18,5.28
	c-0.27,3.57-0.92,7.17-1.87,10.77l3.33,1.73c0.57-1.88,1.03-3.78,1.39-5.71h1.39v6.76c-1.76,0.71-3.54,1.37-5.34,1.97l1.6,3.87
	c1.26-0.49,2.51-1.01,3.74-1.56v10.19h3.71V21.35c1.17-0.62,2.32-1.29,3.43-2l-1.05-3.3c-0.75,0.41-1.53,0.78-2.38,1.19v-5.16h1.84
	c-0.2,0.31-0.44,0.61-0.65,0.92l2.92,2.79c1.05-1.43,2.01-3.13,2.86-5.16h1.16c-0.65,1.87-1.36,3.6-2.18,5.16
	c-1.19,2.17-2.52,4.14-3.95,5.84l2.89,2.79c1.77-2,3.37-4.49,4.76-7.47c0.92-2.05,1.68-4.16,2.28-6.32h1.19
	c-0.54,3.47-1.5,6.63-2.86,9.48c-1.84,3.53-4.15,6.59-6.94,9.11l2.92,3.16c2.99-2.89,5.41-6.18,7.21-9.92
	c1.6-3.53,2.72-7.47,3.4-11.82h0.54c-0.07,5.57-0.31,10.81-0.75,15.66c-0.2,1.43-0.41,2.31-0.65,2.58
	c-0.27,0.41-0.61,0.58-1.02,0.58c-1.19,0-2.69-0.2-4.49-0.64l0.37,4.11c1.56,0.27,2.96,0.41,4.11,0.41
	c1.16,0.01,2.29-0.32,3.26-0.95c0.88-0.68,1.43-1.63,1.67-2.79c0.82-5.1,1.26-12.71,1.33-22.83H54.5c0.31-1.05,0.58-2.14,0.78-3.29
	l-3.43-0.82C51.3,4.8,50.66,6.77,49.91,8.5c-0.41,0.92-0.88,1.8-1.39,2.65V8.47h-2.38V2.76h-3.71v5.71h-0.89
	c0.07-0.71,0.14-1.46,0.2-2.24L38.18,5.28L38.18,5.28z M86.29,7.69c1.87,1.32,3.82,2.51,5.85,3.57H80.17
	C82.29,10.2,84.33,9.01,86.29,7.69L86.29,7.69z M76.43,13.02v1.97h7.82v3.16H73.1v3.74h11.15v7.17H71.64v3.7h29.48v-3.7H88.23v-7.17
	h11.43v-3.74H88.23v-3.16h7.99v-1.73c1.09,0.48,2.18,0.92,3.3,1.32l2.28-3.84c-2.5-0.71-4.93-1.62-7.28-2.72
	c-1.73-0.78-3.41-1.67-5.03-2.65c0.2-0.14,0.41-0.31,0.61-0.48l-3.06-2.55c-4.79,3.47-10.1,6.18-15.95,8.12l2.14,3.84
	C74.32,13.91,75.38,13.5,76.43,13.02z M79.32,22.4l-3.57,1.73c0.92,1.42,1.67,2.93,2.24,4.52l3.74-1.6
	C81.05,25.36,80.27,23.83,79.32,22.4L79.32,22.4z M93.3,22.4c-0.54,1.43-1.29,2.82-2.28,4.25l3.74,2c0.89-1.33,1.67-2.96,2.38-4.93
	L93.3,22.4z M192.27,4.22v3.84h24.45V4.22L192.27,4.22L192.27,4.22z M190.17,13.13v3.84h7.65c-0.1,2.85-0.41,4.93-0.95,6.22
	c-0.61,1.43-1.57,2.7-2.79,3.67c-1.29,1.09-2.96,2-5,2.72l2.01,3.6c2.38-0.88,4.42-1.97,6.12-3.3c1.7-1.36,2.92-3.13,3.74-5.3
	c0.54-1.73,0.89-4.28,0.99-7.61h4.42v11.82c0,2.45,0.92,3.74,2.82,3.8c0.68,0.1,1.43,0.17,2.31,0.17c2.69,0,4.32-0.1,4.9-0.24
	c0.89-0.14,1.6-0.37,2.07-0.71c0.75-0.71,1.22-2.41,1.46-5.16l-4.01-2.24c-0.07,1.77-0.17,2.82-0.27,3.09
	c-0.14,0.54-0.37,0.95-0.75,1.22c-0.34,0.14-1.5,0.2-3.4,0.2c-0.27,0-0.44-0.03-0.58-0.1c-0.31-0.03-0.44-0.48-0.44-1.36v-10.5h8.36
	v-3.84H190.17z M129.1,23.94c0-2.09-0.83-3.76-2.42-5.01c-0.83-0.63-2.56-1.43-5.18-2.47V9.56c1.62,0.49,2.49,1.74,2.59,3.83h4.59
	c-0.03-2.3-0.66-4.18-1.9-5.61c-1.24-1.39-3-2.23-5.28-2.54V3.3h-3.35v1.95c-2.07,0.28-3.76,1.08-5.08,2.37
	c-1.38,1.39-2.07,3.1-2.07,5.12c0,1.98,0.72,3.59,2.24,4.81c1.04,0.87,2.66,1.71,4.9,2.47v7.35c-1.17-0.21-2-0.8-2.49-1.71
	c-0.38-0.7-0.59-1.74-0.62-3.13h-4.66c0.03,2.65,0.69,4.77,1.93,6.34c1.35,1.71,3.28,2.65,5.84,2.86v1.88h3.35v-1.98
	C126.54,30.98,129.1,28.44,129.1,23.94z M118.15,15.17c-1.66-0.63-2.49-1.53-2.49-2.72c0-1.32,0.83-2.26,2.49-2.82V15.17z
	 M124.44,24.05c0,1.71-1,2.79-2.94,3.27v-6.2c0.93,0.35,1.62,0.66,2.04,0.94C124.13,22.55,124.44,23.21,124.44,24.05z M155.97,24.63
	c0-2.76-1.22-5.01-3.63-6.66c2.09-1.56,3.13-3.63,3.13-6.21c0-2.9-1.13-5.2-3.36-6.85c-2.04-1.47-4.53-2.21-7.48-2.21
	c-2.99,0-5.44,0.78-7.44,2.25c-2.27,1.65-3.35,3.95-3.35,6.8c0,2.57,1.04,4.64,3.17,6.21c-2.45,1.7-3.63,3.91-3.63,6.67
	c0,3.13,1.13,5.52,3.4,7.26c2.08,1.56,4.67,2.39,7.84,2.39c3.17,0,5.8-0.78,7.89-2.34C154.79,30.2,155.97,27.76,155.97,24.63
	L155.97,24.63z M149.67,11.76c0,2.44-1.68,3.63-5.03,3.63c-3.36,0-4.99-1.2-4.99-3.63c0-1.29,0.5-2.25,1.54-2.94
	c0.86-0.55,1.99-0.87,3.45-0.87c1.41,0,2.54,0.32,3.45,0.87C149.13,9.51,149.67,10.48,149.67,11.76L149.67,11.76z M150.12,24.63
	c0,1.47-0.59,2.62-1.68,3.36c-1,0.74-2.27,1.06-3.81,1.06s-2.81-0.32-3.81-1.06c-1.09-0.78-1.63-1.88-1.63-3.36
	c0-2.67,1.81-4.05,5.44-4.05C148.26,20.59,150.12,21.97,150.12,24.63z M180.9,18.63c0-4.27-0.75-7.74-2.21-10.44
	c-1.9-3.42-4.85-5.13-8.82-5.13c-4.01,0-6.97,1.71-8.82,5.13c-1.5,2.7-2.21,6.16-2.21,10.44c0,4.32,0.75,7.78,2.25,10.39
	c1.85,3.33,4.77,4.99,8.78,4.99c3.97,0,6.93-1.66,8.78-4.99C180.15,26.42,180.9,22.95,180.9,18.63L180.9,18.63z M175.14,18.17
	c0,6.7-1.79,10.05-5.3,10.05s-5.25-3.35-5.25-10.05c0-6.83,1.75-10.27,5.25-10.27S175.14,11.34,175.14,18.17z"/>
</svg>
