<?xml version="1.0" encoding="utf-8"?>
<!-- Generator: Adobe Illustrator 27.1.1, SVG Export Plug-In . SVG Version: 6.00 Build 0)  -->
<svg version="1.1" id="圖層_1" xmlns="http://www.w3.org/2000/svg" xmlns:xlink="http://www.w3.org/1999/xlink" x="0px" y="0px"
	 viewBox="0 0 224 36" style="enable-background:new 0 0 224 36;" xml:space="preserve">
<path style="fill:#0F2034;" d="M87.99,0l5.92,4.93l-0.24,0.2l0.09,0.05l0.82,0.42L95.4,6l0.83,0.39c1.97,0.93,4.01,1.71,6.12,2.36
	l0.91,0.27l2.33,0.66l-3.98,6.71h0.86v7.49h-2.42l-0.22,0.61c-0.35,0.97-0.75,1.93-1.19,2.87l5.3,0v7.46h-33.4v-7.46h5.61
	c-0.26-0.54-0.55-1.06-0.86-1.57l-0.32-0.5l-0.91-1.4h-2.06v-7.49h0.98l-3.02-5.41l0,0.18l-0.04,1.65l-0.04,1.6l-0.05,1.55
	l-0.06,1.5l-0.02,0.37l-0.02,0.36l-0.07,1.42l-0.02,0.35l-0.02,0.34l-0.08,1.34l-0.09,1.29l-0.1,1.24l-0.05,0.6l-0.06,0.59
	l-0.12,1.14l-0.06,0.55L69,27.61l-0.13,1.04l-0.03,0.25l-0.04,0.25l-0.15,0.96c-0.31,1.51-1.03,2.78-2.14,3.72l-0.23,0.18
	l-0.13,0.09c-1.28,0.83-2.78,1.26-4.3,1.26c-1.15,0-2.47-0.12-3.91-0.35l-0.55-0.09l-1.42-0.25l-0.2-2.22l-0.23,0.25L55.25,33
	l-0.29,0.29l-0.59,0.58l-1.38,1.34l-4.34-4.69l0,4.83h-7.49v-9.28l-0.83,0.33l-2.1,0.79l-3.06-7.42l1.89-0.64l0.94-0.32l-2.11-1.1
	h-0.76v5.73h1.23v7.08l-1.35,0l-0.05,0.26c-0.56,2.64-2.51,4.21-5.49,4.4l-0.32,0.01l-0.31,0.01c-0.82,0-1.68-0.12-2.63-0.37
	l-0.42-0.11l-1.09-0.31l-0.82-3.89h-1.95v4.68h-7.52v-0.52l-1.06,1.27l-1.46-1.42c-0.89-0.87-1.69-1.83-2.39-2.87
	c-0.48,0.89-1.03,1.74-1.66,2.53l-0.29,0.35L6.35,36L0.5,30.97l1.34-1.42c0.53-0.56,1.01-1.16,1.44-1.81l-0.99,0V1.18h14.19v1.33
	h0.75V0.77h14.6l0,1.74h3.59v6.95h-0.65v1.32h1.2l0,1.03c0.4-1.98,0.68-3.93,0.86-5.84l0.07-0.82l0.17-2.25l4.1,1.09l0-3.1h7.49
	l0,5.74h0.66l0.21-0.55c0.29-0.8,0.56-1.64,0.81-2.54l0.19-0.68l0.18-0.69l0.45-1.8l6.98,1.66l-0.31,1.73l-0.13,0.69L57.6,4.91
	h12.44l-0.02,2.78L70,9.18l1.28-0.42c5.35-1.77,10.25-4.22,14.74-7.34l0.79-0.56L87.99,0z M90.98,23.88v0.91
	c0.19-0.3,0.36-0.6,0.53-0.9L90.98,23.88L90.98,23.88z M222.31,11.33v7.6h-8.41v8.29l0.39-0.01l0.51-0.01l0.61-0.03l0.05-0.16
	l0.05-0.65l0.06-0.93l0.04-0.95l0.12-3.06l7.77,4.34l-0.1,1.2c-0.26,3.07-0.8,5.06-1.88,6.22l-0.16,0.16l-0.21,0.17
	c-0.66,0.47-1.51,0.79-2.51,0.98l-0.32,0.06l-0.05,0.01c-0.1,0.02-0.22,0.04-0.35,0.06l-0.42,0.05l-0.5,0.04l-0.28,0.02l-0.6,0.03
	l-0.67,0.03l-0.74,0.02l-0.81,0.01l-0.85,0c-0.74,0-1.42-0.04-2.1-0.12l-0.41-0.06l-0.16-0.01c-2.68-0.21-4.18-2.12-4.36-5.06
	l-0.01-0.31L206,28.95V18.93h-0.77l0,0.06c-0.14,2.2-0.4,4.05-0.79,5.58l-0.11,0.41l-0.12,0.39c-0.95,2.52-2.38,4.56-4.36,6.15
	c-1.7,1.32-3.7,2.43-6.02,3.35l-0.64,0.24l-1.52,0.56l-3.88-6.96l2.1-0.73c1.82-0.64,3.31-1.45,4.46-2.42
	c0.99-0.79,1.76-1.8,2.26-2.96c0.28-0.66,0.5-1.68,0.64-3.05l0.04-0.38l0.02-0.23h-7.58v-7.6L222.31,11.33L222.31,11.33z
	 M220.19,2.38v7.6h-28.34v-7.6H220.19L220.19,2.38z M124.58,0.81l0,2.3l0.13,0.03c1.67,0.45,3.08,1.2,4.23,2.27l0.28,0.27l0.27,0.29
	c1.48,1.68,2.27,3.84,2.39,6.39l0.01,0.45l0.03,1.9h-7.23l0.33,0.14l0.76,0.32l0.69,0.31c0.99,0.45,1.74,0.85,2.31,1.22l0.18,0.12
	l0.16,0.11c2.09,1.62,3.18,3.85,3.18,6.51c0,4.8-2.54,7.93-7.19,9.15l-0.35,0.09l-0.19,0.04l0,2.29h-7.17v-2.15l-0.29-0.06
	c-1.9-0.46-3.49-1.35-4.75-2.68l-0.26-0.29l-0.24-0.28c-1.47-1.83-2.25-4.19-2.37-7.01l-0.01-0.5l-0.03-1.89h6.4l-0.23-0.11
	c-0.68-0.32-1.32-0.7-1.94-1.13l-0.32-0.24l-0.26-0.2c-1.99-1.58-2.99-3.72-2.99-6.29c0-2.52,0.9-4.71,2.68-6.48
	c1.14-1.1,2.51-1.92,4.02-2.4l0.42-0.13l0.16-0.04v-2.3H124.58L124.58,0.81z M170.84,0.36c3.35,0,6.24,0.84,8.64,2.55
	c2.72,1.99,4.13,4.83,4.13,8.28c0,2.16-0.63,4.07-1.85,5.66l-0.24,0.3l-0.18,0.21l0.01,0.01c1.65,1.65,2.58,3.68,2.75,6.01
	l0.02,0.39l0.01,0.36c0,3.65-1.43,6.63-4.21,8.74c-2.44,1.8-5.48,2.69-9.06,2.69c-3.54,0-6.55-0.92-9.03-2.75
	c-1.45-1.1-2.52-2.43-3.21-3.98c-0.7,1.57-1.79,2.92-3.26,4.04c-2.44,1.8-5.48,2.69-9.06,2.69c-3.54,0-6.55-0.92-9.03-2.75
	c-2.76-2.1-4.15-5.02-4.15-8.68c0-2.52,0.84-4.69,2.5-6.47l0.27-0.28l-0.19-0.21c-1.25-1.47-1.95-3.22-2.09-5.21l-0.02-0.4
	l-0.01-0.36c0-3.45,1.4-6.27,4.13-8.24c2.37-1.73,5.24-2.59,8.59-2.59c3.35,0,6.24,0.84,8.64,2.55c1.82,1.34,3.05,3.05,3.67,5.07
	c0.61-2.01,1.84-3.71,3.68-5.03C164.63,1.23,167.49,0.36,170.84,0.36z M158.58,14.21l-0.07,0.2c-0.31,0.88-0.76,1.71-1.33,2.45
	l-0.24,0.3l-0.18,0.21l0.01,0.01c0.74,0.74,1.36,1.59,1.83,2.53c0.41-0.82,0.93-1.58,1.56-2.25l0.27-0.28l-0.18-0.21
	C159.5,16.3,158.93,15.29,158.58,14.21L158.58,14.21z"/>
<path style="fill:#F8D001;" d="M15.66,4.38V7.6h3.45v0.92h-2.53v3.21h2.53v0.92h-4v3.21h7.9v0.79h-6.7v8.68h-1.47v3.35h1.47v4.68
	h3.76v-4.68h9.44c-0.07,0.82-0.27,1.19-0.65,1.19c-0.99,0-2.08-0.2-3.32-0.65l0.79,3.73c0.96,0.27,1.78,0.41,2.53,0.41
	c2.94,0,4.41-1.43,4.41-4.27v-0.41h1.23v-3.35h-1.23v-8.68H26.6v-0.79h7.49v-3.21h-4.14v-0.92h2.94V8.52h-2.94V7.6h3.59V4.38h-3.59
	V2.64h-3.76v1.74h-3.32V2.64h-3.76v1.74H15.66z M20.07,25.33v-1.2h2.94v1.2H20.07z M26.6,25.33v-1.2h2.94v1.2H26.6z M22.87,12.65
	v-0.92h3.32v0.92H22.87L22.87,12.65z M26.19,8.52h-3.32V7.6h3.32L26.19,8.52L26.19,8.52z M20.07,21.06v-1.2h2.94v1.2L20.07,21.06
	L20.07,21.06z M26.6,19.86h2.94v1.2H26.6V19.86z M4.17,3.05v22.82H14.6V3.05L4.17,3.05L4.17,3.05z M7.76,22.29v-2.94h3.21v2.94
	L7.76,22.29L7.76,22.29z M7.76,15.86v-2.94h3.21v2.94H7.76z M7.76,9.47V6.64h3.21v2.84L7.76,9.47L7.76,9.47z M6.05,26.66
	c-0.75,1.57-1.68,2.94-2.84,4.17l2.94,2.53c1.03-1.2,2.02-2.9,2.94-5.09L6.05,26.66z M12.85,26.56l-2.94,1.98
	c0.81,1.75,1.93,3.34,3.32,4.68l2.57-3.08C14.59,29.15,13.59,27.93,12.85,26.56L12.85,26.56z M38.77,5.31
	c-0.27,3.59-0.92,7.21-1.88,10.83l3.35,1.74c0.57-1.89,1.04-3.8,1.4-5.74h1.4v6.8c-1.77,0.71-3.56,1.38-5.37,1.98l1.61,3.89
	c1.27-0.49,2.52-1.01,3.76-1.57v10.25h3.73V21.47c1.18-0.63,2.33-1.3,3.45-2.02l-1.06-3.31c-0.75,0.41-1.54,0.79-2.39,1.2v-5.19
	h1.85c-0.21,0.31-0.44,0.61-0.65,0.92l2.94,2.8c1.06-1.43,2.02-3.14,2.87-5.19h1.16c-0.65,1.88-1.37,3.62-2.19,5.19
	c-1.2,2.19-2.53,4.17-3.97,5.88l2.91,2.8c1.78-2.02,3.38-4.51,4.79-7.52c0.92-2.06,1.69-4.18,2.29-6.35h1.2
	c-0.55,3.48-1.51,6.66-2.87,9.53c-1.85,3.55-4.17,6.63-6.97,9.16l2.94,3.18c3.01-2.9,5.44-6.22,7.25-9.98
	c1.61-3.55,2.74-7.52,3.42-11.89h0.55c-0.07,5.6-0.31,10.87-0.75,15.75c-0.21,1.43-0.41,2.32-0.65,2.6
	c-0.27,0.41-0.62,0.58-1.03,0.58c-1.2,0-2.7-0.2-4.51-0.65l0.38,4.13c1.57,0.27,2.97,0.41,4.14,0.41c1.16,0.01,2.31-0.32,3.28-0.96
	c0.89-0.68,1.44-1.64,1.68-2.8c0.82-5.12,1.26-12.78,1.33-22.96H55.18c0.31-1.06,0.58-2.15,0.79-3.31l-3.45-0.82
	c-0.55,2.19-1.2,4.17-1.95,5.91c-0.41,0.92-0.89,1.81-1.4,2.66v-2.7h-2.39V2.78h-3.73v5.74h-0.89c0.07-0.72,0.14-1.47,0.21-2.26
	L38.77,5.31L38.77,5.31z M87.15,7.73c1.88,1.32,3.84,2.52,5.88,3.59H81C83.13,10.26,85.18,9.06,87.15,7.73L87.15,7.73z M77.24,13.1
	v1.98h7.86v3.18H73.89v3.76H85.1v7.21H72.42v3.72h29.64v-3.72H89.1v-7.21h11.49v-3.76H89.1v-3.18h8.04v-1.74
	c1.09,0.48,2.19,0.92,3.32,1.33l2.29-3.86c-2.51-0.71-4.96-1.63-7.32-2.73C93.69,7.29,92,6.4,90.37,5.41
	c0.21-0.14,0.41-0.31,0.61-0.48l-3.08-2.56c-4.82,3.48-10.15,6.22-16.04,8.17l2.15,3.86C75.12,13.98,76.18,13.57,77.24,13.1z
	 M80.14,22.53l-3.59,1.74c0.92,1.42,1.68,2.95,2.26,4.54l3.76-1.61C81.89,25.5,81.1,23.96,80.14,22.53L80.14,22.53z M94.2,22.53
	c-0.55,1.43-1.3,2.84-2.29,4.27l3.76,2.02c0.89-1.33,1.68-2.97,2.39-4.95L94.2,22.53z M193.73,4.25v3.86h24.58V4.25L193.73,4.25
	L193.73,4.25z M191.61,13.2v3.86h7.69c-0.1,2.87-0.41,4.95-0.96,6.25c-0.62,1.44-1.58,2.71-2.8,3.69c-1.3,1.09-2.97,2.02-5.03,2.73
	l2.02,3.62c2.39-0.89,4.45-1.98,6.15-3.31c1.71-1.37,2.94-3.14,3.76-5.33c0.55-1.74,0.89-4.31,0.99-7.65h4.45v11.89
	c0,2.46,0.92,3.76,2.84,3.83c0.68,0.1,1.44,0.17,2.32,0.17c2.7,0,4.34-0.1,4.92-0.24c0.89-0.14,1.61-0.38,2.09-0.72
	c0.75-0.72,1.23-2.42,1.47-5.19l-4.03-2.26c-0.07,1.78-0.17,2.84-0.27,3.11c-0.14,0.55-0.38,0.96-0.75,1.23
	c-0.34,0.14-1.51,0.2-3.42,0.2c-0.27,0-0.44-0.03-0.58-0.1c-0.31-0.03-0.45-0.48-0.45-1.37V17.06h8.41V13.2H191.61z M130.44,23.44
	c0-2.1-0.84-3.78-2.46-5.04c-0.84-0.63-2.6-1.44-5.27-2.49V8.98c1.65,0.49,2.53,1.75,2.64,3.85h4.68c-0.04-2.31-0.67-4.2-1.93-5.64
	c-1.27-1.4-3.06-2.24-5.38-2.56V2.68h-3.41v1.96c-2.11,0.28-3.83,1.09-5.17,2.38c-1.41,1.4-2.11,3.12-2.11,5.15
	c0,2,0.74,3.61,2.29,4.83c1.05,0.88,2.71,1.72,4.99,2.49v7.39c-1.2-0.21-2.04-0.81-2.53-1.72c-0.39-0.7-0.6-1.75-0.63-3.15h-4.75
	c0.04,2.66,0.7,4.8,1.97,6.37c1.37,1.72,3.34,2.66,5.94,2.87v1.89h3.41v-2C127.84,30.52,130.44,27.96,130.44,23.44z M119.29,14.62
	c-1.69-0.63-2.53-1.54-2.53-2.73c0-1.33,0.84-2.28,2.53-2.84V14.62z M125.69,23.55c0,1.72-1.02,2.8-2.99,3.29v-6.23
	c0.95,0.35,1.65,0.67,2.07,0.94C125.38,22.04,125.69,22.71,125.69,23.55L125.69,23.55z M157.81,24.14c0-2.77-1.25-5.04-3.69-6.7
	c2.12-1.57,3.19-3.65,3.19-6.24c0-2.91-1.15-5.22-3.42-6.89c-2.08-1.48-4.62-2.22-7.62-2.22c-3.05,0-5.54,0.79-7.57,2.27
	c-2.31,1.66-3.42,3.98-3.42,6.84c0,2.59,1.06,4.67,3.23,6.24c-2.49,1.71-3.69,3.93-3.69,6.7c0,3.14,1.15,5.55,3.46,7.3
	c2.12,1.57,4.76,2.4,7.99,2.4s5.91-0.79,8.03-2.36C156.61,29.73,157.81,27.28,157.81,24.14L157.81,24.14z M151.39,11.19
	c0,2.45-1.71,3.65-5.12,3.65s-5.08-1.2-5.08-3.65c0-1.3,0.51-2.27,1.57-2.96c0.88-0.55,2.03-0.88,3.51-0.88
	c1.43,0,2.59,0.32,3.51,0.88C150.84,8.93,151.39,9.9,151.39,11.19z M151.85,24.14c0,1.48-0.6,2.64-1.71,3.37
	c-1.02,0.74-2.31,1.06-3.88,1.06c-1.57,0-2.86-0.32-3.88-1.06c-1.11-0.79-1.66-1.9-1.66-3.37c0-2.68,1.85-4.07,5.54-4.07
	C149.96,20.07,151.85,21.46,151.85,24.14L151.85,24.14z M182.39,24.14c0-2.77-1.25-5.04-3.69-6.7c2.12-1.57,3.19-3.65,3.19-6.24
	c0-2.91-1.15-5.22-3.42-6.89c-2.08-1.48-4.62-2.22-7.62-2.22c-3.05,0-5.54,0.79-7.57,2.27c-2.31,1.66-3.42,3.98-3.42,6.84
	c0,2.59,1.06,4.67,3.23,6.24c-2.49,1.71-3.69,3.93-3.69,6.7c0,3.14,1.15,5.55,3.46,7.3c2.12,1.57,4.76,2.4,7.99,2.4
	c3.23,0,5.91-0.79,8.04-2.36C181.19,29.73,182.39,27.28,182.39,24.14L182.39,24.14z M175.97,11.19c0,2.45-1.71,3.65-5.13,3.65
	c-3.42,0-5.08-1.2-5.08-3.65c0-1.3,0.51-2.27,1.57-2.96c0.88-0.55,2.03-0.88,3.51-0.88c1.43,0,2.59,0.32,3.51,0.88
	C175.42,8.93,175.97,9.9,175.97,11.19z M176.43,24.14c0,1.48-0.6,2.64-1.71,3.37c-1.02,0.74-2.31,1.06-3.88,1.06
	c-1.57,0-2.86-0.32-3.88-1.06c-1.11-0.79-1.66-1.9-1.66-3.37c0-2.68,1.85-4.07,5.54-4.07C174.54,20.07,176.43,21.46,176.43,24.14z"
	/>
</svg>
