<?xml version="1.0" encoding="utf-8"?>
<!-- Generator: Adobe Illustrator 27.1.1, SVG Export Plug-In . SVG Version: 6.00 Build 0)  -->
<svg version="1.1" id="圖層_1" xmlns="http://www.w3.org/2000/svg" xmlns:xlink="http://www.w3.org/1999/xlink" x="0px" y="0px"
	 viewBox="0 0 248 36" style="enable-background:new 0 0 248 36;" xml:space="preserve">
<path style="fill:#0F2034;" d="M88.27,0l5.94,4.93l-0.24,0.2l0.09,0.05l0.82,0.42L95.71,6l0.83,0.39c1.98,0.93,4.02,1.71,6.14,2.36
	l0.91,0.27l2.34,0.66l-4,6.71h0.86v7.49h-2.43l-0.22,0.61c-0.35,0.97-0.75,1.93-1.19,2.87l5.32,0v7.46H70.77v-7.46h5.63
	c-0.26-0.54-0.55-1.06-0.86-1.57l-0.32-0.5l-0.92-1.4h-2.06v-7.49h0.98l-3.03-5.41l0,0.18l-0.04,1.65l-0.04,1.6l-0.05,1.55L70,17.46
	l-0.02,0.37l-0.02,0.36l-0.07,1.42l-0.02,0.35l-0.02,0.34l-0.08,1.34l-0.09,1.29l-0.1,1.24l-0.05,0.6l-0.06,0.59l-0.12,1.14
	l-0.06,0.55l-0.06,0.54l-0.13,1.04l-0.04,0.25l-0.04,0.25l-0.15,0.96c-0.31,1.51-1.03,2.78-2.15,3.72l-0.23,0.18l-0.13,0.09
	c-1.29,0.83-2.79,1.26-4.32,1.26c-1.15,0-2.47-0.12-3.92-0.35l-0.55-0.09l-1.42-0.25l-0.2-2.22l-0.23,0.25L55.43,33l-0.29,0.29
	l-0.59,0.58l-1.39,1.34l-4.35-4.69l0,4.83H41.3v-9.28l-0.83,0.33l-2.1,0.79l-3.07-7.42l1.9-0.64l0.94-0.32l-2.12-1.1h-0.76v5.73
	h1.24v7.08l-1.36,0l-0.05,0.26c-0.57,2.64-2.51,4.21-5.5,4.4l-0.32,0.01l-0.31,0.01c-0.82,0-1.68-0.12-2.64-0.37l-0.42-0.11
	l-1.09-0.31l-0.82-3.89h-1.96v4.68h-7.54v-0.52l-1.06,1.27l-1.46-1.42c-0.9-0.87-1.7-1.83-2.39-2.87c-0.48,0.89-1.04,1.74-1.66,2.53
	L7.6,34.57L6.37,36L0.5,30.97l1.35-1.42c0.53-0.56,1.02-1.16,1.45-1.81l-1,0V1.18h14.23v1.33h0.76V0.77h14.65v1.74h3.6v6.95h-0.65
	v1.32h1.2l0,1.03c0.4-1.98,0.69-3.93,0.86-5.84l0.07-0.82l0.17-2.25l4.11,1.09v-3.1h7.51l0,5.74h0.67l0.2-0.55
	c0.29-0.8,0.56-1.64,0.81-2.54l0.19-0.68l0.18-0.69l0.45-1.8l7.01,1.66l-0.31,1.73l-0.13,0.69l-0.09,0.43h12.48l-0.02,2.78
	l-0.02,1.5l1.28-0.42c5.37-1.77,10.29-4.22,14.79-7.34l0.79-0.56L88.27,0L88.27,0z M91.28,23.88v0.91c0.19-0.3,0.36-0.6,0.53-0.9
	L91.28,23.88L91.28,23.88z M246.3,11.33v7.6h-8.44v8.29l0.39-0.01l0.51-0.01l0.61-0.03l0.05-0.16l0.05-0.65l0.06-0.93l0.04-0.95
	l0.12-3.06l7.8,4.34l-0.1,1.2c-0.27,3.07-0.8,5.06-1.89,6.22l-0.16,0.16l-0.21,0.17c-0.66,0.47-1.51,0.79-2.52,0.98l-0.32,0.06
	l-0.05,0.01c-0.1,0.02-0.22,0.04-0.35,0.06l-0.43,0.05l-0.5,0.04l-0.28,0.02l-0.6,0.03l-0.68,0.03l-0.74,0.02l-0.81,0.01l-0.85,0
	c-0.74,0-1.43-0.04-2.1-0.12l-0.41-0.06l-0.16-0.01c-2.69-0.21-4.19-2.12-4.37-5.06l-0.01-0.31l0-0.31l0-10.02h-0.77l0,0.06
	c-0.14,2.2-0.4,4.05-0.8,5.58l-0.11,0.41l-0.12,0.39c-0.95,2.52-2.39,4.56-4.38,6.15c-1.7,1.32-3.71,2.43-6.04,3.35l-0.64,0.24
	l-1.52,0.56l-3.89-6.96l2.1-0.73c1.83-0.64,3.32-1.45,4.48-2.42c0.99-0.78,1.77-1.8,2.26-2.96c0.28-0.66,0.5-1.68,0.64-3.05
	l0.04-0.38l0.02-0.23h-7.61v-7.6C213.62,11.33,246.3,11.33,246.3,11.33z M244.18,2.38v7.6h-28.43v-7.6H244.18z M124.23,0.81l0,2.3
	l0.13,0.03c1.67,0.45,3.08,1.2,4.23,2.27l0.28,0.27l0.27,0.29c1.48,1.68,2.27,3.84,2.38,6.39l0.01,0.45l0.03,1.9h-7.23l0.33,0.14
	l0.76,0.32l0.69,0.31c0.99,0.45,1.74,0.85,2.31,1.22l0.18,0.12l0.16,0.11c2.09,1.62,3.18,3.85,3.18,6.51c0,4.8-2.54,7.93-7.19,9.15
	l-0.35,0.09l-0.19,0.04l0,2.29h-7.17v-2.15l-0.29-0.06c-1.9-0.46-3.49-1.35-4.74-2.68l-0.26-0.29l-0.24-0.28
	c-1.46-1.83-2.25-4.19-2.36-7.01l-0.01-0.5l-0.03-1.89h6.4l-0.23-0.11c-0.68-0.32-1.32-0.7-1.94-1.13l-0.32-0.24l-0.26-0.2
	c-1.99-1.58-2.99-3.72-2.99-6.29c0-2.52,0.9-4.71,2.68-6.48c1.14-1.1,2.51-1.92,4.01-2.4l0.42-0.13l0.16-0.04v-2.3H124.23z
	 M145.91,0.36c3.35,0,6.24,0.84,8.64,2.55c2.72,1.99,4.13,4.83,4.13,8.28c0,2.16-0.63,4.07-1.85,5.66l-0.24,0.3l-0.18,0.21
	l0.01,0.01c0.95,0.94,1.69,2.08,2.17,3.33c-0.06-0.87-0.1-1.74-0.09-2.6c0-4.64,0.8-8.41,2.48-11.39c2.22-4.04,5.86-6.13,10.63-6.13
	c4.72,0,8.36,2.09,10.63,6.13c0.67,1.24,1.19,2.56,1.56,3.92c0.39-1.43,0.92-2.74,1.58-3.92c2.22-4.04,5.86-6.13,10.63-6.13
	c4.72,0,8.36,2.09,10.63,6.13c1.66,3.03,2.47,6.83,2.47,11.39c0,4.65-0.83,8.45-2.53,11.36c-2.22,3.94-5.86,5.98-10.58,5.98
	c-4.75,0-8.35-2.03-10.57-5.95c-0.69-1.18-1.24-2.5-1.64-3.97c-0.4,1.45-0.95,2.77-1.63,3.94c-2.22,3.94-5.86,5.98-10.58,5.98
	c-4.75,0-8.35-2.03-10.57-5.95c-0.82-1.41-1.44-3.02-1.86-4.83c-0.13,3.41-1.55,6.2-4.2,8.21c-2.44,1.8-5.48,2.69-9.06,2.69
	c-3.54,0-6.55-0.92-9.03-2.75c-2.76-2.1-4.15-5.02-4.15-8.68c0-2.52,0.84-4.69,2.5-6.47l0.27-0.28l-0.19-0.21
	c-1.25-1.47-1.95-3.22-2.09-5.21l-0.02-0.4l-0.01-0.36c0-3.45,1.4-6.27,4.13-8.24C139.69,1.23,142.56,0.36,145.91,0.36L145.91,0.36z
	"/>
<path style="fill:#F8D001;" d="M15.7,4.38V7.6h3.47v0.92h-2.54v3.21h2.54v0.92h-4.01v3.21h7.93v0.79h-6.72v8.68h-1.48v3.35h1.48
	v4.68h3.77v-4.68h9.47c-0.07,0.82-0.27,1.19-0.65,1.19c-1,0-2.09-0.2-3.33-0.65l0.79,3.73c0.96,0.27,1.78,0.41,2.54,0.41
	c2.95,0,4.43-1.43,4.43-4.27v-0.41h1.24v-3.35h-1.24v-8.68h-6.69v-0.79h7.51v-3.21h-4.15v-0.92H33V8.52h-2.95V7.6h3.6V4.38h-3.6
	V2.64h-3.77v1.74h-3.33V2.64h-3.77v1.74H15.7z M20.13,25.33v-1.2h2.95v1.2H20.13z M26.68,25.33v-1.2h2.95v1.2H26.68z M22.94,12.65
	v-0.92h3.33v0.92H22.94z M26.27,8.52h-3.33V7.6h3.33V8.52z M20.13,21.06v-1.2h2.95v1.2L20.13,21.06L20.13,21.06z M26.68,19.86h2.95
	v1.2h-2.95V19.86z M4.18,3.05v22.82h10.46V3.05L4.18,3.05L4.18,3.05z M7.78,22.29v-2.94h3.23v2.94L7.78,22.29L7.78,22.29z
	 M7.78,15.86v-2.94h3.23v2.94H7.78L7.78,15.86z M7.78,9.47V6.64h3.23v2.84L7.78,9.47L7.78,9.47z M6.07,26.66
	c-0.76,1.57-1.68,2.94-2.85,4.17l2.95,2.53c1.03-1.2,2.02-2.9,2.95-5.09L6.07,26.66z M12.89,26.56l-2.95,1.98
	c0.81,1.75,1.94,3.34,3.33,4.68l2.57-3.08C14.63,29.15,13.63,27.93,12.89,26.56z M38.9,5.31c-0.28,3.59-0.93,7.21-1.89,10.83
	l3.36,1.74c0.57-1.89,1.04-3.8,1.41-5.74h1.41v6.8c-1.78,0.71-3.57,1.38-5.39,1.98l1.61,3.89c1.27-0.49,2.53-1.01,3.77-1.57v10.25
	h3.74V21.47c1.18-0.63,2.34-1.3,3.47-2.02l-1.06-3.31c-0.75,0.41-1.54,0.79-2.4,1.2v-5.19h1.85c-0.21,0.31-0.45,0.61-0.65,0.92
	l2.95,2.8c1.06-1.43,2.02-3.14,2.88-5.19h1.17c-0.65,1.88-1.37,3.62-2.2,5.19c-1.2,2.19-2.54,4.17-3.98,5.88l2.92,2.8
	c1.78-2.02,3.4-4.51,4.8-7.52c0.92-2.06,1.69-4.18,2.3-6.35h1.2c-0.55,3.48-1.51,6.66-2.88,9.53c-1.85,3.55-4.19,6.63-7,9.16
	l2.95,3.18c3.02-2.9,5.45-6.22,7.27-9.98c1.61-3.55,2.74-7.52,3.43-11.89h0.55c-0.07,5.6-0.31,10.87-0.76,15.75
	c-0.21,1.43-0.41,2.32-0.65,2.6c-0.27,0.41-0.62,0.58-1.03,0.58c-1.2,0-2.71-0.2-4.53-0.65l0.38,4.13c1.58,0.27,2.99,0.41,4.15,0.41
	c1.17,0.01,2.31-0.32,3.29-0.96c0.89-0.68,1.44-1.64,1.68-2.8c0.82-5.12,1.27-12.78,1.34-22.96h-13c0.32-1.09,0.59-2.2,0.79-3.31
	l-3.47-0.82c-0.55,2.19-1.2,4.17-1.96,5.91c-0.41,0.92-0.89,1.81-1.41,2.66v-2.7h-2.4V2.78h-3.74v5.74h-0.89
	c0.07-0.72,0.14-1.47,0.21-2.26L38.9,5.31L38.9,5.31z M87.43,7.73c1.89,1.32,3.86,2.52,5.9,3.59H81.26
	C83.4,10.26,85.46,9.06,87.43,7.73z M77.49,13.1v1.98h7.89v3.18H74.12v3.76h11.25v7.21H72.65v3.72h29.74v-3.72h-13v-7.21h11.53
	v-3.76H89.39v-3.18h8.06v-1.74c1.1,0.48,2.19,0.92,3.33,1.33l2.3-3.86c-2.52-0.71-4.97-1.63-7.34-2.73
	c-1.74-0.79-3.44-1.68-5.08-2.66c0.21-0.15,0.42-0.31,0.62-0.48l-3.09-2.56C83.35,5.85,78,8.59,72.1,10.53l2.16,3.86
	C75.36,13.98,76.42,13.57,77.49,13.1L77.49,13.1z M80.4,22.53l-3.6,1.74c0.92,1.42,1.68,2.95,2.26,4.54l3.77-1.61
	C82.15,25.5,81.36,23.96,80.4,22.53L80.4,22.53z M94.5,22.53c-0.55,1.43-1.3,2.84-2.3,4.27l3.77,2.02c0.89-1.33,1.68-2.97,2.4-4.95
	L94.5,22.53z M217.63,4.25v3.86h24.66V4.25L217.63,4.25L217.63,4.25z M215.5,13.2v3.86h7.72c-0.1,2.87-0.41,4.95-0.96,6.25
	c-0.62,1.44-1.58,2.71-2.81,3.69c-1.3,1.09-2.99,2.02-5.04,2.73l2.02,3.62c2.4-0.89,4.46-1.98,6.18-3.31
	c1.71-1.37,2.95-3.14,3.77-5.33c0.55-1.74,0.89-4.31,0.99-7.65h4.46v11.89c0,2.46,0.93,3.76,2.85,3.83c0.69,0.1,1.44,0.17,2.33,0.17
	c2.71,0,4.36-0.1,4.94-0.24c0.89-0.14,1.61-0.38,2.09-0.72c0.76-0.72,1.24-2.42,1.48-5.19l-4.05-2.26
	c-0.07,1.78-0.17,2.84-0.27,3.11c-0.14,0.55-0.38,0.96-0.76,1.23c-0.34,0.14-1.51,0.2-3.43,0.2c-0.27,0-0.45-0.03-0.58-0.1
	c-0.31-0.03-0.45-0.48-0.45-1.37V17.06h8.44V13.2H215.5L215.5,13.2z M130.09,23.44c0-2.1-0.84-3.78-2.46-5.04
	c-0.84-0.63-2.6-1.44-5.27-2.49V8.98c1.65,0.49,2.53,1.75,2.64,3.85h4.68c-0.04-2.31-0.67-4.2-1.93-5.64
	c-1.26-1.4-3.06-2.24-5.38-2.56V2.68h-3.41v1.96c-2.11,0.28-3.83,1.09-5.17,2.38c-1.41,1.4-2.11,3.12-2.11,5.15
	c0,2,0.74,3.61,2.29,4.83c1.06,0.88,2.71,1.72,4.99,2.49v7.39c-1.19-0.21-2.04-0.81-2.53-1.72c-0.39-0.7-0.6-1.75-0.63-3.15h-4.75
	c0.04,2.66,0.7,4.8,1.97,6.37c1.37,1.72,3.34,2.66,5.94,2.87v1.89h3.41v-2C127.48,30.52,130.09,27.96,130.09,23.44z M118.94,14.62
	c-1.69-0.63-2.53-1.54-2.53-2.73c0-1.33,0.84-2.28,2.53-2.84V14.62z M125.34,23.55c0,1.72-1.02,2.8-2.99,3.29v-6.23
	c0.95,0.35,1.65,0.67,2.07,0.94C125.02,22.04,125.34,22.71,125.34,23.55L125.34,23.55z M157.45,24.14c0-2.77-1.25-5.04-3.69-6.7
	c2.12-1.57,3.18-3.65,3.18-6.24c0-2.91-1.15-5.22-3.42-6.89c-2.08-1.48-4.62-2.22-7.62-2.22c-3.05,0-5.54,0.79-7.57,2.27
	c-2.31,1.66-3.42,3.98-3.42,6.84c0,2.59,1.06,4.67,3.23,6.24c-2.49,1.71-3.69,3.93-3.69,6.7c0,3.14,1.15,5.55,3.46,7.3
	c2.12,1.57,4.76,2.4,7.99,2.4c3.23,0,5.91-0.79,8.03-2.36C156.25,29.73,157.45,27.28,157.45,24.14L157.45,24.14z M151.03,11.19
	c0,2.45-1.71,3.65-5.12,3.65s-5.08-1.2-5.08-3.65c0-1.3,0.51-2.27,1.57-2.96c0.88-0.55,2.03-0.88,3.51-0.88
	c1.43,0,2.59,0.32,3.51,0.88C150.48,8.93,151.03,9.9,151.03,11.19L151.03,11.19z M151.49,24.14c0,1.48-0.6,2.64-1.71,3.37
	c-1.02,0.74-2.31,1.06-3.88,1.06s-2.86-0.32-3.88-1.06c-1.11-0.79-1.66-1.9-1.66-3.37c0-2.68,1.85-4.07,5.54-4.07
	C149.6,20.07,151.49,21.46,151.49,24.14z M182.83,18.1c0-4.3-0.76-7.78-2.25-10.5c-1.93-3.44-4.94-5.16-8.98-5.16
	c-4.09,0-7.1,1.72-8.98,5.16c-1.53,2.72-2.25,6.2-2.25,10.5c0,4.34,0.76,7.83,2.29,10.45c1.89,3.35,4.85,5.02,8.94,5.02
	c4.04,0,7.05-1.67,8.94-5.02C182.06,25.93,182.83,22.45,182.83,18.1L182.83,18.1z M176.97,17.64c0,6.74-1.83,10.1-5.39,10.1
	s-5.35-3.37-5.35-10.1c0-6.87,1.78-10.32,5.35-10.32C175.14,7.31,176.97,10.77,176.97,17.64L176.97,17.64z M207.24,18.1
	c0-4.3-0.76-7.78-2.25-10.5c-1.93-3.44-4.94-5.16-8.98-5.16c-4.09,0-7.1,1.72-8.98,5.16c-1.53,2.72-2.25,6.2-2.25,10.5
	c0,4.34,0.76,7.83,2.29,10.45c1.89,3.35,4.85,5.02,8.94,5.02c4.04,0,7.05-1.67,8.94-5.02C206.48,25.93,207.24,22.45,207.24,18.1
	L207.24,18.1z M201.38,17.64c0,6.74-1.83,10.1-5.39,10.1c-3.57,0-5.35-3.37-5.35-10.1c0-6.87,1.78-10.32,5.35-10.32
	C199.55,7.31,201.38,10.77,201.38,17.64z"/>
</svg>
