<?xml version="1.0" encoding="utf-8"?>
<!-- Generator: Adobe Illustrator 27.0.1, SVG Export Plug-In . SVG Version: 6.00 Build 0)  -->
<svg version="1.1" id="圖層_1" xmlns="http://www.w3.org/2000/svg" xmlns:xlink="http://www.w3.org/1999/xlink" x="0px" y="0px"
	 viewBox="0 0 248 36" style="enable-background:new 0 0 248 36;" xml:space="preserve">
<path style="fill:#0F2034;" d="M88.27,0l5.94,4.93l-0.24,0.2l0.09,0.05l0.82,0.42L95.71,6l0.83,0.39c1.98,0.93,4.02,1.71,6.14,2.36
	l0.91,0.27l2.34,0.66l-4,6.71h0.86v7.49h-2.43l-0.22,0.61c-0.35,0.97-0.75,1.93-1.19,2.87l5.32,0v7.46H70.77v-7.46h5.63
	c-0.26-0.54-0.55-1.06-0.86-1.57l-0.32-0.5l-0.92-1.4h-2.06v-7.49h0.98l-3.03-5.41l0,0.18l-0.04,1.65l-0.04,1.6l-0.05,1.55L70,17.46
	l-0.02,0.37l-0.02,0.36l-0.07,1.42l-0.02,0.35l-0.02,0.34l-0.08,1.34l-0.09,1.29l-0.1,1.24l-0.05,0.6l-0.06,0.59l-0.12,1.14
	l-0.06,0.55l-0.06,0.54l-0.13,1.04l-0.04,0.25l-0.04,0.25l-0.15,0.96c-0.31,1.51-1.03,2.78-2.15,3.72l-0.23,0.18l-0.13,0.09
	c-1.29,0.83-2.79,1.26-4.32,1.26c-1.15,0-2.47-0.12-3.92-0.35l-0.55-0.09l-1.42-0.25l-0.2-2.22l-0.23,0.25L55.43,33l-0.29,0.29
	l-0.59,0.58l-1.39,1.34l-4.35-4.69l0,4.83H41.3v-9.28l-0.83,0.33l-2.1,0.79l-3.07-7.42l1.9-0.64l0.94-0.32l-2.12-1.1h-0.76v5.73
	h1.24v7.08l-1.36,0l-0.05,0.26c-0.57,2.64-2.51,4.21-5.5,4.4l-0.32,0.01l-0.31,0.01c-0.82,0-1.68-0.12-2.64-0.37l-0.42-0.11
	l-1.09-0.31l-0.82-3.89h-1.96v4.68h-7.54v-0.52l-1.06,1.27l-1.46-1.42c-0.9-0.87-1.7-1.83-2.39-2.87c-0.48,0.89-1.04,1.74-1.66,2.53
	L7.6,34.57L6.37,36L0.5,30.97l1.35-1.42c0.53-0.56,1.02-1.16,1.45-1.81l-1,0V1.18h14.23v1.33h0.76V0.77h14.65v1.74h3.6v6.95h-0.65
	v1.32h1.2l0,1.03c0.4-1.98,0.69-3.93,0.86-5.84l0.07-0.82l0.17-2.25l4.11,1.09v-3.1h7.51l0,5.74h0.67l0.2-0.55
	c0.29-0.8,0.56-1.64,0.81-2.54l0.19-0.68l0.18-0.69l0.45-1.8l7.01,1.66l-0.31,1.73l-0.13,0.69l-0.09,0.43h12.48l-0.02,2.78
	l-0.02,1.5l1.28-0.42c5.37-1.77,10.29-4.22,14.79-7.34l0.79-0.56L88.27,0L88.27,0z M91.28,23.88v0.91c0.19-0.3,0.36-0.6,0.53-0.9
	L91.28,23.88L91.28,23.88z M246.3,11.33v7.6h-8.44v8.29l0.39-0.01l0.51-0.01l0.61-0.03l0.05-0.16l0.05-0.65l0.06-0.93l0.04-0.95
	l0.12-3.06l7.8,4.34l-0.1,1.2c-0.27,3.07-0.8,5.06-1.89,6.22l-0.16,0.16l-0.21,0.17c-0.66,0.47-1.51,0.79-2.52,0.98l-0.32,0.06
	l-0.05,0.01c-0.1,0.02-0.22,0.04-0.35,0.06l-0.43,0.05l-0.5,0.04l-0.28,0.02l-0.6,0.03l-0.68,0.03l-0.74,0.02l-0.81,0.01l-0.85,0
	c-0.74,0-1.43-0.04-2.1-0.12l-0.41-0.06l-0.16-0.01c-2.69-0.21-4.19-2.12-4.37-5.06l-0.01-0.31l0-0.31l0-10.02h-0.77l0,0.06
	c-0.14,2.2-0.4,4.05-0.8,5.58l-0.11,0.41l-0.12,0.39c-0.95,2.52-2.39,4.56-4.38,6.15c-1.7,1.32-3.71,2.43-6.04,3.35l-0.64,0.24
	l-1.52,0.56l-3.89-6.96l2.1-0.73c1.83-0.64,3.32-1.45,4.48-2.42c0.99-0.78,1.77-1.8,2.26-2.96c0.28-0.66,0.5-1.68,0.64-3.05
	l0.04-0.38l0.02-0.23h-7.61v-7.6C213.62,11.33,246.3,11.33,246.3,11.33z M244.18,2.38v7.6h-28.43v-7.6H244.18z M124.43,0.59l0,2.32
	l0.13,0.03c1.69,0.45,3.12,1.21,4.29,2.29l0.29,0.28l0.27,0.29c1.5,1.7,2.3,3.87,2.42,6.45l0.01,0.46l0.03,1.91h-7.32l0.33,0.14
	l0.77,0.33l0.7,0.31c1,0.45,1.76,0.85,2.34,1.24l0.19,0.13l0.16,0.12c2.11,1.64,3.22,3.89,3.22,6.58c0,4.84-2.57,8.01-7.29,9.24
	l-0.36,0.09l-0.19,0.04l0,2.31h-7.26v-2.17l-0.29-0.06c-1.93-0.46-3.54-1.36-4.81-2.7l-0.27-0.29l-0.24-0.29
	c-1.49-1.84-2.28-4.23-2.4-7.08l-0.01-0.51l-0.03-1.91h6.49L115.38,20c-0.68-0.33-1.34-0.71-1.96-1.14l-0.32-0.24l-0.26-0.21
	c-2.01-1.59-3.03-3.75-3.03-6.35c0-2.55,0.91-4.76,2.71-6.55c1.15-1.11,2.54-1.94,4.07-2.42L117,2.96l0.16-0.04V0.59H124.43
	L124.43,0.59z M195.84,0.36c4.79,0,8.47,2.11,10.77,6.19c1.68,3.06,2.51,6.9,2.51,11.5c0,4.69-0.84,8.53-2.56,11.47
	c-2.25,3.98-5.93,6.03-10.72,6.03c-4.81,0-8.46-2.04-10.7-6.01c-0.7-1.19-1.25-2.53-1.66-4c-0.41,1.47-0.96,2.8-1.65,3.98
	c-2.25,3.98-5.93,6.03-10.72,6.03c-4.81,0-8.46-2.04-10.7-6.01c-0.56-0.96-1.01-1.98-1.36-3.03c-0.51,1.93-1.5,3.71-2.87,5.16
	c-2.35,2.49-5.48,3.75-9.21,3.75c-7.84,0-12.3-4-12.74-11.46l-0.02-0.35l-0.08-1.96h0.67l0.97-20.83h22.36v8.89h-13.32l-0.02,0.72
	l0.29-0.06c0.46-0.09,0.93-0.15,1.4-0.19l0.48-0.03l0.48-0.01c3.54,0,6.53,1.2,8.82,3.59c0.63,0.69,1.18,1.45,1.65,2.26
	c0.21-3.76,1.01-6.89,2.45-9.44c2.25-4.08,5.94-6.19,10.77-6.19c4.79,0,8.47,2.11,10.77,6.19c0.68,1.25,1.21,2.58,1.58,3.95
	c0.4-1.45,0.93-2.77,1.6-3.96C187.31,2.47,191.01,0.36,195.84,0.36z"/>
<path style="fill:#F8D001;" d="M15.7,4.38V7.6h3.47v0.92h-2.54v3.21h2.54v0.92h-4.01v3.21h7.93v0.79h-6.72v8.68h-1.48v3.35h1.48
	v4.68h3.77v-4.68h9.47c-0.07,0.82-0.27,1.19-0.65,1.19c-1,0-2.09-0.2-3.33-0.65l0.79,3.73c0.96,0.27,1.78,0.41,2.54,0.41
	c2.95,0,4.43-1.43,4.43-4.27v-0.41h1.24v-3.35h-1.24v-8.68h-6.69v-0.79h7.51v-3.21h-4.15v-0.92H33V8.52h-2.95V7.6h3.6V4.38h-3.6
	V2.64h-3.77v1.74h-3.33V2.64h-3.77v1.74H15.7z M20.13,25.33v-1.2h2.95v1.2H20.13z M26.68,25.33v-1.2h2.95v1.2H26.68z M22.94,12.65
	v-0.92h3.33v0.92H22.94z M26.27,8.52h-3.33V7.6h3.33V8.52z M20.13,21.06v-1.2h2.95v1.2L20.13,21.06L20.13,21.06z M26.68,19.86h2.95
	v1.2h-2.95V19.86z M4.18,3.05v22.82h10.46V3.05L4.18,3.05L4.18,3.05z M7.78,22.29v-2.94h3.23v2.94L7.78,22.29L7.78,22.29z
	 M7.78,15.86v-2.94h3.23v2.94H7.78L7.78,15.86z M7.78,9.47V6.64h3.23v2.84L7.78,9.47L7.78,9.47z M6.07,26.66
	c-0.76,1.57-1.68,2.94-2.85,4.17l2.95,2.53c1.03-1.2,2.02-2.9,2.95-5.09L6.07,26.66z M12.89,26.56l-2.95,1.98
	c0.81,1.75,1.94,3.34,3.33,4.68l2.57-3.08C14.63,29.15,13.63,27.93,12.89,26.56z M38.9,5.31c-0.28,3.59-0.93,7.21-1.89,10.83
	l3.36,1.74c0.57-1.89,1.04-3.8,1.41-5.74h1.41v6.8c-1.78,0.71-3.57,1.38-5.39,1.98l1.61,3.89c1.27-0.49,2.53-1.01,3.77-1.57v10.25
	h3.74V21.47c1.18-0.63,2.34-1.3,3.47-2.02l-1.06-3.31c-0.75,0.41-1.54,0.79-2.4,1.2v-5.19h1.85c-0.21,0.31-0.45,0.61-0.65,0.92
	l2.95,2.8c1.06-1.43,2.02-3.14,2.88-5.19h1.17c-0.65,1.88-1.37,3.62-2.2,5.19c-1.2,2.19-2.54,4.17-3.98,5.88l2.92,2.8
	c1.78-2.02,3.4-4.51,4.8-7.52c0.92-2.06,1.69-4.18,2.3-6.35h1.2c-0.55,3.48-1.51,6.66-2.88,9.53c-1.85,3.55-4.19,6.63-7,9.16
	l2.95,3.18c3.02-2.9,5.45-6.22,7.27-9.98c1.61-3.55,2.74-7.52,3.43-11.89h0.55c-0.07,5.6-0.31,10.87-0.76,15.75
	c-0.21,1.43-0.41,2.32-0.65,2.6c-0.27,0.41-0.62,0.58-1.03,0.58c-1.2,0-2.71-0.2-4.53-0.65l0.38,4.13c1.58,0.27,2.99,0.41,4.15,0.41
	c1.17,0.01,2.31-0.32,3.29-0.96c0.89-0.68,1.44-1.64,1.68-2.8c0.82-5.12,1.27-12.78,1.34-22.96h-13c0.32-1.09,0.59-2.2,0.79-3.31
	l-3.47-0.82c-0.55,2.19-1.2,4.17-1.96,5.91c-0.41,0.92-0.89,1.81-1.41,2.66v-2.7h-2.4V2.78h-3.74v5.74h-0.89
	c0.07-0.72,0.14-1.47,0.21-2.26L38.9,5.31L38.9,5.31z M87.43,7.73c1.89,1.32,3.86,2.52,5.9,3.59H81.26
	C83.4,10.26,85.46,9.06,87.43,7.73z M77.49,13.1v1.98h7.89v3.18H74.12v3.76h11.25v7.21H72.65v3.72h29.74v-3.72h-13v-7.21h11.53
	v-3.76H89.39v-3.18h8.06v-1.74c1.1,0.48,2.19,0.92,3.33,1.33l2.3-3.86c-2.52-0.71-4.97-1.63-7.34-2.73
	c-1.74-0.79-3.44-1.68-5.08-2.66c0.21-0.15,0.42-0.31,0.62-0.48l-3.09-2.56C83.35,5.85,78,8.59,72.1,10.53l2.16,3.86
	C75.36,13.98,76.42,13.57,77.49,13.1L77.49,13.1z M80.4,22.53l-3.6,1.74c0.92,1.42,1.68,2.95,2.26,4.54l3.77-1.61
	C82.15,25.5,81.36,23.96,80.4,22.53L80.4,22.53z M94.5,22.53c-0.55,1.43-1.3,2.84-2.3,4.27l3.77,2.02c0.89-1.33,1.68-2.97,2.4-4.95
	L94.5,22.53z M217.63,4.25v3.86h24.66V4.25L217.63,4.25L217.63,4.25z M215.5,13.2v3.86h7.72c-0.1,2.87-0.41,4.95-0.96,6.25
	c-0.62,1.44-1.58,2.71-2.81,3.69c-1.3,1.09-2.99,2.02-5.04,2.73l2.02,3.62c2.4-0.89,4.46-1.98,6.18-3.31
	c1.71-1.37,2.95-3.14,3.77-5.33c0.55-1.74,0.89-4.31,0.99-7.65h4.46v11.89c0,2.46,0.93,3.76,2.85,3.83c0.69,0.1,1.44,0.17,2.33,0.17
	c2.71,0,4.36-0.1,4.94-0.24c0.89-0.14,1.61-0.38,2.09-0.72c0.76-0.72,1.24-2.42,1.48-5.19l-4.05-2.26
	c-0.07,1.78-0.17,2.84-0.27,3.11c-0.14,0.55-0.38,0.96-0.76,1.23c-0.34,0.14-1.51,0.2-3.43,0.2c-0.27,0-0.45-0.03-0.58-0.1
	c-0.31-0.03-0.45-0.48-0.45-1.37V17.06h8.44V13.2H215.5L215.5,13.2z M130.36,23.44c0-2.12-0.85-3.82-2.49-5.09
	c-0.86-0.64-2.64-1.45-5.34-2.51v-7c1.67,0.49,2.56,1.77,2.67,3.89h4.74c-0.04-2.34-0.68-4.24-1.96-5.69
	c-1.28-1.41-3.1-2.26-5.45-2.58V2.48h-3.46v1.98c-2.14,0.28-3.88,1.1-5.24,2.4c-1.42,1.41-2.14,3.15-2.14,5.2
	c0,2.02,0.75,3.64,2.32,4.88c1.07,0.88,2.74,1.73,5.06,2.51v7.46c-1.21-0.21-2.07-0.81-2.56-1.73c-0.39-0.71-0.61-1.77-0.64-3.18
	h-4.81c0.04,2.69,0.71,4.84,2,6.43c1.39,1.73,3.38,2.69,6.02,2.9v1.91h3.46v-2.02C127.73,30.59,130.36,28,130.36,23.44L130.36,23.44
	z M119.07,14.53c-1.71-0.64-2.56-1.56-2.56-2.76c0-1.34,0.85-2.3,2.56-2.86V14.53z M125.55,23.55c0,1.73-1.03,2.83-3.03,3.32v-6.29
	c0.96,0.35,1.67,0.67,2.1,0.95C125.23,22.03,125.55,22.7,125.55,23.55z M157.64,22.58c0-3.01-0.97-5.57-2.81-7.58
	c-1.89-1.97-4.37-2.97-7.41-2.97c-1.66,0-3.18,0.37-4.65,1.1l0.18-5.3h13.25V2.71h-18.64l-0.88,18.77h5.34
	c0.74-2.69,2.3-4.07,4.79-4.07c1.56,0,2.76,0.5,3.63,1.42c0.83,0.91,1.29,2.19,1.29,3.75c0,1.64-0.46,2.97-1.29,3.97
	c-0.97,1.19-2.21,1.74-3.77,1.74c-1.61,0-2.76-0.37-3.45-1.14c-0.69-0.73-1.15-1.92-1.33-3.61h-5.8c0.28,6.67,3.91,10,10.86,10
	c3.22,0,5.84-1.05,7.82-3.15C156.67,28.38,157.64,25.78,157.64,22.58L157.64,22.58z M182.48,18.05c0-4.34-0.77-7.86-2.28-10.6
	c-1.96-3.47-5.01-5.21-9.1-5.21c-4.14,0-7.19,1.74-9.1,5.21c-1.55,2.74-2.28,6.26-2.28,10.6c0,4.39,0.77,7.9,2.32,10.55
	c1.91,3.38,4.91,5.07,9.06,5.07c4.1,0,7.15-1.69,9.06-5.07C181.71,25.95,182.48,22.44,182.48,18.05L182.48,18.05z M176.55,17.58
	c0,6.8-1.85,10.2-5.46,10.2c-3.61,0-5.42-3.4-5.42-10.2c0-6.93,1.81-10.43,5.42-10.43C174.7,7.16,176.55,10.65,176.55,17.58
	L176.55,17.58z M207.22,18.05c0-4.34-0.77-7.86-2.28-10.6c-1.96-3.47-5.01-5.21-9.1-5.21c-4.14,0-7.19,1.74-9.1,5.21
	c-1.55,2.74-2.28,6.26-2.28,10.6c0,4.39,0.77,7.9,2.32,10.55c1.91,3.38,4.91,5.07,9.06,5.07c4.1,0,7.15-1.69,9.06-5.07
	C206.44,25.95,207.22,22.44,207.22,18.05L207.22,18.05z M201.28,17.58c0,6.8-1.85,10.2-5.46,10.2s-5.42-3.4-5.42-10.2
	c0-6.93,1.81-10.43,5.42-10.43C199.43,7.16,201.28,10.65,201.28,17.58z"/>
</svg>
