<svg xmlns="http://www.w3.org/2000/svg" viewBox="0 0 88 59" xml:space="preserve"><path d="M77.6 57.1H10.4a8.5 8.5 0 0 1-8.5-8.6V10.4c0-4.7 3.8-8.6 8.5-8.6h67.2a8.6 8.6 0 0 1 8.5 8.6v38.1c0 4.8-3.8 8.6-8.5 8.6" fill-rule="evenodd" clip-rule="evenodd" fill="#ffe9dc"/><path d="M82.7 55.4c.6-1.2 1-2.6 1-4V13.3c0-4.7-3.8-8.6-8.5-8.6H8c-1.8 0-3.6.6-5.1 1.7a8.6 8.6 0 0 1 7.5-4.6h67.2c4.7 0 8.5 3.8 8.5 8.6v38.1c0 2.7-1.3 5.3-3.4 6.9" fill-rule="evenodd" clip-rule="evenodd" fill="#fff"/><path d="M77.6 57.1H10.4a8.5 8.5 0 0 1-8.5-8.6V10.4c0-3.2 1.8-6.1 4.6-7.6a8.8 8.8 0 0 0-1.2 4.4v38.1c0 4.7 3.8 8.6 8.5 8.6H81c1.4 0 2.7-.3 3.9-1a8.4 8.4 0 0 1-7.3 4.2" opacity=".1" fill-rule="evenodd" clip-rule="evenodd" fill="#390075"/><path d="M10.8 11.5c0-.4.3-.7.7-.7h65.1c.4 0 .7.3.7.7v36c0 .4-.3.7-.7.7H11.5a.7.7 0 0 1-.7-.7v-36z" fill-rule="evenodd" clip-rule="evenodd" fill="#dc5f44"/><path d="m38.1 30.8-1.2 1.8-6.8-.3.7-1 7.3-.5zm4.6-6.3.6 2.3-9.5-.6.7-1.1 8.2-.6zm-5.8-2.8h5.5l.4 1.4-6.6-.4.7-1zM36.2 34l-1 1.8h-7.1l.7-1.3 7.4-.5zm12.2-4.1-1.7 2.7h1.6c.8 0 2.1-.3 2.5-1.3.4-.9-.3-1.4-.8-1.4h-1.6zm1.6-2.7h1.4c.9 0 1.9-.4 2.3-1.3.3-.8-.1-1.4-.7-1.4h-1.4L50 27.2zm-6.5-.5 1.4-2.4 4.8-.3.2-.3-4.4-.3 1-1.7h8.2c2.5 0 4.4.9 3.7 3.4-.2.8-1.2 2.7-4.2 3.5.6.1 2.2.8 2 2.5-.5 3.1-4.7 4.6-7 4.6h-9.7l-.6-1.7 5.1-.3.2-.3-5.6-.4-.6-2.1 7.8-.4.2-.3-14-.9.7-1.1 15.1-.9.2-.3-4.5-.3z" fill-rule="evenodd" clip-rule="evenodd" fill="#fff"/><path d="m84.6 50.1.2-1.6V10.4c0-1.9-.7-3.7-2.1-5.1a7 7 0 0 0-5.1-2.1H10.4c-1.9.1-3.7.8-5 2.2a7 7 0 0 0-2.1 5.1v38.1c0 4 3.2 7.2 7.1 7.2h67.2c1.9 0 3.7-.8 5.1-2.1.9-1 1.6-2.2 1.9-3.6zM.8 8.2a9.3 9.3 0 0 1 2.7-4.8 9.7 9.7 0 0 1 7-2.9h67.2a9.8 9.8 0 0 1 9.9 9.9v38.1c0 2.6-1 5.2-2.9 7a9.7 9.7 0 0 1-7 2.9H10.5a10 10 0 0 1-9.9-10V10.3C.5 9.7.6 9 .8 8.2z" fill-rule="evenodd" clip-rule="evenodd" fill="#0f2034"/><path fill-rule="evenodd" clip-rule="evenodd" fill="#fff" fill-opacity=".1" d="M20.3 48.2H31l33.8-37.4H54.1zM77.2 23.3V11.5c0-.4-.3-.7-.7-.7h-2.8L39.8 48.2h14.8l22.6-24.9zM10.8 20.5v16.3l23.6-26H19.5z"/><path d="M76.9 11.1H11.1v36.7h65.8V11.1zM8.4 10c.1-.4.3-.7.6-1a2 2 0 0 1 1.5-.6h67.2a2 2 0 0 1 2.1 2.1v38.1a2 2 0 0 1-2.1 2.1H10.5a2 2 0 0 1-2.1-2.1V10z" fill-rule="evenodd" clip-rule="evenodd" fill="#0f2034"/></svg>