<svg xmlns="http://www.w3.org/2000/svg" viewBox="0 0 88 59" xml:space="preserve"><path d="M2.9 48.2 2.8 11c0-4.6 3.7-8.4 8.3-8.4l65.6-.1c4.6 0 8.3 3.7 8.3 8.3l.2 37.2c0 4.6-3.7 8.4-8.3 8.4l-65.6.1a8.4 8.4 0 0 1-8.4-8.3" fill-rule="evenodd" clip-rule="evenodd" fill="#fff"/><path d="M83.4 17.3v-4.1c0-3.2-1.8-6-4.4-7.5L35.4 54h14.8l33.2-36.7z" opacity=".3" fill="#ffeeea"/><path d="m82.5 53.7-1.8.2-30.5.1H13.6a8.5 8.5 0 0 1-8.5-8.5L5 7.5l.2-1.9c.2-1-1.9 1.6-1.9 4.7l.1 38c0 4.7 2.5 7.4 7.2 7.4l23.3-.1h14.8l29-.1v1.1c2.8.1 5.6-3 4.8-2.9z" opacity=".1" fill="#390075"/><path opacity=".3" fill="#ffeeea" d="M5 44.3 40.7 4.8H25.9L5 28z"/><path d="m10.4 9.2-.4.7-2.3-.2.2-.3 2.5-.2zm1.5-2.1.2.8L9 7.7l.2-.4 2.7-.2zM10 6.2h1.8l.2.5-2.2-.1.2-.4zm-.2 4.1-.3.6H7.2l.2-.4 2.4-.2zm4-1.4-.6.9h.5c.3 0 .7-.1.8-.4.1-.3-.1-.5-.3-.5h-.4zm.5-.9h.5c.3 0 .6-.1.8-.4.1-.3 0-.5-.2-.5h-.5l-.6.9zm-2.1-.1.5-.8 1.5-.1.1-.1-1.5-.1.3-.6h2.7c.8 0 1.5.3 1.2 1.1-.1.3-.4.9-1.4 1.2.2 0 .7.2.6.8-.2 1-1.6 1.5-2.3 1.5h-3.2l-.2-.6 1.7-.1.1-.1h-1.7l-.2-.7 2.6-.2V9l-4.7-.2.2-.4 5-.3.2-.1-1.5-.1z" fill-rule="evenodd" clip-rule="evenodd" fill="#dc5f44"/><path d="M84.5 9.1a7 7 0 0 0-7-5.8l-67.1.1c-1.9 0-3.7.8-5 2.1a6.7 6.7 0 0 0-2.1 5.1l.1 38a7 7 0 0 0 7.2 7.1l67.1-.2a7.1 7.1 0 0 0 7.1-7.2l-.1-38a6 6 0 0 0-.2-1.2M.8 50.4l-.2-1.8-.1-38c0-2.6 1-5.2 2.9-7a9.7 9.7 0 0 1 7-2.9L77.5.5a9.8 9.8 0 0 1 9.9 9.9l.1 38a10 10 0 0 1-9.9 10l-67.1.2a10 10 0 0 1-9.7-8.2" fill-rule="evenodd" clip-rule="evenodd" fill="#0f2034"/><path d="m20.8 8.5 54.4-.1a5 5 0 0 1 5 5s0 0 0 0v32.3a5 5 0 0 1-5 5h-9.5 0M21 50.6h-8.2a5 5 0 0 1-5-5s0 0 0 0V15.1h0" fill="none" stroke="#0f2034" stroke-linecap="round"/><path d="m17 23.5 1.4.5 1.3 2s.6 1.3 2.3 2.2l2.7 1.2 2.4-.1 3.1-1.4 4.3-2.3 3.5-2s-2 0-2.6-.2c-.6-.2-1-.6-1-.6l1.8-1.2-.4-1.3s-.4-1.5.4-2.5l2.5-3.2s.8-.5 1.1-.3l4.1 4.3.3.4s.7-.2 1-.1l1 .7c.4.1.3.4.3.4l-.6.3.7.5s.1.2.4.1c.3-.1.7.2.7.2l.7.3.2.3-.2.4 1.2.8s.9 0 1.1.3c.2.3.9.3.9.3l-.2.5.9.8s.4-.5.9-.1.9.4.9.4l.4.7.4.5s.8-.4 1.2-.2.6.5.6.5l.3.4-.1.3.4-.3.3.4.4.1.2.1-.2.7 1.5.8 2.3.8 4.1.7 2.4.1 2.6.1s.5-.4.9-.3l1.3.6s.6.5.6 1.5c.1 1-.2 2.8-.2 2.8l-4.1 1.2-6.4 1.1-4.9.2-6.4-.3-5.6-.8-6.5-1.6-4.9-.8-6.9-.4h-3.4l-2.2.3L19 34l-3.7-.5s-.3-2 .1-3.7l.7-3.4.1-.6.8-2.3z" fill-rule="evenodd" clip-rule="evenodd" fill="#fff"/><path d="M49.8 23.2c.5 0 .8.5.8.5l.7.2-.1 1-1.7-.9-1.5.4s-.4.4-.8.3c-.3-.2 0-.4.2-.5.3-.2 1.9-1.1 2.4-1zm-2.5-2.1.3.1.3.1.2.1.1.7-.1.9-1.1-.5.1-.7-.9.4-1.6.8s-.7.1-.4-.3l.1-.1 2.2-1.4c0 .1.6-.2.8-.1zM44.6 19l.7.5.6.2.3.3-.2.4-.2.1-.2 1.2-.3-.2s.2-.3 0-.3l-.5-.3v-.6l-2.6 1.4s-.7.5-.6 0v-.1l1.8-1.8c-.1-.1.7-.7 1.2-.8-.1 0 0 0 0 0zm13.1 8.8-.4-.4h-.4v-.1l-.3-.4-.4-.3-.5-.2c-.2-.1-.9.2-.9.2l-.5-.5c-.1-.6-1-.8-1-.8l-.8-.3c-.5-.1-2 .9-2 .9-.5.3.5.3.5.3l1.7-.4 1.6.9s-.5.2-.8.6c-.3.3.4.2.4.2l1.6-.3 1.4.7-.4.7c-.1.3.2.5.2.5l.5-.4.8-.4.1-.4-.4-.1z" fill-rule="evenodd" clip-rule="evenodd" fill="#fff"/><path d="m22.2 19.2 1.1-.2s1.9-.4 3 1.6 2.6 2.4 2.6 2.4l3 .3s-2 1.1-3.1 1.1c-1.2.1-2.7-.3-3.5-1.6l-1.1-1.5s-.9-1.5-1.6-1.8-.4-.3-.4-.3" fill-rule="evenodd" clip-rule="evenodd" fill="#ebebeb"/><path d="m17.3 23.5 1-2.3.4-.1 1.4-1s1-.7 2.2-.2c1.3.5 2 2.4 2 2.4l-3.2.6s-1.7 0-1.9 1.7l-.5-.2s-1.1-.9-1.4-.9" fill-rule="evenodd" clip-rule="evenodd" fill="#e8ab82"/><path d="M40.7 15.8s-.3 1.3.6 1.7c.9.4 1-.1 1-.1l-.8-1-.8-.6z" fill-rule="evenodd" clip-rule="evenodd" fill="#f0f0f0"/><path d="m38.7 14.4-.3-.1-.6.2-2.6 3.6s-.7 1 .2 3.1l.3-.3s-.7-1.6.2-2.9c0 0 2.4-3.5 2.8-3.6m5.4 6.2 1.1.4.2.5-.4.1-1.4-.7.5-.3z" fill-rule="evenodd" clip-rule="evenodd" fill="#fff"/><path d="m18.4 21.2.6-.5 1.4-.9s1-.6 1.9-.1c.9.5 1.9 2.1 1.9 2.1l1.7 2.2 1.7.9 1.7.1 2-.6 3.9-2.2s3-2.6 4.2-2.7c1.2-.1 3.2.7 3.2.7l.4-.2s-1.8-1.1-3-1.1c-1.2.1-3 1-3 1l-3 2.3-3.3 1.8s-2.6 1.2-4.5-.3l-1.3-1.6s-.9-1.7-1.5-2.1c-.6-.4-2-1.2-3.5-.3l-1.5.9c-.1-.1-.2.3 0 .6" fill-rule="evenodd" clip-rule="evenodd" fill="#fff"/><path d="m34.1 23 1.3.5 1.4.1 1.4-.1-2.9 1.5-2.6 1.4-3.2.6s-2.3.5-4.9 0l-1.6-.6-2.8-1.4-1-.4s0-1.4 1.7-1.7l3.5-.7s1.6 2.5 3.3 2.7c1.7.2 2.4-.1 2.4-.1l4-1.8zm18.2 5.6 1.5.1 1.4.8 1.3.3 2.2-.2.4-.1-.2-.6 2.8 1 4.8.8 3.9.2h.4l-1 .5-5.6 1.9-3.9 1.9-1.5 1L56 36l-2.6-.6-2.2-.8-1.3-.9s-1.4-1.6-.9-3.4c.5-1.7 1-1.4 1-1.4s1.2-.6 2.3-.3" fill-rule="evenodd" clip-rule="evenodd" fill="#ececeb"/><path d="m40.7 23.9 2.8.9-.1 3.4.6-.5 1.7-2.1 2.8 1.1-.8 1.1-4.3 5.6-2.7-1-.1-3.1-1.9 2.4-3.1-1 5.1-6.8z" fill-rule="evenodd" clip-rule="evenodd" fill="#fff"/><path d="m41 24.8 1.9.4.1 4.6 2.8-3.6 1.7.8-4 5.4-2.3-.5v-4.6l-.9 1.1-1.7 2.5-2-.6 4.4-5.5zm-3.5-3.3 1.8-.8h1.8l.9.3-.4.6.2.1.5-.2.4-.2.6.4.2.3-.4.5h-5.4l-.4-.3.2-.7z" fill-rule="evenodd" clip-rule="evenodd" fill="#fff"/><path d="m16.1 26 .6.3.6 1.2s1 2.7 2.2 3.2c0 0-.6.5-1.5.3s-2.4-1.5-2.4-1.5v-.8l.4-2.3.1-.4z" fill-rule="evenodd" clip-rule="evenodd" fill="#e3e3e3"/><path d="m16 26.4.3.3.9 1.9 1.1 1.7.1.2-1.6-.7-1.3-.8.5-2.6zm43.1 4.7 1.9.8 1.4.4.1.5-1.1 1.1-2.4.7-3.4.1-4.6-.6-.6-.1 1.4.9s3.6 1.4 7.1 1.2c0 0 4-2.5 6.6-3.3l4-1.3s-2.3.7-4.9.2c-2.6-.5-4.3-1.5-4.3-1.5l-1.4-.7s-.8.5-2.4.4l2.6 1.2zm-40.4-6.7 1.5.5 3 1.5 1.9.7 3.1.1 4.8-1-1.7 1-2.7 1.3-2.1.7-1.5.1s-2.7-.6-3.9-1.6c-1.1-1-1.1-1.3-1.1-1.3l-1.3-2z" fill-rule="evenodd" clip-rule="evenodd" fill="#fff"/><path d="m15.6 36.9-.6-.4-.5-1.6s0-1.4.8-1.5c.7-.1 5 .7 5 .7l1.9.2s7.4-.7 14.6.4 9.2 2.2 9.2 2.2l3.6.4s10.8 1.3 16.6-.2l1.7-.2 5.7-1.6s-.4 1.6-2.1 2.2l-1.1.5v.2s-1-.2-1.1.4l-.3-.1-3.4 1s.1.5-.6.5-.9-.2-.9-.2l-4.2.7-.2.2s-.9-.1-1.2.1h-.4l-4.2.4-.4.3s-.5.1-1-.3l-4.8-.1-1.5.2h-3.8l-1.8-.1-1.6-.6h-1.8l-2.3.5-5.4.1-.8-.4H28l-.8.4L23 41l-1.1-.5-1.2.2-4.4-1-1.7-.1-.1-.9.4-.6.1-.8.5-.4c-.1.1.1 0 .1 0z" fill-rule="evenodd" clip-rule="evenodd" fill="#fff"/><path d="m15 37.2.9-.2 3.1.2 1.7.5.8.8.9.8.2.1.4-.4.3-.1.2-.6.7-.1 1.8.1s1.2.4 1.7.8l1.4.7s.6.1.3-.4c0 0 .1-.6 2.3-.2 2.2.3 2.8.7 2.8.7s-.8.7-4 .6c-3.2-.1-9.6-1-9.6-1l-1.5-.2s-1.9-1-2.7-1l-1.9-.2.2-.9z" fill-rule="evenodd" clip-rule="evenodd" fill="#dfd9cc"/><path d="m73.6 33.1.1 1.1-.2 1.2-.7 1.2-1.4 1-1.1.5.1.6.4.2.5-.1 1.2-.8 1.1-1.2.4-1.7.2-1.8-.6-.2zm-4.7 5.5-3.4 1 .1.8.5.3 2.4-.8.7-.2.1-.4-.2-.6-.2-.1zm-9.1 2-.2.2.1.4.3.3.7-.1 3.5-.6.1-.7-.2-.4-4.3.9zm-6 .6v.8l.5.2 4-.5.1-.3-.1-.6-4.5.4zm-6.2-.1-.1.8.3.2 4.2.2.4-.4-.1-.7-4.7-.1zm-6.3.5 1.8.2 2.8.2.5-.4v-.5h-5.1v.5zm-12.9-.9-.7.3-1.3.2-3.1-.2-1.3-.5-1.3.2-.6-.1-1.9-.2-2.7-.9-1.3.2.6.9 1.1.1 4.6 1 1.2-.8.4.1.7.9.3.2h4l.5-.6.6-.4.6.3.7.8 1.8.1c1.3 0 2.6-.3 2.6-.3l1-.9h-5.6l-.9-.4z" fill-rule="evenodd" clip-rule="evenodd" fill="#040000"/><path d="m38 14.2.7-.1.1.1.6.1 2.1 1.9.4.4 2.2 2.2c.5-.2.7 0 1 .2l.2.1.4.2c.1 0 .3 0 .5.3l.1.4-.4.4.6.5c.4-.2.6-.1.9.1l.3.1c.3.1.6.2.6.6l-.1.4.9.8c.8-.2 1.1.1 1.1.2 0 0 .2.3.5.3l.4.2.1.4-.1.2.8.5.4-.1c.5 0 .6.1.7.3l.1.1h.2c.2 0 .4 0 .6.2.2.2.2.5.2.7l.4.3.9-.2c.4 0 .4.1.5.2l.1.1.1.1c.2.1.3.1.3.4v.2l.1.1.3-.1c.2 0 .3.2.3.3l.1.1c.2 0 .3.1.4.3l-.1.4.7.3c4.1 1.8 9.2 2 11.3 2h1l.2-.1h.1s1-.2 1.8.5c.5.4.8 1.2.9 2.2l.3.2.1.1v.4c0 .6-.1 1.8-.4 2.8-.5 1.4-2.5 2.5-3 2.5h-.1c-.2 0-.4-.1-.6-.5l-.5-.1h-.2c-.2 0-.3.3-.3.4l.1.3c.1.4-.2.6-.4.7-.1 0-2.3.8-2.8.8a1 1 0 0 1-.8-.4v-.3l-.3.2c-.3.1-.5.1-.8 0v.6c0 .1-.1.3-.3.3l-3.9.6-.5-.2c-.2-.2-.2-.4-.2-.5a.7.7 0 0 0-.9 0l.1.6c0 .3-.3.4-.5.4l-3.7.3h-.2c-.4-.1-.5-.4-.6-.5v-.3l-.6.2a.8.8 0 0 1-.5-.2v.3c0 .3-.4.5-.5.5h-3.9L47 42l-.1-.3v-.6a3 3 0 0 0-1 .2l-.1.5c-.1.2-.3.4-1 .4l-2.1-.2c-1.9-.2-2.2-.5-2.3-.6l-.6-.2-1.8-.5c-1.3-.3-3.2.3-3.5.4-.7 1-2.1 1.1-2.4 1.1H29.3c-.5 0-.8-.4-.8-.4-.2-.2-.5-.6-.8-.6-.4 0-.7.4-.8.6-.2.4-.6.3-.7.3h-3.7c-.4 0-.5-.4-.6-.4-.2-.3-.5-.7-.8-.7-.2 0-.8.4-1.1.8h-.1c-2.2-.6-5.6-1.1-5.6-1.1h-.1l-.2-.2c-.5-.4-.4-.7-.4-.8 0-.2-.2-1.4.4-1.7 0-.2-.1-.5.1-.7l.5-.4.4-.4-.4-1c-.2-.5-.2-1.1.1-1.8l.5-.4a8 8 0 0 1 .2-3.8c.3-2.5.7-3.3.7-3.5 0-.9.7-2.2.9-2.5v-.1l.1-.1h.2l.8-2.3v-.2c0-.2.3-.5.7-.8l.3-.2c.8-.5 1.8-1.2 3.2-.8.3-.2 1.5-.8 3.1 0 .6.3.9.8 1.2 1.4.7 1.2 1.6 2.7 5.7 2.6 1.2-.6 2.2-1.3 3-2-1-1.9-.3-3-.2-3l.2-.3.2-.3c.6-.9 2-2.9 2.5-3.2zm20.3 26.7c-.9.2-3.7.4-4.3.4v.5s0 .2.3.3l1.9-.1h.4l1.5-.2.2-.2v-.7c0 .1 0 .1 0 0zM16.6 40c-1.1-.3-1.8-.2-2-.2 0 .1 0 .3.3.5l.2.2c.4 0 3.4.5 5.5 1 .2-.2.9-.9 1.3-.8.4.1.9.8 1 .9 0 0 .1.3.3.3h3.7s.3 0 .4-.2c.2-.3.5-.7 1-.7.4 0 .9.7 1 .7 0 0 .2.3.6.3h2.7s1.4-.1 2.1-.9l-4.5.1c-.8 0-1.1-.1-1.2-.3l-.1-.1c-.2-.1-.7-.2-.9 0-.3.3-.9.3-1 .3h-3c-.9 0-.9 0-1.5-.4-.5-.3-.9-.1-1.1 0l-.3.1c-.5.2-3.1-.3-4.5-.8zm31.1 1.2v.7l.4.1H52l.3-.2-.1-.5h-.6l-3.9-.1zm-1.5.3h-4.8c.2.1.7.3 1.9.4 2.3.2 2.7.2 2.8 0l.1-.4zM64 40l-4.1.7-.2.1v.1l.1.4.3.1 3.8-.6c.1 0 .4-.2.1-.8zm-32.3-5.7c-4.5-.3-7.5-.1-8.9 0 2.2.3 5.7.9 9.8 2 4.7 1.2 8.6 3 10.7 4.1l.3.2 1.2.7h1.3c.1-.1.8-.4 1.3-.2l4.3.1h.5s.3.3.6.3.7-.3.7-.3l4.5-.4.2.1c.3-.1.6-.2 1 0v-.1l.3-.2 4.2-.8s.4.3.9.2l.4-.3v-.1l.1-.1 3.6-1c.1-.2.2-.3.5-.3h.5l.1-.2s2.4-.6 3.1-2.4c-.9.3-4 1.4-6.5 1.7l-.1.1c-.3.5-2.2 1.5-10.5 1.9-.1 0-2.3.2-8.1-1.1-.1 0-1.4-.2-2.2-1.3a69 69 0 0 0-13.8-2.6zm3.9 3.6s-2.9-1-3.9-.8l-.3.1.7.5c1.9.7 3.2 1.4 3.9 2.1.4.3.5.6.5.8.7-.1 1.4-.2 2.1 0l1.8.5.7.2h1.7c-5-2.7-6.9-3.3-7.2-3.4zm-19.8-4.3s-.6-.1-.8.3c-.3.6-.3 1.1-.1 1.5l.4 1 .4.5c.5 0 3.3-.2 5.3.8.3.4 1.1 1.3 1.6 1.4.1-.2.3-.4.6-.4l.1-.4c.1-.2.3-.2.5-.3.7-.1 2.7.1 3.4.6.6.5 1.7.9 1.8 1h.4l-.1-.1v-.3c.3-.5 2.9-.4 5.2.5l.1.2c-.1.1-.5.6-3.5.6h-1.3l-2.9-.2-.6-.1c-2.3-.2-4.7-.5-7-.9 0 0-2.9-1.2-4.5-1.1-.4.1-.4.9-.3 1.4.3-.1 1-.1 2.1.2l1.1.3.4.1 2.7.5.2-.1c.3-.1.7-.3 1.4 0 .8.4.8.4 1.6.4h2.9s.5 0 .8-.2c.4-.3.9-.2 1.2-.1l.2.1c.2.1.3.2 1.1.2l4.7-.1 1.3-.4c-.1-.3-.7-1.4-4.3-2.7-.3-.1-.9-.4-.9-.8 0-.2.3-.3.5-.3 1.1-.2 3.9.8 4 .8l1.9.7.3.1 3.4 1.6.6.3 1.5.8h1.1c-1.4-.8-6.1-3.1-11.8-4.6-3.1-.8-6.2-1.4-9.3-1.9l-.4-.1-2.5-.3-4.5-.5zM69 38.7l-3.4.9.1.6c.1.2.3.3.5.2l2.7-.8c.1 0 .3-.2.2-.4l-.1-.5zm-51.6-1.6h-1.8c-.3 0-.4.1-.5.3l-.1.5c.7 0 1.7.1 2.9.5a9 9 0 0 1 1.6.6l6.2.8.6.1.6.1 3 .2c2.9.1 4-.2 4.4-.4-2.5-.9-4.6-.7-4.7-.5l.1.4c-.1.2-.6.2-.7.2-.1 0-1.2-.5-1.9-1-.3-.2-.9-.4-1.6-.5l-1.6-.1-.3.2-.1.4-.1.1c-.4 0-.6.4-.6.4l-.1.1c-.7-.1-1.7-1.3-1.8-1.5-1.2-.6-2.6-.8-3.5-.9zm28.9-.1c.8.8 1.8.9 1.8.9 5.8 1.4 8 1.1 8 1.1 8-.5 9.9-1.3 10.3-1.7a69.5 69.5 0 0 1-19.6-.2l-.4-.1h-.1zm27.6-3.7-.2 2a4 4 0 0 1-1.9 2.2l-1.3.6.1.2s.1.4.4.4c.3-.1 2.4-1.1 2.8-2.4.4-1.2.4-2.7.4-3h-.3zm-1-2.2c-.6-.5-1.4-.4-1.5-.4-.9.7-3.5 1.5-3.6 1.6a31.6 31.6 0 0 0-10.6 5.5c3.1 0 6.4-.1 9.6-.7 2.7-.3 6.3-1.6 6.7-1.8l.2-2.1c-.1-1-.3-1.7-.8-2.1zm-19.6-2.5c-1-.5-2.1-.7-3.4-.5-2 .4-2.4 1.9-2.6 3.5-.2 1.4 1.4 3 1.4 3s1.7 1.9 3.5 2.9l4.5.2c.1-.1.7-.7 1.9-1.5h-.2c-1.3 0-4.6-.2-7.3-1.6l-1.1-.7a3.5 3.5 0 0 1-1.2-2.5c0-.7.1-1.3.3-1.9.2-.4 1-1.4 4.2-.9zM50 24.4 47.3 26l1.3.4.1.2-5 6.6s-.1.1-.1 0l-1.1-.4c0 .4.1 1.3.5 2.5l.9.6 2.3.6 5.6.7c-1.6-1-3-2.6-3.1-2.7-.1-.1-1.7-1.7-1.5-3.2.2-1.6.7-3.2 2.8-3.7 1.7-.4 3.1.2 4.3.9l.6.4c.6.4 1.1.5 1.7.5h1.6c.7 0 .9-.1.9-.2l-.1-.4c-.1-.2-.7-.5-1.1-.6l-.1.1-.5.3c-.2.2-.3.3-.5.3h-.2c-.2-.1-.1-.5.2-1.2l-1.4-.6-.5.1-.8.2-.4.1-.2-.1-.1-.2c0-.2.4-.4.5-.5h.1l.3-.1-1.5-.9-1.4.4-.5.1-.3-.1-.2-.3c0-.2.3-.4.3-.5l.8-.4-1.5-.5zM30.2 35c.1-.1.3-.4 4.8.4l3.1 1c.1 0 .3.1.3.3 0 .2-.2.3-.8.3l-.8.1-1.3-.2a29 29 0 0 0-4.8-1.4c-.1 0-.5-.1-.6-.3l.1-.2zm4.8.7c-3.2-.6-4.2-.6-4.4-.5l.3.1 4.8 1.4c.5.2 1.2.3 2 .2l.5-.1-.1-.1-3.1-1zm24.1-6.1c-.1.2-.5.2-1.1.3h-1.1l1.7.8.5.2 2.1.9c.7.1 1.3.3 1.5.6v.5c-.3.6-1.4 2-6.1 2a20 20 0 0 1-5.4-.5c3.3 1.7 7.3 1.5 7.7 1.5l.5-.3c1.7-1.1 4.4-2.6 8.1-3.6l.3-.1.2-.1.3-.1-2.1.2-1.9-.1c-2.7-.5-4.8-1.9-5.2-2.2zm-41.9-5.9c-.2.3-.9 1.5-.9 2.3.2.1.6.3 1 1.3.4 1.2 1 2.5 2.3 3.3h.2c.5.3 2.4 1.4 6.8 1.5l1.9.1c3.3.1 3.8.1 7 2.2 2.9.4 5.7 1 7.7 1.5l-4.4-2.8a24.4 24.4 0 0 0-8.4-3.5l-3.4-.1c-2.3 0-3.7 0-6.2-1.9 0 0-.9-1-1.4-2l-.7-1.1c-.5-.4-.9-.7-1.5-.8zm23.4 5.6-1.7 2.2s-.1.1-.1 0l-.8-.2.2 1.1.8.4 3.6 2.3c-.4-1.2-.4-2.1-.4-2.4l-1.5-.5-.1-.1a13 13 0 0 1 0-2.8zM54 29c-3.7-.8-4.6.4-4.7.6 0 .1-.4.8-.3 1.8.1.9.4 1.7 1.2 2.3.2.1 2.2.9 6.5.9 4.7 0 5.6-1.4 5.8-1.8v-.3a37 37 0 0 1-6.1-2.7c-.6 0-1.1-.2-1.8-.6L54 29zm-38.5.8c-.1.5-.4 2.2-.1 3.5h.4l4.6.7 1.4.2c.2 0 3.5-.5 9.9-.2l3.1.3c-2.7-1.8-3.3-1.8-6.4-1.9l-2-.1c-4.6-.2-6.5-1.3-6.9-1.6-.2.1-.6.4-1.2.3-.6.1-2.2-.9-2.8-1.2zm25.3-5.7-4.9 6.4 1.9.6h.1l.8.3 1.9-2.5c0-.1.1-.1.2 0v3.2l2.6.9 4.8-6.4-2.6-.9-2.1 2.4c0 .1-.1.1-.2 0V25l-2.5-.9zm.2.4 1.9.7.1.1.1 4.3 2.6-3.3s.1-.1.1 0l1.8.6.1.2-4.2 5.5s-.1.1-.1 0l-2.1-.7-.1-.1v-4.2L38.7 31s-.1.1-.1 0l-2-.6-.1-.2 4.4-5.6.1-.1zm0 .3-4.3 5.4 1.7.5 2.6-3.6c0-.1.1-.1.2 0l.1.1v4.5l1.9.7 4.1-5.3-1.6-.6L43 30c0 .1-.1.1-.2 0v-.1l-.1-4.5-1.7-.6zm-.9-5.2h-.2c-1 .1-2.3.9-2.4 1l-3.2 2.3c.3.2 1.1.6 2.2.6l1.5-.2h.3l.6.1.1.3c-.1.2-.3.4-.9.7l-.2.1a12.7 12.7 0 0 0-5.5 5.4c1.5.5 3.3 1.3 5.4 2.5l-.1-1-2-.6-.1-.2 5.1-6.6s.1-.1.1 0l2.6.9 3.9-1.8-1-.6-.3.1-.3.1-.9.4-.5.1-.3-.1c-.1-.1-.1-.2 0-.4v-.1l1.3-.9-.3-.2h-.2a6 6 0 0 1-1.4-.7l-.7.4c.2.1.6.3.7.5v.3c-.2.5-.8.5-.9.5h-4.2c-.6 0-.9 0-1.1-.5-.1-.4.1-.6.2-.7.9-.6 2.3-.8 2.4-.8 0 0 1.2-.1 2.1.3l.1-.1.4-.4c-.4-.2-1.7-.8-2.5-.8l.2.1zM59 29l.1.3c.3.2 2.5 1.7 5.3 2.2 3.1.5 5.6-.4 5.6-.4l.2-.1.2-.1H69.8c-2 0-6.8-.3-10.8-1.9zm-42.7-2.8-.1.3c.1.1.3.2.4.5l.1.3c.3.8 1 2.5 1.8 3.1.1 0 .1.1 0 .2l-.1.1s-1.1-.1-2.8-1.4v.2c.4.2 2.1 1.4 2.8 1.4l1-.2a6.2 6.2 0 0 1-2.2-3.3c-.4-.9-.8-1.1-.9-1.2zm-.2.5-.4 2.3c1.1.8 1.9 1.2 2.4 1.3-.7-.8-1.3-2.2-1.6-2.9l-.1-.3-.3-.4zm22.6-3.2h-.3l-4 2.2-.5.2-.2.1-.6.3-3.9 2.1c-.8.4-1.6.7-2.2.8l3.4.1 1.8.4c.2-.3.8-1.4 1.9-2.6a13 13 0 0 1 3.8-2.8l.2-.1c.2-.2.6-.5.6-.7.1.1.1.1 0 0zM19 24.6l.5.8 1.3 2c1.9 1.4 3.1 1.8 4.6 1.8.1 0 1.7 0 3.6-1l3.3-1.7c-1.3.4-3.3.9-5.1.9h-.3c-2.4 0-3.6-.6-5-1.4l-.5-.3-2.4-1.1zm38.2 2.9-.3.4v.1l-.3.9.3-.2.6-.4.3-.2.1-.1-.2-.1c-.2 0-.2-.1-.3-.2l-.2-.2zm-9.6-4.4-4 1.9v2.8l1.9-2.2s.1-.1.1 0l1.3.4 2.8-1.7-.3-.2-.5.1-1 .5-.4.1-.3-.1c-.2.1-.2 0-.2-.1 0-.2.2-.4.3-.4l1.1-.6-.8-.5zm8.2 4.2.9.4.1-.1-.1-.1a3 3 0 0 0-.9-.2zm-.1-.8c-.4 0-1.4.4-1.8.6l-.4.3c.1.1.1.1.4 0l.8-.2a3 3 0 0 1 1.9 0v-.1c0-.2-.1-.2-.2-.2l-.2-.1-.2-.1c0-.1 0-.2-.3-.2zm-31.3-4.1-3.8.7s-1.1.3-1.2 1.4l2.2 1 .5.3c1.5.8 2.7 1.4 5.2 1.4a24 24 0 0 0 6.3-1.3l4.1-2.2-1.1.1c-1.3.1-2.2-.5-2.4-.7l-1.6.9a8.4 8.4 0 0 1-3.9 1.3 4 4 0 0 1-1.8-.4c-.7-.3-1.4-.9-2-1.9-.3-.2-.4-.4-.5-.6zm28.8 3.4H52.9l1.1.6v-.2c-.1-.1-.4-.5-1.1-.4h.3zm-.6-.7-.4.1-1.5.7-.2.2c.3.1.6-.1.6-.1s1-.4 1.9-.4c.5 0 .8.1 1 .3l-.1-.2-.4-.1-.3-.1-.1-.1c-.1-.2-.1-.3-.5-.3zm-1.3-.5v.3l.3.2.2-.1-.5-.4zM42.8 20c-1.6-.8-2.7-1.3-4.3-.7-.8.3-1.7 1-2.7 1.7-1 .7-2.1 1.6-3.5 2.3-2.9 1.5-4 1.3-5.2 1-1.2-.3-2.6-2.6-2.7-2.7 0 0-.9-1.7-2.2-2.2-1.2-.4-2.2.2-3 .7l-.3.2c-.5.3-.5.5-.6.6v.1c.3 0 .6-.3.9-.5.5-.4 1.2-.9 2.1-1 1.6-.1 2.8 1.9 2.8 2 0 0 1.3 2.4 2.8 3.1 1.5.7 2.9.5 5.5-.9s5-3.3 5-3.3c.1 0 1.4-.9 2.5-1 1-.1 2.4.6 2.7.8l.2-.2zm7 4.1 1.2.7v-.2a.8.8 0 0 1-.4-.2c-.2-.2-.4-.3-.8-.3zm.5-.7s-.3-.2-.9-.1c-.8.2-1.9 1-2 1l-.2.2h.5l1.1-.5.6-.2c.6-.1 1.1 0 1.4.3.2.2.2.1.3.1l.1-.2v-.2l-.2-.1c-.4.1-.7-.2-.7-.3zm-28.9-3.6c-.9 0-1.4.5-1.9.9l-1 .6-.8 2.3c.5.1.9.4 1.1.7l.4.1a2 2 0 0 1 1.4-1.6l3.7-.7-.3-.5c-.1 0-1.2-1.9-2.6-1.8zm3.8-.4a3.2 3.2 0 0 0-2.7-.1c.7.3 1.2.8 1.5 1.3l.6 1c.1.1 1.5 2.4 2.5 2.6 1.1.2 2.1.5 4.5-.7h-.1c-3.7 0-4.6-1.5-5.3-2.7-.2-.6-.5-1.1-1-1.4zm23.1 3.1v.6l.3.2v.1l.4-.2-.7-.7zm-.7-.4-.4-.1v.5l.8.5v-.6l-.2-.1-.2-.2zm-.2-.7c-.2-.2-.3-.2-.7 0a23 23 0 0 0-2.3 1.5v.1l.5-.1 1-.5.3-.1.3-.1.5-.2c.6-.2.7-.2.9 0l.2.1.1.1V22c0-.2-.2-.3-.5-.4l-.3-.2zm-5.6-.3c-.8-.4-1.9-.3-1.9-.3a6 6 0 0 0-2.3.8s-.2.1-.1.4c.1.3.2.3.8.3h4.4s.5 0 .6-.3v-.1c-.1-.2-.5-.4-.7-.4l-.5.3c0 .2-.2.4-.5.3-.2 0-.4-.2-.3-.5l.2-.3.3-.2zm3.2-1.7c-.3-.3-.4-.4-.8-.1l-2 1.7-.4.5-.1.1c.2.1.4-.1.8-.4l.2-.1.8-.4c.7-.4 1.7-.9 2-.8l.4.4.2-.2V20l-.3-.2-.6-.2-.2-.2zm.4.7-.6.1v.5l.5.4v.3l.1.1.1-1.1c.2 0 .2-.2-.1-.3zm.5.7-.1.7.6-.4a.5.5 0 0 1-.5-.3zm-1.8-.2-.3.1 1.2.6.2-.1-.5-.3-.6-.3zm-5.6-6.2-.4.1c-.5.2-2 2.4-2.9 3.8 0 0-.6 1 .2 2.7l.1-.1c-.1-.2-.6-1.5 0-2.6l2.5-3.5.5-.4zm.9.2c-.6-.4-1.1.3-1.1.3s-1.8 2.3-2.5 3.5c-.5.9-.1 2.1 0 2.3.9-.7 1.8-1.3 2.6-1.6 1.7-.6 3-.1 4.6.7l.9-.7-1.4-1.5-.5.1-.9-.3c-.7-.5-.5-1.2-.3-1.6l-1.4-1.2zm1.5 1.4c-.1.3-.2.8.3 1.2.5.4.9.3 1.1.2L40.9 16z" fill-rule="evenodd" clip-rule="evenodd" fill="#0f2034"/><path d="M38.8 21.3c-.2 0-.4.2-.4.4s.2.4.4.4.4-.2.4-.4-.1-.4-.4-.4" fill-rule="evenodd" clip-rule="evenodd" fill="#0f2034"/><path d="M23.2 27.4h-.5c-.1 0-.2.2-.1.3.1.1.2-.1.2-.1h.1l.1.1a1 1 0 0 1-.5.2l-.1.2.5.1c.3 0 .2-.2.2-.2-.2.1-.4-.1-.4-.1l.3-.1c.2 0 .2-.3.2-.4" fill-rule="evenodd" clip-rule="evenodd" fill="#e5e5e5"/><path d="M23.7 27.9c-.1.2-.2.3-.3.2l.1-.3c.1-.2.2-.3.3-.2l-.1.3m.2-.5c-.2-.1-.5.1-.7.3-.2.3-.1.5.1.6.2.1.5-.1.7-.3.2-.2.1-.5-.1-.6" fill-rule="evenodd" clip-rule="evenodd" fill="#e5e5e5"/><path d="M24.4 28.1c-.1.2-.2.3-.3.2l.1-.3c.1-.2.2-.3.3-.2l-.1.3m.2-.5c-.2-.1-.5.1-.7.3-.2.3-.1.5.1.6.2.1.5-.1.7-.3.2-.3.1-.6-.1-.6" fill-rule="evenodd" clip-rule="evenodd" fill="#e5e5e5"/><path d="M24.7 28c.1.1.2-.1.2-.1h.1l.1.1a1 1 0 0 1-.5.2l-.1.2.5.1c.3 0 .2-.2.2-.2-.2.1-.4-.1-.4-.1l.3-.1c.2-.1.2-.4.2-.5h-.5l-.1.4z" fill-rule="evenodd" clip-rule="evenodd" fill="#e5e5e5"/><path d="m25.9 28.3.2-.1s.1-.1 0-.2l-.6-.1v.2l-.3.5.2.1.3-.6.2.1s.1.1-.1.1-.1.1-.1.1l.4.4h.3l-.5-.5z" fill-rule="evenodd" clip-rule="evenodd" fill="#f4c99f"/><path d="m47.8 47.1-.5.5.8.5.5-.6-.8-.4zm-.3 1.3-.5.4.7.6.5-.6-.7-.4zm.2 1.3-.7 1.9.6.3c.3-.5.5-1.2.7-2l-.6-.2zm1.3-2-.6 1.5.6.3c.3-.5.5-1 .6-1.7l-.6-.1zm.8-.7V49.6l-.2.1-.5-.1.1.6h.5l.6-.2.1-.6V47h-.6zm1.5.6-.6.3c.2.4.5.9.6 1.4l.7-.3-.7-1.4zm-.1 1.9c-.3.5-.7.9-1.1 1.2l-1.8.7.3.6c.8-.2 1.5-.5 2-.9a4 4 0 0 0 1.2-1.4l-.6-.2zm1.5-2.2v.6h.4c-.1.6-.4 1.2-.7 1.8l.4.4.1-.2v1.9h.5v-.3h.7v-1.9l.1.3.8-.2v.2l.4-.1v-.1h.9v.1l.9-.2v.2l.5-.1-.2-1.1-.2.1.5-.8-.5-.2-.3.6-.1-.1.5-1-.7-.2-.4.9h-.1v-.5H56l.1-.3-.5-.1v.4h-.3v.5l-.3-.1-.2.5h-.1l.4-1-.5-.3-.4 1h-.1l-.3.4.7.4-.3.7h-.1V49h-.8l.3-1h.5v-.6l-1.4-.1zm2.5 1.9-.1-.4h-.2l.3-.6v1zm-.3.1h-.2l.2-.3v.3zm-1.5 1.6v-1.4h.2v1.4h-.2zm2.9-2.4.3.2-.3.4v-.6zm.7.7h-.2l.2-.3v.3zm-1.3.1v-.5h.2v.5h-.2zm0-.9v-.6h.2v.6h-.2zm-1.5 1.7v.5h.9l-.3.2-.7.4.3.5.8-.6.2-.3v1h.6v-1.1l.4.4.8.6.3-.5-.7-.4-.3-.3h1V50H56v-.3h-.5v.3l-1.3.1zm3.9-2.5v.6h.8c-.1.9-.1 1.5-.3 1.9-.1.5-.4 1-.7 1.4l.5.4c.4-.4.6-.9.8-1.5l.3-2.2h3.3v-.6h-3.3V47H59v.6h-.9zm1.7 1.2-.3 1.2.6.3.4-1.3-.7-.2zm2.2.1-.4 1.1.6.3c.2-.4.4-.8.4-1.3l-.6-.1zm-1.3-.5v1c0 .6-.1 1-.4 1.3-.3.3-.7.6-1.2.8l.3.6c.6-.2 1.1-.5 1.4-.9l.3-.4.4.6c.2.3.6.5 1.1.8l.4-.6c-.5-.2-1-.5-1.2-.9l-.4-.7v-1.4c0-.2-.7-.2-.7-.2z" fill="#0f2034"/><path d="M27.4 51.9v-1.1h-1.6l1-1.1c.4-.5.6-.9.6-1.3 0-.5-.2-.8-.5-1.1-.3-.2-.7-.4-1.2-.4-1.1 0-1.7.6-1.7 1.7h1.3l.1-.5.4-.1.3.1.1.3c0 .4-.7 1.2-2.1 2.4v1c-.1.1 3.3.1 3.3.1zm12.7 0v-1.1h-1.6l1-1.1c.4-.5.6-.9.6-1.3 0-.5-.2-.8-.5-1.1-.3-.2-.7-.4-1.2-.4-1.1 0-1.7.6-1.7 1.7H38l.1-.5.3-.1.3.1.1.3c0 .4-.7 1.2-2.1 2.4v1l3.4.1zm-4-2.4a3 3 0 0 0-.4-1.7c-.3-.6-.8-.9-1.5-.9s-1.2.3-1.5.9c-.2.4-.4 1-.4 1.7s.1 1.2.4 1.6c.3.6.8.8 1.5.8s1.2-.3 1.5-.8c.2-.4.4-.9.4-1.6zm-1.3 0c0 .9-.2 1.3-.6 1.3-.4 0-.6-.4-.6-1.3s.2-1.3.6-1.3c.4 0 .6.3.6.9v.4zm-3.1 0a3 3 0 0 0-.4-1.7c-.3-.5-.8-.8-1.4-.8-.7 0-1.2.3-1.5.9-.2.4-.4 1-.4 1.7s.1 1.2.4 1.6c.3.6.8.8 1.5.8s1.2-.3 1.5-.8c.2-.5.3-1 .3-1.7zm-1.2 0c0 .9-.2 1.3-.6 1.3-.4 0-.6-.4-.6-1.3s.2-1.3.6-1.3c.4 0 .6.3.6.9v.4zM45 51.9l-.4-.6-.2-.8c-.1-.4-.2-.7-.4-.9.3-.3.5-.6.5-.9 0-.5-.2-.9-.5-1.2-.3-.2-.7-.4-1.2-.4h-1.9v4.8H42v-1.8h.7c.2 0 .3.1.4.4.1.8.2 1.3.4 1.5H45zm-1.8-3.3-.2.3-.5.1H42v-.8h.6c.4 0 .6.1.6.4z" fill="#0e1e30"/></svg>