<svg xmlns="http://www.w3.org/2000/svg" viewBox="0 0 88 59" xml:space="preserve"><path d="M2.9 48.2 2.8 11c0-4.6 3.7-8.4 8.3-8.4l65.6-.1c4.6 0 8.3 3.7 8.3 8.3l.2 37.2c0 4.6-3.7 8.4-8.3 8.4l-65.6.1c-4.6 0-8.4-3.7-8.4-8.3" fill-rule="evenodd" clip-rule="evenodd" fill="#fff"/><path d="M83.4 17.3v-4.1c0-3.2-1.8-6-4.4-7.5L35.4 54h14.8l33.2-36.7z" opacity=".3" fill="#ffeeea"/><path d="M82.5 53.7c-.6.1-1.2.2-1.8.2l-30.5.1H13.6a8.5 8.5 0 0 1-8.5-8.5L5 7.5c0-.7.1-1.3.2-1.9.2-1-1.9 1.6-1.9 4.7l.1 38c0 4.7 2.5 7.4 7.2 7.4l23.3-.1h14.8l29-.1v1.1c2.8.1 5.6-3 4.8-2.9z" opacity=".1" fill="#390075"/><path opacity=".3" fill="#ffeeea" d="M5 44.3 40.7 4.8H25.9L5 28z"/><path d="m10.4 9.2-.4.7-2.3-.2.2-.3 2.5-.2zm1.5-2.1.2.8L9 7.7l.2-.4 2.7-.2zM10 6.2h1.8l.2.5-2.2-.1.2-.4zm-.2 4.1-.3.6H7.2l.2-.4 2.4-.2zm4-1.4-.6.9h.5c.3 0 .7-.1.8-.4.1-.3-.1-.5-.3-.5h-.4zm.5-.9h.5c.3 0 .6-.1.8-.4.1-.3 0-.5-.2-.5h-.5l-.6.9zm-2.1-.1.5-.8 1.5-.1.1-.1-1.5-.1.3-.6h2.7c.8 0 1.5.3 1.2 1.1-.1.3-.4.9-1.4 1.2.2 0 .7.2.6.8-.2 1-1.6 1.5-2.3 1.5h-3.2l-.2-.6 1.7-.1.1-.1h-1.7l-.2-.7 2.6-.2V9l-4.7-.2.2-.4 5-.3.2-.1-1.5-.1z" fill-rule="evenodd" clip-rule="evenodd" fill="#dc5f44"/><path d="M84.5 9.1a7 7 0 0 0-7-5.8l-67.1.1c-1.9 0-3.7.8-5 2.1a6.72 6.72 0 0 0-2.1 5.1l.1 38c0 4 3.2 7.2 7.2 7.1l67.1-.2c1.9 0 3.7-.8 5-2.1s2.1-3.2 2.1-5.1l-.1-38c0-.3-.1-.8-.2-1.2M.8 50.4c-.1-.6-.2-1.2-.2-1.8l-.1-38c0-2.6 1-5.2 2.9-7C5.2 1.7 7.8.7 10.4.7L77.5.5c2.6 0 5.2 1 7 2.9 1.9 1.9 2.9 4.4 2.9 7l.1 38a10 10 0 0 1-9.9 10l-67.1.2c-4.8-.1-8.9-3.6-9.7-8.2" fill-rule="evenodd" clip-rule="evenodd" fill="#0f2034"/><path d="M51.74 8.99a13.5 13.5 0 0 1 1.81 6.78 23.2 23.2 0 0 1-.22 3.32c-.06.41-.1.83-.15 1.24-.07.61-.14 1.24-.24 1.86-.03.21-.04.42-.04.64-.01.29-.01.59-.09.89v.03l.05.01.07.04.5.28c.4.22.82.45 1.21.7.65.43 1.14.95 1.54 1.41.8.93 1.44 2.06 1.96 3.46.46 1.23.77 2.54.92 3.89.05.46.07.91.04 1.33l-.03.31-.01.07c-.07.54-.14 1.1-.19 1.65-.03.29-.09.55-.18.79l-.08.18-.02.04v.01l.03-.01.03-.01.3-.14.37-.18c.23-.11.48-.19.74-.23.27-.04.73-.1.9.39.14.39-.01.69-.4.83l-.46.13c-.27.07-.52.13-.75.27-.04.03-.08.03-.11.04l-.25.09c-.11.04-.21.07-.29.12.06.13.11.33.12.48 0 .04.05.17.08.23.65-.13 1.28-.36 1.89-.58.22-.08.62-.22.94.19.2.26.13.49.08.68l-.03.09c-.08.33-.37.38-.58.4l-.07.01-.07.01c-.38.04-.76.15-1.12.25-.23.07-.47.14-.71.19l-.07.02.01.07a7.07 7.07 0 0 1 .11 1.43s.03.02.15 0c.83-.12 1.73-.26 2.61-.44.23-.05.67-.14.91.24.12.2.13.44.03.66a.75.75 0 0 1-.59.41c-.6.06-1.21.15-1.8.25l-1.14.17c-.13.02-.16.05-.17.17a6.59 6.59 0 0 1-.92 2.88 6.57 6.57 0 0 1-1.49 1.85c-.21.16-.38.36-.57.58-.12.13-.24.27-.37.39-2.72 2.18-4.39 2.52-5.38 2.72l-.54.12c-.58.18-1.18.19-1.76.2-.32.01-.65.01-.97.05-.26.05-.47.06-.68.06-.34 0-.68-.02-1.02-.05l-.7-.04h-.35c-.6 0-4.8-.68-7.06-1.53a12.3 12.3 0 0 1-3.79-1.98l-.78-.59-.91-.69a9.3 9.3 0 0 1-2.1-2.32 7.8 7.8 0 0 1-.96-1.94c0-.02-.02-.02-.09-.02-.46.04-.93.04-1.39.03a7.89 7.89 0 0 0-2.16.17c-.25.05-.51-.18-.65-.41-.15-.26.01-.46.13-.59l.05-.04.04-.03c.36-.17.6-.23.86-.27l.13-.02.09-.02c.11-.02.24-.04.37-.04a6.05 6.05 0 0 1 .52-.07h.37c.64-.01.73-.01 1.23-.05l.05-.01c.03-.04-.03-.25-.06-.35-.03-.12-.06-.22-.07-.32l-.02-.26c-.02-.27-.04-.53 0-.82.01-.04.01-.1-.02-.13-.02-.02-.06-.03-.11-.04h-.05l-.09.01a122.55 122.55 0 0 0-3.46.37c-.35 0-.56-.15-.6-.43-.03-.22.01-.54.42-.8.33-.21.68-.18.98-.15.14.01.27.02.4.01l.67-.05c.51-.05 1.04-.09 1.56-.08l.4.02.02-.08.13-.46.12-.47c-.41.06-.82.05-1.22.04-.4-.01-.82-.02-1.22.05-.3.05-.61-.02-.84-.19-.16-.12-.25-.26-.26-.42 0-.11.03-.26.21-.42.22-.19.47-.25.69-.28a7.5 7.5 0 0 1 2.17.03l.3.04.29.03c.42.05.59-.17.79-.45.06-.08.12-.17.19-.24.02-.03.39-.35.47-.39.17-.07.16-.19.04-.55l-.09-.29a8.3 8.3 0 0 1 .03-3.29c.08-.5.27-.97.47-1.42l.12-.27.11-.24c.25-.57.56-1.12.83-1.59a12.07 12.07 0 0 1 2.78-3.34c.45-.25.45-.25.31-.72a1.78 1.78 0 0 1-.03-.56l.01-.25c-.01-.41-.12-.82-.22-1.21a6.5 6.5 0 0 1-.18-.79c-.08-.51-.32-1-.77-1.57a1.54 1.54 0 0 0-.57-.45l-.04-.02-.04-.02-.03-.02c-.52.15-1.05.16-1.56.17l-.46.01c-1.51.07-2.6-.41-3.34-1.47a4.44 4.44 0 0 0-.92-.97c-.24-.19-.34-.46-.45-.72l-.06-.15c-.2-.49-.18-1-.16-1.5l.01-.33c.01-.51.13-.98.34-1.41.42-.82.86-1.43 1.4-1.94.93-.88 1.9-1.56 2.96-2.07a14.9 14.9 0 0 1 3.47-1.16c.64-.13 1.31-.2 2.06-.21a3.8 3.8 0 0 1 1.7.38c.09.04.19.06.29.08.12.02.24.05.36.1a2 2 0 0 0 .16-.14l.09-.08a9.3 9.3 0 0 1 3.63-1.86c1-.29 1.82-.41 2.58-.39a7.58 7.58 0 0 1 6.64 2.99zM41.32 7.14c-.84.36-1.57.8-2.19 1.33l-.08.08c-.18.17-.3.27-.42.2a.9.9 0 0 0-.33-.1 1.08 1.08 0 0 1-.35-.1 3.71 3.71 0 0 0-1.58-.36c-.73.01-1.39.08-2.01.2-1.2.25-2.35.63-3.41 1.14a11.1 11.1 0 0 0-2.89 2.02 6.56 6.56 0 0 0-1.34 1.87c-.2.38-.3.82-.31 1.29l-.01.33c-.02.49-.04.95.14 1.38l.06.15c.09.24.18.46.36.61.38.3.7.64.97 1.03.69.99 1.68 1.42 3.11 1.35l.47-.01c.51-.01 1.03-.02 1.53-.17.09-.03.17.03.22.06l.04.03c.28.15.49.31.66.53.32.41.71.98.82 1.7.04.26.11.51.17.76.11.4.21.82.23 1.27l-.01.28c-.01.16-.02.32.02.46.18.63.15.7-.44 1.03a11.7 11.7 0 0 0-2.67 3.24c-.21.37-.45.79-.66 1.23l-.15.33-.11.24c-.23.52-.48 1.06-.57 1.62a7.75 7.75 0 0 0 .05 3.44c.1.28.25.71-.19.9-.04.03-.34.28-.37.32l-.18.22c-.2.27-.42.57-.9.56l-.14-.01-.29-.03a8.31 8.31 0 0 0-2.39-.06c-.26.04-.42.11-.56.22-.05.05-.12.12-.11.2 0 .07.05.15.14.21.17.13.41.18.64.14.42-.07.85-.06 1.26-.05.39.01.78.01 1.17-.04.09-.01.21-.01.28.07a.2.2 0 0 1 .04.18c-.05.23-.12.46-.18.68l-.1.33-.04.13c-.02.06-.08.17-.27.15-.64-.06-1.28 0-1.91.06l-.67.05c-.15.01-.3 0-.44-.01-.29-.02-.56-.05-.82.11-.31.2-.32.4-.3.53.01.1.05.2.33.2.18 0 .35-.03.53-.06l.27-.04 1.76-.19.87-.08.09-.01c.16-.01.29.03.38.12.06.06.12.17.09.35-.04.26-.02.51 0 .76l.02.26c0 .07.03.17.06.26.06.21.12.43.01.58a.33.33 0 0 1-.25.12c-.47.07-.59.07-1.07.08H26.93c-.07 0-.2.01-.27.03-.13.03-.24.04-.34.04l-.23.02-.11.02-.1.02c-.3.05-.53.09-.9.26-.13.13-.17.2-.12.29.1.17.27.3.36.29a8.32 8.32 0 0 1 2.22-.17c.45.01.91.01 1.36-.03.09-.01.31-.03.38.21a9.32 9.32 0 0 0 2.97 4.12c.29.24.6.46.9.68l.79.6a12.6 12.6 0 0 0 3.71 1.93c2.18.82 6.12 1.47 6.9 1.51h.13c.34 0 .69.02 1.02.05a9.6 9.6 0 0 0 1.61.02c.33-.04.67-.04 1-.05.56-.01 1.14-.02 1.68-.19.16-.05.35-.09.56-.13.97-.2 2.6-.52 5.25-2.65l.35-.38c.19-.21.38-.43.61-.61a6.41 6.41 0 0 0 1.43-1.78c.51-.86.81-1.81.88-2.76.02-.25.15-.38.4-.42l1.13-.17c.59-.09 1.21-.19 1.82-.25.16-.01.3-.11.37-.26a.41.41 0 0 0-.01-.39c-.12-.19-.32-.19-.62-.12-.89.19-1.78.33-2.62.45-.11.02-.26.02-.37-.07-.1-.09-.1-.23-.1-.33.03-.43-.03-.85-.09-1.26-.04-.25.03-.34.27-.39l.69-.18c.28-.08.57-.17.87-.22l.3-.04.07-.01c.19-.01.32-.03.38-.14l.02-.06.03-.1c.05-.17.09-.28-.03-.43-.17-.22-.33-.21-.62-.1-.65.23-1.3.47-1.99.6-.08.02-.16-.02-.21-.08l-.03-.05-.02-.04c-.05-.14-.09-.24-.1-.31a1.2 1.2 0 0 0-.1-.41.2.2 0 0 1 .05-.28c.12-.09.27-.14.41-.19l.21-.08a.3.3 0 0 1 .08-.02c.27-.17.56-.24.84-.31.15-.04.29-.07.43-.12.25-.09.32-.24.24-.49-.09-.24-.26-.26-.61-.21-.23.03-.45.1-.65.2l-.37.18-.29.14c-.09.04-.27.13-.41-.03-.09-.1-.05-.21-.02-.28l.02-.04.02-.03c.13-.26.2-.55.23-.88l.12-1.11.07-.55.01-.07c.06-.49.06-1.02-.01-1.58a16.02 16.02 0 0 0-.91-3.82 10.83 10.83 0 0 0-1.91-3.38 7.31 7.31 0 0 0-2.67-2.05l-.51-.28-.05-.02c-.08-.03-.26-.11-.2-.36.07-.27.08-.54.08-.83.01-.22.01-.45.05-.68.1-.61.17-1.24.24-1.85l.15-1.25c.08-.61.14-1.19.18-1.74-.28.26-.77.24-1.07.12l-.01.35a16.8 16.8 0 0 1-.17 1.89c-.13.84-.12 1.69-.33 2.52-.06.25.01.49-.06.75a1.6 1.6 0 0 1-.56.88c-.37.29-.21.68.3.84l.63.23c1.07.43 2.03 1 2.82 1.87a11.1 11.1 0 0 1 2.29 4.38c.31 1.03.47 2.08.6 3.12a8.8 8.8 0 0 1-.07 2.11c-.06.57-.21 1.11-.34 1.66-.09.41-.42.52-.74.65-.09.04-.43.29-.6.43l-.1.08c-.18.13-.31.31-.26.51.06.25.28.36.54.34.19-.01.37-.05.56-.07.1-.01.25-.14.29.03.03.12.06.31-.13.4-.1.05-.19.13-.29.19-.24.15-.32.37-.21.63.1.24.31.34.57.3.31-.05.65-.38.81-.09l.03.08.02.06c.06.21.23.91.05 1.36-.05.11-.11.15-.23.18-.52.15-.75.7-.44 1.02.2.2.45.13.74.12-.23.99-.51 1.9-1.09 2.72-.74 1.04-1.7 1.86-2.63 2.7a8.63 8.63 0 0 1-2.53 1.42c-.72.3-1.5.25-2.26.35l-1.78.27c-.39.06-.78.05-1.18.02-.88-.06-1.77-.04-2.64-.23-.89-.2-1.8-.28-2.68-.48-.64-.14-1.3-.25-1.93-.46-.69-.22-1.35-.48-2.02-.76a9.88 9.88 0 0 1-2.07-1.07c-.75-.54-1.54-1.03-2.23-1.64a13.76 13.76 0 0 1-2.22-2.65 4.12 4.12 0 0 1-.32-.67c-.06-.16.1-.12.27-.2.18-.08.32-.03.5-.15.14-.2.17-.43.03-.61a.62.62 0 0 0-.6-.22c-.34.02-.72.09-.69.06-.18-.64-.37-1.08-.32-1.69.02-.18.08-.58.28-.59.83-.07.62-.59.1-.64-.19-.02-.06-.3-.03-.44.05-.24.11-.47.21-.71.01-.01.12-.02.26-.01H30.74a.6.6 0 0 0 .5-.84c-.02-.19-.73-.07-.6-.17.12-.1.41-.57.96-.52.31.06.44-.46.28-.7-.52-.77-.5-1.64-.5-2.5a7.4 7.4 0 0 1 .93-3.52c.52-1 1.01-2.01 1.75-2.87a5.29 5.29 0 0 1 1.98-1.65c.23-.09.47-.24.61-.43.12-.16-.17-.49-.39-.63-.15-.09-.2-2.81-.44-3.55a5.14 5.14 0 0 0-1.3-2.3c-.58-.53-1.26-.5-1.96-.44-.63.05-1.25.23-1.88.19a2.6 2.6 0 0 1-1.87-.84c-.4-.44-.6-.99-1.01-1.44-.41-.45-.38-1.15-.29-1.77.27-1.88 1.56-2.96 3.07-3.84.62-.36 1.28-.69 1.95-.94a8.4 8.4 0 0 1 2.29-.53c.33-.02.66-.09 1.01-.09.51 0 .99.13 1.45.31a11 11 0 0 1 2.47 1.24c.44.32.85.72 1.08 1.24a16.68 16.68 0 0 1 1.36 4.13c.13.87.21 1.76.34 2.63.15.97.06 1.95.25 2.91.07.34.06.68.02 1.03-.05.41.07.58.43.58l.1-.01.42-.17c.28-.21.37-.49.28-.84-.26-1.03-.15-2.1-.26-3.14-.11-1.02-.24-2.04-.37-3.05-.06-.45-.12-.9-.22-1.35a7.34 7.34 0 0 0-.47-1.51c-.3-.65-.52-1.32-.81-1.97-.37-.82-1.1-1.31-1.83-1.76-.15-.09-.15-.1-.09-.25.15-.42.51-.64.85-.8l1.08-.5c.03-.31-.03-.72-.59-.82zm4.16 30.32-.19.03-.38.06c-.25.04-.51.09-.76.22-.41.21-.71.35-.74.74-.02.23.08.39.15.56.27.69.89.95 1.59 1.04.18.02.23.08.21.27-.02.17.04.35.07.56l-.36-.05c-.5-.04-1.02-.09-1.51-.15a6.65 6.65 0 0 1-1.93-.58 9.63 9.63 0 0 0-2.46-.46c-.5.02-1.44-.04-2.3.45l-.18.11-.65.53-.31.35c-.15.18-.29.36-.4.58-.48.95-.8 1.92-.48 2.99a6.08 6.08 0 0 0 2.3 3.16c.61.46 1.33.73 2.01 1.04.15.07 1.01.23 1.32.34.44.16.89.27 1.36.31.54.05 1.09.11 1.62.18.66.09 1.99.14 2.64.06 1.28-.16 1.89 0 3.18-.17.63-.08 1.28-.11 1.91-.23.99-.19 2.71-1.61 3.12-2.19.08-.11.19-.45.31-.82l.1-.32.13-.46a6.59 6.59 0 0 0 .03-2.64 3.49 3.49 0 0 0-.29-.88 3.02 3.02 0 0 0-1.08-1.33 3.99 3.99 0 0 0-2.37-.57 5.8 5.8 0 0 0-.93.14c-1.3.3-2.59.44-3.91.59-.11.01-.23.05-.34.02-.1-.03-.28.03-.25-.15.04-.24-.06-.62.18-.69.31-.08.54-.25.78-.41.43-.28.73-1.25.28-1.73a1.86 1.86 0 0 0-1.47-.5zm-4.03 3.31c.74.18 2.2.63 2.2.63.19.32.42 1.34.44 1.74.01.24.05.21.34.34.4.17.54.2.82.28.66.21 1.57.34 2.26.45.69.12.66.02.93-.8.15-.46.22-1.03.25-1.54-.03-.32.32-.52.67-.6.55-.12 1.12-.4 1.7-.39.58.01 1.38.2 1.88.41.71.3 1.18 1 1.38 1.82l.04.19.06 1.43c-.17 1.21-.33 1.73-.95 2.37-.37.38-1.64 1.78-3.38 1.41-.11.04-.16-.05-.14-.16.09-.64-.38-1.05-.69-1.48-.63-.85-2.08-1.94-3.61-1.56-.24.04-.8-.45-1.04-.52a4.05 4.05 0 0 0-1.92-.2c-.54.06-1.09.06-1.63.13a7.47 7.47 0 0 0-2.88.87c-.27.14-.95.58-.99 1.03a6.2 6.2 0 0 1-1.11-2 3.1 3.1 0 0 1 .15-2.2c.24-.57.59-1.03 1.13-1.27.63-.29 1.14-.55 1.84-.6a7.7 7.7 0 0 1 2.25.22zm6.58.71c.21.12.23.37.21.6-.04.5-.19 1.19-.32 1.61-.06.18-.34.17-.66.12-.24-.04-.47-.22-.77-.23-.79-.04-1.2-.2-1.59-.39a.62.62 0 0 1-.32-.39c-.11-.38-.3-.81-.36-1.16.82.26 2.39.62 3.71-.17.03-.02.06-.01.1.01zm-9.14-10.79c-.13.19-.18.18-.34.46-.11.17-.14.35-.24.51-.36-.14-1.19-.79-1.13-.49.01.07.61.43.93.59.19.1.12.2.1.31-.03.17-.13.19-.26.15-.13-.04-.27-.08-.43-.15-.65-.28-.64-.12-.64-.12.02.09.46.23.58.28l.47.19c.13.01.25.16.25.16-.01.3-.07.45-.11.67a5.83 5.83 0 0 0 .41 3.09 2.08 2.08 0 0 0 2.42 1.39 3.38 3.38 0 0 0 1.78-1.11c.5-.56.81-1.27.93-2.01l.03-.18a4.59 4.59 0 0 0-.93-3.7c-.51-.68-1.17-.85-1.87-.9-.73-.02-1.18.18-1.95.86zm9.84-.8c-.21.1-.87.36-1.08 1.01l-.32-.13-.03-.01c-.75-.25-.81-.33-.86-.24-.21.16.32.26.72.42.19.07.42.08.35.26-.08.21-.19.4-.25.61-.02.09-.07.12-.2.09-.3-.08-.58-.18-.86-.31-.11-.05-.25-.08-.3.02-.07.12.1.17.17.19.31.09.6.22.92.32.18.06.21.12.18.27-.1.44-.01.8-.02 1.26 0 .29.06.68.06.94.01.61.25 1.17.56 1.72.77 1.34 2.36 1.64 3.48.69a3.92 3.92 0 0 0 1.4-2.31c.11-.56.06-1.11.01-1.68-.08-.75-.42-1.4-.62-2.09-.04-.14-.13-.26-.21-.39-.1-.16-.24-.27-.39-.36a3.12 3.12 0 0 0-1.1-.45 2.3 2.3 0 0 0-1.61.17zm-7.06 1.07c.09.07.33.36.35.51-.24-.03-.93.12-1.14.38a2.46 2.46 0 0 0-.42 2.56c.16.41.51.73.94.81.45.09.99-.56 1.07-.55.1.01-.02.88-.15 1.17-.14.34-.72.85-1.43.93a2.12 2.12 0 0 1-1.11-.19 3.28 3.28 0 0 1-.87-1.15 3.6 3.6 0 0 1-.26-1.58c.03-.7.15-1.79.49-2.25.62-1.06 1.82-1.18 2.53-.64zm9.31-.1c.44.68.24.57-.16.5a1.23 1.23 0 0 0-.71.08c-.46.21-.64.68-.75 1.19-.13.61-.06 1.25.19 1.83.22.51.36.66.9.73.85.17 1.2-.8 1.23-.68.02.07-.05.52-.12.87-.05.25-.17.48-.35.66-.4.41-.66.66-1.3.67-.65-.03-1.18-.31-1.61-1.06a3.61 3.61 0 0 1-.43-1.36c-.08-.67-.15-1.24-.03-2.09.33-1.29.64-1.63.89-1.75.81-.44 1.87-.18 2.25.41zm-9.71 1.82.33.03.06.02.02.02.31.47v-.37a.1.1 0 0 1 .07-.09l.04-.01.26.02a.1.1 0 0 1 .09.07l.01.04-.06.83c0 .04-.03.07-.07.09l-.04.01-.34-.02-.06-.02-.02-.02-.3-.46-.01.37a.1.1 0 0 1-.07.09h-.04l-.25-.03c-.04 0-.07-.03-.08-.07v-.04l.06-.84c-.02-.06.03-.1.09-.09zm8.97 0 .33.03.06.02.02.02.31.47v-.37a.1.1 0 0 1 .07-.09l.04-.01.26.02a.1.1 0 0 1 .09.07l.01.04-.06.83c0 .04-.03.07-.07.09l-.04.01-.34-.02-.06-.02-.02-.02-.3-.46-.01.37a.1.1 0 0 1-.07.09h-.04l-.25-.03c-.04 0-.07-.03-.08-.07v-.04l.06-.84c-.02-.06.03-.1.09-.09zM40 26.52c-.18 0-.4.07-.58.16-.56.3-.56.34-.85.55-.39.27-.66.54-.82 1.03-.1.29-.01.57.24.56.14.03.62-.02.83-.46.11-.24.34-.64.57-.79.4-.27.61-.32.83-.25.1.03.33.14.41.2a1 1 0 0 1 .2.24c.19.32.38.55.61.33l.06-.06.04-.3c-.1-.61-.55-.88-1.02-1.09a1.17 1.17 0 0 0-.52-.12zm7.68-.26c-.4.3-.72.68-.99 1.1-.23.35-.09.78.26.85.41.08.77-.77.77-.77.13-.31.53-.4.74-.38.49.05.76.52.9.69.31.36.57.18.68-.16.1-.32-.11-.53-.3-.73-.26-.27-.46-.38-.76-.6a1.2 1.2 0 0 0-1.3 0zm-1.55-2.97-.11.01-.01.09c.28.11.49.3.55.51.07.25-.08.8-.2 1.08-.08.14-.23.14-.38.08l-.02-.22c-.12-.43-.42-.86-.94-.85-.7.12-.53 1.01-.18 1.4.06.08.14.16.22.22l-.02.07c-.25.73-1.15.41-1.65-.02a1.81 1.81 0 0 1-.33-.43.96.96 0 0 0 .08-.29c-.04-.27-.29-.38-.54-.27a.37.37 0 0 0-.18.34l.05.25c-.32.37-.87.31-1.07-.22-.2-.48.28-1.07.85-1.14l-.01-.09c-.65.01-1.31.62-1.12 1.32.09.33.33.64.71.75.29.07.6-.01.84-.17.08.14.18.27.29.39 1 1.07 2.46.93 2.9-.15.52.07 1.04-.13 1.21-.7.11-.53.15-1.08-.13-1.56a.97.97 0 0 0-.7-.4h-.11zm6.44-8.04h-.1c-.41.04-.66.36-.62.77a.7.7 0 0 0 .25.49l.07.05.19-.27c-.1-.09-.15-.17-.16-.28-.01-.12.03-.22.12-.27l.06-.03.08.88.09-.01c.38-.04.7-.28.65-.73a.65.65 0 0 0-.55-.59l-.08-.01zm-.25-1.36-.1.01a.68.68 0 0 0-.55.8c.05.24.16.39.32.48l.08.04.16-.35c-.1-.06-.16-.12-.18-.22a.25.25 0 0 1 .18-.29l.07-.02c.16-.03.31.05.34.2.02.09 0 .16-.05.22l-.04.05.29.27a.63.63 0 0 0 .19-.61.7.7 0 0 0-.61-.58h-.1zm.1-1.64-1.26.39.14.44.68-.21c.14-.04.24.01.27.12.03.09-.01.17-.1.22l-.06.03-.68.21.14.44.82-.25c.29-.09.41-.3.33-.57a.5.5 0 0 0-.26-.29l-.06-.03.18-.05-.14-.45zm-.7-1.36-.25.23c.09.09.16.17.22.3.07.14.05.24-.03.3l-.05.03-.02.01c-.01-.08-.04-.2-.09-.31-.12-.25-.3-.38-.51-.32l-.08.03c-.24.11-.29.35-.18.58.06.12.14.2.24.25l.08.03-.12.06.2.41.68-.32c.17-.08.27-.18.32-.31.05-.14.03-.31-.07-.52a1.59 1.59 0 0 0-.34-.45zm-.01-1.04-1.49.96.25.39 1.49-.96-.25-.39zm-1.42-.89-.19.28c.11.06.2.12.29.23.1.12.11.22.05.3l-.04.04-.02.01a1.07 1.07 0 0 0-.17-.27c-.18-.21-.39-.28-.58-.17l-.07.05c-.2.18-.18.42-.02.61.09.1.19.16.3.18l.08.01-.1.09.3.35.57-.5c.14-.12.22-.24.22-.38.01-.15-.05-.31-.21-.48a1.07 1.07 0 0 0-.41-.35zm-1.16-1.6L48.09 8.8l.37.27.09-.13a.5.5 0 0 0 .21.39c.23.16.55.14.8-.12l.08-.1c.25-.35.18-.71-.07-.9a.4.4 0 0 0-.37-.08l-.07.02.37-.51-.37-.28zm-.29 1.17c.1-.14.27-.17.39-.08.12.09.15.26.04.4-.11.15-.27.18-.4.09-.11-.1-.13-.27-.03-.41zm-2.96-1.88.04 1.39.38.11.39-.6.02.72.38.11.74-1.17-.43-.12-.35.6-.02-.7-.37-.1-.36.56.01-.68-.43-.12zm-2.24-.07h-.09a.44.44 0 0 0-.33.19l-.04.06-.02-.18-.46.04.12 1.31.46-.04-.07-.71c-.01-.14.06-.23.17-.24.09-.01.16.04.19.14l.01.07.07.71.46-.04-.08-.86c-.02-.23-.14-.39-.32-.43l-.07-.02zm1.35 0a.65.65 0 0 0-.69.54l-.01.1c-.03.41.25.71.66.73.22.01.39-.05.51-.16l.07-.07-.24-.22c-.1.09-.19.12-.3.11-.12-.01-.21-.06-.25-.17l-.02-.07.88.06.01-.09c.02-.39-.17-.73-.62-.76z" fill-rule="evenodd" clip-rule="evenodd" fill="#dc5f44"/></svg>