<svg xmlns="http://www.w3.org/2000/svg" viewBox="0 0 88 59" xml:space="preserve"><path d="M2.9 48.2 2.8 11c0-4.6 3.7-8.4 8.3-8.4l65.6-.1c4.6 0 8.3 3.7 8.3 8.3l.2 37.2c0 4.6-3.7 8.4-8.3 8.4l-65.6.1a8.4 8.4 0 0 1-8.4-8.3" fill-rule="evenodd" clip-rule="evenodd" fill="#fff"/><path d="M83.4 17.3v-4.1c0-3.2-1.8-6-4.4-7.5L35.4 54h14.8l33.2-36.7z" opacity=".3" fill="#ffeeea"/><path d="m82.5 53.7-1.8.2-30.5.1H13.6a8.5 8.5 0 0 1-8.5-8.5L5 7.5l.2-1.9c.2-1-1.9 1.6-1.9 4.7l.1 38c0 4.7 2.5 7.4 7.2 7.4l23.3-.1h14.8l29-.1v1.1c2.8.1 5.6-3 4.8-2.9z" opacity=".1" fill="#390075"/><path opacity=".3" fill="#ffeeea" d="M5 44.3 40.7 4.8H25.9L5 28z"/><path d="m10.4 9.2-.4.7-2.3-.2.2-.3 2.5-.2zm1.5-2.1.2.8L9 7.7l.2-.4 2.7-.2zM10 6.2h1.8l.2.5-2.2-.1.2-.4zm-.2 4.1-.3.6H7.2l.2-.4 2.4-.2zm4-1.4-.6.9h.5c.3 0 .7-.1.8-.4.1-.3-.1-.5-.3-.5h-.4zm.5-.9h.5c.3 0 .6-.1.8-.4.1-.3 0-.5-.2-.5h-.5l-.6.9zm-2.1-.1.5-.8 1.5-.1.1-.1-1.5-.1.3-.6h2.7c.8 0 1.5.3 1.2 1.1-.1.3-.4.9-1.4 1.2.2 0 .7.2.6.8-.2 1-1.6 1.5-2.3 1.5h-3.2l-.2-.6 1.7-.1.1-.1h-1.7l-.2-.7 2.6-.2V9l-4.7-.2.2-.4 5-.3.2-.1-1.5-.1z" fill-rule="evenodd" clip-rule="evenodd" fill="#dc5f44"/><path d="M84.5 9.1a7 7 0 0 0-7-5.8l-67.1.1c-1.9 0-3.7.8-5 2.1a6.7 6.7 0 0 0-2.1 5.1l.1 38a7 7 0 0 0 7.2 7.1l67.1-.2a7.1 7.1 0 0 0 7.1-7.2l-.1-38a6 6 0 0 0-.2-1.2M.8 50.4l-.2-1.8-.1-38c0-2.6 1-5.2 2.9-7a9.7 9.7 0 0 1 7-2.9L77.5.5a9.8 9.8 0 0 1 9.9 9.9l.1 38a10 10 0 0 1-9.9 10l-67.1.2a10 10 0 0 1-9.7-8.2" fill-rule="evenodd" clip-rule="evenodd" fill="#0f2034"/><path d="m20.8 8.5 54.4-.1a5 5 0 0 1 5 5s0 0 0 0v32.3a5 5 0 0 1-5 5H61.7h0M26 50.6l-13.2.1a5 5 0 0 1-5-5s0 0 0 0V15.1h0" fill="none" stroke="#0f2034" stroke-linecap="round"/><path d="M31.2 20.5s-.4-.7.8-2.9c1.3-2.2 2.5-3.2 2.5-3.2s1-.4 1.4.3l.6.4 4.1 2.4L51.8 24l1.9 1h1s.7 0 2.6.8 2.1 1.1 2.1 1.1l.2.5 1.7.7 8 2.2s3 1 3.6 2.1c.7 1.1.7 1.7.1 2.1l-2.8.5-6.9.5H51.4s-.8-.4-4.7.9L38 35.3l-7-2.4s-1.2-.5-4.2-.4l-8.7-.1s-1.1-.1-1.9 1.2c0 0-1.2.1-1.4-.4 0 0-.5-6.9.1-8.8l.4-3.6.6-2.4 1.8-.4 2 .6s2 2.5 3.3 2.8h1.3l3.5.1c0-.1 3.1-.8 3.4-1" fill-rule="evenodd" clip-rule="evenodd" fill="#fff"/><path d="m33.9 23.9-6.8 4.2-7.1-2.4-.7-1.7-1.3-.5-2.7.7-.4.2v-2.1l.9-3.8.4.2 1.1-.3 1.2.1 1.1.4 1.5 1.7 1.1.8 2.2.8 7.3.2 3.7.6-1.5.9z" fill-rule="evenodd" clip-rule="evenodd" fill="#fff"/><path d="m19.6 17.9 1.2.2 1.6.9 1 1 1.9 1.3-1.9-.4-1.7-.8-1.5-1.6-.6-.6z" fill-rule="evenodd" clip-rule="evenodd" fill="#d4d4d4"/><path d="m16.4 28.5-.2.5-.6.1.4-.8h.2l.1.1.1.1zm-.6 1.3-.4.4H15l.3-.8h.3l.1.1.1.3zm.9-2.1H15l-.3.3.7.1-.7.1.1 2.3 1-.1s.6-.2.8-.6c.3-.4-.1-.7-.1-.7V29l.6-.4c.3-.3 0-.7 0-.7l-.4-.2zm42.9-.1h1l.5.6-.5.9-1.1.3-.5-.1.6-1.7z" fill-rule="evenodd" clip-rule="evenodd" fill="#cbcbcb"/><path d="m52.6 27.3 1.3.5-.2.3v.2l-.3.4-.4-.1-.8-.3-.2-.2.2-.3.1-.2.3-.3zm1.7.8 1.3.5-.2.3.1.1-.3.5-.4-.1-.8-.3-.2-.2.3-.3v-.1l.2-.4zm1.8.8h.2l1 .5.1.2-.4.7h-.2l-1.1-.4-.1-.2.5-.8z" fill-rule="evenodd" clip-rule="evenodd" fill="#e8e8e8"/><path d="m40.5 22.4 2.1.8s.3.1.3.7c-.1.6-.3 1.3.3 1.3.5 0 1.5-.9 1.5-.9l2.5 1.2-4.6 4.5-2.6-1.3-.1-1.6s-.3-.6-.8-.1l-.9.7-2.4-1.3 4.7-4z" fill-rule="evenodd" clip-rule="evenodd" fill="#fff"/><path d="m40.5 22.7 1.7.7v1.5s-.1.8.5.9c0 0 .7.1 1.2-.3l.6-.6 1.7.9-4 3.9H42l-1.7-.9v-2s-.3-.7-.9-.4l-.4.2-1 .8-1.6-.8.4-.5 3.7-3.4z" fill-rule="evenodd" clip-rule="evenodd" fill="#cbcbcb"/><path d="m15.8 18 1.8-.3h1.3l1.1.8 2.1 2 1.8.8 3 .1 2.6-.4 5.1-1.9 3-1.1 2.4-.2 3.2 1.7s2.3 1.1 1.8 1.7l-1-.5-3.5-1.9s-1.5-.5-3.3.2l-5.9 2.3s-3.8.9-5.3.8c-1.5-.1-3.8-.5-4.6-1.3-.8-.8-1.9-2.2-2.5-2.4-.6-.2-2.3 0-2.3 0s-1.1.3-.8-.4" fill-rule="evenodd" clip-rule="evenodd" fill="#eaeaea"/><path d="m17.1 32.6.9-.1 11.4.1 2 .2 6.5 2.4 5.2.6 4 .5 2.3-.8 2.3-.2 12.1.1 3.2-.2 4.2-.3s1.5-.2 2.4-.6c0 0 .3-.2.3 1.2s-.9 3-.9 3-.9 1-2.1 1.2l-3.8 1-.6-.2-1.2.4s-6.8 1.4-12.1 1L32 41.8l-1.2-.2-2.6-.1-.6.3-10.9-.1s-2.9-.3-2.6-1.9v-4.9l.4-.5s-.7-1.3.5-1.1c0 0 .4.7 1.2.1l.9-.8z" fill-rule="evenodd" clip-rule="evenodd" fill="#fff"/><path d="M16.2 33.4s.6-1 2.4-1.1c1.9-.1 10.8.3 10.8.3l2 .2 6.5 2.4-1.5.1-16.5-.2H16l.2-1.7zM35.8 15l-1.9 2.3s-1.4 1.8-1.3 2.7l-1.4.4s-.5-.6.5-2.4c1-1.9 2.2-3.4 2.8-3.7.6-.3.9-.1.9-.1s.4.3.4.8" fill-rule="evenodd" clip-rule="evenodd" fill="#cbcbcb"/><path d="M22.1 21.8c0 .3-.2 1-2.5 2.6l.3 1.3 2 .8s1.8-1.9 5.6-2.6c0 0 3.7-.6 6.3.1l2-1.3s.7-.8-.2-1.3l-1.3-1.2-4.6 1.6s-1.9.7-3.9.4c0 0-3.6-.4-4-.7.1-.1.3 0 .3.3zm-7.5 11.3.7.5h5.9l1 1.4-7 .1-.8-.2.1-1.4.1-.4zm8.1 4.7 2.6.4 1.4.8.8.9.7.8.3.7-.8.5-9.9-.1s-3 0-3.5-1.5l-.1-.9.6.1s.4.2.6 0l.6-.5.5-1.1s.4-.8 1.1-.5l5.1.4zm43.7.5 5.4-1.1s1.6 0 1.9-.9c0 0 .2 1.5-1.4 2.7L67 40.6l-.6-.2v-2.1z" fill-rule="evenodd" clip-rule="evenodd" fill="#cbcbcb"/><path d="M34 14.4c.4-.4 1-.5 1.5-.3.2.1.4.3.4.5a7 7 0 0 1 1.4.6l16.2 9.5.4.2c.5-.2 1.1-.2 1.6 0l.9.4.5.2 2.3 1.1c.4.2.6.5.6.8.8 0 1.2.4 1.3.5l5.4 1.5h.4s2.9.8 4.7 1.7c1.6.9 1.9 2.3 2 2.7.4.3.4 1 .4 1.1l-.1 1.1v.1c0 .5-.2 2.7-2.8 3.5-2.8.9-4.4 1-4.4 1h-.1l-.3-.1h-.2l-.5.3c-3.8.9-8.3 1-8.3 1H31.7l-.4-.2h-2.9l-.2.2H19c-3.9 0-4.6-1.1-4.7-1.3-.3-.4-.1-1.3-.1-1.5l-.1-3.3v-.6c0-.3 0-.6.2-.6v-.9l.2-.5.2-.1c-.1-.9-.4-4.9-.2-6.4l.3-2.4c-.1-1.9.3-3.2.4-3.3l.6-2.7.1-.3c.3-.3 1.1-.6 2.5-.5l1 .2c2 .2 3.1 1.2 3.6 1.7a11 11 0 0 0 2.5 1.8 14.2 14.2 0 0 0 5.6-.9c-.3-1 .5-2.2.5-2.2s1.9-3.2 2.4-3.6zM17.9 37.6s-.6-.2-.9.1c-.2.1-.3.2-.3.4 0 .1-.5 1.5-1.6 1.5l-.7-.1.1.9v.1c.1.2.8 1.1 4.6 1.1H28l.2-.5c0-.2-.7-1.1-1.3-1.7 0 0-.9-1.1-2.6-1.2l-6.4-.6zm48 .9-7.8.8-2.9.4c-1.3.4-4.3 1-6.1 1H37.3s-1-.1-1.6-.6c-.4-.3-2.4-.6-3.7-.6l-.9.7c0 .1-.1.8.2 1.2l.4.2H57.5c.2 0 4.6-.1 8.2-1l.4-.3-.2-1.8zm-35.2 1.9h-2.5l.3.7v.3h2.4l-.2-1zm42.8-6.2c-.3.4-1.3.7-2.9.8l-1.9.2-6.4.7-.5.1-2.9.2-5.2.3s-3 .2-5.4 0l-2.8-.3c-2.3-.3-5.4-.7-8.6-.8l-6.6-.1h-.8l-7.3-.1H14.8a.8.8 0 0 1-.5-.2V35.6h.2v.2h-.1v1.8h2.1l.3-.3c.5-.3 1.1-.1 1.2-.1l6.3.6c1.8.2 2.8 1.3 2.9 1.4h4.5l.2-.1h.1c.3 0 3.3.2 4 .7.5.5 1.3.6 1.4.6h11.9c1.8 0 4.8-.7 6-1 1-.3 2.9-.4 3-.4l7.9-.8.4-.1 6.4-1.2c.1 0 .5-.2.6-.8l.1-.9-.2-.2.1-.1v-.1c.1-.1.1-.5-.1-.6zm0 2.7-.5.3-6.3 1.2-.1 2h.1c.3 0 1.8-.2 4.3-1 1.7-.6 2.3-1.7 2.5-2.5zm-42.8 3.2h-2.8l.1.2h2.7v-.2zm.3-.4h-3.4l.2.2h3.1l.1-.2zm.4-.3h-4.1l.2.2h3.7l.2-.2zm-15.6-.5h-1.4v.2h1.2l.2-.2zm.2-.4h-1.7v.2h1.5l.2-.2zm.2-.3h-1.8v.2h1.8v-.2zm.2-.4h-2v.2h1.9l.1-.2zm38-.6v.2l-1.3.1v-.2l1.3-.1zm-3.7 0 1.3.1v.2l-1.3-.1v-.2zm6.1-.2v.2l-1.3.1v-.2l1.3-.1zm-8.5 0 1.3.1v.2l-1.3-.1V37zm10.9-.1v.2l-1.3.1V37l1.3-.1zm-13.3-.2 1.3.2v.2l-1.3-.2v-.2zm15.7 0v.2l-1.3.1v-.2l1.3-.1zm2.4-.1v.2l-1.3.1v-.2l1.3-.1zm-20.5-.2 1.3.1v.2l-1.3-.1v-.2zm22.9 0v.2l-1.3.1v-.2l1.3-.1zm2.4-.2v.2l-1.3.1v-.2l1.3-.1zm-27.7 0 1.3.1v.2l-1.3-.1v-.2zm9.5-.7c-.5 0-1 0-1.5.2l-1.6.4.8.1c2.3.2 5.3 0 5.3 0l5.2-.3 3.6-.3h-1.1l-9.1-.1h-1.6zm-11.9.5 1.3.1v.2l-1.3-.1V36zm32.4-.1v.2l-1.3.2v-.2l1.3-.2zm-34.8.1h1.3v.2h-1.3V36zm-2.4-.1h1.3v.2h-1.3v-.2zm-2.4 0h1.3v.2h-1.3v-.2zm-2.4 0h1.3v.2h-1.3v-.2zm-2.4 0H28v.2h-1.3v-.2zm-2.4-.1h1.3v.2h-1.3v-.2zm-3.8-9.7c.3.4.6.7 1.3 1.1 1.8.9 10.2 5.7 10.6 6l6.2 2.1 7 .7 1.2.1.1-.1 1.3-.4 2.5-2.2c.2-.2 2.4-2.2 3.1-2.4.7-.2 2.1.2 2.1.2l1.7.4 1.1-2.3-6.6-2.8-5.8 4.5c-.2.1-1.6 1-4.7.5a227.8 227.8 0 0 1-21.1-5.4zm1.4 9.7h1.3v.2h-1.3v-.2zm-2.4 0h1.3v.2h-1.3v-.2zm-2.4 0h1.3v.2h-1.3v-.2zm-2.4-.1H16v.2h-1.3v-.2zm58.7-.6.1.2-1.2.5-.1-.2 1.2-.5zM68.2 30c.4.3.6.5.6.7l-.2.3c-.3.2-2.1.1-3.1 0-.4 0-1.6 0-2 .2l-1 .6c-.1.1-.9.8-2.9.6l-1.9-.4-1.8-.4h-.1c-.3-.1-1.4-.3-1.9-.2-.5.1-2.3 1.7-2.9 2.3l-2 1.7c.5-.2 1.1-.2 1.6-.2h1.6l9.1.1c.2 0 6.3-.3 9.3-.6 2.4-.3 2.7-.7 2.7-.8a3 3 0 0 0-1.8-2.5 18 18 0 0 0-3.3-1.4zM18 32.5c-.1 0-.6 0-1.1.5l-.3.4h3.6c1.1 0 1.4.4 1.4.6l.7.9 14.6.2h.3l-5.8-1.9c-.1-.1-1.1-.5-3.6-.5H23l-5-.2zm-3.3.9s0 .1 0 0l-.2.3v1l.3.1h7l-.6-.7V34s-.1-.4-1.1-.4h-4.6c-.1.1-.6.1-.8-.2zm4.5-9.2c-.6-.8-2-.4-2-.4l-2 .6V24.7l-.3 2-.1 1.2.1-.2h1.5l.7.2.1.5s-.1.5-.7.7c.2.1.3.3.2.5-.1.4-.3.6-.6.7l-.6.2h-.8l.2 2.7.6.1h.6c0-.2.2-.4.4-.6.6-.6 1.3-.6 1.4-.6l5.1.1h.6l4.2.1 2.9.2-3.9-2.2-.7-.3-4.6-2.5a3.6 3.6 0 0 1-1.9-2.3 3 3 0 0 0-.4-1zm42 4c0 .2-.2.6-.5.9-.4.3-.9.4-1.6.3l-1 2.2 1.6.4c1.8.2 2.5-.4 2.6-.5l1.1-.7c.5-.3 2-.2 2.2-.2h2.9l-.5-.4-1.5-.7-5.3-1.3zm-20.1-8.9s-1.1-.8-3-.4l-3 1.1-.5.2 1.2 1s.4.3.4.8c0 .3-.1.5-.4.8-.1.2-.8.6-1.8 1.2l-.3.2-6.2 3.8 7.2 1.7.7.2 6.3 1.3c3.1.5 4.4-.5 4.4-.5.1 0 5.5-4.2 6.6-5.2l.6-.4-4.6-2.5s-.4-.3-.9-.3c-.6 0-1.2 0-1.8-.4l-1.1-.7-.1.1c-.2.1-.4 0-.6-.2a16 16 0 0 1-1.3-.8l-.3-.2-1.3-.7-.2-.1c.1 0 .1 0 0 0zm-24.7 8.5H15l-.2.2.7.1h.1v.1l-.8.1v.4h.6v.1H15l.1 1.6h.6c.4 0 1.1-.3 1.2-.8l-.1-.3-.2-.1-.1-.1V29c.6-.2.7-.6.7-.6V28c-.1-.1-.2-.2-.5-.2h-.3zm39.9 1 1.1.5.1.1v.1l-.4.8-.1.1h-.1l-1-.5-.1-.1v-.1l.4-.8.1-.1zM40.5 22l2.3 1.2.1.1v1.6l.1.2h.2c.5-.2 1.2-.9 1.2-.9h.1l2.6 1.3.1.2-4.7 4.5h-.1l-2.5-1.4-.1-.1v-1.6l-.1-.2h-.2l-1.1.9h-.1l-2.6-1.2-.1-.2 4.8-4.4h.1zm15.8 7h-.2l-.4.8.1.1 1 .5h.1l.4-.8-.1-.1-.9-.5zm-40.7.3.2.2c.1.1.1.3 0 .4l-.5.5h-.5v-.1l.3-.8c.2-.2.5-.2.5-.2zm0 .2h-.3l-.3.6h.2c.2 0 .4-.1.4-.3v-.3c.1 0 0 0 0 0zm24.9-7.1L36 26.5l2.2 1.1 1.1-.9h.5c.2.1.3.4.3.5v1.5l2.3 1.3 4.4-4.3-2.3-1.1-1.2.9h-.5c-.2-.1-.2-.3-.3-.4v-1.5c.1-.1-2-1.2-2-1.2zm16.1 6.9.2.1-.3.5-.2-.1.3-.5zm-16.1-6.8 1.7.9V25s0 .5.3.6h.6c.8-.3 1.4-1 1.4-1h.1l1.7.9s.1.1 0 .1l-4.1 3.9h-.1l-1.8-1.1-.1-1.7-.2-.4h-.5c-.7.2-1.3.9-1.3.9h-.1l-1.8-.8s-.1-.1 0-.1l4.2-3.8zM54.4 28l1.3.5.1.1-.1.2v.1l-.3.5-.1.1h-.2l-1-.5h-.3v-.1l.1-.2.1-.1v-.1l.2-.4.2-.1zm0 .1-.2.4.1.1.6.3-.1.2-.3-.1v-.1l-.5-.2-.1.2.1.1 1 .5h.2l.3-.5-.1-.1-.6-.3v-.1l.7.3.1-.2-1.2-.5zm-13.9-5.4-4 3.7 1.6.7c.2-.2.7-.7 1.3-.9h.7c.3.2.3.5.3.6l.1 1.7 1.7 1 3.9-3.8-1.6-.8c-.2.2-.7.8-1.4 1h-.7c-.3-.2-.4-.7-.4-.8v-1.5l-1.5-.9zm-24.6 5.5h.3l.2.1c.1.1.1.3 0 .4-.1.2-.3.4-.5.4h-.4l-.1-.1v-.1l.5-.7zm43.9-.5-.1.3-.5 1.2c.6.1 1 0 1.3-.3.3-.3.4-.7.4-.8-.2-.2-.5-.4-1.1-.4zm-7.1-1.6-.3.3 6.5 2.7.2-.4-6.4-2.6zm-36.5 2.3H16l-.3.6h.2c.2 0 .4-.1.4-.3l-.1-.3c.1 0 .1 0 0 0zm36.4-1.2 1.3.5.1.1-.1.2v.1l-.3.5-.1.1h-.2l-1-.5-.1-.1V28l.1-.2.1-.1v-.1l.2-.4c-.1 0 0 0 0 0zm0 .1-.2.4.1.1.6.3-.1.3-.2-.1v-.1l-.5-.2-.1.2.1.1 1 .5h.2l.3-.5-.1-.1-.7-.3v-.1l.7.3.1-.2-1.2-.6zm2.8-2.1a2.6 2.6 0 0 0-2.3.6l-.2.2 6.2 2.6.3-.7c0-.1.2-.6-.4-1l-1.6-.8-.4-.2-1.6-.7zM33.5 24c-1.2-.2-2.3-.3-3.5-.2-2 .1-5 .6-7.7 2.7l4.8 1.4 3.8-2.3 1-.6 1.6-1zm.8-3.6a22 22 0 0 1-8.3 2c-1.7 0-2.9-.3-3.8-.7.1.4 0 .9-.6 1.5l-1.9 1.5.2.6.2.5 1.7.7a14 14 0 0 1 8.1-2.9c1.9-.1 3.3.2 3.8.3h.1l1.8-1.2c.2-.2.3-.3.3-.5 0-.3-.3-.5-.3-.5l-1.3-1.3zm-15.2-1.6c-.6-.3-1.4-.4-2-.3l-.5.1-.6.1-.5 2.4v.1c-.1.3-.4 1.3-.3 2.9l1.9-.6c.1 0 1.7-.5 2.4.5l.1.2a23 23 0 0 0 1.9-1.4c.7-.6.5-1.2.4-1.4-.6-.4-1.1-1-1.6-1.5-.4-.5-.8-1-1.2-1.1zm-.8-1c-1.6 0-2.2.3-2.3.5v.1l.4-.1.2-.1.4-.1a4 4 0 0 1 2.2.3c.4.2.8.6 1.2 1.2.5.6 1.1 1.3 1.8 1.6 2.3 1 4.6.8 6.7.5 2.2-.4 4.3-1.3 6.1-2l3-1.1c1.9-.4 3.1.4 3.2.5l3.2 1.8.3.1c0-.2-.2-.4-.3-.5l-.2-.1c-2-1.2-3.4-1.9-4.4-2.1-1.4-.3-2.7 0-3.8.4l-1.1.5a27 27 0 0 1-7.1 2.4c-3 .3-5.1-.3-6.1-1l-1-1c-.5-.9-1.3-1.7-2.4-1.8zM35.8 15a69.3 69.3 0 0 0-3.1 4.8l2.2-1 1.1-.5c1.1-.4 2.5-.8 4-.4 1.4.3 3.7 1.7 4.5 2.2l.2.1c.4.2.5.6.5.7l1.1.7c.6.3 1 .3 1.6.3h.2l-11-6.4-1.3-.5zM20 18.2l1.1 1.1.9.9a6 6 0 0 0 2.5.9c-.6-.4-1.6-1-2-1.5-.2-.4-1.1-1.1-2.5-1.4zm15.3-3.8c-.2-.1-.6-.2-1.1.2L33 16.3l-.3.4-1 1.6s-.7 1-.5 1.9l1.1-.4c0-.4 0-.6.6-1.5l2.6-3.7-.2-.2z" fill-rule="evenodd" clip-rule="evenodd" fill="#0e1f34"/><path d="M52.3 24.1h1.9l1.3.6.2.7h.3l.7-.2 1.5.6.4.7-.4 1-.7.2-.4-.4-.1-.8v-.7l-.7-.4-.4.1-.1.8-.8.3-.6-.3.1-1-.4-.3-.5.1-1.4-.9.1-.1zm-10.5-6.3 1.4.2.9.6.4 1.6.7-.2.7-.3 1.3.2.9 1.1.1.8 1.3-.1 1.5.6.8 1.1-.3 1.3-.7.3-.5-.3-.1-1.3-.4-.7-1.6-.7-.3 1.1-.5.5-.6-.3-.1-2.4-1 .5-.4-.2-.5-.8-.3-.1-.3 1-.6.3-.4-.2-.2-1.6-.4-1.3-.9-.5.1-.2z" fill-rule="evenodd" clip-rule="evenodd" fill="#fff"/><path d="M58.5 26.9s-.1.1 0 0l-.4.4c-.1 0-.3.1-.4 0-.2-.1-.2-.1-.2-.3v-.3l-.2-1-.1-.1-.5-.2.7.1 1.1.5c.2.2.1.6 0 .9m-2.9-.8c-.2.2-.6.2-.8.2-.2 0-.3-.4-.2-.8v-.7l-.2-.3-.1-.1c.6.2 1.3.5 1.4 1.2l-.1.5m-1.5-1.3-.1.1-.6-.1-.9-.5.5.1c.4 0 .7.1.8.3v.1h.3m4.5.9c-.4-.4-2-1-2.6-.5v.1c-.2-.7-1-1-1.6-1.3l-.2-.1c-.5-.2-.9-.1-1.1 0a1 1 0 0 0-1.1.2 70.7 70.7 0 0 0 1.1.9c.3.2.5.2.7.2H54.1v.3c-.1.6.1 1.1.5 1.2h.2c.3 0 .7-.1.9-.3.1-.1.3-.4.2-.8l.9.4.2 1v.1c0 .2 0 .5.4.6l.3.1.4-.1c.3-.1.5-.3.5-.5v-.1c.3-.4.5-.9 0-1.4m-7.1-1.5c-.1.3-.3.5-.6.6h-.3c-.2-.1-.2-.5-.2-.8v-.2c0-.4-.3-1.2-.8-1.4l-.8-.4c.4-.1 1.2-.1 1.7.3 1 .5 1.2 1.4 1 1.9zm-3.6-1.5c-.1.5-.3.7-.6.7l-.4-.2v-2.6c-.1-.3-.3-.6-.6-.8l.6.1c.9.4 1.3 1.5 1 2.8zm-2.4-1.5-.3-.2-.3-.6.4-.1h.7c.3.1.4.2.5.5l-1 .4zm-2.1.2-.1-.1c-.2-.2-.2-.9-.1-1.3 0-.2 0-1.4-.5-1.7l-.6-.3 1.2.3c.9.4 1 .7 1 1.7-.1 1-.3 1.4-.9 1.4zm7.4.6a3 3 0 0 0-2.4-.2c0-1-.5-1.8-1.4-2.1-1.2-.4-2 .1-2 .1l-.1.2-.3.1V20c0-1.1-.2-1.6-1.2-2.1s-1.9-.3-1.9-.2c-.1 0-.2.1-.1.2l.1.1 1.1.6c.2.1.3.8.3 1.4 0 .2-.1 1.2.2 1.6l.4.2c.4 0 1-.2 1.2-1.2l.3.6.1.1.4.3h.2l.9-.4.1 2.2c.1.2.4.4.7.4.2 0 .7-.1.9-1l.1-.7 1.2.7c.3.1.6.7.6 1.1v.2c0 .4 0 .9.4 1.1l.3.1.3-.1c.3-.1.6-.4.8-.8.1-.7-.2-1.8-1.2-2.4z" fill-rule="evenodd" clip-rule="evenodd" fill="#0e1f34"/><path d="M32.7 50.2c0-.5-.2-.9-.5-1.2s-.7-.5-1.3-.5l-.5.1v-.4h2v-1.1h-3.2l-.1 2.9h1.2l.2-.4.3-.1.4.2.1.5-.1.5-.4.2-.4-.1-.2-.4H29c.1 1.1.7 1.6 1.9 1.6.6 0 1-.2 1.3-.5.3-.3.5-.8.5-1.3zm4.1 0c0-.5-.2-.9-.5-1.2-.3-.3-.7-.5-1.3-.5l-.5.1v-.4h2v-1.1h-3.2l-.1 2.9h1.2l.2-.4.3-.1.4.2.1.5-.1.5-.4.2-.4-.1-.2-.4H33c.1 1.1.7 1.6 1.8 1.6.6 0 1-.2 1.3-.5.5-.3.7-.8.7-1.3zm4.2-.7c0-.7-.1-1.2-.4-1.6-.3-.6-.8-.9-1.6-.9-.7 0-1.2.3-1.6.9-.3.4-.4 1-.4 1.6 0 .7.1 1.2.4 1.6.3.6.9.8 1.6.8a2 2 0 0 0 1.6-.8c.3-.4.4-.9.4-1.6zm-1.3 0c0 .9-.2 1.3-.7 1.3-.5 0-.7-.4-.7-1.3s.2-1.3.7-1.3c.4 0 .6.3.7.9v.4z" fill="#0e1e30"/><path d="M43.1 47.3v.5h.8v.2h-.7v.5h.7v.2H43v.5h2.3v-.5h-.8v-.2h.6V48h-.6v-.2h.8v-.5h-.8V47h-.6v.3h-.8zm2.1 2h-2V52h.5v-.8h1l-.1.3-.4-.1.1.6h.3c.4 0 .6-.2.6-.7v-2zm-1.6 1.4v-.2h1v.2h-1zm0-.7v-.2h1v.2h-1zm4-3-2.3.2.2.6h.2l-.3.2.3.6h-.2v.6h.7v.3h-.8v.5h.8v.3h-.7v.6h.7v.3l-.1.3-.5-.1.1.6h.4c.3 0 .4-.1.5-.2l.2-.6v-.4h.4v.2h.6v-1h.2v-.6h-.2v-.8h-.2l.3-.9-.3-.1.3-.1-.3-.5zm-.8 2.2h.4v.3h-.4v-.3zm0 .8h.4v.3h-.4V50zm-1-1.4.4-.2-.3-.6h.7l-.4.2.3.6.5-.3-.3-.5.7-.1-.3.8.4.2-1.7-.1zm2.9-1.5v.6H50v-.6h-1.3zm-.2.7v.6h1.8v-.6h-1.8zm.2.8v.6h1.4v-.6h-1.4zm0 .7v.6h1.4v-.6h-1.4zm1.4.8h-1.5V52h.6v-.2h.4v.2h.6l-.1-1.9zm-.9 1.1v-.6h.4v.6h-.4zm1.3-3.4-.2.9.5.2.2-1-.5-.1zm.5-.2v1.3l-.9.4.3.5.7-.3.4.2h1l.2-.1.2-.6-.5-.3v.3l-.1.1h-.6l.5-.4c.4-.4.7-.9.8-1.5l-.5-.2-.1.5a2 2 0 0 0-.4-.6l-.5.3.4.6.4-.2-.5.7-.1.1v-.9l-.7.1zm2.2.4-.5.2c.1.3.3.6.3 1l.5-.2-.3-1zm0 1.8h-2.7v1.5h-.3v.5h3.2v-.5h-.3l.1-1.5zm-2.1 1.5v-1h.2v1h-.2zm.7 0v-1h.1v1h-.1zm.6 0v-1h.2v1h-.2zm1.7-3.7v.6h.8c-.1.9-.1 1.5-.3 1.9-.1.5-.4 1-.7 1.4l.5.4c.4-.4.6-.9.8-1.5l.3-2.2h3.3v-.6h-3.3V47H55v.6h-.9zm1.7 1.2-.3 1.2.6.3.4-1.3-.7-.2zm2.2 0-.4 1.1.6.3c.2-.4.4-.8.4-1.3l-.6-.1zm-1.3-.4v1c0 .6-.1 1-.4 1.3-.3.3-.7.6-1.2.8l.3.6c.6-.2 1.1-.5 1.4-.9l.3-.4.4.6c.2.3.6.5 1.1.8l.4-.6c-.5-.2-1-.5-1.2-.9l-.4-.7v-1.4h-.7v-.2z" fill="#0f2034"/></svg>