<svg width="30" height="30" xmlns="http://www.w3.org/2000/svg"><path d="M19.844 27.51a2 2 0 01-2-2V15.205c0-2.96.723-5.781 2.513-7.93 1.557-1.896 4.48-3.185 7.227-3.96.62-.175 1.22.302 1.22.946v3.471c0 .438-.287.82-.696.977-.63.242-1.164.52-1.598.834a4.641 4.641 0 00-1.367 1.514c-.326.586-.538 1.27-.635 2.05a13.538 13.538 0 00-.147 2.098v1.318h2.444a2 2 0 012 2v6.987a2 2 0 01-2 2h-6.961zM3 27.51a2 2 0 01-2-2V15.205c0-2.96 1.567-5.71 3.357-7.86 1.55-1.887 3.82-3.226 6.387-4.016.616-.19 1.217.288 1.217.932v3.471c0 .438-.287.82-.696.977-.632.242-1.165.52-1.599.834a4.642 4.642 0 00-1.367 1.514c-.293.586-.505 1.27-.635 2.05a13.532 13.532 0 00-.146 2.098v1.318H9.96a2 2 0 012 2v6.987a2 2 0 01-2 2H3z"/></svg>