<svg xmlns="http://www.w3.org/2000/svg" xmlns:xlink="http://www.w3.org/1999/xlink" width="516" height="640">
  <g>
    <defs>
      <path id="a" d="M514.6 222.1l-511.2 43C6.8 136.4 13.7 24 20.2 11.9c.7-1.2 1.6-2 2.7-2.2C48.8 3.4 104.7 0 180 0c114.1 0 270.5 8.5 324 22.1 1 .3 1.9 1 2.2 2.1 4.7 14.5 7.5 88 8.4 197.9zM3.4 280.6c-.1 4.1-.2 8.2-.3 12.4-1.6 64.9-5.9 305.3 6.1 338.4.3.9 1.1 1.6 2 1.9 19.7 6.3 159 6.7 201.2 6.7 67.3 0 137.1-.9 191.6-2.5 93.6-2.8 98-6.2 99.6-7.5 2.1-1.7 6.1-4.7 8.9-93.8 1.6-50.2 2.4-144.7 2.4-219.2 0-26.4-.1-53.1-.3-79.3L3.4 280.6z"/>
    </defs>
    <clipPath id="b">
      <use xlink:href="#a" overflow="visible"/>
    </clipPath>
    <g clip-path="url(#b)">
      <path d="M1.2 75l-14.5-12.9v-1.7zM71.7-28.7l-19-32.1h2.1zM463.7-60.8l-10.6 21 9.4-21zM548.7 33.5v3L526.3 60zM548.7 612.3v1.8l-14.5-14.6zM482.5 735.2h-2.2l-16.6-31.6zM82.3 714.3l-9.4 20.9h-1.2zM9.1 614.9l-22.4 26.5v-3z"/>
      <path d="M1.2 75l-14.5-12.9v-1.7zM71.7-28.7l-19-32.1h2.1zM463.7-60.8l-10.6 21 9.4-21zM548.7 33.5v3L526.3 60zM548.7 612.3v1.8l-14.5-14.6zM482.5 735.2h-2.2l-16.6-31.6zM82.3 714.3l-9.4 20.9h-1.2zM9.1 614.9l-22.4 26.5v-3zM52.3 384.6l-65.6 18.9v-5.2zM53 287.8l-66.3-10.3v-5.6zM74.1 196.1l-87.4-56v-8.6zM114.7 118.7l-128-164.5v-15h3.9zM169.7 62.1L120.4-60.8h6.3zM234.4 32.6l-13.6-93.4h4zM314-60.8l-11.2 94.3 7.3-94.3zM413.5-60.8l-46 124.2 39.7-124.2zM548.7-60.8v6.1L422.3 119.9 538.7-60.8zM548.7 129v8.9l-86.5 60.8zM548.7 271.5v5.6l-65.9 13.7zM548.7 397v5.6l-66.2-15.9zM548.7 534.8v8.6l-87.4-64.6zM548.7 721.1v14.1h-4.2L420.8 556.3zM415 735.2h-6.3l-43-122.9zM314.6 735.2h-3.9l-9.7-93.4zM232.6 641.8l-7.2 93.4h-4zM167.9 611.1l-39.6 124.1h-6.4zM113.1 554.5L-3.3 735.2h-10v-6zM73.2 476.2l-86.5 69.7v-9zM13.9 430.4l-27.2 11.9v-2.1zM6.1 314.7h-19.4V313zM23.6 202.2l-36.9-17.6v-3.5zM65.4 101.1l-78.7-82.2V8.2zM126.7 24.5L84.1-60.8h4.8zM202.1-21.8l-8.5-39h1.5zM284.7-60.8l-1.3 27.5.3-27.5zM378.7-60.8L363.9-8.1l12.4-52.7zM500.3-60.8L434.4 51l58.3-111.8zM548.7 76.7V84l-60.2 53.5zM548.7 232.1v2.1l-27.5 9.9zM548.7 360.1v1.3l-19.4-1.7zM548.7 490.8v3.4l-36.9-21zM548.7 656v10.3l-78.6-92.9zM451.3 735.2h-4.8L408.7 650zM342.4 735.2h-1.8l-7-38.9zM251.7 707.8v27.4h-1.2zM171.5 682.6l-12.4 52.6h-2.4zM101 623.9L42.7 735.2h-7.3zM46.6 536.9l-59.9 60.5v-7.3z"/>
    </g>
    <g opacity=".3" clip-path="url(#b)">
      <path d="M534.2 75l14.5-12.9v-1.7zM463.7-28.7l19.1-32.1h-2.1zM71.7-60.8l10.6 21-9.4-21zM-13.3 33.5v3L9.1 60zM-13.3 612.3v1.8l14.5-14.6zM53 735.2h2.1l16.6-31.6zM453.1 714.3l9.4 20.9h1.2zM526.3 614.9l22.4 26.5v-3z"/>
      <path d="M534.2 75l14.5-12.9v-1.7zM463.7-28.7l19.1-32.1h-2.1zM71.7-60.8l10.6 21-9.4-21zM-13.3 33.5v3L9.1 60zM-13.3 612.3v1.8l14.5-14.6zM53 735.2h2.1l16.6-31.6zM453.1 714.3l9.4 20.9h1.2zM526.3 614.9l22.4 26.5v-3zM483.1 384.6l65.6 18.9v-5.2zM482.5 287.8l66.2-10.3v-5.6zM461.3 196.1l87.4-56v-8.6zM420.8 118.7L548.7-45.8v-15h-3.9zM365.7 62.1L415-60.8h-6.3zM301 32.6l13.6-93.4h-3.9zM221.4-60.8l11.2 94.3-7.2-94.3zM121.9-60.8l46 124.2-39.6-124.2zM-13.3-60.8v6.1l126.5 174.6L-3.3-60.8zM-13.3 129v8.9l86.5 60.8zM-13.3 271.5v5.6l66 13.7zM-13.3 397v5.6L53 386.7zM-13.3 534.8v8.6l87.4-64.6zM-13.3 721.1v14.1h4.2l123.8-178.9zM120.4 735.2h6.3l43-122.9zM220.8 735.2h4l9.6-93.4zM302.8 641.8l7.3 93.4h3.9zM367.5 611.1l39.7 124.1h6.3zM422.3 554.5l116.4 180.7h10v-6zM462.2 476.2l86.5 69.7v-9zM521.5 430.4l27.2 11.9v-2.1zM529.3 314.7h19.4V313zM511.8 202.2l36.9-17.6v-3.5zM470.1 101.1l78.6-82.2V8.2zM408.7 24.5l42.6-85.3h-4.8zM333.3-21.8l8.5-39h-1.5zM250.8-60.8l1.2 27.5-.3-27.5zM156.7-60.8l14.8 52.7-12.4-52.7zM35.1-60.8L101 51 42.7-60.8zM-13.3 76.7V84l60.2 53.5zM-13.3 232.1v2.1l27.5 9.9zM-13.3 360.1v1.3l19.4-1.7zM-13.3 490.8v3.4l36.9-21zM-13.3 656v10.3l78.6-92.9zM84.1 735.2h4.8l37.8-85.2zM193 735.2h1.8l7-38.9zM283.7 707.8v27.4h1.3zM363.9 682.6l12.4 52.6h2.4zM434.4 623.9l58.3 111.3h7.3zM488.8 536.9l59.9 60.5v-7.3z"/>
    </g>
  </g>
</svg>
