<?xml version="1.0" encoding="utf-8"?>
<!-- Generator: Adobe Illustrator 27.0.1, SVG Export Plug-In . SVG Version: 6.00 Build 0)  -->
<svg version="1.1" id="圖層_1" xmlns="http://www.w3.org/2000/svg" xmlns:xlink="http://www.w3.org/1999/xlink" x="0px" y="0px"
	 viewBox="0 0 375 667" style="enable-background:new 0 0 375 667;" xml:space="preserve">
<style type="text/css">
	.st0{fill:#4D68EC;}
	.st1{fill:#2570E6;}
	.st2{fill:#306DE8;}
	.st3{fill:#456AEA;}
	.st4{fill:#5B66ED;}
	.st5{fill:#5E65EE;}
	.st6{fill:#7061F1;}
	.st7{fill:#7E5FF2;}
</style>
<path class="st0" d="M147,371.1l0.5,0c-8.4,0-16.9,0.5-21.8,2.5c-1,0.4-2.3,1.4-1.8,2.4c0.2,0.3,0.5,0.5,0.9,0.7
	c3.1,1.7,48,4.8,48-0.7C172.8,372.6,157,371.1,147,371.1z"/>
<path class="st1" d="M375,667v-47.6c-15.4,1.5-30,8.8-45.6,9.5c-13.2,0.5-26.3-3.8-39.6-3.2c-19.7,0.8-37.3,12.2-56.8,15.1
	c-20.4,3-41.9-3.6-61.5,2.3c-7.3,2.2-14,6-21,9.1c-12.5,5.5-27.4,12.1-42,14.9H375z"/>
<path class="st2" d="M257.6,583.8c-19.3-11.5-42.8-13.3-65.1-15.9c-20.8-2.4-41.7-5.7-60.8-14.4c-10.3-4.7-20-10.9-30.9-14.1
	c-20-5.8-41.5-0.6-62.1-2.8c-13.4-1.4-26.1-5.9-38.6-10.9V602c11.2,1.7,22.3,4.1,33,7.7c9.3,3.1,18.4,7.1,28.1,7.9
	c18.9,1.5,36.3-9.1,54.6-14.1c45.4-12.5,93.6,10,140.2,4c3.9-0.5,8.1-1.4,10.4-4.5C271.2,596.7,264.4,587.9,257.6,583.8z"/>
<path class="st3" d="M375,389c-15.2,3.3-30.2,8.1-45.7,8.1c-16.9,0.1-33.3-5.5-49.9-8.6c-15.9-3-32.2-4-48.3-2.7
	c-24.8,2-49.2,9-74.1,7.9c-16-0.7-31.8-4.8-47.8-4.4c-33.8,0.9-64.4,21.6-98.1,24.5c-3.7,0.3-7.4,0.4-11.2,0.4v52.8
	c19.2,1.3,39.4-5.4,59.2-5.4c26.5,0,51.9,12.2,78.3,11.3c26.4-0.8,51.7-14.6,77.9-11.8c18,2,34.6,11.6,52.7,13.2
	c29.2,2.5,56.9-16.7,86.2-15c7,0.4,13.8,2,20.6,4V389z"/>
<path class="st4" d="M56.4,270.8c-3.2-1.1-6.8-0.8-10.2-0.2c-3.4,0.6-6.8,1.4-10.2,1.1c-8.3-0.8-14.8-8-23.1-7.3
	c-3.7,0.3-7,2.1-10.7,2.7c-0.7,0.1-1.5,0.2-2.2,0.2v20.5c2.4-0.2,4.8-0.2,7.1,0.1c5.5,0.7,11.1,2.5,16.5,1.2
	c4.4-1.1,7.6-4.1,11.8-5.6c7-2.4,15.7,0,22.1-3.3c1.2-0.6,2.3-1.4,2.9-2.5C61.9,275.1,59.6,271.9,56.4,270.8z"/>
<path class="st5" d="M375,217.3c-2.7,0.7-5.3,1.4-8,2c-8.1,1.6-16.5,1.9-24.7,0.9c-12-1.4-24.2-5.6-35.8-2.7
	c-9.5,2.4-16.6,9-25.8,12.1c-15.2,5.2-34.1,0-48.2,7.2c-2.6,1.3-5,3.1-6.2,5.4c-3.1,5.7,1.9,12.6,8.8,15.1
	c6.9,2.5,14.8,1.7,22.2,0.4c7.3-1.3,14.8-3.1,22.2-2.4c18.1,1.6,32.2,17.3,50.3,15.9c8.1-0.6,15.3-4.6,23.3-5.8
	c7.3-1.1,14.7,0.3,22,2.2V217.3z"/>
<path class="st6" d="M194.5,102.2c-24.1-6.4-50.7,9.3-73.9,0.2c-10.4-4.1-18.7-12.7-29.4-16c-11.7-3.6-24.3-0.2-36.4,1.4
	c-12.2,1.6-26.4,0.4-33.9-9.3c-2.1-2.7-3.3-6.1-5.8-8.4C10,65.4,4.9,64.8,0,65.4v87.8c8.2-2.6,16.3-6.7,24.8-8.2
	c19.5-3.4,39,7.2,58.8,6.5c23.8-0.8,44.6-17.6,68.3-20.2c16.4-1.8,34.8,3,48.2-6.7c3.9-2.8,7.2-7.3,6.4-12.1
	C205.7,107.1,199.9,103.7,194.5,102.2z"/>
<path class="st7" d="M375,0H100.2c8.8,9.8,22.6,15.8,35.9,18c19.6,3.2,40.1,1,59.1,6.9c21,6.5,39.1,22.8,61,24.8
	c13.6,1.2,27.1-3.2,40.6-5.3c25.6-3.9,52.6,0.5,78.1-1.5V0z"/>
</svg>
