<?xml version="1.0" encoding="utf-8"?>
<!-- Generator: Adobe Illustrator 26.5.0, SVG Export Plug-In . SVG Version: 6.00 Build 0)  -->
<svg version="1.1" id="圖層_1" xmlns="http://www.w3.org/2000/svg" xmlns:xlink="http://www.w3.org/1999/xlink" x="0px" y="0px"
	 viewBox="0 0 355 168" style="enable-background:new 0 0 355 168;" xml:space="preserve">
<defs>
	<filter id="Adobe_OpacityMaskFilter" filterUnits="userSpaceOnUse" x="136.74" y="105.76" width="67.53" height="42.67">
		<feColorMatrix  type="matrix" values="1 0 0 0 0  0 1 0 0 0  0 0 1 0 0  0 0 0 1 0"/>
	</filter>
</defs>
<mask maskUnits="userSpaceOnUse" x="136.74" y="105.76" width="67.53" height="42.67" id="psnmgx7v8c_00000057140898674157903280000008266817390328201611_">
	<g style="filter:url(#Adobe_OpacityMaskFilter);">
		
			<path id="x08j8uqw0a_00000008858783013749947650000012335080273495530171_" style="fill-rule:evenodd;clip-rule:evenodd;fill:#FFFFFF;" d="
			M140.93,106.94c-1.59,0-2.88,1.29-2.88,2.88l-1.31,33.89c0,1.58,2.61,4.72,4.19,4.72h60.46c1.59,0,2.87-1.29,2.88-2.87v-35.74
			c0-1.58-2.91-4.06-4.49-4.06L140.93,106.94z"/>
	</g>
</mask>
<linearGradient id="SVGID_1_" gradientUnits="userSpaceOnUse" x1="-712.98" y1="559.4285" x2="-717.7067" y2="559.4285" gradientTransform="matrix(14.287 0 0 -9.027 10390.6113 5177.0542)">
	<stop  offset="0" style="stop-color:#48915B"/>
	<stop  offset="1" style="stop-color:#F2D43D"/>
</linearGradient>
<path style="mask:url(#psnmgx7v8c_00000057140898674157903280000008266817390328201611_);fill-rule:evenodd;clip-rule:evenodd;fill:url(#SVGID_1_);" d="
	M140.93,106.94c-1.59,0-2.88,1.29-2.88,2.88l-1.31,33.89c0,1.58,2.61,4.72,4.19,4.72h60.46c1.59,0,2.87-1.29,2.88-2.87v-35.74
	c0-1.58-2.91-4.06-4.49-4.06L140.93,106.94z"/>
<path style="fill-rule:evenodd;clip-rule:evenodd;fill:#009A51;" d="M189.31,137.65l-40.62-0.02c-1.96,0-3.6,1.47-3.81,3.42
	l-0.05,0.5l-3.15,0c-0.58,0-1.05-0.47-1.05-1.04c0,0,0-0.01,0-0.01l0.01-29.93c0-0.28,0.11-0.54,0.31-0.75
	c0.2-0.2,0.47-0.31,0.76-0.31l54.63,0.02c0.28,0,0.55,0.11,0.75,0.31c0.2,0.2,0.31,0.47,0.31,0.75l-0.01,29.93
	c0,0.58-0.47,1.05-1.04,1.05c0,0-0.01,0-0.01,0h-3.15l-0.06-0.5C192.91,139.13,191.27,137.65,189.31,137.65"/>
<path style="fill-rule:evenodd;clip-rule:evenodd;fill:#FCBC5E;" d="M196.32,143.35c0.75,0,1.48-0.3,2.01-0.83
	c0.53-0.53,0.83-1.25,0.83-2l0.01-29.93c0.01-1.56-1.25-2.83-2.81-2.84c-0.01,0-0.02,0-0.02,0l-54.64-0.02c-0.75,0-1.47,0.3-2,0.83
	c-0.54,0.53-0.83,1.25-0.83,2l-0.01,29.93c-0.01,1.56,1.25,2.83,2.81,2.84c0.01,0,0.02,0,0.02,0h2.95l-0.12,1.16l-5.78,0
	c-0.28,0-0.55-0.11-0.75-0.31c-0.2-0.2-0.31-0.47-0.31-0.75l0.01-35.81c0-0.39,0.21-0.74,0.55-0.93c0.16-0.09,0.33-0.13,0.51-0.13
	l60.52,0.03c0.28,0,0.55,0.11,0.75,0.31c0.2,0.2,0.31,0.47,0.31,0.75l-0.01,35.81c0,0.28-0.11,0.55-0.31,0.75
	c-0.2,0.2-0.47,0.31-0.75,0.31l-5.77,0l-0.13-1.16H196.32z"/>
<path style="fill-rule:evenodd;clip-rule:evenodd;fill:#F1EAD7;" d="M164.2,126.5c-0.05,0.05-0.1,0.09-0.16,0.13v-2.3
	c0.64,0.47,0.77,1.37,0.3,2C164.3,126.4,164.26,126.45,164.2,126.5 M185.27,129.18c-0.96,0.97-2.27,1.51-3.64,1.51
	c-2.83,0.01-5.14-2.29-5.14-5.12c0-0.01,0-0.02,0-0.03c0-1.38,0.53-2.67,1.51-3.64c1.99-2.02,5.23-2.04,7.25-0.06
	c0.99,0.97,1.54,2.31,1.53,3.69C186.79,126.92,186.25,128.22,185.27,129.18 M175.92,122.89v5.31c0,0.33-0.18,0.63-0.47,0.78
	c-0.13,0.07-0.28,0.11-0.43,0.11h-11.87c-0.49,0-0.89-0.4-0.89-0.9c0,0,0,0,0,0v-5.31c0-0.24,0.09-0.47,0.26-0.63
	c0.17-0.17,0.39-0.26,0.63-0.26h11.87C175.52,122,175.92,122.4,175.92,122.89 M161.51,125.54c0.01,1.88-1.01,3.61-2.67,4.51
	c-0.76,0.42-1.61,0.64-2.48,0.63c-2.83,0.01-5.13-2.27-5.14-5.1c0-0.02,0-0.03,0-0.05c0-1.38,0.53-2.67,1.51-3.64
	c0.97-0.97,2.26-1.51,3.64-1.51c1.37,0,2.66,0.53,3.64,1.51C160.98,122.87,161.51,124.16,161.51,125.54 M187.72,129.9
	c2.4-2.41,2.4-6.31-0.01-8.72c-1.15-1.15-2.71-1.8-4.34-1.8l-28.73-0.01c-3.4,0-6.16,2.75-6.16,6.15c0,0,0,0,0,0
	c0,3.4,2.76,6.15,6.15,6.16l28.73,0.01C185.01,131.7,186.56,131.07,187.72,129.9 M173.93,126.51c-0.56-0.57-0.56-1.48,0.01-2.05
	c0.06-0.06,0.13-0.11,0.19-0.16v2.38C174.07,126.63,174,126.57,173.93,126.51"/>
<path style="fill-rule:evenodd;clip-rule:evenodd;fill:#6EBFC5;" d="M158.75,127.92c-1.31,1.31-3.43,1.32-4.75,0.01
	c0,0-0.01-0.01-0.01-0.01c-1.31-1.31-1.31-3.44,0.01-4.75c1.31-1.31,3.44-1.31,4.75,0.01C160.06,124.48,160.06,126.61,158.75,127.92
	 M171.73,125.49c0,0.66,0.2,1.29,0.57,1.82h-6.45c0.73-1.06,0.75-2.45,0.07-3.54h6.31C171.9,124.29,171.73,124.88,171.73,125.49
	 M181.64,128.91c-0.89,0-1.75-0.35-2.38-0.99c-1.31-1.32-1.31-3.45,0-4.76c1.32-1.31,3.45-1.31,4.76,0c1.31,1.32,1.31,3.45,0,4.76
	C183.39,128.56,182.53,128.91,181.64,128.91"/>
<path style="fill-rule:evenodd;clip-rule:evenodd;fill:#F9776D;" d="M191.54,143.14l0.15,1.38L169,144.5l-22.7-0.01l0.35-3.25
	c0.1-1.04,0.99-1.84,2.04-1.83l40.62,0.01c1.05,0,1.92,0.79,2.04,1.83l0.07,0.66C191.41,141.92,191.54,143.14,191.54,143.14z"/>
<path style="fill:#231815;" d="M200.39,105.05c-0.35-0.15-0.73-0.24-1.12-0.24l-60.52-0.02c-1.56-0.01-2.83,1.25-2.84,2.81
	c0,0.01,0,0.02,0,0.03l-0.02,35.81c0,0.08,0.04,0.16,0.04,0.24h-0.01c0,1.99,2.94,5.56,5,5.56h60.46c2.03,0,3.68-1.65,3.68-3.68
	v-35.74C205.07,107.91,202.37,105.5,200.39,105.05z M137.71,107.62c0-0.38,0.2-0.74,0.53-0.93c0.16-0.09,0.34-0.13,0.52-0.13
	l60.52,0.03c0.58,0,1.05,0.47,1.05,1.04c0,0,0,0.01,0,0.01l-0.01,35.81h0c0,0.28-0.11,0.55-0.31,0.75c-0.2,0.2-0.47,0.31-0.75,0.31
	h-5.77l-0.13-1.16l2.95,0c0.75,0,1.48-0.3,2.01-0.83c0.54-0.53,0.84-1.25,0.84-2l0.01-29.93c0.01-1.56-1.25-2.83-2.81-2.84
	c-0.01,0-0.02,0-0.03,0l-54.64-0.02c-1.56-0.01-2.83,1.24-2.84,2.8c0,0.01,0,0.03,0,0.04l-0.02,29.93c-0.01,1.56,1.24,2.83,2.8,2.84
	c0.01,0,0.02,0,0.03,0h2.95l-0.13,1.16h-5.76c-0.28,0-0.55-0.11-0.75-0.31c-0.2-0.2-0.32-0.47-0.32-0.75L137.71,107.62z
	 M189.31,137.65l-40.61-0.02c-1.96,0-3.6,1.47-3.81,3.42l-0.06,0.5l0,0h-3.14c-0.58,0.01-1.05-0.46-1.06-1.04c0-0.01,0-0.01,0-0.02
	l0.01-29.93c0-0.58,0.47-1.05,1.05-1.05c0,0,0.01,0,0.01,0l54.63,0.02c0.28,0,0.55,0.11,0.75,0.31c0.2,0.2,0.31,0.47,0.31,0.75
	l-0.02,29.93c0.01,0.58-0.46,1.05-1.04,1.06c-0.01,0-0.01,0-0.02,0h-3.14l-0.05-0.5C192.91,139.13,191.27,137.65,189.31,137.65z
	 M191.69,144.51L169,144.5l-22.7-0.01h0l0.35-3.25c0.11-1.04,0.99-1.83,2.04-1.83l40.62,0.01c1.04,0,1.92,0.79,2.03,1.83l0.07,0.66
	l0.14,1.21L191.69,144.51z M203.46,145.55c0,1.14-0.92,2.07-2.07,2.07h-60.46c-0.48,0-1.24-0.6-1.91-1.34h60.44l0,0
	c0.68-0.03,1.33-0.32,1.81-0.8c0.53-0.53,0.83-1.26,0.83-2.01l0.02-35.63c0.75,0.67,1.35,1.46,1.35,1.98V145.55z M183.37,117.61
	l-28.72-0.02c-4.38,0.11-7.85,3.75-7.75,8.13c0.1,4.23,3.51,7.64,7.74,7.75l28.72,0.01c1.36,0,2.68-0.34,3.83-0.98l0,0
	c0.64-0.35,1.25-0.8,1.78-1.34c1.51-1.5,2.34-3.49,2.34-5.62c0-2.12-0.83-4.11-2.33-5.62C187.5,118.44,185.48,117.61,183.37,117.61z
	 M187.72,129.91L187.72,129.91c-1.15,1.15-2.72,1.8-4.35,1.8l-28.73-0.01c-3.4-0.01-6.15-2.76-6.16-6.16c0-3.4,2.75-6.15,6.14-6.15
	c0.01,0,0.01,0,0.02,0l28.72,0.01c3.41,0.01,6.16,2.79,6.14,6.19C189.5,127.21,188.86,128.76,187.72,129.91z M185.28,121.91
	c-0.96-0.97-2.27-1.51-3.64-1.5c-1.37-0.01-2.68,0.54-3.64,1.5c-0.97,0.96-1.51,2.27-1.51,3.64c0,1.37,0.53,2.67,1.51,3.64
	c0.96,0.97,2.25,1.51,3.63,1.51c0.88,0,1.73-0.22,2.48-0.63v0c2.49-1.36,3.41-4.47,2.05-6.96
	C185.93,122.65,185.63,122.26,185.28,121.91z M184.02,127.93c-1.31,1.31-3.43,1.32-4.75,0.01c0,0-0.01-0.01-0.01-0.01
	c-1.31-1.31-1.31-3.44,0.01-4.75c1.31-1.31,3.44-1.31,4.75,0.01C185.32,124.49,185.32,126.62,184.02,127.93z M152.75,121.85
	c-0.98,0.97-1.54,2.3-1.53,3.68c0,1.38,0.54,2.67,1.51,3.64c0.97,0.97,2.26,1.51,3.64,1.51c1.37,0.01,2.68-0.54,3.64-1.51
	c0.97-0.97,1.51-2.26,1.51-3.64c0-1.37-0.54-2.68-1.51-3.64C158.01,119.88,154.76,119.86,152.75,121.85z M158.74,127.91
	c-1.32,1.31-3.45,1.31-4.76,0c-1.31-1.32-1.31-3.45,0-4.76c1.32-1.31,3.45-1.31,4.76,0c0.63,0.63,0.98,1.49,0.98,2.38h0
	C159.74,126.43,159.39,127.28,158.74,127.91z M175.03,121.99h-11.87c-0.49,0-0.89,0.4-0.89,0.89c0,0,0,0,0,0l0,5.31
	c0,0.49,0.4,0.89,0.89,0.89h11.87c0.49,0.01,0.88-0.38,0.89-0.87c0,0,0-0.01,0-0.01l0-5.31
	C175.92,122.39,175.52,121.99,175.03,121.99z M164.63,125.48C164.63,125.48,164.63,125.48,164.63,125.48c0,0.45-0.21,0.88-0.58,1.15
	v-2.3C164.41,124.6,164.63,125.03,164.63,125.48C164.63,125.48,164.63,125.48,164.63,125.48L164.63,125.48z M165.84,127.31
	c0.73-1.06,0.76-2.45,0.07-3.54h6.31v0c-0.69,1.09-0.66,2.47,0.07,3.53H165.84z M174.14,126.68c-0.66-0.44-0.83-1.33-0.39-1.99
	c0.1-0.15,0.24-0.29,0.39-0.39V126.68z"/>
<path style="fill:#44A699;" d="M328.32,45.4c0.23-1.03,0-2.11-0.75-2.78l-7.87-8.5c-0.62-0.77-1.52-1.11-2.61-0.87l-49.03,14.33
	c-2.78,0.75-5.15,3.07-6.29,5.88l-22.91,60.9c-0.31,0.67-0.13,1.16,0.29,1.68l8.29,9.02c0.31,0.39,1.11,0.59,1.6,0.41l50.83-14.72
	c3.27-0.93,6.03-3.56,7.21-6.84L328.32,45.4"/>
<path style="fill:#264B55;" d="M328.32,45.4c0.23-1.03,0-2.11-0.62-2.89l-2.43-2.5l-22.27,61.44c-1.06,2.12-2.5,3.48-4.48,4.44
	l3.56,3.92c0,0,3.87-2.04,4.25-4.46c0.28-0.44,0.57-0.88,0.75-1.44L328.32,45.4"/>
<path style="fill:#EFE7BF;" d="M316.57,25.19c-0.21-0.26-0.52-0.64-0.85-0.8c-0.44-0.28-1.13-0.36-1.86-0.2l-1.7,0.52l-50.5,14.87
	c-3.04,0.96-5.64,3.25-6.8,6.3l-24.41,64.84c-0.28,0.44-0.13,1.16,0.18,1.55l0.1,0.13l8.93,9.56c0.41,0.52,1.08,0.82,1.7,0.54
	l54.23-15.75c3.4-1.03,6.52-3.74,7.73-7.25l0.31-0.67l22.4-61.54c0.15-0.34,0.31-0.67,0.23-1.03c-0.16-0.72-0.44-1.34-0.98-1.75
	C325.3,34.49,316.57,25.19,316.57,25.19z"/>
<path style="fill:#B8AC7E;" d="M279.72,99.59c0,0,10.29-1.69,12.6-5.66l8.93,9.56l24.77-67.04c0.08-0.7-10.27-12.29-11.98-11.77
	l-1.7,0.52c0.75,0.67,0.98,1.75,0.65,2.66l-7.07,19.42c-0.16-1.78-0.67-3.48-1.84-4.67c-5.29-5.28-18.57-0.99-29.95,9.62
	c-11.49,10.48-16.79,23.4-11.76,28.89c5.29,5.28,18.57,0.99,29.95-9.62c3.27-3.05,6.1-6.37,8.22-9.55l-10.39,28.22
	c-1.31,3.38-4.61,6.66-8.24,7.67C281.91,97.84,279.9,99.02,279.72,99.59z M294.18,90.97l-0.03,0.23L294.18,90.97z"/>
<path style="fill:#CEB156;" d="M249.93,90.67c5.58,5.9,20.19,1.17,32.63-10.5c12.67-11.64,18.46-25.8,12.89-31.7
	c-1.06-1.06-2.37-1.91-4.1-2.21l-5.62-1.21l-38.54,35.34l1.14,6.7l-0.16-0.72c0.08,0.36,0.18,0.49,0.16,0.72
	C248.51,88.64,249.08,89.87,249.93,90.67z"/>
<path style="fill:#A89350;" d="M295.56,48.6c-1.06-1.06-9.93-3.68-9.93-3.68s-1.53,19.21-0.47,20.27c2.43,2.5,2.56,6.62,1.22,11.29
	C296.37,65.72,300.49,53.96,295.56,48.6"/>
<path style="fill:#1D2B55;" d="M248.23,86.96l0.03-0.23C248.36,86.86,248.23,86.96,248.23,86.96z"/>
<path style="fill:#F8DF92;" d="M262.43,84.88c0,0,3.74,6.52,3.87,6.42c0.13-0.1-6.91,1.94-6.91,1.94l-2.02-7.27L262.43,84.88z"/>
<path style="fill:#C28A27;" d="M249.09,93.05c-0.85-0.8-2.68-0.18-4.36,1.16c-1.57,1.47-2.37,3.38-1.52,4.18l3.56,3.92
	c0.85,0.8,2.78,0.31,4.36-1.16c1.57-1.47,2.37-3.38,1.52-4.18L249.09,93.05"/>
<path style="fill:#785B2F;" d="M249.09,93.05c-0.85-0.8-2.68-0.18-4.12,1.19c-0.26,0.21-0.64,0.52-0.8,0.85
	c1.13-0.7,2.45-0.9,2.96-0.26l3.56,3.92c0.62,0.77,0.23,2.14-0.72,3.33l1.16-0.93c1.57-1.47,2.37-3.38,1.52-4.18L249.09,93.05"/>
<path style="fill:#44A792;" d="M238.23,96.67c-0.72-0.9-2.55-0.28-4.36,1.16c-1.57,1.47-2.37,3.38-1.52,4.18l3.56,3.92
	c0.85,0.8,2.78,0.31,4.36-1.16c1.57-1.47,2.37-3.38,1.52-4.18L238.23,96.67 M264.82,41.93c-0.31-0.39-1.03-0.23-1.57,0.41
	c-0.52,0.41-0.72,1.21-0.51,1.47l1.37,1.44c0.31,0.39,0.93,0.1,1.57-0.41c0.52-0.41,0.72-1.21,0.51-1.47L264.82,41.93"/>
<path style="fill:#264B55;" d="M288.7,46.91c-0.85-0.8-1.96-1.39-3.1-1.75c-6.14-1.85-16.37,2.54-25.52,10.93
	c-6.13,5.55-10.12,11.92-12.1,17.11c-1.57,4.64-1.28,8.43,0.81,10.78c4.83,5.23,17.61,1.12,28.61-9.18
	C288.4,64.49,293.52,52.14,288.7,46.91 M238.23,96.67c-0.72-0.9-2.55-0.28-4.12,1.19c-0.26,0.21-0.64,0.52-0.8,0.85
	c1.13-0.7,2.45-0.9,2.96-0.26l3.56,3.92c0.62,0.77,0.23,2.14-0.72,3.33l1.16-0.93c1.57-1.47,2.37-3.38,1.52-4.18L238.23,96.67
	 M264.82,41.93c-0.31-0.39-1.03-0.23-1.44,0.31l-0.39,0.31c0.62-0.28,0.98-0.36,1.19-0.1l1.37,1.44c0.21,0.26,0.03,0.83-0.26,1.26
	l0.39-0.31c0.52-0.41,0.72-1.21,0.51-1.47L264.82,41.93"/>
<path style="fill:#316168;" d="M285.6,45.16c-6.04-1.72-16.37,2.54-25.52,10.93c-6.13,5.55-10.12,11.92-12.13,17.34
	c6.14,1.85,16.37-2.54,25.52-10.93C279.5,56.82,283.72,50.47,285.6,45.16"/>
<path style="fill:#4C7B7F;" d="M285.03,44.98c-6.09-1.26-16.06,2.93-24.72,11.14c-11,10.3-16.12,22.65-11.29,27.88
	c1.37,1.44,3.28,2.24,5.62,2.26c-1.5-0.28-2.71-1-3.66-1.93c-4.72-5.1,0.29-17.58,11.29-27.88
	C270.03,48.96,278.95,44.77,285.03,44.98"/>
<path style="fill:#DF6256;" d="M312.58,30.51c0.05-0.46-0.13-0.95-0.26-0.85l-2.43-2.5c-0.44-0.28-0.67-0.31-1.03-0.23l-7.66,2.33
	c-0.95,0.13-1.75,0.98-2.09,1.88l-2.7,7.45c-0.18,0.57-0.13,1.16,0.41,1.57l2.19,2.47c0.31,0.39,1.11,0.59,1.6,0.41l6.57-2.09
	c0.49-0.18,1.01-0.59,1.39-0.9c0.39-0.31,0.67-0.75,0.85-1.32L312.58,30.51 M291.66,70.13l-2.52,6.89l2.74,2.89l5.34-1.53l0.03-0.23
	l2.49-6.65l-2.74-2.89C296.99,68.61,291.66,70.13,291.66,70.13z"/>
<path style="fill:#9CA1C9;" d="M269.99,64.22c-0.31-0.39-1.06,0-1.83,0.62c-0.67,0.75-0.98,1.42-0.67,1.81s1.06,0,1.83-0.62
	C270,65.28,270.3,64.61,269.99,64.22"/>
<path style="fill:#9C9C9D;" d="M306.03,22.86c-1.06-1.06-2.53-1.57-3.17-1.05c-0.13,0.1-0.26,0.21-0.28,0.44l-3.32,9.85
	c-0.44,0.77-0.1,1.99,0.85,2.91s2.32,1.31,2.97,0.8c0.13-0.1,0.26-0.21,0.28-0.44l3.55-9.83C307.21,24.87,306.98,23.79,306.03,22.86
	"/>
<path style="fill:#264B55;" d="M306.03,22.86c-1.06-1.06-2.53-1.57-3.07-0.93c-0.13,0.1-0.26,0.21-0.28,0.44l-1.08,3.4
	c0.64-0.52,1.78-0.16,2.84,0.9c0.85,0.8,1.19,2.01,0.88,2.68l-2.37,6.55c0.26-0.21,0.39-0.31,0.41-0.54l3.55-9.83
	C307.21,24.87,306.98,23.79,306.03,22.86"/>
<path style="fill:#C28A27;" d="M291.66,70.13l-2.52,6.89l2.74,2.89l1.7-0.52l-2.63-2.76l2.52-6.89l3.53-1.14L291.66,70.13z"/>
<path style="fill:#221714;" d="M242.8,98.93l3.56,3.92c0.93,1.16,2.97,0.8,4.9-0.75l0.39-0.31c1.96-1.78,2.68-4.05,1.52-5.24
	l-3.56-3.92c-0.52-0.64-1.44-0.75-2.53-0.51c-0.95,0.13-1.96,0.72-2.76,1.58C242.36,95.48,241.61,97.98,242.8,98.93z M245.43,99.57
	c0.85-0.26,1.73-0.75,2.5-1.37l0.39-0.31c0.93-0.95,1.49-1.83,1.83-2.73l2.19,2.47c0.31,0.39-0.08,1.75-1.52,3.12
	c-1.44,1.37-2.89,1.68-3.2,1.29C247.62,102.05,245.43,99.57,245.43,99.57z M245.37,94.75l0.26-0.21c0.64-0.52,1.39-0.9,1.88-1.08
	c0.49-0.18,0.95-0.13,1.06,0c0.31,0.39-0.08,1.75-1.52,3.12c-1.44,1.37-2.89,1.68-3.2,1.29C243.55,97.49,243.93,96.12,245.37,94.75z
	 M272.72,106.69c-0.95,0.13-2.01,0.13-2.42-0.38c-0.41-0.52,0-1.06,0.85-1.32c0.95-0.13,2.01-0.13,2.42,0.38
	C274.08,106.02,273.67,106.56,272.72,106.69z M271.75,68.53c-3.79,3.46-8.17,4.86-9.74,3.16c-1.57-1.7,0.07-5.98,3.86-9.44
	c3.79-3.46,8.17-4.86,9.74-3.16C277.29,60.92,275.54,65.07,271.75,68.53z M291.15,100.38l0.1,0.13c0.31,0.39,0.03,0.83-0.82,1.08
	l-12.73,3.65c-0.85,0.26-1.88,0.03-2.19-0.36l-0.1-0.13c-0.31-0.39-0.03-0.83,0.82-1.08l12.73-3.65
	C289.8,99.76,290.84,99.99,291.15,100.38z M260.2,46.47c-0.03,0.23,0.31,0.39,0.44,0.28l19.07-5.77c0.36-0.08,0.52-0.41,0.67-0.75
	l0.59-2.17c0.13-0.1,0.03-0.23,0.03-0.23c-0.1-0.13-0.21-0.26-0.34-0.15l-14.85,4.71l-0.95-0.93c-0.44-0.28-1.16-0.13-1.93,0.49
	c-0.52,0.41-0.82,1.08-0.64,1.57l-0.72,0.16c-0.26,0.21-0.64,0.52-0.8,0.85l-0.67,1.81C259.95,46.68,259.95,46.68,260.2,46.47z
	 M264.51,42.6c-0.03,0.23-0.18,0.57-0.44,0.77c-0.13,0.1-0.39,0.31-0.75,0.39c-0.23-0.03-0.36,0.08-0.46-0.05
	c-0.1-0.13,0.08-0.7,0.59-1.11l0.13-0.1c0.39-0.31,0.88-0.49,0.98-0.36C264.56,42.13,264.66,42.26,264.51,42.6z M265.85,43.21
	c0.1,0.13-0.03,0.23-0.05,0.46c-0.03,0.23-0.18,0.57-0.44,0.77c-0.41,0.54-1.01,0.59-1.11,0.47l-0.85-0.8
	c0.36-0.08,0.62-0.28,0.88-0.49c0.39-0.31,0.64-0.52,0.82-1.08C265.1,42.55,265.85,43.21,265.85,43.21z M230.28,113.41l8.57,9.63
	c0.75,0.67,1.75,1.13,2.73,0.77l2.42-0.67l2.43,2.5c0.62,0.77,1.65,1,2.5,0.75l50.83-14.72c3.63-1.01,6.65-3.85,7.99-7.46L329,45.71
	c0.49-1.24,0.07-2.81-1.01-3.63l-1.88-2.09l0.8-1.91c0.51-1.47,0.2-2.91-0.98-3.87l-8.29-9.02l-0.52-0.64
	c-0.23-0.03-0.34-0.15-0.44-0.28c-0.1-0.13-0.21-0.26-0.44-0.28c-0.1-0.13-0.23-0.03-0.34-0.15l-0.7-0.08c0,0-0.1-0.13-0.23-0.03
	c-0.36,0.08-0.59,0.05-0.95,0.13l-6.19,1.79c0.23-1.03-0.11-2.24-1.06-3.17c-1.47-1.57-3.3-2.01-4.23-1.05
	c-0.26,0.21-0.41,0.54-0.57,0.88l-1.9,5.55l-38.46,11.15c-3.4,1.03-6.26,3.54-7.44,6.81l-18.59,50.45c-0.62,0.28-1.13,0.7-1.78,1.21
	c-1.96,1.78-2.68,4.05-1.52,5.24l0.52,0.64l-2.93,7.43l-0.03,0.23c0.1,0.13-0.03,0.23-0.05,0.46s-0.15,0.34-0.05,0.46
	c0,0-0.13,0.1-0.03,0.23c-0.03,0.23-0.03,0.23,0.08,0.36c-0.03,0.23-0.03,0.23,0.08,0.36L230.28,113.41
	C230.39,113.54,230.39,113.54,230.28,113.41z M237.59,97.18c0.1,0.13,0.18,0.49,0,1.06s-0.62,1.34-1.39,1.96
	c-0.77,0.62-1.42,1.14-2.14,1.29c-0.49,0.18-0.95,0.13-1.06,0c-0.31-0.39,0.08-1.75,1.52-3.12l0.26-0.21
	C236.2,97.03,237.41,96.69,237.59,97.18z M241.26,101.23c0.1,0.13,0.18,0.49,0,1.06s-0.62,1.34-1.39,1.96
	c-1.44,1.37-2.89,1.68-3.2,1.29l-2.19-2.47l0.13-0.1c0.72-0.16,1.6-0.65,2.37-1.27l0.39-0.31c0.8-0.85,1.49-1.83,1.83-2.73
	c-0.13,0.1,0,0,0,0C239.19,98.65,241.26,101.23,241.26,101.23z M311.6,29.81c0.1,0.13,0.21,0.26,0.34,0.15l-3.14,8.23
	c-0.31,0.67-0.85,1.32-1.7,1.57l-6.57,2.09c-0.23-0.03-0.46-0.05-0.67-0.31l0.39-1.37l4.61-1.37c0.49-0.18,1.11-0.47,1.49-0.77
	c0.64-0.52,0.95-1.19,1.26-1.86l2.83-7.56L311.6,29.81C311.6,29.81,311.71,29.94,311.6,29.81z M297.51,39.42l-0.21-0.26
	c-0.21-0.26-0.18-0.49-0.16-0.72l1.49-3.95c0.08,0.36,0.39,0.75,0.7,1.13l-1.36,3.84C297.84,39.57,297.61,39.55,297.51,39.42z
	 M301.32,36.79c0.8,0.21,1.62,0.18,2.14-0.23l0.13-0.1c0.26-0.21,0.28-0.44,0.44-0.77l2.85-7.79l2.19-0.7l0.23,0.03l0.21,0.26
	l-3.14,8.23c-0.33,0.9-0.98,1.42-1.83,1.68l-3.76,1.11C300.78,38.49,301.32,36.79,301.32,36.79z M300.21,34.08
	c-0.28-0.62-0.23-1.08-0.21-1.31l0.13-0.1c0.13-0.1,0.36-0.08,0.59-0.05c0.46,0.05,0.9,0.33,1.32,0.85c0.41,0.52,0.7,1.13,0.77,1.49
	l-0.15,0.34l-0.13,0.1c-0.13,0.1-0.49,0.18-0.83,0.03l0.18-0.57c0.18-0.57-0.1-1.19-0.67-1.37
	C300.75,33.43,300.39,33.51,300.21,34.08z M305.38,23.37C306,24.15,306.26,25,306,25.2l-2.85,7.79l-0.52-0.64
	c-0.52-0.64-1.29-1.08-1.86-1.26c-0.1-0.13-0.34-0.15-0.57-0.18l3.03-8.36l0.13-0.1C303.76,22.14,304.76,22.6,305.38,23.37z
	 M316.14,25.97c0.41,0.52,0.49,0.88,0.21,1.31L300.5,70.87l-0.1-0.13l-1.99-2.22l4.5-12.07c0.82-2.14,0.61-4.51-0.47-6.39
	l-2.27-3.89c-0.49-0.88-0.75-1.73-0.75-2.78c0.57,0.18,1.03,0.23,1.52,0.05l6.57-2.09c1.21-0.34,2.27-1.39,2.76-2.63l3.14-8.23
	c0.31-0.67,0.15-1.39-0.49-1.93l-1.88-2.09l3.4-1.03c0.13-0.1,0.13-0.1,0.36-0.08c0.1,0.13,0.23,0.03,0.34,0.15l0.1,0.13
	c0.23,0.03,0.23,0.03,0.34,0.15l0.1,0.13C315.78,26.05,315.78,26.05,316.14,25.97z M288.39,47.58c2.09,2.34,2.02,6.21,0.06,11.16
	c-2.21,5.16-6.1,10.6-11.46,15.53c-5.26,5.06-11.05,8.65-16.29,10.3c-5.34,1.53-9.18,1.22-11.17-0.99c-0.72-0.9-1.21-1.78-1.42-3.09
	l-0.1-0.13c-0.11-2.24,0.3-4.9,1.46-7.94c2.21-5.16,6.1-10.6,11.46-15.53c0.8-0.85,1.57-1.47,2.47-2.19
	c4.41-3.74,9.3-6.61,13.68-8.01C282.09,45,285.94,45.31,288.39,47.58z M290.11,46.83l1.26,0.26c1.5,0.28,2.71,1,3.66,1.93
	c2.43,2.5,2.38,7.19,0.12,12.81c-2.52,5.83-7.08,12.02-13.11,17.7c-5.9,5.58-12.57,9.66-18.55,11.7
	c-5.85,1.94-10.36,1.32-12.79-1.17c-0.85-0.8-1.42-2.04-1.63-3.35l-0.29-1.68c2.68,2.29,7.12,2.55,12.35,0.89
	c4.51-1.5,9.64-4.34,14.3-8.29c0.9-0.72,1.8-1.45,2.6-2.3c5.49-5.03,9.76-10.79,11.87-16.07C291.9,54.07,291.9,49.84,290.11,46.83z
	 M292.3,70.67l3.63-1.01l-1.98,5.18l-3.76,1.11C290.19,75.96,292.3,70.67,292.3,70.67z M294.27,76.29l1.57,1.7l-3.76,1.11
	l-1.68-1.83L294.27,76.29z M297.3,70.05l1.57,1.7L297,77.06l-1.57-1.7L297.3,70.05z M246.46,122.24l49.49-14.28
	c1.57-0.41,3.2-1.29,4.48-2.32c1.8-1.45,3.07-3.3,3.89-5.44l21.22-58.27l1.37,1.44l0.1,0.13c0.54,0.41,0.59,1.01,0.41,1.57
	l-21.11,58.4c-1.03,2.94-3.63,5.24-6.67,6.19l-50.96,14.82c-0.13,0.1-0.36,0.08-0.57-0.18C248.11,124.3,246.46,122.24,246.46,122.24
	z M233.64,113.89l53.38-15.5c1.57-0.41,3.2-1.29,4.48-2.32c1.8-1.45,3.07-3.3,3.89-5.44l22.58-62.11l6.5,7.06l0.1,0.13
	c0.54,0.41,0.7,1.13,0.52,1.7l-22.48,62.24c-1.16,3.04-3.91,5.68-7.19,6.61l-54.23,15.75c-0.23-0.03-0.46-0.05-0.67-0.31
	C240.53,121.7,233.64,113.89,233.64,113.89z M231.54,111.55l-0.21-0.26c-0.1-0.13-0.21-0.26-0.08-0.36l2.6-6.53l1.57,1.7
	c0.93,1.16,2.97,0.8,4.9-0.75l0.39-0.31c0.9-0.72,1.47-1.6,1.8-2.5c0.33-0.9,0.2-1.86-0.31-2.5l-3.56-3.92
	c-0.31-0.39-0.88-0.57-1.34-0.62l18.57-49.16c0.51-1.47,1.36-2.79,2.65-3.82c1.03-0.83,2.04-1.42,3.45-1.5l36.29-10.68l-0.13,0.1
	l-2.7,7.45c-0.33,0.9-0.2,1.86,0.54,2.53l1.37,1.44c-0.57,1.93-0.31,3.84,0.68,5.59l2.27,3.89c0.77,1.49,0.93,3.27,0.08,4.59
	l-4.63,12.17l-2.55,0.78c1.42-2.19,2.47-4.31,3.27-6.22c2.57-6.29,2.34-11.61-0.5-14.62c-1.16-1.18-2.71-2.06-4.54-2.5l-5.39-1.18
	c-2.4-0.62-5.72-0.28-9.26,0.86c-5.49,1.86-11.42,5.55-16.9,10.59c-5.49,5.03-9.76,10.79-11.87,16.07
	c-1.31,3.38-1.88,6.37-1.44,8.77l0.88,5.85c-0.03,0.23,0.18,0.49,0.16,0.72c0.29,1.68,1.06,3.17,2.12,4.23
	c2.94,3.14,8.05,3.71,14.62,1.61c5.36-1.76,11-5.01,16.31-9.48c0.9-0.72,1.93-1.55,2.86-2.5c2.22-1.99,4.1-4.13,5.85-6.17
	l-0.67,1.81c-0.03,0.23-0.05,0.46,0.16,0.72l2.74,2.89c0.21,0.26,0.44,0.28,0.8,0.21l5.34-1.53l-3.91,10.96
	c-1.16,3.04-3.91,5.68-7.19,6.61l-54.23,15.75C232.16,112.32,231.93,112.3,231.54,111.55z"/>
<path style="fill:#535353;" d="M175.88,88.06c4.17,17.3-18.27,37.41-50.28,45.26s-61.46,0.05-65.65-17.04
	c-4.17-17.3,18.27-37.41,50.28-45.26S171.7,70.97,175.88,88.06"/>
<path style="opacity:0.502;fill:#908F8F;enable-background:new    ;" d="M90.16,82.93l15.1,8.72l-6.19,3.93l-29.89,4.12
	C73.79,93.56,81.15,87.78,90.16,82.93z M140.15,97.62l-3.08,5.59l19.33,17.28l8.72-7.2l9.7-13.55l1.2-10.18
	C176.01,89.56,140.15,97.62,140.15,97.62z"/>
<path style="fill:#343131;" d="M125.39,133.3c-30.93,7.48-59.36,0.59-64.88-15.5c10.06,11.22,34.58,15.34,61.17,9.11
	c32.01-7.85,54.45-27.96,50.28-45.26c-0.18-0.65-0.37-1.09-0.55-1.74c2.21,2.47,3.56,5.1,4.25,8.13
	C180.05,105.36,157.39,125.67,125.39,133.3"/>
<path style="fill:#BBB8B8;" d="M170.4,79.01c-11.93-8.12-33.56-10.59-56.49-5.01c-31.8,7.86-54.45,27.96-50.28,45.26
	c0.88,3.46,2.63,6.55,5.27,9.04c-4.52-3.23-7.71-7.25-8.94-12.01c-4.17-17.3,18.27-37.41,50.28-45.26
	C135.97,64.74,159.89,68.4,170.4,79.01"/>
<path style="fill:#ED6559;" d="M139.84,95.47c1.75,6.92-7.22,14.97-19.97,17.9c-12.76,3.14-24.32-0.05-26.09-6.76
	c-1.75-6.92,7.22-14.97,19.97-17.9C126.72,85.58,138.3,88.56,139.84,95.47"/>
<path style="fill:#231815;" d="M130.76,89.85c4.21,1.08,7.08,3.16,7.78,5.97s-0.75,5.93-4.11,8.74c-3.59,3.22-8.85,5.7-14.7,7.3
	c-5.84,1.39-11.61,1.5-16.45,0.38c-4.21-1.08-7.08-3.16-7.78-5.97c-0.71-2.6,0.75-5.93,4.11-8.74c3.59-3.22,8.85-5.7,14.7-7.3
	c3.03-0.69,6.25-1.15,9.45-1.19C126.11,88.96,128.44,89.3,130.76,89.85 M120.21,114.88c6.49-1.57,12.19-4.45,16.01-7.87
	c4.26-3.82,5.99-7.99,5.13-11.88c-0.85-3.89-4.53-6.86-10.01-8.23c-5.26-1.36-11.45-1.27-17.94,0.3
	c-6.49,1.57-12.19,4.45-16.01,7.87c-4.26,3.82-5.99,7.99-5.13,11.88s4.53,6.86,10.01,8.23c2.32,0.55,5.07,0.92,7.85,0.86
	C113.52,116.22,116.96,115.77,120.21,114.88 M123.84,99.29c0.53,1.95-2.16,4.36-5.85,5.44c-3.68,0.87-7.26,0.03-7.79-1.92
	c-0.53-1.95,2.16-4.36,5.85-5.44S123.3,97.34,123.84,99.29 M153.07,72.08c11.57,2.98,19.14,8.94,20.86,16.51
	c1.93,7.57-2.17,16.31-10.94,24.37c-9.2,8.25-22.8,14.97-37.94,18.62c-15.14,3.65-30.09,3.9-42.3,0.88
	c-11.57-2.98-19.14-8.94-20.86-16.51c-1.92-7.79,1.97-16.54,10.95-24.58c9.2-8.25,22.8-14.97,37.94-18.62
	c8.22-2.11,16.38-2.94,24.27-2.94C141.45,69.95,147.61,70.5,153.07,72.08 M165.41,115.65c10.1-9.05,14.27-19.06,12.2-27.93
	c-2.28-9.09-10.65-15.95-23.69-19.44c-12.63-3.25-28.21-3.04-44,0.79c-15.79,3.83-29.82,10.74-39.47,19.39
	c-10.1,9.05-14.27,19.06-12.2,27.93c2.28,9.09,10.65,15.95,23.7,19.22c5.89,1.6,12.25,2.38,19.08,2.33
	c8.11,0.02,16.49-1.02,25.14-3.1C141.71,131.42,155.75,124.51,165.41,115.65z"/>
<path style="fill:#FEF1DE;" d="M218.28,129.21l-3.51-15.35l0.05-0.37l10.04-10.6c0.21-0.16,0.4-0.14,0.37,0.05
	c0,0,0.19,0.02,0.16,0.21l3.86,15.59l-0.05,0.37l-10.38,10.37l-0.21,0.16L218.28,129.21z M218.39,131.3
	c-0.19-0.02-0.19-0.02-0.21,0.16l-8.85,8.68c-0.21,0.16-0.05,0.37-0.07,0.56l0.19,0.02l15.67,1.44c0.19,0.02,0.19,0.02,0.21-0.16
	l8.82-8.49c0.21-0.16,0.23-0.35,0.05-0.37l-0.19-0.02C234,133.11,218.39,131.3,218.39,131.3z M225.73,143.18l14.13,1.62l0.19,0.02
	c0.16,0.21,0.14,0.4-0.07,0.56l-7.45,6.59l-0.21,0.16l-13.81-1.2l-0.19-0.02c-0.16-0.21-0.14-0.4,0.07-0.56l7.12-7.01L225.73,143.18
	z M267.79,135.92l-13.02-1.48l-0.19-0.02c-0.16-0.21-0.14-0.4,0.07-0.56l10.43-9.23l0.21-0.16l13.71,1.94c0,0,0.19,0.02,0.16,0.21
	c0.16,0.21,0.14,0.4-0.07,0.56l-11.12,8.77C267.98,135.95,267.79,135.92,267.79,135.92z M260.98,106.56l-2.18-2.17
	c0,0-0.19-0.02-0.16-0.21l-3.58-13.29l0.05-0.37c0.21-0.16,0.4-0.14,0.37,0.05l5.51,5.61l0.16,0.21l2.83,10.36
	c-0.02,0.19-0.05,0.37-0.23,0.35l-0.19-0.02L260.98,106.56z M211.29,113.03l-15.85,7.41c-0.21,0.16-0.37-0.05-0.35-0.23l-2.46-16.16
	c0.02-0.19,0.05-0.37,0.23-0.35l14.88-7.15c0.21-0.16,0.37,0.05,0.37,0.05l3.62,15.93C211.52,112.69,211.5,112.87,211.29,113.03z"/>
<path style="fill:#64ADA0;" d="M243.31,78.07l-16.48,7.89c-0.21,0.16-0.37-0.05-0.37-0.05l-3.21-13.24
	c0.02-0.19,0.05-0.37,0.23-0.35l16.11-7.94c0.21-0.16,0.37,0.05,0.35,0.23l3.58,13.29C243.52,77.91,243.49,78.1,243.31,78.07z
	 M207.92,139.4l-3.39-14.77l0.05-0.37l8.73-9.26c0.21-0.16,0.4-0.14,0.37,0.05l0.16,0.21l3.32,15.33l-0.05,0.37l-8.87,8.87
	l-0.21,0.16C208.08,139.61,207.89,139.58,207.92,139.4z M261.96,107.82c-0.19-0.02-0.4,0.14-0.42,0.32l-0.02,0.19l3.72,15.19
	c-0.02,0.19,0.16,0.21,0.35,0.23l14.27,2.01c0.19,0.02,0.4-0.14,0.42-0.32l0.02-0.19l-3.74-15.01c-0.19-0.02-0.16-0.21-0.35-0.23
	C276.2,110.02,261.96,107.82,261.96,107.82z M242.09,145.09l11.72,1.31c0,0,0.19,0.02,0.16,0.21c0.16,0.21,0.14,0.4-0.07,0.56
	l-8.17,6.31l-0.21,0.16l-11.19-1.05l-0.19-0.02c-0.16-0.21-0.14-0.4,0.07-0.56l7.45-6.59C241.91,145.06,241.91,145.06,242.09,145.09
	z M265.07,107.08l-2.34-8.22l0.05-0.37c0.21-0.16,0.4-0.14,0.37,0.05l3.68,3.68l0.16,0.21l1.24,5.06c-0.02,0.19-0.05,0.37-0.23,0.35
	l-2.78-0.36C265.23,107.29,265.04,107.27,265.07,107.08z M204.53,81.79l3.03,13.22c-0.02,0.19-0.05,0.37-0.23,0.35l-14.69,7.18
	c-0.21,0.16-0.37-0.05-0.37-0.05l0.02-0.19l-2.05-13.47c0.02-0.19,0.05-0.37,0.23-0.35l13.9-6.9
	C204.18,81.56,204.37,81.58,204.53,81.79z"/>
<path style="fill:#43719B;" d="M249.25,95.06l7.2,7.15c0.16,0.21,0.37,0.05,0.37,0.05l0.05-0.37l-3.56-13.47
	c0,0,0.02-0.19-0.16-0.21l-7.18-7.33c-0.16-0.21-0.37-0.05-0.37-0.05l-0.05,0.37L249.25,95.06z M254.17,87.58l-2.96-10.76l0.05-0.37
	c0.21-0.16,0.4-0.14,0.37,0.05l5.49,5.8l0.16,0.21l2.8,10.55l-0.05,0.37c-0.21,0.16-0.4,0.14-0.37-0.05L254.17,87.58
	C254.14,87.76,254.14,87.76,254.17,87.58z M230.26,119.61l15.38,2.16l0.19,0.02c0.16,0.21,0.14,0.4-0.07,0.56l-10.13,9.84
	l-0.21,0.16l-15.62-1.81l-0.19-0.02c-0.16-0.21-0.14-0.4,0.07-0.56l10.17-10.21C230.07,119.59,230.07,119.59,230.26,119.61z
	 M243.61,143.58l9.36-8.24l0.21-0.16l12.83,1.45c0,0,0.19,0.02,0.16,0.21c0.16,0.21,0.14,0.4-0.07,0.56l-10.26,7.93l-0.21,0.16
	l-11.9-1.33l-0.19-0.02C243.37,143.93,243.4,143.75,243.61,143.58z M225.41,86.73l-16.48,7.89c-0.21,0.16-0.37-0.05-0.37-0.05
	l-3.03-13.22c0.02-0.19,0.05-0.37,0.23-0.35l16.11-7.94c0.21-0.16,0.37,0.05,0.37,0.05l3.21,13.24
	C225.62,86.57,225.59,86.75,225.41,86.73z"/>
<path style="fill:#E08956;" d="M212.36,112.04l-3.62-15.93c0.02-0.19,0.05-0.37,0.23-0.35l16.48-7.89c0.21-0.16,0.37,0.05,0.37,0.05
	l3.24,13.06c-0.02,0.19-0.05,0.37-0.23,0.35l-0.19-0.02l-3.13-0.59c-0.19-0.02-0.37-0.05-0.4,0.14l-9.15,9.58l-3.21,1.48
	C212.68,112.46,212.52,112.25,212.36,112.04C212.34,112.23,212.36,112.04,212.36,112.04 M261.83,95.54l-2.64-10.34l0.05-0.37
	c0.21-0.16,0.4-0.14,0.37,0.05l4.14,4.49l0.16,0.21l2.34,9.73l-0.05,0.37c-0.21,0.16-0.4,0.14-0.37-0.05L261.83,95.54
	C262.01,95.56,261.83,95.54,261.83,95.54 M236.05,133.37l14.88,1.71l0.19,0.02c0.16,0.21,0.14,0.4-0.07,0.56l-9.36,8.24l-0.21,0.16
	l-14.34-1.46l-0.19-0.02c-0.16-0.21-0.14-0.4,0.07-0.56l8.82-8.49C235.86,133.35,235.86,133.35,236.05,133.37"/>
<path style="fill:#E9CB5D;" d="M199.09,147.89l-2.42-15.03l0.05-0.37c2.17-2.18,4.38-4.72,6.54-6.9l0.21-0.16
	c0.21-0.16,0.4-0.14,0.37,0.05l0.16,0.21l3.21,14.75l-0.05,0.37l-7.54,7.34c0,0-0.19-0.02-0.21,0.16
	C199.23,148.29,199.07,148.08,199.09,147.89z M237.37,131.84c-0.21,0.16-0.23,0.35-0.07,0.56l0.19,0.02l15.06,1.74
	c0.19,0.02,0.19,0.02,0.21-0.16l10.43-9.23c0.21-0.16,0.23-0.35,0.07-0.56l-0.19-0.02l-15.38-2.16c-0.19-0.02-0.19-0.02-0.21,0.16
	L237.37,131.84z M230.24,118.29l-3.83-15.77c0.02-0.19,0.05-0.37,0.23-0.35l0.19,0.02l16.08,2.62c0.19,0.02,0.19,0.02,0.35,0.23
	l3.48,15.54c-0.02,0.19-0.05,0.37-0.23,0.35l-0.19-0.02l-15.76-2.2C230.56,118.71,230.24,118.29,230.24,118.29z"/>
<path style="fill:#DD6D5F;" d="M232.89,102.02l0.19,0.02l14.85-6.97c0.19,0.02,0.21-0.16,0.23-0.35l-4.06-15.43
	c0.02-0.19-0.16-0.21-0.35-0.23l-16.48,7.89c-0.19-0.02-0.21,0.16-0.23,0.35l3.49,14.03c-0.02,0.19,0.16,0.21,0.35,0.23
	C230.66,101.74,232.89,102.02,232.89,102.02z M200.48,148.82l7.36-7.36l0.21-0.16l15.46,1.6l0.19,0.02c0.16,0.21,0.14,0.4-0.07,0.56
	l-7.31,6.99l-0.21,0.16l-15.67-1.44l-0.19-0.02C200.44,149.19,200.28,148.98,200.48,148.82z M244.58,105.03l15.52,2.55
	c0.19,0.02,0.19,0.02,0.35,0.23l3.72,15.19c-0.02,0.19-0.05,0.37-0.23,0.35l-0.19-0.02l-15.76-2.2c-0.19-0.02-0.19-0.02-0.35-0.23
	l-3.51-15.35C244.18,105.17,244.39,105,244.58,105.03z M251.81,85.39l-7.18-7.33l-0.16-0.21l-3.05-11.52l0.05-0.37l0.56,0.07
	l7.31,7.73l0.16,0.21l2.94,10.94l-0.05,0.37C252.18,85.43,251.99,85.41,251.81,85.39z"/>
<path style="fill:#231815;" d="M243.51,79.42l-16.48,7.89l3.49,14.03l2.41,0.31l14.85-6.97C247.76,94.87,243.51,79.42,243.51,79.42z
	 M226.66,85.76l16.48-7.89l-3.58-13.29l-16.11,7.94C223.45,72.52,226.66,85.76,226.66,85.76z M209.13,95.97l3.62,15.93l3.21-1.48
	l9.15-9.58c0.21-0.16,0.42-0.32,0.79-0.28l3.13,0.59L225.8,88.1C225.8,88.1,209.13,95.97,209.13,95.97z M205.74,81.19l3.03,13.22
	l16.48-7.89l-3.21-13.24C222.03,73.28,205.74,81.19,205.74,81.19z M207.16,95.15l-3.03-13.22l-13.9,6.9l2.05,13.47
	C192.28,102.3,207.16,95.15,207.16,95.15z M211.15,112.64l-3.62-15.93l-14.88,7.15l2.46,16.16
	C195.11,120.02,211.15,112.64,211.15,112.64z M215.16,113.72l3.51,15.35l10.38-10.37l-3.86-15.59L215.16,113.72z M206.82,140.58
	l-3.21-14.75l-0.21,0.16l-6.54,6.9l2.42,15.03C199.47,147.94,206.82,140.58,206.82,140.58z M204.92,124.48l3.39,14.77l8.87-8.87
	l-3.53-15.17C213.65,115.22,204.92,124.48,204.92,124.48z M246.37,120.54L242.88,105l-9.79-1.63l-6.29-0.99l3.83,15.77
	L246.37,120.54z M235.47,131.98l10.13-9.84l-15.38-2.16l-10.36,10.18C219.85,130.17,235.47,131.98,235.47,131.98z M225.16,141.79
	l8.82-8.49l-15.62-1.81l-8.85,8.68C209.52,140.17,225.16,141.79,225.16,141.79z M216.31,150.47l7.31-6.99l-15.46-1.6l-7.36,7.36
	C200.65,149.03,216.31,150.47,216.31,150.47z M263.79,122.96l-3.72-15.19l-15.52-2.55l3.51,15.35
	C248.06,120.57,263.79,122.96,263.79,122.96z M252.6,133.79l10.43-9.23l-15.38-2.16l-10.1,9.65
	C237.54,132.05,252.6,133.79,252.6,133.79z M241.54,143.51l9.36-8.24l-14.88-1.71l-8.82,8.49
	C227.2,142.05,241.54,143.51,241.54,143.51z M232.37,151.77l7.63-6.57l-14.16-1.43l-7.12,7.01L232.37,151.77z M242.07,145.27
	l-7.45,6.59l11.19,1.05l8.17-6.31C253.98,146.61,242.07,145.27,242.07,145.27z M253.12,135.56l-9.36,8.24l11.9,1.33l10.28-8.12
	C265.96,137.01,253.12,135.56,253.12,135.56z M265.23,125.03l-10.43,9.23l13.02,1.48l11.12-8.77L265.23,125.03z M261.91,108.19
	l3.72,15.19l14.27,2.01l-3.74-15.01L261.91,108.19z M263.12,98.72l2.32,8.41l2.6,0.33l-1.24-5.06L263.12,98.72z M259.4,85.04
	l2.83,10.36l3.84,3.89l-2.34-9.73L259.4,85.04z M255.27,90.74l3.58,13.29l2.36,2.19l2.41,0.31l-2.83-10.36
	C260.81,96.16,255.27,90.74,255.27,90.74z M251.6,76.68l2.96,10.76l5.53,5.42l-2.8-10.55L251.6,76.68z M252.04,85.04L249.1,74.1
	l-7.31-7.73l3.05,11.52C244.84,77.89,252.04,85.04,252.04,85.04z M256.49,101.84l-3.56-13.47l-7.18-7.33l3.7,13.87
	C249.46,94.9,256.49,101.84,256.49,101.84z M198.09,149.84l-2.74-16.95c0.02-0.19,0.07-0.56,0.28-0.72l6.1-6.39l-7.46-3.6
	c-0.19-0.02-0.32-0.42-0.49-0.63l-5.2-33.12c-0.14-0.4,0.09-0.74,0.49-0.88l50.75-25.02c0.4-0.14,0.77-0.09,0.93,0.12l9.63,10.29
	l7.8,8.36l6.48,6.87c0.19,0.02,0.16,0.21,0.14,0.4l3.07,12.85l1.52,5.85l7.22,1.11c0.37,0.05,0.53,0.26,0.67,0.65l4.62,17.01
	c0.14,0.4-0.1,0.74-0.3,0.9l-24.96,19.64l-10.05,7.77c-0.21,0.16-0.4,0.14-0.58,0.11l-47.02-4.13
	C198.37,150.63,198.04,150.21,198.09,149.84z"/>
<path style="opacity:0.7;fill:#43719B;enable-background:new    ;" d="M196.64,121.35l15.06-7.13l0.35,0.23l-9.75,9.88
	L196.64,121.35z"/>
<path style="opacity:0.7;fill:#64ADA0;enable-background:new    ;" d="M248.71,96.31l8.08,7.64l-4.48,1.12l-16.82-2.72L248.71,96.31
	z"/>
<path style="opacity:0.7;fill:#E08956;enable-background:new    ;" d="M257.79,105.02l1.18,1.09l-3.9-0.5
	C255.07,105.62,257.79,105.02,257.79,105.02z"/>
<path style="fill:#5C5743;" d="M21.44,46.25C33.82,32.39,51.42,22.3,67.76,20.8c10.6-0.82,18.85,1.88,23.85,7.62l6.03,6.74
	l-80.89,71.15l-6.28-6.8c-6.09-6.5-7.74-16.79-3.9-28.84c0.23-0.96,0.69-1.87,0.92-2.83C10.8,60.25,15.6,52.75,21.44,46.25"/>
<path style="fill:#FBE9A6;" d="M73.98,27.84c23.83-2.03,35.72,15.48,26.6,39.23s-36.09,44.59-59.97,46.87
	c-23.83,2.03-35.72-15.48-26.6-39.23S50.15,29.87,73.98,27.84"/>
<path style="fill:#00807A;" d="M70.22,37.37c-18.68,1.72-39.48,17.91-46.58,36.3s2.15,31.98,20.53,30.45
	c18.68-1.72,39.48-17.91,46.58-36.3C98.15,49.25,88.9,35.65,70.22,37.37z M50.85,92.99c-7.06,0.88-15.44-2.35-17.17-10.12
	c-2.05-8.6,3.04-17.31,9.36-23.7c7.92-7.79,19.64-13.42,29.47-9.85l0.48,0.11c3.92,1.68,6.97,4.93,7.99,9.23
	C84.62,74.5,66.52,91.08,50.85,92.99z"/>
<path style="fill:#005D6B;" d="M80.95,41.41c-8.62-3.29-18.71-0.32-27.39,4.24C38.81,53.36,25.76,66.8,24.2,83.19
	c-0.46,5.22,0.7,11.08,5.25,14.43c7.89,6.42,20.73,3.59,30.85-1.66c14.46-7.53,27.39-20.49,29.67-36.71
	c1.1-6.85-1.06-14.97-8.72-18.03C81.19,41.46,81.19,41.46,80.95,41.41 M83.45,36.16c6.03,2.43,10.66,7.57,12.2,14.03
	c1.97,7.82-0.18,15.95-3.8,22.72c-9.6,19.32-30.36,34.26-50.68,34.32c-9.65,0.02-19.5-5.59-22.17-15.86
	c-1.97-7.82,0.18-15.95,3.8-22.72C31,52.04,47.58,38.66,65.4,35.22C71.31,33.82,77.66,33.78,83.45,36.16"/>
<path style="fill:#F28840;" d="M63.44,81.47c6.11-4.41,11.41-10.78,11.95-18.52c0.25-3.24-1.18-6.88-4.68-8.2
	c-6.33-2.24-13.95,1.05-19.82,5.51S39.73,71.09,39,78.54c-0.25,3.24,1.12,7.12,4.62,8.44C49.95,89.22,57.57,85.93,63.44,81.47z"/>
<path style="fill:#E95255;" d="M60.69,61.79c4.91-0.37,7.36,3.25,5.46,8.13c-1.91,4.88-7.48,9.16-12.44,9.78
	c-4.91,0.37-7.36-3.25-5.46-8.13C50.16,66.68,55.73,62.4,60.69,61.79 M73.28,86.06L93,89.66l14.75,16.15l-15.27,1.25
	C92.48,107.06,73.28,86.06,73.28,86.06z M70.44,88.44l1.49,19.64l14.75,16.15l2.72-14.85C89.39,109.38,70.44,88.44,70.44,88.44z"/>
<path style="fill:#FEBF60;" d="M92.34,109.82c0.65-0.61,0.93-1.81,0.14-2.76L59.15,70.56c-0.85-0.71-1.81-0.93-2.76-0.14
	c-0.65,0.61-0.93,1.81-0.14,2.76l33.09,36.44C90.19,110.33,91.45,110.37,92.34,109.82"/>
<path d="M93.94,88.87l-0.42-0.35l-4.63-0.83c5.54-6.32,9.94-13.16,12.65-20.39c4.56-11.88,4.28-22.6-1.05-30.2
	c-0.55-0.89-1.16-1.54-1.77-2.19l-7.31-7.8c-5.3-5.56-13.85-8.07-23.72-7.08C51.88,21.4,33.81,31.38,20.77,45.84
	C14.64,52.52,9.83,60.02,7.07,67.5c-0.47,0.91-0.69,1.87-0.92,2.83c-3.84,12.05-2.3,22.81,3.92,29.85l6.28,6.8
	c2.44,2.6,5.28,4.54,8.78,5.86c4.4,1.79,9.87,2.31,15.79,1.92c9.88-0.99,20.19-4.91,29.75-11.05l0.43,4.67l0.13,0.54l15.17,16.5
	c0.18,0.3,0.67,0.41,0.91,0.47l0.78-0.07l0.54-0.13l1.83-14.29c0.96,0.23,1.8-0.09,2.69-0.64c0.65-0.61,1.06-1.27,1.05-2.29
	l0.06-0.24l13.71-1.1c0.24,0.06,0.54-0.13,0.89-0.55l0.41-0.67l0.11-0.48C109.36,105.43,93.94,88.87,93.94,88.87z M7.78,70.96
	C8,70,8.47,69.1,8.7,68.13c2.71-7.23,7.46-14.5,13.35-21.24c12.92-13.98,30.4-23.59,45.67-24.83c5.45-0.5,10.61,0.2,14.83,1.7
	c3.26,1.27,5.86,3.15,8.11,5.45c-4.83-2.15-10.47-2.96-16.94-2.45C49.6,28.98,22.28,50.25,12.86,74.19
	c-3.64,9.05-4.12,17.56-1.68,24.48C5.34,92.22,4.11,82.29,7.78,70.96z M40.65,112.68c-11.19,1.18-20-2.4-24.96-9.4
	c-4.9-7.24-5.11-17.19-0.72-28.34c9.01-23.27,35.44-43.98,59.02-46.07c5.69-0.44,10.61,0.2,14.83,1.7c4.22,1.5,7.38,4.27,9.88,7.65
	c4.9,7.24,5.11,17.19,0.72,28.34c-2.71,7.23-7.4,14.26-12.94,20.57l-2.7-0.38c3.48-4.01,6.59-8.61,8.97-13.38
	c2.91-5.92,6.01-14.84,3.73-23.49c-1.53-6.45-6.29-12.14-12.81-14.68c-5.36-2.02-11.61-2.47-18.3-0.99
	c-17.87,3.68-34.94,16.94-43.5,33.97c-2.91,5.92-6.01,14.84-3.73,23.49c1.79,7.53,7.26,12.36,13.34,14.55
	c3.26,1.27,6.44,1.76,9.74,1.77c9.65-0.02,19.85-3.47,28.87-9.48l0.16,2.58C60.89,107.52,50.47,111.93,40.65,112.68z M66.95,63.25
	c-1.35-1.84-3.4-2.83-6.27-2.48c-5.21,0.56-11.08,5.02-13.33,10.33c-1.16,2.77-0.94,5.11,0.4,6.95c0.55,0.89,1.64,1.65,2.55,2.12
	c1.15,0.52,2.41,0.56,3.72,0.36c1.8-0.09,3.76-0.89,5.79-1.94l2.44,2.6c-3.68,2.69-11.29,7-17.85,4.7c-3.02-1.21-4.02-4.5-3.88-7.26
	c0.54-7.74,6.57-13.94,11.49-17.61c4.03-3.12,11.75-7.91,18.74-5.25c3.02,1.21,4.26,4.55,4.12,7.31c-0.41,4.98-3.03,9.7-7.4,14.26
	l-2.44-2.6c1.06-1.27,1.94-2.85,2.51-4.23C68.21,67.61,68.06,65.04,66.95,63.25z M55.3,73.98l2.8,3.2c-1.48,0.92-3.1,1.3-4.41,1.5
	c-2.09,0.27-3.48-0.31-4.46-1.55c-0.74-1.19-0.82-2.99-0.08-5.09c1.85-4.64,6.83-8.55,11.5-8.98c1.02-0.02,2.04-0.03,2.7,0.38
	c0.72,0.17,1.33,0.82,1.7,1.41c0.74,1.19,0.82,2.99,0.08,5.09c-0.52,1.15-1.05,2.29-2.05,3.33l-3.05-3.25
	c-1.22-1.3-3.2-1.51-4.5-0.29c-0.65,0.61-1.06,1.27-1.05,2.29C54.38,72.49,54.69,73.33,55.3,73.98z M76.36,63.18
	c0.31-3.48-1.25-7.65-5.41-9.39c-7.71-2.82-16.27,2.28-20.6,5.58c-5.22,3.85-11.59,10.48-12.31,18.94c-0.31,3.48,1.2,7.89,5.17,9.33
	c7.42,3.01,15.97-2.09,19.95-4.97l2.62,2.9C60.92,89,55.56,91.3,50.35,91.85c-6.82,0.94-14.48-2.12-16.08-9.35
	c-1.66-6.99,1.81-15.31,9.13-22.73c6.91-6.76,18.38-13.46,28.45-9.83l0.24,0.06c3.74,1.38,6.54,4.58,7.38,8.58
	c1.61,7.23-1.42,13.63-4.36,17.51c-1.17,1.76-2.88,3.64-4.54,5.28l-2.86-2.95C73.1,73.83,76.08,68.69,76.36,63.18z M77.29,77.61
	c4.52-6.3,6.1-13.04,4.75-19.19c-0.97-4.54-4.14-8.33-8.6-9.88l-0.48-0.11c-10.97-4.09-23.28,2.92-30.54,10.1
	c-7.92,7.79-11.56,16.84-9.83,24.6c1.09,5.08,4.68,8.2,8.84,9.94c3.02,1.21,6.26,1.47,9.37,1.18c5.5-0.74,11.4-3.17,16.56-6.78
	l1.83,1.95l-0.06,0.24c-2.79,2.14-6.05,4.17-9.5,5.9c-6.61,3.27-13.41,5.23-18.99,5.2c-4.32,0-7.81-1.32-10.84-3.56
	c-3.34-3.07-4.97-8.02-4.4-13.72c1.29-14.17,12.17-28.11,28.71-36.93c6.96-3.7,17.51-7.57,26.61-4.17l0.48,0.11
	c7.42,3.01,8.85,10.96,7.98,16.85c-1.42,9.31-6.51,18.02-14.37,25.57l-0.72-0.17l-1.64-1.65C74.11,81.43,75.82,79.55,77.29,77.61z
	 M91.12,59.78c1.04-6.61-0.89-15.69-9.22-19.17l-0.48-0.11c-9.82-3.57-20.62,0.25-28.17,4.31C36.12,54,24.88,68.37,23.43,83.26
	c-0.74,6.43,1.5,12.03,5.5,15.5c1.27,1.06,2.85,1.94,4.47,2.57c2.35,0.8,4.76,1.37,7.57,1.27c6.06,0.15,13.1-1.75,20-5.21
	c3.15-1.55,5.88-3.44,8.61-5.34l0.43,4.67c-8.78,6.06-19.04,9.75-28.69,9.78c-8.63,0.01-18.71-4.64-21.14-14.85
	c-2.16-8.12,0.83-16.56,3.69-22.23c8.21-16.61,24.68-29.5,41.95-32.81c6.39-1.29,12.4-0.9,17.28,1c5.79,2.37,10,7.17,11.64,13.14
	c2.16,8.12-0.83,16.56-3.69,22.23c-2.44,5.01-5.79,9.56-9.57,13.75l-4.52-1.31C84.61,77.8,89.7,69.09,91.12,59.78z M73.3,107.64
	l-1.25-15.27l15.91,17.69l-2.17,11.42C85.8,121.48,73.3,107.64,73.3,107.64z M91.3,108.81c-0.3,0.18-0.3,0.18-0.54,0.13L70.91,87.53
	L57.19,72.39c-0.18-0.3-0.13-0.54-0.07-0.78c0.3-0.18,0.83-0.31,1.02-0.02l33.09,36.44C91.71,108.15,91.6,108.63,91.3,108.81z
	 M93.05,105.67L76.91,87.92l15.57,2.89l12.73,13.9L93.05,105.67z"/>
<path style="fill:#FEF1DE;" d="M316.78,157.98l-11.98,9.83l-1.93,0.05l-12.94-3.94c-0.24-0.12-0.3-0.3-0.12-0.36
	c0,0-0.06-0.18,0.12-0.24l12.39-10.54l0.36-0.12l14.1,4.73l0.24,0.12L316.78,157.98z M318.63,156.94c0.06,0.18,0.06,0.18,0.24,0.12
	l11.87,4.1c0.24,0.12,0.36-0.12,0.54-0.19l-0.06-0.18l-5.78-14.85c-0.06-0.18-0.06-0.18-0.24-0.12l-11.69-4.16
	c-0.24-0.12-0.42-0.05-0.36,0.12l0.06,0.18C313.21,141.96,318.63,156.94,318.63,156.94z M326.08,144.9l-4.92-13.55l-0.06-0.18
	c0.12-0.24,0.3-0.3,0.54-0.19l9.35,3.77l0.24,0.12l5.15,13.06l0.06,0.18c-0.12,0.24-0.3,0.3-0.54,0.19l-9.58-3.29L326.08,144.9z
	 M300.48,110.05l4.55,12.47l0.06,0.18c-0.12,0.24-0.3,0.3-0.54,0.19l-13.08-5.28l-0.24-0.12l-4.44-13.31c0,0-0.06-0.18,0.12-0.24
	c0.12-0.24,0.3-0.3,0.54-0.19l12.98,6.12C300.42,109.87,300.48,110.05,300.48,110.05z M276.94,129.5l-0.98,2.95
	c0,0,0.06,0.18-0.12,0.24l-10.43,9.26l-0.36,0.12c-0.24-0.12-0.3-0.3-0.12-0.36l2.6-7.53l0.12-0.24l8.12-7.25
	c0.18-0.06,0.36-0.12,0.42,0.05l0.06,0.18L276.94,129.5z"/>
<path style="fill:#64ADA0;" d="M259.1,158.41l12.32,9.59l-23.04-0.03c-0.24-0.12-0.12-0.36,0.05-0.42l10.43-9.26
	C258.86,158.29,259.04,158.23,259.1,158.41z M330.7,162.77l-6.36,5.23h-17.81l12-9.62l0.36-0.12l12.05,4.03l0.24,0.12
	C330.82,162.53,330.88,162.71,330.7,162.77z M277.64,128.05c0.06,0.18,0.3,0.3,0.48,0.23l0.18-0.06l12.09-10.24
	c0.18-0.06,0.12-0.24,0.05-0.42l-4.63-13.85c-0.06-0.18-0.3-0.3-0.48-0.23l-0.18,0.06l-11.92,10.18c0.06,0.18-0.12,0.24-0.05,0.42
	C273.19,114.14,277.64,128.05,277.64,128.05z M320.41,129.21l-4.11-11.22c0,0-0.06-0.18,0.12-0.24c0.12-0.24,0.3-0.3,0.54-0.19
	l9.42,4.55l0.24,0.12l4.1,10.62l0.06,0.18c-0.12,0.24-0.3,0.3-0.54,0.19l-9.35-3.77C320.47,129.39,320.47,129.39,320.41,129.21z
	 M275.57,125.56l-6.4,5.84l-0.36,0.12c-0.24-0.12-0.3-0.3-0.12-0.36l1.67-5l0.12-0.24l4.03-3.41c0.18-0.06,0.36-0.12,0.42,0.05
	l0.94,2.69C275.68,125.32,275.74,125.5,275.57,125.56z"/>
<path style="fill:#43719B;" d="M271.82,145.34l3.23-9.76c0.12-0.24-0.12-0.36-0.12-0.36l-0.36,0.12l-10.61,9.32
	c0,0-0.18,0.06-0.12,0.24l-3.4,9.82c-0.12,0.24,0.12,0.36,0.12,0.36l0.36-0.12L271.82,145.34z M262.81,144.26l-8.41,7.55l-0.36,0.12
	c-0.24-0.12-0.3-0.3-0.12-0.36l2.78-7.59l0.12-0.24l8.3-7.31l0.36-0.12c0.24,0.12,0.3,0.3,0.12,0.36L262.81,144.26
	C262.99,144.2,262.99,144.2,262.81,144.26z M302.66,151.46l-5-14.92l-0.06-0.18c0.12-0.24,0.3-0.3,0.54-0.19l13.5,4.73l0.24,0.12
	L317.3,156l0.06,0.18c-0.12,0.24-0.3,0.3-0.54,0.19l-13.85-4.61C302.72,151.64,302.72,151.64,302.66,151.46z M318.36,128.52
	l-11.7-4.76l-0.24-0.12l-4.48-12.29c0,0-0.06-0.18,0.12-0.24c0.12-0.24,0.3-0.3,0.54-0.19l11.83,5.72l0.24,0.12l4.17,11.4l0.06,0.18
	C318.78,128.57,318.6,128.63,318.36,128.52z"/>
<path style="fill:#E08956;" d="M268.47,128.24l-1.9,5.48c-0.01-0.02-0.01-0.03-0.01-0.04c0.01,0.02,0.01,0.04,0.01,0.04l-8.18,7.07
	l-0.36,0.12c-0.24-0.12-0.3-0.3-0.12-0.36l2.2-5.79l0.12-0.24l7.77-6.52l0.36-0.12C268.58,127.99,268.64,128.17,268.47,128.24z
	 M324.93,143.9l-5.16-13.66l-0.24-0.12l-11.7-4.76c-0.24-0.12-0.42-0.05-0.54,0.19l0.06,0.18l5.17,14.26
	c0.06,0.18,0.06,0.18,0.24,0.12l11.69,4.16c0.24,0.12,0.42,0.05,0.54-0.19L324.93,143.9z M298.94,168l-10.97-3.39l-0.3-0.3
	l-0.88-3.11l-0.06-0.18c-0.06-0.18-0.24-0.12-0.42-0.05l-8.25,7.02H298.94z"/>
<path style="fill:#E9CB5D;" d="M342.39,166.93L340.9,168h-15.24l6.31-5.07l0.36-0.12l10.06,3.52c0,0,0.06,0.18,0.24,0.12
	C342.69,166.63,342.57,166.87,342.39,166.93z M310.53,139.48c0.24,0.12,0.42,0.05,0.54-0.19l-0.06-0.18l-5.23-14.44
	c-0.06-0.18-0.06-0.18-0.24-0.12l-13.08-5.28c-0.24-0.12-0.42-0.05-0.54,0.19l0.06,0.18l5,14.92c0.06,0.18,0.06,0.18,0.24,0.12
	L310.53,139.48z M301.47,152.07l-12.57,10.6c-0.18,0.06-0.36,0.12-0.42-0.05l-0.06-0.18l-4.89-15.76c-0.06-0.18-0.06-0.18,0.05-0.42
	l12.51-10.18c0.18-0.06,0.36-0.12,0.42,0.05l0.06,0.18l5.12,15.28C301.7,151.59,301.47,152.07,301.47,152.07z"/>
<path style="fill:#DD6D5F;" d="M285.53,157.03l-0.06-0.18l-13.03-10.32c-0.06-0.18-0.24-0.12-0.42-0.05l-12.15,10.66
	c-0.18,0.06-0.12,0.24-0.05,0.42L273.22,168l2.78,0l9.99-8.52c0.18-0.06,0.12-0.24,0.05-0.42
	C286.28,159.18,285.53,157.03,285.53,157.03z M342.61,165.25l-10-3.34l-0.24-0.12l-5.54-14.74l-0.06-0.18
	c0.12-0.24,0.3-0.3,0.54-0.19l9.64,3.47l0.24,0.12l5.78,14.85l0.06,0.18C342.96,165.12,342.85,165.36,342.61,165.25z M282.97,145.07
	l-4.7-15.23c-0.06-0.18-0.06-0.18,0.05-0.42l12.09-10.24c0.18-0.06,0.36-0.12,0.42,0.05l0.06,0.18l5.12,15.28
	c0.06,0.18,0.06,0.18-0.05,0.42l-12.34,10.12C283.27,145.37,283.03,145.25,282.97,145.07z M261.89,147.39l-3.4,9.82l-0.12,0.24
	l-9.07,7.98l-0.36,0.12l-0.19-0.54l3.7-10.12l0.12-0.24l8.59-7.61l0.36-0.12C261.76,147.04,261.83,147.22,261.89,147.39z"/>
<path style="fill:#231815;" d="M248.68,168l-0.12-0.1l10.43-9.26l12.01,9.35h2.58l-13.34-10.39c0,0,12.09-10.84,11.91-10.78
	l13.03,10.32l0.81,2.33l-9.99,8.52h2.17l8.32-7.09l0.88,3.11c0.12,0.36,0.37,0.47,0.61,0.59l10.97,3.39h7.86l11.55-9.56l12.05,4.03
	l-6.72,5.52h2.65l5.94-4.77c0,0,10,3.34,10.06,3.52l-1.74,1.25h2.57l1.45-1.04c0.36-0.12,0.59-0.61,0.05-1.02l-17.51-44.5
	c-0.06-0.18-0.12-0.36-0.37-0.47l-11.59-5.6l-29.09-13.76c-0.24-0.12-0.66-0.17-0.96,0.13l-13.33,11.87c-0.3,0.3-0.41,0.55-0.29,0.9
	l2.25,7.05l-4.62,4.02l-10.26,8.59c-0.18,0.06-0.36,0.12-0.3,0.3l-3.3,8.98l-4.05,10.85l-4.98,13.38c-0.04,0.09-0.04,0.19-0.02,0.3
	H248.68z M271.57,145.22l-10.9,9.62l3.4-9.82l10.61-9.32L271.57,145.22z M275.6,132.58l-10.43,9.26l2.42-7.47l8.12-7.25l0.81,2.33
	L275.6,132.58z M278.44,129.78l12.09-10.24l4.95,15.34l-12.34,10.12L278.44,129.78z M310.65,139.24l-13.32-4.8l-5-14.92l13.08,5.28
	L310.65,139.24z M307.53,125.67l11.7,4.76l5.16,13.66l-11.69-4.16L307.53,125.67z M286.66,156.23l-2.95-9.61l12.51-10.18l4.95,15.34
	l-12.57,10.6L286.66,156.23z M304.14,167.81l-14.15-4.31l12.39-10.54l14.1,4.73L304.14,167.81z M303.02,151.33l-5-14.92l13.5,4.73
	l5.42,14.98L303.02,151.33z M318.81,156.88l-5.42-14.98l11.69,4.16l5.6,14.92L318.81,156.88z M342.84,164.76l-10-3.34l-5.54-14.74
	l9.64,3.47C336.94,150.15,342.72,165.01,342.84,164.76z M336.13,147.83l-9.58-3.29l-5.1-13.48l9.41,3.95L336.13,147.83z
	 M325.83,122.3l4.1,10.62l-9.35-3.77c0,0-4.17-11.4-4.17-11.4L325.83,122.3z M314.31,116.88l4.17,11.4l-11.7-4.76l-4.48-12.29
	L314.31,116.88z M300.3,110.11l4.55,12.47l-13.08-5.28l-4.44-13.31L300.3,110.11z M273.55,114.02l11.91-10.18l4.63,13.85L278,127.93
	L273.55,114.02z M270.54,126.11l4.03-3.41l0.87,2.51l-6.58,5.91L270.54,126.11z M260.28,134.7l7.77-6.52l-1.79,5.24l-8.12,7.25
	L260.28,134.7z M256.62,143.81l8.3-7.31l-2.42,7.47l-8.41,7.55L256.62,143.81z M252.88,154.95l8.59-7.61c0,0-3.23,9.76-3.23,9.76
	l-9.07,7.98L252.88,154.95z"/>
<path style="opacity:0.7;fill:#64ADA0;enable-background:new    ;" d="M273.19,145.26l3.27-10.78l3.05,3.56l5.14,16.48
	L273.19,145.26z"/>
<path style="opacity:0.7;fill:#E08956;enable-background:new    ;" d="M276.99,133.1l0.46-1.57l1.31,3.76
	C278.76,135.29,276.99,133.1,276.99,133.1z"/>
<defs>
	
		<filter id="Adobe_OpacityMaskFilter_00000020381321559154060620000011197577337998016684_" filterUnits="userSpaceOnUse" x="70.29" y="103.05" width="6.33" height="11.31">
		<feColorMatrix  type="matrix" values="1 0 0 0 0  0 1 0 0 0  0 0 1 0 0  0 0 0 1 0"/>
	</filter>
</defs>
<mask maskUnits="userSpaceOnUse" x="70.29" y="103.05" width="6.33" height="11.31" id="_x32_29xe6cykc_00000126294061236819949770000006013963330895555988_">
	<g style="filter:url(#Adobe_OpacityMaskFilter_00000020381321559154060620000011197577337998016684_);">
		<path id="fh6nn62rca_00000173870772154668704730000017804882241221459333_" style="fill:#FFFFFF;" d="M70.29,113.32l3.04,1.04
			L76.62,104l-3.23-0.96L70.29,113.32z"/>
	</g>
</mask>
<linearGradient id="SVGID_00000114791249102242587900000008014701552560036793_" gradientUnits="userSpaceOnUse" x1="-797.4348" y1="342.4377" x2="-797.5831" y2="342.4407" gradientTransform="matrix(2.102 0.6692 -2.1273 6.6815 2478.1978 -1645.5874)">
	<stop  offset="0" style="stop-color:#31895D"/>
	<stop  offset="1" style="stop-color:#F2D43D"/>
</linearGradient>
<path style="mask:url(#_x32_29xe6cykc_00000126294061236819949770000006013963330895555988_);fill:url(#SVGID_00000114791249102242587900000008014701552560036793_);" d="
	M70.29,113.32l3.04,1.04L76.62,104l-3.23-0.96L70.29,113.32z"/>
<defs>
	
		<filter id="Adobe_OpacityMaskFilter_00000102542708001343610910000013335731605859922857_" filterUnits="userSpaceOnUse" x="158.57" y="123.07" width="7.82" height="19.29">
		<feColorMatrix  type="matrix" values="1 0 0 0 0  0 1 0 0 0  0 0 1 0 0  0 0 0 1 0"/>
	</filter>
</defs>
<mask maskUnits="userSpaceOnUse" x="158.57" y="123.07" width="7.82" height="19.29" id="qf9npxeypf_00000106139329210760769530000007001485371784616324_">
	<g style="filter:url(#Adobe_OpacityMaskFilter_00000102542708001343610910000013335731605859922857_);">
		<path id="tgcegncuyd_00000140736938766134256160000001922019079684095629_" style="fill:#FFFFFF;" d="M164.34,123.07l-5.77,18.25
			l3.04,1.04l4.78-15.35L164.34,123.07z"/>
	</g>
</mask>
<linearGradient id="SVGID_00000158708680991730680330000017468006926057585310_" gradientUnits="userSpaceOnUse" x1="-753.1874" y1="280.4991" x2="-753.23" y2="280.5007" gradientTransform="matrix(2.0058 0.6387 -3.7686 11.8365 2730.8643 -2706.3804)">
	<stop  offset="0" style="stop-color:#31895D"/>
	<stop  offset="1" style="stop-color:#F2D43D"/>
</linearGradient>
<path style="mask:url(#qf9npxeypf_00000106139329210760769530000007001485371784616324_);fill:url(#SVGID_00000158708680991730680330000017468006926057585310_);" d="
	M164.34,123.07l-5.77,18.25l3.04,1.04l4.78-15.35L164.34,123.07z"/>
<path style="fill:#403A3A;" d="M73.47,103.24l88.28,28l1.77-5.7l-88.28-28L73.47,103.24z"/>
<path style="fill:#DD6D5F;" d="M6.72,168h195.1l1.1-3.49c1.46-4.51-0.96-9.58-5.81-11.02L31.56,101.22
	c-4.51-1.46-9.58,0.96-11.16,5.76L4.08,158.82C2.99,162.2,4.1,165.82,6.72,168z"/>
<path style="fill:#3F3B3A;" d="M3.78,161.66c0.74,0.62,1.73,1.02,2.73,1.41L22.07,168H6.86C5.04,166.45,3.9,164.17,3.78,161.66z
	 M196.57,168h5.4l1.09-3.43c1.21-3.46-0.07-7.26-2.94-9.55c0.09,1.02-0.02,2.13-0.42,3.12L196.57,168z"/>
<path style="fill:#C0913C;" d="M6.67,168h0.48c-0.03-0.9,0.09-1.84,0.43-2.69l16.32-51.84c1.43-4.85,6.5-7.27,11.02-5.81
	l165.72,52.67c0.99,0.39,1.99,0.79,2.73,1.41c-0.18-3.69-2.51-6.91-6.03-7.98L31.56,101.22c-4.8-1.58-9.58,0.96-11.1,5.61
	L4.22,158.88C3.09,162.13,4.16,165.68,6.67,168z"/>
<path style="fill:#314D55;" d="M125.01,168l5.99-18.9c0.96-3.23-0.78-6.72-3.96-7.82l-30.93-9.82c-3.23-0.96-6.72,0.78-7.82,3.96
	L77.98,168H125.01z"/>
<path style="fill:#E9CB5E;" d="M133.38,168l5.28-16.68c1.1-3.18,4.58-4.92,7.82-3.96l39.1,12.41c3.18,1.1,4.92,4.58,3.96,7.82
	l-0.13,0.42H133.38z M21.76,163.54L35.81,168h34.13l10.98-34.69c0.96-3.23-0.78-6.72-3.96-7.82l-39.1-12.41
	c-3.23-0.96-6.72,0.78-7.82,3.96l-12.3,38.82C16.64,159.04,18.52,162.58,21.76,163.54z M94.84,168l-3.44-1.11
	c-0.71-0.28-1.36,0.12-1.59,0.68L89.68,168H94.84z"/>
<path style="fill:#314C55;" d="M139.07,168c4.89-8.73,15.45-13.12,25.47-9.86c5.34,1.65,9.61,5.29,12.22,9.86H139.07z M42.72,164.96
	c11.35,3.69,23.61-2.78,27.24-13.99c3.69-11.35-2.78-23.61-14.05-27.1c-11.44-3.88-23.64,2.44-27.19,13.85
	C25.04,149.07,31.37,161.28,42.72,164.96z"/>
<path style="fill:#3E6269;" d="M41.41,141.77c-1.41,4.37,0.99,9.1,5.36,10.51l0,0c4.37,1.41,9.1-0.99,10.51-5.36l0,0
	c1.41-4.37-0.99-9.1-5.36-10.51l0,0C47.41,134.95,42.82,137.4,41.41,141.77L41.41,141.77"/>
<path style="fill:#DD6D5F;" d="M74.2,100.58l88.28,28l1.72-5.56L76.06,95.07L74.2,100.58z"/>
<path style="fill:#C0913C;" d="M75.47,96.97l88.28,28l0.59-1.9l-88.28-28L75.47,96.97z"/>
<path style="fill:#8E534B;" d="M121.34,115.52l5.85,1.83l1.66-5.42L123,110.1L121.34,115.52z"/>
<path style="fill:#EACC5C;" d="M115.35,113.63l5.85,1.83l1.66-5.42l-5.85-1.83L115.35,113.63z"/>
<path style="fill:#63ABA0;" d="M109.5,111.8l5.85,1.83l1.66-5.42l-5.85-1.83L109.5,111.8z"/>
<path style="fill:#579387;" d="M86.54,161.34l20.91,6.66h13.44l4.28-13.33c0.45-1.14-0.2-2.38-1.4-2.69l-31.21-9.93
	c-1.14-0.45-2.38,0.2-2.69,1.4l-4.73,15.21C84.7,159.78,85.35,161.03,86.54,161.34z"/>
<path style="fill:#266787;" d="M87.25,159.98l25.27,8.02h7.1l4.36-13.64c0.17-0.43,0-0.82-0.43-0.99l-30.93-9.82
	c-0.43-0.17-0.82,0-0.99,0.43l-4.81,15.01C86.65,159.41,86.82,159.81,87.25,159.98z"/>
<path style="fill:#F1EAD7;" d="M113.34,162.12l-18.1-5.71c-2.04-0.65-3.27-2.94-2.62-4.98l0.17-0.43c0.65-2.04,2.94-3.27,4.98-2.62
	l18.1,5.71c2.04,0.65,3.27,2.94,2.62,4.98l-0.17,0.43C117.68,161.55,115.38,162.77,113.34,162.12"/>
<path style="fill:#6EBFC5;" d="M98.28,150.39c1.19,0.31,1.99,1.61,1.62,2.94c-0.31,1.19-1.61,1.99-2.94,1.62c0,0,0,0-0.14-0.06
	c-1.14-0.45-1.93-1.75-1.48-2.89C95.9,150.6,97.15,149.94,98.28,150.39 M114.2,155.4c1.19,0.31,1.99,1.61,1.62,2.94
	c-0.31,1.19-1.61,1.99-2.94,1.62c0,0,0,0-0.14-0.06c-1.14-0.45-1.93-1.75-1.48-2.89C111.62,155.69,112.87,155.04,114.2,155.4
	 M101.47,155.6l7.26,2.39l1.01-3.38l-7.26-2.39L101.47,155.6z"/>
<path style="fill:#F1EAD7;" d="M102.43,152.37l-0.96,3.23c0.85,0.34,1.9-0.23,2.1-1.14C103.76,153.56,103.34,152.57,102.43,152.37"
	/>
<path style="fill:#F1EAD7;" d="M109.75,154.62l-0.96,3.23c-0.85-0.34-1.34-1.19-1.14-2.1C107.85,154.85,108.7,154.37,109.75,154.62"
	/>
<path style="fill:#DD6D5F;" d="M125.08,148.71l-31.36-9.99c-1.19-0.31-1.85-1.55-1.4-2.69c0.31-1.19,1.55-1.85,2.69-1.4l31.21,9.93
	c1.19,0.31,1.85,1.55,1.4,2.69C127.31,148.45,126.27,149.02,125.08,148.71"/>
<path style="fill:#E9CB5D;" d="M97.54,136.13c0.71,0.28,1.11,0.93,0.97,1.7c-0.28,0.71-0.93,1.11-1.7,0.97
	c-0.77-0.14-1.11-0.93-0.97-1.7S96.83,135.85,97.54,136.13L97.54,136.13"/>
<path style="fill:#62ACA0;" d="M89.71,168l0.23-0.71c0.23-0.57-0.32-1.28-0.94-1.36l-4.51-1.46c-0.71-0.28-1.36,0.12-1.59,0.68
	l-0.9,2.85H89.71z"/>
<path style="fill:#776A45;" d="M114.72,168l0.28-0.95c0.17-0.43,0-0.82-0.43-0.99l-22.9-7.29c-0.43-0.17-0.82,0-0.99,0.43
	l-0.96,3.23l17.56,5.56H114.72z"/>
<path style="fill:#231815;" d="M17.17,155.64C17.12,155.78,17.17,155.64,17.17,155.64L17.17,155.64z M21.79,163.06
	c-2.89-0.99-4.6-4.13-3.62-7.02l12.3-38.82c0.99-2.89,4.07-4.46,7.02-3.62l39.1,12.41c2.89,0.99,4.6,4.13,3.62,7.02L69.13,168h1.45
	l10.96-34.61c1.07-3.52-0.98-7.45-4.5-8.52l-39.1-12.41c-3.52-1.07-7.45,0.98-8.52,4.5l-12.24,38.68c-1.13,3.66,0.84,7.4,4.44,8.67
	L33.26,168h4.1L21.79,163.06z M185.67,159.14l-39.1-12.41c-3.52-1.07-7.45,0.98-8.52,4.5L132.73,168h1.12l5.19-16.37
	c0.99-2.89,4.07-4.46,7.02-3.62l39.1,12.41c2.89,0.99,4.6,4.13,3.62,7.02L188.6,168h1.46l0.11-0.34
	C191.24,164.15,189.19,160.21,185.67,159.14z M4.67,166.45c-1.57-2.26-2.03-5.24-1.1-7.99l16.26-51.7
	c1.49-4.99,6.81-7.64,11.81-6.15l0.14,0.06l38.11,12.01l5.68-18.44l89.47,28.31l-5.82,18.39l1.9,0.59l4.5-14.64l-1.11-2.58
	l0.53-1.76l1.88,4.36l-0.17,0.43l-4.44,14.5l35.16,11.17c2.33,0.76,4.17,2.31,5.23,4.21c0.06-0.14,0.23,0.25,0.23,0.25
	s1.94,3.4,3.19,6.03c0.76,1.6,1.22,3.02,1.3,4.51h-1.54c-0.1-1.09-0.48-2.24-1.2-3.77c-0.17-0.4-0.43-0.99-0.74-1.44
	c-0.08,0.62-0.22,1.39-0.45,1.96l-0.06,0.14l-0.98,3.12h-1.27l1.17-3.71c1.35-4.23-1.1-8.82-5.33-10.17l-82.92-26.19l-44.72-13.98
	l-38.05-12.16c-4.23-1.35-8.82,1.1-10.17,5.33L4.71,158.9c-1.14,3.55,0.29,7.14,3.14,9.1H5.39C5.12,167.44,4.87,166.91,4.67,166.45z
	 M161.01,131.44L76.96,104.8l-2.98,9.17l84.05,26.65L161.01,131.44z M129.33,112.78l-1.35,4.23l34.17,10.78l0.65-2.04
	c0.25-1.05,0.7-2.19,0.7-2.19L129.33,112.78z M123.48,110.95l-1.35,4.23l4.65,1.52l1.35-4.23L123.48,110.95z M117.49,109.06
	l-1.29,4.09l4.65,1.52l1.35-4.23L117.49,109.06z M111.65,107.23l-1.35,4.23l4.65,1.52l1.35-4.23L111.65,107.23z M75.14,100.29
	l33.88,10.66l1.35-4.23L76.49,96.06L75.14,100.29z M74.46,102.82l87,27.49l0.37-1.33l-87-27.49L74.46,102.82z M71.09,112.98
	l1.76,0.53l2.98-9.17l-1.76-0.53L71.09,112.98z M91.61,135.75c0.42-1.48,2.06-2.3,3.48-1.74l31.21,9.93
	c1.48,0.42,2.3,2.06,1.74,3.48c-0.42,1.48-1.92,2.36-3.34,1.79l-31.36-9.99C92.07,138.73,91.19,137.23,91.61,135.75z M98.22,136.08
	c0.37,0.31,0.63,0.91,0.6,1.39l27.55,8.81l-0.31,1.19l-27.55-8.81c-0.31,0.37-0.76,0.68-1.3,0.8l27.7,8.86
	c0.85,0.34,1.9-0.23,2.1-1.14c0.34-0.85-0.23-1.9-1.14-2.1L98.22,136.08z M96.41,137.33c-0.17,0.43,0,0.82,0.43,0.99
	c0.43,0.17,0.82,0,0.99-0.43c0.17-0.43,0-0.82-0.43-0.99C96.89,136.53,96.44,136.85,96.41,137.33z M93.8,138.1l2.04,0.65
	c-0.37-0.31-0.63-0.91-0.6-1.39l-1.62-0.48l0.31-1.19l1.62,0.48c0.31-0.37,0.76-0.68,1.3-0.8l-2.19-0.7
	c-0.68,0.06-1.67,0.49-2.01,1.34C92.33,136.86,92.89,137.9,93.8,138.1z M42.69,165.45C31,161.79,24.36,149.13,28.1,137.64
	c3.66-11.69,16.26-18.19,27.95-14.53c11.69,3.66,18.24,16.12,14.59,27.81C66.98,162.61,54.38,169.1,42.69,165.45z M69.5,138.47
	l-11.36,4.2c0.11,0.54,0.09,1.02,0.2,1.56l11.86,2.41C70.51,143.8,70.28,141.08,69.5,138.47z M54.22,136.84
	c0.51,0.37,0.88,0.68,1.25,0.99L65.57,131c-1.76-2.18-3.98-4.04-6.42-5.34L54.22,136.84z M51.55,136.93
	c-4.09-1.29-8.33,1.13-9.57,5.07c-1.24,3.94,0.98,8.28,5.07,9.57c3.94,1.24,8.28-0.98,9.57-5.07
	C57.86,142.55,55.64,138.22,51.55,136.93z M43.33,124.13l4.34,11.42c0.54-0.11,0.88-0.14,1.36-0.12l2.32-12.06
	C48.65,123.13,45.93,123.36,43.33,124.13z M31.02,134.03l11.18,4.93c0.31-0.37,0.62-0.74,0.88-0.97l-6.97-10.16
	C34.07,129.65,32.26,131.73,31.02,134.03z M29.1,150.03l11.27-4.39c-0.11-0.54-0.09-1.02-0.06-1.5l-11.86-2.41
	C28.15,144.56,28.38,147.28,29.1,150.03z M43.82,151.44c-0.37-0.31-0.74-0.62-1.11-0.93l-10.05,6.69c1.62,2.12,3.7,3.93,6.28,5.29
	L43.82,151.44z M54.94,164.39l-4.25-11.22c-0.54,0.11-1.22,0.17-1.7,0.15l-2.35,11.72C49.47,165.34,52.33,165.17,54.94,164.39z
	 M67.64,154.33l-11.04-4.88c-0.37,0.51-0.73,1.02-1.19,1.34l6.69,10.05C64.48,158.98,66.29,156.91,67.64,154.33z M100.53,153.42
	c-0.62,1.56-2.26,2.39-3.74,1.97s-2.44-2.12-1.97-3.74c0.42-1.48,2.12-2.44,3.74-1.97C100.18,150.16,101.01,151.81,100.53,153.42z
	 M98.2,151.02c-0.85-0.34-1.9,0.23-2.1,1.14c-0.34,0.85,0.23,1.9,1.14,2.1c0.85,0.34,1.9-0.23,2.1-1.14
	C99.54,152.21,99.11,151.21,98.2,151.02z M119.06,159.3l-0.17,0.43c-0.76,2.33-3.45,3.72-5.78,2.96l-18.1-5.71
	c-2.33-0.76-3.78-3.31-2.96-5.78l0.17-0.43c0.76-2.33,3.31-3.78,5.78-2.96l18.1,5.71C118.43,154.29,119.88,156.83,119.06,159.3z
	 M115.76,154.38c0,0-18.1-5.71-18.1-5.71c-1.76-0.53-3.66,0.52-4.33,2.22l-0.17,0.43c-0.53,1.76,0.52,3.66,2.22,4.33l18.1,5.71
	c1.76,0.53,3.66-0.52,4.33-2.22l0.17-0.43C118.52,156.95,117.46,155.05,115.76,154.38z M116.31,158.37
	c-0.76,1.5-2.32,2.53-3.74,1.97c-1.48-0.42-2.44-2.12-1.97-3.74c0.42-1.48,2.12-2.44,3.74-1.97
	C115.82,155.06,116.79,156.76,116.31,158.37z M113.98,155.97c-0.85-0.34-1.9,0.23-2.1,1.14c-0.34,0.85,0.23,1.9,1.14,2.1
	c0.85,0.34,1.9-0.23,2.1-1.14C115.31,157.16,114.83,156.31,113.98,155.97z M82.19,164.87L81.2,168h1.6l0.86-2.71
	c0.11-0.28,0.45-0.31,0.74-0.2l4.51,1.46c0.28,0.11,0.51,0.37,0.4,0.65l-0.25,0.8h1.46l0.18-0.57c0.11-0.28,0.45-0.31,0.74-0.2
	l2.39,0.77h3.13c-0.23-0.24-0.55-0.45-0.83-0.56l-4.51-1.46c-0.43-0.17-0.96-0.05-1.36,0.12c-0.17-0.4-0.68-0.76-1.11-0.93
	l-4.51-1.46C83.63,163.3,82.52,164.02,82.19,164.87z M127.18,140.51l-30.93-9.82c-3.52-1.07-7.45,0.98-8.52,4.5L77.34,168h1.27
	l10.2-32.21c0.99-2.89,4.07-4.46,7.02-3.62l30.93,9.82c2.89,0.99,4.6,4.13,3.62,7.02L124.36,168h1.31l6.01-18.96
	C132.75,145.52,130.7,141.58,127.18,140.51z M89.31,143.21l-4.73,15.21c-0.56,1.42,0.26,3.06,1.74,3.48l2.61,0.87l16.34,5.22h4.22
	l-19.06-6.1l0.87-2.61c0.06-0.14,0.25-0.23,0.4-0.17l22.9,7.29c0.14,0.06,0.23,0.25,0.17,0.4l-0.4,1.2h0.89l0.27-1.06
	c0.14-0.77-0.26-1.42-0.97-1.7l-22.9-7.29c-0.77-0.14-1.42,0.26-1.7,0.97l-0.31,1.19l-2.33-0.76c-0.14-0.06-0.14-0.06-0.09-0.2
	l4.81-15.01c0.06-0.14,0.06-0.14,0.2-0.09l30.93,9.82c0.14,0.06,0.14,0.06,0.09,0.2L118.81,168h1.44l4.22-13.61
	c0.14-0.77-0.26-1.42-0.97-1.7l-30.93-9.82c-0.77-0.14-1.42,0.26-1.7,0.97l-4.76,14.87c-0.14,0.77,0.26,1.42,0.97,1.7l2.33,0.76
	l-0.23,0.57l-2.61-0.87c-0.91-0.2-1.48-1.24-1.14-2.1l4.87-15.15c0.2-0.91,1.24-1.48,2.1-1.14l31.21,9.93
	c0.91,0.2,1.48,1.24,1.14,2.1L120.4,168h1.13l4.21-13.11c0.56-1.42-0.26-3.06-1.74-3.48l-31.21-9.93
	C91.37,140.91,89.73,141.74,89.31,143.21z M164.48,157.46c-10.28-3.22-21.26,1.42-26.25,10.54h1.5c1.39-2.18,3.11-4.21,5-5.9
	l3.98,5.9h6.77l-3.59-9.46c2.75-0.72,5.53-1.09,8.16-0.7L158.13,168h6.48l3.54-7.77c2.44,1.3,4.52,3.11,6.28,5.29l-3.67,2.48h6.56
	C174.65,163.12,170.18,159.25,164.48,157.46z M110.2,154.31l0.14,0.06l-1.35,4.23l-0.57-0.23l-7.12-2.34l-0.57-0.23l1.35-4.23
	l0.57,0.23l6.27,2c0.28,0.11,0.48,0.03,0.77,0.14l0.57,0.23L110.2,154.31z M102.63,153.11l-0.62,1.56l-0.06,0.14
	c0.34-0.03,0.65-0.4,0.76-0.68C102.83,153.84,103,153.42,102.63,153.11z M107.48,154.54l-3.38-1.01c0.17,0.4,0.14,0.88-0.03,1.3
	c-0.11,0.28-0.23,0.57-0.48,0.8l3.23,0.96c-0.03-0.34-0.06-0.68,0.11-1.11C106.92,155.14,107.23,154.77,107.48,154.54z
	 M108.99,155.3c-0.34,0.03-0.65,0.4-0.76,0.68c-0.11,0.28-0.14,0.77,0.09,1.02L108.99,155.3z"/>
<path style="fill:#FFFFFF;fill-opacity:0.3;" d="M101.92,165.64l-13.25-4.28l14.65-15.38l13.25,4.28L101.92,165.64z"/>
<path style="fill:#FFFFFF;fill-opacity:0.25;" d="M106.92,167.13l-3.38-1.01l14.65-15.38l3.52,1.07L106.92,167.13z"/>
<linearGradient id="SVGID_00000125576115194959611740000000676781199781811351_" gradientUnits="userSpaceOnUse" x1="-1479.5028" y1="288.1756" x2="-1479.6866" y2="289.3907" gradientTransform="matrix(-24.1975 -15.3048 -11.5617 18.2795 -32242.959 -27760.9219)">
	<stop  offset="0" style="stop-color:#EDD23D"/>
	<stop  offset="1" style="stop-color:#418F5C"/>
</linearGradient>
<path style="fill:url(#SVGID_00000125576115194959611740000000676781199781811351_);" d="M255.53,168l2.43-3.9l1.34-2.16
	c1.46-1.97,0.8-4.77-1.25-5.92l-24.58-15.57c-0.55-0.46-1.25-0.3-1.59,0.45l-1.87,3.03l-24.27-15.5c-0.55-0.46-1.25-0.3-1.59,0.45
	l-22.19,35.09c-0.46,0.55-0.3,1.25,0.45,1.59c0,0,1.49,0.87,3.97,2.44H255.53z"/>
<path style="fill:#A9ABAD;" d="M241.36,168l6.54-10.25l1.34-2.16c1.34-2.16,0.6-4.65-1.36-6.11L226,135.7
	c-0.87-0.54-1.8-0.76-2.62-0.79l-3.11,0.59c-0.51,0.05-0.82-0.03-1.25-0.3l-10.19-6.54l1-1.42c0.54-0.87,0.33-2.07-0.54-2.61
	l-4.45-2.87c-0.87-0.54-2.07-0.33-2.61,0.54l-1,1.42l-2.28-1.53c-2.04-1.14-4.65-0.6-6.11,1.36l-19.59,31.07
	c-1.34,2.16-0.6,4.65,1.36,6.11l11.5,7.26H241.36z"/>
<path style="fill:#C8A34C;" d="M208.86,125.7l-1.73-1.07c0.31,0.07,0.36,0.58,0.28,0.89l-1.34,2.16c-0.07,0.31-0.58,0.36-0.89,0.28
	l1.73,1.07c0.31,0.07,0.63,0.15,0.89-0.28l1.34-2.16C209.22,126.28,209.17,125.77,208.86,125.7"/>
<path style="opacity:0.55;fill:#FFFFFF;enable-background:new    ;" d="M221.79,136.63l-1.32,0.08l0.51-0.05
	C221.26,136.6,221.53,136.6,221.79,136.63z M220.47,136.71C220.47,136.71,220.47,136.71,220.47,136.71L220.47,136.71L220.47,136.71z
	 M244.73,150.88c1.61,0.88,2.11,2.98,1.11,4.4l-1.34,2.16L237.8,168h2.75l6.79-10.71l1.34-2.16c0.68-1.49,0.31-3.4-1.11-4.4
	l-21.87-13.77c-0.43-0.27-1.18-0.61-1.88-0.44l-2.04,0.12c0.38,0.05,0.74,0.2,1.07,0.48L244.73,150.88z M216.06,136.49
	c0.43,0.27,1.18,0.61,1.88,0.44l1.93-0.17c-0.46-0.02-0.88-0.18-1.27-0.5l-20.14-12.7c-0.98-0.73-2.31-0.71-3.28-0.11
	c0.31,0.07,0.43,0.27,0.75,0.34L216.06,136.49z M220.47,136.71l-0.61,0.05C220.06,136.77,220.26,136.76,220.47,136.71z"/>
<path style="fill:#E9CB5D;" d="M255.72,143.56c-1.58-1.7-2.54-3.25-2-4.11c0.54-0.87,2.29-0.61,4.41,0.22
	c0.63,0.15,1.45,0.18,1.91-0.38c1.7-1.58,3.37-2.34,4.04-1.69c0.87,0.54,0.61,2.29-0.22,4.41c-0.15,0.63-0.18,1.45,0.38,1.91
	c1.58,1.7,2.34,3.37,1.69,4.04c-0.54,0.87-2.29,0.61-4.41-0.22c-0.63-0.15-1.45-0.18-1.91,0.38c-1.7,1.58-3.37,2.34-4.04,1.69
	c-0.87-0.54-0.61-2.29,0.22-4.41C256.24,144.84,256.07,144.14,255.72,143.56z M243.37,148.24c-0.56,1.68-0.67,2.82-0.11,3.28
	c0.55,0.46,1.83-0.06,2.95-1.29c0.46-0.55,0.97-0.6,1.4-0.33c1.68,0.56,2.82,0.67,3.28,0.11c0.46-0.55-0.26-1.71-1.17-2.76
	c-0.55-0.46-0.6-0.97-0.33-1.4c0.56-1.68,0.67-2.82,0.11-3.28s-1.83,0.06-2.95,1.29c-0.46,0.55-0.97,0.6-1.4,0.33
	c-1.49-0.68-2.82-0.67-3.28-0.11s0.26,1.71,1.17,2.76C243.59,147.3,243.63,147.81,243.37,148.24z M175.01,154.88
	c-0.05-0.08,9.75,6.09,20.9,13.12h45.41l0.04-0.06c0.27-0.43,0.1-1.13-0.33-1.4l-52.51-33.09c-0.43-0.27-1.13-0.1-1.4,0.33
	l-12.43,19.71C174.41,153.91,174.57,154.61,175.01,154.88z"/>
<path style="opacity:0.534;fill:#FFFFFF;enable-background:new    ;" d="M240.11,168c0.02-0.04,0.38-0.6,0.38-0.6l-2.04-1.14
	l-1.1,1.74H240.11z"/>
<path style="fill:#707B7C;" d="M194.95,167.7l0.48,0.3h29.01c2.61-5.55,1.3-12.46-3.36-16.43l-0.12-0.19l-10.62-6.81
	c-0.55-0.46-1.25-0.3-1.59,0.45l-3.33,5c-3.8,2.08-6.4,6.09-6.93,10.43l-3.79,5.55C194.24,166.54,194.4,167.24,194.95,167.7z"/>
<path style="fill:#707B7C;" d="M191.92,165.83c6.49,4.02,14.89,2.04,19.03-4.26c4.02-6.49,2.23-15.01-4.26-19.03
	s-14.89-2.04-19.03,4.26S185.63,161.69,191.92,165.83"/>
<path style="fill:#464F51;" d="M209.97,160.84c-3.87,5.86-11.57,7.68-17.31,4s-7.68-11.57-3.81-17.43c3.87-5.86,11.57-7.68,17.31-4
	C212.09,146.96,213.71,154.78,209.97,160.84"/>
<path style="fill:#654C4C;" d="M200.83,129.58l10.26,6.23l-1.49,2.79C201.67,134.41,200.4,129.31,200.83,129.58z M238.94,159.26
	c0.98,0.73,2.27,0.21,2.8-0.66l1.26-1.85c0.73-0.98,0.21-2.27-0.66-2.8l-1.97-1.46c-0.98-0.73-2.27-0.21-2.8,0.66l-1.26,1.85
	c-0.73,0.98-0.4,2.39,0.66,2.8C237.09,158,238.94,159.26,238.94,159.26z"/>
<path style="fill:#403A3A;" d="M230.57,151.33c0.43,0.27,1.13,0.1,1.4-0.33l1.95-3.34c0.27-0.43,0.1-1.13-0.33-1.4l-8.77-5.55
	c-0.43-0.27-1.13-0.1-1.4,0.33l-2.14,3.46c-0.27,0.43-0.1,1.13,0.33,1.4C221.6,145.9,230.57,151.33,230.57,151.33z"/>
<path style="opacity:0.45;fill:#F2F3F4;enable-background:new    ;" d="M227.37,148.76l-0.87-0.54l2.87-4.45l0.87,0.54
	L227.37,148.76z M231.54,145.11l-0.87-0.54l-2.87,4.45l0.87,0.54C228.67,149.56,231.54,145.11,231.54,145.11z M224.66,146.96
	l2.87-4.45l-0.87-0.54l-2.87,4.45C223.79,146.42,224.66,146.96,224.66,146.96z M223.36,146.15l2.87-4.45l-0.87-0.54l-2.87,4.45
	C222.5,145.62,223.36,146.15,223.36,146.15z M231.78,145.5l-2.68,4.33l0.87,0.54l2.68-4.33C232.65,146.04,231.78,145.5,231.78,145.5
	z M225.09,147.23l0.87,0.54l2.87-4.45l-0.87-0.54C227.96,142.78,225.09,147.23,225.09,147.23z"/>
<defs>
	
		<filter id="Adobe_OpacityMaskFilter_00000121983210498328313590000013061554832874027409_" filterUnits="userSpaceOnUse" x="193.51" y="146.76" width="19.34" height="19.46">
		<feColorMatrix  type="matrix" values="1 0 0 0 0  0 1 0 0 0  0 0 1 0 0  0 0 0 1 0"/>
	</filter>
</defs>
<mask maskUnits="userSpaceOnUse" x="193.51" y="146.76" width="19.34" height="19.46" id="c_00000098900270693975567000000001323528866187708073_">
	<g style="filter:url(#Adobe_OpacityMaskFilter_00000121983210498328313590000013061554832874027409_);">
		<path style="fill:#FFFFFF;" d="M209.97,160.84c-3.87,5.86-11.57,7.68-17.31,4s-7.68-11.57-3.81-17.43s11.57-7.68,17.31-4
			C212.09,146.96,213.71,154.78,209.97,160.84"/>
	</g>
</mask>
<path style="mask:url(#c_00000098900270693975567000000001323528866187708073_);fill:#353535;" d="M211.26,161.64
	c-2.87,4.45-8.86,6-13.31,3.13c-4.45-2.87-5.81-8.98-2.94-13.43c2.87-4.45,8.86-6,13.31-3.13
	C212.96,150.97,214.21,156.88,211.26,161.64"/>
<defs>
	
		<filter id="Adobe_OpacityMaskFilter_00000173854243792414754960000004826580540120421802_" filterUnits="userSpaceOnUse" x="199.45" y="152.15" width="10.25" height="10.17">
		<feColorMatrix  type="matrix" values="1 0 0 0 0  0 1 0 0 0  0 0 1 0 0  0 0 0 1 0"/>
	</filter>
</defs>
<mask maskUnits="userSpaceOnUse" x="199.45" y="152.15" width="10.25" height="10.17" id="e_00000181776596852101345320000006407750890864969641_">
	<g style="filter:url(#Adobe_OpacityMaskFilter_00000173854243792414754960000004826580540120421802_);">
		<path style="fill:#FFFFFF;" d="M209.97,160.84c-3.87,5.86-11.57,7.68-17.31,4s-7.68-11.57-3.81-17.43s11.57-7.68,17.31-4
			C212.09,146.96,213.71,154.78,209.97,160.84"/>
	</g>
</mask>
<path style="mask:url(#e_00000181776596852101345320000006407750890864969641_);fill:#1C1C1C;" d="M208.86,159.92
	c-1.53,2.28-4.72,3.18-7,1.65c-2.28-1.53-3.18-4.72-1.65-7c1.53-2.28,4.72-3.18,7-1.65C209.81,154.52,210.39,157.63,208.86,159.92"
	/>
<defs>
	
		<filter id="Adobe_OpacityMaskFilter_00000036938108525464313670000015445603156490339501_" filterUnits="userSpaceOnUse" x="189.86" y="143.38" width="25.1" height="24.62">
		<feColorMatrix  type="matrix" values="1 0 0 0 0  0 1 0 0 0  0 0 1 0 0  0 0 0 1 0"/>
	</filter>
</defs>
<mask maskUnits="userSpaceOnUse" x="189.86" y="143.38" width="25.1" height="24.62" id="g_00000132800878088439369290000013483468612856976535_">
	<g style="filter:url(#Adobe_OpacityMaskFilter_00000036938108525464313670000015445603156490339501_);">
		<path style="fill:#FFFFFF;" d="M209.97,160.84c-3.87,5.86-11.57,7.68-17.31,4s-7.68-11.57-3.81-17.43s11.57-7.68,17.31-4
			C212.09,146.96,213.71,154.78,209.97,160.84"/>
	</g>
</mask>
<path style="opacity:0.173;mask:url(#g_00000132800878088439369290000013483468612856976535_);fill:#F2F3F4;enable-background:new    ;" d="
	M213,162.71c-1.72,2.6-4.19,4.4-6.91,5.29l-7.72,0c-0.93-0.31-1.83-0.73-2.69-1.28c-5.74-3.67-7.68-11.57-3.81-17.43
	c3.87-5.86,11.57-7.68,17.31-4S216.74,156.66,213,162.71"/>
<path style="fill:#EAEDED;" d="M196.02,168h23.54c0.23-0.3,0.46-0.61,0.67-0.93c3.67-5.74,2.56-13.61-2.53-17.96l-10.74-7.01
	c-0.55-0.46-9.95-6.16-19.03,4.26c-3.48,5.62-4.47,10.51,3.63,18.88L196.02,168z M190.38,148.6c3.87-5.86,11.21-8.26,17.07-4.39
	c4.66,4.08,5.68,10.93,2.39,16.44c-3.55,5.94-11.26,7.75-17.31,4c-0.43-0.27-0.55-0.46-0.98-0.73
	C187.91,159.75,187.24,153.48,190.38,148.6z"/>
<path d="M236.63,158.55l1.85,1.26c1.3,0.8,3.21,0.43,4.01-0.87l1.26-1.85c0.8-1.3,0.43-3.21-0.87-4.01l-1.85-1.26
	c-1.3-0.8-3.21-0.43-4.01,0.87l-1.26,1.85C234.96,155.84,235.33,157.75,236.63,158.55z M237.06,155.35l1.26-1.85
	c0.46-0.55,1.16-0.72,1.91-0.38l1.85,1.26c0.55,0.46,0.72,1.16,0.38,1.91l-1.26,1.85c-0.46,0.55-1.36,0.84-1.91,0.38l-1.85-1.26
	C236.88,156.79,236.71,156.09,237.06,155.35z M255.15,145.25c-0.83,2.12-1.08,3.88-0.49,4.84c0.12,0.19,0.24,0.39,0.55,0.46
	c1.3,0.8,3.09,0.23,5.24-1.9c0.19-0.12,0.58-0.36,1.01-0.09c2.55,1.1,4.7,1.11,5.5-0.19c0.8-1.3,0.23-3.09-1.9-5.24
	c-0.12-0.19-0.36-0.58-0.09-1.01c1.1-2.55,1.11-4.7-0.19-5.5s-3.09-0.23-5.24,1.9c-0.19,0.12-0.58,0.36-1.01,0.09
	c-2.62-0.79-4.58-0.92-5.38,0.38c-0.8,1.3-0.23,3.09,1.9,5.24C255.18,144.43,255.42,144.81,255.15,145.25z M258.1,140.49
	c1.06,0.42,1.95,0.13,2.8-0.66c1.7-1.58,2.9-1.79,3.02-1.6c0.12,0.19,0.52,1.28-0.5,3.52c-0.42,1.06-0.13,1.95,0.66,2.8
	c1.58,1.7,1.99,2.78,1.6,3.02c-0.07,0.31-1.28,0.52-3.52-0.5c-1.06-0.42-1.95-0.13-2.8,0.66c-1.7,1.58-2.78,1.99-3.02,1.6
	c-0.31-0.07-0.52-1.28,0.5-3.52c0.34-0.75,0.25-1.76-0.11-2.34l-0.24-0.39c-1.58-1.7-1.99-2.78-1.6-3.02
	C254.65,139.67,255.86,139.46,258.1,140.49z M210.7,138.2l0.54-0.87c0.54-0.87,0.33-2.07-0.66-2.8l-9.2-5.81
	c-0.87-0.54-2.07-0.33-2.8,0.66l-0.54,0.87c-0.54,0.87-0.33,2.07,0.66,2.8l9.2,5.81C208.76,139.39,209.97,139.18,210.7,138.2z
	 M201.59,131.25c0.39-0.24,1.01-0.09,1.45,0.18l6.49,4.02c0.55,0.46,0.91,1.04,0.57,1.79l-0.27,0.43c-0.19,0.12-0.7,0.16-1.21,0.21
	l0.39-0.24l0.27-0.43c0.27-0.43-0.02-1.33-0.57-1.79l-6.49-4.02C202.1,131.2,201.79,131.13,201.59,131.25z M174.32,161.99l7.47,4.74
	l2.02,1.26h4.49l-5.49-3.5l-7.47-4.74c-1.42-1-1.79-2.9-1.11-4.4l14.4,9.03c0.67,0.65,1.22,1.12,1.9,1.77l0.12,0.19l0.43,0.27
	l0.12,0.19l1.79,1.19h11.52c0.97-0.38,1.72-0.82,2.73-1.19l1.93,1.19h2.25c-1.56-1.05-3.14-2.11-3.14-2.11
	c0.77-0.48,1.43-1.15,2.08-1.82l6.18,3.93h4.2c0.05-0.09,0.12-0.18,0.17-0.27c1.87-3.03,2.76-6.79,2.13-10.41
	c-0.16-0.7-0.33-1.4-0.38-1.91c2.36,3.82,2.62,8.45,0.43,12.59h2.59c1.15-2.62,1.63-5.58,1.13-8.47c0.07-0.31-0.16-0.7-0.28-0.89
	l13.65,8.69l-0.42,0.67h5.15l-1.38-0.87l5.55-8.77l1.34-2.16c0.73-0.98,0.83-2.12,0.74-3.13l6.37,3.82c1.42,1,1.79,2.9,0.92,4.51
	l-1.34,2.16l-2.81,4.44h2.76l2.09-3.29l1.34-2.16c0.8-1.3,1.17-2.86,0.84-4.26c-0.33-1.4-1.17-2.76-2.46-3.56l-7.16-4.67
	c0.54-0.87-0.11-2.34-1.57-3.84c-0.12-0.19-0.12-0.19-0.05-0.51c0.83-2.12,0.81-3.44-0.17-4.17c-0.98-0.73-2.46-0.09-3.96,1.38
	c-0.19,0.12-0.19,0.12-0.51,0.05c-2.12-0.83-3.64-0.7-4.17,0.17l-0.07,0.31l-14.08-8.95c-0.98-0.73-2.24-1.03-3.44-0.81l-3.35,0.2
	c-0.19,0.12-0.31-0.07-0.63-0.15l-9.52-5.89l0.27-0.43c0.8-1.3,0.55-3.01-0.75-3.81l-4.45-2.87c-1.3-0.8-3.01-0.55-3.81,0.75
	l-0.27,0.43l-1.37-0.49c-2.6-1.61-6.1-0.78-7.7,1.81l-19.59,31.07C170.9,156.88,171.6,160.19,174.32,161.99z M188.84,147.41
	c2.68-4.33,7.29-6.37,11.83-5.96c-4.25,0.48-8.12,2.87-10.53,6.77c-2.41,3.89-2.82,8.43-1.44,12.39
	C186.31,156.73,186.36,151.62,188.84,147.41z M209.97,160.84c-3.41,5.31-10.17,7.35-15.82,4.69c-4.66-4.08-5.68-10.93-2.39-16.44
	c3.41-5.31,10.17-7.35,15.7-4.88C212.42,148.36,213.45,155.22,209.97,160.84z M219.05,166.46c-0.27,0.43-0.54,0.87-0.92,1.1
	l-7.04-4.48l0.8-1.3c0.27-0.43,0.34-0.75,0.61-1.18l7.16,4.67C219.39,165.71,219.32,166.03,219.05,166.46z M220.2,164.42l-7.04-4.48
	c0.34-0.75,0.76-1.8,0.79-2.62l6.92,4.28L220.2,164.42z M213.08,147.69l3.7,2.53c1.66,1.38,2.73,3.13,3.49,4.79l-6.18-3.94
	C213.89,149.86,213.48,148.78,213.08,147.69z M214.24,156.06c0.1-1.13,0.21-2.27,0.11-3.28l6.49,4.02c0.21,1.21,0.3,2.22,0.32,3.55
	L214.24,156.06z M244.81,144.95c0.75,0.34,1.64,0.06,2.22-0.3c1.04-0.91,1.62-1.27,1.94-1.2c0.12,0.19,0.09,1.01-0.52,2.19
	c-0.34,0.75-0.06,1.64,0.3,2.22c0.91,1.04,1.27,1.62,1.2,1.94c-0.19,0.12-1.01,0.09-2.19-0.52c-0.75-0.34-1.64-0.06-2.22,0.3
	c-1.04,0.91-1.62,1.27-1.94,1.2c-0.12-0.19-0.28-0.89,0.52-2.19c0.15-0.63,0.18-1.45-0.06-1.83l-0.24-0.39
	c-0.91-1.04-1.27-1.62-1.2-1.94C242.81,144.31,243.63,144.34,244.81,144.95z M203.21,123.04c0.27-0.43,0.65-0.67,1.09-0.4l4.45,2.87
	c0.43,0.27,0.48,0.77,0.21,1.21l-0.27,0.43l-5.74-3.67L203.21,123.04z M194.25,124.55c1-1.42,2.78-1.99,4.4-1.11l20.14,12.7
	c0.55,0.46,1.18,0.61,1.88,0.44l3.35-0.2c0.7-0.16,1.45,0.18,1.88,0.44l16.99,10.63c0.12,0.19,0.12,0.19,0.05,0.51
	c-0.56,1.68-0.86,2.94-0.38,3.71c0.12,0.19,0.24,0.39,0.55,0.46c0.98,0.73,2.46,0.09,3.96-1.38c0.19-0.12,0.19-0.12,0.51-0.05
	l0.63,0.15c1.1,0.92,1.36,2.64,0.56,3.93l-1.34,2.16l-5.55,8.77l-15.81-10.02c-0.88-1.86-2.08-3.8-3.73-5.18
	c0,0-0.12-0.19-0.31-0.07l-10.62-6.81l-3.46-2.14c-3.03-1.87-5.97-2.73-8.81-2.58l-10.07-6.35L194.25,124.55z M187.86,134.12
	l8.22,5.09c-3.7,0.94-7.18,3.1-9.32,6.56c-2.87,4.45-3,9.87-0.95,14.49l-10.38-6.42L187.86,134.12z M221.07,146.77l8.77,5.55
	c0.87,0.54,2.07,0.33,2.8-0.66l2.14-3.46c0.54-0.87,0.33-2.07-0.66-2.8l-8.77-5.55c-0.87-0.54-2.07-0.33-2.8,0.66l-2.14,3.46
	C219.87,144.83,220.08,146.04,221.07,146.77z M224.35,141.26l8.77,5.55l-2.14,3.46l-8.77-5.55L224.35,141.26z"/>
<defs>
	
		<filter id="Adobe_OpacityMaskFilter_00000084523846402412507720000010526543337179325613_" filterUnits="userSpaceOnUse" x="293.47" y="51.61" width="44.19" height="72.38">
		<feColorMatrix  type="matrix" values="1 0 0 0 0  0 1 0 0 0  0 0 1 0 0  0 0 0 1 0"/>
	</filter>
</defs>
<mask maskUnits="userSpaceOnUse" x="293.47" y="51.61" width="44.19" height="72.38" id="_x31_3_00000129166708061103933790000004734961865286029714_">
	<g style="filter:url(#Adobe_OpacityMaskFilter_00000084523846402412507720000010526543337179325613_);">
		<path style="fill:#FFFFFF;" d="M311.42,51.61l-4.81,3.01c-0.29,0.12-0.32,0.54-0.32,0.54l-12.78,59.33
			c-0.19,0.68,0.33,1.28,0.87,1.46l36.66,8c0,0,0.41,0.17,0.7-0.09l4.8-2.87l1.1-3.83l-25.14-65.32L311.42,51.61z"/>
	</g>
</mask>
<linearGradient id="SVGID_00000165218300215917164070000015637161601438586031_" gradientUnits="userSpaceOnUse" x1="-1399.0842" y1="199.2159" x2="-1400.4584" y2="199.2159" gradientTransform="matrix(37.3561 23.3352 -24.6905 39.5257 57526.9102 24882.8809)">
	<stop  offset="0" style="stop-color:#F2D43D"/>
	<stop  offset="1" style="stop-color:#31895E"/>
</linearGradient>
<path style="mask:url(#_x31_3_00000129166708061103933790000004734961865286029714_);fill:url(#SVGID_00000165218300215917164070000015637161601438586031_);" d="
	M311.42,51.61l-4.81,3.01c-0.29,0.12-0.32,0.54-0.32,0.54l-12.78,59.33c-0.19,0.68,0.33,1.28,0.87,1.46l36.66,8
	c0,0,0.41,0.17,0.7-0.09l4.8-2.87l1.1-3.83l-25.14-65.32L311.42,51.61z"/>
<path style="fill:#DF5A3B;" d="M335.72,120.92l-36.66-8c-0.68-0.19-1.06-0.77-0.87-1.46l12.78-59.33c0.19-0.68,0.77-1.06,1.46-0.87
	l0,0l36.66,8c0.68,0.19,1.06,0.77,0.87,1.46l-12.78,59.33C336.99,120.59,336.4,121.11,335.72,120.92"/>
<path style="fill:#F2CE4D;" d="M337.11,100.95c-0.64,1.21-2.21,1.66-3.41,0.88c-1.21-0.64-1.66-2.21-0.88-3.41
	c0.64-1.21,2.21-1.66,3.41-0.88C337.43,98.32,337.89,99.75,337.11,100.95 M329.64,104.05c-0.64,1.21-2.21,1.66-3.42,1.02
	c-1.21-0.64-1.66-2.21-1.02-3.42l0,0c0.64-1.21,2.21-1.66,3.41-0.88C329.98,101.28,330.42,102.85,329.64,104.05 M306.45,106.75
	l-1.65-0.39c-0.42-0.03-0.85,0.22-1.02,0.63c-0.03,0.42,0.22,0.85,0.63,1.02l1.65,0.39c0.42,0.03,0.85-0.22,1.02-0.63
	C307.11,107.36,306.86,106.92,306.45,106.75 M313.04,108.19l-1.65-0.39c-0.42-0.03-0.85,0.22-1.02,0.63
	c-0.03,0.42,0.22,0.85,0.63,1.02l1.65,0.39c0.42,0.03,0.85-0.22,1.02-0.63C313.7,108.79,313.45,108.36,313.04,108.19"/>
<path style="fill:#62618F;" d="M315.31,95.66l-1.78-0.4l0.4-1.78c0.21-0.96-0.42-1.98-1.38-2.19c-0.96-0.21-1.98,0.42-2.19,1.38l0,0
	l-0.4,1.78l-1.78-0.4c-0.96-0.21-1.98,0.42-2.19,1.38c-0.21,0.96,0.42,1.98,1.38,2.19l1.78,0.4l-0.4,1.78
	c-0.21,0.96,0.42,1.98,1.38,2.19s1.98-0.42,2.19-1.38l0.4-1.78l1.78,0.4c0.96,0.21,1.98-0.42,2.05-1.39
	C316.76,96.88,316.26,96.01,315.31,95.66 M338.72,93.81l-31.04-6.63l6.77-31.03l30.91,6.62L338.72,93.81z"/>
<defs>
	
		<filter id="Adobe_OpacityMaskFilter_00000064332875385636300490000002045175355253880975_" filterUnits="userSpaceOnUse" x="310.24" y="59.99" width="32.52" height="30.38">
		<feColorMatrix  type="matrix" values="1 0 0 0 0  0 1 0 0 0  0 0 1 0 0  0 0 0 1 0"/>
	</filter>
</defs>
<mask maskUnits="userSpaceOnUse" x="310.24" y="59.99" width="32.52" height="30.38" id="_x31_1_00000129175330499963534670000007608322376033316265_">
	<g style="filter:url(#Adobe_OpacityMaskFilter_00000064332875385636300490000002045175355253880975_);">
		<path style="fill:#FFFFFF;" d="M315.57,59.99l-5.33,24.44l27.19,5.94l5.33-24.44L315.57,59.99z"/>
	</g>
</mask>
<linearGradient id="SVGID_00000157305348575580818730000010322336324053361281_" gradientUnits="userSpaceOnUse" x1="-1366.4535" y1="197.7842" x2="-1367.827" y2="197.7842" gradientTransform="matrix(21.3854 13.3588 -12.7267 20.3737 32080.5371 14308.959)">
	<stop  offset="0" style="stop-color:#F2D43D"/>
	<stop  offset="1" style="stop-color:#31895E"/>
</linearGradient>
<path style="mask:url(#_x31_1_00000129175330499963534670000007608322376033316265_);fill:url(#SVGID_00000157305348575580818730000010322336324053361281_);" d="
	M315.57,59.99l-5.33,24.44l27.19,5.94l5.33-24.44L315.57,59.99z"/>
<path style="fill:#231815;" d="M332.18,75.65L332.18,75.65L332.18,75.65L332.18,75.65z M317.1,98.02c-0.36,1.23-1.53,1.98-2.77,1.76
	l-1.24-0.23l-0.23,1.24c-0.19,0.68-0.49,1.08-1.08,1.46c-0.73,0.51-1.7,0.44-2.51-0.04l0,0c-0.8-0.47-1.29-1.48-1.07-2.58l0.23-1.24
	l-1.24-0.23c-0.55-0.18-1.08-0.49-1.46-1.08s-0.48-1.15-0.29-1.83c0.19-0.68,0.49-1.08,1.08-1.46c0.58-0.38,1.15-0.48,1.83-0.29
	l1.24,0.23l0.23-1.24c0.18-0.55,0.49-1.08,1.08-1.46s1.15-0.48,1.83-0.29s1.08,0.49,1.46,1.08s0.48,1.15,0.29,1.83l-0.23,1.24
	l1.24,0.23C316.72,95.48,317.46,96.79,317.1,98.02z M316.14,97.81c0.19-0.68-0.33-1.28-0.87-1.46l-1.78-0.4
	c-0.28-0.02-0.54-0.32-0.37-0.72l0.4-1.78c0.19-0.68-0.19-1.27-0.87-1.46c-0.28-0.02-0.69-0.05-0.99,0.21
	c-0.29,0.12-0.45,0.53-0.61,0.79l-0.4,1.78c-0.02,0.28-0.32,0.54-0.72,0.37l-1.78-0.4c-0.68-0.19-1.27,0.19-1.46,0.87
	c-0.19,0.68,0.19,1.27,0.87,1.46l0,0l1.78,0.4l0.14,0.01c0.27,0.16,0.26,0.3,0.24,0.57l-0.4,1.78c-0.05,0.69,0.33,1.28,1.01,1.46
	c0.69,0.05,1.28-0.33,1.46-0.87l0.4-1.78c0.02-0.28,0.32-0.54,0.72-0.37l0,0l1.78,0.4C315.23,98.86,315.95,98.49,316.14,97.81
	L316.14,97.81z M309.69,84.39l5.33-24.44c0.02-0.28,0.32-0.54,0.72-0.37l0,0l27.06,5.79c0.14,0.01,0.27,0.16,0.4,0.31
	c0.13,0.15,0.12,0.29,0.11,0.43l-5.33,24.44c-0.02,0.28-0.32,0.54-0.72,0.37l0,0l-27.19-5.94l-0.14-0.01
	C309.65,84.95,309.67,84.67,309.69,84.39z M310.83,84.06l26.1,5.59l5.11-23.34l-26.1-5.59L310.83,84.06z M330.76,76.11l-0.88,0.64
	l-0.15,0.13c-0.01,0.14,0.12,0.29,0.26,0.3s0.14,0.01,0.14,0.01l0.88-0.64c0.15-0.13,0.16-0.27,0.03-0.42
	C331.04,76.13,330.9,76.12,330.76,76.11z M330.19,104.23c-0.46,0.66-1.06,1.18-1.77,1.41c-0.71,0.23-1.55,0.17-2.35-0.3l-0.14-0.01
	l0,0c-0.66-0.46-1.04-1.05-1.27-1.76c-0.45-1.56,0.51-3.31,2.07-3.76c0.71-0.23,1.55-0.17,2.35,0.3
	C330.56,100.91,330.99,102.75,330.19,104.23z M329.35,102.22c-0.11-0.43-0.36-0.86-0.75-1.17l0,0l-0.14-0.01
	c-0.94-0.48-2.08-0.15-2.56,0.66c-0.31,0.4-0.35,0.95-0.25,1.52c0.11,0.43,0.5,0.87,0.89,1.18c0.4,0.31,0.95,0.35,1.52,0.25
	C329.07,104.29,329.7,103.22,329.35,102.22z M314.08,109.38c-0.19,0.68-0.92,1.19-1.6,1l-1.65-0.39c-0.14-0.01-0.27-0.16-0.41-0.17
	c-0.66-0.46-0.88-1.32-0.42-1.98c0.32-0.54,0.89-0.77,1.44-0.6l1.65,0.39C313.91,107.83,314.26,108.69,314.08,109.38z
	 M313.13,109.03c0.01-0.14,0.02-0.28-0.12-0.29c0,0,0,0-0.14-0.01l-1.65-0.39c-0.14-0.01-0.29,0.12-0.3,0.26s0.12,0.29,0.26,0.3
	l1.65,0.39C312.97,109.3,313.11,109.31,313.13,109.03z M345.9,62.94l-6.77,31.03c-0.02,0.28-0.32,0.54-0.72,0.37l-30.91-6.62
	l-0.14-0.01c-0.27-0.16-0.26-0.3-0.24-0.57l6.77-31.03c0.02-0.28,0.32-0.54,0.72-0.37l0,0l31.03,6.77
	C345.8,62.38,346.05,62.67,345.9,62.94z M344.76,63.28l-29.93-6.55l-6.55,29.93l29.93,6.55L344.76,63.28z M350.64,60.9l-12.78,59.33
	c-0.17,0.41-0.34,0.81-0.77,1.06l-4.95,3c-0.3,0.26-0.71,0.23-0.85,0.22s-0.28-0.02-0.42-0.03l-36.66-8
	c-0.96-0.21-1.59-1.23-1.38-2.19l12.78-59.33c0,0,0.05-0.69,0.63-1.07l4.81-3.01l0,0l0,0l0.15-0.13l0,0c0.56-0.1,0.98-0.07,1.4-0.04
	l0.14,0.01l36.54,7.85c0.55,0.18,0.95,0.35,1.2,0.78C350.71,59.93,350.82,60.36,350.64,60.9z M334.43,121.39l-35.56-7.78
	c-0.96-0.21-1.59-1.23-1.38-2.19l12.56-58.09l-3.06,1.88l-0.01,0.14l-12.91,59.18c-0.02,0.28,0.1,0.56,0.38,0.58l36.8,8.01
	c0.14,0.01,0.14,0.01,0.14,0.01L334.43,121.39z M349.4,60.68c0.01-0.14,0.02-0.28-0.11-0.43c-0.13-0.15-0.13-0.15-0.27-0.16
	l-36.8-8.01l0,0c-0.14-0.01-0.14-0.01-0.29,0.12c-0.14-0.01-0.29,0.12-0.3,0.26l-12.77,59.19c-0.02,0.28,0.1,0.56,0.38,0.58
	l23.07,4.96l1.46-6.87c0.02-0.28,0.32-0.54,0.72-0.37c0.28,0.02,0.54,0.32,0.37,0.72l-1.46,6.87l1.37,0.37l1.46-6.87
	c0.02-0.28,0.32-0.54,0.72-0.37c0.28,0.02,0.54,0.32,0.37,0.72l-1.46,6.87l1.37,0.37l1.46-6.87c0.02-0.28,0.32-0.54,0.72-0.37
	c0.41,0.17,0.54,0.32,0.37,0.72l-1.46,6.87l1.37,0.37l1.46-6.87c0.02-0.28,0.32-0.54,0.72-0.37c0.28,0.02,0.54,0.32,0.37,0.72
	l-1.46,6.87l1.37,0.37l1.46-6.87c0.02-0.28,0.31-0.4,0.58-0.38s0.54,0.32,0.52,0.59l-1.46,6.87l2.34,0.44
	c0.14,0.01,0.28,0.02,0.43-0.11c0.15-0.13,0.15-0.13,0.16-0.27L349.4,60.68z M332.96,74.45l-0.88,0.64l-0.15,0.13
	c-0.01,0.14,0.12,0.29,0.26,0.3s0.14,0.01,0.14,0.01l0.88-0.64c0.15-0.13,0.16-0.27,0.02-0.28
	C333.24,74.47,333.1,74.46,332.96,74.45z M307.42,106.82c0.37,0.72,0.31,1.56-0.42,2.06c-0.3,0.26-0.71,0.23-1.13,0.2l-1.65-0.39
	c-0.14-0.01-0.27-0.16-0.41-0.17l0,0c-0.66-0.46-0.88-1.32-0.42-1.98c0.15-0.13,0.31-0.4,0.45-0.39c0.3-0.26,0.58-0.38,0.99-0.21
	l1.65,0.39C306.9,106.37,307.17,106.52,307.42,106.82z M306.52,107.73c0.01-0.14,0.01-0.14,0.02-0.28c0,0,0,0-0.13-0.15l0,0
	c0,0,0,0-0.14-0.01l-1.65-0.39c-0.14-0.01-0.29,0.12-0.3,0.26s-0.01,0.14-0.02,0.28l0.13,0.15l1.65,0.39
	C306.37,108,306.51,107.87,306.52,107.73z M327.18,71.4c-0.14-0.01-0.29,0.12-0.3,0.26l-0.22,1.1l0,0c-0.01,0.14,0.12,0.29,0.26,0.3
	l0,0l0,0c0.14,0.01,0.29-0.12,0.3-0.26l0.22-1.1C327.45,71.55,327.32,71.4,327.18,71.4z M338.46,73.58l-3.95,0.7l-0.14-0.01
	c-0.28-0.02-0.4-0.31-0.25-0.44l0.01-0.14l2.18-3.33c0.15-0.13,0.3-0.26,0.56-0.1c0.14,0.01,0.13,0.15,0.12,0.29l0.03,1.54
	l1.49,0.66c0.13,0.15,0.26,0.3,0.1,0.56C338.75,73.46,338.6,73.59,338.46,73.58z M337.11,72.92l-0.54-0.32
	c-0.14-0.01-0.27-0.16-0.26-0.3l-0.1-0.56l-0.94,1.47L337.11,72.92z M325.99,84.56L325.99,84.56L325.99,84.56L325.99,84.56z
	 M325.59,80.21l0.85,3.82c-0.02,0.28-0.03,0.42-0.31,0.4L326,84.42c0,0-0.14-0.01-0.13-0.15l-1.18-1.06l-1.56,0.45
	c-0.15,0.13-0.42-0.03-0.54-0.32c0.01-0.14,0.02-0.28,0.03-0.42l2.31-3.18c0.15-0.13,0.44-0.25,0.56-0.1
	C325.6,80.07,325.6,80.07,325.59,80.21z M325.39,83.12l-0.43-1.84l-1.08,1.46l0.57-0.24l0.14,0.01c0,0,0.14,0.01,0.13,0.15
	L325.39,83.12z M324.05,66.3l0.72-0.37l0,0c0.29-0.12,0.32-0.54,0.2-0.82l0.01-0.14l0,0c-0.12-0.29-0.54-0.32-0.82-0.2l0,0
	c-0.12-0.29-0.54-0.32-0.82-0.2l-0.14-0.01l0,0c-0.29,0.12-0.32,0.54-0.2,0.82l0.37,0.72C323.49,66.4,323.77,66.42,324.05,66.3z
	 M337.65,101.26c-0.8,1.48-2.64,1.91-4.12,1.11l-0.14-0.01c-0.66-0.46-1.04-1.05-1.27-1.76c-0.45-1.56,0.51-3.31,2.07-3.76
	c0.71-0.23,1.55-0.17,2.35,0.3C338.02,97.94,338.45,99.78,337.65,101.26z M336.05,98.08L336.05,98.08L336.05,98.08
	c-0.93-0.62-2.21-0.29-2.69,0.65c-0.31,0.4-0.35,0.95-0.25,1.52c0.35,1,1.28,1.62,2.42,1.28c0.43-0.11,0.87-0.5,1.18-0.89
	C337.19,99.84,336.85,98.7,336.05,98.08z M326.19,75.65L326.19,75.65c0.14,0.01,0.29-0.12,0.3-0.26l0.22-1.1
	c0.01-0.14-0.12-0.29-0.26-0.3c-0.14-0.01-0.29,0.12-0.3,0.26l-0.08,1.11l0,0C326.06,75.5,326.05,75.64,326.19,75.65z M321.95,64.48
	L321.95,64.48c-0.12-0.29-0.54-0.32-0.82-0.2l0,0c-0.12-0.29-0.54-0.32-0.82-0.2l-0.14-0.01l0,0c-0.29,0.12-0.32,0.54-0.2,0.82
	l0.37,0.72c0.12,0.29,0.4,0.31,0.68,0.19l0.87-0.5l0,0C322.18,65.19,322.21,64.77,321.95,64.48L321.95,64.48z M325.56,78.67
	L325.56,78.67L325.56,78.67c0.14,0.01,0.29-0.12,0.3-0.26l0.22-1.1c0.01-0.14-0.12-0.29-0.26-0.3s-0.29,0.12-0.3,0.26l-0.22,1.1l0,0
	C325.43,78.52,325.42,78.66,325.56,78.67z M318.93,63.85L318.93,63.85c-0.12-0.29-0.54-0.32-0.82-0.2l0,0
	c-0.12-0.29-0.54-0.32-0.82-0.2l-0.14-0.01l0,0c-0.29,0.12-0.32,0.54-0.2,0.82l0.37,0.72c0.12,0.29,0.4,0.31,0.68,0.19l0.72-0.37
	l0,0C319.02,64.55,319.05,64.14,318.93,63.85L318.93,63.85z"/>
<path style="fill:#FFFFFF;fill-opacity:0.25;" d="M323.63,62.36l8.93,1.88l-11.84,21.9l-8.93-1.88L323.63,62.36z M334.48,64.66
	l1.37,0.37l-11.84,21.9l-1.52-0.25L334.48,64.66z M337.09,65.26l0.55,0.18l-11.71,21.91l-0.55-0.18L337.09,65.26z"/>
<path style="fill-rule:evenodd;clip-rule:evenodd;fill:#6F98B8;fill-opacity:0.9;" d="M352.08,168V3.15v0h-0.01v0
	c0,26.06-78.15,47.18-174.57,47.18C81.55,50.33,3.69,29.4,2.94,3.52l0,164.48H352.08z"/>
<path style="fill:#231815;" d="M169.43,69.5c-49.3,0-96.56-8.14-140.45-24.18c-0.52-0.19-0.79-0.77-0.6-1.29
	c0.19-0.52,0.77-0.79,1.29-0.6c87.36,31.94,186.9,31.93,295.87-0.02c0.54-0.16,1.09,0.15,1.25,0.68c0.16,0.53-0.15,1.09-0.68,1.25
	C271.43,61.37,218.71,69.5,169.43,69.5z M326.11,49.36c0.53-0.16,0.84-0.71,0.68-1.25c-0.16-0.53-0.71-0.84-1.25-0.68
	C216.57,79.38,117.03,79.39,29.67,47.45c-0.52-0.19-1.1,0.08-1.29,0.6c-0.19,0.52,0.08,1.1,0.6,1.29
	c43.89,16.05,91.15,24.18,140.45,24.18C218.71,73.52,271.43,65.39,326.11,49.36z M326.11,53.38c0.53-0.16,0.84-0.71,0.68-1.25
	c-0.16-0.53-0.71-0.84-1.25-0.68C216.57,83.4,117.03,83.41,29.67,51.47c-0.52-0.19-1.1,0.08-1.29,0.6c-0.19,0.52,0.08,1.1,0.6,1.29
	c43.89,16.05,91.15,24.18,140.45,24.18C218.71,77.54,271.43,69.41,326.11,53.38z M326.11,57.4c0.53-0.16,0.84-0.71,0.68-1.25
	c-0.16-0.53-0.71-0.84-1.25-0.68C216.57,87.42,117.03,87.43,29.67,55.49c-0.52-0.19-1.1,0.08-1.29,0.6c-0.19,0.52,0.08,1.1,0.6,1.29
	c43.89,16.05,91.15,24.18,140.45,24.18C218.71,81.56,271.43,73.43,326.11,57.4z M326.11,61.42c0.53-0.16,0.84-0.71,0.68-1.25
	c-0.16-0.53-0.71-0.84-1.25-0.68C216.57,91.44,117.03,91.45,29.67,59.51c-0.52-0.19-1.1,0.08-1.29,0.6c-0.19,0.52,0.08,1.1,0.6,1.29
	c43.89,16.05,91.15,24.18,140.45,24.18C218.71,85.58,271.43,77.45,326.11,61.42z M326.11,65.44c0.53-0.16,0.84-0.71,0.68-1.25
	c-0.16-0.53-0.71-0.84-1.25-0.68C216.57,95.46,117.03,95.47,29.67,63.53c-0.52-0.19-1.1,0.08-1.29,0.6c-0.19,0.52,0.08,1.1,0.6,1.29
	C72.87,81.47,120.13,89.6,169.43,89.6C218.71,89.6,271.43,81.47,326.11,65.44z M326.11,69.46c0.53-0.16,0.84-0.71,0.68-1.25
	c-0.16-0.53-0.71-0.84-1.25-0.68C216.57,99.48,117.03,99.49,29.67,67.55c-0.52-0.19-1.1,0.08-1.29,0.6c-0.19,0.52,0.08,1.1,0.6,1.29
	c43.89,16.05,91.15,24.18,140.45,24.18C218.71,93.62,271.43,85.49,326.11,69.46z M198.51,168l-0.05-22.17
	c0-1.03,0.83-1.87,1.86-1.87c0,0,0.01,0,0.01,0l2.94,0.01l-0.03-14c0-1.57,1.26-2.84,2.83-2.84c0.01,0,0.01,0,0.02,0v0
	c1.58,0,2.86,1.28,2.86,2.86l0.03,14l4.2,0.01c1.04,0,1.88,0.84,1.88,1.88h0l0.05,22.13H198.51z M185.97,168l-0.05-22.13h0
	c0-1.04-0.85-1.88-1.88-1.88l-3.19-0.01l-0.03-14c-0.01-1.58-1.28-2.86-2.86-2.86v0c-0.01,0-0.01,0-0.02,0
	c-1.57,0-2.84,1.28-2.83,2.84l0.03,14l-3.94-0.01c0,0-0.01,0-0.01,0c-1.03,0-1.87,0.84-1.86,1.87l0.05,22.17H185.97z M159.24,168
	l-0.05-22.13c0-1.04-0.85-1.88-1.88-1.88l-3.6-0.01l-0.03-14c-0.01-1.58-1.29-2.85-2.86-2.86v0c0,0-0.01,0-0.01,0
	c-1.57,0-2.84,1.27-2.84,2.84l0.03,14l-3.53-0.01c0,0-0.01,0-0.01,0c-1.03,0-1.87,0.84-1.86,1.87l0.05,22.17H159.24z M5.87,168
	l0-151.67l0.27,0.3c10.81,11.48,35.24,21.08,68.04,27.57l3.75,0.72l3.82,0.69c2.57,0.45,5.18,0.89,7.84,1.31l4.02,0.61
	c1.35,0.2,2.71,0.39,4.08,0.58l4.14,0.55c0.7,0.09,1.39,0.18,2.09,0.27l4.23,0.51c1.42,0.16,2.85,0.32,4.29,0.48l4.34,0.45
	c0.73,0.07,1.46,0.14,2.19,0.21l4.42,0.4c0.74,0.06,1.49,0.13,2.23,0.19l4.5,0.35c3.02,0.23,6.06,0.43,9.14,0.61l4.64,0.26
	c2.33,0.12,4.68,0.23,7.04,0.32l4.74,0.17c1.59,0.05,3.18,0.1,4.79,0.14l4.82,0.11l4.86,0.07c0.81,0.01,1.63,0.02,2.44,0.02
	l4.91,0.02l4.88-0.02l4.84-0.05l4.81-0.09l4.77-0.12c1.58-0.05,3.16-0.1,4.74-0.16l4.7-0.19c1.55-0.07,3.1-0.14,4.66-0.22l4.61-0.26
	l4.57-0.29c5.3-0.35,10.51-0.77,15.61-1.26l4.35-0.43l4.29-0.46l4.24-0.49c2.81-0.34,5.58-0.69,8.3-1.07l4.06-0.57l4-0.6
	c1.99-0.31,3.94-0.63,5.88-0.96l3.84-0.67l3.77-0.7c0.62-0.12,1.24-0.24,1.86-0.36l3.66-0.74c30.85-6.39,53.9-15.6,64.54-26.54h0
	l0.65-0.7l0,151.68H355V3.14c0-1.18-0.71-2.25-1.8-2.71l0,0c-1.91-0.8-4.01,0.56-4.07,2.62l-0.02,0.78
	c-1.06,17.6-45.57,33.6-107.96,40.27l-4.96,0.51c-5.96,0.58-11.93,1.07-17.91,1.46L213,46.39c-11.47,0.65-23.35,1-35.51,1
	C84.31,47.38,8.04,27.16,5.91,4.11l-0.04-0.7C5.76-0.45,0-0.37,0,3.49L0,168H5.87z"/>
<path style="fill-rule:evenodd;clip-rule:evenodd;fill:#FAD786;" d="M183.74,163.42l0.01,2.68l-12.17-0.03l-0.01-2.68L183.74,163.42
	z M183.73,158.51l0.01,2.68l-12.17-0.03l-0.01-2.68L183.73,158.51z M183.72,153.59l0.01,2.68l-12.17-0.03l-0.01-2.68L183.72,153.59z
	 M183.71,148.68l0.01,2.68l-12.17-0.03l-0.01-2.68L183.71,148.68z"/>
<path style="fill-rule:evenodd;clip-rule:evenodd;fill:#DD6D5F;" d="M212.89,163.42l0.01,2.68l-12.17-0.03l-0.01-2.68L212.89,163.42
	z M212.88,158.51l0.01,2.68l-12.17-0.03l-0.01-2.68L212.88,158.51z M212.86,153.59l0.01,2.68l-12.17-0.03l-0.01-2.68L212.86,153.59z
	 M212.85,148.68l0.01,2.68l-12.17-0.03l-0.01-2.68L212.85,148.68z M157.01,163.42l0.01,2.68l-12.17-0.03l-0.01-2.68L157.01,163.42z
	 M157,158.51l0.01,2.68l-12.17-0.03l-0.01-2.68L157,158.51z M156.99,153.59l0.01,2.68l-12.17-0.03l-0.01-2.68L156.99,153.59z
	 M156.98,148.68l0.01,2.68l-12.17-0.03l-0.01-2.68L156.98,148.68z"/>
</svg>
