<?xml version="1.0" encoding="utf-8"?>
<!-- Generator: Adobe Illustrator 26.5.0, SVG Export Plug-In . SVG Version: 6.00 Build 0)  -->
<svg version="1.1" id="圖層_1" xmlns="http://www.w3.org/2000/svg" xmlns:xlink="http://www.w3.org/1999/xlink" x="0px" y="0px"
	 viewBox="0 0 375 628" style="enable-background:new 0 0 375 628;" xml:space="preserve">
<linearGradient id="SVGID_1_" gradientUnits="userSpaceOnUse" x1="187.5" y1="1.1667" x2="187.5" y2="99.6101">
	<stop  offset="0" style="stop-color:#30211D;stop-opacity:0"/>
	<stop  offset="1" style="stop-color:#30211D"/>
</linearGradient>
<path style="fill:url(#SVGID_1_);" d="M187.6,627.8l0,0.2L187.6,627.8l0,0.2L187.6,627.8L187.6,627.8L187.6,627.8L187.6,627.8z
	 M187.5,626.9l0.1,0.9l0,0L187.5,626.9z M187.6,627.8L187.6,627.8L187.6,627.8L187.6,627.8z M187.6,627.8L187.6,627.8L187.6,627.8
	L187.6,627.8z M186.7,626.9l0.7,0L186.7,626.9L186.7,626.9z M375,78.4L187.8,625.9l0.1,0L375,203.7v93.7L188,625.9l0.8,0.1
	L375,371.2v61.6L189.2,626.1l0.5,0.1L375,486.5V533l-183,92.5l183-51.9v40.2l-182.6,12.6l-3.4,0.2l0,0l-0.2,0l-1.2,0.1l0.7,0l0,0
	l-0.2,0.3l-0.5-0.3l0.9-0.3l0.3-0.3L188,626v0l-0.5,0.8l-0.5-0.3v0l-0.2,0.3l-4.1,0.3L0,602.3v-37.7L185,627l0.2,0l1.3-0.7L0,528.2
	v-37.7l186.7,135.8l0.1-0.1L0,449.8v-42.5l186.9,218.9l0.1,0L0,360.7V308l187,318.1l0.2-0.1l-0.8-2.4L0,246.7v-74L185.5,621L0,79.5
	V0.2h12.8l173.8,623.6l0.4,0.9L50.1,0.2h35.1l102,625l0.1,0.3l-68-625.3h33.8l34.3,625.5l0.1,0.2V0.2h36.1l-36,625.7l0.1,0
	L261.4,0.2h41.4L187.7,625.9l0.1,0L348.6,0.2H375V78.4z M186.9,626.5l-0.1-0.1l-0.7,0.5l0.4,0L186.9,626.5z M187.4,626.9l0.1,0l0,0
	L187.4,626.9z M186.6,627.1l-0.3,0.3l0.7,0.2l0.5-0.8h0L186.6,627.1z M188.5,627.4l1.5-0.7l-0.2,0L188.5,627.4z M188.5,626.8
	l-0.4,0.4l0.1,0.1l0.7-0.5l-0.2,0L188.5,626.8z"/>
</svg>
