<svg xmlns="http://www.w3.org/2000/svg" width="40" height="40" style=" 0 0 40 40" xml:space="preserve"><linearGradient id="a" gradientUnits="userSpaceOnUse" x1="-677.131" y1="379.611" x2="-677.211" y2="379.082" gradientTransform="matrix(-25.7337 12.5512 -9.4815 -19.44 -13806.599 15896.848)"><stop offset="0" style="stop-color:#edd23d"/><stop offset="1" style="stop-color:#418f5c"/></linearGradient><path style="fill:url(#a)" d="M37.8 26.2c.9-.5 1.3-1.6.9-2.6L31.4 8.9l-.5-1c-.4-1-1.6-1.4-2.5-.9l-11.5 5.6c-.3.1-.4.4-.2.7l.7 1.4L6 20.2c-.3.1-.4.4-.2.7l8 16.4c.1.3.4.4.7.2l23.3-11.3z"/><path style="opacity:.57;fill:#eb984e" d="M37.9 23.5c.2-.1.3-.4.2-.6l-4.5-9.2c-.1-.2-.4-.3-.6-.2l-3.8 1.8c-.2.2-.2.5-.1.7l4.5 9.2c.1.2.4.3.6.2-.1 0 3.7-1.9 3.7-1.9z"/><path style="fill:#a9abad" d="m33.9 26-7.2-14.8-.5-1c-.5-1-1.6-1.3-2.6-.9l-10.2 5c-.4.2-.7.5-.9.8l-.5 1.3c-.1.2-.2.3-.4.4l-4.8 2.3-.3-.7c-.2-.4-.7-.6-1.1-.4l-2.1 1c-.4.2-.6.7-.4 1.1l.3.7-1.1.5c-.9.5-1.3 1.6-.9 2.6l7.1 14.5c.5 1 1.6 1.3 2.6.9L33 28.5c1-.4 1.4-1.6.9-2.5z"/><path style="fill:#c8a34c" d="m5.7 18.4-.8.4c.1-.1.3 0 .4.1l.5 1c.1.1 0 .3-.1.4l.8-.4c.1-.1.2-.2.1-.4l-.5-1c-.1-.1-.3-.2-.4-.1"/><path style="opacity:.55;fill:#fff" d="m33 27.2-7.2-14.8-.5-1c-.3-.7-1.2-1-1.9-.6l-10.2 5c-.3.1-.5.3-.6.6l-.6 1.2c-.1.3-.4.5-.6.6L2 22.8c-.1.1-.2.1-.3.2 0-.5.3-1 .8-1.2l9.4-4.6c.3-.1.5-.3.6-.6l.7-1.3c.1-.3.4-.5.6-.6l10.2-5c.7-.3 1.5 0 1.9.6l.5 1 7.2 14.8c.3.6.1 1.2-.3 1.7-.2-.2-.2-.4-.3-.6"/><path style="fill:#e9cb5d" d="M33.3 25.8c.2-.1.3-.4.2-.6L29 16c-.1-.2-.4-.3-.6-.2l-24.5 12c-.2.1-.3.4-.2.6l4.5 9.2c.1.2.4.3.6.2-.1 0 24.5-12 24.5-12zM20.2 10.3c-.1-.3.2-.8.8-1.2.2-.1.3-.3.2-.6-.2-.7-.1-1.3.2-1.4.3-.1.7.2 1.2.8.1.2.3.3.6.2.6-.1 1.2-.1 1.3.2.1.3-.2.7-.8 1.2-.2.1-.3.3-.2.6.2.7.1 1.3-.2 1.4-.3.1-.7-.2-1.2-.8-.1-.2-.3-.3-.6-.2-.6.1-1.2.1-1.3-.2m1-5.5c-.2-.4.3-1 1.1-1.6.2-.2.4-.5.3-.8-.2-1-.1-1.8.3-1.9.4-.2 1 .3 1.6 1.1.2.2.5.4.8.3 1-.2 1.8-.1 1.9.3.2.4-.3 1-1.1 1.6-.2.2-.4.5-.3.8.2 1 .1 1.8-.3 1.9-.4.2-1-.3-1.6-1.1-.1-.3-.4-.4-.7-.4-1 .2-1.8.2-2-.2"/><path style="opacity:.534;fill:#fff" d="m33.1 25.4-.9.5-4.5-9.2.9-.5 4.5 9.2z"/><path style="fill:#707b7c" d="M23.4 30.7c2.5-1.7 3.4-5 2.1-7.7-1.3-2.7-4.5-4.1-7.3-3.2h-.1l-5 2.4c-.3.1-.4.4-.2.7l1.1 2.4c-.1 1.9.8 3.8 2.3 5l1.2 2.7c.1.3.4.4.7.3l5.2-2.6"/><path style="fill:#707b7c" d="M16.8 34c3-1.5 4.2-5.1 2.8-8.1-1.5-3-5.1-4.3-8.1-2.8s-4.2 5.1-2.8 8.1c1.4 3 5.1 4.2 8.1 2.8"/><path style="fill:#464f51" d="M19.1 26.1c1.3 2.8.2 6.1-2.5 7.4-2.7 1.3-6.1.2-7.4-2.6s-.2-6.1 2.5-7.4c2.7-1.4 6-.2 7.4 2.6"/><path style="fill:#654c4c" d="m5.3 22.3 4.7-2.4.7 1.2c-3.4 2-5.6 1.3-5.4 1.2zm19.9-7.4c.5-.2.6-.8.4-1.2l-.4-.9c-.2-.5-.8-.6-1.2-.4l-1 .4c-.5.2-.6.8-.4 1.2l.4.9c.2.5.8.7 1.2.4.1 0 1-.4 1-.4z"/><path style="fill:#403a3a" d="M20.3 16.2c.2-.1.3-.4.2-.6l-.8-1.5c-.1-.2-.4-.3-.6-.2l-4.1 2c-.2.1-.3.4-.2.6l.8 1.6c.1.2.4.3.6.2l4.1-2.1z"/><path style="opacity:.45;fill:#f2f3f4" d="m18.6 16.8-.4.2-1-2.1.4-.2 1 2.1zm-.4-2.4-.4.2 1 2.1.4-.2-1-2.1zm-.9 3-1-2.1-.4.2 1 2.1.4-.2zm-.6.3-1-2.1-.4.2 1 2.1.4-.2zm1.7-3.3 1 2 .4-.2-1-2-.4.2zm-.9 2.9.4-.2-1-2.1-.4.2 1 2.1z"/><defs><filter id="b" filterUnits="userSpaceOnUse" x="11.6" y="23.3" width="8.5" height="8.5"><feColorMatrix values="1 0 0 0 0 0 1 0 0 0 0 0 1 0 0 0 0 0 1 0"/></filter></defs><mask maskUnits="userSpaceOnUse" x="11.6" y="23.3" width="8.5" height="8.5" id="c"><g style="filter:url(#b)"><path style="fill:#fff" d="M19.1 26.1c1.3 2.8.2 6.1-2.5 7.4-2.7 1.3-6.1.2-7.4-2.6-1.3-2.8-.2-6.1 2.5-7.4 2.7-1.4 6-.2 7.4 2.6"/></g></mask><path style="mask:url(#c);fill:#353535" d="M19.7 25.8c1 2.1.2 4.7-1.9 5.7s-4.7.1-5.7-2-.2-4.7 1.9-5.7c2.1-1.1 4.6-.2 5.7 2"/><defs><filter id="d" filterUnits="userSpaceOnUse" x="14.3" y="25" width="4.5" height="4.5"><feColorMatrix values="1 0 0 0 0 0 1 0 0 0 0 0 1 0 0 0 0 0 1 0"/></filter></defs><mask maskUnits="userSpaceOnUse" x="14.3" y="25" width="4.5" height="4.5" id="e"><g style="filter:url(#d)"><path style="fill:#fff" d="M19.1 26.1c1.3 2.8.2 6.1-2.5 7.4-2.7 1.3-6.1.2-7.4-2.6-1.3-2.8-.2-6.1 2.5-7.4 2.7-1.4 6-.2 7.4 2.6"/></g></mask><path style="mask:url(#e);fill:#1c1c1c" d="M18.5 26.3c.5 1.1.1 2.5-1 3s-2.5.1-3-1-.1-2.5 1-3c1.2-.6 2.5-.1 3 1"/><defs><filter id="f" filterUnits="userSpaceOnUse" x="10" y="22.2" width="11.1" height="11.1"><feColorMatrix values="1 0 0 0 0 0 1 0 0 0 0 0 1 0 0 0 0 0 1 0"/></filter></defs><mask maskUnits="userSpaceOnUse" x="10" y="22.2" width="11.1" height="11.1" id="g"><g style="filter:url(#f)"><path style="fill:#fff" d="M19.1 26.1c1.3 2.8.2 6.1-2.5 7.4-2.7 1.3-6.1.2-7.4-2.6-1.3-2.8-.2-6.1 2.5-7.4 2.7-1.4 6-.2 7.4 2.6"/></g></mask><path style="opacity:.173;mask:url(#g);fill:#f2f3f4" d="M20.5 25.4c1.3 2.8.2 6.1-2.5 7.4-2.7 1.3-6.1.2-7.4-2.6-1.3-2.8-.2-6.1 2.5-7.4s6-.2 7.4 2.6"/><path style="fill:#eaeded" d="M28.8 23.2c.5-.3.7-.9.5-1.4-.2-.5-.9-.7-1.4-.5-.5.3-.7.9-.5 1.4.3.5.9.7 1.4.5m-5 .5c-1.3-2.7-4.5-4.1-7.3-3.2l-5.1 2.4c-.3.1-4.6 2.3-2.8 8.1 1.3 2.6 2.9 4.1 7.9 3l5.2-2.6c2.5-1.6 3.4-4.9 2.1-7.7zm-7.3 9.8c-.2.1-.3.1-.5.2-2.4.4-4.9-.8-6-3.1-1.3-2.8-.5-6.1 2.3-7.4 2.6-.8 5.4.4 6.7 2.9 1.4 2.7.3 6-2.5 7.4z"/><path d="M39.1 23.4 31.9 8.6l-.5-1c-.3-.6-.8-1.1-1.4-1.3-.6-.2-1.3-.2-1.9.1L24.7 8c-.2-.4-.9-.5-1.8-.3-.1 0-.1 0-.2-.1-.6-.8-1.1-1.1-1.6-.9-.5.2-.6.9-.4 1.8 0 .1 0 .1-.1.2-.8.6-1.1 1.2-.9 1.6l.1.1-6.6 3.2c-.5.2-.9.6-1.1 1.1l-.7 1.3c0 .1-.1.1-.2.2l-4.4 2.2-.1-.2c-.3-.6-1-.9-1.6-.6l-2.1 1c-.6.3-.9 1-.6 1.6l.1.2-.5.4C.8 21.4.3 22.9.9 24.1L8 38.6c.6 1.2 2 1.7 3.3 1.1l3.5-1.7 8.5-4.2 10-4.9 4.7-2.3c1.2-.5 1.7-2 1.1-3.2zm-10.5-16c.7-.3 1.5 0 1.9.7l.5 1 2 4.1h-.1L29.2 15l-2-4.1-.5-1c-.2-.5-.6-.8-1-1l2.9-1.5zM9.7 25.1c-.8 1.7-.8 3.7.1 5.5.9 1.8 2.5 3 4.3 3.4-2 0-3.9-1.2-4.9-3.1-1-2-.7-4.2.5-5.8zM25 23.2c1 2 .7 4.2-.6 5.8.1-.3.2-.5.3-.8.4-1.5.3-3.2-.5-4.6-.7-1.4-1.9-2.6-3.4-3.2-.3-.1-.6-.2-.8-.3 2.1 0 4 1.1 5 3.1zm-2 .3c.1.2.2.3.3.5.1.2.2.4.2.6l-3.3 1.6-.3-.6c-.1-.2-.2-.3-.3-.5l3.4-1.6zm-3.5 1.2c-.2-.3-.5-.7-.8-.9l3.2-1.6.9.9-3.3 1.6zm.8 5.9 2.8-1.4c-.4.7-.9 1.3-1.6 1.8l-1.7.9c.2-.4.4-.9.5-1.3zm.2-.7c.1-.5.1-.9.2-1.4l3.2-1.6c-.1.5-.2 1-.4 1.5l-3 1.5zm.1-2c0-.4-.1-.8-.2-1.2l3.3-1.6c.1.4.1.8.2 1.3l-3.3 1.5zm-.5-6.8c.5.2.9.4 1.4.7l-3.2 1.6c-.4-.3-.8-.6-1.2-.8l3-1.5zm-3.7 1.2c-.5-.2-1-.3-1.5-.4l1.8-.8c.9-.3 1.8-.3 2.6-.2l-2.9 1.4zm2.7 3.8c1.2 2.5.4 5.5-1.9 7-2.6.8-5.4-.4-6.7-2.9-1.2-2.5-.4-5.5 1.8-7 2.7-.9 5.5.3 6.8 2.9zm6.8-3.4c-.7-1.4-1.9-2.6-3.4-3.2-.1-.1-.3-.1-.4-.1l6.4-3.1 4 8.1.5 1-7.5 3.6c.3-.5.6-1.1.8-1.7.5-1.5.3-3.2-.4-4.6zM21.2 9.4c.3-.2.4-.6.4-.9-.1-.6-.1-.9 0-1 .1 0 .4.2.7.7.2.3.6.4.9.4.6-.1.9-.1 1 0 0 .1-.2.4-.7.7-.3.2-.4.6-.4.9.1.6.1.9 0 1-.1 0-.4-.1-.7-.7-.2-.2-.5-.4-.7-.4h-.2c-.6.1-.9.1-1 0 0-.1.2-.4.7-.7zm-17.7 10 2.1-1c.2-.1.4 0 .5.2l.1.2-2.7 1.3-.1-.2c-.1-.2-.1-.4.1-.5zm.2 8-1.8-3.8c-.3-.7-.1-1.5.6-1.9l9.4-4.6c.3-.1.5-.3.6-.6l.7-1.3c.1-.3.4-.5.6-.6l7.9-3.9c.1 0 .1 0 .2.1.5.6.9 1 1.3 1 .1 0 .2 0 .3-.1.5-.2.6-.9.4-1.8 0-.1 0-.1.1-.2l.2-.2c.6-.2 1.3.1 1.6.7l.5 1 2 4.1-7.4 3.6c-.9-.1-1.9-.1-2.8.2 0 0-.1 0-.1.1l-5 2.4-1.6.8c-1.4.7-2.4 1.6-3 2.7l-4.7 2.3zm4.8 10L4 28.2l3.8-1.9c-.5 1.6-.5 3.4.3 5 1 2.1 3 3.4 5.2 3.7l-4.8 2.4zm24.3-9.3L26 31.4l-11.8 5.7-3.5 1.7c-.7.3-1.5 0-1.9-.6l6.7-3.3c.4-.1.7-.2 1.1-.3h.1l.2-.1h.1l1.3-.6h.1l5.2-2.6s.1 0 .1-.1c.1-.1.2-.2.4-.3l9.4-4.6c.3.6 0 1.4-.7 1.8zm-3.3-12.3 3.7-1.8 4.5 9.2L34 25l-4.5-9.2zm8 9.9-2.9 1.4c.1-.5 0-1-.2-1.4l3.7-1.8.1-.1c.3.8 0 1.6-.7 1.9zM20.9 4.9c.3.6 1.1.8 2.4.5.1 0 .3 0 .4.2.6.8 1.2 1.3 1.7 1.3.1 0 .2 0 .3-.1.6-.3.8-1.1.5-2.4 0-.1 0-.3.2-.4 1-.7 1.5-1.5 1.2-2.1-.3-.6-1.1-.8-2.4-.5-.1 0-.3 0-.4-.2-.7-1-1.5-1.5-2.1-1.2-.6.3-.8 1.1-.5 2.4 0 .1 0 .3-.2.4-.9.8-1.4 1.5-1.1 2.1zm1.7-1.5c.4-.3.5-.7.4-1.2-.2-1 0-1.5.1-1.5s.6.1 1.2 1c.3.4.7.5 1.2.4 1-.2 1.5-.1 1.5.1.1.1-.1.6-1 1.2-.4.3-.5.7-.4 1.2.2 1 .1 1.5-.1 1.5-.1.1-.6-.1-1.2-1-.2-.3-.6-.5-.9-.5h-.2c-1 .2-1.5.1-1.5-.1-.2 0 0-.5.9-1.1zm7 18.2c-.3-.7-1.2-1-1.9-.6-.7.3-1 1.2-.6 1.9.3.7 1.2 1 1.9.6.6-.4.9-1.2.6-1.9zm-1 1.3c-.3.2-.8 0-.9-.3-.2-.3 0-.8.3-.9.3-.2.8 0 .9.3.2.3.1.7-.3.9zm-3.1-10.3c-.3-.6-1.1-.9-1.7-.6l-.9.4c-.6.3-.9 1.1-.6 1.7l.4.9c.3.6 1.1.9 1.7.6l.9-.4c.6-.3.9-1.1.6-1.7l-.4-.9zm-.5 2-.9.4c-.3.1-.6 0-.8-.3l-.4-.9c-.1-.3 0-.6.3-.8l.9-.4c.3-.1.6 0 .8.3l.4.9c.1.3 0 .7-.3.8zm-4.9-.7c-.2-.4-.7-.6-1.2-.4l-4.1 2c-.4.2-.6.7-.4 1.2l.8 1.6c.2.4.7.6 1.2.4l4.1-2c.4-.2.6-.7.4-1.2l-.8-1.6zm-4.2 3.9-.8-1.6 4.1-2 .8 1.6-4.1 2zm-5.3 2.4c-.2-.4-.7-.6-1.2-.4l-4.3 2.1c-.4.2-.6.7-.4 1.2l.2.4c.2.4.7.6 1.2.4l4.3-2.1c.4-.2.6-.7.4-1.2l-.2-.4zm-.4 1.1v-.2l-.1-.2c-.1-.2-.5-.3-.8-.2l-3 1.5c-.1 0-.2.1-.2.2 0-.2.2-.4.4-.5l3-1.5c.3-.1.6-.1.8.2l.1.2c0 .1-.1.3-.2.5z"/></svg>