<?xml version="1.0" encoding="utf-8"?>
<!-- Generator: Adobe Illustrator 26.5.0, SVG Export Plug-In . SVG Version: 6.00 Build 0)  -->
<svg version="1.1" id="圖層_1" xmlns="http://www.w3.org/2000/svg" xmlns:xlink="http://www.w3.org/1999/xlink" x="0px" y="0px"
	 width="132px" height="70px" viewBox="0 0 132 70" style=" 0 0 132 70;" xml:space="preserve">
<defs>
	<filter id="Adobe_OpacityMaskFilter" filterUnits="userSpaceOnUse" x="31.7" y="10.2" width="2.7" height="7.2">
		<feColorMatrix  type="matrix" values="1 0 0 0 0  0 1 0 0 0  0 0 1 0 0  0 0 0 1 0"/>
	</filter>
</defs>
<mask maskUnits="userSpaceOnUse" x="31.7" y="10.2" width="2.7" height="7.2" id="_x32_29xe6cykc_00000109716589103755947550000014725894504030176660_">
	<g style="filter:url(#Adobe_OpacityMaskFilter);">
		
			<path id="fh6nn62rca_00000157295365419385211820000010217522631784145071_" style="fill:#FFFFFF;" d="
			M32.3,17.4l2.1-0.1l-0.5-7.1l-2.2,0.2L32.3,17.4z"/>
	</g>
</mask>
<linearGradient id="SVGID_1_" gradientUnits="userSpaceOnUse" x1="-349.1312" y1="369.286" x2="-349.2283" y2="369.284" gradientTransform="matrix(2.2006 -0.1539 -0.4891 -6.9949 982.0636 2543.2151)">
	<stop  offset="0" style="stop-color:#31895D"/>
	<stop  offset="1" style="stop-color:#F2D43D"/>
</linearGradient>
<path style="mask:url(#_x32_29xe6cykc_00000109716589103755947550000014725894504030176660_);fill:url(#SVGID_1_);" d="
	M32.3,17.4l2.1-0.1l-0.5-7.1l-2.2,0.2L32.3,17.4z"/>
<defs>
	
		<filter id="Adobe_OpacityMaskFilter_00000044151582433030546620000008242303084201506744_" filterUnits="userSpaceOnUse" x="91.9" y="0.6" width="3" height="12.5">
		<feColorMatrix  type="matrix" values="1 0 0 0 0  0 1 0 0 0  0 0 1 0 0  0 0 0 1 0"/>
	</filter>
</defs>
<mask maskUnits="userSpaceOnUse" x="91.9" y="0.6" width="3" height="12.5" id="qf9npxeypf_00000106133383052517025460000003176211733428413598_">
	<g style="filter:url(#Adobe_OpacityMaskFilter_00000044151582433030546620000008242303084201506744_);">
		
			<path id="tgcegncuyd_00000003086806521823262640000016663972814339931062_" style="fill:#FFFFFF;" d="
			M91.9,0.6l0.9,12.5l2.1-0.1L94.1,2.5L91.9,0.6z"/>
	</g>
</mask>
<linearGradient id="SVGID_00000052104959512735239710000017862282801387972785_" gradientUnits="userSpaceOnUse" x1="-336.0641" y1="392.8995" x2="-336.092" y2="392.8984" gradientTransform="matrix(2.0999 -0.1468 -0.8665 -12.3917 1139.5842 4826.1182)">
	<stop  offset="0" style="stop-color:#31895D"/>
	<stop  offset="1" style="stop-color:#F2D43D"/>
</linearGradient>
<path style="mask:url(#qf9npxeypf_00000106133383052517025460000003176211733428413598_);fill:url(#SVGID_00000052104959512735239710000017862282801387972785_);" d="
	M91.9,0.6l0.9,12.5l2.1-0.1L94.1,2.5L91.9,0.6z"/>
<path style="fill:#403A3A;" d="M31.8,10.5l60.5-4.3L92,2.3L31.5,6.6L31.8,10.5z"/>
<defs>
	
		<filter id="Adobe_OpacityMaskFilter_00000116917559697145459040000018055218900014421920_" filterUnits="userSpaceOnUse" x="4.1" y="12.6" width="127.5" height="56.9">
		<feColorMatrix  type="matrix" values="1 0 0 0 0  0 1 0 0 0  0 0 1 0 0  0 0 0 1 0"/>
	</filter>
</defs>
<mask maskUnits="userSpaceOnUse" x="4.1" y="12.6" width="127.5" height="56.9" id="oc79w55yfi_00000077319894432449790620000007027841111381487767_">
	<g style="filter:url(#Adobe_OpacityMaskFilter_00000116917559697145459040000018055218900014421920_);">
		
			<path id="nfaiquwvgg_00000101791790775331923870000002280817364342451610_" style="fill:#FFFFFF;" d="
			M114.5,14.9L9.4,22.5c-3.1,0.2-5.6,2.9-5.3,6.2l2.5,33.6l-1.9,2.5c0,0,2.1,1.8,4.2,3.6c1.1,0.8,2.5,1.3,3.8,1.2l113.6-8.1
			c3.1-0.2,5.6-2.9,5.3-6.2L129,19.6c-0.1-1.7-0.8-2.8-2.2-4.1c-1.4-1.3-3.4-2.9-3.4-2.9L114.5,14.9z"/>
	</g>
</mask>
<linearGradient id="SVGID_00000049197201947461798950000017512018719860352416_" gradientUnits="userSpaceOnUse" x1="-610.818" y1="415.6542" x2="-611.8296" y2="415.6517" gradientTransform="matrix(125.623 -8.7844 -3.3822 -48.367 78268.9062 14774.876)">
	<stop  offset="0" style="stop-color:#31895D"/>
	<stop  offset="1" style="stop-color:#F2D43D"/>
</linearGradient>
<path style="mask:url(#oc79w55yfi_00000077319894432449790620000007027841111381487767_);fill:url(#SVGID_00000049197201947461798950000017512018719860352416_);" d="
	M114.5,14.9L9.4,22.5c-3.1,0.2-5.6,2.9-5.3,6.2l2.5,33.6l-1.9,2.5c0,0,2.1,1.8,4.2,3.6c1.1,0.8,2.5,1.3,3.8,1.2l113.6-8.1
	c3.1-0.2,5.6-2.9,5.3-6.2L129,19.6c-0.1-1.7-0.8-2.8-2.2-4.1c-1.4-1.3-3.4-2.9-3.4-2.9L114.5,14.9z"/>
<path style="fill:#DD6D5F;" d="M9.1,66.3l113.6-8.1c3.1-0.2,5.6-2.9,5.3-6.2l-2.6-35.5
	c-0.2-3.1-2.9-5.6-6.2-5.3L5.8,19.4c-3.1,0.2-5.6,2.9-5.4,6.2L3,61.1C3.2,64.2,5.9,66.6,9.1,66.3C9.1,66.3,9.1,66.3,9.1,66.3"/>
<path style="fill:#3F3B3A;" d="M122.7,58.2L9.1,66.3c-2.4,0.2-4.6-1.2-5.6-3.4
	c0.6,0.2,1.3,0.2,2,0.2L119.1,55c3.1-0.2,5.6-2.9,5.3-6.2l-2.5-35.4c0-0.7-0.2-1.4-0.5-2c2.3,0.7,4,2.7,4.1,5.1L128,52
	C128.2,55.3,125.8,58,122.7,58.2"/>
<path style="fill:#C0913C;" d="M5.8,19.4l113.6-8.1c2.4-0.2,4.6,1.2,5.6,3.4
	c-0.6-0.2-1.3-0.2-2-0.2l-113.6,8c-3.1,0.2-5.6,2.9-5.3,6.2l2.6,35.5c0,0.7,0.2,1.4,0.5,2c-2.3-0.7-4-2.7-4.1-5.1L0.4,25.5
	C0.2,22.3,2.5,19.6,5.8,19.4"/>
<path style="fill:#314D55;" d="M54.8,56.9L76,55.4c2.2-0.2,3.9-2.1,3.8-4.3l-1.9-26.6
	c-0.2-2.2-2.1-3.9-4.3-3.8l-21.2,1.5c-2.2,0.2-3.9,2.1-3.8,4.3l1.9,26.6C50.7,55.3,52.6,57,54.8,56.9"/>
<path style="fill:#01D99C;" d="M95.9,36.4c0.2,3,2.8,5.3,5.8,5.1c0,0,0,0,0,0
	c3-0.2,5.3-2.8,5.1-5.8c0,0,0,0,0,0c-0.2-3-2.8-5.3-5.8-5.1c0,0,0,0,0,0C98,30.8,95.7,33.4,95.9,36.4C95.9,36.4,95.9,36.4,95.9,36.4
	"/>
<path style="fill:#231815;" d="M95.5,36.5c-0.2-3.2,2.2-6,5.5-6.3c3.2-0.2,6,2.2,6.3,5.4
	c0.2,3.2-2.2,6-5.5,6.3C98.6,42,95.8,39.6,95.5,36.5 M96.4,36.4c0.2,2.7,2.6,4.8,5.4,4.6c2.7-0.2,4.8-2.6,4.6-5.4
	c-0.2-2.7-2.6-4.8-5.4-4.6C98.3,31.2,96.1,33.6,96.4,36.4"/>
<path style="fill:#E9CB5E;" d="M89.3,54.3l26.8-1.9c2.2-0.2,3.9-2.1,3.8-4.3L118,21.6
	c-0.2-2.2-2.1-3.9-4.3-3.8l-26.8,1.9c-2.2,0.2-3.9,2.1-3.8,4.3l1.9,26.6C85.1,52.9,87.1,54.6,89.3,54.3 M14.9,59.7l26.8-1.9
	c2.2-0.2,3.9-2.1,3.8-4.3L43.6,27c-0.2-2.2-2.1-3.9-4.3-3.8l-26.8,1.9c-2.2,0.2-3.9,2.1-3.8,4.3L10.6,56
	C10.7,58.2,12.7,59.9,14.9,59.7 M58.4,49.1l3.1-0.2c0.5,0,0.8-0.4,0.8-0.8l-0.2-2.8c0-0.4-0.5-0.7-0.9-0.6l-3.1,0.2
	c-0.5,0-0.8,0.4-0.8,0.8l0.2,2.8C57.6,48.7,58,49.1,58.4,49.1"/>
<path style="fill:#314C55;" d="M87.3,37c0.5,7.8,7.4,13.7,15.1,13.1
	c7.8-0.5,13.7-7.4,13.2-15.1c-0.5-7.8-7.4-13.7-15.1-13.1C92.6,22.4,86.7,29.2,87.3,37 M12.9,42.3C13.4,50.1,20.2,56,28,55.5
	c7.8-0.5,13.7-7.4,13.2-15.1c-0.5-7.8-7.4-13.7-15.1-13.1C18.2,27.7,12.3,34.5,12.9,42.3C12.9,42.3,12.9,42.3,12.9,42.3"/>
<path style="fill:#3E6269;" d="M95.9,36.4c0.2,3,2.8,5.3,5.8,5.1c0,0,0,0,0,0
	c3-0.2,5.3-2.8,5.1-5.8c0,0,0,0,0,0c-0.2-3-2.8-5.3-5.8-5.1c0,0,0,0,0,0C98,30.8,95.7,33.4,95.9,36.4C95.9,36.4,95.9,36.4,95.9,36.4
	 M21.6,41.7c0.2,3,2.8,5.3,5.8,5.1c0,0,0,0,0,0c3-0.2,5.3-2.8,5.1-5.8c0,0,0,0,0,0c-0.2-3-2.8-5.3-5.8-5.1c0,0,0,0,0,0
	C23.6,36.1,21.4,38.7,21.6,41.7C21.6,41.7,21.6,41.7,21.6,41.7"/>
<path style="fill:#DD6D5F;" d="M31.6,8.7l60.5-4.3l-0.3-3.8L31.4,4.9L31.6,8.7z"/>
<path style="fill:#C0913C;" d="M31.5,6.2L92,1.9l-0.1-1.3L31.4,4.9L31.5,6.2z"/>
<path style="fill:#8E534B;" d="M63.9,6.4l4-0.3l-0.3-3.7l-4,0.3L63.9,6.4z"/>
<path style="fill:#EACC5C;" d="M59.8,6.7l4-0.3l-0.3-3.7l-4,0.3L59.8,6.7z"/>
<path style="fill:#63ABA0;" d="M55.8,7l4-0.3l-0.3-3.7l-4,0.3L55.8,7z"/>
<path style="fill:#579387;" d="M75.3,41.2l-21.5,1.5c-0.8,0.1-1.5-0.5-1.5-1.3L51.5,31
	c-0.1-0.8,0.5-1.5,1.3-1.5L74.2,28c0.8-0.1,1.5,0.5,1.5,1.3l0.7,10.4C76.6,40.5,76.1,41.2,75.3,41.2"/>
<path style="fill:#266787;" d="M75.1,40.2l-21.2,1.5c-0.3,0-0.5-0.2-0.5-0.5l-0.7-10.3
	c0-0.3,0.2-0.5,0.5-0.5l21.2-1.5c0.3,0,0.5,0.2,0.5,0.5l0.7,10.2C75.5,39.9,75.3,40.2,75.1,40.2"/>
<path style="fill:#F1EAD7;" d="M70.3,36.7l-12.4,0.9c-1.4,0.1-2.7-1-2.8-2.4l0-0.3
	c-0.1-1.4,1-2.7,2.4-2.8l12.4-0.9c1.4-0.1,2.7,1,2.8,2.4l0,0.3C72.8,35.3,71.7,36.6,70.3,36.7"/>
<path style="fill:#6EBFC5;" d="M58.3,33.2c0.8-0.1,1.6,0.5,1.7,1.4c0.1,0.8-0.5,1.6-1.4,1.7
	c0,0,0,0-0.1,0c-0.8,0-1.6-0.6-1.6-1.4C56.9,33.9,57.5,33.2,58.3,33.2 M69.2,32.4c0.8-0.1,1.6,0.5,1.7,1.4c0.1,0.8-0.5,1.6-1.4,1.7
	c0,0,0,0-0.1,0c-0.8,0-1.6-0.6-1.6-1.4C67.7,33.2,68.3,32.5,69.2,32.4 M61.5,35.6l5-0.3L66.3,33l-5,0.3L61.5,35.6z"/>
<path style="fill:#F1EAD7;" d="M61.3,33.4l0.2,2.2c0.6,0,1.1-0.6,1-1.2
	C62.4,33.8,61.9,33.3,61.3,33.4"/>
<path style="fill:#F1EAD7;" d="M66.3,33l0.2,2.2c-0.6,0-1.1-0.4-1.2-1
	C65.2,33.6,65.6,33.1,66.3,33"/>
<path style="fill:#DD6D5F;" d="M74.2,25.7l-21.5,1.5c-0.8,0.1-1.5-0.5-1.5-1.3
	c-0.1-0.8,0.5-1.5,1.3-1.5l21.4-1.5c0.8-0.1,1.5,0.5,1.5,1.3C75.5,25,75,25.6,74.2,25.7"/>
<path style="fill:#E9CB5D;" d="M54.4,24.7c0.5,0,0.9,0.3,1,0.8c0,0.5-0.3,0.9-0.8,1
	s-0.9-0.3-1-0.8C53.5,25.2,53.9,24.7,54.4,24.7L54.4,24.7"/>
<path style="fill:#62ACA0;" d="M53.6,49.3l3.1-0.2c0.5,0,0.8-0.4,0.8-0.8l-0.2-2.8
	c0-0.4-0.5-0.7-0.9-0.6l-3.1,0.2c-0.5,0-0.8,0.4-0.8,0.8l0.2,2.8C52.7,49.1,53.2,49.4,53.6,49.3"/>
<path style="fill:#DD6D5F;" d="M63.3,48.8l3.1-0.2c0.5,0,0.8-0.4,0.8-0.8L67,44.9
	c0-0.4-0.5-0.7-0.9-0.7L63,44.5c-0.5,0-0.8,0.4-0.8,0.8l0.2,2.8C62.5,48.5,62.8,48.8,63.3,48.8"/>
<path style="fill:#6391AA;" d="M68,48.4l3.1-0.2c0.5,0,0.8-0.4,0.8-0.8l-0.2-2.8
	c0-0.4-0.5-0.7-0.9-0.7l-3.1,0.2c-0.5,0-0.8,0.4-0.8,0.8l0.2,2.8C67.2,48.2,67.6,48.4,68,48.4"/>
<path style="fill:#5A5470;" d="M73,48.2l3.1-0.2c0.5,0,0.8-0.4,0.8-0.8l-0.2-2.8
	c0-0.4-0.5-0.7-0.9-0.6l-3.1,0.2c-0.5,0-0.8,0.4-0.8,0.8l0.2,2.8C72.2,47.8,72.6,48.2,73,48.2"/>
<path style="fill:#403A3A;" d="M76.2,53l-21.9,1.5c-0.7,0-1.2-0.4-1.3-1.1l0-0.6
	c0-0.7,0.4-1.2,1.1-1.3L75.9,50c0.7-0.1,1.2,0.4,1.3,1.1l0,0.6C77.4,52.4,76.8,53,76.2,53"/>
<path style="fill:#665E5D;" d="M68.5,50c1.1-0.1,2.1,0.7,2.2,1.8c0.1,1.1-0.7,2.1-1.8,2.2
	c0,0-0.1,0-0.1,0c-1.1,0.1-2.1-0.7-2.2-1.8C66.4,51.1,67.2,50.1,68.5,50C68.4,50,68.4,50,68.5,50 M73.8,49.6
	c1.1-0.1,2.1,0.7,2.2,1.8c0.1,1.1-0.7,2.1-1.8,2.2c0,0-0.1,0-0.1,0C73,53.8,72,53,71.9,51.9C71.8,50.7,72.6,49.8,73.8,49.6
	C73.7,49.6,73.8,49.6,73.8,49.6"/>
<path style="fill:#776A45;" d="M72.8,41.4L56,42.6l-0.2-2.2c0-0.3,0.2-0.5,0.5-0.5l15.7-1.1
	c0.3,0,0.5,0.2,0.5,0.5l0.2,2.2L72.8,41.4L72.8,41.4z"/>
<path style="fill:#231815;" d="M57.5,32.3c-1.2,0.1-2.1,1.2-2.1,2.4l0,0.3
	c0.1,1.2,1.2,2.1,2.4,2.1l12.4-0.9c1.2-0.1,2.1-1.2,2.1-2.4l0-0.3c-0.1-1.2-1.2-2.1-2.4-2.1C69.9,31.4,57.5,32.3,57.5,32.3z
	 M70.3,37.1L57.9,38c-1.6,0.1-3.1-1.1-3.2-2.8l0-0.3c-0.1-1.6,1.1-3.1,2.8-3.2l12.4-0.9c1.6-0.1,3.1,1.1,3.2,2.8l0,0.3
	C73.2,35.5,71.9,37,70.3,37.1z M58.4,33.6c-0.6,0-1.1,0.6-1,1.2c0,0.6,0.6,1.1,1.2,1c0.6,0,1.1-0.6,1-1.2C59.5,34,59,33.5,58.4,33.6
	 M58.6,36.6c-1,0.1-2-0.7-2.1-1.8c-0.1-1,0.7-2,1.8-2.1c1.1-0.1,2,0.7,2.1,1.8C60.4,35.6,59.6,36.5,58.6,36.6 M69.2,32.8
	c-0.6,0-1.1,0.6-1,1.2c0,0.6,0.6,1.1,1.2,1c0.6,0,1.1-0.6,1-1.2C70.3,33.2,69.8,32.8,69.2,32.8 M69.4,35.8c-1,0.1-2-0.7-2.1-1.8
	c-0.1-1,0.7-2,1.8-2.1c1-0.1,2,0.7,2.1,1.8C71.1,34.8,70.4,35.8,69.4,35.8 M66.8,35.6l-0.2-2.9l-0.1,0l0-0.1l-0.4,0
	c-0.2,0-0.3,0.1-0.5,0.1l-4.3,0.3c0,0,0,0,0,0l-0.4,0l0.2,2.9l0.4,0c0,0,0,0,0,0l4.9-0.3c0,0,0,0,0,0l0.4,0h0v0L66.8,35.6z
	 M61.6,33.8L61.6,33.8c0.3,0.1,0.3,0.4,0.3,0.6c0,0.2-0.1,0.5-0.3,0.6l0-0.1L61.6,33.8z M62.6,33.7l2.3-0.2
	c-0.1,0.2-0.2,0.5-0.1,0.7c0,0.3,0.1,0.5,0.2,0.7l-2.2,0.2c0.1-0.2,0.1-0.4,0.1-0.6C62.9,34.2,62.8,33.9,62.6,33.7z M66,34.8
	c-0.2-0.1-0.3-0.4-0.3-0.6c0-0.2,0.1-0.5,0.3-0.6L66,34.8z M73.1,41.8L73.1,41.8l0.1,0h0L73.1,41.8z M126.4,61.8L12.8,69.9
	c-0.2,0-0.3,0-0.5,0c-1.3,0-2.6-0.4-3.7-1.3c-1.3-1.1-2.6-2.2-3.4-3c-1.5-1-2.5-2.7-2.6-4.6h0L0,25.6c-0.3-3.4,2.3-6.3,5.7-6.6
	c0,0,0.1,0,0.1,0l26.1-1.9L30.9,4.5l61.3-4.4l0.9,12.6l1.3-0.1l-0.8-10l-1.3-1.3l-0.1-1.2l2.2,2.2l0,0.3l0,0l0.8,9.9l24.1-1.7
	c1.6-0.1,3.1,0.4,4.2,1.3c0-0.1,0.2,0.1,0.2,0.1c0,0,2,1.6,3.4,2.9c1.4,1.3,2.2,2.5,2.4,4.4l2.6,35.5
	C132.3,58.6,129.8,61.6,126.4,61.8z M91.9,6.5l-57.6,4.1l0.4,6.3l57.6-4.1L91.9,6.5z M91.8,4.8L32.2,9.1l0.1,0.9l59.6-4.3L91.8,4.8z
	 M33.5,10.6l-1.2,0.1l0.4,6.3l1.2-0.1L33.5,10.6z M68.1,2.8l0.2,2.9L91.7,4l-0.1-1.4l0,0c-0.1-0.7-0.1-1.5-0.1-1.5L68.1,2.8z
	 M64.1,3.1L64.3,6l3.2-0.2l-0.2-2.9L64.1,3.1z M60,3.4l0.2,2.8l0,0L63.4,6l-0.2-2.9L60,3.4z M56,3.7l0.2,2.9l3.2-0.2l-0.2-2.9
	L56,3.7z M31.9,5.4l0.2,2.9l23.2-1.7l-0.2-2.9L31.9,5.4z M9.1,65.9l113.6-8.1c2.9-0.2,5.1-2.8,4.9-5.7L125,16.5
	c-0.2-2.9-2.8-5.1-5.7-4.9l-56.8,4.1L31.9,18l0,0L5.8,19.8c-2.9,0.2-5.1,2.8-4.9,5.7l2.5,35.5C3.6,64,6.2,66.1,9.1,65.9z
	 M131.1,55.2l-2.6-35.5c-0.1-1.5-0.6-2.4-2.1-3.8c-0.2-0.2-0.5-0.5-0.8-0.7c0.1,0.4,0.2,0.9,0.2,1.3c0,0,0,0.1,0,0.1l2.6,35.5
	c0.3,3.4-2.3,6.3-5.7,6.6c0,0-0.1,0-0.1,0L9.1,66.7c-0.4,0-0.9,0-1.3,0c0.5,0.4,0.9,0.8,1.4,1.2c1,0.8,2.2,1.1,3.5,1l113.6-8.1
	C129.1,60.6,131.3,58.1,131.1,55.2z M12.5,42.4c-0.6-8,5.5-15,13.5-15.6c8-0.6,15,5.4,15.6,13.4c0.6,8-5.5,15-13.5,15.6
	C20.1,56.4,13,50.3,12.5,42.4z M21.9,44.3c-0.2-0.3-0.3-0.6-0.4-0.9l-7.8,1.4c0.5,1.8,1.3,3.4,2.4,4.9L21.9,44.3z M25.4,47
	c-0.3-0.1-0.6-0.2-0.9-0.3L20,53.2c1.5,0.9,3.2,1.5,5.1,1.7L25.4,47z M35.3,52.2L30,46.4c-0.3,0.2-0.7,0.4-1,0.5l1.4,7.7
	C32.2,54.1,33.9,53.3,35.3,52.2z M40.6,43l-7.9-0.3c-0.1,0.4-0.2,0.8-0.4,1.1l6.5,4.5C39.8,46.6,40.4,44.9,40.6,43z M32,38.2
	c0.2,0.3,0.3,0.6,0.5,0.9l7.8-1.4c-0.5-1.8-1.3-3.4-2.4-4.8L32,38.2z M28.2,35.6c0.4,0.1,0.7,0.2,1,0.3l4.5-6.6
	c-1.6-0.9-3.4-1.5-5.2-1.7L28.2,35.6z M22,41.7c0.2,2.7,2.6,4.8,5.4,4.6c2.7-0.2,4.8-2.6,4.6-5.4c-0.2-2.7-2.6-4.8-5.4-4.6
	C23.8,36.5,21.8,39,22,41.7z M18.5,30.5l5.4,5.9c0.3-0.2,0.5-0.3,0.8-0.4l-1.5-7.9C21.5,28.6,19.9,29.4,18.5,30.5z M13.4,39.5l8,0.3
	c0.1-0.3,0.2-0.6,0.3-0.8L15,34.5C14.2,36.1,13.6,37.8,13.4,39.5z M10.2,56L8.3,29.5c-0.2-2.4,1.7-4.6,4.1-4.8l26.8-1.9
	c2.4-0.2,4.6,1.7,4.8,4.1l1.9,26.6c0.2,2.4-1.7,4.6-4.1,4.8l-26.8,1.9C12.5,60.3,10.4,58.5,10.2,56C10.2,56.1,10.2,56,10.2,56z
	 M9,29.4L10.9,56c0.1,2,1.9,3.5,3.9,3.4c0,0,0,0,0,0l26.8-1.9c2-0.1,3.5-1.9,3.4-3.9L43.1,27c-0.1-2-1.9-3.5-3.9-3.4c0,0,0,0,0,0
	l-26.8,1.9C10.4,25.7,8.9,27.4,9,29.4z M86.8,37.1c-0.6-8,5.5-15,13.5-15.6c8-0.6,15,5.4,15.6,13.5c0.6,8-5.5,15-13.5,15.6
	C94.4,51.1,87.4,45,86.8,37.1z M96.5,39.2c-0.2-0.3-0.4-0.6-0.5-1l-7.8,1.5c0.5,1.8,1.3,3.5,2.5,4.9L96.5,39.2z M100,41.7
	c-0.3-0.1-0.6-0.2-0.9-0.3L94.6,48c1.5,0.9,3.3,1.4,5.1,1.6L100,41.7z M109.7,46.9l-5.3-5.8c-0.3,0.2-0.6,0.3-0.9,0.4l1.4,7.7
	C106.7,48.8,108.3,47.9,109.7,46.9z M115,37.8l-7.9-0.3c-0.1,0.4-0.2,0.7-0.4,1l6.5,4.4C114.2,41.3,114.8,39.6,115,37.8z M106.4,33
	c0.2,0.3,0.3,0.6,0.5,0.9l7.7-1.4c-0.5-1.8-1.3-3.4-2.3-4.8L106.4,33z M102.8,30.3c0.3,0.1,0.7,0.2,1,0.3l4.5-6.6
	c-1.6-0.9-3.3-1.5-5.1-1.7L102.8,30.3z M96.4,36.4L96.4,36.4c0.2,2.7,2.6,4.8,5.4,4.6c2.7-0.2,4.8-2.6,4.6-5.4
	c-0.2-2.7-2.6-4.8-5.4-4.6C98.3,31.2,96.1,33.6,96.4,36.4z M92.9,25.2l5.4,5.9c0.3-0.2,0.6-0.3,0.9-0.5l-1.5-7.8
	C96,23.2,94.4,24.1,92.9,25.2z M87.7,34.3l8,0.3c0.1-0.3,0.2-0.7,0.3-1l-6.6-4.5C88.6,30.7,88,32.5,87.7,34.3z M77.6,51.1l0,0.6
	c0.1,0.9-0.6,1.7-1.4,1.7l-0.8,0.1c-0.3,0.3-0.8,0.5-1.3,0.5c-0.5,0-0.9-0.1-1.3-0.3L70,53.9c-0.3,0.3-0.8,0.5-1.3,0.5v0
	c-0.5,0-0.9-0.1-1.3-0.3L54.3,55c-0.9,0.1-1.7-0.6-1.7-1.5l0-0.6c-0.1-0.9,0.6-1.7,1.5-1.7c0,0,0,0,0,0l13.2-0.9
	c0.4-0.3,0.8-0.5,1.2-0.5c0.5,0,0.9,0.1,1.3,0.3l2.8-0.2c0.4-0.3,0.8-0.5,1.2-0.5c0.4,0,0.9,0.1,1.3,0.3l0.8-0.1
	C76.8,49.5,77.5,50.2,77.6,51.1z M66.7,53.3c-0.2-0.3-0.4-0.7-0.4-1.1c0-0.4,0.1-0.8,0.2-1.1l-12.5,0.9v0c-0.4,0-0.8,0.5-0.8,0.9
	l0,0.6c0,0.4,0.5,0.8,0.9,0.8L66.7,53.3z M70.2,52C70.2,51.9,70.2,51.9,70.2,52c-0.1-0.9-0.8-1.6-1.7-1.5c0,0,0,0,0,0
	c-0.9,0.1-1.6,0.8-1.5,1.7c0.1,0.9,0.8,1.6,1.7,1.5C69.6,53.6,70.3,52.8,70.2,52z M72,52.9c-0.2-0.3-0.4-0.7-0.4-1.1
	s0.1-0.8,0.2-1.1l-1.3,0.1c0.2,0.3,0.4,0.7,0.4,1.1c0,0.4-0.1,0.8-0.2,1.1L72,52.9z M75.6,51.6C75.6,51.6,75.6,51.6,75.6,51.6
	c-0.1-0.9-0.8-1.6-1.7-1.5c0,0,0,0,0,0c-0.9,0.1-1.6,0.8-1.5,1.7c0.1,0.9,0.8,1.6,1.7,1.5C74.9,53.2,75.6,52.5,75.6,51.6z
	 M76.8,51.8l0-0.6c0-0.4-0.5-0.8-0.9-0.8l0,0c0.2,0.3,0.4,0.7,0.4,1.1c0,0.4-0.1,0.8-0.2,1.1l0,0C76.5,52.6,76.8,52.2,76.8,51.8z
	 M76.1,29.3l0.7,10.4c0.2,1-0.6,1.9-1.6,1.9l-2.2,0.2l0,0L55.6,43l0,0l-1.8,0.1c-1,0.1-1.9-0.7-1.9-1.7L51.1,31
	c-0.1-1,0.7-1.9,1.7-1.9l21.4-1.5C75.2,27.5,76.1,28.3,76.1,29.3z M53.1,30.8L53.1,30.8c-0.1,0-0.1,0-0.1,0.1l0.7,10.3
	c0,0.1,0,0.1,0.1,0.1l1.6-0.1l-0.1-0.8c0-0.5,0.3-0.9,0.8-1c0,0,0,0,0,0l15.7-1.1c0.5,0,0.9,0.3,1,0.8l0.1,0.8l2.1-0.1
	c0.1,0,0.1,0,0.1-0.1l-0.7-10.3c0-0.1,0-0.1-0.1-0.1L53.1,30.8z M56.3,42.1L56.3,42.1L72.4,41l-0.1-1.8c0-0.1-0.1-0.2-0.2-0.2
	l-15.7,1.1c-0.1,0-0.2,0.1-0.2,0.2L56.3,42.1z M75.4,29.3c0-0.6-0.6-1.1-1.2-1l-21.4,1.5c-0.6,0-1.1,0.6-1,1.2l0.7,10.4
	c0,0.6,0.6,1.1,1.2,1l1.8-0.1l0-0.4L53.9,42c-0.5,0-0.9-0.3-1-0.8c0,0,0,0,0,0L52.2,31c0-0.5,0.3-0.9,0.8-1c0,0,0,0,0,0l21.2-1.5
	c0.5,0,0.9,0.3,1,0.8L76,39.6c-0.1,0.4-0.4,0.8-0.9,0.9L73,40.7l0,0.4l2.1-0.1c0.6,0,1.1-0.6,1-1.2L75.4,29.3z M77.2,44.2l0.2,2.8
	c0,0.6-0.5,1.3-1.2,1.3L73,48.6c-0.4,0-0.7-0.1-1-0.3c-0.2,0.2-0.5,0.4-0.9,0.4l-3.1,0.2c-0.3,0-0.6-0.1-0.9-0.3
	c-0.2,0.2-0.5,0.3-0.8,0.3l-3.1,0.2c-0.3,0-0.6-0.1-0.9-0.3c-0.2,0.2-0.5,0.4-0.8,0.4l-3.1,0.2c-0.3,0-0.7-0.1-0.9-0.3
	c-0.2,0.2-0.5,0.4-0.8,0.4l-3.1,0.2c-0.7-0.1-1.4-0.5-1.4-1.1L52,45.9c0-0.6,0.5-1.3,1.2-1.3l3.1-0.2c0.3,0,0.7,0.1,0.9,0.3
	c0.2-0.2,0.5-0.4,0.8-0.4l3.1-0.2c0.3,0,0.7,0.1,0.9,0.3c0.2-0.2,0.5-0.4,0.8-0.4l3.1-0.2c0.3,0,0.7,0.1,0.9,0.3
	c0.2-0.2,0.4-0.3,0.7-0.3l3.1-0.2c0.4,0,0.7,0.1,1,0.3c0.2-0.2,0.5-0.4,0.9-0.4l3.1-0.2C76.5,43.1,77.1,43.5,77.2,44.2z M57.1,48.4
	C57.1,48.4,57.1,48.4,57.1,48.4l-0.2-2.8c0-0.2-0.2-0.3-0.4-0.3l-3.1,0.2c-0.2,0-0.4,0.1-0.4,0.3l0.2,2.8c0,0.2,0.2,0.3,0.4,0.3
	l3.1-0.2C56.9,48.7,57.1,48.6,57.1,48.4z M61.9,48l-0.2-2.8c0-0.2-0.2-0.3-0.4-0.3l-3.1,0.2c-0.2,0-0.4,0.1-0.4,0.3c0,0,0,0,0,0
	l0.2,2.8c0,0.2,0.2,0.3,0.4,0.3l3.1-0.2C61.7,48.4,61.9,48.2,61.9,48z M66.8,47.8L66.6,45c0-0.2-0.2-0.3-0.4-0.3L63,44.9h0
	c-0.2,0-0.4,0.1-0.4,0.3l0.2,2.8c0,0.2,0.2,0.3,0.4,0.3l3.1-0.2C66.6,48.1,66.8,48,66.8,47.8z M71.5,47.5l-0.2-2.8
	c0-0.2-0.2-0.3-0.4-0.3l-3.1,0.2l0,0c-0.2,0-0.4,0.1-0.4,0.3l0.2,2.8c0,0.2,0.2,0.3,0.4,0.3l3.1-0.2C71.3,47.8,71.5,47.7,71.5,47.5z
	 M76.5,47.1l-0.2-2.8c0-0.2-0.2-0.3-0.4-0.3l-3.1,0.2h0c-0.2,0-0.4,0.1-0.4,0.3l0.2,2.8c0,0.2,0.2,0.3,0.4,0.3l3.1-0.2
	C76.3,47.4,76.5,47.3,76.5,47.1z M54.9,52.5c-0.3,0-0.5,0.3-0.5,0.5c0,0.3,0.3,0.5,0.5,0.5s0.5-0.3,0.5-0.5S55.2,52.5,54.9,52.5z
	 M50.7,25.9c-0.1-1,0.7-1.9,1.7-1.9l21.4-1.5c1-0.1,1.9,0.7,1.9,1.7c0.1,1-0.6,1.9-1.6,1.9l-21.5,1.5C51.7,27.6,50.8,26.9,50.7,25.9
	z M54.8,24.5c0.3,0.1,0.6,0.4,0.7,0.7l18.9-1.3l0.1,0.8l-18.9,1.3c-0.1,0.3-0.3,0.6-0.6,0.8l19-1.3c0.6,0,1.1-0.6,1-1.2
	c0-0.6-0.6-1.1-1.2-1L54.8,24.5z M54,25.7c0,0.3,0.2,0.5,0.5,0.5c0.3,0,0.5-0.2,0.5-0.5c0-0.3-0.2-0.5-0.5-0.5
	C54.1,25.1,53.9,25.4,54,25.7z M51.4,25.8c0,0.6,0.6,1.1,1.2,1l1.4-0.1c-0.3-0.1-0.6-0.4-0.7-0.7l-1.1,0.1l-0.1-0.8l1.1-0.1
	c0.1-0.3,0.3-0.6,0.6-0.8l-1.5,0.1C51.9,24.7,51.4,25.2,51.4,25.8z M65,51.9l-8.3,0.6c-0.2,0-0.4,0.2-0.4,0.4l0,0.1
	c0,0.2,0.2,0.4,0.4,0.4l8.3-0.6v0c0.2,0,0.4-0.2,0.4-0.4l0-0.1C65.4,52.1,65.2,51.9,65,51.9z M84.6,50.7l-1.9-26.6
	c-0.2-2.4,1.7-4.6,4.1-4.8l26.8-1.9c2.4-0.2,4.6,1.7,4.8,4.1l1.9,26.6c0.2,2.4-1.7,4.6-4.1,4.8l-26.8,1.9
	C86.9,55,84.7,53.1,84.6,50.7L84.6,50.7z M83.4,24.1l1.9,26.6c0.1,2,1.9,3.5,3.9,3.4c0,0,0,0,0,0l26.8-1.9c2-0.1,3.5-1.9,3.4-3.9
	l-1.9-26.6c-0.1-2-1.9-3.5-3.9-3.4c0,0,0,0,0,0l-26.8,1.9C84.8,20.4,83.3,22.1,83.4,24.1z M50.1,53.1l-1.9-26.6
	c-0.2-2.4,1.7-4.6,4.1-4.8l21.2-1.5c2.4-0.2,4.6,1.7,4.8,4.1L80.2,51c0.2,2.4-1.7,4.6-4.1,4.8l-21.2,1.5
	C52.4,57.4,50.3,55.7,50.1,53.1L50.1,53.1z M49,26.6l1.9,26.6c0.1,2,1.9,3.5,3.9,3.4c0,0,0,0,0,0L76,55.1c2-0.1,3.5-1.9,3.4-3.9
	l-1.9-26.6c-0.1-2-1.9-3.5-3.9-3.4c0,0,0,0,0,0l-21.2,1.5h0C50.4,22.9,48.9,24.6,49,26.6z"/>
<path style="fill:#FFFFFF;fill-opacity:0.3;" d="M64.2,41.6l-9.1,0.6l5.2-12.9l9.1-0.6
	L64.2,41.6z"/>
<path style="fill:#FFFFFF;fill-opacity:0.25;" d="M67.6,41.3l-2.3,0.2l5.2-12.9l2.4-0.2
	L67.6,41.3z"/>
</svg>
