<?xml version="1.0" encoding="utf-8"?>
<!-- Generator: Adobe Illustrator 26.5.0, SVG Export Plug-In . SVG Version: 6.00 Build 0)  -->
<svg version="1.1" id="圖層_1" xmlns="http://www.w3.org/2000/svg" xmlns:xlink="http://www.w3.org/1999/xlink" x="0px" y="0px"
	 width="65px" height="65px" viewBox="0 0 65 65" style="enable-background:new 0 0 65 65;" xml:space="preserve">
<linearGradient id="SVGID_1_" gradientUnits="userSpaceOnUse" x1="-51.0456" y1="127.2947" x2="-50.1859" y2="127.5892" gradientTransform="matrix(59.905 0 0 -59.905 3067.1553 7667.8418)">
	<stop  offset="0" style="stop-color:#EED33E"/>
	<stop  offset="1" style="stop-color:#388C5D"/>
</linearGradient>
<path style="fill-rule:evenodd;clip-rule:evenodd;fill:url(#SVGID_1_);" d="M56,4.09c2.21,0,4.21,0.9,5.66,2.34
	C63.16,7.94,64,9.97,64,12.1V53c0,3.04-1.23,5.79-3.22,7.78C58.72,62.84,55.92,64,53,64H12.1c-2.21,0-4.21-0.9-5.66-2.34
	c-1.5-1.5-2.35-3.53-2.34-5.66V13.1c0-2.39,0.95-4.68,2.64-6.36c1.69-1.69,3.98-2.64,6.36-2.64L56,4.09z"/>
<path style="fill-rule:evenodd;clip-rule:evenodd;fill:#DF5A3B;" d="M11,1h39.9c5.52,0,10,4.48,10,10v39.9c0,5.52-4.48,10-10,10H11
	c-5.52,0-10-4.48-10-10V11C1,5.48,5.48,1,11,1z"/>
<path style="fill-rule:evenodd;clip-rule:evenodd;fill:#FFFFFF;" d="M6.71,5.16c0.85,0,1.55,0.69,1.55,1.55S7.56,8.25,6.71,8.25
	S5.16,7.56,5.16,6.71S5.85,5.16,6.71,5.16z M55.2,53.65c0.85,0,1.55,0.69,1.55,1.55s-0.69,1.55-1.55,1.55s-1.55-0.69-1.55-1.55
	S54.34,53.65,55.2,53.65z M18.06,3.1c0.85,0,1.55,0.69,1.55,1.55s-0.69,1.55-1.55,1.55s-1.55-0.69-1.55-1.55S17.2,3.1,18.06,3.1z
	 M28.37,3.1c0.85,0,1.55,0.69,1.55,1.55s-0.69,1.55-1.55,1.55s-1.55-0.69-1.55-1.55S27.52,3.1,28.37,3.1z M38.69,3.1
	c0.85,0,1.55,0.69,1.55,1.55s-0.69,1.55-1.55,1.55s-1.55-0.69-1.55-1.55S37.84,3.1,38.69,3.1z M49.01,3.1
	c0.85,0,1.55,0.69,1.55,1.55s-0.69,1.55-1.55,1.55s-1.55-0.69-1.55-1.55S48.15,3.1,49.01,3.1z M6.19,17.54
	c0,0.85-0.69,1.55-1.55,1.55S3.1,18.39,3.1,17.54s0.69-1.55,1.55-1.55S6.19,16.68,6.19,17.54z M6.19,27.86
	c0,0.85-0.69,1.55-1.55,1.55S3.1,28.71,3.1,27.86s0.69-1.55,1.55-1.55S6.19,27,6.19,27.86z M6.19,38.18c0,0.85-0.69,1.55-1.55,1.55
	S3.1,39.03,3.1,38.18c0-0.85,0.69-1.55,1.55-1.55S6.19,37.32,6.19,38.18z M6.19,48.49c0,0.85-0.69,1.55-1.55,1.55
	S3.1,49.35,3.1,48.49c0-0.85,0.69-1.55,1.55-1.55S6.19,47.64,6.19,48.49z M58.81,12.38c0,0.85-0.69,1.55-1.55,1.55
	c-0.85,0-1.55-0.69-1.55-1.55s0.69-1.55,1.55-1.55C58.12,10.83,58.81,11.53,58.81,12.38z M58.81,22.7c0,0.85-0.69,1.55-1.55,1.55
	c-0.85,0-1.55-0.69-1.55-1.55s0.69-1.55,1.55-1.55C58.12,21.15,58.81,21.84,58.81,22.7z M58.81,33.01c0,0.85-0.69,1.55-1.55,1.55
	c-0.85,0-1.55-0.69-1.55-1.55s0.69-1.55,1.55-1.55C58.12,31.47,58.81,32.16,58.81,33.01z M58.81,43.33c0,0.85-0.69,1.55-1.55,1.55
	s-1.55-0.69-1.55-1.55s0.69-1.55,1.55-1.55S58.81,42.48,58.81,43.33z M12.9,55.71c0.85,0,1.55,0.69,1.55,1.55s-0.69,1.55-1.55,1.55
	s-1.55-0.69-1.55-1.55S12.04,55.71,12.9,55.71z M23.21,55.71c0.85,0,1.55,0.69,1.55,1.55s-0.69,1.55-1.55,1.55s-1.55-0.69-1.55-1.55
	S22.36,55.71,23.21,55.71z M33.53,55.71c0.85,0,1.55,0.69,1.55,1.55s-0.69,1.55-1.55,1.55c-0.85,0-1.55-0.69-1.55-1.55
	S32.68,55.71,33.53,55.71z M43.85,55.71c0.85,0,1.55,0.69,1.55,1.55s-0.69,1.55-1.55,1.55s-1.55-0.69-1.55-1.55
	S42.99,55.71,43.85,55.71z"/>
<path style="fill-rule:evenodd;clip-rule:evenodd;fill:#F2CE4D;" d="M55.2,5.16c0.85,0,1.55,0.69,1.55,1.55s-0.69,1.55-1.55,1.55
	s-1.55-0.69-1.55-1.55S54.34,5.16,55.2,5.16z M6.71,53.65c0.85,0,1.55,0.69,1.55,1.55s-0.69,1.55-1.55,1.55s-1.55-0.69-1.55-1.55
	S5.85,53.65,6.71,53.65z M12.9,3.1c0.85,0,1.55,0.69,1.55,1.55s-0.69,1.55-1.55,1.55s-1.55-0.69-1.55-1.55S12.04,3.1,12.9,3.1z
	 M23.21,3.1c0.85,0,1.55,0.69,1.55,1.55s-0.69,1.55-1.55,1.55s-1.55-0.69-1.55-1.55S22.36,3.1,23.21,3.1z M33.53,3.1
	c0.85,0,1.55,0.69,1.55,1.55s-0.69,1.55-1.55,1.55c-0.85,0-1.55-0.69-1.55-1.55S32.68,3.1,33.53,3.1z M43.85,3.1
	c0.85,0,1.55,0.69,1.55,1.55s-0.69,1.55-1.55,1.55S42.3,5.5,42.3,4.64S42.99,3.1,43.85,3.1z M6.19,12.38c0,0.85-0.69,1.55-1.55,1.55
	S3.1,13.24,3.1,12.38s0.69-1.55,1.55-1.55S6.19,11.53,6.19,12.38z M6.19,22.7c0,0.85-0.69,1.55-1.55,1.55S3.1,23.55,3.1,22.7
	s0.69-1.55,1.55-1.55S6.19,21.84,6.19,22.7z M6.19,33.01c0,0.85-0.69,1.55-1.55,1.55s-1.55-0.69-1.55-1.55
	c0-0.85,0.69-1.55,1.55-1.55S6.19,32.16,6.19,33.01z M6.19,43.33c0,0.85-0.69,1.55-1.55,1.55S3.1,44.19,3.1,43.33
	c0-0.85,0.69-1.55,1.55-1.55S6.19,42.48,6.19,43.33z M58.81,17.54c0,0.85-0.69,1.55-1.55,1.55c-0.85,0-1.55-0.69-1.55-1.55
	s0.69-1.55,1.55-1.55C58.12,15.99,58.81,16.68,58.81,17.54z M58.81,27.86c0,0.85-0.69,1.55-1.55,1.55c-0.85,0-1.55-0.69-1.55-1.55
	s0.69-1.55,1.55-1.55C58.12,26.31,58.81,27,58.81,27.86z M58.81,38.18c0,0.85-0.69,1.55-1.55,1.55s-1.55-0.69-1.55-1.55
	s0.69-1.55,1.55-1.55S58.81,37.32,58.81,38.18z M58.81,48.49c0,0.85-0.69,1.55-1.55,1.55s-1.55-0.69-1.55-1.55s0.69-1.55,1.55-1.55
	S58.81,47.64,58.81,48.49z M18.06,55.71c0.85,0,1.55,0.69,1.55,1.55s-0.69,1.55-1.55,1.55s-1.55-0.69-1.55-1.55
	S17.2,55.71,18.06,55.71z M28.37,55.71c0.85,0,1.55,0.69,1.55,1.55s-0.69,1.55-1.55,1.55s-1.55-0.69-1.55-1.55
	S27.52,55.71,28.37,55.71z M38.69,55.71c0.85,0,1.55,0.69,1.55,1.55s-0.69,1.55-1.55,1.55s-1.55-0.69-1.55-1.55
	S37.84,55.71,38.69,55.71z M49.01,55.71c0.85,0,1.55,0.69,1.55,1.55s-0.69,1.55-1.55,1.55s-1.55-0.69-1.55-1.55
	S48.15,55.71,49.01,55.71z"/>
<path style="fill:#231815;" d="M62.36,5.73c-0.95-0.95-2.08-1.65-3.31-2.1C57.04,1.41,54.14,0,50.91,0H11C4.93,0,0,4.93,0,11v39.91
	c0,3.24,1.41,6.14,3.65,8.16c0.45,1.23,1.15,2.37,2.09,3.3C7.43,64.06,9.69,65,12.1,65H53c0,0,0.01,0,0.02,0
	c3.16,0,6.24-1.28,8.47-3.51C63.75,59.22,65,56.21,65,53V12.1C65,9.73,64.04,7.41,62.36,5.73z M2,11c0-4.96,4.04-9,9-9h39.91
	c4.96,0,9,4.04,9,9v39.91c0,4.96-4.04,9-9,9H11c-4.96,0-9-4.04-9-9V11z M63,53c0,2.67-1.04,5.18-2.93,7.07
	C58.21,61.93,55.64,63,53.01,63c0,0-0.01,0-0.01,0H12.1c-1.66,0-3.24-0.58-4.5-1.64c1.07,0.35,2.21,0.55,3.4,0.55h39.91
	c6.07,0,11-4.93,11-11V11c0-1.19-0.19-2.33-0.54-3.4C62.41,8.85,63,10.46,63,12.1V53z M7.22,48.68V13.22c0-3.31,2.69-6,6-6h35.46
	c3.31,0,6,2.69,6,6v35.46c0,3.31-2.69,6-6,6H13.22C9.91,54.68,7.22,51.99,7.22,48.68z"/>
</svg>
