<?xml version="1.0" encoding="utf-8"?>
<!-- Generator: Adobe Illustrator 26.5.0, SVG Export Plug-In . SVG Version: 6.00 Build 0)  -->
<svg version="1.1" id="圖層_1" xmlns="http://www.w3.org/2000/svg" xmlns:xlink="http://www.w3.org/1999/xlink" x="0px" y="0px"
	 viewBox="0 0 16 10" style="enable-background:new 0 0 16 10;" xml:space="preserve">
<defs>
	<filter id="Adobe_OpacityMaskFilter" filterUnits="userSpaceOnUse" x="0.41" y="0.22" width="15.19" height="9.6">
		<feColorMatrix  type="matrix" values="1 0 0 0 0  0 1 0 0 0  0 0 1 0 0  0 0 0 1 0"/>
	</filter>
</defs>
<mask maskUnits="userSpaceOnUse" x="0.41" y="0.22" width="15.19" height="9.6" id="psnmgx7v8c_00000075162789623187889930000006665608407604746131_">
	<g style="filter:url(#Adobe_OpacityMaskFilter);">
		
			<path id="x08j8uqw0a_00000045612220873862870010000005488268104813501827_" style="fill-rule:evenodd;clip-rule:evenodd;fill:#FFFFFF;" d="
			M1.35,0.48c-0.36,0-0.65,0.29-0.65,0.65l-0.3,7.63c0,0.36,0.59,1.06,0.94,1.06h13.6c0.36,0,0.65-0.29,0.65-0.65V1.13
			c0-0.36-0.65-0.91-1.01-0.91L1.35,0.48z"/>
	</g>
</mask>
<linearGradient id="SVGID_1_" gradientUnits="userSpaceOnUse" x1="-883.8215" y1="486.311" x2="-884.8849" y2="486.311" gradientTransform="matrix(14.287 0 0 -9.027 12642.7578 4394.9482)">
	<stop  offset="0" style="stop-color:#48915B"/>
	<stop  offset="1" style="stop-color:#F2D43D"/>
</linearGradient>
<path style="mask:url(#psnmgx7v8c_00000075162789623187889930000006665608407604746131_);fill-rule:evenodd;clip-rule:evenodd;fill:url(#SVGID_1_);" d="
	M1.35,0.48c-0.36,0-0.65,0.29-0.65,0.65l-0.3,7.63c0,0.36,0.59,1.06,0.94,1.06h13.6c0.36,0,0.65-0.29,0.65-0.65V1.13
	c0-0.36-0.65-0.91-1.01-0.91L1.35,0.48z"/>
<path style="fill-rule:evenodd;clip-rule:evenodd;fill:#009A51;" d="M12.24,7.39l-9.14,0c-0.44,0-0.81,0.33-0.86,0.77L2.23,8.27
	l-0.71,0c-0.13,0-0.24-0.1-0.24-0.24c0,0,0,0,0,0l0-6.73c0-0.06,0.02-0.12,0.07-0.17C1.4,1.09,1.46,1.06,1.53,1.06l12.29,0.01
	c0.06,0,0.12,0.03,0.17,0.07c0.04,0.04,0.07,0.11,0.07,0.17l0,6.73c0,0.13-0.1,0.24-0.24,0.24c0,0,0,0,0,0H13.1l-0.01-0.11
	C13.05,7.73,12.68,7.39,12.24,7.39"/>
<path style="fill-rule:evenodd;clip-rule:evenodd;fill:#FCBC5E;" d="M13.81,8.68c0.17,0,0.33-0.07,0.45-0.19
	c0.12-0.12,0.19-0.28,0.19-0.45l0-6.73c0-0.35-0.28-0.64-0.63-0.64c0,0,0,0-0.01,0L1.52,0.66c-0.17,0-0.33,0.07-0.45,0.19
	C0.95,0.97,0.88,1.13,0.88,1.3l0,6.73c0,0.35,0.28,0.64,0.63,0.64c0,0,0,0,0.01,0h0.66L2.16,8.93l-1.3,0
	c-0.06,0-0.12-0.02-0.17-0.07C0.65,8.82,0.62,8.76,0.62,8.7l0-8.06c0-0.09,0.05-0.17,0.12-0.21C0.78,0.41,0.82,0.4,0.86,0.4
	l13.62,0.01c0.06,0,0.12,0.03,0.17,0.07c0.04,0.04,0.07,0.11,0.07,0.17l0,8.06c0,0.06-0.03,0.12-0.07,0.17
	c-0.04,0.05-0.1,0.07-0.17,0.07l-1.3,0l-0.03-0.26H13.81z"/>
<path style="fill-rule:evenodd;clip-rule:evenodd;fill:#F1EAD7;" d="M6.59,4.89C6.58,4.9,6.56,4.91,6.55,4.92V4.4
	C6.69,4.5,6.72,4.71,6.62,4.85C6.61,4.86,6.6,4.87,6.59,4.89 M11.33,5.49c-0.22,0.22-0.51,0.34-0.82,0.34
	c-0.64,0-1.16-0.51-1.16-1.15c0,0,0,0,0-0.01c0-0.31,0.12-0.6,0.34-0.82c0.45-0.45,1.18-0.46,1.63-0.01
	c0.22,0.22,0.35,0.52,0.34,0.83C11.67,4.98,11.55,5.27,11.33,5.49 M9.22,4.07v1.2c0,0.07-0.04,0.14-0.11,0.18
	c-0.03,0.02-0.06,0.03-0.1,0.03H6.35c-0.11,0-0.2-0.09-0.2-0.2c0,0,0,0,0,0V4.07c0-0.05,0.02-0.11,0.06-0.14
	C6.25,3.89,6.3,3.87,6.35,3.87h2.67C9.13,3.87,9.22,3.96,9.22,4.07 M5.98,4.67c0,0.42-0.23,0.81-0.6,1.01
	C5.21,5.78,5.02,5.83,4.82,5.83c-0.64,0-1.15-0.51-1.16-1.15c0,0,0-0.01,0-0.01c0-0.31,0.12-0.6,0.34-0.82
	c0.22-0.22,0.51-0.34,0.82-0.34c0.31,0,0.6,0.12,0.82,0.34C5.86,4.07,5.98,4.36,5.98,4.67 M11.88,5.65c0.54-0.54,0.54-1.42,0-1.96
	c-0.26-0.26-0.61-0.4-0.98-0.41l-6.46,0c-0.76,0-1.38,0.62-1.39,1.38c0,0,0,0,0,0c0,0.76,0.62,1.38,1.38,1.39l6.46,0
	C11.27,6.06,11.62,5.91,11.88,5.65 M8.78,4.89c-0.13-0.13-0.13-0.33,0-0.46C8.79,4.41,8.81,4.4,8.82,4.39v0.53
	C8.81,4.91,8.79,4.9,8.78,4.89"/>
<path style="fill-rule:evenodd;clip-rule:evenodd;fill:#6EBFC5;" d="M5.36,5.2c-0.29,0.3-0.77,0.3-1.07,0c0,0,0,0,0,0
	c-0.29-0.3-0.29-0.77,0-1.07c0.3-0.29,0.77-0.29,1.07,0C5.65,4.43,5.65,4.91,5.36,5.2 M8.28,4.66c0,0.15,0.05,0.29,0.13,0.41H6.96
	c0.16-0.24,0.17-0.55,0.02-0.8h1.42C8.32,4.39,8.28,4.52,8.28,4.66 M10.51,5.43c-0.2,0-0.39-0.08-0.53-0.22
	c-0.3-0.3-0.29-0.78,0-1.07c0.3-0.3,0.78-0.29,1.07,0c0.3,0.3,0.29,0.78,0,1.07C10.9,5.35,10.71,5.43,10.51,5.43"/>
<path style="fill-rule:evenodd;clip-rule:evenodd;fill:#F9776D;" d="M12.74,8.63l0.03,0.31l-5.1,0l-5.11,0L2.64,8.2
	C2.66,7.97,2.86,7.79,3.1,7.79l9.14,0c0.24,0,0.43,0.18,0.46,0.41l0.02,0.15C12.71,8.35,12.74,8.63,12.74,8.63z"/>
<path style="fill:#231815;" d="M14.73,0.06C14.65,0.02,14.56,0,14.48,0.01L0.86,0C0.51,0,0.23,0.28,0.22,0.63c0,0,0,0,0,0.01
	L0.22,8.7c0,0.02,0.01,0.04,0.01,0.05h0C0.23,9.2,0.89,10,1.35,10h13.6c0.46,0,0.83-0.37,0.83-0.83V1.13
	C15.78,0.7,15.17,0.16,14.73,0.06z M0.63,0.64c0-0.09,0.05-0.17,0.12-0.21C0.78,0.41,0.82,0.4,0.86,0.4l13.61,0.01
	c0.13,0,0.24,0.1,0.24,0.23c0,0,0,0,0,0l0,8.06h0c0,0.06-0.02,0.12-0.07,0.17c-0.04,0.04-0.11,0.07-0.17,0.07h-1.3l-0.03-0.26
	l0.66,0c0.17,0,0.33-0.07,0.45-0.19c0.12-0.12,0.19-0.28,0.19-0.45l0-6.73c0-0.35-0.28-0.64-0.63-0.64c0,0,0,0-0.01,0L1.52,0.66
	c-0.35,0-0.64,0.28-0.64,0.63c0,0,0,0.01,0,0.01l0,6.73c0,0.35,0.28,0.64,0.63,0.64c0,0,0,0,0.01,0h0.66L2.15,8.93h-1.3
	c-0.06,0-0.12-0.03-0.17-0.07c-0.05-0.04-0.07-0.1-0.07-0.17L0.63,0.64z M12.23,7.39l-9.14,0c-0.44,0-0.81,0.33-0.86,0.77L2.23,8.27
	l0,0H1.52c-0.13,0-0.24-0.1-0.24-0.23c0,0,0,0,0,0l0-6.73c0-0.13,0.11-0.24,0.24-0.24c0,0,0,0,0,0l12.29,0.01
	c0.06,0,0.12,0.02,0.17,0.07c0.05,0.04,0.07,0.1,0.07,0.17l0,6.73c0,0.13-0.1,0.24-0.23,0.24c0,0,0,0,0,0H13.1l-0.01-0.11
	C13.05,7.73,12.68,7.39,12.23,7.39z M12.77,8.94l-5.1,0l-5.11,0h0L2.64,8.2C2.66,7.97,2.86,7.79,3.1,7.79l9.14,0
	c0.24,0,0.43,0.18,0.46,0.41l0.01,0.15l0.03,0.27L12.77,8.94z M15.42,9.17c0,0.26-0.21,0.46-0.46,0.46H1.35
	c-0.11,0-0.28-0.14-0.43-0.3h13.6l0,0c0.15-0.01,0.3-0.07,0.41-0.18c0.12-0.12,0.19-0.28,0.19-0.45l0-8.02
	c0.17,0.15,0.3,0.33,0.3,0.44V9.17z M10.9,2.89l-6.46,0C3.45,2.91,2.67,3.72,2.69,4.71c0.02,0.95,0.79,1.72,1.74,1.74l6.46,0
	c0.31,0,0.6-0.08,0.86-0.22l0,0c0.14-0.08,0.28-0.18,0.4-0.3c0.34-0.34,0.53-0.79,0.53-1.26c0-0.48-0.19-0.93-0.52-1.26
	C11.83,3.07,11.37,2.88,10.9,2.89z M11.88,5.65L11.88,5.65c-0.26,0.26-0.61,0.41-0.98,0.4l-6.46,0c-0.76,0-1.38-0.62-1.39-1.39
	c0-0.76,0.62-1.38,1.38-1.38c0,0,0,0,0,0l6.46,0c0.77,0,1.39,0.63,1.38,1.39C12.28,5.04,12.13,5.39,11.88,5.65z M11.33,3.85
	c-0.22-0.22-0.51-0.34-0.82-0.34c-0.31,0-0.6,0.12-0.82,0.34C9.47,4.07,9.35,4.36,9.35,4.67c0,0.31,0.12,0.6,0.34,0.82
	c0.22,0.22,0.51,0.34,0.82,0.34c0.2,0,0.39-0.05,0.56-0.14v0c0.56-0.31,0.77-1.01,0.46-1.57C11.47,4.02,11.41,3.93,11.33,3.85z
	 M11.04,5.21c-0.29,0.3-0.77,0.3-1.07,0c0,0,0,0,0,0c-0.29-0.3-0.29-0.77,0-1.07c0.3-0.29,0.77-0.29,1.07,0
	C11.34,4.43,11.34,4.91,11.04,5.21z M4.01,3.84C3.79,4.06,3.66,4.36,3.67,4.67c0,0.31,0.12,0.6,0.34,0.82
	c0.22,0.22,0.51,0.34,0.82,0.34c0.31,0,0.6-0.12,0.82-0.34c0.22-0.22,0.34-0.51,0.34-0.82c0-0.31-0.12-0.6-0.34-0.82
	C5.19,3.4,4.46,3.39,4.01,3.84z M5.36,5.2c-0.3,0.3-0.78,0.29-1.07,0c-0.3-0.3-0.29-0.78,0-1.07c0.3-0.3,0.78-0.29,1.07,0
	C5.5,4.27,5.58,4.47,5.58,4.67h0C5.58,4.87,5.5,5.06,5.36,5.2z M9.02,3.87H6.35c-0.11,0-0.2,0.09-0.2,0.2c0,0,0,0,0,0l0,1.2
	c0,0.11,0.09,0.2,0.2,0.2h2.67c0.11,0,0.2-0.09,0.2-0.2c0,0,0,0,0,0l0-1.2C9.22,3.96,9.13,3.87,9.02,3.87z M6.68,4.66
	C6.68,4.66,6.68,4.66,6.68,4.66c0,0.1-0.05,0.2-0.13,0.26V4.4C6.63,4.46,6.68,4.55,6.68,4.66C6.68,4.66,6.68,4.66,6.68,4.66
	L6.68,4.66z M6.96,5.07c0.17-0.24,0.17-0.55,0.02-0.8h1.42v0C8.24,4.52,8.24,4.83,8.41,5.07H6.96z M8.82,4.93
	c-0.15-0.1-0.19-0.3-0.09-0.45c0.02-0.03,0.05-0.06,0.09-0.09V4.93z"/>
</svg>
