<?xml version="1.0" encoding="utf-8"?>
<!-- Generator: Adobe Illustrator 26.5.0, SVG Export Plug-In . SVG Version: 6.00 Build 0)  -->
<svg version="1.1" id="圖層_1" xmlns="http://www.w3.org/2000/svg" xmlns:xlink="http://www.w3.org/1999/xlink" x="0px" y="0px"
	 width="48px" height="66px" viewBox="0 0 48 66" style="enable-background:new 0 0 48 66;" xml:space="preserve">
<path style="opacity:0.1;fill:#F8EB01;enable-background:new    ;" d="M35.41,66h-8.63v-6.9H11l0.03-7.1l11.82-23.59h12.56v22.63
	h5.34v7.97h-5.34V66z M27.28,65.5h7.63v-6.98h5.34v-6.97h-5.34V28.91H23.15L11.5,52.17v6.43h15.77v6.9H27.28z M27.28,51.54h-7.05
	l6.58-12.77l0.47,0.11C27.28,38.88,27.28,51.54,27.28,51.54z M21.05,51.04h5.73V39.92L21.05,51.04z"/>
<path style="opacity:0.25;fill:#F8EB01;enable-background:new    ;" d="M34.4,65h-8.63v-6.9H10l0.03-7.1l11.81-23.6H34.4v22.63h5.34
	V58H34.4V65z M26.27,64.49h7.63v-6.98h5.34v-6.97H33.9V27.91H22.15L10.5,51.16v6.43h15.77V64.49z M26.27,50.54h-7.05l6.58-12.77
	l0.47,0.11V50.54z M20.05,50.04h5.73V38.92L20.05,50.04z"/>
<path style="opacity:0.5;fill:#F8EB01;enable-background:new    ;" d="M33.4,63.99h-8.63v-6.9H8.99l0.03-7.1L20.84,26.4H33.4v22.63
	h5.34V57H33.4V63.99z M25.27,63.49h7.63v-6.98h5.34v-6.97H32.9V26.9H21.15L9.5,50.16v6.43h15.77V63.49z M25.27,49.54h-7.05
	l6.58-12.77l0.47,0.11V49.54z M19.04,49.03h5.73V37.91L19.04,49.03z"/>
<path style="opacity:0.75;fill:#F8EB01;enable-background:new    ;" d="M32.4,62.99h-8.63v-6.9H7.99l0.03-7.1L19.83,25.4H32.4v22.63
	h5.34V56H32.4V62.99z M24.27,62.49h7.63V55.5h5.34v-6.97H31.9V25.9H20.14L8.49,49.15v6.43h15.78V62.49z M24.27,48.53h-7.05
	l6.58-12.77l0.47,0.11V48.53z M18.04,48.03h5.73V36.91L18.04,48.03z"/>
<path style="fill-rule:evenodd;clip-rule:evenodd;fill:#FFFFFF;" d="M16.62,47.28l6.39-12.41v12.41H16.62z M31.14,24.64H18.98
	L7.24,48.09v6.74h15.78v6.9h8.13v-6.98h5.34v-7.47h-5.34C31.14,47.28,31.14,24.64,31.14,24.64z"/>
<path style="fill-rule:evenodd;clip-rule:evenodd;fill:#918A8A;" d="M39.06,6L39.06,6c0.28,0,0.5,0.22,0.5,0.5v25.1
	c0,0.28-0.22,0.5-0.5,0.5l0,0c-0.28,0-0.5-0.22-0.5-0.5V6.5C38.55,6.22,38.78,6,39.06,6z M0.91,29.09L0.91,29.09
	c0.28,0,0.5,0.22,0.5,0.5v5.02c0,0.28-0.22,0.5-0.5,0.5l0,0c-0.28,0-0.5-0.22-0.5-0.5v-5.02C0.41,29.31,0.64,29.09,0.91,29.09z
	 M43.07,14.03L43.07,14.03c0.28,0,0.5,0.22,0.5,0.5v25.09c0,0.28-0.22,0.5-0.5,0.5l0,0c-0.28,0-0.5-0.22-0.5-0.5V14.53
	C42.57,14.25,42.79,14.03,43.07,14.03z M47.09,20.05L47.09,20.05c0.28,0,0.5,0.22,0.5,0.5V34.6c0,0.28-0.22,0.5-0.5,0.5l0,0
	c-0.28,0-0.5-0.22-0.5-0.5V20.55C46.58,20.28,46.81,20.05,47.09,20.05z M8.94,13.03L8.94,13.03c0.28,0,0.5,0.22,0.5,0.5V32.6
	c0,0.28-0.22,0.5-0.5,0.5l0,0c-0.28,0-0.5-0.22-0.5-0.5V13.53C8.44,13.25,8.67,13.03,8.94,13.03z M4.93,17.04L4.93,17.04
	c0.28,0,0.5,0.22,0.5,0.5V31.6c0,0.28-0.22,0.5-0.5,0.5l0,0c-0.28,0-0.5-0.22-0.5-0.5V17.54C4.43,17.27,4.65,17.04,4.93,17.04z
	 M12.96,16.04L12.96,16.04c0.28,0,0.5,0.22,0.5,0.5v7.03c0,0.28-0.22,0.5-0.5,0.5l0,0c-0.28,0-0.5-0.22-0.5-0.5v-7.03
	C12.46,16.26,12.68,16.04,12.96,16.04z"/>
</svg>
