<?xml version="1.0" encoding="utf-8"?>
<!-- Generator: Adobe Illustrator 26.5.0, SVG Export Plug-In . SVG Version: 6.00 Build 0)  -->
<svg version="1.1" id="圖層_1" xmlns="http://www.w3.org/2000/svg" xmlns:xlink="http://www.w3.org/1999/xlink" x="0px" y="0px"
	 width="48px" height="66px" viewBox="0 0 48 66" style="enable-background:new 0 0 48 66;" xml:space="preserve">
<path style="opacity:0.1;fill:#F8EB01;enable-background:new    ;" d="M28.17,66c-5.58,0-13.87-3.72-13.87-13.96V41.99
	c0-11.05,9.07-13.96,13.87-13.96c5.46,0,13.57,3.72,13.57,13.96v10.05C41.74,61.63,34.7,66,28.17,66z M28.17,28.53
	c-4.62,0-13.36,2.81-13.36,13.46v10.05c0,9.87,7.99,13.45,13.36,13.45c6.29,0,13.07-4.21,13.07-13.45V41.99
	C41.23,32.11,33.42,28.53,28.17,28.53z M28.02,57.9c-4.06,0-4.5-3.93-4.5-5.62V41.74c0-1.69,0.44-5.62,4.5-5.62
	c2.05,0,4.5,0.98,4.5,5.62v10.54C32.52,56.93,30.07,57.9,28.02,57.9z M28.02,36.63c-3.47,0-3.99,3.2-3.99,5.11v10.54
	c0,1.91,0.52,5.11,3.99,5.11c2.65,0,3.99-1.72,3.99-5.11V41.74C32.01,38.35,30.67,36.63,28.02,36.63z"/>
<path style="opacity:0.25;fill:#F8EB01;enable-background:new    ;" d="M27.15,64.98c-5.57,0-13.87-3.72-13.87-13.96V40.97
	c0-11.05,9.07-13.96,13.87-13.96c5.46,0,13.57,3.72,13.57,13.96v10.05C40.72,60.61,33.69,64.98,27.15,64.98z M27.15,27.51
	c-4.62,0-13.36,2.81-13.36,13.46v10.05c0,9.87,7.99,13.45,13.36,13.45c6.29,0,13.07-4.21,13.07-13.45V40.97
	C40.21,31.1,32.4,27.51,27.15,27.51z M27,56.88c-4.06,0-4.5-3.93-4.5-5.62V40.73c0-1.69,0.44-5.62,4.5-5.62
	c2.05,0,4.5,0.98,4.5,5.62v10.54C31.5,55.91,29.06,56.88,27,56.88z M27,35.61c-3.47,0-3.99,3.2-3.99,5.11v10.54
	c0,1.91,0.52,5.11,3.99,5.11c2.65,0,3.99-1.72,3.99-5.11V40.73C30.99,37.33,29.65,35.61,27,35.61z"/>
<path style="opacity:0.5;fill:#F8EB01;enable-background:new    ;" d="M26.13,63.97c-5.57,0-13.87-3.72-13.87-13.96V39.95
	c0-11.05,9.07-13.96,13.87-13.96c5.46,0,13.57,3.72,13.57,13.96V50C39.71,59.6,32.67,63.97,26.13,63.97z M26.13,26.5
	c-4.62,0-13.36,2.81-13.36,13.46V50c0,9.87,7.99,13.45,13.36,13.45c6.29,0,13.07-4.21,13.07-13.45V39.95
	C39.2,30.08,31.38,26.5,26.13,26.5z M25.99,55.87c-4.06,0-4.5-3.93-4.5-5.62V39.71c0-1.69,0.44-5.62,4.5-5.62
	c2.05,0,4.5,0.98,4.5,5.62v10.54C30.48,54.89,28.04,55.87,25.99,55.87z M25.99,34.6c-3.47,0-3.99,3.2-3.99,5.11v10.54
	c0,1.91,0.52,5.11,3.99,5.11c2.65,0,3.99-1.72,3.99-5.11V39.71C29.98,36.32,28.63,34.6,25.99,34.6z"/>
<path style="opacity:0.75;fill:#F8EB01;enable-background:new    ;" d="M25.11,62.95c-5.57,0-13.87-3.72-13.87-13.96V38.94
	c0-11.05,9.07-13.96,13.87-13.96c5.46,0,13.57,3.72,13.57,13.96v10.05C38.69,58.58,31.65,62.95,25.11,62.95z M25.11,25.48
	c-4.62,0-13.36,2.81-13.36,13.46v10.05c0,9.87,7.99,13.45,13.36,13.45c6.29,0,13.07-4.21,13.07-13.45V38.94
	C38.18,29.06,30.37,25.48,25.11,25.48z M24.97,54.85c-4.06,0-4.5-3.93-4.5-5.62V38.69c0-1.69,0.44-5.62,4.5-5.62
	c2.05,0,4.5,0.98,4.5,5.62v10.54C29.47,53.88,27.02,54.85,24.97,54.85z M24.97,33.58c-3.47,0-3.99,3.2-3.99,5.11v10.54
	c0,1.91,0.52,5.11,3.99,5.11c2.65,0,3.99-1.72,3.99-5.11V38.69C28.96,35.3,27.62,33.58,24.97,33.58z"/>
<path style="fill-rule:evenodd;clip-rule:evenodd;fill:#FFFFFF;" d="M19.71,48.21c0,2.15,0.68,5.37,4.24,5.37
	c4.24,0,4.24-4.29,4.24-5.37V37.68c0-1.12,0-5.37-4.24-5.37c-3.66,0-4.24,3.42-4.24,5.37C19.71,37.68,19.71,48.21,19.71,48.21z
	 M10.49,37.92c0-10.44,8.44-13.71,13.61-13.71c4.63,0,13.32,3.02,13.32,13.71v10.05c0,10.05-7.66,13.71-13.32,13.71
	c-5.32,0-13.61-3.51-13.61-13.71C10.49,47.97,10.49,37.92,10.49,37.92z"/>
<path style="fill-rule:evenodd;clip-rule:evenodd;fill:#918A8A;" d="M8.75,14L8.75,14c0.28,0,0.51,0.23,0.51,0.51v19.32
	c0,0.28-0.23,0.51-0.51,0.51l0,0c-0.28,0-0.51-0.23-0.51-0.51V14.51C8.24,14.23,8.46,14,8.75,14z M5.69,17.05L5.69,17.05
	c0.28,0,0.51,0.23,0.51,0.51V31.8c0,0.28-0.23,0.51-0.51,0.51l0,0c-0.28,0-0.51-0.23-0.51-0.51V17.56
	C5.19,17.28,5.41,17.05,5.69,17.05z M11.8,17.05L11.8,17.05c0.28,0,0.51,0.23,0.51,0.51v7.12c0,0.28-0.23,0.51-0.51,0.51l0,0
	c-0.28,0-0.51-0.23-0.51-0.51v-7.12C11.29,17.28,11.52,17.05,11.8,17.05z M39.25,21.12L39.25,21.12c0.28,0,0.51,0.23,0.51,0.51v8.14
	c0,0.28-0.23,0.51-0.51,0.51l0,0c-0.28,0-0.51-0.23-0.51-0.51v-8.14C38.75,21.35,38.97,21.12,39.25,21.12z M42.31,25.19L42.31,25.19
	c0.28,0,0.51,0.23,0.51,0.51v8.14c0,0.28-0.23,0.51-0.51,0.51l0,0c-0.28,0-0.51-0.23-0.51-0.51V25.7
	C41.8,25.41,42.02,25.19,42.31,25.19z"/>
</svg>
