<?xml version="1.0" encoding="utf-8"?>
<!-- Generator: Adobe Illustrator 26.5.0, SVG Export Plug-In . SVG Version: 6.00 Build 0)  -->
<svg version="1.1" id="圖層_1" xmlns="http://www.w3.org/2000/svg" xmlns:xlink="http://www.w3.org/1999/xlink" x="0px" y="0px"
	 width="264px" height="200px" viewBox="0 0 264 200" style="enable-background:new 0 0 264 200;" xml:space="preserve">
<style type="text/css">
	.st0{fill-rule:evenodd;clip-rule:evenodd;fill:#40362D;}
	.st1{fill-rule:evenodd;clip-rule:evenodd;fill:#2A241E;}
	.st2{fill:url(#SVGID_1_);}
	.st3{filter:url(#Adobe_OpacityMaskFilter);}
	.st4{fill:#FFFFFF;}
	
		.st5{mask:url(#qf9npxeypf_00000123418676648258297150000000802031564527571866_);fill:url(#SVGID_00000112598121048654130250000008339032492040650900_);}
	.st6{fill:#403A3A;}
	.st7{filter:url(#Adobe_OpacityMaskFilter_00000105420921814825577800000016731035906545087901_);}
	
		.st8{mask:url(#oc79w55yfi_00000037650941661455027280000016546714184476270258_);fill:url(#SVGID_00000037675128291838258440000007343297209044679852_);}
	.st9{fill:#DD6D5F;}
	.st10{fill:#3F3B3A;}
	.st11{fill:#C0913C;}
	.st12{fill:#314D55;}
	.st13{fill:#01D99C;}
	.st14{fill:#231815;}
	.st15{fill:#E9CB5E;}
	.st16{fill:#314C55;}
	.st17{fill:#3E6269;}
	.st18{fill:#8E534B;}
	.st19{fill:#EACC5C;}
	.st20{fill:#63ABA0;}
	.st21{fill:#579387;}
	.st22{fill:#266787;}
	.st23{fill:#F1EAD7;}
	.st24{fill:#6EBFC5;}
	.st25{fill:#E9CB5D;}
	.st26{fill:#62ACA0;}
	.st27{fill:#6391AA;}
	.st28{fill:#5A5470;}
	.st29{fill:#665E5D;}
	.st30{fill:#776A45;}
	.st31{fill:#FFFFFF;fill-opacity:0.3;}
	.st32{fill:#FFFFFF;fill-opacity:0.25;}
	.st33{fill:#535353;}
	.st34{opacity:0.502;fill:#908F8F;enable-background:new    ;}
	.st35{fill:#343131;}
	.st36{fill:#BBB8B8;}
	.st37{fill:#ED6559;}
</style>
<ellipse id="ctxobtr04a_00000057148795164272637870000015664394365321831593_" class="st0" cx="126.5" cy="110.6" rx="89.3" ry="89.4"/>
<path class="st1" d="M78.4,35.3c2-1.2,4-2.4,6-3.5l30.2,59.4L78.4,35.3z M118.4,89.3L98.9,25.5c-2.2,0.7-4.4,1.5-6.6,2.4L118.4,89.3
	z M122.4,88.2L114.3,22c-2.3,0.3-4.6,0.7-6.9,1.2L122.4,88.2z M111.2,93.4l-40-53.1c-1.8,1.5-3.6,3-5.3,4.5L111.2,93.4z
	 M104.2,103.5L43.4,77.7c-0.8,2.2-1.6,4.3-2.3,6.6L104.2,103.5z M134.6,89.3l26-61.3c-2.2-0.9-4.4-1.7-6.6-2.4L134.6,89.3z
	 M105.9,99.8L50.5,63.7c-1.2,2-2.4,4-3.4,6.1L105.9,99.8z M108.3,96.4L59.8,51.1c-1.5,1.7-3,3.5-4.5,5.4L108.3,96.4z M148.7,103.5
	l63.1-19.3c-0.7-2.2-1.5-4.4-2.3-6.6L148.7,103.5z M37.2,108.1c0,0.8,0,1.6,0,2.5c0,1.5,0,3,0.1,4.5l65.5-3.4L37.2,108.1z
	 M138.3,91.1l36.2-55.8c-2-1.2-4-2.4-6-3.5L138.3,91.1z M215.7,115.1c0.1-1.5,0.1-3,0.1-4.5c0-0.8,0-1.6,0-2.5l-65.6,3.5
	L215.7,115.1z M214,92.6l-64.2,14.8l65.3-8C214.8,97.2,214.4,94.9,214,92.6z M103.1,107.5L39,92.6c-0.5,2.2-0.8,4.5-1.1,6.8
	L103.1,107.5z M141.7,93.4L187,44.9c-1.7-1.6-3.5-3.1-5.3-4.5L141.7,93.4z M147,99.8l58.9-30c-1.1-2.1-2.2-4.1-3.4-6.1L147,99.8z
	 M144.6,96.4l52.9-39.9c-1.4-1.9-2.9-3.7-4.4-5.4L144.6,96.4z M130.6,88.2l15-65c-2.3-0.5-4.6-0.9-6.9-1.2L130.6,88.2z M138.3,132.1
	l29.4,57.8c2-1.1,4-2.2,5.9-3.4L138.3,132.1z M141.7,129.8l39,51.8c1.8-1.4,3.6-2.8,5.3-4.4L141.7,129.8z M134.6,133.9l18.9,61.9
	c2.2-0.7,4.3-1.5,6.4-2.3L134.6,133.9z M130.6,135l7.9,64.2c2.3-0.3,4.5-0.7,6.7-1.2L130.6,135z M144.6,126.8l47.5,44.4
	c1.6-1.7,3-3.4,4.4-5.2L144.6,126.8z M148.7,119.7l60.1,25.6c0.9-2.1,1.7-4.3,2.4-6.4L148.7,119.7z M149.8,115.7l63.8,14.8
	c0.5-2.2,0.9-4.5,1.3-6.8L149.8,115.7z M103.1,115.7l-65,8c0.3,2.3,0.8,4.6,1.3,6.8L103.1,115.7z M147,123.5l54.6,35.5
	c1.2-1.9,2.4-3.9,3.5-5.9L147,123.5z M130,21.3c-1.2,0-2.3-0.1-3.5-0.1s-2.3,0-3.5,0.1l3.5,66.6L130,21.3z M105.9,123.5l-58.1,29.6
	c1.1,2,2.3,4,3.5,5.9L105.9,123.5z M108.3,126.8l-52,39.2c1.4,1.8,2.9,3.5,4.5,5.2L108.3,126.8z M111.2,129.8L67,177.3
	c1.7,1.5,3.4,3,5.3,4.4L111.2,129.8z M104.2,119.7l-62.5,19.1c0.7,2.2,1.5,4.3,2.4,6.4L104.2,119.7z M114.6,132.1l-35.3,54.4
	c1.9,1.2,3.9,2.3,5.9,3.4L114.6,132.1z M129.9,199.9l-3.4-64.6l-3.4,64.6c1.1,0,2.3,0.1,3.4,0.1C127.6,200,128.7,200,129.9,199.9z
	 M122.4,135l-14.6,63c2.2,0.5,4.4,0.9,6.7,1.2L122.4,135z M118.4,133.9l-25.3,59.6c2.1,0.9,4.2,1.6,6.4,2.3L118.4,133.9z"/>
<linearGradient id="SVGID_1_" gradientUnits="userSpaceOnUse" x1="-1534.7179" y1="138.774" x2="-1534.8153" y2="138.7721" gradientTransform="matrix(2.1012 -0.3141 -0.995 -6.3871 3526.5144 543.5303)">
	<stop  offset="0" style="stop-color:#31895D"/>
	<stop  offset="1" style="stop-color:#F2D43D"/>
</linearGradient>
<path class="st2" d="M163.1,142.6l2-0.3l-1-6.5l-2.1,0.4L163.1,142.6z"/>
<defs>
	<filter id="Adobe_OpacityMaskFilter" filterUnits="userSpaceOnUse" x="219.3" y="122.4" width="3.8" height="11.4">
		<feColorMatrix  type="matrix" values="1 0 0 0 0  0 1 0 0 0  0 0 1 0 0  0 0 0 1 0"/>
	</filter>
</defs>
<mask maskUnits="userSpaceOnUse" x="219.3" y="122.4" width="3.8" height="11.4" id="qf9npxeypf_00000123418676648258297150000000802031564527571866_">
	<g class="st3">
		<path id="tgcegncuyd_00000152960029155323546120000012520249527305083559_" class="st4" d="M219.3,122.4l1.8,11.4l2-0.3l-1.6-9.6
			L219.3,122.4z"/>
	</g>
</mask>
<linearGradient id="SVGID_00000170254372416388468960000005880871134484852154_" gradientUnits="userSpaceOnUse" x1="-1473.218" y1="262.7887" x2="-1473.2461" y2="262.7875" gradientTransform="matrix(2.005 -0.2997 -1.7628 -11.315 3638.3301 2659.8462)">
	<stop  offset="0" style="stop-color:#31895D"/>
	<stop  offset="1" style="stop-color:#F2D43D"/>
</linearGradient>
<path style="mask:url(#qf9npxeypf_00000123418676648258297150000000802031564527571866_);fill:url(#SVGID_00000170254372416388468960000005880871134484852154_);" d="
	M219.3,122.4l1.8,11.4l2-0.3l-1.6-9.6L219.3,122.4z"/>
<path class="st6" d="M162.1,136.3l58-8.7l-0.6-3.6l-58,8.7L162.1,136.3z"/>
<defs>
	
		<filter id="Adobe_OpacityMaskFilter_00000094577070308609197360000003923254431420796596_" filterUnits="userSpaceOnUse" x="136.8" y="131.1" width="125.1" height="61.3">
		<feColorMatrix  type="matrix" values="1 0 0 0 0  0 1 0 0 0  0 0 1 0 0  0 0 0 1 0"/>
	</filter>
</defs>
<mask maskUnits="userSpaceOnUse" x="136.8" y="131.1" width="125.1" height="61.3" id="oc79w55yfi_00000037650941661455027280000016546714184476270258_">
	<g style="filter:url(#Adobe_OpacityMaskFilter_00000094577070308609197360000003923254431420796596_);">
		<path id="nfaiquwvgg_00000141457564484766861840000008112134144482761137_" class="st4" d="M242.2,133.8l-100.7,15.3
			c-3,0.4-5.2,3.1-4.6,6.1l4.9,30.8l-1.6,2.5c0,0,2.2,1.5,4.3,3c1.1,0.6,2.5,1,3.8,0.8l108.9-16.4c3-0.4,5.2-3.1,4.6-6.1l-5.2-32.7
			c-0.2-1.6-1-2.5-2.4-3.6s-3.5-2.4-3.5-2.4L242.2,133.8z"/>
	</g>
</mask>
<linearGradient id="SVGID_00000137100514621639321760000013813541730129478040_" gradientUnits="userSpaceOnUse" x1="-2786.167" y1="382.3108" x2="-2787.1824" y2="382.3083" gradientTransform="matrix(119.9483 -17.9322 -6.8805 -44.1645 337085.625 -32924.8086)">
	<stop  offset="0" style="stop-color:#31895D"/>
	<stop  offset="1" style="stop-color:#F2D43D"/>
</linearGradient>
<path style="mask:url(#oc79w55yfi_00000037650941661455027280000016546714184476270258_);fill:url(#SVGID_00000137100514621639321760000013813541730129478040_);" d="
	M242.2,133.8l-100.7,15.3c-3,0.4-5.2,3.1-4.6,6.1l4.9,30.8l-1.6,2.5c0,0,2.2,1.5,4.3,3c1.1,0.6,2.5,1,3.8,0.8l108.9-16.4
	c3-0.4,5.2-3.1,4.6-6.1l-5.2-32.7c-0.2-1.6-1-2.5-2.4-3.6s-3.5-2.4-3.5-2.4L242.2,133.8z"/>
<path class="st9" d="M144.5,189.5l108.9-16.4c3-0.4,5.2-3.1,4.6-6.1l-5.2-32.5c-0.4-2.8-3.2-4.9-6.4-4.4l-108.7,16.5
	c-3,0.4-5.2,3.1-4.7,6.1l5.2,32.5C138.6,188,141.4,190,144.5,189.5L144.5,189.5"/>
<path class="st10" d="M253.3,173.1l-108.9,16.4c-2.3,0.4-4.5-0.7-5.6-2.7c0.6,0.1,1.3,0.1,1.9,0l108.9-16.4c3-0.4,5.2-3.1,4.6-6.1
	l-5.1-32.4c-0.1-0.6-0.3-1.3-0.6-1.8c2.3,0.5,4.1,2.2,4.3,4.4l5.1,32.5C258.4,170,256.3,172.6,253.3,173.1"/>
<path class="st11" d="M137.8,146.5l108.9-16.4c2.3-0.4,4.5,0.7,5.6,2.7c-0.6-0.1-1.3-0.1-1.9,0l-108.9,16.3c-3,0.4-5.2,3.1-4.6,6.1
	l5.2,32.5c0.1,0.6,0.3,1.3,0.6,1.8c-2.3-0.5-4.1-2.2-4.3-4.4l-5.3-32.6C132.6,149.6,134.6,147,137.8,146.5"/>
<path class="st12" d="M187.8,177.2l20.3-3.1c2.1-0.4,3.6-2.2,3.3-4.3l-3.8-24.4c-0.4-2-2.3-3.4-4.4-3.2l-20.3,3.1
	c-2.1,0.4-3.6,2.2-3.3,4.3l3.8,24.4C183.7,176.1,185.7,177.5,187.8,177.2"/>
<path class="st13" d="M225.9,155.1c0.4,2.8,3.1,4.7,6,4.2l0,0c2.9-0.4,4.9-3,4.5-5.8l0,0c-0.4-2.8-3.1-4.7-6-4.2l0,0
	C227.5,149.8,225.4,152.4,225.9,155.1L225.9,155.1"/>
<path class="st14" d="M225.5,155.2c-0.4-2.9,1.7-5.7,4.8-6.2c3.1-0.4,5.9,1.6,6.5,4.5c0.4,2.9-1.7,5.7-4.8,6.2
	C228.9,160,226,158.1,225.5,155.2 M226.3,155.1c0.4,2.5,2.9,4.2,5.6,3.8c2.6-0.4,4.4-2.8,4-5.3s-2.9-4.2-5.6-3.8
	C227.8,150.1,225.8,152.5,226.3,155.1"/>
<path class="st15" d="M220.9,172.1l25.7-3.9c2.1-0.4,3.6-2.2,3.3-4.3l-3.8-24.3c-0.4-2-2.3-3.4-4.4-3.2l-25.7,3.9
	c-2.1,0.4-3.6,2.2-3.3,4.3l3.8,24.4C216.7,171.1,218.8,172.6,220.9,172.1 M149.6,183l25.7-3.9c2.1-0.4,3.6-2.2,3.3-4.3l-3.8-24.3
	c-0.4-2-2.3-3.4-4.4-3.2l-25.7,3.9c-2.1,0.4-3.6,2.2-3.3,4.3l3.8,24.4C145.4,181.9,147.5,183.3,149.6,183 M190.7,169.8l3-0.4
	c0.5,0,0.7-0.4,0.7-0.8L194,166c0-0.4-0.5-0.6-0.9-0.5l-3,0.4c-0.5,0-0.7,0.4-0.7,0.8l0.4,2.6C189.9,169.4,190.3,169.8,190.7,169.8"
	/>
<path class="st16" d="M217.6,156.3c1.1,7.2,8.2,12,15.5,10.9c7.5-1.1,12.6-7.9,11.6-15c-1.1-7.2-8.2-12-15.5-10.9
	C221.6,142.4,216.4,149.2,217.6,156.3 M146.3,167.1c1.1,7.2,8.1,12.1,15.6,11s12.6-7.9,11.6-15c-1.1-7.2-8.2-12-15.5-10.9
	C150.3,153.2,145.2,159.9,146.3,167.1L146.3,167.1"/>
<path class="st17" d="M225.9,155.1c0.4,2.8,3.1,4.7,6,4.2l0,0c2.9-0.4,4.9-3,4.5-5.8l0,0c-0.4-2.8-3.1-4.7-6-4.2l0,0
	C227.5,149.8,225.4,152.4,225.9,155.1L225.9,155.1 M154.7,165.8c0.4,2.8,3.1,4.7,6,4.2l0,0c2.9-0.4,4.9-3,4.5-5.8l0,0
	c-0.4-2.8-3.1-4.7-6-4.2l0,0C156.2,160.5,154.2,163.1,154.7,165.8L154.7,165.8"/>
<path class="st9" d="M161.8,134.6l58-8.7l-0.6-3.5l-57.9,8.7L161.8,134.6z"/>
<path class="st11" d="M161.5,132.3l58-8.7l-0.2-1.2l-58,8.7L161.5,132.3z"/>
<path class="st18" d="M192.8,129.9l3.8-0.6L196,126l-3.8,0.6L192.8,129.9z"/>
<path class="st19" d="M188.8,130.6l3.8-0.6l-0.6-3.4l-3.8,0.6L188.8,130.6z"/>
<path class="st20" d="M185,131.1l3.8-0.6l-0.6-3.4l-3.8,0.6L185,131.1z"/>
<path class="st21" d="M206.4,161.1l-20.6,3.1c-0.8,0.1-1.5-0.3-1.6-1.1l-1.6-9.5c-0.2-0.7,0.4-1.4,1.1-1.5l20.5-3.1
	c0.8-0.1,1.5,0.3,1.6,1.1l1.5,9.5C207.6,160.4,207.1,161.1,206.4,161.1"/>
<path class="st22" d="M206.1,160.2l-20.3,3.1c-0.3,0-0.5-0.1-0.5-0.4l-1.5-9.4c0-0.3,0.1-0.5,0.4-0.5l20.3-3.1
	c0.3,0,0.5,0.1,0.5,0.4l1.4,9.4C206.5,159.9,206.3,160.2,206.1,160.2"/>
<path class="st23" d="M201.2,157.4l-11.9,1.8c-1.3,0.2-2.7-0.7-2.9-2v-0.3c-0.2-1.3,0.8-2.6,2.1-2.8l11.9-1.8c1.3-0.2,2.7,0.7,2.9,2
	v0.3C203.5,155.9,202.6,157.2,201.2,157.4"/>
<path class="st24" d="M189.4,155.1c0.8-0.1,1.6,0.3,1.8,1.1c0.2,0.7-0.4,1.5-1.2,1.7c0,0,0,0-0.1,0c-0.8,0.1-1.6-0.4-1.6-1.2
	C188.1,155.9,188.6,155.2,189.4,155.1 M199.8,153.5c0.8-0.1,1.6,0.3,1.8,1.1c0.2,0.7-0.4,1.5-1.2,1.7c0,0,0,0-0.1,0
	c-0.8,0.1-1.6-0.4-1.6-1.2C198.4,154.4,199,153.7,199.8,153.5 M192.7,157.1l4.8-0.7l-0.4-2.1l-4.8,0.7L192.7,157.1z"/>
<path class="st23" d="M192.3,155.1l0.4,2c0.6-0.1,1-0.6,0.9-1.2C193.4,155.3,192.9,154.9,192.3,155.1"/>
<path class="st23" d="M197.1,154.3l0.4,2c-0.6,0.1-1.1-0.3-1.2-0.8C196.1,154.9,196.4,154.4,197.1,154.3"/>
<path class="st9" d="M204.1,146.9l-20.6,3.1c-0.8,0.1-1.5-0.3-1.6-1.1c-0.2-0.7,0.4-1.4,1.1-1.5l20.5-3.1c0.8-0.1,1.5,0.3,1.6,1.1
	C205.3,146.2,204.9,146.8,204.1,146.9"/>
<path class="st25" d="M185,147.6c0.5,0,0.9,0.2,1,0.7c0,0.5-0.2,0.9-0.7,1s-0.9-0.2-1-0.7S184.5,147.6,185,147.6L185,147.6"/>
<path class="st26" d="M186.1,170.3l3-0.4c0.5,0,0.7-0.4,0.7-0.8l-0.4-2.6c0-0.4-0.5-0.6-0.9-0.5l-3,0.4c-0.5,0-0.7,0.4-0.7,0.8
	l0.4,2.6C185.2,170.2,185.7,170.4,186.1,170.3"/>
<path class="st9" d="M195.4,169.1l3-0.4c0.5,0,0.7-0.4,0.7-0.8l-0.4-2.7c0-0.4-0.5-0.6-0.9-0.6l-3,0.5c-0.5,0-0.7,0.4-0.7,0.8
	l0.4,2.6C194.6,168.9,194.9,169.1,195.4,169.1"/>
<path class="st27" d="M199.9,168.4l3-0.4c0.5,0,0.7-0.4,0.7-0.8l-0.4-2.6c0-0.4-0.5-0.6-0.9-0.6l-3,0.4c-0.5,0-0.7,0.4-0.7,0.8
	l0.4,2.6C199.1,168.2,199.5,168.4,199.9,168.4"/>
<path class="st28" d="M204.7,167.8l3-0.4c0.5,0,0.7-0.4,0.7-0.8L208,164c0-0.4-0.5-0.6-0.9-0.5l-3,0.4c-0.5,0-0.7,0.4-0.7,0.8
	l0.4,2.6C203.9,167.5,204.3,167.8,204.7,167.8"/>
<path class="st6" d="M208.1,171.9l-21,3.1c-0.7,0.1-1.2-0.3-1.3-0.9l-0.1-0.6c-0.1-0.6,0.3-1.1,1-1.3l20.9-3.1
	c0.7-0.1,1.2,0.3,1.3,0.9l0.1,0.6C209.2,171.3,208.7,171.9,208.1,171.9"/>
<path class="st29" d="M200.5,169.8c1.1-0.2,2.1,0.5,2.3,1.5s-0.5,2-1.6,2.2h-0.1c-1.1,0.2-2.1-0.5-2.3-1.5
	C198.6,171,199.2,170,200.5,169.8C200.4,169.8,200.4,169.8,200.5,169.8 M205.6,169c1.1-0.2,2.1,0.5,2.3,1.5s-0.5,2-1.6,2.2h-0.1
	c-1,0.3-2.1-0.4-2.2-1.4C203.7,170.2,204.4,169.3,205.6,169C205.5,169,205.6,169,205.6,169"/>
<path class="st30" d="M204,161.5l-16.1,2.4l-0.4-2c0-0.3,0.1-0.5,0.4-0.5l15-2.2c0.3,0,0.5,0.1,0.5,0.4l0.4,2L204,161.5L204,161.5z"
	/>
<path class="st14" d="M188.6,154.3c-1.1,0.2-1.9,1.3-1.9,2.4v0.3c0.2,1.1,1.3,1.8,2.5,1.8l11.9-1.8c1.1-0.2,1.9-1.3,1.9-2.4v-0.3
	c-0.2-1.1-1.3-1.8-2.5-1.8C200.4,152.5,188.6,154.3,188.6,154.3z M201.2,157.8l-11.9,1.8c-1.5,0.2-3.1-0.8-3.3-2.3V157
	c-0.2-1.5,0.8-2.9,2.5-3.2l11.9-1.8c1.5-0.2,3.1,0.8,3.3,2.3v0.3C203.9,156.1,202.8,157.5,201.2,157.8z M189.5,155.5
	c-0.6,0.1-1,0.6-0.9,1.2c0.1,0.6,0.7,1,1.2,0.8c0.6-0.1,1-0.6,0.9-1.2C190.6,155.8,190.1,155.3,189.5,155.5 M189.9,158.2
	c-0.9,0.2-2-0.5-2.2-1.5c-0.2-0.9,0.5-1.9,1.6-2.1c1.1-0.2,2,0.5,2.2,1.5C191.6,157.1,190.9,158.1,189.9,158.2 M199.9,153.9
	c-0.6,0.1-1,0.6-0.9,1.2c0.1,0.6,0.7,1,1.2,0.8c0.6-0.1,1-0.6,0.9-1.2C200.9,154.2,200.4,153.8,199.9,153.9 M200.3,156.6
	c-0.9,0.2-2-0.5-2.2-1.5c-0.2-0.9,0.5-1.9,1.6-2.1c0.9-0.2,2,0.5,2.2,1.5C201.8,155.6,201.2,156.6,200.3,156.6 M197.8,156.6
	l-0.4-2.7h-0.1v-0.1h-0.4c-0.2,0-0.3,0.1-0.5,0.1l-4.1,0.6l0,0h-0.4l0.4,2.7h0.4l0,0l4.7-0.7l0,0L197.8,156.6L197.8,156.6
	L197.8,156.6L197.8,156.6z M192.6,155.4L192.6,155.4c0.3,0.1,0.3,0.3,0.3,0.5s-0.1,0.5-0.2,0.6v-0.1L192.6,155.4z M193.6,155.2
	l2.2-0.4c-0.1,0.2-0.1,0.5,0,0.6c0,0.3,0.1,0.4,0.2,0.6l-2.1,0.4c0.1-0.2,0.1-0.4,0.1-0.6C193.9,155.7,193.8,155.4,193.6,155.2z
	 M196.9,156c-0.2-0.1-0.3-0.3-0.3-0.5s0.1-0.5,0.2-0.6L196.9,156z M204.3,161.9L204.3,161.9h0.1l0,0H204.3z M257.2,176.1
	l-108.9,16.4c-0.2,0-0.3,0-0.5,0c-1.2,0.1-2.5-0.2-3.7-0.9c-1.3-0.9-2.7-1.8-3.5-2.5c-1.5-0.8-2.6-2.3-2.9-4l0,0l-5.2-32.4
	c-0.5-3.1,1.7-6,5-6.5h0.1l25-3.8l-1.9-11.5l58.7-8.9l1.8,11.5l1.2-0.2l-1.5-9.2l-1.4-1.1l-0.2-1.1l2.3,1.9v0.3l0,0l1.5,9.1
	l23.1-3.5c1.5-0.2,3,0.1,4.1,0.9c0-0.1,0.2,0.1,0.2,0.1s2.1,1.3,3.5,2.4c1.4,1.1,2.3,2.1,2.6,3.9l5.2,32.5
	C262.6,172.7,260.4,175.6,257.2,176.1z M219.8,127.8l-55.2,8.3l0.9,5.8l55.2-8.3L219.8,127.8z M219.5,126.3l-57.1,8.7l0.2,0.8
	l57.1-8.7L219.5,126.3z M163.8,136.2l-1.1,0.2l0.9,5.8l1.1-0.2L163.8,136.2z M196.5,126.3l0.4,2.7l22.4-3.4l-0.2-1.3l0,0
	c-0.1-0.6-0.2-1.4-0.2-1.4L196.5,126.3z M192.7,126.9l0.4,2.7l3.1-0.4l-0.4-2.7L192.7,126.9z M188.8,127.5l0.4,2.6l0,0l3.1-0.4
	l-0.4-2.7L188.8,127.5z M184.9,128.1l0.4,2.7l3.1-0.4l-0.4-2.7L184.9,128.1z M161.9,131.6l0.4,2.7l22.2-3.4l-0.4-2.7L161.9,131.6z
	 M144.4,189.1l108.9-16.4c2.8-0.4,4.7-3,4.3-5.6l-5.2-32.6c-0.4-2.7-3.1-4.5-5.9-4.1l-54.4,8.3l-29.3,4.5l0,0l-25,3.7
	c-2.8,0.4-4.7,3-4.3,5.6l5.1,32.5C139,187.8,141.7,189.5,144.4,189.1z M261.2,169.6l-5.2-32.5c-0.2-1.4-0.8-2.2-2.3-3.3
	c-0.2-0.2-0.5-0.4-0.8-0.6c0.1,0.4,0.3,0.8,0.3,1.2v0.1l5.2,32.5c0.5,3.1-1.7,6-5,6.5h-0.1l-108.8,16.3c-0.4,0-0.9,0.1-1.2,0.1
	c0.5,0.3,0.9,0.7,1.4,1c1,0.7,2.2,0.8,3.4,0.6L257,175.2C259.7,174.8,261.6,172.3,261.2,169.6z M145.9,167.2
	c-1.2-7.3,4.2-14.3,11.8-15.4c7.7-1.2,14.9,3.8,16,11.1c1.2,7.3-4.2,14.3-11.8,15.4S147,174.4,145.9,167.2z M155.1,168.2
	c-0.2-0.3-0.3-0.5-0.4-0.8l-7.4,1.9c0.6,1.6,1.5,3,2.7,4.3L155.1,168.2z M158.7,170.4c-0.3-0.1-0.6-0.1-0.9-0.2l-3.8,6.3
	c1.5,0.7,3.2,1.1,5,1.2L158.7,170.4z M168.7,174.4l-5.5-4.9c-0.3,0.2-0.6,0.4-0.9,0.5l1.9,7C165.8,176.4,167.4,175.6,168.7,174.4z
	 M173.1,165.5l-7.6,0.3c-0.1,0.4-0.1,0.8-0.3,1l6.6,3.6C172.6,168.9,173,167.3,173.1,165.5z M164.4,161.8c0.2,0.3,0.3,0.5,0.6,0.8
	l7.4-1.9c-0.6-1.6-1.5-3-2.7-4.2L164.4,161.8z M160.6,159.7c0.4,0.1,0.7,0.1,1,0.2l3.8-6.4c-1.6-0.7-3.4-1.1-5.1-1.1L160.6,159.7z
	 M155.1,165.8c0.4,2.5,2.9,4.2,5.6,3.8c2.6-0.4,4.4-2.8,4-5.3s-2.9-4.2-5.6-3.8S154.7,163.3,155.1,165.8z M150.8,155.8l5.6,5
	c0.3-0.2,0.5-0.3,0.7-0.4l-2-7.2C153.6,153.8,152.1,154.6,150.8,155.8z M146.6,164.4l7.7-0.4c0.1-0.3,0.1-0.6,0.2-0.8l-6.8-3.6
	C147.1,161.3,146.7,162.9,146.6,164.4z M144.8,179.9l-3.8-24.3c-0.4-2.2,1.3-4.4,3.6-4.8l25.7-3.9c2.3-0.4,4.6,1.2,4.9,3.4l3.8,24.4
	c0.4,2.2-1.3,4.4-3.6,4.8l-25.7,3.9C147.3,183.7,145.1,182.2,144.8,179.9C144.8,180,144.8,179.9,144.8,179.9z M141.6,155.5l3.8,24.4
	c0.2,1.8,2.1,3.1,4,2.8l0,0l25.7-3.9c1.9-0.2,3.2-2,3-3.9l-3.8-24.4c-0.2-1.8-2.1-3.1-4-2.8l0,0l-25.7,3.9
	C142.7,152,141.4,153.6,141.6,155.5z M217.1,156.5c-1.2-7.3,4.2-14.3,11.8-15.4s14.9,3.8,16.1,11.2c1.2,7.3-4.2,14.3-11.8,15.4
	C225.5,168.8,218.3,163.7,217.1,156.5z M226.6,157.6c-0.2-0.3-0.4-0.5-0.6-0.9l-7.4,2c0.6,1.6,1.5,3.1,2.8,4.3L226.6,157.6z
	 M230.2,159.6c-0.3-0.1-0.6-0.1-0.9-0.2l-3.8,6.4c1.5,0.7,3.3,1,5,1.1L230.2,159.6z M239.9,163.7l-5.5-4.9c-0.3,0.2-0.6,0.3-0.8,0.4
	l1.9,7C237.2,165.7,238.7,164.7,239.9,163.7z M244.4,154.9l-7.6,0.3c-0.1,0.4-0.1,0.7-0.3,0.9l6.6,3.5
	C243.9,158.2,244.3,156.6,244.4,154.9z M235.7,151.1c0.2,0.3,0.3,0.5,0.6,0.8l7.3-1.9c-0.6-1.6-1.5-3-2.6-4.2L235.7,151.1z
	 M232.1,148.9c0.3,0.1,0.7,0.1,1,0.2l3.8-6.4c-1.6-0.7-3.3-1.1-5-1.2L232.1,148.9z M226.3,155.1L226.3,155.1
	c0.4,2.5,2.9,4.2,5.6,3.8c2.6-0.4,4.4-2.8,4-5.3s-2.9-4.2-5.6-3.8C227.8,150.1,225.8,152.5,226.3,155.1z M222.1,145l5.6,5
	c0.3-0.2,0.6-0.3,0.8-0.5l-2-7.1C225,142.9,223.5,143.9,222.1,145z M217.8,153.8l7.7-0.4c0.1-0.3,0.1-0.7,0.2-0.9l-6.7-3.6
	C218.4,150.4,218,152.1,217.8,153.8z M209.3,170.1l0.1,0.6c0.2,0.8-0.4,1.6-1.2,1.7l-0.8,0.1c-0.3,0.3-0.7,0.5-1.2,0.6
	c-0.5,0-0.9,0-1.3-0.2l-2.7,0.4c-0.3,0.3-0.7,0.5-1.2,0.6l0,0c-0.5,0-0.9,0-1.3-0.2l-12.6,1.9c-0.9,0.2-1.7-0.4-1.8-1.2l-0.1-0.6
	c-0.2-0.8,0.4-1.6,1.3-1.7l0,0l12.7-1.9c0.4-0.3,0.7-0.5,1.1-0.6c0.5,0,0.9,0,1.3,0.2l2.7-0.4c0.4-0.3,0.7-0.5,1.1-0.6
	s0.9,0,1.3,0.2l0.8-0.1C208.4,168.7,209.2,169.3,209.3,170.1z M199,173c-0.2-0.3-0.4-0.6-0.5-1s0-0.7,0.1-1l-12,1.8l0,0
	c-0.4,0-0.7,0.5-0.7,0.9l0.1,0.6c0,0.4,0.5,0.7,0.9,0.7L199,173z M202.3,171.5C202.3,171.4,202.3,171.4,202.3,171.5
	c-0.2-0.8-0.9-1.4-1.8-1.2l0,0c-0.9,0.2-1.5,0.9-1.3,1.7s0.9,1.4,1.8,1.2C201.8,173,202.4,172.2,202.3,171.5z M204.1,172.2
	c-0.2-0.3-0.4-0.6-0.5-1s0-0.7,0.1-1l-1.2,0.2c0.2,0.3,0.4,0.6,0.5,1s0,0.7-0.1,1L204.1,172.2z M207.4,170.7L207.4,170.7
	c-0.2-0.8-0.9-1.4-1.8-1.2l0,0c-0.9,0.2-1.5,0.9-1.3,1.7s0.9,1.4,1.8,1.2C206.9,172.2,207.5,171.5,207.4,170.7z M208.6,170.8
	l-0.1-0.6c0-0.4-0.5-0.7-0.9-0.7l0,0c0.2,0.3,0.4,0.6,0.5,1s0,0.7-0.1,1l0,0C208.4,171.6,208.6,171.2,208.6,170.8z M206.2,150.1
	l1.5,9.5c0.3,0.9-0.4,1.8-1.4,1.9l-2.1,0.4l0,0l-16.7,2.5l0,0l-1.7,0.2c-0.9,0.2-1.9-0.5-2-1.4l-1.6-9.5c-0.2-0.9,0.5-1.8,1.5-1.9
	l20.5-3.1C205.2,148.5,206.2,149.2,206.2,150.1z M184.2,153.3L184.2,153.3c-0.1,0-0.1,0-0.1,0.1l1.5,9.4c0,0.1,0,0.1,0.1,0.1
	l1.5-0.2L187,162c0-0.5,0.2-0.9,0.7-1l0,0l15-2.2c0.5,0,0.9,0.2,1,0.7l0.2,0.7l2-0.3c0.1,0,0.1,0,0.1-0.1l-1.5-9.4
	c0-0.1,0-0.1-0.1-0.1L184.2,153.3z M188.1,163.5L188.1,163.5l15.4-2.3l-0.2-1.7c0-0.1-0.1-0.2-0.2-0.2l-15,2.2
	c-0.1,0-0.2,0.1-0.2,0.2L188.1,163.5z M205.6,150.2c-0.1-0.6-0.7-1-1.2-0.8l-20.5,3.1c-0.6,0.1-1,0.6-0.9,1.2l1.5,9.5
	c0.1,0.6,0.7,1,1.2,0.8l1.7-0.2v-0.4l-1.5,0.2c-0.5,0-0.9-0.2-1-0.7l0,0l-1.4-9.3c0-0.5,0.2-0.9,0.7-1l0,0l20.3-3.1
	C205,149.5,205.4,149.7,205.6,150.2l1.5,9.4c-0.1,0.4-0.3,0.8-0.8,0.9l-2,0.4v0.4l2-0.3c0.6-0.1,1-0.6,0.9-1.2L205.6,150.2z
	 M208.4,163.8l0.4,2.6c0.1,0.6-0.4,1.2-1.1,1.3l-3.1,0.5c-0.4,0-0.7,0-1-0.2c-0.2,0.2-0.4,0.4-0.8,0.4l-3,0.4c-0.3,0-0.6,0-0.9-0.2
	c-0.2,0.2-0.5,0.3-0.8,0.3l-3,0.4c-0.3,0-0.6,0-0.9-0.2c-0.2,0.2-0.4,0.4-0.7,0.4l-3,0.4c-0.3,0-0.7,0-0.9-0.2
	c-0.2,0.2-0.4,0.4-0.7,0.4l-3,0.4c-0.7,0-1.4-0.4-1.4-0.9l-0.4-2.5c-0.1-0.6,0.4-1.2,1.1-1.3l3-0.4c0.3,0,0.7,0,0.9,0.2
	c0.2-0.2,0.4-0.4,0.7-0.4l3-0.4c0.3,0,0.7,0,0.9,0.2c0.2-0.2,0.4-0.4,0.7-0.4l3-0.4c0.3,0,0.7,0,0.9,0.2c0.2-0.2,0.4-0.3,0.6-0.3
	l3-0.4c0.4,0,0.7,0,1,0.2c0.2-0.2,0.4-0.4,0.8-0.4l3-0.4C207.7,162.8,208.3,163.1,208.4,163.8z M189.4,169.2L189.4,169.2l-0.4-2.6
	c0-0.2-0.2-0.3-0.4-0.2l-3,0.4c-0.2,0-0.4,0.1-0.4,0.3l0.4,2.6c0,0.2,0.2,0.3,0.4,0.2l3-0.4C189.2,169.5,189.4,169.4,189.4,169.2z
	 M194,168.5l-0.4-2.6c0-0.2-0.2-0.3-0.4-0.2l-3,0.4c-0.2,0-0.4,0.1-0.4,0.3l0,0l0.4,2.6c0,0.2,0.2,0.3,0.4,0.2l3-0.4
	C193.8,168.9,194,168.7,194,168.5z M198.7,167.9l-0.4-2.6c0-0.2-0.2-0.3-0.4-0.2l-3.1,0.4l0,0c-0.2,0-0.4,0.1-0.4,0.3l0.4,2.6
	c0,0.2,0.2,0.3,0.4,0.2l3-0.4C198.5,168.2,198.7,168.1,198.7,167.9z M203.2,167.2l-0.4-2.6c0-0.2-0.2-0.3-0.4-0.2l-3,0.4l0,0
	c-0.2,0-0.4,0.1-0.4,0.3l0.4,2.6c0,0.2,0.2,0.3,0.4,0.2l3-0.4C203,167.5,203.2,167.4,203.2,167.2z M208,166.5l-0.4-2.6
	c0-0.2-0.2-0.3-0.4-0.2l-3,0.4l0,0c-0.2,0-0.4,0.1-0.4,0.3l0.4,2.6c0,0.2,0.2,0.3,0.4,0.2l3-0.4C207.8,166.8,208,166.7,208,166.5z
	 M187.6,173.2c-0.3,0-0.5,0.3-0.4,0.5c0,0.3,0.3,0.4,0.5,0.4s0.5-0.3,0.4-0.5S187.9,173.1,187.6,173.2z M181.5,149
	c-0.2-0.9,0.5-1.8,1.5-1.9l20.5-3.1c0.9-0.2,1.9,0.5,2,1.4c0.2,0.9-0.4,1.8-1.4,1.9l-20.6,3.1C182.6,150.5,181.7,149.9,181.5,149z
	 M185.4,147.4c0.3,0.1,0.6,0.3,0.7,0.6l18.1-2.7l0.2,0.7l-18.1,2.7c-0.1,0.3-0.2,0.6-0.5,0.8l18.2-2.7c0.6-0.1,1-0.6,0.9-1.2
	c-0.1-0.6-0.7-1-1.2-0.8L185.4,147.4z M184.7,148.5c0,0.3,0.2,0.4,0.5,0.4s0.5-0.2,0.4-0.5c0-0.3-0.2-0.4-0.5-0.4
	C184.7,148,184.6,148.3,184.7,148.5z M182.2,148.8c0.1,0.6,0.7,1,1.2,0.8l1.3-0.2c-0.3-0.1-0.6-0.3-0.7-0.6l-1,0.2l-0.2-0.7l1.1-0.2
	c0.1-0.3,0.2-0.6,0.5-0.8l-1.4,0.2C182.6,147.8,182.1,148.3,182.2,148.8z M197.2,171.8l-7.9,1.2c-0.2,0-0.4,0.2-0.4,0.4v0.1
	c0,0.2,0.2,0.4,0.4,0.3l7.9-1.2l0,0c0.2,0,0.4-0.2,0.4-0.4v-0.1C197.6,172,197.4,171.8,197.2,171.8z M216.1,169.2l-3.8-24.4
	c-0.4-2.2,1.3-4.4,3.6-4.8l25.7-3.9c2.3-0.4,4.6,1.2,4.9,3.4l3.8,24.4c0.4,2.2-1.3,4.4-3.6,4.8l-25.7,3.9
	C218.6,172.9,216.3,171.4,216.1,169.2L216.1,169.2z M212.9,144.7l3.8,24.4c0.2,1.8,2.1,3.1,4,2.8l0,0l25.7-3.9c1.9-0.2,3.2-2,3-3.9
	l-3.8-24.4c-0.2-1.8-2.1-3.1-4-2.8l0,0l-25.7,3.9C213.9,141.2,212.6,142.9,212.9,144.7z M183,174.1l-3.8-24.4
	c-0.4-2.2,1.3-4.4,3.6-4.8l20.3-3.1c2.3-0.4,4.6,1.2,4.9,3.4l3.8,24.5c0.4,2.2-1.3,4.4-3.6,4.8l-20.3,3.1
	C185.5,177.9,183.4,176.5,183,174.1L183,174.1z M179.9,149.8l3.8,24.4c0.2,1.8,2.1,3.1,4,2.8l0,0l20.3-3.1c1.9-0.2,3.2-2,3-3.9
	l-3.8-24.4c-0.2-1.8-2.1-3.1-4-2.8l0,0l-20.3,3.1l0,0C181,146.2,179.7,147.9,179.9,149.8z"/>
<path class="st31" d="M195.7,162.4l-8.7,1.3l4-12.3l8.7-1.3L195.7,162.4z"/>
<path class="st32" d="M199,161.8l-2.2,0.4l4-12.3l2.3-0.4L199,161.8z"/>
<path class="st4" d="M14.4,181.7l36.4-26.6L13.1,180L14.4,181.7z M0.3,47.8l55.6,25.8L1.5,45.2L0.3,47.8z M71.3,80L18.5,47.4
	L17.2,50L71.3,80z M262.6,0l-51.8,59.1l52.8-58.2L262.6,0z M212.4,58.2l34.3-32.1l-1.3-1.3L212.4,58.2z"/>
<path class="st33" d="M90.9,96.5c-1.2,5.7-10.8,8.5-21.4,6.3S51.2,94,52.4,88.4c1.2-5.7,10.8-8.5,21.4-6.3S92.1,90.9,90.9,96.5"/>
<path class="st34" d="M66.2,82.8l3.2,4.7L67,87.8l-9.5-3C59.8,83.6,62.8,82.9,66.2,82.8z M78.9,94.3l-1.7,1.2l3.3,7.9l3.6-0.9
	l4.8-2.6l1.8-2.9C90.7,97,78.9,94.3,78.9,94.3z"/>
<path class="st35" d="M69.5,102.8c-10.3-2.2-17.7-8.3-17.1-13.9c1.4,4.8,8.1,9.5,16.9,11.4c10.6,2.2,20.2-0.5,21.4-6.3
	c0-0.2,0-0.4,0.1-0.6c0.3,1,0.3,2,0.1,3C89.7,102.3,80.1,105.1,69.5,102.8"/>
<path class="st36" d="M90.6,93.1c-2.4-4.1-8.5-7.9-16.1-9.6c-10.6-2.2-20.2,0.5-21.4,6.3c-0.2,1.2-0.2,2.3,0.3,3.4
	c-0.9-1.6-1.3-3.3-0.9-4.8c1.2-5.7,10.8-8.5,21.4-6.3C82.4,83.9,89,88.4,90.6,93.1"/>
<path class="st37" d="M79.2,93.6c-0.5,2.3-4.3,3.4-8.5,2.5c-4.2-0.9-7.2-3.5-6.8-5.7c0.5-2.3,4.3-3.4,8.5-2.5
	C76.7,88.8,79.7,91.3,79.2,93.6"/>
<path class="st14" d="M77.3,90.6c1.1,0.9,1.7,2,1.5,2.9c-0.2,0.9-1.1,1.7-2.5,2c-1.5,0.4-3.4,0.4-5.4,0.1c-1.9-0.4-3.7-1.2-4.9-2.2
	c-1.1-0.9-1.7-2-1.5-2.9c0.2-0.9,1.1-1.7,2.5-2c1.5-0.4,3.4-0.4,5.4-0.1c1,0.2,2,0.6,3,1C76,89.7,76.6,90.1,77.3,90.6 M70.5,96.6
	c2.2,0.5,4.3,0.4,5.9-0.1c1.8-0.5,2.9-1.5,3.2-2.8c0.3-1.3-0.4-2.7-1.8-3.9c-1.4-1.2-3.2-2-5.4-2.5c-2.2-0.5-4.3-0.4-5.9,0.1
	c-1.8,0.5-2.9,1.5-3.2,2.8c-0.3,1.3,0.4,2.7,1.8,3.9c0.6,0.5,1.4,1,2.2,1.4C68.4,96,69.5,96.4,70.5,96.6 M73.9,92.5
	c-0.1,0.7-1.3,1-2.5,0.8c-1.2-0.3-2.2-1-2-1.7c0.1-0.7,1.3-1,2.5-0.8C73.1,91,74,91.8,73.9,92.5 M86.4,88.5c3,2.5,4.4,5.4,3.8,7.9
	c-0.5,2.5-3,4.5-6.7,5.7c-3.9,1.1-8.9,1.2-13.9,0.1c-5-1.1-9.5-3.1-12.7-5.8c-3-2.5-4.4-5.4-3.8-7.9c0.5-2.6,2.9-4.6,6.8-5.7
	c3.9-1.1,8.9-1.2,13.9-0.1c2.7,0.5,5.3,1.5,7.6,2.6C83.3,86.2,85,87.3,86.4,88.5 M83.9,103.3c4.3-1.2,7-3.6,7.6-6.6
	c0.6-3-0.9-6.3-4.3-9.2c-3.3-2.8-7.9-4.9-13.2-6.1s-10.4-1.1-14.5,0.1c-4.3,1.2-7,3.6-7.6,6.6c-0.6,3,0.9,6.3,4.3,9.1
	c1.5,1.3,3.3,2.5,5.3,3.4c2.4,1.2,5,2.1,7.9,2.7C74.6,104.6,79.7,104.5,83.9,103.3z"/>
</svg>
