<?xml version="1.0" encoding="utf-8"?>
<!-- Generator: Adobe Illustrator 26.5.0, SVG Export Plug-In . SVG Version: 6.00 Build 0)  -->
<svg version="1.1" id="圖層_1" xmlns="http://www.w3.org/2000/svg" xmlns:xlink="http://www.w3.org/1999/xlink" x="0px" y="0px"
	 width="102px" height="78px" viewBox="0 0 102 78" style="enable-background:new 0 0 102 78;" xml:space="preserve">
<linearGradient id="Path_00000085226845027321509640000005174631657234753973_" gradientUnits="userSpaceOnUse" x1="-34.9764" y1="131.8022" x2="-35.1858" y2="132.4314" gradientTransform="matrix(-20.593 0 0 -19.5505 -631.8347 2637.3186)">
	<stop  offset="0" style="stop-color:#32885D"/>
	<stop  offset="1" style="stop-color:#F1D33C"/>
</linearGradient>
<path id="Path_00000128463494500177411660000002337090836546564264_" style="fill:url(#Path_00000085226845027321509640000005174631657234753973_);" d="
	M93.02,64.25c2.88,0,5.4-1.89,6.27-4.7l1.28-4.09c1.1-3.54-0.81-7.34-4.28-8.47l-6.18-2.02c-0.65-0.21-1.33-0.32-2-0.32
	c-2.88,0-5.4,1.89-6.27,4.7l-1.28,4.09c-1.1,3.54,0.81,7.34,4.28,8.47l6.18,2.02C91.66,64.14,92.34,64.25,93.02,64.25L93.02,64.25z"
	/>
<path style="fill:#6F97B7;" d="M89.42,41.49l-7.88-2.44c-0.55-2.39-1.75-4.01-3.55-4.6c-9.83-3.2-15.07-9.04-22.32-17.11
	c-2.25-2.51-4.8-5.35-7.72-8.35l-0.79-0.82l-0.62,2.01c0.23,0.02,0.47,0.05,0.69,0.13c4.82,1.54,4.85,14.93,0.07,29.91
	C42.5,55.21,34.73,66.11,29.91,64.57c-0.09-0.03-0.18-0.07-0.27-0.11l-0.21,0.69l1.07-0.15h-0.01c5.13-0.72,9.6-1.59,13.54-2.37
	c5.79-1.14,10.79-2.12,15.58-2.12c3.45,0,6.56,0.49,9.8,1.54c0.46,0.15,0.93,0.22,1.4,0.22c0.98,0,1.94-0.34,2.87-0.94l0.69,0.21
	l-2.11,11.46c-0.33,1.8,0.76,3.57,2.54,4.12c0.37,0.11,0.75,0.18,1.14,0.18l0.01,0.01c1.63,0,3.06-1.02,3.56-2.55l3.47-10.63
	c0.47,0.09,0.95,0.15,1.44,0.15h0.01c3.42,0,6.41-2.12,7.45-5.28l2.63-8C95.8,47.03,93.52,42.75,89.42,41.49z"/>
<path style="fill:#FFFFFF;" d="M99.31,55.22l-0.16,0.48c-0.2-2.2-1.73-4.18-4.03-4.9l-0.52-0.16c0.25-0.93,0.32-1.86,0.22-2.77
	l0.72,0.22C98.59,49.05,100.28,52.24,99.31,55.22z M87.82,43.73l-5.97-1.91c0.03,1.13-0.05,2.37-0.23,3.69l5.51,1.76
	c2.81,0.9,4.63,3.44,4.74,6.23l0.38-1.19C93.39,48.72,91.41,44.88,87.82,43.73z M77,41.54c3.29,1.02,3.1,5.38,2.28,10.4
	c1.63-6.04,2.25-12.03-1.65-13.24c-13.5-4.22-18.96-11.42-31.53-23.83l-0.62,2.84C58.05,30.12,63.5,37.33,77,41.54L77,41.54z"/>
<ellipse id="Oval" transform="matrix(0.3037 -0.9528 0.9528 0.3037 -8.8242 62.8057)" style="fill:#475B69;" cx="38.56" cy="37.44" rx="28.48" ry="9.15"/>
<path id="Path-2" style="fill-rule:evenodd;clip-rule:evenodd;fill:#334551;" d="M49.33,15c-10.4,11.74-15.6,27.26-15.6,46.57
	C45.79,49.81,50.99,34.29,49.33,15z"/>
<path id="Path_00000072263678773106850300000002309916864089192607_" style="fill:#DC6D5F;" d="M47.1,40.49
	c-1.02,3.38-2.17,6.57-3.41,9.46l-8.23-2.78l5.8-19.26l8.23,2.78C48.91,33.8,48.12,37.1,47.1,40.49L47.1,40.49z"/>
<path id="Path_00000027583212052955010170000012785995780931836303_" style="opacity:0.5;fill:#F7AF23;enable-background:new    ;" d="
	M41.07,27.91l0.63,0.22l-3.96,13.61l7.74,2.7c-0.65,1.93-1.34,3.77-2.06,5.5l-7.96-2.78L41.07,27.91L41.07,27.91z"/>
<path id="Path_00000132789690231716371940000006542751861393489341_" style="fill:#C64F46;" d="M34.76,36.45
	c-1.75,5.23-1.74,9.9,0.03,10.44c1.77,0.53,4.62-3.27,6.38-8.5s1.74-9.9-0.03-10.44C39.36,27.42,36.51,31.22,34.76,36.45z"/>
<path id="Shape_00000125569088045039281960000015385416317179240363_" style="fill:#E8CA5D;" d="M30.77,68.29
	c6.82,0,15.43-11.54,20.5-27.44c5.55-17.45,4.5-32.83-2.41-35.05c-0.54-0.17-1.12-0.26-1.71-0.26c-6.82,0-15.43,11.54-20.5,27.44
	c-5.55,17.45-4.5,32.83,2.41,35.05C29.61,68.2,30.19,68.29,30.77,68.29L30.77,68.29z M46.16,10.26c0.25,0,0.5,0.03,0.73,0.11
	c3.88,1.24,4.65,13.17-0.37,28.96c-4.77,14.99-11.72,23.94-15.7,23.94c-0.25,0-0.5-0.03-0.73-0.11c-3.88-1.24-4.65-13.17,0.37-28.96
	C35.24,19.22,42.19,10.26,46.16,10.26z"/>
<path style="fill:#FFCB00;" d="M28,33.46C32.77,18.41,40.56,7.47,45.38,9.01c1.06,0.34,1.89,1.26,2.49,2.65
	c-0.42-0.46-0.9-0.79-1.44-0.96c-4.82-1.54-12.6,9.4-17.38,24.45c-3.73,11.72-4.53,22.47-2.42,27.38
	C23.3,58.89,23.75,46.81,28,33.46L28,33.46z M27.46,67.06c6.47,2.07,16.08-9.98,21.46-26.92c4.11-12.92,4.56-24.95,1.68-30.86
	c4,4.99,3.93,18.22-0.63,32.54c-5.38,16.94-14.99,28.99-21.46,26.92c-1.53-0.49-2.75-1.73-3.65-3.56
	C25.59,66.11,26.46,66.75,27.46,67.06L27.46,67.06z"/>
<path style="opacity:0.1;enable-background:new    ;" d="M43.65,57.07c10.6-2.13,18.09-3.84,27.1-0.82
	c4.5,1.51,8.97-5.85,10.79-13.31c-0.32,8.74-5.96,20.93-11.62,19.03C60.05,58.64,52,61.01,39.67,63.4
	C42.03,60.82,42.47,59.97,43.65,57.07z M91.59,59.67c-0.49,1.12-1.23,2.07-2.15,2.83l0.68,0.22c2.89,0.91,5.97-0.68,6.89-3.56
	l0.57-1.78C96.32,59.32,93.91,60.28,91.59,59.67z M83.78,60.67l-7.12-2.26c-0.85,1.14-1.76,2.08-2.72,2.75l7.81,2.47
	c3.66,1.16,7.55-0.79,8.81-4.36C88.76,60.83,86.21,61.44,83.78,60.67z"/>
<path style="fill-rule:evenodd;clip-rule:evenodd;fill:#F9D128;" d="M18.14,6.76L14.68,13L5.41,1.07l-3.6,6.49l13.54,13.79
	l3.47-6.25L30.39,25.5L18.14,6.76z M13.85,34.15l-0.61,5.46L3.12,39.89l15.66,4l0.61-5.46l10.13-0.28L13.85,34.15z"/>
<path style="fill-rule:evenodd;clip-rule:evenodd;fill:#F4AC2C;" d="M5.5,1.05L4.64,2.6L15.1,15.69l3.24-5.85L29.1,23.7l0.16-0.29
	c0.04-0.06-11-16.64-11-16.64l-3.42,6.17L5.5,1.05z M3.14,40l11.16,0.61l0.49-5.02l13.38,2.22l-14.31-3.65l-0.61,5.46L3.14,40z"/>
<path style="fill:#231815;" d="M96.51,46.3l-1.48-0.48c-0.12-0.31-0.25-0.61-0.41-0.91c-1.04-1.96-2.82-3.41-4.98-4.08l-7.51-2.32
	c-0.63-2.44-1.97-4.08-3.94-4.73c-9.66-3.15-14.85-8.93-22.03-16.92c-0.29-0.33-0.61-0.67-0.91-1.01c-0.7-5.87-2.85-9.64-6.17-10.7
	c-0.61-0.2-1.26-0.3-1.92-0.3c-5.59,0-12.29,7.28-17.4,18.27L18.13,5.6l-3.49,6.3L5.3,0L1.18,7.44L15.8,22.22l3.46-6.25l9.78,8.72
	c-1.11,2.53-2.13,5.23-3.04,8.08c-0.4,1.27-0.76,2.53-1.1,3.79l-11.51-2.94l-0.62,5.63L0.41,39.6l18.81,4.8l0.62-5.63l4.53-0.13
	c-1.5,6.23-2.17,12.2-1.88,17.25c0.41,7.07,2.66,11.61,6.35,12.78c0.61,0.2,1.26,0.3,1.92,0.3c2.72,0,5.71-1.73,8.65-4.77
	c1.66-0.31,3.25-0.62,4.74-0.91c5.76-1.13,10.73-2.11,15.45-2.11c3.38,0,6.43,0.48,9.59,1.51c0.52,0.17,1.06,0.26,1.6,0.26
	c0.93,0,1.86-0.26,2.76-0.75l-1.97,10.7c-0.39,2.13,0.9,4.22,3.01,4.88c0.43,0.13,0.89,0.2,1.34,0.2c1.94,0,3.63-1.21,4.22-3.01
	l3.29-10.09c0.32,0.04,0.64,0.07,0.96,0.07c1.51,0,2.93-0.39,4.17-1.07l2.2,0.72c0.72,0.23,1.47,0.35,2.22,0.35
	c3.18,0,5.98-2.1,6.94-5.2l1.28-4.09C102.47,51.76,100.34,47.55,96.51,46.3z M18.74,14.13l-3.39,6.12L2.7,7.49L5.69,2.1L15.03,14
	l3.35-6.05l9.51,14.4L18.74,14.13z M27.32,33.2c0.84-2.64,1.79-5.16,2.81-7.53l2.04,1.82c-0.84,2.05-1.63,4.23-2.36,6.5
	c-0.38,1.2-0.73,2.39-1.05,3.57l-2.53-0.65C26.56,35.68,26.92,34.45,27.32,33.2z M33.28,28.43c4.38-10.92,9.77-17.47,12.88-17.47
	c0.19,0,0.36,0.02,0.52,0.08c2.39,0.76,3.64,7.68,1.69,18.21l-7.78-2.63l-0.1,0.32c-1.46,0.19-3.04,1.73-4.42,4.1l-0.28,0.49
	c-0.28,0.5-0.54,1.03-0.8,1.59l-0.25,0.57c-0.04,0.1-0.08,0.19-0.12,0.29l-0.24,0.59c-0.08,0.2-0.16,0.4-0.23,0.61l-0.22,0.62
	l-0.11,0.32c-0.18,0.53-0.34,1.06-0.49,1.58l-0.17,0.62c-1.18,4.63-0.94,8.49,1.08,9.41l-0.02,0.06l7.22,2.44
	c-3.85,7.81-8.02,12.34-10.6,12.34v0.01c-0.19,0-0.36-0.02-0.52-0.08c-1.63-0.52-2.65-3.81-2.66-8.58c-0.01-4.43,0.8-9.81,2.3-15.44
	l2.26-0.06l-2.1-0.54c0.32-1.15,0.65-2.31,1.02-3.48c0.67-2.11,1.39-4.09,2.14-5.95l0.11,0.09L33.28,28.43z M39.85,43.8l0.28-0.49
	c0.28-0.5,0.54-1.03,0.8-1.59l0.25-0.57c0.04-0.1,0.08-0.19,0.12-0.29l0.24-0.59c0.08-0.2,0.16-0.4,0.23-0.61L42,39.03l0.11-0.32
	c0.18-0.53,0.34-1.06,0.49-1.58l0.17-0.62c0.69-2.68,0.89-5.11,0.55-6.85l4.65,1.57c-0.53,2.47-1.22,5.11-2.11,7.89
	c-1.09,3.43-2.3,6.53-3.56,9.29l-4.79-1.62C38.32,46.08,39.11,45.07,39.85,43.8z M37.18,44.2c-0.96,1.28-1.78,1.83-2.1,1.73
	c-0.3-0.09-0.62-0.96-0.63-2.51c-0.01-1.83,0.43-4.21,1.25-6.66c0.82-2.45,1.91-4.64,3.03-6.13c0.96-1.28,1.78-1.83,2.1-1.73
	c0.3,0.09,0.62,0.96,0.63,2.51c0.01,1.83-0.43,4.21-1.25,6.66C39.39,40.52,38.3,42.71,37.18,44.2z M18.9,38.09l-0.59,5.28
	l-12.5-3.19l7.9-0.22l0.59-5.28l12.5,3.19L18.9,38.09z M30.77,67.6c-0.52,0-1.02-0.08-1.5-0.23c-5.74-1.84-7.05-14.19-3.48-28.76
	l2.7-0.08c-3.38,13.01-2.91,23.91,1.39,25.28c0.3,0.1,0.62,0.14,0.94,0.14c4.82,0,11.89-10.43,16.35-24.42
	c4.75-14.94,4.72-28.3-0.08-29.82c-0.3-0.1-0.62-0.14-0.94-0.14c-3.98,0-9.49,7.11-13.81,17.47l-1.7-2.56
	c4.93-10.91,11.42-18.24,16.5-18.24c0.52,0,1.02,0.08,1.5,0.23c6.44,2.06,7.32,17.36,1.96,34.18C45.67,56.2,37.12,67.6,30.77,67.6z
	 M70.81,61.59c-0.39,0-0.8-0.06-1.19-0.19c-3.47-1.13-6.71-1.58-10-1.58c-5.64,0-11.43,1.32-18.69,2.71c4.19-5,8.16-12.56,11-21.47
	c2.62-8.22,3.86-16.35,3.51-22.93c7.2,8.01,12.47,13.78,22.34,16.99C85.58,37.67,78.58,61.59,70.81,61.59z M78.85,74.58
	c-0.41,1.27-1.61,2.07-2.9,2.07c-0.3,0-0.61-0.05-0.92-0.14c-1.46-0.46-2.34-1.9-2.07-3.37l1.97-10.7l6.91,2.14
	c0.09,0.03,0.17,0.04,0.26,0.06L78.85,74.58z M84.42,63.61c-0.71,0-1.44-0.11-2.16-0.33l-7.1-2.2c1.1-0.96,2.17-2.27,3.17-3.95
	c1.89-3.18,3.32-7.27,3.91-11.22c0.34-2.22,0.38-4.19,0.16-5.88l6.79,2.1c3.74,1.16,5.81,5.04,4.62,8.67l-2.63,8
	C90.23,61.74,87.44,63.61,84.42,63.61z M99.9,55.25l-1.28,4.09c-0.79,2.56-3.1,4.19-5.6,4.19c-0.59,0-1.19-0.09-1.79-0.29
	l-1.15-0.38c1.11-0.96,1.98-2.2,2.46-3.65l2.63-8c0.4-1.23,0.5-2.5,0.3-3.73l0.61,0.2C99.18,48.69,100.89,52.08,99.9,55.25z"/>
</svg>
