<?xml version="1.0" encoding="utf-8"?>
<!-- Generator: Adobe Illustrator 26.5.0, SVG Export Plug-In . SVG Version: 6.00 Build 0)  -->
<svg version="1.1" id="圖層_1" xmlns="http://www.w3.org/2000/svg" xmlns:xlink="http://www.w3.org/1999/xlink" x="0px" y="0px"
	 width="48px" height="66px" viewBox="0 0 48 66" style="enable-background:new 0 0 48 66;" xml:space="preserve">
<path style="opacity:0.1;fill:#F8EB01;enable-background:new    ;" d="M24.45,66c-4.74,0-8.81-1.78-11.16-4.89
	c-2.85-3.21-3.07-7.74-3.07-9.06c0-3.1,1.05-6.15,3.3-9.61L22.4,29.4h11.11l-6.71,9.16c-0.24,0.35-0.51,0.71-0.78,1.08
	c-0.1,0.14-0.21,0.28-0.31,0.43c0.05,0,0.1-0.01,0.14-0.01c0.37-0.03,0.83-0.07,1.18-0.07c5.53,0,11.41,4.3,11.41,12.27
	C38.44,60.09,32.42,66,24.45,66z M22.67,29.9l-8.74,12.82c-2.19,3.37-3.21,6.34-3.21,9.34c0,1.27,0.21,5.65,2.95,8.74
	c2.27,2.99,6.19,4.7,10.78,4.7c7.69,0,13.49-5.7,13.49-13.25c0-7.64-5.62-11.77-10.91-11.77c-0.33,0-0.78,0.04-1.14,0.07
	c-0.69,0.06-0.76,0.06-0.86-0.05l-0.14-0.15l0.12-0.17c0.21-0.29,0.41-0.57,0.61-0.84c0.27-0.36,0.53-0.72,0.77-1.07l6.13-8.37
	C32.52,29.9,22.67,29.9,22.67,29.9z M24.16,58.05c-2.44,0-5.04-1.8-5.04-5.13v-0.05c0-2.77,2.21-4.94,5.04-4.94
	c3.4,0,5.23,2.62,5.23,5.08C29.39,55.84,27.09,58.05,24.16,58.05z M24.16,48.43c-2.59,0-4.54,1.91-4.54,4.44v0.05
	c0,3.01,2.34,4.63,4.54,4.63c2.65,0,4.73-1.99,4.73-4.54C28.89,50.79,27.23,48.43,24.16,48.43z"/>
<path style="opacity:0.25;fill:#F8EB01;enable-background:new    ;" d="M23.45,65c-4.74,0-8.81-1.78-11.16-4.89
	c-2.85-3.21-3.07-7.74-3.07-9.06c0-3.1,1.05-6.15,3.3-9.61L21.4,28.4h11.11l-6.71,9.16c-0.25,0.35-0.51,0.71-0.78,1.08
	c-0.1,0.14-0.2,0.28-0.31,0.42c0.05,0,0.1-0.01,0.14-0.01c0.37-0.03,0.83-0.07,1.18-0.07c5.53,0,11.41,4.3,11.41,12.27
	C37.44,59.09,31.43,65,23.45,65z M21.67,28.9l-8.74,12.82c-2.19,3.37-3.21,6.34-3.21,9.34c0,1.27,0.21,5.65,2.95,8.74
	c2.27,2.99,6.19,4.7,10.78,4.7c7.69,0,13.49-5.7,13.49-13.25c0-7.64-5.62-11.77-10.91-11.77c-0.33,0-0.78,0.04-1.14,0.07
	c-0.67,0.06-0.76,0.06-0.86-0.05l-0.14-0.15l0.12-0.17c0.2-0.29,0.41-0.56,0.61-0.84c0.27-0.36,0.53-0.72,0.78-1.08l6.13-8.37h-9.86
	V28.9z M23.16,57.05c-2.44,0-5.04-1.8-5.04-5.13v-0.05c0-2.77,2.21-4.94,5.04-4.94c3.4,0,5.23,2.62,5.23,5.08
	C28.39,54.84,26.1,57.05,23.16,57.05z M23.16,47.43c-2.59,0-4.54,1.91-4.54,4.44v0.05c0,3.01,2.34,4.63,4.54,4.63
	c2.65,0,4.73-1.99,4.73-4.54C27.89,49.8,26.24,47.43,23.16,47.43z"/>
<path style="opacity:0.5;fill:#F8EB01;enable-background:new    ;" d="M22.45,64c-4.74,0-8.81-1.78-11.16-4.89
	c-2.85-3.21-3.07-7.74-3.07-9.06c0-3.1,1.05-6.15,3.3-9.61l8.89-13.04h11.11l-6.71,9.16c-0.24,0.35-0.51,0.71-0.78,1.08
	c-0.1,0.14-0.21,0.28-0.31,0.42c0.05,0,0.1-0.01,0.14-0.01c0.37-0.03,0.83-0.07,1.18-0.07c5.53,0,11.41,4.3,11.41,12.27
	C36.44,58.09,30.43,64,22.45,64z M20.67,27.9l-8.74,12.82c-2.19,3.37-3.21,6.34-3.21,9.34c0,1.27,0.21,5.65,2.95,8.74
	c2.27,2.99,6.19,4.7,10.78,4.7c7.69,0,13.49-5.7,13.49-13.25c0-7.64-5.62-11.77-10.91-11.77c-0.33,0-0.78,0.04-1.14,0.07
	c-0.67,0.05-0.76,0.06-0.86-0.05l-0.14-0.15l0.12-0.17c0.21-0.29,0.41-0.57,0.61-0.84c0.27-0.36,0.53-0.72,0.77-1.07l6.13-8.37
	C30.52,27.9,20.67,27.9,20.67,27.9z M22.17,56.06c-2.44,0-5.04-1.8-5.04-5.13v-0.05c0-2.77,2.21-4.94,5.04-4.94
	c3.4,0,5.23,2.62,5.23,5.08C27.39,53.84,25.1,56.06,22.17,56.06z M22.17,46.43c-2.59,0-4.54,1.91-4.54,4.44v0.05
	c0,3.01,2.34,4.63,4.54,4.63c2.65,0,4.73-1.99,4.73-4.54C26.9,48.8,25.24,46.43,22.17,46.43z"/>
<path style="opacity:0.75;fill:#F8EB01;enable-background:new    ;" d="M21.45,63.01c-4.74,0-8.81-1.78-11.16-4.89
	c-2.85-3.21-3.07-7.74-3.07-9.06c0-3.1,1.05-6.15,3.3-9.61l8.89-13.04h11.11l-6.71,9.16c-0.24,0.35-0.51,0.71-0.78,1.08
	c-0.1,0.14-0.21,0.28-0.31,0.42c0.05,0,0.1-0.01,0.14-0.01c0.37-0.03,0.83-0.07,1.18-0.07c5.53,0,11.41,4.3,11.41,12.27
	C35.45,57.09,29.43,63.01,21.45,63.01z M19.67,26.91l-8.73,12.82c-2.19,3.37-3.21,6.34-3.21,9.34c0,1.27,0.21,5.65,2.95,8.74
	c2.27,2.99,6.19,4.7,10.78,4.7c7.69,0,13.49-5.7,13.49-13.25c0-7.64-5.62-11.77-10.91-11.77c-0.33,0-0.78,0.04-1.14,0.07
	c-0.67,0.06-0.76,0.06-0.86-0.05l-0.14-0.15l0.12-0.17c0.21-0.29,0.41-0.57,0.61-0.84c0.27-0.36,0.53-0.72,0.77-1.07l6.13-8.37
	H19.67z M21.17,55.06c-2.44,0-5.04-1.8-5.04-5.13v-0.05c0-2.77,2.21-4.94,5.04-4.94c3.4,0,5.23,2.62,5.23,5.08
	C26.4,52.85,24.1,55.06,21.17,55.06z M21.17,45.44c-2.59,0-4.54,1.91-4.54,4.44v0.05c0,3.01,2.34,4.63,4.54,4.63
	c2.65,0,4.73-1.99,4.73-4.54C25.9,47.8,24.24,45.44,21.17,45.44z"/>
<path style="fill-rule:evenodd;clip-rule:evenodd;fill:#FFFFFF;" d="M15.38,48.93c0,3.26,2.58,4.88,4.79,4.88
	c2.68,0,4.98-1.96,4.98-4.79c0-2.3-1.72-4.84-4.98-4.84c-2.87,0-4.79,2.2-4.79,4.69C15.38,48.88,15.38,48.93,15.38,48.93z
	 M29.03,25.66l-6.42,8.76c-0.43,0.62-0.91,1.24-1.39,1.91c0.05,0.05,1.15-0.09,1.82-0.09c5.17,0,11.16,3.97,11.16,12.02
	c0,8.09-6.27,13.5-13.74,13.5c-4.45,0-8.57-1.63-10.96-4.79c-2.25-2.54-3.02-6.18-3.02-8.91c0-3.59,1.48-6.75,3.26-9.48l8.81-12.93
	h10.48V25.66z"/>
<path style="fill-rule:evenodd;clip-rule:evenodd;fill:#918A8A;" d="M7.09,19.96L7.09,19.96c0.28,0,0.5,0.22,0.5,0.5v8.98
	c0,0.28-0.22,0.5-0.5,0.5l0,0c-0.28,0-0.5-0.22-0.5-0.5v-8.98C6.59,20.18,6.82,19.96,7.09,19.96z M7.09,11.98L7.09,11.98
	c0.28,0,0.5,0.22,0.5,0.5v3.99c0,0.28-0.22,0.5-0.5,0.5l0,0c-0.28,0-0.5-0.22-0.5-0.5v-3.99C6.59,12.2,6.82,11.98,7.09,11.98z
	 M12.08,3.99L12.08,3.99c0.28,0,0.5,0.22,0.5,0.5v18.96c0,0.28-0.22,0.5-0.5,0.5l0,0c-0.28,0-0.5-0.22-0.5-0.5V4.49
	C11.58,4.22,11.81,3.99,12.08,3.99z M17.07,0L17.07,0c0.28,0,0.5,0.22,0.5,0.5v10.98c0,0.28-0.22,0.5-0.5,0.5l0,0
	c-0.28,0-0.5-0.22-0.5-0.5V0.5C16.57,0.22,16.8,0,17.07,0z M36.04,14.97L36.04,14.97c0.28,0,0.5,0.22,0.5,0.5v18.96
	c0,0.28-0.22,0.5-0.5,0.5l0,0c-0.28,0-0.5-0.22-0.5-0.5V15.47C35.54,15.19,35.76,14.97,36.04,14.97z M31.05,13.97L31.05,13.97
	c0.28,0,0.5,0.22,0.5,0.5v6.99c0,0.28-0.22,0.5-0.5,0.5l0,0c-0.28,0-0.5-0.22-0.5-0.5v-6.99C30.55,14.2,30.77,13.97,31.05,13.97z
	 M41.03,19.96L41.03,19.96c0.28,0,0.5,0.22,0.5,0.5v6.99c0,0.28-0.22,0.5-0.5,0.5l0,0c-0.28,0-0.5-0.22-0.5-0.5v-6.99
	C40.53,20.18,40.75,19.96,41.03,19.96z"/>
</svg>
