<?xml version="1.0" encoding="utf-8"?>
<!-- Generator: Adobe Illustrator 26.5.0, SVG Export Plug-In . SVG Version: 6.00 Build 0)  -->
<svg version="1.1" id="圖層_1" xmlns="http://www.w3.org/2000/svg" xmlns:xlink="http://www.w3.org/1999/xlink" x="0px" y="0px"
	 width="48px" height="66px" viewBox="0 0 48 66" style="enable-background:new 0 0 48 66;" xml:space="preserve">
<path style="opacity:0.1;fill:#F8EB01;enable-background:new    ;" d="M34.95,66h-9.86V37.27H19.1V28.9h15.84L34.95,66L34.95,66z
	 M25.6,65.48h8.83V29.41H19.62v7.35h5.98V65.48z"/>
<path style="opacity:0.25;fill:#F8EB01;enable-background:new    ;" d="M33.92,64.97h-9.86V36.24h-5.98v-8.38h15.84
	C33.92,27.86,33.92,64.97,33.92,64.97z M24.57,64.45h8.83V28.38H18.59v7.35h5.98V64.45z"/>
<path style="opacity:0.5;fill:#F8EB01;enable-background:new    ;" d="M32.89,63.94h-9.86V35.21h-5.99v-8.38h15.84L32.89,63.94
	L32.89,63.94z M23.54,63.42h8.83V27.35H17.56v7.35h5.98C23.54,34.7,23.54,63.42,23.54,63.42z"/>
<path style="opacity:0.75;fill:#F8EB01;enable-background:new    ;" d="M31.86,62.91H22V34.18h-5.99V25.8h15.84v37.11H31.86z
	 M22.51,62.39h8.83V26.32H16.53v7.35h5.98V62.39z"/>
<path style="fill-rule:evenodd;clip-rule:evenodd;fill:#FFFFFF;" d="M15.24,25.03v7.86h5.98v28.73h9.34V25.03H15.24z"/>
<path style="fill-rule:evenodd;clip-rule:evenodd;fill:#918A8A;" d="M11.63,8L11.63,8c0.28,0,0.52,0.23,0.52,0.52V28.1
	c0,0.28-0.23,0.52-0.52,0.52l0,0c-0.28,0-0.52-0.23-0.52-0.52V8.52C11.12,8.23,11.35,8,11.63,8z M8.54,12.12L8.54,12.12
	c0.28,0,0.52,0.23,0.52,0.52v14.43c0,0.28-0.23,0.52-0.52,0.52l0,0c-0.28,0-0.52-0.23-0.52-0.52V12.64
	C8.03,12.35,8.26,12.12,8.54,12.12z M14.72,11.09L14.72,11.09c0.28,0,0.52,0.23,0.52,0.52v7.21c0,0.28-0.23,0.52-0.52,0.52l0,0
	c-0.28,0-0.52-0.23-0.52-0.52v-7.21C14.21,11.32,14.44,11.09,14.72,11.09z M36.37,19.34L36.37,19.34c0.28,0,0.52,0.23,0.52,0.52
	v19.58c0,0.28-0.23,0.52-0.52,0.52l0,0c-0.28,0-0.52-0.23-0.52-0.52V19.85C35.85,19.57,36.08,19.34,36.37,19.34z M39.46,15.21
	L39.46,15.21c0.28,0,0.52,0.23,0.52,0.52v14.43c0,0.28-0.23,0.52-0.52,0.52l0,0c-0.28,0-0.52-0.23-0.52-0.52V15.73
	C38.94,15.44,39.17,15.21,39.46,15.21z"/>
</svg>
