<?xml version="1.0" encoding="utf-8"?>
<!-- Generator: Adobe Illustrator 26.5.0, SVG Export Plug-In . SVG Version: 6.00 Build 0)  -->
<svg version="1.1" id="圖層_1" xmlns="http://www.w3.org/2000/svg" xmlns:xlink="http://www.w3.org/1999/xlink" x="0px" y="0px"
	 width="44px" height="66px" viewBox="0 0 44 66" style="enable-background:new 0 0 44 66;" xml:space="preserve">
<path style="opacity:0.1;fill:#F8EB01;enable-background:new    ;" d="M24.56,65.87c-8.62,0-13.57-4.69-13.57-12.86v-1.34h8.67v1.34
	c0,2.91,1.48,4.27,4.65,4.27c3.34,0,5.11-1.69,5.11-4.9c0-4.23-2.82-4.77-5.27-4.77c-1.81,0-3.15,0.41-3.87,1.2l-0.4,0.43h-8.05
	v-22.2h24.8v8.92h-15.5v3.23c1.41-0.33,2.92-0.39,3.72-0.39l0,0c4.07,0,7.46,1.24,9.83,3.58c2.39,2.37,3.66,5.81,3.66,9.95
	c0,4.22-1.18,7.55-3.5,9.9C32.45,64.65,29,65.87,24.56,65.87z M11.5,52.18v0.83c0,7.85,4.76,12.35,13.06,12.35
	c4.29,0,7.63-1.17,9.92-3.48c2.22-2.25,3.35-5.45,3.35-9.54c0-4-1.21-7.32-3.51-9.59c-2.26-2.24-5.54-3.43-9.47-3.43l0,0
	c-0.85,0-2.48,0.06-3.91,0.45l-0.32,0.09v-4.41h15.49v-7.9H12.34v21.18h7.31l0.25-0.27c0.82-0.89,2.29-1.36,4.25-1.36
	c1.43,0,5.79,0,5.79,5.28c0,3.49-2,5.41-5.62,5.41c-3.42,0-5.16-1.61-5.16-4.78v-0.83H11.5z"/>
<path style="opacity:0.25;fill:#F8EB01;enable-background:new    ;" d="M23.54,64.85c-8.62,0-13.57-4.69-13.57-12.86v-1.34h8.67
	v1.34c0,2.91,1.48,4.27,4.65,4.27c3.34,0,5.11-1.69,5.11-4.9c0-4.23-2.82-4.77-5.27-4.77c-1.81,0-3.15,0.41-3.87,1.2l-0.4,0.43H10.8
	v-22.2h24.8v8.92H20.11v3.23c1.41-0.34,2.92-0.39,3.72-0.39l0,0c4.07,0,7.46,1.24,9.83,3.58c2.39,2.37,3.66,5.81,3.66,9.95
	c0,4.22-1.18,7.55-3.5,9.9C31.43,63.62,27.97,64.85,23.54,64.85z M10.48,51.16v0.83c0,7.85,4.76,12.35,13.06,12.35
	c4.29,0,7.63-1.17,9.92-3.48c2.22-2.25,3.35-5.45,3.35-9.54c0-4-1.21-7.32-3.51-9.59c-2.27-2.24-5.54-3.43-9.47-3.43l0,0
	c-0.85,0-2.48,0.06-3.91,0.45l-0.32,0.09v-4.41h15.49v-7.9H11.32v21.18h7.31l0.25-0.27c0.82-0.89,2.29-1.36,4.25-1.36
	c1.43,0,5.79,0,5.79,5.28c0,3.49-2,5.41-5.62,5.41c-3.42,0-5.16-1.61-5.16-4.78v-0.83C18.14,51.16,10.48,51.16,10.48,51.16z"/>
<path style="opacity:0.5;fill:#F8EB01;enable-background:new    ;" d="M22.51,63.82c-8.62,0-13.57-4.69-13.57-12.86v-1.34h8.67v1.34
	c0,2.91,1.48,4.27,4.65,4.27c3.34,0,5.11-1.69,5.11-4.9c0-4.23-2.82-4.77-5.27-4.77c-1.81,0-3.15,0.41-3.87,1.2l-0.4,0.43H9.78V25
	h24.8v8.92h-15.5v3.23c1.41-0.34,2.92-0.39,3.72-0.39l0,0c4.07,0,7.46,1.24,9.83,3.58c2.39,2.37,3.66,5.81,3.66,9.95
	c0,4.22-1.18,7.55-3.5,9.9C30.41,62.6,26.95,63.82,22.51,63.82z M9.46,50.13v0.83c0,7.85,4.76,12.35,13.06,12.35
	c4.29,0,7.63-1.17,9.92-3.48c2.22-2.25,3.35-5.45,3.35-9.54c0-4-1.21-7.32-3.51-9.59c-2.27-2.24-5.54-3.43-9.47-3.43l0,0
	c-0.85,0-2.48,0.06-3.91,0.45l-0.32,0.09V33.4h15.49v-7.9H10.29v21.18h7.31l0.25-0.27c0.82-0.89,2.29-1.36,4.25-1.36
	c1.43,0,5.79,0,5.79,5.28c0,3.49-2,5.41-5.62,5.41c-3.42,0-5.16-1.61-5.16-4.78v-0.83C17.11,50.13,9.46,50.13,9.46,50.13z"/>
<path style="opacity:0.75;fill:#F8EB01;enable-background:new    ;" d="M21.49,62.8c-8.62,0-13.57-4.69-13.57-12.86V48.6h8.67v1.34
	c0,2.91,1.48,4.27,4.65,4.27c3.34,0,5.11-1.69,5.11-4.9c0-4.23-2.82-4.77-5.27-4.77c-1.81,0-3.15,0.41-3.87,1.2l-0.4,0.43H8.76
	v-22.2h24.8v8.92h-15.5v3.23c1.41-0.34,2.92-0.39,3.72-0.39l0,0c4.07,0,7.46,1.24,9.83,3.58c2.39,2.37,3.66,5.81,3.66,9.95
	c0,4.22-1.18,7.55-3.5,9.9C29.38,61.58,25.93,62.8,21.49,62.8z M8.43,49.11v0.83c0,7.85,4.76,12.35,13.06,12.35
	c4.29,0,7.63-1.17,9.92-3.48c2.22-2.25,3.35-5.45,3.35-9.54c0-4-1.21-7.32-3.51-9.59c-2.27-2.24-5.54-3.43-9.47-3.43l0,0
	c-0.85,0-2.48,0.06-3.91,0.45l-0.32,0.09v-4.41h15.49v-7.9H9.27v21.18h7.31l0.25-0.27c0.82-0.89,2.29-1.36,4.25-1.36
	c1.43,0,5.79,0,5.79,5.28c0,3.49-2,5.41-5.62,5.41c-3.42,0-5.16-1.61-5.16-4.78v-0.83H8.43z"/>
<path style="fill-rule:evenodd;clip-rule:evenodd;fill:#FFFFFF;" d="M20.76,34.97c-0.83,0-2.51,0.06-3.98,0.46v-3.82h15.49V23.2
	H7.99v21.69h7.68l0.32-0.35c0.77-0.84,2.17-1.28,4.06-1.28c2.37,0,5.53,0.52,5.53,5.03c0,3.32-1.9,5.15-5.36,5.15
	c-3.3,0-4.9-1.48-4.9-4.52v-1.09H7.15v1.09c0,8.01,4.85,12.6,13.31,12.6c4.37,0,7.76-1.2,10.1-3.56c2.27-2.3,3.42-5.56,3.42-9.72
	c0-4.07-1.24-7.45-3.58-9.77C28.09,36.19,24.76,34.97,20.76,34.97"/>
<path style="fill-rule:evenodd;clip-rule:evenodd;fill:#918A8A;" d="M43.49,24.46L43.49,24.46c0.28,0,0.51,0.23,0.51,0.51V39.3
	c0,0.28-0.23,0.51-0.51,0.51l0,0c-0.28,0-0.51-0.23-0.51-0.51V24.97C42.98,24.69,43.21,24.46,43.49,24.46z M43.49,17.29L43.49,17.29
	c0.28,0,0.51,0.23,0.51,0.51v4.09c0,0.28-0.23,0.51-0.51,0.51l0,0c-0.28,0-0.51-0.23-0.51-0.51v-4.08
	C42.98,17.52,43.21,17.29,43.49,17.29z M40.42,10.13L40.42,10.13c0.28,0,0.51,0.23,0.51,0.51v19.44c0,0.28-0.23,0.51-0.51,0.51l0,0
	c-0.28,0-0.51-0.23-0.51-0.51V10.64C39.91,10.36,40.14,10.13,40.42,10.13z M37.35,12.18L37.35,12.18c0.28,0,0.51,0.23,0.51,0.51
	v8.19c0,0.28-0.23,0.51-0.51,0.51l0,0c-0.28,0-0.51-0.23-0.51-0.51v-8.19C36.84,12.41,37.07,12.18,37.35,12.18z M0.51,36.74
	L0.51,36.74c0.28,0,0.51,0.23,0.51,0.51v19.44c0,0.28-0.23,0.51-0.51,0.51l0,0C0.23,57.2,0,56.97,0,56.69V37.25
	C0,36.96,0.23,36.74,0.51,36.74z M3.58,32.64L3.58,32.64c0.28,0,0.51,0.23,0.51,0.51v14.33c0,0.28-0.23,0.51-0.51,0.51l0,0
	c-0.28,0-0.51-0.23-0.51-0.51V33.15C3.07,32.87,3.3,32.64,3.58,32.64z"/>
</svg>
