<?xml version="1.0" encoding="utf-8"?>
<!-- Generator: Adobe Illustrator 26.5.0, SVG Export Plug-In . SVG Version: 6.00 Build 0)  -->
<svg version="1.1" id="圖層_1" xmlns="http://www.w3.org/2000/svg" xmlns:xlink="http://www.w3.org/1999/xlink" x="0px" y="0px"
	 width="48px" height="66px" viewBox="0 0 48 66" style="enable-background:new 0 0 48 66;" xml:space="preserve">
<path style="opacity:0.1;fill:#F8EB01;enable-background:new    ;" d="M27.97,66c-0.52,0-1.04-0.01-1.56-0.02l-0.34-0.01
	c-0.41-0.01-0.84-0.01-1.26-0.01c-5.84,0-10.59-4.83-10.59-10.76v-2.4h8.4v1.35c0,0.43,0.07,0.83,0.19,1.13
	c0.38,1,1.86,2.06,4.88,1.87c1.3-0.07,2.63-0.24,3.57-0.95c1-0.76,1.4-2.58,0.94-4.32c-0.34-1.31-1.23-2.06-2.81-2.34
	c-0.84-0.19-1.84-0.27-3.14-0.27h-3.21v-8.15h3.21c1.3,0,2.3-0.09,3.08-0.26l0.07-0.01c0.83-0.14,1.43-0.37,1.83-0.69
	c0.56-0.45,0.91-1.18,0.92-1.95c0.01-0.78-0.33-1.51-0.95-2.05c-0.98-0.85-4.49-1.33-6.8-0.28c-1.21,0.55-1.77,1.33-1.77,2.46v1.35
	h-8.4v-2.45c0-3.26,1.37-6.03,3.97-8.02c2.21-1.69,5.24-2.66,8.31-2.66c1.6,0,2.65,0.01,3.13,0.04c1.09,0.05,2.01,0.16,2.83,0.32
	c1.87,0.42,3.74,1.33,5.05,2.45c1.62,1.36,2.79,3.04,3.4,4.86c1.37,4.15,0.61,8.14-2.07,10.98c0.78,0.9,1.4,1.93,1.83,3.04
	c1.44,3.53,1.43,7.09-0.01,10.58c-1.03,2.59-3.03,4.73-5.5,5.87C32.76,65.78,30.55,66,27.97,66z M14.73,53.31v1.89
	c0,5.65,4.52,10.25,10.08,10.25c0.43,0,0.85,0.01,1.27,0.01l0.34,0.01c0.52,0.01,1.04,0.02,1.55,0.02c2.52,0,4.67-0.21,6.98-1.25
	c2.34-1.08,4.25-3.12,5.23-5.59c1.39-3.37,1.39-6.8,0.01-10.2c-0.44-1.14-1.08-2.17-1.89-3.07l-0.17-0.18l0.17-0.17
	c2.67-2.71,3.44-6.59,2.11-10.63c-0.57-1.72-1.7-3.33-3.24-4.63c-1.24-1.07-3.04-1.94-4.8-2.34c-0.81-0.16-1.71-0.26-2.76-0.31
	c-0.48-0.03-1.56-0.04-3.12-0.04c-2.96,0-5.87,0.93-8,2.56c-2.46,1.88-3.77,4.51-3.77,7.61v1.93h7.37v-0.84
	c0-1.32,0.7-2.3,2.08-2.93c2.6-1.18,6.25-0.6,7.35,0.36c0.75,0.64,1.15,1.51,1.13,2.44c-0.01,0.92-0.43,1.79-1.11,2.34
	c-0.47,0.38-1.15,0.64-2.07,0.8c-0.85,0.19-1.9,0.28-3.23,0.28h-2.69v7.12h2.69c1.33,0,2.37,0.09,3.19,0.27
	c1.82,0.33,2.87,1.22,3.26,2.73c0.5,1.94,0.03,3.98-1.13,4.86c-1.05,0.79-2.47,0.97-3.85,1.05c-3.29,0.19-4.95-1.04-5.37-2.16
	c-0.16-0.39-0.24-0.86-0.24-1.35v-0.84C22.1,53.31,14.73,53.31,14.73,53.31z"/>
<path style="opacity:0.25;fill:#F8EB01;enable-background:new    ;" d="M26.94,64.97c-0.52,0-1.04-0.01-1.56-0.02l-0.34-0.01
	c-0.41-0.01-0.84-0.01-1.26-0.01c-5.84,0-10.59-4.83-10.59-10.76v-2.41h8.4v1.35c0,0.43,0.07,0.83,0.19,1.13
	c0.38,1,1.86,2.06,4.88,1.87c1.3-0.07,2.63-0.24,3.57-0.95c1-0.76,1.4-2.58,0.94-4.32c-0.34-1.31-1.23-2.06-2.81-2.34
	c-0.84-0.19-1.84-0.27-3.14-0.27H22v-8.15h3.21c1.3,0,2.3-0.09,3.08-0.26l0.07-0.01c0.83-0.14,1.43-0.37,1.83-0.69
	c0.56-0.45,0.91-1.18,0.92-1.95c0.01-0.78-0.33-1.51-0.95-2.05c-0.98-0.85-4.49-1.33-6.8-0.28c-1.21,0.55-1.77,1.33-1.77,2.46v1.35
	h-8.4V36.2c0-3.26,1.37-6.03,3.97-8.02c2.21-1.69,5.24-2.66,8.31-2.66c1.6,0,2.65,0.01,3.13,0.04c1.09,0.05,2.01,0.16,2.83,0.32
	c1.87,0.42,3.74,1.33,5.05,2.45c1.62,1.36,2.79,3.04,3.4,4.86c1.37,4.15,0.61,8.14-2.07,10.98c0.78,0.9,1.4,1.93,1.83,3.04
	c1.44,3.53,1.43,7.09-0.01,10.58c-1.03,2.59-3.03,4.73-5.5,5.87C31.73,64.75,29.52,64.97,26.94,64.97z M13.7,52.28v1.89
	c0,5.65,4.52,10.25,10.08,10.25c0.43,0,0.85,0.01,1.27,0.01l0.34,0.01c0.52,0.01,1.04,0.02,1.55,0.02c2.52,0,4.67-0.21,6.98-1.25
	c2.34-1.08,4.25-3.12,5.23-5.59c1.39-3.37,1.39-6.8,0.01-10.2c-0.44-1.14-1.08-2.17-1.89-3.07l-0.17-0.18L37.27,44
	c2.67-2.71,3.44-6.59,2.11-10.63c-0.57-1.72-1.7-3.33-3.24-4.63c-1.24-1.07-3.04-1.94-4.8-2.34c-0.81-0.16-1.71-0.26-2.76-0.31
	c-0.48-0.03-1.56-0.04-3.12-0.04c-2.96,0-5.87,0.93-8,2.56C15,30.47,13.7,33.1,13.7,36.2v1.93h7.37v-0.84c0-1.32,0.7-2.3,2.08-2.93
	c2.6-1.18,6.25-0.6,7.35,0.36c0.75,0.64,1.15,1.51,1.13,2.44c-0.01,0.92-0.43,1.79-1.11,2.34c-0.47,0.38-1.15,0.64-2.07,0.8
	c-0.85,0.19-1.9,0.28-3.23,0.28h-2.69v7.12h2.69c1.33,0,2.37,0.09,3.19,0.27c1.82,0.33,2.87,1.22,3.26,2.73
	c0.5,1.94,0.03,3.98-1.13,4.86c-1.05,0.79-2.47,0.97-3.85,1.05c-3.29,0.19-4.95-1.04-5.37-2.16c-0.16-0.39-0.24-0.86-0.24-1.35
	v-0.84H13.7V52.28z"/>
<path style="opacity:0.5;fill:#F8EB01;enable-background:new    ;" d="M25.91,63.94c-0.52,0-1.04-0.01-1.56-0.02l-0.34-0.01
	c-0.41-0.01-0.84-0.01-1.26-0.01c-5.84,0-10.59-4.83-10.59-10.76v-2.41h8.4v1.35c0,0.43,0.07,0.83,0.19,1.13
	c0.38,1,1.86,2.06,4.88,1.87c1.3-0.07,2.63-0.24,3.57-0.95c1-0.76,1.4-2.58,0.94-4.32c-0.34-1.31-1.23-2.06-2.81-2.34
	c-0.84-0.19-1.84-0.27-3.14-0.27h-3.21v-8.15h3.21c1.3,0,2.3-0.09,3.08-0.26l0.07-0.01c0.83-0.14,1.43-0.37,1.83-0.69
	c0.56-0.45,0.91-1.18,0.92-1.95c0.01-0.78-0.33-1.51-0.95-2.05c-0.98-0.86-4.49-1.33-6.8-0.28c-1.21,0.55-1.77,1.33-1.77,2.46v1.35
	h-8.4v-2.45c0-3.26,1.37-6.03,3.97-8.02c2.21-1.69,5.24-2.66,8.31-2.66c1.6,0,2.65,0.01,3.13,0.04c1.09,0.05,2.01,0.16,2.83,0.32
	c1.87,0.42,3.74,1.33,5.05,2.45c1.62,1.36,2.79,3.04,3.4,4.86c1.37,4.15,0.61,8.14-2.07,10.98c0.78,0.9,1.4,1.93,1.83,3.04
	c1.44,3.53,1.43,7.09-0.01,10.58c-1.03,2.59-3.03,4.73-5.5,5.87C30.7,63.72,28.49,63.94,25.91,63.94z M12.67,51.25v1.89
	c0,5.65,4.52,10.25,10.08,10.25c0.43,0,0.85,0.01,1.27,0.01l0.34,0.01c0.52,0.01,1.04,0.02,1.55,0.02c2.52,0,4.67-0.21,6.98-1.25
	c2.34-1.08,4.25-3.12,5.23-5.59c1.39-3.37,1.39-6.8,0.01-10.2c-0.44-1.14-1.08-2.17-1.89-3.07l-0.17-0.18l0.17-0.17
	c2.67-2.71,3.44-6.59,2.11-10.63c-0.57-1.72-1.7-3.33-3.24-4.63c-1.24-1.07-3.04-1.94-4.8-2.34c-0.81-0.16-1.71-0.26-2.76-0.31
	C27.07,25.02,26,25,24.43,25c-2.96,0-5.87,0.93-8,2.56c-2.46,1.88-3.77,4.51-3.77,7.61v1.93h7.37v-0.84c0-1.32,0.7-2.3,2.08-2.93
	c2.6-1.18,6.25-0.6,7.35,0.36c0.75,0.64,1.15,1.51,1.13,2.44c-0.01,0.92-0.43,1.79-1.11,2.34c-0.47,0.38-1.15,0.64-2.07,0.8
	c-0.85,0.19-1.9,0.28-3.23,0.28h-2.69v7.12h2.69c1.33,0,2.37,0.09,3.19,0.27c1.82,0.33,2.87,1.22,3.26,2.73
	c0.5,1.94,0.03,3.98-1.13,4.86c-1.05,0.79-2.47,0.97-3.85,1.05c-3.29,0.19-4.95-1.04-5.37-2.16c-0.16-0.39-0.24-0.86-0.24-1.35
	v-0.84h-7.37V51.25z"/>
<path style="opacity:0.75;fill:#F8EB01;enable-background:new    ;" d="M24.87,62.91c-0.52,0-1.04-0.01-1.56-0.02l-0.34-0.01
	c-0.41-0.01-0.84-0.01-1.26-0.01c-5.84,0-10.59-4.83-10.59-10.76V49.7h8.4v1.35c0,0.43,0.07,0.83,0.19,1.13
	c0.38,1,1.86,2.06,4.88,1.87c1.3-0.07,2.63-0.24,3.57-0.95c1-0.76,1.4-2.58,0.94-4.32c-0.34-1.31-1.23-2.06-2.81-2.34
	c-0.84-0.19-1.84-0.27-3.14-0.27h-3.21v-8.15h3.21c1.3,0,2.3-0.09,3.08-0.26l0.07-0.01c0.83-0.14,1.43-0.37,1.83-0.69
	c0.56-0.45,0.91-1.18,0.92-1.95c0.01-0.78-0.33-1.51-0.95-2.04c-0.98-0.86-4.49-1.33-6.8-0.28c-1.21,0.55-1.77,1.33-1.77,2.46v1.35
	h-8.4v-2.45c0-3.26,1.37-6.03,3.97-8.02c2.21-1.69,5.24-2.66,8.31-2.66c1.6,0,2.65,0.01,3.13,0.04c1.09,0.05,2.01,0.16,2.83,0.32
	c1.87,0.42,3.74,1.33,5.05,2.45c1.62,1.36,2.79,3.04,3.4,4.86c1.37,4.15,0.61,8.14-2.07,10.98c0.78,0.9,1.4,1.93,1.83,3.04
	c1.44,3.53,1.43,7.09-0.01,10.58c-1.03,2.59-3.03,4.73-5.5,5.87C29.67,62.69,27.46,62.91,24.87,62.91z M11.63,50.22v1.89
	c0,5.65,4.52,10.25,10.08,10.25c0.43,0,0.85,0.01,1.27,0.01l0.34,0.01c0.52,0.01,1.04,0.02,1.55,0.02c2.52,0,4.67-0.21,6.98-1.25
	c2.34-1.08,4.25-3.12,5.23-5.59c1.39-3.37,1.39-6.8,0.01-10.2c-0.44-1.14-1.08-2.17-1.89-3.07l-0.17-0.18l0.17-0.17
	c2.67-2.71,3.44-6.59,2.11-10.63c-0.57-1.72-1.7-3.33-3.24-4.63c-1.24-1.07-3.04-1.94-4.8-2.34c-0.81-0.16-1.71-0.26-2.76-0.31
	c-0.48-0.03-1.56-0.04-3.12-0.04c-2.96,0-5.87,0.93-8,2.56c-2.46,1.88-3.77,4.51-3.77,7.61v1.93H19v-0.84
	c0-1.34,0.68-2.29,2.08-2.93c2.6-1.18,6.25-0.6,7.35,0.36c0.75,0.64,1.15,1.51,1.13,2.44c-0.01,0.92-0.43,1.79-1.11,2.34
	c-0.47,0.38-1.15,0.64-2.07,0.8c-0.85,0.19-1.9,0.28-3.23,0.28h-2.69v7.12h2.69c1.33,0,2.37,0.09,3.19,0.27
	c1.82,0.33,2.87,1.22,3.26,2.73c0.5,1.94,0.03,3.98-1.13,4.86c-1.05,0.79-2.47,0.97-3.85,1.05c-3.29,0.18-4.95-1.04-5.37-2.16
	C19.09,52.02,19,51.55,19,51.06v-0.84H11.63z"/>
<path style="fill-rule:evenodd;clip-rule:evenodd;fill:#FFFFFF;" d="M34.36,41.08c2.75-2.79,3.55-6.72,2.17-10.89
	c-0.59-1.77-1.74-3.41-3.32-4.74c-1.27-1.1-3.11-1.99-4.91-2.39h-0.02c-0.81-0.16-1.72-0.26-2.78-0.32h-0.02
	c-0.6-0.04-2.02-0.04-3.11-0.04c-3.01,0-5.99,0.95-8.16,2.61c-2.53,1.93-3.87,4.64-3.87,7.81v2.19h7.89V34.2
	c0-1.22,0.63-2.11,1.92-2.7c2.43-1.11,6.01-0.6,7.07,0.32c0.69,0.59,1.06,1.39,1.04,2.24c-0.01,0.84-0.39,1.65-1.02,2.15
	c-0.44,0.35-1.08,0.59-1.95,0.75l-0.05,0.01c-0.79,0.18-1.82,0.27-3.13,0.27h-2.95v7.63h2.95c1.31,0,2.34,0.09,3.13,0.27l0.05,0.01
	c1.67,0.3,2.66,1.13,3.02,2.53c0.48,1.84,0.04,3.77-1.04,4.59c-0.99,0.75-2.37,0.93-3.71,1c-3.16,0.19-4.73-0.96-5.11-1.99
	l-0.01-0.04c-0.14-0.33-0.21-0.76-0.21-1.22v-1.09h-7.88v2.15c0,5.79,4.64,10.5,10.34,10.5c0.54,0,1.08,0.01,1.61,0.02
	c0.52,0.01,1.04,0.02,1.56,0.02c2.34,0,4.63-0.17,7.09-1.27c2.41-1.11,4.36-3.2,5.37-5.73c1.41-3.43,1.42-6.92,0-10.39
	C35.85,43.06,35.2,42,34.36,41.08"/>
<path style="fill-rule:evenodd;clip-rule:evenodd;fill:#918A8A;" d="M6.77,16.5L6.77,16.5c0.28,0,0.52,0.23,0.52,0.52v14.43
	c0,0.28-0.23,0.52-0.52,0.52l0,0c-0.28,0-0.52-0.23-0.52-0.52V17.01C6.26,16.73,6.49,16.5,6.77,16.5z M6.77,8.25L6.77,8.25
	c0.28,0,0.52,0.23,0.52,0.52v4.12c0,0.28-0.23,0.52-0.52,0.52l0,0c-0.28,0-0.52-0.23-0.52-0.52V8.76C6.26,8.48,6.49,8.25,6.77,8.25z
	 M11.93,0L11.93,0c0.28,0,0.52,0.23,0.52,0.52v19.59c0,0.28-0.23,0.52-0.52,0.52l0,0c-0.28,0-0.52-0.23-0.52-0.52V0.52
	C11.41,0.23,11.64,0,11.93,0z M16.05,5.16L16.05,5.16c0.28,0,0.52,0.23,0.52,0.52v11.34c0,0.28-0.23,0.52-0.52,0.52l0,0
	c-0.28,0-0.52-0.23-0.52-0.52V5.67C15.54,5.39,15.77,5.16,16.05,5.16z M31.52,10.31L31.52,10.31c0.28,0,0.52,0.23,0.52,0.52v8.25
	c0,0.28-0.23,0.52-0.52,0.52l0,0c-0.28,0-0.52-0.23-0.52-0.52v-8.25C31,10.54,31.23,10.31,31.52,10.31z M34.61,12.37L34.61,12.37
	c0.28,0,0.52,0.23,0.52,0.52v8.25c0,0.28-0.23,0.52-0.52,0.52l0,0c-0.28,0-0.52-0.23-0.52-0.52v-8.25
	C34.1,12.6,34.33,12.37,34.61,12.37z"/>
</svg>
