<?xml version="1.0" encoding="utf-8"?>
<!-- Generator: Adobe Illustrator 26.5.0, SVG Export Plug-In . SVG Version: 6.00 Build 0)  -->
<svg version="1.1" id="圖層_1" xmlns="http://www.w3.org/2000/svg" xmlns:xlink="http://www.w3.org/1999/xlink" x="0px" y="0px"
	 width="48px" height="66px" viewBox="0 0 48 66" style="enable-background:new 0 0 48 66;" xml:space="preserve">
<path style="opacity:0.1;fill:#F8EB01;enable-background:new    ;" d="M29.17,57.63H18.04l6.72-9.18c0.2-0.28,0.4-0.56,0.6-0.83
	c0.17-0.23,0.33-0.45,0.5-0.68c-0.05,0-0.1,0.01-0.14,0.01c-0.37,0.03-0.83,0.07-1.19,0.07c-5.54,0-11.43-4.31-11.43-12.29
	c0-7.85,6.03-13.78,14.02-13.78c4.75,0,8.83,1.78,11.19,4.9c2.85,3.21,3.07,7.76,3.07,9.07c0,3.1-1.05,6.16-3.3,9.63L29.17,57.63z
	 M19.02,57.13h9.88l8.75-12.84c2.2-3.38,3.22-6.36,3.22-9.36c0-1.27-0.21-5.66-2.96-8.76c-2.27-3-6.21-4.71-10.8-4.71
	c-7.71,0-13.52,5.71-13.52,13.28c0,7.66,5.63,11.79,10.93,11.79c0.33,0,0.78-0.04,1.15-0.07c0.68-0.06,0.75-0.06,0.85,0.04
	l0.15,0.15l-0.12,0.17c-0.25,0.36-0.52,0.73-0.79,1.1c-0.2,0.27-0.4,0.54-0.6,0.82L19.02,57.13z M27.31,39.02
	c-3.34,0-5.14-2.62-5.14-5.09c0-2.8,2.26-5,5.14-5c2.49,0,5.14,1.79,5.14,5.1v0.05C32.45,36.89,30.24,39.02,27.31,39.02z
	 M27.31,29.42c-2.28,0-4.64,1.68-4.64,4.5c0,2.23,1.63,4.59,4.64,4.59c2.65,0,4.64-1.91,4.64-4.45v-0.05
	C31.95,31.03,29.56,29.42,27.31,29.42z"/>
<path style="opacity:0.25;fill:#F8EB01;enable-background:new    ;" d="M28.17,56.63H17.04l6.72-9.18c0.2-0.28,0.4-0.55,0.6-0.82
	c0.17-0.23,0.34-0.46,0.5-0.69c-0.05,0-0.1,0.01-0.14,0.01c-0.37,0.03-0.83,0.07-1.19,0.07c-5.54,0-11.43-4.31-11.43-12.29
	c0-7.85,6.03-13.78,14.02-13.78c4.75,0,8.83,1.78,11.19,4.9c2.85,3.21,3.07,7.76,3.07,9.07c0,3.1-1.05,6.16-3.3,9.63L28.17,56.63z
	 M18.02,56.13h9.88l8.75-12.84c2.2-3.38,3.22-6.36,3.22-9.36c0-1.27-0.21-5.66-2.96-8.76c-2.27-3-6.21-4.71-10.8-4.71
	c-7.71,0-13.52,5.71-13.52,13.28c0,7.66,5.63,11.79,10.93,11.79c0.33,0,0.78-0.04,1.14-0.07c0.68-0.06,0.75-0.06,0.86,0.04
	l0.15,0.15l-0.12,0.17c-0.25,0.37-0.52,0.73-0.8,1.11c-0.2,0.27-0.4,0.54-0.59,0.82L18.02,56.13z M26.31,38.02
	c-3.34,0-5.14-2.62-5.14-5.09c0-2.8,2.26-5,5.14-5c2.49,0,5.14,1.79,5.14,5.1v0.05C31.45,35.89,29.24,38.02,26.31,38.02z
	 M26.31,28.42c-2.28,0-4.64,1.68-4.64,4.5c0,2.23,1.63,4.59,4.64,4.59c2.65,0,4.64-1.91,4.64-4.45v-0.05
	C30.95,30.03,28.56,28.42,26.31,28.42z"/>
<path style="opacity:0.5;fill:#F8EB01;enable-background:new    ;" d="M27.17,55.63H16.04l6.72-9.18c0.2-0.28,0.4-0.55,0.6-0.82
	c0.17-0.23,0.34-0.46,0.5-0.68c-0.05,0-0.1,0.01-0.14,0.01c-0.37,0.03-0.83,0.07-1.19,0.07c-5.54,0-11.43-4.31-11.43-12.29
	c0-7.85,6.03-13.78,14.02-13.78c4.75,0,8.83,1.78,11.19,4.9c2.85,3.21,3.07,7.76,3.07,9.07c0,3.1-1.05,6.16-3.3,9.63L27.17,55.63z
	 M17.02,55.13h9.88l8.75-12.84c2.2-3.38,3.22-6.36,3.22-9.36c0-1.27-0.21-5.66-2.96-8.76c-2.27-3-6.21-4.71-10.8-4.71
	c-7.71,0-13.52,5.71-13.52,13.28c0,7.66,5.63,11.79,10.93,11.79c0.33,0,0.78-0.04,1.14-0.07c0.67-0.06,0.75-0.06,0.85,0.04
	l0.15,0.15l-0.12,0.17c-0.25,0.36-0.52,0.73-0.8,1.1c-0.2,0.27-0.4,0.54-0.6,0.82L17.02,55.13z M25.31,37.02
	c-3.34,0-5.14-2.62-5.14-5.1c0-2.8,2.26-5,5.14-5c2.49,0,5.14,1.79,5.14,5.1v0.05C30.45,34.89,28.24,37.02,25.31,37.02z
	 M25.31,27.42c-2.28,0-4.64,1.68-4.64,4.5c0,2.23,1.63,4.6,4.64,4.6c2.65,0,4.64-1.91,4.64-4.45v-0.05
	C29.95,29.03,27.56,27.42,25.31,27.42z"/>
<path style="opacity:0.75;fill:#F8EB01;enable-background:new    ;" d="M26.17,54.63H15.04l6.72-9.18c0.2-0.28,0.4-0.55,0.6-0.82
	c0.17-0.23,0.34-0.46,0.5-0.68c-0.05,0-0.1,0.01-0.14,0.01c-0.37,0.03-0.83,0.07-1.19,0.07c-5.54,0-11.43-4.31-11.43-12.29
	c0-7.85,6.03-13.78,14.02-13.78c4.75,0,8.83,1.78,11.19,4.9c2.85,3.21,3.07,7.76,3.07,9.07c0,3.1-1.05,6.16-3.3,9.63L26.17,54.63z
	 M16.02,54.13h9.88l8.75-12.84c2.2-3.38,3.22-6.36,3.22-9.36c0-1.27-0.21-5.66-2.96-8.76c-2.27-3-6.21-4.71-10.8-4.71
	c-7.71,0-13.52,5.71-13.52,13.28c0,7.66,5.63,11.79,10.93,11.79c0.33,0,0.78-0.04,1.14-0.07c0.66-0.05,0.75-0.06,0.85,0.04
	l0.15,0.15l-0.12,0.17c-0.25,0.36-0.52,0.73-0.8,1.1c-0.2,0.27-0.4,0.54-0.6,0.82L16.02,54.13z M24.31,36.02
	c-3.34,0-5.14-2.62-5.14-5.1c0-2.8,2.26-5,5.14-5c2.49,0,5.14,1.79,5.14,5.1v0.05C29.45,33.89,27.24,36.02,24.31,36.02z
	 M24.31,26.42c-2.28,0-4.64,1.68-4.64,4.5c0,2.23,1.63,4.6,4.64,4.6c2.65,0,4.64-1.91,4.64-4.45v-0.05
	C28.95,28.03,26.56,26.42,24.31,26.42z"/>
<path style="fill-rule:evenodd;clip-rule:evenodd;fill:#FFFFFF;" d="M28.2,30.02c0-3.22-2.59-4.85-4.89-4.85
	c-2.59,0-4.89,1.92-4.89,4.75c0,2.3,1.68,4.84,4.89,4.84c2.98,0,4.89-2.21,4.89-4.7V30.02L28.2,30.02z M14.53,53.38l6.43-8.78
	c0.48-0.67,0.96-1.29,1.39-1.92c-0.05-0.05-1.15,0.1-1.82,0.1c-5.18,0-11.18-3.98-11.18-12.04c0-8.11,6.28-13.53,13.77-13.53
	c4.46,0,8.59,1.63,10.99,4.8c2.25,2.54,3.02,6.19,3.02,8.92c0,3.6-1.49,6.76-3.26,9.5l-8.83,12.95H14.53z"/>
<path style="fill-rule:evenodd;clip-rule:evenodd;fill:#918A8A;" d="M8.5,45.5L8.5,45.5C8.78,45.5,9,45.72,9,46v19
	c0,0.28-0.22,0.5-0.5,0.5l0,0C8.22,65.5,8,65.28,8,65V46C8,45.72,8.22,45.5,8.5,45.5z M5.5,49.5L5.5,49.5C5.78,49.5,6,49.72,6,50v14
	c0,0.28-0.22,0.5-0.5,0.5l0,0C5.22,64.5,5,64.28,5,64V50C5,49.72,5.22,49.5,5.5,49.5z M11.5,48.5L11.5,48.5c0.28,0,0.5,0.22,0.5,0.5
	v7c0,0.28-0.22,0.5-0.5,0.5l0,0c-0.28,0-0.5-0.22-0.5-0.5v-7C11,48.72,11.22,48.5,11.5,48.5z M42.5,19.5L42.5,19.5
	c0.28,0,0.5,0.22,0.5,0.5v11c0,0.28-0.22,0.5-0.5,0.5l0,0c-0.28,0-0.5-0.22-0.5-0.5V20C42,19.72,42.22,19.5,42.5,19.5z M42.5,12.5
	L42.5,12.5c0.28,0,0.5,0.22,0.5,0.5v4c0,0.28-0.22,0.5-0.5,0.5l0,0c-0.28,0-0.5-0.22-0.5-0.5v-4C42,12.72,42.22,12.5,42.5,12.5z
	 M39.5,8.5L39.5,8.5C39.78,8.5,40,8.72,40,9v12c0,0.28-0.22,0.5-0.5,0.5l0,0c-0.28,0-0.5-0.22-0.5-0.5V9C39,8.72,39.22,8.5,39.5,8.5
	z"/>
</svg>
