<?xml version="1.0" encoding="utf-8"?>
<!-- Generator: Adobe Illustrator 26.5.0, SVG Export Plug-In . SVG Version: 6.00 Build 0)  -->
<svg version="1.1" id="圖層_1" xmlns="http://www.w3.org/2000/svg" xmlns:xlink="http://www.w3.org/1999/xlink" x="0px" y="0px"
	 width="48px" height="66px" viewBox="0 0 48 66" style="enable-background:new 0 0 48 66;" xml:space="preserve">
<path style="opacity:0.1;fill:#F8EB01;enable-background:new    ;" d="M31.03,66C31.03,66,31.02,66,31.03,66h-5.29
	c-2.95,0-5.7-1.06-7.74-2.99c-2.1-1.98-3.25-4.69-3.25-7.63v-2.29c0-2.72,1.01-5.22,2.86-7.06c-1.14-1.74-1.74-3.8-1.74-5.97v-1.54
	c0-3.12,1.05-5.97,2.96-8.01c1.96-2.09,4.74-3.24,7.82-3.24h3.62c3.1,0,5.89,1.15,7.84,3.24c1.9,2.03,2.95,4.88,2.95,8v1.54
	c0.01,2.17-0.61,4.26-1.82,6.06c1.84,1.85,2.82,4.25,2.82,6.97v2.29c0,2.88-1.14,5.56-3.2,7.55C36.79,64.91,34.01,66,31.03,66z
	 M26.65,27.78c-2.94,0-5.59,1.09-7.45,3.08c-1.82,1.94-2.83,4.66-2.83,7.66v1.54c0,2.14,0.61,4.17,1.77,5.86l0.12,0.18l-0.16,0.15
	c-1.84,1.76-2.86,4.19-2.86,6.85v2.29c0,2.8,1.1,5.38,3.09,7.26c1.95,1.84,4.58,2.85,7.39,2.85h5.29l0,0c2.86,0,5.51-1.04,7.48-2.93
	c1.96-1.89,3.05-4.44,3.05-7.18V53.1c0-2.65-0.97-4.99-2.81-6.75l-0.16-0.15l0.12-0.18c1.22-1.75,1.86-3.81,1.85-5.95v-1.54
	c0-3-1-5.72-2.81-7.66c-1.86-1.98-4.51-3.08-7.47-3.08L26.65,27.78L26.65,27.78z M30.31,57.84h-3.87c-1.71,0-3.55-1.01-3.55-3.21
	v-0.62c0-1.95,1.52-3.42,3.55-3.42h3.87c2.02,0,3.55,1.47,3.55,3.42v0.62C33.86,56.84,32.02,57.84,30.31,57.84z M26.44,51.1
	c-1.73,0-3.04,1.25-3.04,2.91v0.62c0,1.86,1.57,2.7,3.04,2.7h3.87c1.46,0,3.04-0.85,3.04-2.7v-0.62c0-1.66-1.31-2.91-3.04-2.91
	H26.44z M29.98,43.4h-3.04c-2.45,0-2.71-2.57-2.71-3.67v-0.79c0-1.1,0.26-3.67,2.71-3.67h3.04c1.7,0,2.71,1.37,2.71,3.67v0.79
	C32.69,42.03,31.68,43.4,29.98,43.4z M26.94,35.77c-1.92,0-2.2,1.98-2.2,3.16v0.79c0,1.18,0.29,3.16,2.2,3.16h3.04
	c1.92,0,2.2-1.98,2.2-3.16v-0.79c0-1.18-0.29-3.16-2.2-3.16H26.94z"/>
<path style="opacity:0.25;fill:#F8EB01;enable-background:new    ;" d="M30.01,64.98L30.01,64.98h-5.29c-2.95,0-5.7-1.06-7.74-2.99
	c-2.1-1.98-3.25-4.69-3.25-7.63v-2.29c0-2.72,1.01-5.22,2.86-7.06c-1.14-1.74-1.74-3.8-1.74-5.97V37.5c0-3.12,1.05-5.97,2.96-8.01
	c1.96-2.09,4.74-3.24,7.82-3.24h3.62c3.1,0,5.89,1.15,7.84,3.24c1.9,2.03,2.95,4.88,2.95,8v1.54c0.01,2.17-0.61,4.26-1.82,6.06
	c1.84,1.85,2.82,4.25,2.82,6.97v2.29c0,2.88-1.14,5.56-3.2,7.55S33,64.98,30.01,64.98z M25.63,26.77c-2.94,0-5.59,1.09-7.45,3.08
	c-1.82,1.94-2.83,4.66-2.83,7.66v1.54c0,2.14,0.61,4.17,1.77,5.86l0.12,0.18l-0.16,0.15c-1.84,1.76-2.86,4.19-2.86,6.85v2.29
	c0,2.8,1.1,5.38,3.09,7.26c1.95,1.84,4.58,2.85,7.39,2.85h5.29l0,0c2.86,0,5.51-1.04,7.48-2.93c1.96-1.89,3.05-4.44,3.05-7.18v-2.29
	c0-2.65-0.97-4.99-2.81-6.75l-0.16-0.15l0.12-0.18c1.22-1.75,1.86-3.81,1.85-5.95V37.5c0-3-1-5.72-2.81-7.66
	c-1.86-1.98-4.51-3.08-7.47-3.08h-3.61V26.77z M29.3,56.83h-3.87c-1.71,0-3.55-1.01-3.55-3.21V53c0-1.95,1.52-3.42,3.55-3.42h3.87
	c2.02,0,3.55,1.47,3.55,3.42v0.62C32.84,55.82,31.01,56.83,29.3,56.83z M25.43,50.08c-1.73,0-3.04,1.25-3.04,2.91v0.62
	c0,1.86,1.57,2.7,3.04,2.7h3.87c1.46,0,3.04-0.85,3.04-2.7v-0.62c0-1.66-1.31-2.91-3.04-2.91H25.43z M28.96,42.38h-3.04
	c-2.45,0-2.71-2.57-2.71-3.67v-0.79c0-1.1,0.26-3.67,2.71-3.67h3.04c1.7,0,2.71,1.37,2.71,3.67v0.79
	C31.68,41.01,30.66,42.38,28.96,42.38z M25.92,34.76c-1.92,0-2.2,1.98-2.2,3.16v0.79c0,1.18,0.29,3.16,2.2,3.16h3.04
	c1.92,0,2.2-1.98,2.2-3.16v-0.79c0-1.18-0.29-3.16-2.2-3.16C28.96,34.76,25.92,34.76,25.92,34.76z"/>
<path style="opacity:0.5;fill:#F8EB01;enable-background:new    ;" d="M28.99,63.97L28.99,63.97H23.7c-2.95,0-5.7-1.06-7.74-2.99
	c-2.1-1.98-3.25-4.69-3.25-7.63v-2.29c0-2.72,1.01-5.22,2.86-7.06c-1.14-1.74-1.74-3.8-1.74-5.97v-1.54c0-3.12,1.05-5.97,2.96-8.01
	c1.96-2.09,4.74-3.24,7.82-3.24h3.62c3.1,0,5.89,1.15,7.84,3.24c1.9,2.03,2.95,4.88,2.95,8v1.54c0.01,2.17-0.61,4.26-1.82,6.06
	c1.84,1.85,2.82,4.25,2.82,6.97v2.29c0,2.88-1.14,5.56-3.2,7.55C34.76,62.87,31.98,63.97,28.99,63.97z M24.62,25.75
	c-2.94,0-5.59,1.09-7.45,3.08c-1.82,1.94-2.83,4.66-2.83,7.66v1.54c0,2.14,0.61,4.17,1.77,5.86l0.12,0.18l-0.16,0.15
	c-1.84,1.76-2.86,4.19-2.86,6.85v2.29c0,2.8,1.1,5.38,3.09,7.26c1.95,1.84,4.58,2.85,7.39,2.85h5.29l0,0c2.86,0,5.51-1.04,7.48-2.93
	c1.96-1.89,3.05-4.44,3.05-7.18v-2.29c0-2.65-0.97-4.99-2.81-6.75l-0.16-0.15l0.12-0.18c1.22-1.75,1.86-3.81,1.85-5.95V36.5
	c0-3-1-5.72-2.81-7.66c-1.86-1.98-4.51-3.08-7.47-3.08L24.62,25.75L24.62,25.75z M28.28,55.81h-3.87c-1.71,0-3.55-1.01-3.55-3.21
	v-0.62c0-1.95,1.52-3.42,3.55-3.42h3.87c2.02,0,3.55,1.47,3.55,3.42v0.62C31.83,54.8,29.99,55.81,28.28,55.81z M24.41,49.06
	c-1.73,0-3.04,1.25-3.04,2.91v0.62c0,1.86,1.57,2.7,3.04,2.7h3.87c1.46,0,3.04-0.85,3.04-2.7v-0.62c0-1.66-1.31-2.91-3.04-2.91
	H24.41z M27.95,41.36h-3.04c-2.45,0-2.71-2.57-2.71-3.67V36.9c0-1.1,0.26-3.67,2.71-3.67h3.04c1.7,0,2.71,1.37,2.71,3.67v0.79
	C30.66,39.99,29.64,41.36,27.95,41.36z M24.91,33.74c-1.92,0-2.2,1.98-2.2,3.16v0.79c0,1.18,0.29,3.16,2.2,3.16h3.04
	c1.92,0,2.2-1.98,2.2-3.16V36.9c0-1.18-0.29-3.16-2.2-3.16H24.91z"/>
<path style="opacity:0.75;fill:#F8EB01;enable-background:new    ;" d="M27.97,62.95L27.97,62.95h-5.29c-2.95,0-5.7-1.06-7.74-2.99
	c-2.1-1.98-3.25-4.69-3.25-7.63v-2.29c0-2.72,1.01-5.22,2.86-7.06c-1.14-1.74-1.74-3.8-1.74-5.97v-1.54c0-3.12,1.05-5.97,2.96-8.01
	c1.96-2.09,4.74-3.24,7.82-3.24h3.62c3.1,0,5.89,1.15,7.84,3.24c1.9,2.03,2.95,4.88,2.95,8V37c0.01,2.17-0.61,4.26-1.82,6.06
	c1.84,1.85,2.82,4.25,2.82,6.97v2.29c0,2.88-1.14,5.56-3.2,7.55C33.74,61.86,30.96,62.95,27.97,62.95z M23.6,24.73
	c-2.94,0-5.59,1.09-7.45,3.08c-1.82,1.94-2.83,4.66-2.83,7.66v1.54c0,2.14,0.61,4.17,1.77,5.86l0.12,0.18l-0.16,0.15
	c-1.84,1.76-2.86,4.19-2.86,6.85v2.29c0,2.8,1.1,5.38,3.09,7.26c1.95,1.84,4.58,2.85,7.39,2.85h5.29l0,0c2.86,0,5.51-1.04,7.48-2.93
	c1.96-1.89,3.05-4.44,3.05-7.18v-2.29c0-2.65-0.97-4.99-2.81-6.75l-0.16-0.15l0.12-0.18c1.22-1.75,1.86-3.81,1.85-5.95v-1.54
	c0-3-1-5.72-2.81-7.66c-1.86-1.98-4.51-3.08-7.47-3.08L23.6,24.73L23.6,24.73z M27.26,54.79h-3.87c-1.71,0-3.55-1.01-3.55-3.21
	v-0.62c0-1.95,1.52-3.42,3.55-3.42h3.87c2.02,0,3.55,1.47,3.55,3.42v0.62C30.81,53.79,28.97,54.79,27.26,54.79z M23.39,48.04
	c-1.73,0-3.04,1.25-3.04,2.91v0.62c0,1.86,1.57,2.7,3.04,2.7h3.87c1.46,0,3.04-0.85,3.04-2.7v-0.62c0-1.66-1.31-2.91-3.04-2.91
	H23.39z M26.93,40.35h-3.04c-2.45,0-2.71-2.57-2.71-3.67v-0.79c0-1.1,0.26-3.67,2.71-3.67h3.04c1.7,0,2.71,1.37,2.71,3.67v0.79
	C29.64,38.97,28.63,40.35,26.93,40.35z M23.89,32.72c-1.92,0-2.2,1.98-2.2,3.16v0.79c0,1.18,0.29,3.16,2.2,3.16h3.04
	c1.92,0,2.2-1.98,2.2-3.16v-0.79c0-1.18-0.29-3.16-2.2-3.16C26.93,32.72,23.89,32.72,23.89,32.72z"/>
<path style="fill-rule:evenodd;clip-rule:evenodd;fill:#FFFFFF;" d="M19.08,49.94c0-1.8,1.42-3.17,3.29-3.17h3.87
	c1.88,0,3.29,1.36,3.29,3.17v0.62c0,2.03-1.71,2.96-3.29,2.96h-3.87c-1.59,0-3.29-0.93-3.29-2.96L19.08,49.94L19.08,49.94z
	 M28.37,35.66c0,1.03-0.24,3.42-2.46,3.42h-3.04c-2.22,0-2.46-2.39-2.46-3.42v-0.79c0-1.03,0.24-3.42,2.46-3.42h3.04
	c2.22,0,2.46,2.39,2.46,3.42C28.37,34.87,28.37,35.66,28.37,35.66z M34.84,42.09c1.24-1.79,1.9-3.92,1.89-6.09v-1.54
	c0-3.07-1.02-5.85-2.88-7.83c-1.9-2.04-4.62-3.16-7.65-3.16h-3.62c-3.02,0-5.73,1.12-7.64,3.16c-1.87,1.99-2.9,4.77-2.9,7.83V36
	c0,2.21,0.62,4.26,1.81,6c-1.88,1.79-2.93,4.3-2.93,7.03v2.29c0,2.87,1.13,5.51,3.17,7.44c2,1.89,4.69,2.92,7.57,2.92h5.29
	c6.04,0,10.78-4.55,10.78-10.36v-2.29C37.73,46.31,36.72,43.88,34.84,42.09z"/>
<path style="fill-rule:evenodd;clip-rule:evenodd;fill:#918A8A;" d="M9.76,6L9.76,6c0.28,0,0.51,0.23,0.51,0.51v19.33
	c0,0.28-0.23,0.51-0.51,0.51l0,0c-0.28,0-0.51-0.23-0.51-0.51V6.51C9.25,6.23,9.48,6,9.76,6z M1.62,26.35L1.62,26.35
	c0.28,0,0.51,0.23,0.51,0.51v11.19c0,0.28-0.23,0.51-0.51,0.51l0,0c-0.28,0-0.51-0.23-0.51-0.51V26.86
	C1.11,26.57,1.34,26.35,1.62,26.35z M46.38,24.31L46.38,24.31c0.28,0,0.51,0.23,0.51,0.51v19.33c0,0.28-0.23,0.51-0.51,0.51l0,0
	c-0.28,0-0.51-0.23-0.51-0.51V24.82C45.87,24.54,46.1,24.31,46.38,24.31z M42.31,18.21L42.31,18.21c0.28,0,0.51,0.23,0.51,0.51
	v14.24c0,0.28-0.23,0.51-0.51,0.51l0,0c-0.28,0-0.51-0.23-0.51-0.51V18.72C41.8,18.44,42.03,18.21,42.31,18.21z M5.69,16.17
	L5.69,16.17c0.28,0,0.51,0.23,0.51,0.51v25.43c0,0.28-0.23,0.51-0.51,0.51l0,0c-0.28,0-0.51-0.23-0.51-0.51V16.68
	C5.18,16.4,5.41,16.17,5.69,16.17z"/>
</svg>
