<svg width="78" height="90" viewBox="0 0 78 90" xmlns="http://www.w3.org/2000/svg" xmlns:xlink="http://www.w3.org/1999/xlink">
    <defs>
        <linearGradient x1="58.765%" y1="71.997%" x2="33.699%" y2="34%" id="x11lh6cqna">
            <stop stop-color="#AF9B80" offset="0%"/>
            <stop stop-color="#776249" offset="100%"/>
        </linearGradient>
        <linearGradient x1="50%" y1="-49.522%" x2="50%" y2="36.397%" id="8brbvazvnb">
            <stop stop-color="#AF9B80" offset="0%"/>
            <stop stop-color="#776249" offset="100%"/>
        </linearGradient>
        <linearGradient x1="100%" y1="40.636%" x2="25.631%" y2="50%" id="ebc886ogic">
            <stop stop-color="#8C795E" offset="0%"/>
            <stop stop-color="#54422D" offset="100%"/>
        </linearGradient>
        <linearGradient x1="28.257%" y1="30.829%" x2="36.723%" y2="52.133%" id="jeoc8ohhkd">
            <stop stop-color="#AF9B80" offset="0%"/>
            <stop stop-color="#68543B" offset="100%"/>
        </linearGradient>
        <linearGradient x1="-30.6%" y1="58.331%" x2="27.197%" y2="35.328%" id="sco6rwg1ne">
            <stop stop-color="#AF9B80" offset="0%"/>
            <stop stop-color="#654D31" offset="100%"/>
        </linearGradient>
        <linearGradient x1="71.653%" y1="-8.413%" x2="45.467%" y2="50%" id="dn227x3v9f">
            <stop stop-color="#AF9B80" offset="0%"/>
            <stop stop-color="#776249" offset="100%"/>
        </linearGradient>
        <linearGradient x1="51.746%" y1="94.359%" x2="44.904%" y2="20.864%" id="thod6e4tsg">
            <stop stop-color="#495E65" offset="0%"/>
            <stop stop-color="#3A4E56" offset="100%"/>
        </linearGradient>
        <path id="3kv2hsh78h" d="M0 0h46.06v21.662H0z"/>
    </defs>
    <g fill="none" fill-rule="evenodd">
        <path d="m37.317 9.793 14.876 23.773.05.963s-38.027 7.449-38.31 7.449c-.285 0-3.06-.237-3.06-.237L2.847 20.216l-1.612-6.158 5.603-5.914 30.48 1.649z" fill="url(#x11lh6cqna)" transform="translate(.603 .62)"/>
        <path d="m37.666 10.844 14.692 23.481.025.462c-14.937 2.926-37.103 7.255-37.862 7.367a114.75 114.75 0 0 1-2.728-.212l-7.921-21.24-1.544-5.898L7.621 9.22l30.045 1.625zm15.566 23.204L38.172 9.982 7.26 8.309l-5.914 6.243 1.675 6.397 8.09 21.7.049.13.294.026c.655.056 2.811.237 3.082.237.284 0 24.179-4.672 38.397-7.457l.378-.074-.078-1.463z" fill="#231815"/>
        <path fill="url(#8brbvazvnb)" d="M2.75 3.595 40.61.467l-2.555 9.269-36.82 4.322z" transform="translate(.603 .62)"/>
        <path d="m2.358 14.17 1.383-9.541 36.874-3.047-2.306 8.368-35.95 4.22zM41.47.62 2.965 3.801l-1.65 11.385 37.69-4.423 2.68-9.724L41.47.62z" fill="#231815"/>
        <path fill="url(#ebc886ogic)" d="m49.993 42.652 11.2 2.92 4.313 10.121-37.309 9.477-11.2-12.813 16.876-6.786z" transform="translate(.603 .62)"/>
        <path fill="url(#jeoc8ohhkd)" d="m10.385 41.288 42.18-7.961v12.51l-42.18 9.645z" transform="translate(.603 .62)"/>
        <path d="M52.725 34.483v11.62L11.43 55.545V42.276l41.294-7.793zm.494-.997L10.905 41.47l-.079.015-.282.342v14.831l43.067-9.848V33.66l-.392-.173z" fill="#231815"/>
        <path fill="url(#sco6rwg1ne)" d="M52.566 33.327 76.48 44.054v15.24L52.566 45.912z" transform="translate(.603 .62)"/>
        <path d="M53.611 46.27V34.627L76.64 44.965v14.198L53.61 46.27zm-.886-13.003v13.529l24.224 13.55.082.047.495-.15V44.385L52.725 33.267z" fill="#231815"/>
        <path d="m40.609.467-3.292 9.326 5.599 8.947c.068-.172.148-.337.244-.488.607-.95 1.54-1.02 2.083-.157.544.863.493 2.334-.114 3.284a2.103 2.103 0 0 1-.318.39l7.382 11.797 1.73-7.192L40.609.467z" fill="url(#dn227x3v9f)" transform="translate(.603 .62)"/>
        <path d="M45.966 22.437c.05-.063.096-.13.14-.198.7-1.098.751-2.75.114-3.76-.328-.522-.796-.81-1.321-.812-.52 0-1.025.295-1.407.816L38.41 10.36l2.878-8.154 12.769 24.846-1.445 6.005-6.645-10.62zM41.47.62l-.581.048-3.46 9.8 6.179 9.873.322-.817c.062-.155.13-.294.206-.412.223-.348.508-.557.764-.557.207.001.41.142.57.397.453.718.401 2.004-.112 2.808-.074.116-.158.22-.25.309l-.262.25 7.648 12.223.407-.119.265.119 1.83-7.604L41.47.62z" fill="#231815"/>
        <path d="M2.75 3.595.463 13.773l3.464 9.307c.027-.079.053-.158.081-.234.676-1.823 1.635-2.31 2.141-1.086.507 1.223.37 3.693-.306 5.515-.06.162-.122.312-.186.451l5.218 14.015 1.765-7.607-9.888-30.54z" fill="url(#thod6e4tsg)" transform="translate(.603 .62)"/>
        <path d="m12.782 34.774-1.405 6.051-4.64-12.465c.043-.1.084-.204.123-.31.708-1.91.843-4.53.3-5.84-.35-.845-.87-.956-1.145-.948-.524.01-1.033.445-1.46 1.238l-3.03-8.138L3.43 5.893l9.352 28.881zM3.697 3.838l-.389-.032-.34.103L.603 14.425 4.55 25.03l.414-1.233.061-.175c.443-1.194.887-1.469 1.007-1.471h.002c.068 0 .193.125.307.4.47 1.133.329 3.461-.313 5.191a6.268 6.268 0 0 1-.173.422l-.076.167 5.796 15.567 2.127-9.162L3.697 3.838z" fill="#231815"/>
        <path d="M31.484 39.603c-2.676.623-4.344.977-5.004 1.061-.99.127-2.53-.25-2.92-1.363-.391-1.113-3.115-3.08-4.926-1.364-1.207 1.144-.817 2.12 1.172 2.927 4.345 2.241 6.562 3.31 6.648 3.207.087-.103 1.957-1.207 5.612-3.312l-.582-1.156z" fill="#813924"/>
        <path d="M21.655 37.38c.918.4 1.743 1.148 2.008 1.782l.03.076c.308.879 1.584 1.376 2.709 1.233l.1-.014.24-.038.38-.07.465-.09.55-.116.916-.199.918-.206 1.226-.282.34-.08.735 1.461-2.783 1.61-1.826 1.07-.789.472-.253.159-.058.04-.019.018-.017.014-.022.01-.027.007-.03.004h-.055l-.066-.008-.078-.016-.059-.015-.098-.028-.112-.038-.125-.045-.189-.075-.215-.09-.308-.138-.355-.163-.668-.321-.912-.453-1.23-.622-2.316-1.188c-2.089-.847-2.544-1.986-1.216-3.244.883-.838 2.04-.926 3.21-.417zm-2.938.701c-1.087 1.03-.761 1.844 1.11 2.603l1.247.64 1.459.743 1.087.545.792.39.708.342.414.193.26.118.15.065.196.081.105.04.081.027.016.005.107-.072.231-.148.515-.314.816-.484 1.205-.705 2.538-1.468-.43-.852-1.434.33-.902.201-.78.169-.554.115-.383.076-.328.061-.273.047-.218.031c-1.256.16-2.675-.376-3.1-1.41l-.031-.082c-.188-.535-.962-1.253-1.823-1.628-1.035-.451-2.025-.375-2.781.341z" fill="#231815" fill-rule="nonzero"/>
        <path fill="#CCC3B4" d="m29.688 40.476.15-1.33 1.01-1.3 1.022-.775.603-.244.963.244 2.56 2.154-1.245-.475-.823.039-1.192.246-.967.433-.73.375z"/>
        <path fill="#606060" d="m32.473 36.827.974-.676.55.205 1.779 1.612 3.743 3.459H39.3l-2.728-2.07-1.58-1.178-1.418-1.108z"/>
        <path fill="#CF5531" d="m17.503 38.078.866-.511H20.234l.826.422 1.08 1.331 1.588 1.989.699.589 1.037.136 1.673-.293 2.88-1.343 1.164-.627 1.122-.747 1.292-.369 1.156.095 1.618.693 1.284.721-.419.367-.627-.292-1.509-.602-.593-.338-1.157.169-1.235.507-2.562 1.416-2.732 1.08-.931.154-.975.097-1.376-.645-1.111-1.2-1.027-1.27-.741-.952-.657-.349h-.932l-1.448.659z"/>
        <path fill="#71859E" d="m59.3 50.54-1.44 2.718-3.794.69-.761.458-6.069-.173-7.01-.558-4.594-.417-7.627-2.027-10.714-4.094.393-6.037.835-2.607.995-.187.877.35 1.218 1.482 1.526 1.38 1.059.991 1.312.116 1.715-.4 2.617-.916 1.534-.827 1.364-.875 1.261-.287 1.242.148 2.602 1.467 6.776 4.321 3.062 1.88 3.086 1.058 1.753.29 4.432.47 1.397.256z"/>
        <path fill="#606060" d="m47.679 47.137 1.33 1.1 1.806 1.055 1.618.677 1.604.412h.898l1.274-.412 1.556-.92.846.016.155.405-1.24.784-1.333.832-3.208.935-2.35.658-.381.142.031.285 1.414 1.3h-1.7L48.46 52.9l-3.192-3.39-1.73-2.79-.731-2.06.214-.445 1.306.85z"/>
        <path fill="#71859E" d="m47.514 48.685 1.406.612 2.572 1.242.556.317v.476l-2.16.368-.778-.052-.556-.538-1.508-1.9.104-.289z"/>
        <path fill="#F4EFEA" d="m16.768 42.034.65-1.886.203-1.183.898-.472.995-.187-.148.35-.466 1.116-.106.816.19.721 1.928 1.927 2.223 1.366 9.503-.808 1.846-.158.466-.236-.19-.532-.79-.598-1.497.727-.763.24h-.571l-.59-.342.378-.753 1.81-1.265.98-.565.81.318.712.47.865.354.588.688-.408 1.094.05.52L35.24 44.9l-5.221.526-3.94.217-.572.169v.41l.89.366 2.244-.139 6.014-.806-1.37 1.36-4.136.48-.396.116.306.384 4.135 1.711 4.27 1.29 3.292.578.972-.151-.206-.343-2.476-2.211.955-1.188.59.567 3.736 3.624 2.91 2.373-4.43-.358-4.638-.617-.764-.733-2.653-.963-2.448-.642-2.943-.233-2.811-1.477-4.171-2.649-3.71-2.767z"/>
        <path fill="#1B1E23" d="m29.429 47.345 4.462-.487h2.996l2.322 2.223 2.312 1.987.206.343-.972.151-4.98-1.044-3.757-1.208-2.404-1.095-.862-.616.396-.116z"/>
        <path fill="#3D4251" d="m36.002 43.794 2.274.9-.27 1.755 1.167-1.374 2.223 1.147-3.852 3.992-.63-.004-1.35-.7.068-1.802-1.042 1.289-2.117-1.099z"/>
        <path fill="#F4EFEA" d="m59.051 49.51.461.316.381 1.141-.159 1.807-2.08.554-2.128.444-2.287-1.157-.387-.523.498-.2 1.758-.481 2.354-.908.668-.598z"/>
        <path fill="#CCC3B4" d="m15.237 50.214-.26 1.017.232 1.322-.362.564-.14.845v.734h.53l2.054.462 1.853.452.615.033.632-.117.513.306 1.024.363 2.139-.011 1.132-.162.424-.082 1.46.299 1.398.087 1.922-.209 1.35-.177 1.556.066 1.639.506 8.072.24 5.222-.08 3.87-.396 4.203-1.225 1.44-.455 1.355-.985.402-.679-1.652.326-2.925.736-2.651.361-8.923-.248-4.006-.702-4.407-.964-4.777-1.03-5.577-.48-3.878-.106-3.032-.363-2.341-.493z"/>
        <path fill="#999184" d="m31.499 55.79-1.328-1.094-1.53-.734-1.08-.287v-.579l.678.163 2.455.302 2.562.882 2.583 1.497.636.62-1.527-.048-1.028-.317-.876-.255z"/>
        <path fill="#606060" d="m15.169 52.882.534-.357h1.249l1.059.357 1.037.523 1.652 1.29.402-.588.805-.413 1.1.181 1.06.467 1.058.593.369.286.329-.286.34-.545 1.127-.063 1.768.369 1.821.947-.158.147-4.384-.234-4.843-.421-3.303-.713-1.906-.38-1.462-.637z"/>
        <path fill="#3D4251" d="m38.168 53.257 1.51.976 2.159.6 5.298.302h3.15l1.827-.15 2.016-.492.286-.386-1.658.235-2.947.08-2.573-.19-3.366-.254-4.256-.54zM16.768 42.034l1.105 1.044 3.031 2.422 2.273 1.637 2.518 1.585 3.363 1.923 1.869.766-2.922-.18-4.468-.393H19.98l-4.235-.694-.402-.492v-3.486l.296-2.107.614-1.295z"/>
        <path fill="#3D4251" d="m35.458 56.524 2.986.142 6.31.087 3.488-.08 3.478-.264 3.028-.862 3.007-.951 1.355-.985.624-1.212.223-.988.38.45v.643l-.253.754-1.096 1.243-1.112.774-.57.097-.208-.46-.646.191-.06.711-.48.324-1.651.328-.707.031-.235-.454-.71.18-.053.53-.272.167-2.747.39-.44-.094-.236-.463-.825.072-.138.486-.35.264-2.55-.084-.534-.074-.24-.509h-.762l-.106.44-.265.227-2.9-.158-.403-.349-.02-.315h-.985l-.106.411-.286.185-3.05-.43-.393-.01-.189-.401zM14.864 54.543l.593.153 2.247.566.931.294 1.124.087.507-.191.638.38 1.024.363 1.79.044 1.227-.3 1.006.083 1.228.387 2.192-.083.773-.142-.509.578-1.948.274-1.408-.172-.584-.669-.496-.173-.455.217-.36.473-1.692.152-1.463-.198-.54-.427-.2-.544-.456.094-.667.62h-.572l-2.594-.853-1.336-.21-.252-.36z"/>
        <g transform="translate(14.493 36.027)">
            <mask id="74e9ks8u1i" fill="#fff">
                <use xlink:href="#3kv2hsh78h"/>
            </mask>
            <path d="M45.616 16.866c-.494 1.248-2.377 2.325-2.633 2.333-.075-.008-.105-.038-.122-.06-.041-.057-.05-.146-.049-.217 1.02-.328 1.665-.841 2.072-1.385.262-.318.355-.566.38-.648.204-.46.275-.898.295-1.216.212.363.23.757.057 1.193zm-3.023 1.779-.076.023-.002.006a9.703 9.703 0 0 1-1.075.323c-.54.13-1.006.28-1.5.437-2.386.765-5.076 1.626-17.772.975l.016-.017c-.022-.02-.56-.51-1.628-1.146-.98-.583-2.614-1.403-4.82-1.994-.046-.013-1.122-.322-1.98-.35-.585-.018-.989.142-1.029.41-.022.149.057.356.56.492.698.189 2.669 1.119 3.401 1.83a13.004 13.004 0 0 0-2.531-1.19c-1.168-.392-2.24-.455-2.67-.158a.41.41 0 0 0-.196.33c-.008.229-.249.247-.299.249-.223.008-.57-.221-.942-.463-.606-.393-1.36-.883-2.23-.883-1.149 0-1.541.61-1.665.913-.185-.08-.469-.322-.745-.558-.581-.495-1.377-1.174-2.31-1.373-1.162-.247-1.813-.162-2.076-.1-.18-.314-.648-1.302-.066-2.284.667.16 3.92.917 5.837.863 2.067-.059 8.953.168 12.864 1.42.913.291 2.201.592 3.7.873.4.321 1.722 1.29 3.467 1.558 1.322.203 4.916.454 7.791.454 1.41 0 2.647-.06 3.358-.216 1.41-.31 2.183-.636 2.248-.948 2.732-.576 4.03-.897 4.583-1.043-.237.377-.828 1.04-2.213 1.567zm-.867 1.14c-.255.077-1.682.502-2.24.54-.144.01-.254-.02-.326-.088a.376.376 0 0 1-.1-.185c.347-.1.667-.203.982-.304.487-.156.947-.303 1.476-.431.093-.023.183-.046.271-.07.086.318-.02.486-.063.538zm-3.916.941c-.256.04-2.191.343-2.775.382-.145.01-.255-.02-.326-.088a.39.39 0 0 1-.105-.21c1.425-.114 2.474-.28 3.326-.469.043.254-.076.357-.12.385zm-4.653.594c-.26.004-2.219.032-2.802-.011-.145-.01-.25-.055-.31-.133a.381.381 0 0 1-.074-.208c1.286-.001 2.392-.028 3.353-.076.034.307-.116.404-.167.428zm-4.565.001c-.26-.007-2.218-.062-2.799-.13-.144-.016-.246-.065-.305-.146a.354.354 0 0 1-.06-.164c1.226.043 2.34.07 3.352.08-.003.26-.14.34-.188.36zm-4.67-.184c-.312-.033-2.536-.272-3.12-.34-.172-.02-.29-.07-.344-.146l-.004-.006c1.31.076 2.523.137 3.648.185-.018.212-.131.285-.18.307zm-3.703-.835c-.215-.13-1.253-.684-3.028-.567-.497-.86-3.068-2.046-3.818-2.249-.195-.052-.276-.106-.306-.132.063-.05.276-.135.679-.123.815.026 1.886.334 1.9.338 3.256.872 5.276 2.25 6.006 2.813-.465-.025-.942-.051-1.433-.08zM6.41 18.745l.017-.092c.006-.033.162-.805 1.393-.805.772 0 1.48.46 2.049.83.452.294.81.526 1.13.516.209-.003.606-.126.62-.567.001-.022.02-.046.054-.07.283-.196 1.212-.192 2.378.2.763.255 1.45.59 1.94.859-1.882-.096-5.935-.348-9.581-.871zm9.37 1.207c-.09.016-1.602.28-2.844.2-.768-.048-1.21-.204-1.565-.33-.238-.084-.443-.156-.67-.163-.199-.007-.325.056-.457.122-.26.13-.652.328-2.174.22-1.444-.102-1.598-.344-1.69-.488-.065-.103-.146-.23-.416-.259-.313-.033-.455.041-.58.107-.124.064-.23.12-.59.068-.232-.034-.655-.149-1.145-.282-1.006-.273-2.366-.642-3.279-.631a3.315 3.315 0 0 1 .025-.868C3.798 19.2 12.59 19.776 15.837 19.94l-.057.013zm-2.469.883c-1.552-.048-1.6-.125-1.741-.354a1.963 1.963 0 0 0-.242-.325c.349.123.823.276 1.587.325.842.054 1.778-.04 2.36-.119-.365.237-.994.503-1.964.473zm-3.266-.527c-.087.186-.195.418-1.686.37-1.767-.056-1.81-.16-2.05-.738l-.013-.027c.23.185.675.34 1.75.417 1.174.082 1.727-.012 2.053-.126a1.4 1.4 0 0 0-.054.104zm-5.735-.138a28.415 28.415 0 0 1-.554-.182c-.74-.248-1.663-.557-2.544-.653-.635-.07-.81-.214-.859-.295-.02-.035-.037-.089-.01-.194.865-.02 2.219.347 3.22.62.52.14.932.252 1.185.289.234.033.395.026.517.001-.052.096-.356.601-.955.414zm-3.302-3.422.006-.002c.041-.015.635-.217 2.016.077.85.182 1.58.803 2.165 1.302.273.233.501.426.702.543-2.197-.335-4.196-.773-5.415-1.342.096-.255.258-.474.526-.578zm.664-9.566c.16-.283.311-.576.454-.868 1.115.95 7.72 6.462 13.477 8.89a53.63 53.63 0 0 0-3.04-.337c-2.69-.224-4.898-.241-5.779-.216-1.85.053-5.098-.698-5.748-.854-.055-.753-.314-4.932.636-6.615zm21.238 9.673c-1.255-.248-2.341-.51-3.151-.77a21.275 21.275 0 0 0-2.49-.609 19.664 19.664 0 0 1-1.746-.665c3.584.175 6.19 1.373 7.387 2.044zM3.457 2.99c.12-.081.482-.312.931-.443.14-.04.275-.068.405-.082-.11.141-.242.33-.362.553-.366.676-.45 1.348-.244 1.943.479 1.386 4.057 3.642 4.21 3.738l.046.03L19.7 7.774c.114.016.554.062.776-.178.082-.089.165-.25.095-.52-.17-.656-.97-1.148-1.004-1.168l-.083-.051-2.064 1.195c-.143.027-.92.15-1.05-.28-.125-.416.477-.873.724-1.017l1.527-.953c.007-.004.697-.446 1.134-.186.173.102.328.222.478.337.308.238.6.462.985.492.252.02.494.162.615.362.12.199.121.449.003.723-.28.646-.323 1.072-.328 1.235l-.928 1.023-9.257.776-.031.005c-.12.034-.51.165-.534.432-.014.157.098.294.33.408l.15.073c.37.183.54.267.85.267.108 0 .232-.01.387-.03l7.157-.884-.851.938-3.847.543c-.174.001-.562.03-.676.254-.032.064-.068.195.057.363.191.26 2.316 1.167 4.458 1.903 2.15.74 5.288 1.664 8.037 1.866.04.006.093.01.153.01.141 0 .313-.029.39-.159.043-.075.068-.201-.068-.379-.238-.312-2.035-1.945-2.528-2.391l.8-.888c.762.766 4.696 4.683 6.85 6.183a80.87 80.87 0 0 1-8.592-1.053c-.148-.105-.99-.684-2.432-1.271a17.995 17.995 0 0 0-6.635-1.294C9.157 11.82 3.093 6.707 2.274 6.006A27.265 27.265 0 0 0 3.457 2.99zm-.245-.595c.023-.185.26-.345.356-.394.082-.034 1.062-.425 1.814-.4.713.022 1.491.927 1.555 1.002.1.145 1.37 1.982 2.363 3.02.378.396.93.526 1.491.526 1.043 0 2.122-.449 2.194-.48l3.468-1.608.018-.008.014-.012c.019-.014 1.836-1.416 3.485-1.164 1.664.254 2.947 1.484 2.96 1.496l.23-.236a6.443 6.443 0 0 0-1.082-.807c-.216-.19-2.088-1.82-2.747-2.268a2.065 2.065 0 0 0-.95-.333c.138-.08.258-.158.362-.255a.491.491 0 0 1 .383-.143c.222.015.466.169.669.42.267.333 3.679 3.44 5.658 5.234-2.27-1.402-4.471-2.669-5.216-2.805-1.677-.306-3.362 1.03-3.548 1.183-.285.147-4.368 2.243-6.033 2.188-1.228-.04-2.319-1.423-3.28-2.644-.357-.452-.693-.879-1.015-1.21-.532-.546-1.25-.706-2.074-.463-.431.127-.78.33-.953.442-.09-.099-.132-.193-.122-.28zm13.156-.313a8.104 8.104 0 0 1 1.384-1.01c.131-.023.832-.12 1.393.261.37.252 1.162.912 1.798 1.454a5.029 5.029 0 0 0-.923-.235c-1.725-.264-3.524 1.067-3.723 1.218l-.952.442c-.007-.374.083-1.296 1.023-2.13zm3.603 7.38c-.604.075-6.962.86-7.536.932-.505.063-.567.032-1.05-.206l-.15-.074a.508.508 0 0 1-.137-.088.812.812 0 0 1 .27-.135l8.89-.744-.287.315zm3.08 4.725-1.773-.755.072-2.243-1.347 1.603-1.795-.894 3.505-3.866 1.733.837-.068 2.105 1.385-1.527 1.815.823-3.527 3.917zm.088.395 1.399-1.553c.726.657 2.288 2.087 2.486 2.346a.178.178 0 0 1 .004.006.83.83 0 0 1-.177-.005h-.01c-5.07-.373-11.95-3.32-12.26-3.637a.216.216 0 0 1-.016-.025c.058-.036.233-.07.381-.067h.012l3.478-.491-.764.842 2.417 1.205.9-1.072-.048 1.515 2.198.936zm5.073-6.46c-.102.63-.056 3.51 6.831 10.075a53.81 53.81 0 0 1-1.962-.076c-1.917-1.107-6.533-5.699-7.302-6.47l1.345-1.495-2.444-1.108-.943 1.04.045-1.422-1.94-.938c.011-.16.064-.526.298-1.067.205-.475.1-.818-.024-1.023a1.129 1.129 0 0 0-.872-.52c-.286-.022-.529-.209-.809-.425-.157-.12-.32-.246-.51-.36-.614-.365-1.448.172-1.48.193l-1.52.948c-.045.026-1.095.644-.87 1.394.232.772 1.412.513 1.462.502l.025-.006 1.935-1.12c.191.131.667.496.776.916.026.1.02.172-.018.214-.095.103-.378.093-.5.073l-.02-.004-11.19.948C8.102 8.12 4.912 6.05 4.5 4.854c-.374-1.081.497-2.138.723-2.388a1.5 1.5 0 0 1 .902.46c.31.32.641.74.992 1.184 1.006 1.278 2.147 2.726 3.53 2.77l.07.001c1.839 0 5.964-2.142 6.141-2.234l.03-.02c.017-.014 1.704-1.412 3.29-1.123 1.016.185 5.082 2.715 8.035 4.617zm.315.203a249.415 249.415 0 0 1 2.9 1.901c.011.007.392.248 1.013.58.168.155 2.356 2.144 5.053 3.148 1.264.47 2.114.606 2.674.606.604 0 .87-.158.955-.223l2.457-1.118c.235.047.42.108.539.19-.297.108-.596.305-.952.543-.625.416-1.403.933-2.641 1.298-.398.117-.748.213-1.028.29-.556.153-.89.245-1.08.349-.605.18-2.168.634-2.453.661-.2.02-.324.096-.371.226-.058.16.025.35.254.577.16.16.628.564.95.84-.404.011-.828.015-1.268.01-6.553-6.18-7.023-9.094-7.002-9.878zm9.453 4.458c1.232.17 2.394.218 3.42.261.572.024 1.113.047 1.568.091l-2.003.911-.02.008-.02.019c-.007.005-.703.545-3.316-.428-1.564-.582-2.954-1.504-3.86-2.19 1.2.55 2.728 1.121 4.23 1.328zm1.564 5.48c-.281.126-.775.294-1.64.484-2.126.466-9.074.059-11.028-.241-1.164-.179-2.148-.7-2.758-1.096 1.635.286 3.472.544 5.329.742 4.4.47 8.068.51 10.097.11zm.029-.342c-.628.131-1.406.213-2.288.254-.21-.18-.998-.848-1.205-1.055a.704.704 0 0 1-.17-.225.353.353 0 0 1 .086-.017c.3-.03 1.62-.41 2.236-.59.064.149.254.28.487.428.597.378 1.395.76 1.895.986l-1.041.22zm4.859-4.258a.332.332 0 0 1 .275.071c.234.183.374.635.449 1.01l.068.471c.008.053.094.713-.215 1.465-.223.065-1.19.33-3.845.904-.253-.109-1.47-.64-2.268-1.146-.217-.137-.305-.21-.34-.25.12-.081.544-.198 1.028-.33.282-.078.633-.175 1.034-.293 1.286-.378 2.121-.934 2.73-1.34.428-.284.766-.509 1.084-.562zm1.115 1.457c-.027-.274-.156-1.27-.637-1.645a.659.659 0 0 0-.411-.146c-.335-.498-1.45-.545-3.085-.614-1.019-.043-2.173-.091-3.39-.258-3.131-.43-6.387-2.488-6.416-2.506a243.48 243.48 0 0 0-4.562-2.968C24.741 4.902 20.335.897 20.052.545c-.26-.323-.59-.52-.903-.543a.822.822 0 0 0-.632.232c-.13.121-.304.214-.545.342a8.385 8.385 0 0 0-1.823 1.26c-1.172 1.04-1.153 2.223-1.126 2.525L12.85 5.37c-.023.01-2.388.992-3.312.027-.994-1.039-2.32-2.966-2.334-2.985l-.009-.012c-.037-.044-.914-1.1-1.804-1.128-.854-.027-1.912.41-1.957.428l-.01.005c-.05.025-.492.255-.54.65-.025.203.057.398.243.583-.148.457-.81 2.43-1.743 4.083-1.04 1.845-.719 6.292-.672 6.868-.702 1.11-.223 2.227.002 2.638-.84.496-.697 1.865-.66 2.14-.042.112-.107.336.016.542.144.244.496.388 1.106.454.846.093 1.75.395 2.475.639.2.067.389.13.56.184.72.224 1.187-.266 1.347-.577.044-.043.142-.122.227-.108.075.013.153.107.219.266.34.819.639.887 2.345.942 1.585.05 1.827-.2 1.995-.56.018-.039.033-.071.052-.1.125-.19.376-.193.377-.193h.066c.044.025.141.095.306.294.064.076.105.142.144.205.224.362.35.459 2.012.51.054.002.107.002.158.002 1.537 0 2.27-.707 2.445-.904 2.672-.62 4.156.33 4.17.339l.023.015c.01.066.034.142.084.216.11.162.306.26.581.293.628.072 3.135.34 3.16.343l.028.003.028-.007c.164-.039.424-.217.452-.62l.664.025a.7.7 0 0 0 .124.366c.114.16.294.255.536.283.634.074 2.766.13 2.856.133h.022l.022-.004c.171-.042.448-.236.453-.682l.531.002a.716.716 0 0 0 .144.41c.12.155.305.242.548.26.257.02.76.025 1.274.025.754 0 1.531-.012 1.585-.013h.022l.021-.007c.178-.05.465-.275.42-.768.214-.012.42-.025.62-.04a.729.729 0 0 0 .205.421.697.697 0 0 0 .503.184c.025 0 .05 0 .076-.002.637-.043 2.744-.376 2.833-.39l.022-.003.02-.01c.163-.072.403-.318.319-.767.17-.041.334-.083.491-.126.027.104.08.229.187.331a.697.697 0 0 0 .504.184l.076-.003c.648-.044 2.284-.544 2.353-.565l.031-.01.025-.02c.016-.013.351-.298.188-.9.133-.04.259-.082.381-.124.01.097.04.206.108.299a.49.49 0 0 0 .373.195c.41 0 2.278-1.115 2.887-2.386.356-.742.248-1.44-.308-2.022z" fill="#231815" mask="url(#74e9ks8u1i)"/>
        </g>
        <path d="m48.923 51.318-.01-.024-1.688-2.034c-.098-.188-.104-.298-.075-.339.036-.053.168-.07.262-.063.313.148 3.376 1.592 4.188 1.94.275.118.352.218.354.258.002.04-.061.1-.114.133-.19.041-1.408.303-2.127.366-.647.056-.786-.229-.79-.237m.82.565c.797-.07 2.137-.365 2.193-.378l.022-.005.02-.01c.032-.018.317-.176.306-.447-.01-.213-.19-.392-.554-.548-.846-.362-4.169-1.93-4.202-1.946l-.023-.011-.026-.004c-.043-.005-.427-.05-.6.199-.116.167-.095.4.062.696l.008.015 1.681 2.025c.055.102.279.422.923.422.06 0 .122-.002.19-.008" fill="#231815"/>
        <path d="M41.519 42.403s-.222 1.014.37 1.392c.592.378 1.562.166 1.562.166s.648-.046.7.333c.05.378-.066.713-.838.667-.771-.046-1.543-.102-2.066-.31-.523-.206-.72-1.67-.64-1.848.08-.177.623-.712.912-.4" fill="#CF5531"/>
        <path d="M40.76 42.866c-.018.08.004.44.11.842.112.431.277.727.438.79.489.194 1.232.252 2.015.299.3.018.507-.026.6-.126.066-.07.087-.187.064-.355-.024-.18-.396-.197-.514-.191-.128.026-1.063.198-1.673-.191-.563-.36-.504-1.164-.462-1.458a.172.172 0 0 0-.072-.002c-.208.034-.46.302-.506.392m2.69 2.264c-.047 0-.096-.001-.146-.004-.842-.05-1.583-.11-2.118-.321-.201-.08-.372-.29-.509-.625-.193-.475-.31-1.245-.22-1.445.08-.176.427-.532.756-.585a.456.456 0 0 1 .427.14l.058.064-.018.083c-.003.015-.188.909.298 1.22.528.337 1.43.145 1.438.143l.024-.003c.297-.021.817.055.874.475.037.272-.012.476-.15.623-.146.158-.38.235-.714.235" fill="#231815"/>
        <path fill="#3A3D44" d="m40.273 44.635 1.492.72 1.177-1.542-1.221-.735z"/>
        <path d="m40.545 44.584 1.17.565.985-1.29-.95-.57-1.205 1.295zm1.269.978L40 44.686l1.69-1.818 1.495.899-1.371 1.795z" fill="#231815"/>
        <path d="M38.88 40.39s-.29 1.445.097 1.758c.386.314 1.654-.077 1.654-.077s.329-.35.674-.197c.344.154.349.51-.027.827-.376.317-1.038.709-2.588.453 0 0-.883-1.29-.849-2.219.034-.928 1.038-.545 1.038-.545" fill="#CF5531"/>
        <path d="M38.788 43.003c1.404.218 2.011-.113 2.383-.428.156-.13.239-.274.224-.382-.013-.087-.093-.14-.158-.169-.23-.103-.483.156-.486.16l-.03.03-.041.014c-1.287.397-1.731.11-1.807.048-.207-.168-.29-.539-.254-1.134.015-.254.048-.49.072-.636-.153-.035-.375-.056-.517.038-.104.07-.16.203-.168.397-.028.756.616 1.805.782 2.062m.818.397c-.275 0-.587-.025-.943-.084l-.07-.011-.039-.058c-.037-.055-.913-1.346-.878-2.318.011-.307.118-.529.316-.66.374-.247.923-.042.946-.033l.13.05-.027.136c-.108.544-.17 1.428.04 1.599.213.173.97.05 1.464-.096.107-.1.45-.37.827-.201.199.089.323.239.35.423.032.227-.088.469-.337.68-.31.262-.814.573-1.779.573" fill="#231815"/>
        <path d="m35.548 41.908 2.712-2.215s.261-.205.572.018c.31.223.365.515-.417 1.09-.78.575-2.401 1.57-2.401 1.57s-.296.07-.47-.063c-.176-.132.004-.4.004-.4" fill="#CF5531"/>
        <path d="M35.674 42.018c-.029.052-.06.138-.03.16.081.061.24.049.308.037.208-.128 1.652-1.02 2.365-1.546.49-.361.563-.55.563-.632 0-.038-.016-.1-.145-.193-.207-.149-.371-.023-.373-.022l-2.688 2.196zm.164.536a.652.652 0 0 1-.394-.114c-.206-.156-.161-.432-.034-.623l.014-.02 2.732-2.232a.645.645 0 0 1 .772.012c.188.136.28.285.281.458.002.266-.213.543-.696.899-.777.572-2.397 1.567-2.413 1.577l-.023.014-.025.006a.978.978 0 0 1-.214.023z" fill="#231815"/>
        <path fill="#3A3D44" d="m37.188 43.217 1.492.72 1.546-1.893-1.222-.735z"/>
        <path d="m37.463 43.167 1.172.566 1.343-1.646-.946-.569-1.569 1.649zm1.263.975-1.813-.875 2.063-2.167 1.498.9-1.748 2.142z" fill="#231815"/>
        <path d="M44.121 45.695s.423-.145.61-.319c.185-.174.52-.395.824-.28.303.115.498.66-.221.944-.719.284-1.229.151-1.229.151s-.135.006-.147-.237c-.012-.244.163-.26.163-.26" fill="#CF5531"/>
        <path d="m44.138 46.03.009.002c.004 0 .473.113 1.126-.145.252-.1.39-.238.39-.39a.276.276 0 0 0-.167-.247c-.205-.078-.471.076-.653.246-.205.193-.622.339-.668.355l-.031.01h-.004c-.013.01-.02.042-.017.085.002.044.01.07.015.084m.29.357c-.18 0-.301-.023-.346-.032-.108-.01-.275-.1-.289-.393-.013-.277.157-.403.288-.428.12-.042.41-.16.536-.278.124-.115.561-.48.996-.314a.604.604 0 0 1 .38.552c0 .139-.056.485-.599.7-.393.154-.73.193-.966.193" fill="#231815"/>
        <path d="M45.992 46.67s.742-.68 1.162-.582c.42.098.547.778-.032.992-.578.214-1.742.17-1.13-.41" fill="#CF5531"/>
        <path d="M46.104 46.79c-.117.112-.12.164-.12.164.06.09.64.135 1.081-.028.27-.1.288-.298.283-.379-.009-.146-.104-.27-.231-.299-.23-.054-.73.285-1.013.543m.293.571c-.302 0-.585-.063-.696-.24-.072-.116-.1-.309.177-.57l.002-.003c.767-.704 1.227-.641 1.312-.622a.651.651 0 0 1 .486.6c.015.247-.108.563-.498.708-.19.07-.495.127-.783.127M34.151 41.309a.433.433 0 1 1-.866 0 .433.433 0 0 1 .866 0M32.736 42.077a.433.433 0 1 1-.865-.001.433.433 0 0 1 .865 0" fill="#231815"/>
        <path d="m35.856 49.405 1.667.71 3.412-3.79-1.658-.75-1.495 1.648.073-2.276-1.629-.787-3.39 3.74 1.64.817 1.457-1.737-.077 2.425zm1.71.908-1.879-.8.066-2.062-1.235 1.471-1.95-.972 3.619-3.992 1.836.888-.062 1.934 1.275-1.405 1.972.894-3.642 4.044z" fill="#FFF"/>
        <path d="m23.607 45.58-.818.635c-.1.077.005.245.106.167l.818-.635c.1-.078-.005-.246-.106-.167M23.836 46.24l.236-.195.495.332-.22.158a.828.828 0 0 1-.053.034l-.458-.329m.95.048-.673-.453c-.04-.026-.087-.007-.119.02l-.39.323c-.038.031-.035.111.004.14l.502.36a.942.942 0 0 0-.19.143.4.4 0 0 1 .043.052c-.01-.013-.036-.016-.046-.03-.001-.003-.004-.006-.007-.008a.088.088 0 0 0-.013.023c-.018.06-.043-.036-.021-.056-.051-.039-.128-.073-.168-.1l-.4-.268c-.106-.072-.199.103-.094.174l.659.442c.027.019.074.016.1-.003l.819-.588c.064-.046.057-.129-.006-.17" fill="#231815"/>
        <path d="m23.921 46.847.013-.016c-.028-.029-.045-.032-.054-.023.017.012.03.026.041.04M26.24 47.888l-.144.115c-.028.023-.063.045-.093.07l-.012-.01c-.133-.113-.321-.194-.492-.275l.2-.138a.918.918 0 0 1 .06-.037l.481.275m-.226.197c.05-.012.07.052 0 0m.868-.564-.7-.38a.099.099 0 0 0-.1.004l-.83.573c-.06.042-.061.134.006.17l.713.39c.029.015.074.017.1-.004l.397-.316c.058-.046.064-.13-.006-.17l-.502-.289c.08-.048.153-.099.185-.146.056.05.184.093.241.124l.402.217c.113.061.206-.113.094-.173M24.94 47.482l-.006-.004c-.058-.06-.165-.104-.236-.15-.093-.057-.185-.115-.277-.174L24.63 47c.095-.07.357-.2.437-.311l.007.005c.059.061.168.106.24.152l.283.179-.213.153c-.097.069-.362.195-.444.305m.88-.55-.721-.456a.096.096 0 0 0-.1.003l-.795.59a.097.097 0 0 0-.023.02.095.095 0 0 0-.028.068c-.002.029.007.059.034.081a.093.093 0 0 0 .025.018l.695.438a.097.097 0 0 0 .1-.004l.82-.588c.062-.045.058-.13-.007-.17" fill="#231815"/>
        <g>
            <path d="M55.697 41.962c2.853.665 4.632 1.042 5.336 1.132 1.057.135 2.698-.267 3.115-1.454.417-1.186 3.321-3.285 5.253-1.454 1.287 1.22.87 2.26-1.25 3.122-4.634 2.39-6.998 3.53-7.09 3.42-.092-.11-2.087-1.287-5.985-3.532l.62-1.234z" fill="#813924"/>
            <path d="M66.121 39.591c-.978.426-1.859 1.225-2.141 1.901l-.031.08c-.33.938-1.69 1.47-2.89 1.316l-.107-.015-.257-.04-.404-.074-.496-.098-.587-.122-.976-.212-.98-.22-1.307-.301-.363-.085-.784 1.558 2.969 1.717 1.947 1.14.841.504.27.17.062.043.02.019.019.014.023.01.028.008.033.004.018.001h.04l.071-.01.083-.016.063-.015.105-.031.119-.04.133-.049.201-.08.23-.096.329-.146.378-.175.712-.342.974-.482 1.312-.664 2.469-1.267c2.228-.904 2.713-2.117 1.297-3.46-.942-.893-2.176-.987-3.423-.445zm3.134.749c1.159 1.098.812 1.966-1.184 2.776l-1.33.682-1.555.792-1.16.581-.844.417-.756.364-.441.206-.279.126-.16.07-.208.086-.111.042-.087.03-.017.004-.114-.077-.247-.157-.549-.335-.87-.517-1.286-.75-2.706-1.566.458-.91 1.53.352.962.215.831.18.592.123.408.08.35.066.29.05.234.033c1.339.172 2.852-.401 3.305-1.503l.034-.089c.2-.57 1.025-1.336 1.944-1.736 1.104-.48 2.16-.4 2.966.365z" fill="#231815" fill-rule="nonzero"/>
            <path fill="#CCC3B4" d="m57.793 43.016-.164-1.456-1.104-1.421-1.119-.848-.66-.267-1.053.267-2.8 2.356 1.362-.52.9.043 1.303.269 1.059.473.799.411z"/>
            <path fill="#606060" d="m54.747 39.024-1.065-.74-.603.225-1.945 1.763-4.095 3.783h.24l2.984-2.264 1.728-1.288 1.551-1.212z"/>
            <path fill="#CF5531" d="m71.122 40.392-.949-.56h-2.039l-.903.463-1.182 1.456-1.737 2.175-.764.644-1.135.149-1.83-.32-3.151-1.47-1.272-.684-1.228-.818-1.413-.404-1.264.104-1.77.758-1.405.79.459.4.686-.319 1.65-.658.648-.37 1.267.184 1.35.555 2.803 1.549 2.988 1.182 1.019.168 1.065.106 1.506-.706 1.215-1.312 1.124-1.39.81-1.04.719-.382h1.019l1.584.72z"/>
            <path fill="#71859E" d="m25.403 54.023 1.574 2.974 4.15.755.833.5 6.638-.19 7.668-.609 5.025-.456 8.343-2.218L71.353 50.3l-.43-6.603-.913-2.852-1.089-.204-.96.382-1.332 1.621-1.668 1.51-1.158 1.084-1.436.127-1.876-.438-2.862-1.002-1.678-.904-1.493-.958-1.379-.313-1.358.161-2.846 1.606-7.412 4.726-3.35 2.057-3.375 1.156-1.917.317-4.848.515-1.529.28z"/>
            <path fill="#606060" d="m38.114 50.3-1.456 1.204-1.975 1.155-1.769.74-1.755.45h-.982l-1.393-.45-1.703-1.006-.925.017-.17.443 1.356.858 1.459.91 3.509 1.022 2.57.72.418.156-.035.312-1.546 1.421h1.859l1.685-1.647 3.491-3.709 1.893-3.05.8-2.254-.235-.487-1.429.929z"/>
            <path fill="#71859E" d="m38.294 51.995-1.537.669-2.814 1.359-.608.346v.52l2.362.403.851-.057.608-.588 1.65-2.078-.113-.316z"/>
            <path fill="#F4EFEA" d="m71.925 44.719-.71-2.063-.223-1.294-.982-.516-1.089-.204.162.382.51 1.22.116.894-.209.788-2.107 2.109-2.432 1.494-10.394-.885-2.02-.172-.51-.258.209-.582.863-.654 1.638.794.834.263h.625l.646-.374-.414-.823-1.98-1.385-1.073-.617-.885.348-.78.513-.945.388-.643.753.446 1.197-.056.567 1.199 1.252 5.711.576 4.31.237.625.185v.448l-.973.401-2.455-.152-6.578-.882 1.498 1.489 4.524.524.434.126-.335.42-4.523 1.872-4.671 1.41-3.6.634-1.063-.166.224-.376 2.71-2.418-1.046-1.298-.645.62-4.087 3.963-3.183 2.595 4.846-.39 5.073-.676.836-.8 2.902-1.054 2.677-.703 3.22-.255 3.075-1.615 4.562-2.898 4.059-3.027z"/>
            <path fill="#1B1E23" d="m58.076 50.528-4.88-.532h-3.277l-2.541 2.432-2.529 2.172-.224.376 1.063.166L51.134 54l4.11-1.321 2.63-1.198.942-.675-.433-.126z"/>
            <path fill="#3D4251" d="m50.886 46.644-2.487.984 1.369 1.58-2.35-1.162-2.432 1.254 4.213 4.367.69-.005 1.583-.918-1.34-1.38 2.299.972 2.316-1.202z"/>
            <path fill="#F4EFEA" d="m25.674 52.896-.503.347-.417 1.248.174 1.976 2.275.606 2.328.486 2.501-1.266.424-.572-.546-.22-1.922-.525-2.575-.993-.731-.654z"/>
            <path fill="#CCC3B4" d="m73.6 53.667.285 1.112-.255 1.446.396.617.153.925v.802h-.58l-2.246.505-2.026.495-.674.036-.691-.127-.561.334-1.12.397-2.34-.012-1.238-.177-.464-.09-1.598.327-1.528.095-2.102-.228-1.477-.194-1.702.073-1.792.553-8.83.263-5.712-.088-4.233-.434-4.598-1.34-1.574-.497-1.482-1.077-.44-.743 1.806.357 3.2.804 2.9.396 9.76-.272 4.381-.767 4.822-1.055 5.225-1.127 6.1-.525 4.242-.116 3.316-.397 2.561-.54z"/>
            <path fill="#999184" d="m55.812 59.766 1.453-1.197 1.674-.802 1.18-.314v-.634l-.741.178-2.686.33-2.802.965-2.826 1.638-.695.68 1.67-.054 1.125-.347.958-.28z"/>
            <path fill="#606060" d="m73.674 56.585-.584-.39h-1.366l-1.158.39-1.135.573-1.807 1.411-.44-.644-.88-.452-1.204.199-1.158.51-1.158.649-.403.313-.36-.313-.372-.596-1.234-.07-1.933.404-1.992 1.036.173.16 4.795-.255 5.298-.46 3.613-.78 2.084-.417 1.6-.695z"/>
            <path fill="#3D4251" d="m48.517 56.996-1.65 1.066-2.363.658-5.795.33h-3.446l-1.998-.164-2.206-.539-.313-.422 1.815.258 3.223.086 2.814-.207 3.683-.278 4.655-.591zM71.925 44.719l-1.209 1.143-3.315 2.649-2.487 1.79-2.754 1.734-3.678 2.103-2.044.838 3.196-.197 4.887-.43h3.89l4.633-.758.44-.539v-3.813l-.324-2.304-.672-1.417z"/>
            <path fill="#3D4251" d="m51.481 60.569-3.265.156-6.902.094-3.816-.088-3.804-.288-3.312-.943-3.29-1.04-1.481-1.077-.683-1.327-.244-1.08-.417.491v.705l.278.825 1.199 1.359 1.216.846.624.107.227-.502.706.208.066.777.525.355 1.806.358.774.035.257-.497.776.196.058.58.298.183 3.005.428.48-.104.258-.507.904.08.15.53.382.29 2.791-.093.583-.08.263-.557h.833l.116.482.29.248 3.173-.174.44-.381.023-.345h1.077l.116.45.312.202 3.336-.47.43-.012.207-.438zM74.007 58.402l-.647.167-2.459.619-1.019.322-1.229.095-.554-.209-.698.416-1.12.397-1.957.048-1.343-.327-1.1.09-1.344.423-2.397-.09-.845-.156.555.632 2.131.3 1.54-.188.64-.732.542-.19.498.238.393.518 1.851.166 1.6-.216.59-.468.22-.595.499.103.73.678h.625l2.837-.933 1.461-.23.276-.392z"/>
            <path d="M24.58 55.292c.021.349.099.827.321 1.33.029.09.13.362.416.71.446.594 1.151 1.156 2.267 1.514.002.078-.008.176-.054.237-.018.024-.051.058-.133.067-.28-.01-2.34-1.187-2.88-2.553-.19-.477-.17-.907.062-1.305zm.823 1.537c.605.16 2.025.51 5.014 1.142.07.34.915.697 2.458 1.036.777.17 2.13.236 3.673.236 3.144 0 7.076-.274 8.522-.496 1.91-.293 3.356-1.353 3.792-1.704 1.64-.307 3.049-.637 4.048-.956 4.277-1.369 11.81-1.617 14.071-1.553 2.097.06 5.655-.768 6.384-.943.636 1.074.125 2.155-.072 2.498-.288-.068-1-.161-2.27.11-1.021.217-1.892.96-2.528 1.502-.302.257-.612.521-.814.61-.136-.331-.565-1-1.822-1-.952 0-1.777.536-2.439.967-.406.264-.787.514-1.03.506-.055-.002-.319-.022-.327-.272a.448.448 0 0 0-.214-.36c-.47-.327-1.644-.257-2.921.172a14.22 14.22 0 0 0-2.77 1.302c.802-.779 2.958-1.796 3.722-2.002.55-.149.636-.376.612-.54-.044-.292-.485-.467-1.126-.447-.938.03-2.115.369-2.164.383-2.414.646-4.2 1.543-5.274 2.181-1.168.695-1.756 1.23-1.78 1.253l.017.02c-13.887.711-16.83-.23-19.44-1.067a22.523 22.523 0 0 0-1.64-.479c-.44-.106-.83-.226-1.176-.353l-.002-.007-.083-.025c-1.516-.575-2.161-1.301-2.42-1.714zm3.3 2.373c.097.026.195.052.297.076.578.14 1.082.301 1.614.472.344.11.694.222 1.074.332a.41.41 0 0 1-.11.202c-.078.075-.198.108-.356.097-.61-.042-2.17-.506-2.45-.59-.047-.058-.162-.24-.07-.589zm4.221 1.197c.932.206 2.08.388 3.639.512a.426.426 0 0 1-.115.23c-.079.075-.199.108-.357.097-.639-.044-2.756-.374-3.036-.418-.048-.031-.178-.143-.13-.421zm5.038.602c1.051.052 2.261.082 3.668.083a.417.417 0 0 1-.08.228c-.067.085-.182.134-.34.145-.638.047-2.78.017-3.065.012-.056-.026-.22-.132-.183-.468zm4.971.076c1.108-.012 2.325-.04 3.666-.088a.387.387 0 0 1-.066.18c-.063.088-.176.141-.333.16-.636.074-2.778.134-3.062.142-.053-.022-.202-.11-.205-.394zm5.117-.144c1.23-.052 2.557-.119 3.99-.202l-.004.006c-.059.084-.189.14-.376.16-.64.075-3.072.336-3.413.372-.054-.024-.178-.104-.197-.336zm2.68-.49c.797-.615 3.008-2.123 6.569-3.076.015-.004 1.187-.341 2.079-.37.44-.013.673.08.742.134-.033.03-.121.087-.335.145-.82.222-3.632 1.52-4.176 2.46-1.942-.128-3.077.478-3.312.62-.538.031-1.06.06-1.568.087zm6.19-.838c.537-.293 1.288-.66 2.123-.94 1.275-.428 2.292-.432 2.6-.218.039.027.058.052.06.076.015.483.45.617.678.621.35.01.741-.243 1.236-.564.622-.405 1.397-.908 2.242-.908 1.346 0 1.517.844 1.523.88l.019.1c-3.99.573-8.422.848-10.481.953zm.17.354c3.552-.179 13.169-.81 16.89-2.506.066.37.047.745.027.949-.999-.012-2.486.392-3.586.691-.536.146-.999.271-1.254.308-.392.056-.509-.005-.644-.075-.137-.071-.293-.152-.635-.116-.295.03-.384.17-.455.283-.1.158-.27.422-1.848.534-1.665.117-2.094-.098-2.378-.24-.144-.073-.283-.142-.5-.135-.248.008-.473.087-.733.18-.388.136-.871.307-1.712.36-1.359.088-3.012-.201-3.11-.219l-.062-.014zm.613.463c.637.086 1.661.19 2.582.13a6.003 6.003 0 0 0 1.736-.355 2.16 2.16 0 0 0-.264.355c-.155.25-.207.334-1.905.387-1.06.032-1.75-.258-2.149-.517zm5.662-.174c.357.125.962.229 2.246.138 1.175-.083 1.662-.253 1.914-.456l-.014.03c-.263.632-.31.746-2.243.808-1.63.052-1.749-.202-1.844-.406a1.567 1.567 0 0 0-.059-.114zm5.288-.489c.133.027.31.035.566-.002.277-.04.727-.162 1.297-.317 1.094-.297 2.574-.698 3.52-.676.03.114.012.173-.01.212-.053.088-.245.247-.94.322-.964.105-1.972.443-2.782.715-.217.073-.422.141-.606.199-.656.204-.988-.348-1.045-.453zm5.232-2.659c-1.334.622-3.52 1.102-5.923 1.47.22-.129.468-.34.767-.596.64-.545 1.438-1.225 2.369-1.423 1.51-.322 2.16-.101 2.205-.085l.006.003c.293.113.47.353.576.631zm-.606-3.86c-.711.171-4.263.993-6.288.934-.963-.027-3.378-.008-6.321.237-.983.082-2.138.2-3.325.368 6.296-2.656 13.521-8.685 14.741-9.724.157.32.323.64.497.95 1.04 1.84.756 6.412.696 7.236zm-15.847 1.11c-.648.28-1.287.526-1.909.728-.96.181-1.894.4-2.724.666-.886.284-2.074.57-3.446.841 1.309-.733 4.16-2.044 8.079-2.235zm14.493-9.631c-.895.766-7.528 6.359-13.645 9.247-3.168.019-5.694.78-7.257 1.416-1.578.643-2.5 1.276-2.66 1.39-2.823.51-6.24.942-9.4 1.153 2.357-1.641 6.66-5.926 7.495-6.764l.874.971c-.539.488-2.505 2.275-2.765 2.616-.148.194-.122.333-.074.415.083.142.272.174.426.174.065 0 .124-.005.167-.011 3.007-.222 6.44-1.232 8.792-2.041 2.342-.806 4.666-1.798 4.876-2.082.136-.184.098-.328.062-.397-.125-.246-.549-.277-.74-.278l-4.207-.594-.93-1.026 7.827.967c.17.021.306.032.423.032.34 0 .525-.091.932-.292l.162-.08c.255-.124.376-.274.361-.446-.026-.291-.453-.435-.583-.472l-.035-.006-10.126-.848-1.014-1.119c-.006-.178-.053-.645-.358-1.351-.13-.3-.13-.573.002-.79a.88.88 0 0 1 .673-.397c.421-.032.74-.278 1.078-.538.164-.126.333-.257.522-.369.479-.285 1.233.199 1.24.204l1.672 1.042c.27.157.928.657.79 1.113-.14.47-.991.335-1.148.306L53.1 44.557l-.091.055c-.037.023-.912.56-1.099 1.278-.076.294.015.472.105.569.242.263.724.212.849.194l12.314 1.043.051-.032c.167-.104 4.08-2.573 4.604-4.088.225-.651.133-1.387-.266-2.126a4.396 4.396 0 0 0-.396-.605c.142.016.29.046.442.09.491.143.888.396 1.018.485.099.308.578 1.767 1.294 3.299zm-1.159-3.643a4.126 4.126 0 0 0-1.042-.484c-.903-.265-1.687-.09-2.269.507-.352.362-.72.83-1.11 1.323-1.052 1.336-2.244 2.85-3.588 2.893-1.82.06-6.287-2.232-6.599-2.393-.203-.167-2.046-1.629-3.88-1.294-.816.148-3.222 1.534-5.706 3.068 2.165-1.963 5.896-5.361 6.19-5.725.221-.275.488-.443.73-.46a.538.538 0 0 1 .42.156c.113.106.244.192.396.28a2.26 2.26 0 0 0-1.04.363c-.72.49-2.768 2.274-3.005 2.481a7.052 7.052 0 0 0-1.183.883l.252.258c.014-.013 1.417-1.358 3.237-1.636 1.804-.276 3.792 1.258 3.812 1.273l.016.013.019.009 3.793 1.76c.08.033 1.26.524 2.4.524.615 0 1.218-.143 1.632-.575 1.086-1.136 2.475-3.145 2.584-3.303.07-.083.922-1.073 1.701-1.098.823-.026 1.894.402 1.985.438.104.054.364.23.388.432.012.096-.033.2-.133.307zm-13.138 1.68-1.042-.483c-.216-.166-2.185-1.621-4.072-1.333a5.509 5.509 0 0 0-1.01.258c.697-.593 1.563-1.315 1.967-1.59.614-.418 1.381-.311 1.525-.286.396.227.89.55 1.513 1.104 1.028.912 1.127 1.921 1.12 2.33zm-5.373 5.398 9.722.814c.121.037.252.103.297.148a.553.553 0 0 1-.15.096l-.163.08c-.53.261-.598.295-1.15.226-.627-.079-7.582-.937-8.243-1.019l-.313-.345zm-6.914 1.229 2.115-.959 2.914 1.125-1.512-1.788 1.805-.826 3.833 4.228-1.963.979-3.223-1.36 1.874 1.897-1.985.988-3.858-4.284zm6.38 3.448-1.442-1.352 2.25 1.022 2.554-1.228-.836-.922 3.804.538h.013c.163-.004.354.033.418.073a.218.218 0 0 1-.018.027c-.34.346-7.865 3.57-13.41 3.978l-.012.001a.907.907 0 0 1-.193.005l.005-.007c.216-.283 1.924-1.847 2.72-2.566l1.53 1.7 2.617-1.269zm.621-10.849c1.736-.317 3.58 1.213 3.6 1.228l.032.022c.194.101 4.706 2.444 6.717 2.444l.077-.001c1.512-.049 2.76-1.633 3.861-3.03.384-.487.746-.946 1.085-1.295.28-.287.61-.455.987-.504.247.273 1.2 1.43.791 2.612-.452 1.31-3.94 3.573-4.404 3.869L52.849 46.29l-.023.003c-.133.023-.443.033-.546-.08-.042-.045-.049-.123-.02-.233.12-.46.64-.858.849-1.003l2.116 1.226.027.006c.055.013 1.346.296 1.6-.549.246-.82-.902-1.496-.951-1.525L54.238 43.1c-.035-.024-.948-.61-1.62-.21-.207.123-.385.26-.557.393-.307.236-.572.44-.885.464-.395.03-.76.248-.954.57-.136.223-.25.599-.026 1.118.256.591.314.992.326 1.167l-2.188 1 1.096 1.25-2.012-.806-2.674 1.212 1.472 1.635c-.842.843-5.89 5.866-7.988 7.077-.738.041-1.457.07-2.146.083 7.534-7.18 7.584-10.33 7.472-11.02 3.23-2.081 7.677-4.848 8.788-5.051zM35.55 58.061c-.48.004-.944 0-1.387-.012a27.92 27.92 0 0 0 1.04-.918c.25-.25.34-.456.278-.632-.052-.142-.188-.225-.406-.247-.312-.03-2.022-.526-2.684-.723-.207-.114-.573-.215-1.18-.382-.307-.084-.69-.19-1.125-.318-1.354-.398-2.205-.964-2.889-1.42-.39-.259-.717-.475-1.041-.593.13-.09.332-.156.59-.207l2.687 1.222c.092.071.384.244 1.045.244.612 0 1.542-.148 2.924-.663 2.95-1.098 5.344-3.273 5.528-3.443.679-.364 1.095-.627 1.107-.634.039-.026 1.38-.922 3.172-2.08.024.858-.49 4.045-7.659 10.806zm1.948-7.381c-.991.75-2.512 1.758-4.223 2.395-2.858 1.064-3.62.473-3.627.467l-.021-.02-.023-.009-2.19-.996c.497-.048 1.089-.073 1.715-.1 1.122-.047 2.393-.1 3.741-.286 1.644-.226 3.314-.85 4.628-1.451zm4.705 7.325c2.031-.217 4.04-.5 5.829-.812-.667.433-1.743 1.002-3.017 1.198-2.137.328-9.737.774-12.062.264-.947-.207-1.487-.392-1.794-.53 2.219.436 6.23.393 11.044-.12zm-12.215-.493c.547-.248 1.42-.665 2.073-1.078.255-.162.463-.306.533-.47.674.198 2.118.615 2.445.647a.381.381 0 0 1 .095.018c-.014.039-.06.122-.186.247-.227.226-1.088.957-1.318 1.153-.966-.044-1.816-.134-2.503-.277l-1.14-.24zm-2.991-3.803c.667.444 1.58 1.052 2.987 1.466.438.129.822.234 1.13.32.53.145.994.272 1.125.361-.038.043-.134.123-.371.274-.874.553-2.204 1.134-2.48 1.253-2.905-.627-3.963-.918-4.207-.989a3.307 3.307 0 0 1-.235-1.602l.074-.515c.082-.41.235-.906.491-1.105a.363.363 0 0 1 .301-.078c.348.058.717.304 1.185.615zM24.256 56.9c.666 1.39 2.71 2.609 3.158 2.609l.022-.001a.535.535 0 0 0 .386-.213.672.672 0 0 0 .117-.326c.134.046.272.092.417.135-.178.66.188.971.206.985l.027.022.034.01c.076.024 1.865.571 2.574.619l.083.003a.763.763 0 0 0 .551-.201.763.763 0 0 0 .205-.362c.172.047.35.093.538.138-.093.49.17.76.348.84l.022.009.024.004c.098.015 2.402.379 3.098.426l.083.003a.763.763 0 0 0 .551-.201.798.798 0 0 0 .225-.46c.218.015.443.03.677.043-.05.539.265.784.46.84l.023.007h.024c.059 0 .909.014 1.734.014.562 0 1.111-.006 1.393-.027.266-.019.468-.115.6-.285a.783.783 0 0 0 .157-.447l.58-.003c.006.488.309.7.497.746l.023.005h.024c.099-.003 2.43-.065 3.124-.145.265-.031.462-.136.587-.31a.765.765 0 0 0 .136-.4l.725-.029c.031.441.316.636.495.68l.03.007.032-.004c.027-.002 2.769-.296 3.455-.375.302-.035.516-.143.636-.32a.567.567 0 0 0 .092-.237l.025-.016c.016-.01 1.64-1.048 4.562-.371.19.216.992.99 2.674.99l.173-.003c1.817-.056 1.956-.162 2.201-.558.043-.07.087-.14.157-.225.18-.217.287-.294.335-.32l.072-.001c.001 0 .276.003.412.211.02.031.038.067.057.109.184.394.45.668 2.183.613 1.866-.06 2.192-.135 2.565-1.03.072-.174.157-.277.239-.291.093-.015.2.07.248.118.175.34.687.876 1.474.63.187-.058.394-.127.613-.2.793-.267 1.781-.598 2.706-.699.668-.072 1.052-.23 1.21-.497.135-.225.064-.47.017-.593.042-.3.199-1.798-.722-2.34.247-.45.771-1.672.003-2.886.051-.63.404-5.494-.735-7.512-1.02-1.808-1.745-3.967-1.906-4.466.203-.202.292-.416.265-.637-.053-.433-.536-.685-.59-.713l-.012-.005c-.049-.02-1.206-.498-2.14-.468-.974.031-1.933 1.186-1.974 1.235l-.009.012c-.014.021-1.466 2.13-2.553 3.265-1.01 1.056-3.597-.019-3.623-.03L57.98 42.92c.03-.331.05-1.625-1.232-2.763-.893-.793-1.53-1.131-1.994-1.378-.264-.14-.454-.241-.596-.375a.899.899 0 0 0-.692-.253c-.343.024-.703.241-.987.595-.31.384-5.13 4.765-7.65 7.041a267.078 267.078 0 0 0-4.99 3.246c-.033.02-3.593 2.27-7.02 2.741-1.33.183-2.592.236-3.706.283-1.788.076-3.01.127-3.375.671a.72.72 0 0 0-.45.16c-.526.41-.667 1.5-.696 1.8-.609.637-.727 1.4-.337 2.212z" fill="#231815"/>
            <path d="M35.889 55.134c-.786-.07-2.12-.355-2.326-.4-.059-.037-.127-.103-.125-.146.002-.044.086-.154.387-.283.888-.38 4.239-1.96 4.58-2.121.103-.008.248.01.288.069.03.044.025.165-.082.37l-1.847 2.225-.01.027c-.005.009-.157.32-.865.259m.175.368c.705 0 .95-.35 1.01-.462l1.838-2.216.009-.016c.172-.323.195-.579.068-.761-.189-.271-.61-.224-.657-.217l-.027.003-.026.012c-.036.018-3.671 1.733-4.597 2.13-.397.17-.595.366-.605.598-.012.297.299.47.334.49l.022.01.024.006c.062.014 1.527.337 2.4.413.073.007.142.01.207.01" fill="#231815"/>
            <path d="M44.852 45.122s.242 1.11-.405 1.524c-.647.414-1.709.181-1.709.181s-.708-.05-.765.364c-.056.414.072.78.916.73.844-.05 1.688-.112 2.26-.338.572-.226.787-1.829.7-2.023-.087-.193-.68-.779-.997-.438" fill="#CF5531"/>
            <path d="M45.128 45.201a.186.186 0 0 0-.079.002c.047.321.11 1.2-.505 1.594-.667.427-1.69.238-1.83.21-.129-.007-.535.011-.562.208-.025.184-.002.312.07.39.102.109.328.156.656.137.857-.052 1.67-.115 2.204-.326.177-.07.357-.394.48-.866.116-.44.14-.833.12-.921-.05-.098-.326-.39-.554-.428m-3.17 2.648c-.15-.161-.204-.385-.163-.682.062-.46.63-.542.956-.52l.026.005c.01.002.995.211 1.573-.158.53-.34.33-1.318.326-1.333l-.02-.092.064-.069a.499.499 0 0 1 .466-.154c.36.058.74.448.827.64.099.22-.03 1.06-.24 1.58-.15.367-.337.597-.557.684-.585.232-1.395.296-2.316.351a2.666 2.666 0 0 1-.16.005c-.365 0-.622-.085-.782-.257" fill="#231815"/>
            <path fill="#3A3D44" d="m46.215 47.564-1.632.788-1.288-1.687 1.336-.803z"/>
            <path d="m44.599 46.091-1.039.625 1.077 1.41 1.28-.618-1.318-1.417zm-1.57.524 1.635-.983 1.85 1.988-1.985.959-1.5-1.964z" fill="#231815"/>
            <path d="M47.74 42.921s.315 1.58-.108 1.924c-.422.343-1.809-.086-1.809-.086s-.36-.383-.737-.215-.382.558.03.905c.41.347 1.135.775 2.83.495 0 0 .966-1.411.929-2.426-.038-1.016-1.136-.597-1.136-.597" fill="#CF5531"/>
            <path d="M48.694 43.524c-.007-.213-.07-.359-.183-.434-.155-.103-.399-.08-.566-.042.026.16.063.418.08.696.038.651-.053 1.057-.279 1.24-.083.068-.569.382-1.976-.053l-.046-.014-.033-.035c-.002-.002-.279-.286-.531-.173-.071.031-.159.09-.172.185-.017.118.074.274.244.418.407.344 1.07.705 2.607.467.181-.28.886-1.428.855-2.255M45 45.586c-.273-.23-.404-.494-.369-.743.03-.201.165-.366.383-.463.412-.184.787.112.904.22.54.16 1.368.294 1.601.105.23-.187.163-1.154.044-1.749l-.03-.149.143-.054c.025-.01.626-.234 1.035.036.216.143.333.386.345.722.04 1.062-.92 2.475-.96 2.535l-.044.064-.076.012a6.36 6.36 0 0 1-1.03.092c-1.057 0-1.607-.34-1.946-.628" fill="#231815"/>
            <path d="m51.383 44.582-2.967-2.424s-.285-.224-.625.02-.399.564.455 1.193c.855.629 2.628 1.717 2.628 1.717s.323.076.514-.069c.191-.144-.005-.437-.005-.437" fill="#CF5531"/>
            <path d="M48.305 42.3c-.002-.002-.182-.139-.408.024-.141.102-.158.17-.158.211 0 .089.079.296.615.691.78.575 2.36 1.552 2.587 1.692.075.012.248.026.338-.042.031-.024-.002-.117-.034-.174l-2.94-2.402zm2.527 2.963-.028-.007-.025-.015c-.018-.01-1.789-1.099-2.64-1.725-.528-.389-.763-.692-.761-.983 0-.189.102-.353.308-.5a.706.706 0 0 1 .844-.014l2.988 2.44.015.023c.14.209.189.511-.036.68a.713.713 0 0 1-.431.126c-.12 0-.214-.02-.234-.025z" fill="#231815"/>
            <path fill="#3A3D44" d="m49.589 46.013-1.632.788-1.69-2.071 1.336-.804z"/>
            <path d="m47.572 44.155-1.035.622 1.47 1.8 1.28-.618-1.715-1.804zm-1.577.528 1.639-.985 2.256 2.37-1.983.958-1.912-2.343z" fill="#231815"/>
            <path d="M42.006 48.724s-.464-.159-.667-.349c-.203-.19-.57-.433-.902-.306-.332.126-.544.722.242 1.032.786.31 1.344.166 1.344.166s.148.006.161-.26c.013-.266-.178-.283-.178-.283" fill="#CF5531"/>
            <path d="M42.004 48.998c.002-.047-.006-.083-.02-.093h-.003l-.034-.01c-.051-.018-.506-.178-.731-.389-.199-.186-.49-.354-.714-.27a.302.302 0 0 0-.183.27c0 .167.15.32.426.428.715.282 1.228.16 1.232.158l.01-.002a.275.275 0 0 0 .017-.092m-1.391.27c-.594-.233-.656-.612-.655-.764a.661.661 0 0 1 .415-.604c.476-.18.955.217 1.09.344.137.128.456.258.586.304.144.027.33.165.315.468-.015.32-.197.418-.316.43-.049.01-.182.034-.379.034-.258 0-.626-.041-1.056-.211" fill="#231815"/>
            <path d="M39.96 49.791s-.812-.745-1.272-.638c-.46.108-.599.852.035 1.086.633.234 1.906.186 1.237-.448" fill="#CF5531"/>
            <path d="M38.729 49.329c-.14.032-.243.167-.253.327-.006.088.013.305.31.414.48.178 1.116.129 1.182.032 0-.001-.003-.058-.132-.18-.308-.282-.856-.652-1.107-.593m-.07 1.079c-.427-.158-.56-.504-.544-.774a.713.713 0 0 1 .532-.656c.092-.021.595-.09 1.435.68l.002.002c.302.287.272.498.193.624-.121.194-.43.263-.76.263-.316 0-.65-.062-.857-.14M52.911 43.926a.473.473 0 1 0 .947 0 .473.473 0 0 0-.947 0M54.458 44.766a.473.473 0 1 0 .947 0 .473.473 0 0 0-.947 0M61.201 50.671l.259 1.102c.032.134.247.107.215-.028l-.26-1.102c-.03-.134-.246-.107-.214.028M61.963 50.746l-.086-.323.557-.338.057.29a.93.93 0 0 1 .01.068c-.18.1-.359.202-.538.303m.482-.92-.758.46c-.045.027-.047.084-.035.128l.143.535c.014.052.095.085.142.059l.588-.333c.013.099.03.196.055.253a.431.431 0 0 1 .072-.018c-.018.003-.033.029-.05.031-.005 0-.009.002-.013.003.006.01.012.018.018.024.051.045-.056.027-.066-.004-.062.033-.13.093-.176.121l-.45.274c-.12.072.012.244.13.172l.742-.451c.031-.019.05-.066.043-.1l-.212-1.082c-.017-.084-.102-.115-.173-.072" fill="#231815"/>
            <path d="M62.597 50.95a.19.19 0 0 1-.01-.02c-.038.014-.047.028-.044.04a.23.23 0 0 1 .054-.02M64.703 49.115l.049.195c.01.039.016.084.027.125l-.015.007c-.174.08-.34.23-.5.363l-.045-.261a1.001 1.001 0 0 1-.01-.078l.494-.35m.086.322c.01-.05.077-.043 0 0m-.158-1.127-.697.52a.108.108 0 0 0-.043.101l.191 1.085c.014.08.106.122.173.072l.713-.53c.029-.02.051-.064.043-.1l-.134-.538c-.02-.078-.101-.122-.172-.072l-.517.367a.689.689 0 0 0-.062-.25c.077-.033.177-.14.234-.183l.4-.3c.113-.083-.018-.256-.13-.172M63.705 50.22l-.007.003c-.087.03-.18.116-.257.166l-.3.195-.059-.278c-.027-.126-.036-.446-.11-.575l.008-.005c.088-.03.183-.118.262-.17l.306-.198.055.281c.025.128.03.449.102.58m-.146-1.124-.784.507a.105.105 0 0 0-.042.1l.225 1.059c.001.01.004.02.008.031.011.029.031.048.055.06.028.015.062.019.097.003a.105.105 0 0 0 .03-.017l.753-.49c.03-.02.049-.065.042-.1l-.212-1.081c-.016-.083-.102-.118-.172-.072" fill="#231815"/>
            <path d="m45.49 49.414 3.73 4.142 1.812-.903-2.104-2.13 3.602 1.52 1.82-.907-3.71-4.092-1.637.749 1.663 1.967-3.207-1.238-1.968.892zm3.688 4.364-.046-.05-3.94-4.376 2.261-1.025 2.62 1.011-1.36-1.61 1.972-.903.044.05 3.914 4.316-2.107 1.05-2.843-1.2 1.642 1.663-2.157 1.074z" fill="#FFF"/>
        </g>
        <path fill="#435B65" d="m10.987 41.908 19.856 13.711v17.287L10.987 56.768z"/>
        <path d="M11.43 56.557V42.754L30.4 55.853v16.12L11.43 56.558zm-.348-15.123a.335.335 0 0 0-.335-.013c-.203.113-.203.395-.203.487V56.98l20.2 16.417.543-.158V55.386L11.082 41.434z" fill="#231815"/>
        <path fill="#54717D" d="m30.843 55.62 46.24-10.87v15.165l-46.24 12.99z"/>
        <path d="M76.639 45.314v14.265L31.287 72.317V55.97l45.352-10.656zm.595-1.057-46.496 10.93-.338.084v17.847l.343.279L77.526 60.25V44.382l-.292-.125z" fill="#231815"/>
        <g fill="#C1C5C6">
            <path d="m65.049 61.372.228-.066v-.454c0-.08 0-.18.041-.251a.282.282 0 0 1 .157-.129c.192-.056.192.172.192.25v.472l.228-.066v-.516c0-.074 0-.234-.087-.313-.08-.074-.205-.074-.287-.05-.144.04-.224.143-.261.19v-.083l-.211.061v.955zM66.94 60.454a.597.597 0 0 0 .013-.119c0-.24-.192-.448-.496-.36a.73.73 0 0 0-.504.662c0 .278.221.442.506.36a.73.73 0 0 0 .463-.464l-.242.07a.34.34 0 0 1-.221.185c-.164.047-.254-.062-.264-.12l.744-.214zm-.752.031a.404.404 0 0 1 .271-.301c.114-.033.233.004.259.15l-.53.151zM67.24 60.74l.141-.04.18-.671.004-.001.179.568.14-.04.349-1.056-.244.07-.175.634h-.004l-.154-.538-.182.052-.156.629h-.004l-.173-.533-.244.07zM68.675 60.328l.21-.06v-.116c.056.047.137.107.32.054.35-.1.475-.459.475-.65 0-.252-.189-.451-.48-.368a.596.596 0 0 0-.297.205v-.405l-.228.066v1.274zm.215-.552a.41.41 0 0 1 .283-.37c.144-.041.278.032.278.218a.396.396 0 0 1-.274.38c-.135.039-.287-.017-.287-.228zM70.746 58.776l-.21.06v.121l-.003.001c-.007-.012-.122-.118-.316-.062a.689.689 0 0 0-.477.642c0 .318.218.451.463.38a.678.678 0 0 0 .333-.245v.118l.21-.06v-.955zm-.216.537a.4.4 0 0 1-.279.382c-.163.047-.283-.051-.283-.213 0-.143.096-.332.283-.386.136-.04.279.02.279.217zM71.096 59.63v-1.273l-.229.066v1.273zM72.17 58.366l-.209.06v.12l-.003.002c-.007-.012-.122-.119-.316-.063a.688.688 0 0 0-.478.642c0 .318.219.452.464.381a.679.679 0 0 0 .333-.245v.118l.21-.06v-.955zm-.216.537a.4.4 0 0 1-.278.381c-.163.047-.283-.05-.283-.212 0-.143.096-.333.283-.387.136-.039.278.02.278.218zM72.292 59.286l.229-.066v-.454c0-.081 0-.181.041-.252a.284.284 0 0 1 .156-.129c.193-.055.193.172.193.251v.471l.228-.065v-.517c0-.074 0-.233-.088-.313-.079-.074-.204-.074-.286-.05-.145.041-.224.143-.261.19v-.082l-.212.06v.956zM73.95 58.496c-.06.114-.135.172-.21.194-.172.05-.287-.053-.287-.217 0-.196.137-.339.276-.379.141-.04.194.035.222.076l.258-.075c-.098-.266-.36-.246-.48-.211-.263.076-.505.359-.505.651 0 .317.263.437.507.367a.724.724 0 0 0 .478-.48l-.258.074zM75.23 58.066a.598.598 0 0 0 .014-.12c0-.24-.192-.447-.496-.36a.73.73 0 0 0-.504.663c0 .278.22.442.506.36a.73.73 0 0 0 .463-.464l-.242.07a.34.34 0 0 1-.221.185c-.164.047-.254-.062-.264-.12l.744-.214zm-.751.031a.404.404 0 0 1 .27-.301c.115-.033.234.003.26.149l-.53.152z"/>
        </g>
        <g fill="#C1C5C6">
            <path d="m4.657 15.507.295-.528.51 1.535-.164.295-.641-1.302zm-1.02 1.474.167-.986.716 2.212-.164.294-.719-1.52zm.248 2.366-.453-1.16.114-.675.503 1.54-.164.295zm1.249-4.699.234-.418.565 1.438-.164.295-.635-1.315zm-1.41-.859.409-.734-.13-.332c-.06-.154-.203-.292-.335.016-.123.286-.114.619-.074.72l.13.33zm-.392.703-.114-.286c-.076-.191-.194-.235-.304.012-.101.23-.129.574-.082.694l.11.281.39-.701zm.468 1.492-.343.616-.416-.876-.042.076.33 1.03-.252.452-.664-1.698c-.205-.523-.272-1.244.035-2.077.093-.253.365-.79.687-.482-.044-.16-.107-.75.085-1.37.342-1.1.826-.804 1.015-.322l.785 2.004-.137.794-.444-.918-.042.074.415 1.264-.16.946-.676-1.452-.042.074 1.057 3.242-.164.294-1.318-2.77-.041.073.332 1.026z"/>
        </g>
        <g fill="#C1C5C6">
            <path d="m22.697 64.62.153.116-.015-.493c-.003-.088-.006-.197.02-.24.025-.047.074-.032.102-.01.128.099.136.345.138.431l.016.513.152.117-.016-.561a1.26 1.26 0 0 0-.07-.413.714.714 0 0 0-.196-.292c-.097-.074-.147-.028-.171-.008l-.003-.09-.141-.109.031 1.038zM24.278 65.18c.005-.03.01-.07.008-.118-.012-.262-.217-.645-.52-.8-.296-.15-.493.012-.48.306.014.302.247.662.532.808.224.115.399.034.446-.124l-.242-.124c-.04.064-.113.072-.215.02a.591.591 0 0 1-.274-.348l.745.38zm-.76-.584c.034-.17.175-.148.26-.105a.545.545 0 0 1 .27.376l-.53-.271z"/>
            <path d="m24.163 65.745.094.072.1-.58.003.001.14.765.094.073.202-.86-.163-.125-.098.545-.002-.002-.123-.714-.122-.093-.085.554-.002-.002-.136-.723-.163-.126zM25.141 66.482l.2.107-.005-.125c.058.099.139.23.315.324.334.18.44-.106.43-.314-.012-.275-.205-.647-.483-.796-.102-.055-.207-.069-.279-.023l-.019-.44-.219-.117.06 1.384zm.183-.423c-.007-.151.09-.256.258-.167a.59.59 0 0 1 .28.467c.01.202-.106.263-.249.186a.607.607 0 0 1-.29-.486z"/>
            <path d="m26.774 66.507-.204-.107.006.131-.003-.002a.854.854 0 0 0-.314-.329c-.257-.136-.453-.015-.44.303.016.346.237.671.475.798.116.061.25.064.316.008l.005.129.204.108-.045-1.039zm-.188.406c.008.192-.102.265-.256.184a.6.6 0 0 1-.288-.465c-.007-.155.078-.282.26-.186.132.07.275.252.284.467z"/>
            <path d="m26.743 67.725-.042-1.384-.153-.117.042 1.384zM27.727 67.24l-.203-.108.005.131-.003-.002a.85.85 0 0 0-.314-.329c-.257-.136-.453-.015-.44.303.016.346.237.671.475.797.117.062.25.065.316.01l.006.128.203.107-.045-1.038zm-.188.405c.009.192-.102.265-.255.184a.6.6 0 0 1-.29-.466c-.006-.155.08-.28.262-.185.131.07.274.251.283.467z"/>
            <path d="m27.543 68.34.153.117-.015-.494c-.003-.087-.006-.196.02-.238.025-.048.074-.033.102-.012.128.1.136.346.138.432l.016.513.153.117-.017-.561a1.26 1.26 0 0 0-.07-.414.71.71 0 0 0-.196-.291c-.097-.074-.147-.029-.171-.009l-.003-.09-.141-.108.031 1.038zM28.642 68.853c-.037.074-.086.075-.137.036-.115-.088-.196-.295-.201-.473-.007-.213.082-.255.175-.183.094.072.133.198.153.265l.172.132c-.075-.37-.252-.564-.332-.626-.176-.135-.33-.027-.321.29.01.345.192.693.355.818.15.115.264.066.309-.126l-.173-.133zM29.824 69.438a.52.52 0 0 0 .008-.118c-.012-.262-.216-.644-.52-.8-.295-.15-.492.012-.479.306.014.303.246.663.53.808.225.115.4.035.447-.124l-.242-.123c-.039.063-.113.071-.214.02a.589.589 0 0 1-.274-.349l.744.38zm-.76-.584c.034-.17.175-.148.26-.104a.545.545 0 0 1 .27.375l-.53-.27z"/>
        </g>
        <g>
            <path d="m20.124 62.35-7.719-6.075c-.186-.146-.338-.49-.338-.767v-6.286c0-.277.152-.382.338-.235l7.719 6.074c.187.147.338.49.338.767v6.286c0 .277-.151.383-.338.236" fill="silver"/>
            <path d="m12.639 51.567 7.252 5.707V55.55l-7.252-5.707v1.723zm7.303 5.824-7.355-5.788v-1.876l7.355 5.788v1.876zM12.639 52.474l7.252 5.707v-.449l-7.252-5.706v.448zm7.303 5.824-7.355-5.788v-.602l7.355 5.789v.6z" fill="#231815"/>
            <path d="m12.639 54.1 3.6 2.832v-1.548l-3.6-2.834v1.55zm3.651 2.95-3.703-2.915v-1.702l3.703 2.915v1.701z" fill="#231815"/>
            <path fill="#FFF" d="M15.72 52.23v1.8"/>
            <path fill="#231815" d="m15.745 54.05-.052-.041v-1.8l.052.041zM12.639 55.725l3.6 2.833v-1.55l-3.6-2.832v1.549zm3.651 2.95-3.703-2.915V54.06l3.703 2.914v1.702z"/>
            <path fill="#000" d="m16.778 58.65-.026-.021v-2.442l.026.02zM16.85 58.707l-.025-.02v-2.443l.026.021zM17.076 56.442v2.26l-.027-.02v-2.26zM17.137 56.49v2.26l-.026-.02v-2.26zM17.295 58.874v-2.26l-.027-.02v2.26zM19.624 58.447l-.004 2.257-.088-.07.004-2.256zM19.224 58.133l-.004 2.256-.088-.07.004-2.256zM18.76 57.767l-.005 2.257-.088-.07.005-2.256zM18.105 57.252l-.004 2.257-.088-.07.004-2.256zM17.43 56.721l-.004 2.257-.088-.07.005-2.256zM17.527 56.797l-.003 2.257-.058-.045.002-2.258zM17.655 56.898l-.003 2.258-.058-.046.003-2.258zM18.438 57.514l-.003 2.258-.058-.046.003-2.258zM18.566 57.615l-.003 2.258-.058-.046.003-2.258zM17.009 56.39l-.006 2.254-.12-.094.006-2.255zM17.747 56.97v2.26l-.026-.02v-2.26zM17.882 59.336v-2.26l-.027-.02v2.26zM17.978 59.412v-2.26l-.026-.02v2.26zM18.203 57.33v2.259l-.026-.02v-2.26zM18.267 57.38v2.26l-.026-.021v-2.26zM18.332 57.43v2.26l-.027-.02v-2.26zM18.632 57.667v2.26l-.026-.02v-2.26zM18.854 60.102v-2.26l-.026-.021v2.26zM19.03 60.24v-2.26l-.027-.021v2.26zM19.092 58.029v2.26l-.026-.02v-2.26zM19.324 58.212v2.26l-.026-.021v-2.26zM19.418 58.285v2.26l-.026-.02v-2.26zM19.692 60.761v-2.26l-.026-.02v2.26zM19.798 61.026l-.027-.02v-2.443l.027.021zM19.862 61.076l-.027-.02v-2.442l.027.02z"/>
            <path d="M16.707 58.507c0 .086.112.172.283.259.128.02.225.001.225-.077 0-.07-.07-.166-.251-.229-.166-.06-.257-.028-.257.047m.552.625c0-.105-.126-.199-.326-.303-.173-.032-.267.001-.267.084-.007.085.107.202.297.269.18.063.296.039.296-.05m-.798-.276c0-.109.111-.146.295-.126l-.003-.006c-.164-.102-.235-.201-.235-.276 0-.136.198-.16.458-.068.287.102.43.257.43.364 0 .073-.06.13-.243.116v.004c.184.107.298.223.298.328 0 .15-.221.173-.503.073-.31-.11-.497-.282-.497-.409" fill="#000"/>
            <path d="M17.531 59.29v-.307c0-.047.003-.094.007-.14l-.007-.003a1.329 1.329 0 0 1-.113.089l-.335.176v.003l.448.182zm0 .348v-.25l-.634-.26v-.08l.609-.34.2.082v.571l.19.078v.098l-.19-.078v.25l-.175-.071z" fill="#000"/>
            <path d="M17.375 59.032c0 .086.111.172.283.259.127.02.224.001.224-.077 0-.07-.07-.165-.25-.229-.166-.059-.257-.027-.257.047m.551.625c0-.105-.126-.199-.325-.303-.174-.031-.267.002-.267.084-.008.085.107.202.296.269.18.064.296.04.296-.05m-.798-.276c0-.108.112-.146.295-.126l-.003-.006c-.164-.102-.234-.201-.234-.276 0-.136.198-.159.457-.067.287.101.431.256.431.363 0 .073-.061.13-.243.116v.004c.183.107.297.223.297.328 0 .15-.221.173-.503.073-.309-.109-.497-.282-.497-.409" fill="#000"/>
            <path d="M17.553 59.424c0 .23.119.404.3.47.204.074.302-.033.302-.26 0-.217-.094-.394-.3-.469-.175-.063-.302.019-.302.26m.8.277c0 .3-.185.4-.512.28-.288-.105-.483-.337-.488-.631 0-.297.214-.383.513-.274.31.113.487.343.487.625" fill="#000"/>
            <path d="M17.779 59.602c0 .23.118.403.3.47.204.073.301-.034.301-.26 0-.218-.093-.394-.299-.47-.175-.063-.302.019-.302.26m.8.277c0 .301-.185.4-.512.28-.288-.104-.484-.337-.488-.631 0-.297.213-.383.512-.274.311.113.488.344.488.625" fill="#000"/>
            <path d="M18.004 59.78c0 .23.119.403.3.469.204.074.302-.034.302-.26 0-.217-.094-.394-.3-.469-.175-.063-.302.018-.302.26m.8.276c0 .301-.185.4-.512.281-.288-.105-.483-.337-.488-.632 0-.296.214-.382.513-.273.31.112.487.343.487.624" fill="#000"/>
            <path d="M18.23 59.957c0 .23.118.403.3.469.204.074.301-.033.301-.26 0-.217-.093-.393-.299-.468-.175-.064-.302.018-.302.259m.8.277c0 .3-.186.4-.513.28-.287-.104-.483-.337-.487-.631 0-.297.213-.383.512-.274.311.113.488.344.488.625" fill="#000"/>
            <path d="M18.448 60.096c.008.014.028.041.05.058.038.03.05.008.05-.017 0-.04-.029-.08-.058-.103l-.017-.014v-.029l.017.013c.022.018.05.025.05-.01a.097.097 0 0 0-.04-.074c-.017-.015-.034-.018-.044-.016l-.008-.035c.012-.002.035.004.059.024a.162.162 0 0 1 .064.12c0 .029-.014.044-.042.035.028.03.05.074.05.115 0 .046-.028.065-.081.023a.27.27 0 0 1-.058-.066l.008-.024zM18.673 60.274c.009.014.029.04.05.057.039.03.05.008.05-.016 0-.041-.028-.08-.058-.104l-.016-.013v-.03l.016.013c.022.018.05.025.05-.01a.097.097 0 0 0-.039-.074c-.018-.014-.035-.017-.045-.016l-.007-.035c.011-.002.034.005.058.024a.162.162 0 0 1 .064.12c0 .03-.014.044-.041.035v.001c.027.03.05.074.05.114 0 .047-.028.066-.082.023a.27.27 0 0 1-.058-.065l.008-.024zM19.084 60.629c0 .23.118.404.3.47.204.074.302-.034.302-.26 0-.218-.094-.394-.3-.47-.175-.063-.302.02-.302.26m.8.277c0 .301-.185.4-.512.28-.288-.104-.483-.337-.488-.63 0-.298.213-.384.513-.275.31.113.487.344.487.625" fill="#000"/>
            <path d="M19.738 61.027v-.307c0-.047.003-.095.007-.14l-.007-.004a1.329 1.329 0 0 1-.113.09l-.335.176v.003l.448.182zm0 .348v-.25l-.634-.26v-.08l.609-.34.2.082v.571l.19.078v.098l-.19-.078v.25l-.175-.071z" fill="#000"/>
            <path d="m19.476 60.693-.085-.067-.009.068.018.013a.218.218 0 0 1 .049.053.189.189 0 0 1 .031.1c0 .057-.034.072-.083.034a.259.259 0 0 1-.056-.062l.008-.024c.01.014.027.038.048.054.028.022.053.017.053-.022 0-.037-.02-.08-.064-.115l-.031-.021.014-.128.107.084v.033zM19.644 60.83v-.001l-.04-.004-.005-.034.049.004.026.02v.291l-.03-.023zM12.995 54.05v-.773l-.102-.08v-.115l.258.203v.888zM14.024 53.81l-.318-.114v.65l.318.114v-.65zm-.658.532v-.887l1 .36v.886l-1-.36z" fill="#000"/>
            <path fill="#000" d="m15.905 55.818-1.786-1.406v-.092l1.786 1.406zM15.905 55.97l-1.786-1.406v-.092l1.786 1.406zM15.905 56.123l-1.786-1.405v-.092l1.786 1.405zM15.905 56.275l-1.786-1.406v-.091l1.786 1.405z"/>
            <text font-family="MStiffHeiHK-UltraBold, MStiffHeiHK" font-size="1.936" fill="#000" transform="translate(12.067 48.92)">
                            <tspan x=".825" y="6.734"> </tspan>
                            <tspan x=".825" y="10.709">D</tspan>
                        </text>
            <path fill="#000" d="m14.606 56.866-.974-.767v-.367l.974.767zM14.814 57.03l-.09-.071v-.368l.09.07zM15.905 57.888l-.973-.766v-.368l.973.767zM15.418 52.944l-2.49-1.96v-.542l2.49 1.96zM14.173 52.04l-1.246-.98v.135l1.246.98zM14.173 52.27l-1.246-.98v.134l1.246.98zM17.88 54.61l-1.87-1.471v-.271l1.87 1.472zM19.692 56.443l-3.682-2.898v-.27l3.682 2.897zM19.692 56.514l-3.682-2.898v.076l3.682 2.898zM19.692 56.643l-3.682-2.898v.075l3.682 2.898z"/>
        </g>
        <g>
            <path fill="#FFF" d="m30.228 48.102 2.135-1.828 3.224.914.334 8.126 2.676-1.319 2.203.811 1.32 2.032h2.782l3.318 2.032h3.257l2.66 4.977v12.91l-4.088 7-6.607 4.469H35.9l-7.705-5.282-4.777-12.393-.87-5.59 2.4-1.657 2.108.543 2.36 3.25z"/>
            <path d="M35.726 64.784a1.041 1.041 0 0 0 1.203-1.026l.01-6.364c0-.93.952-1.807 1.955-1.808.472 0 .917.187 1.254.525.336.337.522.783.52 1.254l-.01 7.276v.038c0 .574.465 1.04 1.04 1.042h.002a1.04 1.04 0 0 0 1.04-1.037l.019-4.964c0-.925.929-1.766 1.947-1.766h.003c.472 0 .917.187 1.254.525.336.337.521.783.52 1.254l-.007 5.871c-.001.513.372.95.879 1.03h.009a1.041 1.041 0 0 0 1.203-1.027l-.002-3.68c.001-.54.142-1.008.396-1.32.236-.29.559-.431.982-.43h.207c1.87.216 2.146 3.51 2.143 5.466l-.014 9.078a12.639 12.639 0 0 1-5.39 10.309 12.453 12.453 0 0 1-5.05 2.08 12.69 12.69 0 0 1-5.561-.28 12.56 12.56 0 0 1-8.131-7.041c-.263-.593-.48-1.21-.647-1.838a.976.976 0 0 0-.024-.077l-3.664-10.407a1.829 1.829 0 0 1 .08-1.408 1.831 1.831 0 0 1 1.66-1.049c.761 0 1.476.475 1.742 1.233l1.957 5.559a1.041 1.041 0 0 0 2.023-.344l.042-21.98a1.779 1.779 0 0 1 1.777-1.773h.003c.98.002 1.776.8 1.774 1.779l-.028 14.27c-.001.512.377.95.884 1.03m18.06-5.061c-1.01-1.69-2.424-2.153-3.432-2.244a1.63 1.63 0 0 0-.148-.007h-.266c-.44 0-.862.064-1.257.188a4.512 4.512 0 0 0-.803-1.091 4.454 4.454 0 0 0-3.167-1.32h-.007c-.597 0-1.173.115-1.703.323a4.493 4.493 0 0 0-.938-1.371 4.454 4.454 0 0 0-3.167-1.32h-.006c-.447 0-.896.07-1.328.201l.013-3.594A4.488 4.488 0 0 0 33.1 45h-.007a4.49 4.49 0 0 0-4.484 4.474l-.03 13.985a4.567 4.567 0 0 0-3.032-1.153c-.513 0-1.019.087-1.504.257a4.52 4.52 0 0 0-2.591 2.326 4.515 4.515 0 0 0-.193 3.475L24.9 78.712c.201.74.46 1.47.77 2.171a15.43 15.43 0 0 0 3.964 5.365 15.38 15.38 0 0 0 5.914 3.188 15.35 15.35 0 0 0 4.105.564h.023c.878 0 1.76-.076 2.623-.224a15.14 15.14 0 0 0 6.344-2.675 15.434 15.434 0 0 0 4.605-5.316 15.328 15.328 0 0 0 1.737-7.06L55 65.647c.004-2.611-.393-4.549-1.215-5.924" fill="#231815"/>
        </g>
    </g>
</svg>
