<svg xmlns="http://www.w3.org/2000/svg" width="40" height="52" xml:space="preserve"><defs><filter id="15" filterUnits="userSpaceOnUse" x="1.1" y="0.7" width="31.9" height="50.8"><feColorMatrix  type="matrix" values="1 0 0 0 0  0 1 0 0 0  0 0 1 0 0  0 0 0 1 0"/></filter></defs><mask maskUnits="userSpaceOnUse" x="1.1" y="0.7" width="31.9" height="50.8" id="13"><g style="filter:url(#15);"><path style="fill:#FFFFFF;" d="M10.8,0.7L7.5,3.1C7.3,3.2,7.3,3.5,7.3,3.5L1.1,46.7c-0.1,0.5,0.3,0.9,0.7,1l26.7,3.9c0,0,0.3,0.1,0.5-0.1l3.3-2.3l0.6-2.8L11.6,0.8C11.6,0.8,10.8,0.7,10.8,0.7z"/></g></mask><linearGradient id="16" gradientUnits="userSpaceOnUse" x1="-644.5339" y1="423.7307" x2="-645.5219" y2="423.7307" gradientTransform="matrix(38.8899 20.6781 21.8791 -41.1486 15831.9609 30804)"><stop offset="0" style="stop-color:#F2D43D"/><stop offset="1" style="stop-color:#31895E"/></linearGradient><path style="mask:url(#13);fill:url(#16);" d="M10.8,0.7L7.5,3.1C7.3,3.2,7.3,3.5,7.3,3.5L1.1,46.7c-0.1,0.5,0.3,0.9,0.7,1l26.7,3.9c0,0,0.3,0.1,0.5-0.1l3.3-2.3l0.6-2.8L11.6,0.8C11.6,0.8,10.8,0.7,10.8,0.7z"/><path style="fill:#DF5A3B;" d="M31.7,49.2L5,45.3c-0.5-0.1-0.8-0.5-0.7-1l6.2-43.2c0.1-0.5,0.5-0.8,1-0.7c0,0,0,0,0,0l26.7,3.9c0.5,0.1,0.8,0.5,0.7,1l-6.2,43.2C32.6,48.9,32.2,49.3,31.7,49.2"/><path style="fill:#F2CE4D;" d="M31.7,34.8c-0.4,0.9-1.5,1.3-2.4,0.8c-0.9-0.4-1.3-1.5-0.8-2.4c0.4-0.9,1.5-1.3,2.4-0.8C31.8,32.9,32.2,33.9,31.7,34.8 M26.5,37.4c-0.4,0.9-1.5,1.3-2.4,0.9c-0.9-0.4-1.3-1.5-0.9-2.4c0,0,0,0,0,0c0.4-0.9,1.5-1.3,2.4-0.8C26.6,35.4,27,36.5,26.5,37.4 M10,40.5l-1.2-0.2c-0.3,0-0.6,0.2-0.7,0.5c0,0.3,0.2,0.6,0.5,0.7l1.2,0.2c0.3,0,0.6-0.2,0.7-0.5C10.5,40.9,10.3,40.6,10,40.5 M14.8,41.2L13.6,41c-0.3,0-0.6,0.2-0.7,0.5c0,0.3,0.2,0.6,0.5,0.7l1.2,0.2c0.3,0,0.6-0.2,0.7-0.5C15.3,41.6,15.1,41.3,14.8,41.2"/><path style="fill:#62618F;" d="M15.8,32.1l-1.3-0.2l0.2-1.3c0.1-0.7-0.4-1.4-1.1-1.5c-0.7-0.1-1.4,0.4-1.5,1.1l0,0l-0.2,1.3l-1.3-0.2c-0.7-0.1-1.4,0.4-1.5,1.1c-0.1,0.7,0.4,1.4,1.1,1.5l1.3,0.2l-0.2,1.3c-0.1,0.7,0.4,1.4,1.1,1.5c0.7,0.1,1.4-0.4,1.5-1.1l0.2-1.3l1.3,0.2c0.7,0.1,1.4-0.4,1.4-1.1C16.9,32.9,16.5,32.3,15.8,32.1 M32.5,29.6L9.9,26.4l3.3-22.6L35.7,7L32.5,29.6z"/><defs><filter id="12" filterUnits="userSpaceOnUse" x="11.6" y="6.5" width="22.4" height="20.7"><feColorMatrix type="matrix" values="1 0 0 0 0  0 1 0 0 0  0 0 1 0 0  0 0 0 1 0"/></filter></defs><mask maskUnits="userSpaceOnUse" x="11.6" y="6.5" width="22.4" height="20.7" id="11"><g style="filter:url(#12);"><path style="fill:#FFFFFF;" d="M14.2,6.5l-2.6,17.8l19.8,2.9l2.6-17.8L14.2,6.5z"/></g></mask><linearGradient id="14" gradientUnits="userSpaceOnUse" x1="-632.2317" y1="423.9405" x2="-633.2197" y2="423.9405" gradientTransform="matrix(22.2635 11.8377 11.2776 -21.2102 9328.416 16498.7578)"><stop offset="0" style="stop-color:#F2D43D"/><stop offset="1" style="stop-color:#31895E"/></linearGradient><path style="mask:url(#11);fill:url(#14);" d="M14.2,6.5l-2.6,17.8l19.8,2.9l2.6-17.8L14.2,6.5z"/><path style="fill:#231815;" d="M26.9,16.9C26.9,16.9,26.9,16.9,26.9,16.9C26.9,16.9,26.9,16.9,26.9,16.9L26.9,16.9z M17.2,33.7c-0.2,0.9-1,1.5-1.9,1.4L14.4,35l-0.1,0.9c-0.1,0.5-0.3,0.8-0.7,1.1c-0.5,0.4-1.2,0.4-1.8,0.1v0c-0.6-0.3-1-1-0.9-1.8l0.1-0.9l-0.9-0.1C9.7,34.2,9.3,34,9,33.6c-0.3-0.4-0.4-0.8-0.3-1.3c0.1-0.5,0.3-0.8,0.7-1.1c0.4-0.3,0.8-0.4,1.3-0.3l0.9,0.1l0.1-0.9c0.1-0.4,0.3-0.8,0.7-1.1c0.4-0.3,0.8-0.4,1.3-0.3c0.5,0.1,0.8,0.3,1.1,0.7c0.3,0.4,0.4,0.8,0.3,1.3l-0.1,0.9l0.9,0.1C16.8,31.9,17.4,32.8,17.2,33.7z M16.5,33.6c0.1-0.5-0.3-0.9-0.7-1l-1.3-0.2c-0.2,0-0.4-0.2-0.3-0.5l0.2-1.3c0.1-0.5-0.2-0.9-0.7-1c-0.2,0-0.5,0-0.7,0.2c-0.2,0.1-0.3,0.4-0.4,0.6l-0.2,1.3c0,0.2-0.2,0.4-0.5,0.3l-1.3-0.2c-0.5-0.1-0.9,0.2-1,0.7c-0.1,0.5,0.2,0.9,0.7,1c0,0,0,0,0,0l1.3,0.2c0,0,0.1,0,0.1,0c0.2,0.1,0.2,0.2,0.2,0.4l-0.2,1.3c0,0.5,0.3,0.9,0.8,1c0.5,0,0.9-0.3,1-0.7l0.2-1.3c0-0.2,0.2-0.4,0.5-0.3c0,0,0,0,0,0l1.3,0.2C15.9,34.4,16.4,34.1,16.5,33.6C16.5,33.6,16.5,33.6,16.5,33.6z M11.2,24.3l2.6-17.8c0-0.2,0.2-0.4,0.5-0.3c0,0,0,0,0,0L34,9c0.1,0,0.2,0.1,0.3,0.2c0.1,0.1,0.1,0.2,0.1,0.3l-2.6,17.8c0,0.2-0.2,0.4-0.5,0.3c0,0,0,0,0,0l-19.8-2.9c0,0-0.1,0-0.1,0C11.2,24.7,11.2,24.5,11.2,24.3z M12,24l19,2.7l2.5-17L14.5,7L12,24z M25.9,17.3l-0.6,0.5c0,0-0.1,0.1-0.1,0.1c0,0.1,0.1,0.2,0.2,0.2c0.1,0,0.1,0,0.1,0l0.6-0.5c0.1-0.1,0.1-0.2,0-0.3C26.1,17.3,26,17.3,25.9,17.3z M26.9,37.5c-0.3,0.5-0.7,0.9-1.2,1.1c-0.5,0.2-1.1,0.2-1.7-0.1l-0.1,0l0,0c-0.5-0.3-0.8-0.7-1-1.2c-0.4-1.1,0.2-2.4,1.3-2.8c0.5-0.2,1.1-0.2,1.7,0.1C27,35.1,27.4,36.4,26.9,37.5z M26.2,36.1c-0.1-0.3-0.3-0.6-0.6-0.8h0l-0.1,0c-0.7-0.3-1.5,0-1.8,0.6c-0.2,0.3-0.2,0.7-0.1,1.1c0.1,0.3,0.4,0.6,0.7,0.8c0.3,0.2,0.7,0.2,1.1,0.1C26.1,37.6,26.5,36.8,26.2,36.1z M15.6,42c-0.1,0.5-0.6,0.9-1.1,0.8l-1.2-0.2c-0.1,0-0.2-0.1-0.3-0.1c-0.5-0.3-0.7-0.9-0.4-1.4c0.2-0.4,0.6-0.6,1-0.5l1.2,0.2C15.4,40.9,15.7,41.5,15.6,42z M14.9,41.8c0-0.1,0-0.2-0.1-0.2c0,0,0,0-0.1,0l-1.2-0.2c-0.1,0-0.2,0.1-0.2,0.2c0,0.1,0.1,0.2,0.2,0.2l1.2,0.2C14.8,42,14.9,42,14.9,41.8z M36.1,7.1l-3.3,22.6c0,0.2-0.2,0.4-0.5,0.3L9.8,26.8c0,0-0.1,0-0.1,0c-0.2-0.1-0.2-0.2-0.2-0.4l3.3-22.6c0-0.2,0.2-0.4,0.5-0.3c0,0,0,0,0,0l22.6,3.3C36,6.7,36.2,6.9,36.1,7.1z M35.3,7.4L13.5,4.2L10.3,26l21.8,3.2L35.3,7.4z M39.4,5.4l-6.2,43.2c-0.1,0.3-0.2,0.6-0.5,0.8l-3.4,2.4C29.1,52,28.8,52,28.7,52c-0.1,0-0.2,0-0.3,0L1.7,48.1C1,48,0.5,47.3,0.6,46.6L6.8,3.4c0,0,0-0.5,0.4-0.8l3.3-2.4c0,0,0,0,0,0c0,0,0,0,0,0l0.1-0.1l0,0C11,0,11.3,0,11.6,0l0.1,0l26.6,3.8c0.4,0.1,0.7,0.2,0.9,0.5C39.4,4.7,39.5,5,39.4,5.4z M30.8,49.6L4.9,45.8c-0.7-0.1-1.2-0.8-1.1-1.5L9.9,2L7.8,3.5l0,0.1L1.5,46.7c0,0.2,0.1,0.4,0.3,0.4L28.6,51c0.1,0,0.1,0,0.1,0L30.8,49.6z M38.5,5.3c0-0.1,0-0.2-0.1-0.3c-0.1-0.1-0.1-0.1-0.2-0.1L11.4,1c0,0,0,0,0,0c-0.1,0-0.1,0-0.2,0.1C11.1,1.1,11,1.2,11,1.3L4.8,44.4c0,0.2,0.1,0.4,0.3,0.4l16.8,2.4l0.7-5c0-0.2,0.2-0.4,0.5-0.3c0.2,0,0.4,0.2,0.3,0.5l-0.7,5l1,0.2l0.7-5c0-0.2,0.2-0.4,0.5-0.3c0.2,0,0.4,0.2,0.3,0.5l-0.7,5l1,0.2l0.7-5c0-0.2,0.2-0.4,0.5-0.3s0.4,0.2,0.3,0.5l-0.7,5l1,0.2l0.7-5c0-0.2,0.2-0.4,0.5-0.3c0.2,0,0.4,0.2,0.3,0.5l-0.7,5l1,0.2l0.7-5c0-0.2,0.2-0.3,0.4-0.3c0.2,0,0.4,0.2,0.4,0.4l-0.7,5l1.7,0.2c0.1,0,0.2,0,0.3-0.1c0.1-0.1,0.1-0.1,0.1-0.2L38.5,5.3z M27.4,16l-0.6,0.5c0,0-0.1,0.1-0.1,0.1c0,0.1,0.1,0.2,0.2,0.2c0.1,0,0.1,0,0.1,0l0.6-0.5c0.1-0.1,0.1-0.2,0-0.2C27.6,16,27.5,16,27.4,16z M10.7,40.5C11,41,11,41.6,10.5,42c-0.2,0.2-0.5,0.2-0.8,0.2L8.5,42c-0.1,0-0.2-0.1-0.3-0.1l0,0c-0.5-0.3-0.7-0.9-0.4-1.4c0.1-0.1,0.2-0.3,0.3-0.3C8.3,40,8.5,39.9,8.8,40l1.2,0.2C10.3,40.2,10.5,40.3,10.7,40.5z M10.1,41.2c0-0.1,0-0.1,0-0.2c0,0,0,0-0.1-0.1h0c0,0,0,0-0.1,0l-1.2-0.2c-0.1,0-0.2,0.1-0.2,0.2c0,0.1,0,0.1,0,0.2c0,0,0.1,0.1,0.1,0.1l1.2,0.2C10,41.4,10.1,41.3,10.1,41.2z M23.1,14.1c-0.1,0-0.2,0.1-0.2,0.2l-0.1,0.8c0,0,0,0,0,0c0,0.1,0.1,0.2,0.2,0.2v0c0,0,0,0,0,0c0.1,0,0.2-0.1,0.2-0.2l0.1-0.8C23.3,14.2,23.2,14.1,23.1,14.1z M31.3,15.1l-2.8,0.7c0,0-0.1,0-0.1,0c-0.2,0-0.3-0.2-0.2-0.3c0,0,0-0.1,0-0.1l1.4-2.5c0.1-0.1,0.2-0.2,0.4-0.1c0.1,0,0.1,0.1,0.1,0.2l0.1,1.1l1.1,0.4c0.1,0.1,0.2,0.2,0.1,0.4C31.5,15,31.4,15.1,31.3,15.1z M30.3,14.7l-0.4-0.2c-0.1,0-0.2-0.1-0.2-0.2l-0.1-0.4L29,15L30.3,14.7z M22.9,23.6C22.9,23.6,22.9,23.6,22.9,23.6C22.9,23.6,22.9,23.6,22.9,23.6L22.9,23.6z M22.4,20.5l0.8,2.7c0,0.2,0,0.3-0.2,0.3c0,0-0.1,0-0.1,0c0,0-0.1,0-0.1-0.1l-0.9-0.7l-1.1,0.4c-0.1,0.1-0.3,0-0.4-0.2c0-0.1,0-0.2,0-0.3l1.5-2.4c0.1-0.1,0.3-0.2,0.4-0.1C22.4,20.4,22.4,20.4,22.4,20.5z M22.4,22.6l-0.4-1.3l-0.7,1.1l0.4-0.2c0,0,0.1,0,0.1,0c0,0,0.1,0,0.1,0.1L22.4,22.6z M20.6,10.6l0.5-0.3c0,0,0,0,0,0c0.2-0.1,0.2-0.4,0.1-0.6l0-0.1c0,0,0,0,0,0c-0.1-0.2-0.4-0.2-0.6-0.1c0,0,0,0,0,0c-0.1-0.2-0.4-0.2-0.6-0.1l-0.1,0c0,0,0,0,0,0c-0.2,0.1-0.2,0.4-0.1,0.6l0.3,0.5C20.2,10.7,20.4,10.7,20.6,10.6z M32.1,35c-0.5,1.1-1.8,1.5-2.9,1c0,0-0.1,0-0.1,0c-0.5-0.3-0.8-0.7-1-1.2c-0.4-1.1,0.2-2.4,1.3-2.8c0.5-0.2,1.1-0.2,1.7,0.1C32.2,32.6,32.6,33.9,32.1,35z M30.8,32.8L30.8,32.8L30.8,32.8c-0.7-0.4-1.6-0.1-1.9,0.6c-0.2,0.3-0.2,0.7-0.1,1.1c0.3,0.7,1,1.1,1.8,0.8c0.3-0.1,0.6-0.4,0.8-0.7C31.7,34,31.4,33.2,30.8,32.8z M22.6,17.2C22.6,17.2,22.6,17.2,22.6,17.2c0.1,0,0.2-0.1,0.2-0.2l0.1-0.8c0-0.1-0.1-0.2-0.2-0.2c-0.1,0-0.2,0.1-0.2,0.2L22.5,17c0,0,0,0,0,0C22.5,17.1,22.5,17.2,22.6,17.2z M19,9.4C19,9.4,19,9.4,19,9.4c-0.1-0.2-0.4-0.2-0.6-0.1c0,0,0,0,0,0c-0.1-0.2-0.4-0.2-0.6-0.1l-0.1,0c0,0,0,0,0,0c-0.2,0.1-0.2,0.4-0.1,0.6l0.3,0.5c0.1,0.2,0.3,0.2,0.5,0.1L19,10c0,0,0,0,0,0C19.2,9.9,19.2,9.6,19,9.4L19,9.4z M22.3,19.4L22.3,19.4C22.3,19.4,22.3,19.4,22.3,19.4c0.1,0,0.2-0.1,0.2-0.2l0.1-0.8c0-0.1-0.1-0.2-0.2-0.2s-0.2,0.1-0.2,0.2l-0.1,0.8c0,0,0,0,0,0C22.2,19.3,22.2,19.4,22.3,19.4z M16.8,9.1C16.8,9.1,16.8,9.1,16.8,9.1c-0.1-0.2-0.4-0.2-0.6-0.1c0,0,0,0,0,0c-0.1-0.2-0.4-0.2-0.6-0.1l-0.1,0c0,0,0,0,0,0c-0.2,0.1-0.2,0.4-0.1,0.6l0.3,0.5c0.1,0.2,0.3,0.2,0.5,0.1l0.5-0.3c0,0,0,0,0,0C16.9,9.6,16.9,9.3,16.8,9.1L16.8,9.1z"/><path style="fill:#FFFFFF;fill-opacity:0.25;" d="M20.1,7.8l6.5,0.9l-7.4,16.3l-6.5-0.9	L20.1,7.8z M28,8.9L29,9.1l-7.4,16.3l-1.1-0.1L28,8.9z M29.9,9.2l0.4,0.1L23,25.6l-0.4-0.1L29.9,9.2z"/></svg>