<?xml version="1.0" encoding="utf-8"?>
<!-- Generator: Adobe Illustrator 26.5.0, SVG Export Plug-In . SVG Version: 6.00 Build 0)  -->
<svg version="1.1" id="圖層_1" xmlns="http://www.w3.org/2000/svg" xmlns:xlink="http://www.w3.org/1999/xlink" x="0px" y="0px"
	 width="48px" height="66px" viewBox="0 0 48 66" style="enable-background:new 0 0 48 66;" xml:space="preserve">
<path style="opacity:0.1;fill:#F8EB01;enable-background:new    ;" d="M40.79,65.89H16.4v-9.71l0.53-0.39
	c4.78-3.56,9.37-7.7,13.23-11.29c2.09-1.97,2.69-2.65,2.69-5.18c0-1.6-1.27-2.9-2.82-2.9h-2.87c-1.58,0-2.86,1.3-2.86,2.9v2.54
	h-8.23v-3.6c0-5.73,4.68-10.4,10.44-10.4h4.46c5.75,0,10.44,4.66,10.44,10.4v0.78c0,4.45-0.64,7.18-4.3,10.65
	c-3.53,3.31-6.68,6.05-9.62,8.38h13.3C40.79,58.07,40.79,65.89,40.79,65.89z M16.9,65.39h23.4v-6.82H26.04l0.57-0.45
	c3.08-2.41,6.4-5.28,10.15-8.8c3.52-3.35,4.14-5.98,4.14-10.29v-0.78c0-5.46-4.46-9.9-9.94-9.9H26.5c-5.48,0-9.94,4.44-9.94,9.9v3.1
	h7.23v-2.04c0-1.88,1.51-3.4,3.36-3.4h2.87c1.83,0,3.32,1.53,3.32,3.4c0,2.71-0.73,3.54-2.85,5.54c-3.87,3.59-8.47,7.75-13.28,11.32
	l-0.33,0.24v8.98H16.9z"/>
<path style="opacity:0.25;fill:#F8EB01;enable-background:new    ;" d="M39.79,64.89H15.4v-9.71l0.53-0.39
	c4.78-3.56,9.37-7.7,13.23-11.29c2.09-1.97,2.69-2.65,2.69-5.18c0-1.6-1.27-2.9-2.82-2.9h-2.87c-1.58,0-2.86,1.3-2.86,2.9v2.54
	h-8.23v-3.6c0-5.73,4.68-10.4,10.44-10.4h4.46c5.75,0,10.44,4.66,10.44,10.4v0.78c0,4.45-0.64,7.18-4.3,10.65
	c-3.53,3.31-6.68,6.05-9.62,8.38h13.3C39.79,57.07,39.79,64.89,39.79,64.89z M15.9,64.39h23.4v-6.82H25.04l0.57-0.45
	c3.08-2.41,6.4-5.28,10.15-8.8c3.52-3.35,4.14-5.98,4.14-10.29v-0.78c0-5.46-4.46-9.9-9.94-9.9H25.5c-5.48,0-9.94,4.44-9.94,9.9v3.1
	h7.23v-2.04c0-1.88,1.51-3.4,3.36-3.4h2.87c1.83,0,3.32,1.53,3.32,3.4c0,2.71-0.73,3.54-2.85,5.54c-3.87,3.59-8.47,7.75-13.28,11.32
	l-0.33,0.24v8.98H15.9z"/>
<path style="opacity:0.5;fill:#F8EB01;enable-background:new    ;" d="M38.79,63.89H14.4v-9.71l0.53-0.39
	c4.78-3.56,9.37-7.7,13.23-11.29c2.09-1.97,2.69-2.65,2.69-5.18c0-1.6-1.27-2.9-2.82-2.9h-2.87c-1.58,0-2.86,1.3-2.86,2.9v2.54
	h-8.23v-3.6c0-5.73,4.68-10.4,10.44-10.4h4.46c5.75,0,10.44,4.66,10.44,10.4v0.78c0,4.45-0.64,7.18-4.3,10.65
	c-3.53,3.31-6.68,6.05-9.62,8.38h13.3C38.79,56.07,38.79,63.89,38.79,63.89z M14.9,63.39h23.4v-6.82H24.04l0.57-0.45
	c3.08-2.41,6.4-5.29,10.15-8.8c3.52-3.35,4.14-5.98,4.14-10.29v-0.78c0-5.46-4.46-9.9-9.94-9.9H24.5c-5.48,0-9.94,4.44-9.94,9.9v3.1
	h7.23v-2.04c0-1.88,1.51-3.4,3.36-3.4h2.87c1.83,0,3.32,1.53,3.32,3.4c0,2.71-0.73,3.54-2.85,5.54c-3.87,3.59-8.47,7.75-13.28,11.32
	l-0.33,0.24v8.98H14.9z"/>
<path style="opacity:0.75;fill:#F8EB01;enable-background:new    ;" d="M37.79,62.89H13.4v-9.71l0.53-0.39
	c4.78-3.56,9.37-7.7,13.23-11.29c2.09-1.97,2.69-2.65,2.69-5.18c0-1.6-1.27-2.9-2.82-2.9h-2.87c-1.58,0-2.86,1.3-2.86,2.9v2.54
	h-8.23v-3.6c0-5.73,4.68-10.4,10.44-10.4h4.46c5.75,0,10.44,4.66,10.44,10.4v0.78c0,4.45-0.64,7.18-4.3,10.65
	c-3.53,3.31-6.68,6.05-9.62,8.38h13.3C37.79,55.07,37.79,62.89,37.79,62.89z M13.9,62.39h23.4v-6.82H23.04l0.57-0.45
	c3.08-2.41,6.4-5.29,10.15-8.8c3.52-3.35,4.14-5.98,4.14-10.29v-0.78c0-5.46-4.46-9.9-9.94-9.9H23.5c-5.48,0-9.94,4.44-9.94,9.9v3.1
	h7.23v-2.04c0-1.88,1.51-3.4,3.36-3.4h2.87c1.83,0,3.32,1.53,3.32,3.4c0,2.71-0.73,3.54-2.85,5.54c-3.87,3.59-8.47,7.75-13.28,11.32
	l-0.31,0.26V62.39z"/>
<path style="fill-rule:evenodd;clip-rule:evenodd;fill:#FFFFFF;" d="M26.97,24.11h-4.46c-5.62,0-10.19,4.55-10.19,10.15v3.35h7.73
	v-2.29c0-1.74,1.4-3.15,3.11-3.15h2.86c1.69,0,3.07,1.41,3.07,3.15c0,2.62-0.67,3.38-2.77,5.36c-3.86,3.58-8.45,7.73-13.25,11.3
	l-0.43,0.32v9.33h23.9v-7.32H22.77c3.09-2.42,6.44-5.32,10.17-8.81c3.59-3.41,4.22-6.09,4.22-10.47v-0.78
	C37.15,28.67,32.58,24.11,26.97,24.11"/>
<path style="fill-rule:evenodd;clip-rule:evenodd;fill:#918A8A;" d="M12.5,0.11L12.5,0.11c0.28,0,0.5,0.22,0.5,0.5v19
	c0,0.28-0.22,0.5-0.5,0.5l0,0c-0.28,0-0.5-0.22-0.5-0.5v-19C12,0.34,12.22,0.11,12.5,0.11z M43.5,16.11L43.5,16.11
	c0.28,0,0.5,0.22,0.5,0.5v19c0,0.28-0.22,0.5-0.5,0.5l0,0c-0.28,0-0.5-0.22-0.5-0.5v-19C43,16.34,43.22,16.11,43.5,16.11z
	 M39.5,10.11L39.5,10.11c0.28,0,0.5,0.22,0.5,0.5v14c0,0.28-0.22,0.5-0.5,0.5l0,0c-0.28,0-0.5-0.22-0.5-0.5v-14
	C39,10.34,39.22,10.11,39.5,10.11z M4.5,20.11L4.5,20.11c0.28,0,0.5,0.22,0.5,0.5v11c0,0.28-0.22,0.5-0.5,0.5l0,0
	c-0.28,0-0.5-0.22-0.5-0.5v-11C4,20.34,4.22,20.11,4.5,20.11z M8.5,10.11L8.5,10.11c0.28,0,0.5,0.22,0.5,0.5v25
	c0,0.28-0.22,0.5-0.5,0.5l0,0c-0.28,0-0.5-0.22-0.5-0.5v-25C8,10.34,8.22,10.11,8.5,10.11z"/>
</svg>
