<?xml version="1.0" encoding="utf-8"?>
<!-- Generator: Adobe Illustrator 26.5.0, SVG Export Plug-In . SVG Version: 6.00 Build 0)  -->
<svg version="1.1" id="圖層_1" xmlns="http://www.w3.org/2000/svg" xmlns:xlink="http://www.w3.org/1999/xlink" x="0px" y="0px"
	 width="48px" height="66px" viewBox="0 0 48 66" style="enable-background:new 0 0 48 66;" xml:space="preserve">
<path style="opacity:0.1;fill:#F8EB01;enable-background:new    ;" d="M34.89,61.78h-9.21l0.05-0.29l4.86-27.82h-6.25v5.2h-9.09
	V24.73H41.5l-0.05,0.29L34.89,61.78z M26.28,61.28h8.19l6.43-36.04H15.75v13.12h8.09v-5.2h7.35l-0.05,0.29L26.28,61.28z"/>
<path style="opacity:0.25;fill:#F8EB01;enable-background:new    ;" d="M33.89,60.78h-9.21l4.91-28.12h-6.25v5.2h-9.09V23.73H40.5
	l-0.05,0.29L33.89,60.78z M25.28,60.28h8.19l6.43-36.04H14.75v13.12h8.09v-5.2h7.35l-0.05,0.29L25.28,60.28z"/>
<path style="opacity:0.5;fill:#F8EB01;enable-background:new    ;" d="M32.89,59.78h-9.21l4.91-28.12h-6.25v5.2h-9.09V22.73H39.5
	l-0.05,0.29L32.89,59.78z M24.28,59.28h8.19l6.43-36.04H13.75v13.12h8.09v-5.2h7.35l-0.05,0.29L24.28,59.28z"/>
<path style="opacity:0.75;fill:#F8EB01;enable-background:new    ;" d="M31.89,58.78h-9.21l4.91-28.12h-6.25v5.2h-9.09V21.73H38.5
	l-0.05,0.29L31.89,58.78z M23.28,58.28h8.19l6.43-36.04H12.75v13.12h8.09v-5.2h7.35l-0.05,0.29L23.28,58.28z"/>
<path style="fill-rule:evenodd;clip-rule:evenodd;fill:#FFFFFF;" d="M11.5,34.61h8.59v-5.2h6.8l-4.91,28.12h8.7l6.52-36.54H11.5
	V34.61z"/>
<path style="fill-rule:evenodd;clip-rule:evenodd;fill:#918A8A;" d="M39.5,46L39.5,46c0.28,0,0.5,0.22,0.5,0.5v19
	c0,0.28-0.22,0.5-0.5,0.5l0,0c-0.28,0-0.5-0.22-0.5-0.5v-19C39,46.22,39.22,46,39.5,46z M42.5,42L42.5,42c0.28,0,0.5,0.22,0.5,0.5
	v14c0,0.28-0.22,0.5-0.5,0.5l0,0c-0.28,0-0.5-0.22-0.5-0.5v-14C42,42.22,42.22,42,42.5,42z M11.5,8L11.5,8C11.78,8,12,8.22,12,8.5
	v8.44c0,0.28-0.22,0.5-0.5,0.5l0,0c-0.28,0-0.5-0.22-0.5-0.5V8.5C11,8.22,11.22,8,11.5,8z M5.5,17.44L5.5,17.44
	c0.28,0,0.5,0.22,0.5,0.5v4.67c0,0.28-0.22,0.5-0.5,0.5l0,0c-0.28,0-0.5-0.22-0.5-0.5v-4.67C5,17.67,5.22,17.44,5.5,17.44z
	 M8.5,12.72L8.5,12.72c0.28,0,0.5,0.22,0.5,0.5V24.5C9,24.78,8.78,25,8.5,25l0,0C8.22,25,8,24.78,8,24.5V13.22
	C8,12.95,8.22,12.72,8.5,12.72z"/>
</svg>
