<?xml version="1.0" encoding="utf-8"?>
<!-- Generator: Adobe Illustrator 26.5.0, SVG Export Plug-In . SVG Version: 6.00 Build 0)  -->
<svg version="1.1" id="圖層_1" xmlns="http://www.w3.org/2000/svg" xmlns:xlink="http://www.w3.org/1999/xlink" x="0px" y="0px"
	 width="156px" height="218px" viewBox="0 0 156 218" style="enable-background:new 0 0 156 218;" xml:space="preserve">
<style type="text/css">
	.st0{fill:#813A3A;}
	.st1{fill-rule:evenodd;clip-rule:evenodd;fill:url(#SVGID_1_);}
	.st2{fill-rule:evenodd;clip-rule:evenodd;fill:#231815;}
	.st3{fill-rule:evenodd;clip-rule:evenodd;fill:url(#SVGID_00000127014176779400512790000009415113627725047428_);}
	.st4{fill-rule:evenodd;clip-rule:evenodd;fill:url(#SVGID_00000009590320087194233010000013500441763039775654_);}
	.st5{fill-rule:evenodd;clip-rule:evenodd;fill:url(#SVGID_00000136403814789317132950000010743083458909248652_);}
	.st6{fill-rule:evenodd;clip-rule:evenodd;fill:url(#SVGID_00000106852310221780219930000005881747356993687202_);}
	.st7{fill-rule:evenodd;clip-rule:evenodd;fill:url(#SVGID_00000137842051086947426070000003292402675145108914_);}
	.st8{fill-rule:evenodd;clip-rule:evenodd;fill:url(#SVGID_00000096753136821617553900000015131730116232146354_);}
	.st9{fill-rule:evenodd;clip-rule:evenodd;fill:#813924;}
	.st10{fill:#231815;}
	.st11{fill-rule:evenodd;clip-rule:evenodd;fill:#CCC3B4;}
	.st12{fill-rule:evenodd;clip-rule:evenodd;fill:#606060;}
	.st13{fill-rule:evenodd;clip-rule:evenodd;fill:#CF5531;}
	.st14{fill-rule:evenodd;clip-rule:evenodd;fill:#71859E;}
	.st15{fill-rule:evenodd;clip-rule:evenodd;fill:#F4EFEA;}
	.st16{fill-rule:evenodd;clip-rule:evenodd;fill:#1B1E23;}
	.st17{fill-rule:evenodd;clip-rule:evenodd;fill:#3D4251;}
	.st18{fill-rule:evenodd;clip-rule:evenodd;fill:#999184;}
	.st19{filter:url(#Adobe_OpacityMaskFilter);}
	.st20{fill-rule:evenodd;clip-rule:evenodd;fill:#FFFFFF;}
	
		.st21{mask:url(#_x31_hfol3zv1i_00000052084204211240782740000017152921836528043183_);fill-rule:evenodd;clip-rule:evenodd;fill:#231815;}
	.st22{fill-rule:evenodd;clip-rule:evenodd;fill:#3A3D44;}
	.st23{fill-rule:evenodd;clip-rule:evenodd;fill:#435B65;}
	.st24{fill-rule:evenodd;clip-rule:evenodd;fill:#54717D;}
	.st25{fill-rule:evenodd;clip-rule:evenodd;fill:#C1C5C6;}
	.st26{fill-rule:evenodd;clip-rule:evenodd;fill:#C0C0C0;}
	.st27{fill-rule:evenodd;clip-rule:evenodd;}
	.st28{font-family:'ArialMT';}
	.st29{font-size:1.9344px;}
	.st30{fill-rule:evenodd;clip-rule:evenodd;fill:#813A3A;}
	.st31{fill:#FFFFFF;}
</style>
<path class="st0" d="M112.3,124.2L84.4,70.1l-79,6.6L0,100.6l19.6,52.5v31.5l41.5,33.9l94.8-26.8v-35.4l-46.5-20.5L112.3,124.2
	L112.3,124.2z M82.7,73.3l26.5,51.3l-3.1,12.9l47,20.7v31.1l-91.2,25.8l-39.2-32v-30.6L3.1,100.4l4.8-20.9
	C7.9,79.5,82.7,73.3,82.7,73.3z"/>
<linearGradient id="SVGID_1_" gradientUnits="userSpaceOnUse" x1="-5.3582" y1="239.942" x2="-5.6087" y2="240.3206" gradientTransform="matrix(99.469 0 0 -65.886 596.346 15945.542)">
	<stop  offset="0" style="stop-color:#AF9B80"/>
	<stop  offset="1" style="stop-color:#776249"/>
</linearGradient>
<path class="st1" d="M75.8,92.3l29,46.3l0.1,1.9c0,0-74.1,14.5-74.6,14.5c-0.6,0-6-0.5-6-0.5L8.7,112.6l-3.1-12l10.9-11.5L75.8,92.3
	L75.8,92.3z"/>
<path class="st2" d="M75.3,93.2l28.6,45.7l0,0.9c-29.1,5.7-72.3,14.1-73.8,14.3c-0.4,0-3-0.2-5.3-0.4L9.5,112.3l-3-11.5L16.8,90
	C16.8,90,75.3,93.2,75.3,93.2z M105.7,138.3L76.3,91.5l-60.2-3.3L4.6,100.4l3.3,12.4L23.6,155l0.1,0.3l0.6,0c1.3,0.1,5.5,0.5,6,0.5
	c0.6,0,47.1-9.1,74.8-14.5l0.7-0.1L105.7,138.3L105.7,138.3z"/>
<linearGradient id="SVGID_00000182511845605015604310000002967210714461519753_" gradientUnits="userSpaceOnUse" x1="-5.4223" y1="240.6592" x2="-5.4223" y2="239.8007" gradientTransform="matrix(76.781 0 0 -26.465 460.217 6430.1309)">
	<stop  offset="0" style="stop-color:#AF9B80"/>
	<stop  offset="1" style="stop-color:#776249"/>
</linearGradient>
<path style="fill-rule:evenodd;clip-rule:evenodd;fill:url(#SVGID_00000182511845605015604310000002967210714461519753_);" d="
	M8.5,80.3l73.8-6.1l-5,18l-71.7,8.4L8.5,80.3z"/>
<path class="st2" d="M6.5,99.6l2.7-18.6l71.8-5.9l-4.5,16.3L6.5,99.6z M82.7,73.3l-75,6.2l-3.2,22.2L77.9,93l5.2-18.9L82.7,73.3
	L82.7,73.3z"/>
<linearGradient id="SVGID_00000160148658671989538790000004913055803863730076_" gradientUnits="userSpaceOnUse" x1="-4.9346" y1="240.0663" x2="-5.6777" y2="239.973" gradientTransform="matrix(94.593 0 0 -43.851 597.828 10702.3066)">
	<stop  offset="0" style="stop-color:#8C795E"/>
	<stop  offset="1" style="stop-color:#54422D"/>
</linearGradient>
<path style="fill-rule:evenodd;clip-rule:evenodd;fill:url(#SVGID_00000160148658671989538790000004913055803863730076_);" d="
	M100.5,156.3l21.8,5.7l8.4,19.7l-72.7,18.4l-21.8-24.9l32.9-13.2L100.5,156.3z"/>
<linearGradient id="SVGID_00000035507984499169085920000016011820013118521225_" gradientUnits="userSpaceOnUse" x1="-5.5231" y1="240.2285" x2="-5.4385" y2="240.0162" gradientTransform="matrix(82.253 0 0 -43.143 510.893 10513.5186)">
	<stop  offset="0" style="stop-color:#AF9B80"/>
	<stop  offset="1" style="stop-color:#68543B"/>
</linearGradient>
<path style="fill-rule:evenodd;clip-rule:evenodd;fill:url(#SVGID_00000035507984499169085920000016011820013118521225_);" d="
	M23.4,153.6l82.2-15.5v24.3l-82.2,18.8V153.6z"/>
<path class="st2" d="M104.7,139.2v22.6l-80.5,18.4v-25.8L104.7,139.2z M105.6,137.2l-82.4,15.5l-0.2,0l-0.6,0.7v28.9l83.9-19.2
	v-25.6C106.4,137.6,105.6,137.2,105.6,137.2z"/>
<linearGradient id="SVGID_00000131361693497890625350000008074557198185979053_" gradientUnits="userSpaceOnUse" x1="-6.0997" y1="239.7758" x2="-5.5206" y2="240.0057" gradientTransform="matrix(46.632 0 0 -50.567 379.42 12302.7031)">
	<stop  offset="0" style="stop-color:#AF9B80"/>
	<stop  offset="1" style="stop-color:#654D31"/>
</linearGradient>
<path style="fill-rule:evenodd;clip-rule:evenodd;fill:url(#SVGID_00000131361693497890625350000008074557198185979053_);" d="
	M105.5,138.1l46.6,20.9v29.7l-46.6-26L105.5,138.1z"/>
<path class="st2" d="M106.4,162.1v-22.7l44.9,20.1v27.6L106.4,162.1L106.4,162.1z M104.7,136.8v26.3l47.2,26.4l0.2,0.1l1-0.3v-30.9
	C153,158.4,104.7,136.8,104.7,136.8z"/>
<linearGradient id="SVGID_00000075875438182222947400000014066010725945685421_" gradientUnits="userSpaceOnUse" x1="-5.0502" y1="240.7186" x2="-5.3126" y2="240.1349" gradientTransform="matrix(32.383 0 0 -64.456 264.1899 15585.9609)">
	<stop  offset="0" style="stop-color:#AF9B80"/>
	<stop  offset="1" style="stop-color:#776249"/>
</linearGradient>
<path style="fill-rule:evenodd;clip-rule:evenodd;fill:url(#SVGID_00000075875438182222947400000014066010725945685421_);" d="
	M82.2,74.2l-6.4,18.1l10.9,17.4c0.1-0.3,0.3-0.7,0.5-0.9c1.2-1.8,3-2,4.1-0.3c1.1,1.7,1,4.5-0.2,6.4c-0.2,0.3-0.4,0.5-0.6,0.8
	l14.4,23l3.4-14L82.2,74.2z"/>
<path class="st2" d="M91.5,115.7c0.1-0.1,0.2-0.3,0.3-0.4c1.4-2.1,1.5-5.3,0.2-7.3c-0.6-1-1.6-1.6-2.6-1.6c-1,0-2,0.6-2.7,1.6
	l-9.9-15.8l5.6-15.9l24.9,48.3l-2.8,11.7C104.5,136.4,91.5,115.7,91.5,115.7z M82.7,73.3l-1.1,0.1l-6.7,19.1l12,19.2l0.6-1.6
	c0.1-0.3,0.3-0.6,0.4-0.8c0.4-0.7,1-1.1,1.5-1.1c0.4,0,0.8,0.3,1.1,0.8c0.9,1.4,0.8,3.9-0.2,5.5c-0.1,0.2-0.3,0.4-0.5,0.6l-0.5,0.5
	l14.9,23.8l0.8-0.2l0.5,0.2l3.6-14.8L82.7,73.3L82.7,73.3z"/>
<linearGradient id="SVGID_00000049202038173042454980000017228802168302944389_" gradientUnits="userSpaceOnUse" x1="-5.2098" y1="239.7614" x2="-5.2784" y2="240.4958" gradientTransform="matrix(23.747 0 0 -74.284 140.507 17960.5996)">
	<stop  offset="0" style="stop-color:#495E65"/>
	<stop  offset="1" style="stop-color:#3A4E56"/>
</linearGradient>
<path style="fill-rule:evenodd;clip-rule:evenodd;fill:url(#SVGID_00000049202038173042454980000017228802168302944389_);" d="
	M8.5,80.3L4,100.1l6.8,18.1c0.1-0.2,0.1-0.3,0.2-0.5c1.3-3.5,3.2-4.5,4.2-2.1c1,2.4,0.7,7.2-0.6,10.7c-0.1,0.3-0.2,0.6-0.4,0.9
	l10.2,27.3l3.4-14.8L8.5,80.3z"/>
<path class="st2" d="M26.9,139.7l-2.7,11.8l-9-24.3c0.1-0.2,0.2-0.4,0.2-0.6c1.4-3.7,1.6-8.8,0.6-11.4c-0.7-1.6-1.7-1.9-2.2-1.8
	c-1,0-2,0.9-2.8,2.4L4.9,100l3.7-16.5L26.9,139.7L26.9,139.7z M9.2,79.5l-0.8-0.1l-0.7,0.2l-4.6,20.5l7.7,20.6l0.8-2.4
	c0-0.1,0.1-0.2,0.1-0.3c0.9-2.3,1.7-2.9,2-2.9h0c0.1,0,0.4,0.2,0.6,0.8c0.9,2.2,0.6,6.7-0.6,10.1c-0.1,0.3-0.2,0.6-0.3,0.8l-0.1,0.3
	l11.3,30.3l4.1-17.8L9.2,79.5L9.2,79.5z"/>
<path class="st9" d="M63.3,149.1c-5.2,1.2-8.5,1.9-9.7,2.1c-1.9,0.2-4.9-0.5-5.7-2.7c-0.8-2.2-6.1-6-9.6-2.7
	c-2.4,2.2-1.6,4.1,2.3,5.7c8.5,4.4,12.8,6.4,13,6.2c0.2-0.2,3.8-2.3,10.9-6.4C64.4,151.4,63.3,149.1,63.3,149.1z"/>
<path class="st10" d="M44.1,144.8c1.8,0.8,3.4,2.2,3.9,3.5l0.1,0.1c0.6,1.7,3.1,2.7,5.3,2.4l0.2,0l0.5-0.1l0.7-0.1l0.9-0.2l1.1-0.2
	l1.8-0.4l1.8-0.4l2.4-0.5l0.7-0.2l1.4,2.8l-5.4,3.1l-3.6,2.1l-1.5,0.9l-0.5,0.3l-0.1,0.1l0,0l0,0l0,0l-0.1,0l-0.1,0l0,0l-0.1,0
	l-0.1,0l-0.2,0l-0.1,0l-0.2-0.1l-0.2-0.1l-0.2-0.1l-0.4-0.1l-0.4-0.2l-0.6-0.3l-0.7-0.3l-1.3-0.6l-1.8-0.9l-2.4-1.2l-4.5-2.3
	c-4.1-1.6-5-3.9-2.4-6.3C39.6,144,41.9,143.8,44.1,144.8L44.1,144.8z M38.4,146.2c-2.1,2-1.5,3.6,2.2,5.1l2.4,1.2l2.8,1.4L48,155
	l1.5,0.8l1.4,0.7l0.8,0.4l0.5,0.2l0.3,0.1l0.4,0.2l0.2,0.1l0.2,0.1l0,0l0.2-0.1l0.4-0.3l1-0.6l1.6-0.9l2.3-1.4l4.9-2.9l-0.8-1.7
	l-2.8,0.6l-1.8,0.4l-1.5,0.3l-1.1,0.2l-0.7,0.1l-0.6,0.1l-0.5,0.1l-0.4,0.1c-2.4,0.3-5.2-0.7-6-2.7l-0.1-0.2c-0.4-1-1.9-2.4-3.6-3.2
	C41.8,144.6,39.9,144.8,38.4,146.2z"/>
<path class="st11" d="M59.8,150.8l0.3-2.6l2-2.5l2-1.5l1.2-0.5l1.9,0.5l5,4.2l-2.4-0.9l-1.6,0.1l-2.3,0.5l-1.9,0.8l-1.4,0.7
	L59.8,150.8z"/>
<path class="st12" d="M65.2,143.7l1.9-1.3l1.1,0.4l3.5,3.1l7.3,6.7h-0.4l-5.3-4l-3.1-2.3l-2.8-2.2L65.2,143.7z"/>
<path class="st13" d="M36.1,146.2l1.7-1h3.6L43,146l2.1,2.6l3.1,3.9l1.4,1.1l2,0.3l3.3-0.6l5.6-2.6l2.3-1.2l2.2-1.5l2.5-0.7l2.3,0.2
	l3.2,1.3l2.5,1.4l-0.8,0.7l-1.2-0.6l-2.9-1.2l-1.2-0.7l-2.3,0.3l-2.4,1l-5,2.8l-5.3,2.1l-1.8,0.3l-1.9,0.2l-2.7-1.3l-2.2-2.3l-2-2.5
	l-1.4-1.9l-1.3-0.7h-1.8l-2.8,1.3L36.1,146.2z"/>
<path class="st14" d="M117.5,170.4l-2.8,5.3l-7.4,1.3l-1.5,0.9L94,177.6l-13.7-1.1l-9-0.8l-14.9-3.9l-20.9-8l0.8-11.7L38,147
	l1.9-0.4l1.7,0.7l2.4,2.9l3,2.7l2.1,1.9l2.6,0.2l3.3-0.8l5.1-1.8l3-1.6l2.7-1.7l2.5-0.6l2.4,0.3l5.1,2.9l13.2,8.4l6,3.7l6,2.1
	l3.4,0.6l8.6,0.9l2.7,0.5L117.5,170.4z"/>
<path class="st12" d="M94.8,163.8l2.6,2.1l3.5,2.1l3.2,1.3l3.1,0.8h1.7l2.5-0.8l3-1.8l1.6,0l0.3,0.8l-2.4,1.5l-2.6,1.6l-6.3,1.8
	l-4.6,1.3l-0.7,0.3l0.1,0.6l2.8,2.5h-3.3l-3-2.9l-6.2-6.6l-3.4-5.4l-1.4-4l0.4-0.9l2.5,1.7L94.8,163.8z"/>
<path class="st14" d="M94.5,166.8l2.7,1.2l5,2.4l1.1,0.6v0.9l-4.2,0.7l-1.5-0.1l-1.1-1l-2.9-3.7l0.2-0.6L94.5,166.8z"/>
<path class="st15" d="M34.6,153.9l1.3-3.7l0.4-2.3L38,147l1.9-0.4l-0.3,0.7l-0.9,2.2l-0.2,1.6l0.4,1.4l3.8,3.8l4.3,2.7l18.5-1.6
	l3.6-0.3l0.9-0.5l-0.4-1l-1.5-1.2l-2.9,1.4l-1.5,0.5h-1.1l-1.1-0.7l0.7-1.5l3.5-2.5l1.9-1.1l1.6,0.6l1.4,0.9l1.7,0.7l1.1,1.3
	l-0.8,2.1l0.1,1l-2.1,2.2l-10.2,1l-7.7,0.4l-1.1,0.3v0.8l1.7,0.7l4.4-0.3l11.7-1.6l-2.7,2.6l-8.1,0.9l-0.8,0.2l0.6,0.7l8.1,3.3
	l8.3,2.5l6.4,1.1l1.9-0.3l-0.4-0.7l-4.8-4.3l1.9-2.3l1.2,1.1l7.3,7.1l5.7,4.6l-8.6-0.7l-9-1.2l-1.5-1.4l-5.2-1.9l-4.8-1.2l-5.7-0.5
	l-5.5-2.9l-8.1-5.2l-7.2-5.4L34.6,153.9z"/>
<path class="st16" d="M59.3,164.2l8.7-0.9h5.8l4.5,4.3l4.5,3.9l0.4,0.7l-1.9,0.3l-9.7-2l-7.3-2.4l-4.7-2.1l-1.7-1.2l0.8-0.2
	L59.3,164.2z"/>
<path class="st17" d="M72.1,157.3l4.4,1.8l-0.5,3.4l2.3-2.7l4.3,2.2l-7.5,7.8l-1.2,0l-2.6-1.4l0.1-3.5l-2,2.5l-4.1-2.1L72.1,157.3z"
	/>
<path class="st15" d="M117,168.4l0.9,0.6l0.7,2.2l-0.3,3.5l-4.1,1.1l-4.1,0.9l-4.5-2.3l-0.8-1l1-0.4l3.4-0.9l4.6-1.8l1.3-1.2
	L117,168.4z"/>
<path class="st11" d="M31.6,169.8l-0.5,2l0.5,2.6l-0.7,1.1l-0.3,1.6v1.4h1l4,0.9l3.6,0.9l1.2,0.1l1.2-0.2l1,0.6l2,0.7l4.2,0l2.2-0.3
	l0.8-0.2l2.8,0.6l2.7,0.2l3.7-0.4l2.6-0.3l3,0.1l3.2,1l15.7,0.5l10.2-0.2l7.5-0.8l8.2-2.4l2.8-0.9l2.6-1.9l0.8-1.3l-3.2,0.6
	l-5.7,1.4l-5.2,0.7l-17.4-0.5l-7.8-1.4l-8.6-1.9l-9.3-2l-10.9-0.9l-7.6-0.2l-5.9-0.7l-4.6-1L31.6,169.8z"/>
<path class="st18" d="M63.3,180.6l-2.6-2.1l-3-1.4l-2.1-0.6v-1.1l1.3,0.3l4.8,0.6l5,1.7l5,2.9l1.2,1.2l-3-0.1l-2-0.6l-1.7-0.5
	L63.3,180.6z"/>
<path class="st12" d="M31.5,175l1-0.7H35L37,175l2,1l3.2,2.5l0.8-1.1l1.6-0.8l2.1,0.4l2.1,0.9l2.1,1.2l0.7,0.6l0.6-0.6l0.7-1.1
	l2.2-0.1l3.4,0.7l3.5,1.8l-0.3,0.3l-8.5-0.5l-9.4-0.8l-6.4-1.4l-3.7-0.7l-2.8-1.2L31.5,175z"/>
<path class="st17" d="M76.3,175.7l2.9,1.9l4.2,1.2l10.3,0.6h6.1l3.6-0.3l3.9-1l0.6-0.8l-3.2,0.5L99,178l-5-0.4l-6.6-0.5l-8.3-1.1
	L76.3,175.7z M34.6,153.9l2.2,2l5.9,4.7l4.4,3.2l4.9,3.1l6.6,3.7l3.6,1.5l-5.7-0.3l-8.7-0.8h-6.9l-8.3-1.3l-0.8-1v-6.8l0.6-4.1
	l1.2-2.5L34.6,153.9z"/>
<path class="st17" d="M71,182l5.8,0.3l12.3,0.2l6.8-0.2l6.8-0.5l5.9-1.7l5.9-1.8l2.6-1.9l1.2-2.4l0.4-1.9l0.7,0.9v1.3l-0.5,1.5
	l-2.1,2.4l-2.2,1.5l-1.1,0.2l-0.4-0.9l-1.3,0.4l-0.1,1.4l-0.9,0.6l-3.2,0.6l-1.4,0.1l-0.5-0.9l-1.4,0.3l-0.1,1l-0.5,0.3l-5.4,0.8
	l-0.9-0.2l-0.5-0.9l-1.6,0.1l-0.3,0.9l-0.7,0.5l-5-0.2l-1-0.1l-0.5-1h-1.5l-0.2,0.9l-0.5,0.4l-5.7-0.3l-0.8-0.7l0-0.6h-1.9l-0.2,0.8
	l-0.6,0.4l-5.9-0.8l-0.8,0l-0.4-0.8L71,182z M30.9,178.2l1.2,0.3l4.4,1.1l1.8,0.6l2.2,0.2l1-0.4l1.2,0.7l2,0.7l3.5,0.1l2.4-0.6
	l2,0.2l2.4,0.8l4.3-0.2l1.5-0.3l-1,1.1l-3.8,0.5l-2.7-0.3l-1.1-1.3l-1-0.3l-0.9,0.4l-0.7,0.9l-3.3,0.3l-2.8-0.4l-1.1-0.8l-0.4-1.1
	l-0.9,0.2l-1.3,1.2h-1.1l-5.1-1.7l-2.6-0.4l-0.5-0.7L30.9,178.2z"/>
<defs>
	<filter id="Adobe_OpacityMaskFilter" filterUnits="userSpaceOnUse" x="30.2" y="142.2" width="89.7" height="42.2">
		<feColorMatrix  type="matrix" values="1 0 0 0 0  0 1 0 0 0  0 0 1 0 0  0 0 0 1 0"/>
	</filter>
</defs>
<mask maskUnits="userSpaceOnUse" x="30.2" y="142.2" width="89.7" height="42.2" id="_x31_hfol3zv1i_00000052084204211240782740000017152921836528043183_">
	<g class="st19">
		<path id="sdwcc0u4uh_00000170278995713269737220000001809353116908450212_" class="st20" d="M30.2,142.2h89.7v42.2H30.2V142.2z"/>
	</g>
</mask>
<path class="st21" d="M119.1,175c-1,2.4-4.6,4.5-5.1,4.5c-0.1,0-0.2-0.1-0.2-0.1c-0.1-0.1-0.1-0.3-0.1-0.4c2-0.6,3.2-1.6,4-2.7
	c0.5-0.6,0.7-1.1,0.7-1.3c0.3-0.7,0.5-1.5,0.6-2.4C119.4,173.4,119.4,174.1,119.1,175z M113.2,178.4l-0.1,0l0,0
	c-0.7,0.2-1.4,0.5-2.1,0.6c-1.1,0.3-2,0.5-2.9,0.9c-4.7,1.5-9.9,3.2-34.6,1.9l0,0c0,0-1.1-1-3.2-2.2c-1.9-1.1-5.1-2.7-9.4-3.9
	c-0.1,0-2.2-0.6-3.9-0.7c-1.1,0-1.9,0.3-2,0.8c0,0.3,0.1,0.7,1.1,1c1.4,0.4,5.2,2.2,6.6,3.6c-0.8-0.5-2.7-1.6-4.9-2.3
	c-2.3-0.8-4.4-0.9-5.2-0.3c-0.3,0.2-0.4,0.5-0.4,0.6c0,0.4-0.5,0.5-0.6,0.5c-0.4,0-1.1-0.4-1.8-0.9c-1.2-0.8-2.6-1.7-4.3-1.7
	c-2.2,0-3,1.2-3.2,1.8c-0.4-0.2-0.9-0.6-1.5-1.1c-1.1-1-2.7-2.3-4.5-2.7c-2.3-0.5-3.5-0.3-4-0.2c-0.4-0.6-1.3-2.5-0.1-4.4
	c1.3,0.3,7.6,1.8,11.4,1.7c4-0.1,17.4,0.3,25.1,2.8c1.8,0.6,4.3,1.2,7.2,1.7c0.8,0.6,3.4,2.5,6.8,3c2.6,0.4,9.6,0.9,15.2,0.9
	c2.7,0,5.2-0.1,6.5-0.4c2.7-0.6,4.3-1.2,4.4-1.8c5.3-1.1,7.9-1.7,8.9-2C117,176.1,115.9,177.4,113.2,178.4z M111.5,180.7
	c-0.5,0.1-3.3,1-4.4,1c-0.3,0-0.5,0-0.6-0.2c-0.1-0.1-0.2-0.2-0.2-0.4c0.6-0.2,1.3-0.4,1.9-0.6c0.9-0.3,1.8-0.6,2.9-0.8
	c0.2,0,0.4-0.1,0.5-0.1C111.8,180.2,111.6,180.6,111.5,180.7L111.5,180.7z M103.9,182.5c-0.5,0.1-4.3,0.7-5.4,0.7
	c-0.3,0-0.5,0-0.6-0.2c-0.1-0.1-0.2-0.3-0.2-0.4c2.8-0.2,4.8-0.5,6.5-0.9C104.2,182.2,103.9,182.4,103.9,182.5L103.9,182.5z
	 M94.8,183.7c-0.5,0-4.3,0.1-5.5,0c-0.3,0-0.5-0.1-0.6-0.3c-0.1-0.1-0.1-0.3-0.1-0.4c2.5,0,4.7-0.1,6.5-0.1
	C95.2,183.4,94.9,183.6,94.8,183.7z M85.9,183.7c-0.5,0-4.3-0.1-5.5-0.3c-0.3,0-0.5-0.1-0.6-0.3c-0.1-0.1-0.1-0.2-0.1-0.3
	c2.4,0.1,4.6,0.1,6.5,0.2C86.3,183.5,86,183.6,85.9,183.7L85.9,183.7z M76.8,183.3c-0.6-0.1-4.9-0.5-6.1-0.7c-0.3,0-0.6-0.1-0.7-0.3
	l0,0c2.6,0.1,4.9,0.3,7.1,0.4C77.1,183.1,76.9,183.3,76.8,183.3z M69.6,181.7c-0.4-0.3-2.4-1.3-5.9-1.1c-1-1.7-6-4-7.4-4.4
	c-0.4-0.1-0.5-0.2-0.6-0.3c0.1-0.1,0.5-0.3,1.3-0.2c1.6,0,3.7,0.6,3.7,0.7c6.3,1.7,10.3,4.4,11.7,5.5
	C71.5,181.8,70.5,181.7,69.6,181.7z M42.7,178.6l0-0.2c0-0.1,0.3-1.6,2.7-1.6c1.5,0,2.9,0.9,4,1.6c0.9,0.6,1.6,1,2.2,1
	c0.4,0,1.2-0.2,1.2-1.1c0,0,0-0.1,0.1-0.1c0.5-0.4,2.4-0.4,4.6,0.4c1.5,0.5,2.8,1.2,3.8,1.7C57.7,180.1,49.8,179.7,42.7,178.6z
	 M60.9,181c-0.2,0-3.1,0.5-5.5,0.4c-1.5-0.1-2.4-0.4-3-0.6c-0.5-0.2-0.9-0.3-1.3-0.3c-0.4,0-0.6,0.1-0.9,0.2
	c-0.5,0.3-1.3,0.6-4.2,0.4c-2.8-0.2-3.1-0.7-3.3-1c-0.1-0.2-0.3-0.4-0.8-0.5c-0.6-0.1-0.9,0.1-1.1,0.2c-0.2,0.1-0.4,0.2-1.1,0.1
	c-0.5-0.1-1.3-0.3-2.2-0.5c-2-0.5-4.6-1.3-6.4-1.2c0-0.4-0.1-1,0-1.7c6.6,3,23.8,4.1,30.1,4.5L60.9,181L60.9,181z M56.1,182.7
	c-3-0.1-3.1-0.2-3.4-0.7c-0.1-0.2-0.3-0.4-0.5-0.6c0.7,0.2,1.6,0.5,3.1,0.6c1.6,0.1,3.5-0.1,4.6-0.2C59.2,182.3,58,182.8,56.1,182.7
	z M49.8,181.7c-0.2,0.4-0.4,0.8-3.3,0.7c-3.4-0.1-3.5-0.3-4-1.4c0,0,0,0,0-0.1c0.4,0.4,1.3,0.7,3.4,0.8c2.3,0.2,3.4,0,4-0.2
	C49.8,181.5,49.8,181.6,49.8,181.7z M38.6,181.4c-0.4-0.1-0.7-0.2-1.1-0.4c-1.4-0.5-3.2-1.1-5-1.3c-1.2-0.1-1.6-0.4-1.7-0.6
	c0-0.1-0.1-0.2,0-0.4c1.7,0,4.3,0.7,6.3,1.2c1,0.3,1.8,0.5,2.3,0.6c0.5,0.1,0.8,0.1,1,0C40.3,180.8,39.8,181.8,38.6,181.4z
	 M32.2,174.8L32.2,174.8c0.1,0,1.2-0.4,3.9,0.1c1.7,0.4,3.1,1.6,4.2,2.5c0.5,0.5,1,0.8,1.4,1.1c-4.3-0.7-8.2-1.5-10.6-2.6
	C31.3,175.4,31.6,175,32.2,174.8z M33.4,156.1c0.3-0.6,0.6-1.1,0.9-1.7c2.2,1.8,15,12.6,26.3,17.3c-2.1-0.3-4.2-0.5-5.9-0.7
	c-5.2-0.4-9.5-0.5-11.3-0.4c-3.6,0.1-9.9-1.4-11.2-1.7C32.1,167.5,31.6,159.4,33.4,156.1z M74.8,175c-2.4-0.5-4.6-1-6.1-1.5
	c-1.5-0.5-3.1-0.9-4.9-1.2c-1.2-0.4-2.3-0.8-3.4-1.3C67.4,171.3,72.5,173.7,74.8,175L74.8,175z M36.9,148c0.2-0.2,0.9-0.6,1.8-0.9
	c0.3-0.1,0.5-0.1,0.8-0.2c-0.3,0.3-0.5,0.7-0.7,1.1c-0.7,1.3-0.9,2.6-0.5,3.8c0.9,2.7,7.9,7.1,8.2,7.3l0.1,0.1l21.9-1.9
	c0.2,0,1.1,0.1,1.5-0.3c0.2-0.2,0.3-0.5,0.2-1c-0.3-1.3-1.9-2.2-2-2.3l-0.2-0.1l-4,2.3c-0.3,0.1-1.8,0.3-2-0.5
	c-0.2-0.8,0.9-1.7,1.4-2l3-1.9c0,0,1.4-0.9,2.2-0.4c0.3,0.2,0.6,0.4,0.9,0.7c0.6,0.5,1.2,0.9,1.9,1c0.5,0,1,0.3,1.2,0.7
	c0.2,0.4,0.2,0.9,0,1.4c-0.5,1.3-0.6,2.1-0.6,2.4l-1.8,2l-18,1.5l-0.1,0c-0.2,0.1-1,0.3-1,0.8c0,0.3,0.2,0.6,0.6,0.8l0.3,0.1
	c0.7,0.4,1.1,0.5,1.7,0.5c0.2,0,0.5,0,0.8-0.1l13.9-1.7l-1.7,1.8l-7.5,1.1c-0.3,0-1.1,0.1-1.3,0.5c-0.1,0.1-0.1,0.4,0.1,0.7
	c0.4,0.5,4.5,2.3,8.7,3.7c4.2,1.4,10.3,3.2,15.7,3.6c0.1,0,0.2,0,0.3,0c0.3,0,0.6-0.1,0.8-0.3c0.1-0.1,0.1-0.4-0.1-0.7
	c-0.5-0.6-4-3.8-4.9-4.7l1.6-1.7c1.5,1.5,9.2,9.1,13.3,12c-5.6-0.4-11.7-1.1-16.7-2.1c-0.3-0.2-1.9-1.3-4.7-2.5
	c-2.8-1.1-7.3-2.5-12.9-2.5c-10.9-5.1-22.7-15.1-24.3-16.5C35.5,151.9,36.3,150,36.9,148L36.9,148z M36.4,146.8
	c0-0.4,0.5-0.7,0.7-0.8c0.2-0.1,2.1-0.8,3.5-0.8c1.4,0,2.9,1.8,3,2c0.2,0.3,2.7,3.9,4.6,5.9c0.7,0.8,1.8,1,2.9,1
	c2,0,4.1-0.9,4.3-0.9l6.8-3.1l0,0l0,0c0,0,3.6-2.8,6.8-2.3c3.2,0.5,5.7,2.9,5.8,2.9l0.4-0.5c-0.1-0.1-0.8-0.8-2.1-1.6
	c-0.4-0.4-4.1-3.5-5.4-4.4c-0.6-0.4-1.3-0.6-1.9-0.6c0.3-0.2,0.5-0.3,0.7-0.5c0.2-0.2,0.5-0.3,0.7-0.3c0.4,0,0.9,0.3,1.3,0.8
	c0.5,0.6,7.2,6.7,11,10.2c-4.4-2.7-8.7-5.2-10.2-5.5c-3.3-0.6-6.6,2-6.9,2.3c-0.6,0.3-8.5,4.4-11.8,4.3c-2.4-0.1-4.5-2.8-6.4-5.1
	c-0.7-0.9-1.3-1.7-2-2.4c-1-1.1-2.4-1.4-4-0.9c-0.7,0.2-1.3,0.5-1.9,0.9C36.5,147.2,36.4,147,36.4,146.8z M62.1,146.2
	c1.1-1,2-1.6,2.7-2c0.3,0,1.6-0.2,2.7,0.5c0.7,0.5,2.3,1.8,3.5,2.8c-0.6-0.2-1.2-0.4-1.8-0.5c-3.4-0.5-6.9,2.1-7.3,2.4l-1.9,0.9
	C60.1,149.6,60.2,147.8,62.1,146.2z M69.1,160.6l-14.7,1.8c-1,0.1-1.1,0.1-2-0.4l-0.3-0.1c-0.1,0-0.2-0.1-0.3-0.2
	c0.1-0.1,0.3-0.2,0.5-0.3l17.3-1.4L69.1,160.6L69.1,160.6z M75.1,169.8l-3.5-1.5l0.1-4.4l-2.6,3.1l-3.5-1.7l6.8-7.5l3.4,1.6
	l-0.1,4.1l2.7-3l3.5,1.6L75.1,169.8L75.1,169.8z M75.3,170.5l2.7-3c1.4,1.3,4.5,4.1,4.8,4.6c0,0,0,0,0,0c-0.1,0-0.2,0-0.3,0l0,0
	c-9.9-0.7-23.3-6.5-23.9-7.1c0,0,0,0,0,0c0.1-0.1,0.5-0.1,0.7-0.1h0l6.8-1l-1.5,1.6l4.7,2.3l1.8-2.1l-0.1,2.9
	C71,168.7,75.3,170.5,75.3,170.5z M85.2,158c-0.2,1.2-0.1,6.8,13.3,19.6c-1.3,0-2.5-0.1-3.8-0.1c-3.7-2.2-12.7-11.1-14.2-12.6
	l2.6-2.9l-4.8-2.2l-1.8,2l0.1-2.8l-3.8-1.8c0-0.3,0.1-1,0.6-2.1c0.4-0.9,0.2-1.6,0-2c-0.3-0.6-1-1-1.7-1c-0.6,0-1-0.4-1.6-0.8
	c-0.3-0.2-0.6-0.5-1-0.7c-1.2-0.7-2.8,0.3-2.9,0.4l-3,1.8c-0.1,0-2.1,1.3-1.7,2.7c0.5,1.5,2.8,1,2.8,1l0,0l3.8-2.2
	c0.4,0.3,1.3,1,1.5,1.8c0.1,0.2,0,0.3,0,0.4c-0.2,0.2-0.7,0.2-1,0.1l0,0l-21.8,1.8c-0.8-0.5-7-4.6-7.8-6.9c-0.7-2.1,1-4.2,1.4-4.6
	c0.7,0.1,1.3,0.4,1.8,0.9c0.6,0.6,1.2,1.4,1.9,2.3c2,2.5,4.2,5.3,6.9,5.4l0.1,0c3.6,0,11.6-4.2,12-4.3l0.1,0c0,0,3.3-2.7,6.4-2.2
	C71.5,149.3,79.4,154.3,85.2,158L85.2,158z M85.8,158.4c1.9,1.2,3.8,2.5,5.7,3.7c0,0,0.8,0.5,2,1.1c0.3,0.3,4.6,4.2,9.8,6.1
	c2.5,0.9,4.1,1.2,5.2,1.2c1.2,0,1.7-0.3,1.9-0.4l4.8-2.2c0.5,0.1,0.8,0.2,1.1,0.4c-0.6,0.2-1.2,0.6-1.9,1.1
	c-1.2,0.8-2.7,1.8-5.1,2.5c-0.8,0.2-1.5,0.4-2,0.6c-1.1,0.3-1.7,0.5-2.1,0.7c-1.2,0.3-4.2,1.2-4.8,1.3c-0.4,0-0.6,0.2-0.7,0.4
	c-0.1,0.3,0,0.7,0.5,1.1c0.3,0.3,1.2,1.1,1.9,1.6c-0.8,0-1.6,0-2.5,0C86.6,165.6,85.7,159.9,85.8,158.4L85.8,158.4z M104.2,167
	c2.4,0.3,4.7,0.4,6.7,0.5c1.1,0,2.2,0.1,3.1,0.2l-3.9,1.8l0,0l0,0c0,0-1.4,1.1-6.5-0.8c-3-1.1-5.8-2.9-7.5-4.3
	C98.3,165.5,101.3,166.6,104.2,167z M107.2,177.7c-0.5,0.2-1.5,0.6-3.2,0.9c-4.1,0.9-17.7,0.1-21.5-0.5c-2.3-0.3-4.2-1.4-5.4-2.1
	c3.4,0.6,6.9,1.1,10.4,1.4C96.1,178.4,103.3,178.5,107.2,177.7L107.2,177.7z M107.3,177c-1.2,0.3-2.7,0.4-4.5,0.5
	c-0.4-0.3-1.9-1.6-2.3-2.1c-0.2-0.2-0.3-0.4-0.3-0.4c0.1,0,0.1,0,0.2,0c0.6-0.1,3.2-0.8,4.4-1.2c0.1,0.3,0.5,0.5,0.9,0.8
	c1.2,0.7,2.7,1.5,3.7,1.9C108.7,176.7,108,176.9,107.3,177z M116.8,168.8c0.2,0,0.4,0,0.5,0.1c0.5,0.4,0.7,1.2,0.9,2l0.1,0.9
	c0,0.1,0.2,1.4-0.4,2.9c-0.4,0.1-2.3,0.6-7.5,1.8c-0.5-0.2-2.9-1.2-4.4-2.2c-0.4-0.3-0.6-0.4-0.7-0.5c0.2-0.2,1.1-0.4,2-0.6
	c0.5-0.1,1.2-0.3,2-0.6c2.5-0.7,4.1-1.8,5.3-2.6C115.5,169.3,116.1,168.9,116.8,168.8z M118.9,171.6c-0.1-0.5-0.3-2.5-1.2-3.2
	c-0.2-0.2-0.5-0.3-0.8-0.3c-0.7-1-2.8-1.1-6-1.2c-2-0.1-4.2-0.2-6.6-0.5c-6.1-0.8-12.4-4.8-12.5-4.9c-2.9-2-5.9-3.9-8.9-5.8
	c-4.5-4-13.1-11.8-13.6-12.5c-0.5-0.6-1.1-1-1.8-1.1c-0.5,0-0.9,0.1-1.2,0.4c-0.3,0.2-0.6,0.4-1.1,0.7c-0.8,0.4-2,1-3.6,2.5
	c-2.3,2-2.2,4.3-2.2,4.9l-4.2,2c0,0-4.7,1.9-6.5,0.1c-1.9-2-4.5-5.8-4.5-5.8l0,0c-0.1-0.1-1.8-2.1-3.5-2.2c-1.7-0.1-3.7,0.8-3.8,0.8
	l0,0c-0.1,0-1,0.5-1.1,1.3c0,0.4,0.1,0.8,0.5,1.1c-0.3,0.9-1.6,4.7-3.4,7.9c-2,3.6-1.4,12.2-1.3,13.4c-1.4,2.2-0.4,4.3,0,5.1
	c-1.6,1-1.4,3.6-1.3,4.2c-0.1,0.2-0.2,0.7,0,1.1c0.3,0.5,1,0.8,2.2,0.9c1.6,0.2,3.4,0.8,4.8,1.2c0.4,0.1,0.8,0.3,1.1,0.4
	c1.4,0.4,2.3-0.5,2.6-1.1c0.1-0.1,0.3-0.2,0.4-0.2c0.1,0,0.3,0.2,0.4,0.5c0.7,1.6,1.2,1.7,4.6,1.8c3.1,0.1,3.6-0.4,3.9-1.1
	c0-0.1,0.1-0.1,0.1-0.2c0.2-0.4,0.7-0.4,0.7-0.4l0.1,0c0.1,0,0.3,0.2,0.6,0.6c0.1,0.1,0.2,0.3,0.3,0.4c0.4,0.7,0.7,0.9,3.9,1
	c0.1,0,0.2,0,0.3,0c3,0,4.4-1.4,4.8-1.8c5.2-1.2,8.1,0.6,8.1,0.7l0,0c0,0.1,0.1,0.3,0.2,0.4c0.2,0.3,0.6,0.5,1.1,0.6
	c1.2,0.1,6.1,0.7,6.2,0.7l0.1,0l0.1,0c0.3-0.1,0.8-0.4,0.9-1.2c0.4,0,0.9,0,1.3,0c0,0.2,0.1,0.5,0.2,0.7c0.2,0.3,0.6,0.5,1,0.6
	c1.2,0.1,5.4,0.3,5.6,0.3h0l0,0c0.3-0.1,0.9-0.5,0.9-1.3c0.4,0,0.7,0,1,0c0,0.2,0.1,0.5,0.3,0.8c0.2,0.3,0.6,0.5,1.1,0.5
	c0.5,0,1.5,0,2.5,0c1.5,0,3,0,3.1,0h0l0,0c0.3-0.1,0.9-0.5,0.8-1.5c0.4,0,0.8,0,1.2-0.1c0,0.2,0.1,0.6,0.4,0.8
	c0.2,0.2,0.6,0.4,1,0.4c0,0,0.1,0,0.1,0c1.2-0.1,5.3-0.7,5.5-0.8l0,0l0,0c0.3-0.1,0.8-0.6,0.6-1.5c0.3-0.1,0.7-0.2,1-0.2
	c0.1,0.2,0.2,0.4,0.4,0.6c0.2,0.2,0.6,0.4,1,0.4c0,0,0.1,0,0.1,0c1.3-0.1,4.5-1.1,4.6-1.1l0.1,0l0,0c0,0,0.7-0.6,0.4-1.8
	c0.3-0.1,0.5-0.2,0.7-0.2c0,0.2,0.1,0.4,0.2,0.6c0.2,0.2,0.4,0.4,0.7,0.4c0.8,0,4.4-2.2,5.6-4.6C120.2,174.1,120,172.7,118.9,171.6z
	"/>
<path class="st2" d="M97.3,171.9L97.3,171.9l-3.3-4c-0.2-0.4-0.2-0.6-0.1-0.7c0.1-0.1,0.3-0.1,0.5-0.1c0.6,0.3,6.6,3.1,8.2,3.8
	c0.5,0.2,0.7,0.4,0.7,0.5c0,0.1-0.1,0.2-0.2,0.3c-0.4,0.1-2.7,0.6-4.1,0.7C97.5,172.5,97.3,171.9,97.3,171.9 M98.9,173
	c1.6-0.1,4.2-0.7,4.3-0.7l0,0l0,0c0.1,0,0.6-0.3,0.6-0.9c0-0.4-0.4-0.8-1.1-1.1c-1.6-0.7-8.1-3.8-8.2-3.8l0,0l0,0
	c-0.1,0-0.8-0.1-1.2,0.4c-0.2,0.3-0.2,0.8,0.1,1.4l0,0l3.3,3.9c0.1,0.2,0.5,0.8,1.8,0.8C98.6,173,98.7,173,98.9,173"/>
<path class="st13" d="M82.8,154.6c0,0-0.4,2,0.7,2.7c1.2,0.7,3,0.3,3,0.3s1.3-0.1,1.4,0.6c0.1,0.7-0.1,1.4-1.6,1.3
	c-1.5-0.1-3-0.2-4-0.6c-1-0.4-1.4-3.3-1.2-3.6C81.2,155,82.3,154,82.8,154.6"/>
<path class="st2" d="M81.4,155.5c0,0.2,0,0.9,0.2,1.6c0.2,0.8,0.5,1.4,0.9,1.5c1,0.4,2.4,0.5,3.9,0.6c0.6,0,1,0,1.2-0.2
	c0.1-0.1,0.2-0.4,0.1-0.7c0-0.4-0.8-0.4-1-0.4c-0.3,0.1-2.1,0.4-3.3-0.4c-1.1-0.7-1-2.3-0.9-2.8c0,0-0.1,0-0.1,0
	C81.9,154.8,81.5,155.3,81.4,155.5 M86.6,159.9c-0.1,0-0.2,0-0.3,0c-1.6-0.1-3.1-0.2-4.1-0.6c-0.4-0.2-0.7-0.6-1-1.2
	c-0.4-0.9-0.6-2.4-0.4-2.8c0.2-0.3,0.8-1,1.5-1.1c0.3-0.1,0.6,0,0.8,0.3l0.1,0.1l0,0.2c0,0-0.4,1.8,0.6,2.4c1,0.7,2.8,0.3,2.8,0.3
	l0,0c0.6,0,1.6,0.1,1.7,0.9c0.1,0.5,0,0.9-0.3,1.2C87.7,159.7,87.3,159.9,86.6,159.9"/>
<path class="st22" d="M80.4,158.9l2.9,1.4l2.3-3l-2.4-1.4L80.4,158.9z"/>
<path class="st2" d="M80.9,158.8l2.3,1.1l1.9-2.5l-1.9-1.1L80.9,158.8z M83.4,160.7l-3.5-1.7l3.3-3.5l2.9,1.7
	C86.1,157.2,83.4,160.7,83.4,160.7z"/>
<path class="st13" d="M77.7,150.7c0,0-0.6,2.8,0.2,3.4c0.8,0.6,3.2-0.2,3.2-0.2s0.6-0.7,1.3-0.4c0.7,0.3,0.7,1-0.1,1.6
	c-0.7,0.6-2,1.4-5,0.9c0,0-1.7-2.5-1.7-4.3C75.7,149.9,77.7,150.7,77.7,150.7"/>
<path class="st2" d="M77.5,155.7c2.7,0.4,3.9-0.2,4.6-0.8c0.3-0.3,0.5-0.5,0.4-0.7c0-0.2-0.2-0.3-0.3-0.3c-0.4-0.2-0.9,0.3-0.9,0.3
	l-0.1,0.1l-0.1,0c-2.5,0.8-3.4,0.2-3.5,0.1c-0.4-0.3-0.6-1-0.5-2.2c0-0.5,0.1-1,0.1-1.2c-0.3-0.1-0.7-0.1-1,0.1
	c-0.2,0.1-0.3,0.4-0.3,0.8C75.9,153.2,77.2,155.2,77.5,155.7 M79.1,156.5c-0.5,0-1.1,0-1.8-0.2l-0.1,0l-0.1-0.1
	c-0.1-0.1-1.8-2.6-1.7-4.5c0-0.6,0.2-1,0.6-1.3c0.7-0.5,1.8-0.1,1.8-0.1l0.3,0.1l-0.1,0.3c-0.2,1.1-0.3,2.8,0.1,3.1
	c0.4,0.3,1.9,0.1,2.9-0.2c0.2-0.2,0.9-0.7,1.6-0.4c0.4,0.2,0.6,0.5,0.7,0.8c0.1,0.4-0.2,0.9-0.7,1.3C82,155.9,81,156.5,79.1,156.5"
	/>
<path class="st13" d="M71.2,153.6l5.3-4.3c0,0,0.5-0.4,1.1,0c0.6,0.4,0.7,1-0.8,2.1c-1.5,1.1-4.7,3.1-4.7,3.1s-0.6,0.1-0.9-0.1
	C70.9,154.1,71.2,153.6,71.2,153.6"/>
<path class="st2" d="M71.5,153.8c-0.1,0.1-0.1,0.3-0.1,0.3c0.2,0.1,0.5,0.1,0.6,0.1c0.4-0.2,3.2-2,4.6-3c1-0.7,1.1-1.1,1.1-1.2
	c0-0.1,0-0.2-0.3-0.4c-0.4-0.3-0.7,0-0.7,0C76.7,149.6,71.5,153.8,71.5,153.8z M71.8,154.9c-0.2,0-0.5,0-0.8-0.2
	c-0.4-0.3-0.3-0.8-0.1-1.2l0,0l5.3-4.3c0.5-0.3,1.1-0.3,1.5,0c0.4,0.3,0.5,0.6,0.5,0.9c0,0.5-0.4,1.1-1.4,1.7
	c-1.5,1.1-4.7,3-4.7,3.1l0,0l0,0C72.1,154.9,71.9,154.9,71.8,154.9L71.8,154.9z"/>
<path class="st22" d="M74.4,156.2l2.9,1.4l3-3.7l-2.4-1.4L74.4,156.2z"/>
<path class="st2" d="M74.9,156.1l2.3,1.1l2.6-3.2l-1.8-1.1L74.9,156.1L74.9,156.1z M77.4,158l-3.5-1.7l4-4.2l2.9,1.8
	C80.8,153.8,77.4,158,77.4,158z"/>
<path class="st13" d="M87.9,161c0,0,0.8-0.3,1.2-0.6c0.4-0.3,1-0.8,1.6-0.5c0.6,0.2,1,1.3-0.4,1.8c-1.4,0.6-2.4,0.3-2.4,0.3
	s-0.3,0-0.3-0.5C87.6,161,87.9,161,87.9,161"/>
<path class="st2" d="M87.9,161.6L87.9,161.6c0,0,0.9,0.2,2.2-0.3c0.5-0.2,0.8-0.5,0.8-0.8c0-0.2-0.1-0.4-0.3-0.5
	c-0.4-0.2-0.9,0.1-1.3,0.5c-0.4,0.4-1.2,0.7-1.3,0.7l-0.1,0l0,0c0,0,0,0.1,0,0.2C87.9,161.5,87.9,161.6,87.9,161.6 M88.5,162.3
	c-0.3,0-0.6,0-0.7-0.1c-0.2,0-0.5-0.2-0.6-0.8c0-0.5,0.3-0.8,0.6-0.8c0.2-0.1,0.8-0.3,1-0.5c0.2-0.2,1.1-0.9,1.9-0.6
	c0.4,0.2,0.7,0.6,0.7,1.1c0,0.3-0.1,0.9-1.2,1.4C89.8,162.2,89.2,162.3,88.5,162.3"/>
<path class="st13" d="M91.6,162.9c0,0,1.4-1.3,2.3-1.1c0.8,0.2,1.1,1.5-0.1,1.9C92.6,164.1,90.4,164,91.6,162.9"/>
<path class="st2" d="M91.8,163.1c-0.2,0.2-0.2,0.3-0.2,0.3c0.1,0.2,1.2,0.3,2.1-0.1c0.5-0.2,0.6-0.6,0.6-0.7c0-0.3-0.2-0.5-0.5-0.6
	C93.3,161.9,92.3,162.6,91.8,163.1 M92.3,164.2c-0.6,0-1.1-0.1-1.4-0.5c-0.1-0.2-0.2-0.6,0.3-1.1l0,0c1.5-1.4,2.4-1.2,2.6-1.2
	c0.5,0.1,0.9,0.6,0.9,1.2c0,0.5-0.2,1.1-1,1.4C93.5,164.1,92.9,164.2,92.3,164.2 M68.5,152.4c0,0.5-0.4,0.8-0.8,0.8c0,0,0,0,0,0
	c-0.5,0-0.8-0.4-0.8-0.8c0,0,0,0,0,0c0-0.5,0.4-0.8,0.8-0.8C68.1,151.6,68.5,152,68.5,152.4 M65.7,153.9c0,0.5-0.4,0.8-0.8,0.8
	c0,0,0,0,0,0c-0.5,0-0.8-0.4-0.8-0.8l0,0c0-0.5,0.4-0.8,0.8-0.8C65.4,153.1,65.7,153.5,65.7,153.9"/>
<path class="st20" d="M71.8,168.2l3.2,1.4l6.6-7.4l-3.2-1.5l-2.9,3.2l0.1-4.4l-3.2-1.5l-6.6,7.3l3.2,1.6l2.8-3.4
	C72,163.5,71.8,168.2,71.8,168.2z M75.1,170l-3.7-1.6l0.1-4l-2.4,2.9l-3.8-1.9l7.1-7.8l3.6,1.7l-0.1,3.8l2.5-2.7l3.8,1.7
	C82.2,162.1,75.1,170,75.1,170z"/>
<path class="st2" d="M47.9,160.8l-1.6,1.2c-0.2,0.1,0,0.5,0.2,0.3l1.6-1.2C48.3,160.9,48.1,160.6,47.9,160.8 M48.4,162l0.5-0.4
	l1,0.6l-0.4,0.3c0,0-0.1,0-0.1,0.1L48.4,162 M50.2,162.1l-1.3-0.9c-0.1-0.1-0.2,0-0.2,0l-0.8,0.6c-0.1,0.1-0.1,0.2,0,0.3l1,0.7
	c-0.1,0.1-0.3,0.2-0.4,0.3c0,0,0,0.1,0.1,0.1c0,0-0.1,0-0.1-0.1l0,0c0,0,0,0,0,0c0,0.1-0.1-0.1,0-0.1c-0.1-0.1-0.2-0.1-0.3-0.2
	l-0.8-0.5c-0.2-0.1-0.4,0.2-0.2,0.3l1.3,0.9c0.1,0,0.1,0,0.2,0l1.6-1.1C50.4,162.4,50.4,162.2,50.2,162.1"/>
<path class="st2" d="M48.5,163.2L48.5,163.2C48.5,163.1,48.5,163.1,48.5,163.2C48.5,163.2,48.5,163.2,48.5,163.2 M53.1,165.2
	l-0.3,0.2c-0.1,0-0.1,0.1-0.2,0.1l0,0c-0.3-0.2-0.6-0.4-1-0.5l0.4-0.3c0,0,0.1-0.1,0.1-0.1L53.1,165.2 M52.6,165.6
	C52.7,165.6,52.7,165.7,52.6,165.6 M54.3,164.5l-1.4-0.7c-0.1,0-0.1,0-0.2,0l-1.6,1.1c-0.1,0.1-0.1,0.3,0,0.3l1.4,0.8
	c0.1,0,0.1,0,0.2,0l0.8-0.6c0.1-0.1,0.1-0.3,0-0.3l-1-0.6c0.2-0.1,0.3-0.2,0.4-0.3c0.1,0.1,0.4,0.2,0.5,0.2l0.8,0.4
	C54.4,165,54.5,164.6,54.3,164.5 M50.5,164.5C50.5,164.5,50.5,164.5,50.5,164.5c-0.1-0.1-0.3-0.2-0.5-0.3l-0.5-0.3l0.4-0.3
	c0.2-0.1,0.7-0.4,0.9-0.6c0,0,0,0,0,0c0.1,0.1,0.3,0.2,0.5,0.3l0.6,0.3c-0.1,0.1-0.3,0.2-0.4,0.3C51.2,164,50.7,164.2,50.5,164.5
	 M52.3,163.4l-1.4-0.9c-0.1,0-0.1,0-0.2,0l-1.5,1.1c0,0,0,0,0,0c0,0-0.1,0.1-0.1,0.1c0,0.1,0,0.1,0.1,0.2c0,0,0,0,0,0l1.4,0.9
	c0.1,0,0.1,0,0.2,0l1.6-1.1C52.4,163.6,52.4,163.5,52.3,163.4"/>
<path class="st9" d="M110.5,153.7c5.6,1.3,9,2,10.4,2.2c2.1,0.3,5.3-0.5,6.1-2.8c0.8-2.3,6.5-6.4,10.2-2.8c2.5,2.4,1.7,4.4-2.4,6.1
	c-9,4.6-13.6,6.9-13.8,6.7c-0.2-0.2-4.1-2.5-11.7-6.9L110.5,153.7L110.5,153.7z"/>
<path class="st10" d="M130.8,149.1c-1.9,0.8-3.6,2.4-4.2,3.7l-0.1,0.2c-0.6,1.8-3.3,2.9-5.6,2.6l-0.2,0l-0.5-0.1l-0.8-0.1l-1-0.2
	l-1.1-0.2l-1.9-0.4l-1.9-0.4l-2.5-0.6l-0.7-0.2l-1.5,3l5.8,3.3l3.8,2.2l1.6,1l0.5,0.3l0.1,0.1l0,0l0,0l0,0l0.1,0l0.1,0l0,0l0.1,0
	l0.1,0l0.2,0l0.1,0l0.2-0.1l0.2-0.1l0.3-0.1l0.4-0.2l0.4-0.2l0.6-0.3l0.7-0.3l1.4-0.7l1.9-0.9l2.6-1.3l4.8-2.5
	c4.3-1.8,5.3-4.1,2.5-6.7C135.6,148.2,133.2,148,130.8,149.1z M136.9,150.6c2.3,2.1,1.6,3.8-2.3,5.4l-2.6,1.3l-3,1.5l-2.3,1.1
	l-1.6,0.8l-1.5,0.7l-0.9,0.4l-0.5,0.2l-0.3,0.1l-0.4,0.2l-0.2,0.1l-0.2,0.1l0,0l-0.2-0.1l-0.5-0.3l-1.1-0.7l-1.7-1l-2.5-1.5l-5.3-3
	l0.9-1.8l3,0.7l1.9,0.4l1.6,0.3l1.2,0.2l0.8,0.2l0.7,0.1l0.6,0.1l0.5,0.1c2.6,0.3,5.6-0.8,6.4-2.9l0.1-0.2c0.4-1.1,2-2.6,3.8-3.4
	C133.3,148.9,135.3,149.1,136.9,150.6z"/>
<path class="st11" d="M114.6,155.8l-0.3-2.8l-2.2-2.8l-2.2-1.7l-1.3-0.5l-2.1,0.5l-5.5,4.6l2.7-1l1.8,0.1l2.5,0.5l2.1,0.9l1.6,0.8
	L114.6,155.8z"/>
<path class="st12" d="M108.6,148l-2.1-1.4l-1.2,0.4l-3.8,3.4l-8,7.4h0.5l5.8-4.4l3.4-2.5l3-2.4L108.6,148z"/>
<path class="st13" d="M140.5,150.7l-1.8-1.1h-4l-1.8,0.9l-2.3,2.8l-3.4,4.2l-1.5,1.3l-2.2,0.3l-3.6-0.6l-6.1-2.9l-2.5-1.3l-2.4-1.6
	l-2.8-0.8l-2.5,0.2l-3.4,1.5l-2.7,1.5l0.9,0.8l1.3-0.6l3.2-1.3l1.3-0.7l2.5,0.4l2.6,1.1l5.5,3l5.8,2.3l2,0.3l2.1,0.2l2.9-1.4
	l2.4-2.6l2.2-2.7l1.6-2l1.4-0.7h2l3.1,1.4L140.5,150.7z"/>
<path class="st14" d="M51.4,177.2l3.1,5.8l8.1,1.5l1.6,1l12.9-0.4l14.9-1.2l9.8-0.9l16.3-4.3l22.8-8.7l-0.8-12.8l-1.8-5.5l-2.1-0.4
	l-1.9,0.7l-2.6,3.2l-3.3,2.9l-2.3,2.1l-2.8,0.2l-3.7-0.9l-5.6-1.9l-3.3-1.8l-2.9-1.9l-2.7-0.6l-2.6,0.3l-5.5,3.1l-14.4,9.2l-6.5,4
	l-6.6,2.3l-3.7,0.6l-9.4,1l-3,0.5L51.4,177.2z"/>
<path class="st12" d="M76.2,169.9l-2.8,2.3l-3.8,2.2l-3.4,1.4l-3.4,0.9h-1.9L58,176l-3.3-2l-1.8,0l-0.3,0.9l2.6,1.7l2.8,1.8l6.8,2
	l5,1.4l0.8,0.3l-0.1,0.6l-3,2.8h3.6l3.3-3.2l6.8-7.2l3.7-5.9l1.6-4.4l-0.5-0.9l-2.8,1.8L76.2,169.9z"/>
<path class="st14" d="M76.6,173.2l-3,1.3l-5.5,2.6l-1.2,0.7v1l4.6,0.8l1.7-0.1l1.2-1.1l3.2-4l-0.2-0.6L76.6,173.2z"/>
<path class="st15" d="M142.1,159.1l-1.4-4l-0.4-2.5l-1.9-1l-2.1-0.4l0.3,0.7l1,2.4l0.2,1.7l-0.4,1.5l-4.1,4.1l-4.7,2.9l-20.3-1.7
	l-3.9-0.3l-1-0.5l0.4-1.1l1.7-1.3l3.2,1.5l1.6,0.5h1.2l1.3-0.7l-0.8-1.6l-3.9-2.7l-2.1-1.2l-1.7,0.7l-1.5,1l-1.8,0.8l-1.3,1.5
	l0.9,2.3l-0.1,1.1l2.3,2.4l11.1,1.1l8.4,0.5l1.2,0.4v0.9l-1.9,0.8l-4.8-0.3l-12.8-1.7l2.9,2.9l8.8,1l0.8,0.2l-0.7,0.8l-8.8,3.6
	l-9.1,2.7l-7,1.2l-2.1-0.3l0.4-0.7l5.3-4.7l-2-2.5l-1.3,1.2l-8,7.7l-6.2,5l9.4-0.8l9.9-1.3l1.6-1.6l5.7-2l5.2-1.4l6.3-0.5l6-3.1
	l8.9-5.6l7.9-5.9L142.1,159.1z"/>
<path class="st16" d="M115.1,170.4l-9.5-1h-6.4l-5,4.7l-4.9,4.2l-0.4,0.7l2.1,0.3l10.6-2.2l8-2.6l5.1-2.3l1.8-1.3l-0.8-0.2
	L115.1,170.4z"/>
<path class="st17" d="M101.1,162.8l-4.8,1.9l2.7,3.1l-4.6-2.3l-4.7,2.4l8.2,8.5l1.3,0l3.1-1.8l-2.6-2.7l4.5,1.9l4.5-2.3L101.1,162.8
	z"/>
<path class="st15" d="M52,175l-1,0.7l-0.8,2.4l0.3,3.8l4.4,1.2l4.5,0.9l4.9-2.5l0.8-1.1l-1.1-0.4l-3.7-1l-5-1.9l-1.4-1.3L52,175z"/>
<path class="st11" d="M145.4,176.5l0.6,2.2l-0.5,2.8l0.8,1.2l0.3,1.8v1.6h-1.1l-4.4,1l-3.9,1l-1.3,0.1l-1.3-0.2l-1.1,0.7l-2.2,0.8
	l-4.6,0l-2.4-0.3l-0.9-0.2l-3.1,0.6l-3,0.2l-4.1-0.4l-2.9-0.4l-3.3,0.1l-3.5,1.1l-17.2,0.5L75,190.2l-8.2-0.8l-9-2.6l-3.1-1
	l-2.9-2.1l-0.9-1.4l3.5,0.7l6.2,1.6l5.6,0.8l19-0.5l8.5-1.5l9.4-2.1l10.2-2.2l11.9-1l8.3-0.2l6.5-0.8l5-1L145.4,176.5z"/>
<path class="st18" d="M110.7,188.4l2.8-2.3l3.3-1.6l2.3-0.6v-1.2l-1.4,0.3l-5.2,0.6l-5.5,1.9l-5.5,3.2l-1.4,1.3l3.3-0.1l2.2-0.7
	l1.9-0.5L110.7,188.4z"/>
<path class="st12" d="M145.5,182.2l-1.1-0.8h-2.7l-2.3,0.8l-2.2,1.1l-3.5,2.7l-0.9-1.3l-1.7-0.9l-2.3,0.4l-2.3,1l-2.3,1.3l-0.8,0.6
	l-0.7-0.6l-0.7-1.2l-2.4-0.1l-3.8,0.8l-3.9,2l0.3,0.3l9.3-0.5L132,187l7-1.5l4.1-0.8l3.1-1.4L145.5,182.2z"/>
<path class="st17" d="M96.5,183l-3.2,2.1l-4.6,1.3L77.4,187h-6.7l-3.9-0.3l-4.3-1l-0.6-0.8l3.5,0.5l6.3,0.2l5.5-0.4l7.2-0.5l9.1-1.2
	L96.5,183z M142.1,159.1l-2.4,2.2l-6.5,5.2l-4.8,3.5l-5.4,3.4l-7.2,4.1l-4,1.6l6.2-0.4l9.5-0.8h7.6l9-1.5l0.9-1v-7.4l-0.6-4.5
	l-1.3-2.8L142.1,159.1z"/>
<path class="st17" d="M102.3,189.9l-6.4,0.3l-13.4,0.2l-7.4-0.2l-7.4-0.6l-6.5-1.8l-6.4-2l-2.9-2.1l-1.3-2.6L50,179l-0.8,1v1.4
	l0.5,1.6l2.3,2.6l2.4,1.6l1.2,0.2l0.4-1l1.4,0.4l0.1,1.5l1,0.7l3.5,0.7l1.5,0.1l0.5-1l1.5,0.4l0.1,1.1l0.6,0.4l5.9,0.8l0.9-0.2
	l0.5-1l1.8,0.2l0.3,1l0.7,0.6l5.4-0.2l1.1-0.2l0.5-1.1h1.6l0.2,0.9l0.6,0.5l6.2-0.3l0.9-0.7l0-0.7h2.1l0.2,0.9l0.6,0.4l6.5-0.9
	l0.8,0l0.4-0.9L102.3,189.9z M146.1,185.7l-1.3,0.3l-4.8,1.2l-2,0.6l-2.4,0.2l-1.1-0.4l-1.4,0.8l-2.2,0.8l-3.8,0.1l-2.6-0.6
	l-2.1,0.2l-2.6,0.8l-4.7-0.2l-1.6-0.3l1.1,1.2l4.2,0.6l3-0.4l1.2-1.4l1.1-0.4l1,0.5l0.8,1l3.6,0.3l3.1-0.4l1.2-0.9l0.4-1.2l1,0.2
	l1.4,1.3h1.2l5.5-1.8l2.8-0.4l0.5-0.8L146.1,185.7z"/>
<path class="st2" d="M49.8,179.7c0.1,0.9,0.3,1.8,0.6,2.6c0.1,0.2,0.3,0.7,0.8,1.4c0.9,1.2,2.2,2.2,4.4,2.9c0,0.2,0,0.3-0.1,0.5
	c0,0-0.1,0.1-0.3,0.1c-0.5,0-4.6-2.3-5.6-5C49.3,181.3,49.4,180.4,49.8,179.7L49.8,179.7z M51.4,182.6c1.2,0.3,3.9,1,9.8,2.2
	c0.1,0.7,1.8,1.4,4.8,2c1.5,0.3,4.2,0.5,7.2,0.5c6.1,0,13.8-0.5,16.6-1c3.7-0.6,6.5-2.6,7.4-3.3c3.2-0.6,5.9-1.2,7.9-1.9
	c8.3-2.7,23-3.1,27.4-3c4.1,0.1,11-1.5,12.4-1.8c1.2,2.1,0.2,4.2-0.1,4.9c-0.6-0.1-1.9-0.3-4.4,0.2c-2,0.4-3.7,1.9-4.9,2.9
	c-0.6,0.5-1.2,1-1.6,1.2c-0.3-0.6-1.1-1.9-3.6-1.9c-1.9,0-3.5,1-4.8,1.9c-0.8,0.5-1.5,1-2,1c-0.1,0-0.6,0-0.6-0.5
	c0-0.2-0.1-0.5-0.4-0.7c-0.9-0.6-3.2-0.5-5.7,0.3c-2.4,0.8-4.5,2-5.4,2.5c1.6-1.5,5.8-3.5,7.3-3.9c1.1-0.3,1.2-0.7,1.2-1
	c-0.1-0.6-0.9-0.9-2.2-0.9c-1.8,0.1-4.1,0.7-4.2,0.7c-4.7,1.3-8.2,3-10.3,4.2c-2.3,1.4-3.4,2.4-3.5,2.4l0,0
	c-27.1,1.4-32.8-0.4-37.9-2.1c-1-0.3-2-0.7-3.2-0.9c-0.8-0.2-1.5-0.4-2.3-0.7l0,0l-0.2,0C53.2,184.9,52,183.4,51.4,182.6L51.4,182.6
	z M57.9,187.3c0.2,0,0.4,0.1,0.6,0.1c1.1,0.3,2.1,0.6,3.1,0.9c0.7,0.2,1.4,0.4,2.1,0.6c0,0.1-0.1,0.3-0.2,0.4
	c-0.2,0.1-0.4,0.2-0.7,0.2c-1.2-0.1-4.2-1-4.8-1.1C57.9,188.3,57.7,187.9,57.9,187.3z M66.1,189.6c1.8,0.4,4.1,0.8,7.1,1
	c0,0.2-0.1,0.3-0.2,0.4c-0.2,0.1-0.4,0.2-0.7,0.2c-1.2-0.1-5.4-0.7-5.9-0.8C66.3,190.3,66,190.1,66.1,189.6z M75.9,190.8
	c2,0.1,4.4,0.2,7.1,0.2c0,0.2-0.1,0.3-0.2,0.4c-0.1,0.2-0.4,0.3-0.7,0.3c-1.2,0.1-5.4,0-6,0C76.2,191.6,75.8,191.4,75.9,190.8z
	 M85.6,190.9c2.2,0,4.5-0.1,7.1-0.2c0,0.1-0.1,0.2-0.1,0.3c-0.1,0.2-0.3,0.3-0.6,0.3c-1.2,0.1-5.4,0.3-6,0.3
	C85.9,191.6,85.6,191.5,85.6,190.9L85.6,190.9z M95.6,190.6c2.4-0.1,5-0.2,7.8-0.4l0,0c-0.1,0.2-0.4,0.3-0.7,0.3
	c-1.2,0.1-6,0.7-6.6,0.7C95.9,191.2,95.6,191.1,95.6,190.6z M100.8,189.7c1.6-1.2,5.9-4.1,12.8-6c0,0,2.3-0.7,4.1-0.7
	c0.9,0,1.3,0.2,1.4,0.3c-0.1,0.1-0.2,0.2-0.7,0.3c-1.6,0.4-7.1,3-8.1,4.8c-3.8-0.2-6,0.9-6.5,1.2
	C102.8,189.6,101.8,189.6,100.8,189.7z M112.9,188c1-0.6,2.5-1.3,4.1-1.8c2.5-0.8,4.5-0.8,5.1-0.4c0.1,0.1,0.1,0.1,0.1,0.1
	c0,0.9,0.9,1.2,1.3,1.2c0.7,0,1.4-0.5,2.4-1.1c1.2-0.8,2.7-1.8,4.4-1.8c2.6,0,3,1.6,3,1.7l0,0.2C125.5,187.3,116.9,187.8,112.9,188z
	 M113.2,188.7c6.9-0.3,25.7-1.6,32.9-4.9c0.1,0.7,0.1,1.4,0.1,1.8c-1.9,0-4.8,0.8-7,1.3c-1,0.3-1.9,0.5-2.4,0.6
	c-0.8,0.1-1,0-1.3-0.1c-0.3-0.1-0.6-0.3-1.2-0.2c-0.6,0.1-0.7,0.3-0.9,0.6c-0.2,0.3-0.5,0.8-3.6,1c-3.2,0.2-4.1-0.2-4.6-0.5
	c-0.3-0.1-0.6-0.3-1-0.3c-0.5,0-0.9,0.2-1.4,0.3c-0.8,0.3-1.7,0.6-3.3,0.7c-2.6,0.2-5.9-0.4-6.1-0.4
	C113.3,188.8,113.2,188.7,113.2,188.7L113.2,188.7z M114.4,189.6c1.2,0.2,3.2,0.4,5,0.3c1.2-0.1,2.3-0.3,3.4-0.7
	c0,0.1-0.1,0.1-0.1,0.2c-0.1,0.2-0.3,0.3-0.4,0.5c-0.3,0.5-0.4,0.7-3.7,0.8C116.5,190.7,115.2,190.1,114.4,189.6z M125.4,189.3
	c0.7,0.2,1.9,0.4,4.4,0.3c2.3-0.2,3.2-0.5,3.7-0.9c0,0,0,0,0,0.1c-0.5,1.2-0.6,1.5-4.4,1.6c-3.2,0.1-3.4-0.4-3.6-0.8
	C125.5,189.4,125.5,189.4,125.4,189.3L125.4,189.3z M135.7,188.3c0.3,0.1,0.6,0.1,1.1,0c0.5-0.1,1.4-0.3,2.5-0.6
	c2.1-0.6,5-1.4,6.9-1.3c0.1,0.2,0,0.3,0,0.4c-0.1,0.2-0.5,0.5-1.8,0.6c-1.9,0.2-3.8,0.9-5.4,1.4c-0.4,0.1-0.8,0.3-1.2,0.4
	C136.5,189.6,135.8,188.5,135.7,188.3z M145.9,183.2c-2.6,1.2-6.9,2.1-11.5,2.9c0.4-0.2,0.9-0.7,1.5-1.2c1.2-1.1,2.8-2.4,4.6-2.8
	c2.9-0.6,4.2-0.2,4.3-0.2l0,0C145.4,182.2,145.7,182.6,145.9,183.2L145.9,183.2z M144.7,175.7c-1.4,0.3-8.3,1.9-12.3,1.8
	c-1.9-0.1-6.6,0-12.3,0.5c-1.9,0.2-4.2,0.4-6.5,0.7c12.3-5.2,26.3-16.9,28.7-18.9c0.3,0.6,0.6,1.2,1,1.8
	C145.4,165.2,144.8,174.1,144.7,175.7L144.7,175.7z M113.9,177.8c-1.2,0.5-2.5,1-3.7,1.4c-1.9,0.4-3.7,0.8-5.3,1.3
	c-1.7,0.6-4,1.1-6.7,1.6C100.7,180.7,106.2,178.2,113.9,177.8L113.9,177.8z M142.1,159.1c-1.7,1.5-14.7,12.4-26.6,18
	c-6.2,0-11.1,1.5-14.1,2.8c-3.1,1.2-4.9,2.5-5.2,2.7c-5.5,1-12.2,1.8-18.3,2.2c4.6-3.2,13-11.5,14.6-13.2l1.7,1.9
	c-1,0.9-4.9,4.4-5.4,5.1c-0.3,0.4-0.2,0.6-0.1,0.8c0.2,0.3,0.5,0.3,0.8,0.3c0.1,0,0.2,0,0.3,0c5.9-0.4,12.5-2.4,17.1-4
	c4.6-1.6,9.1-3.5,9.5-4c0.3-0.4,0.2-0.6,0.1-0.8c-0.2-0.5-1.1-0.5-1.4-0.5l-8.2-1.2l-1.8-2c3.2,0.4,14.2,1.7,15.3,1.9
	c0.3,0,0.6,0.1,0.8,0.1c0.7,0,1-0.2,1.8-0.6l0.3-0.2c0.5-0.2,0.7-0.5,0.7-0.9c0-0.6-0.9-0.8-1.1-0.9l-0.1,0l-19.7-1.6l-2-2.2
	c0-0.3-0.1-1.3-0.7-2.6c-0.3-0.6-0.2-1.1,0-1.5c0.3-0.4,0.8-0.7,1.3-0.8c0.8-0.1,1.4-0.5,2.1-1c0.3-0.2,0.6-0.5,1-0.7
	c0.9-0.6,2.4,0.4,2.4,0.4l3.3,2c0.5,0.3,1.8,1.3,1.5,2.2c-0.3,0.9-1.9,0.7-2.2,0.6l-4.4-2.5l-0.2,0.1c-0.1,0-1.8,1.1-2.1,2.5
	c-0.1,0.6,0,0.9,0.2,1.1c0.5,0.5,1.4,0.4,1.7,0.4l24,2l0.1-0.1c0.3-0.2,8-5,9-8c0.4-1.3,0.3-2.7-0.5-4.1c-0.2-0.4-0.5-0.8-0.8-1.2
	c0.3,0,0.6,0.1,0.9,0.2c1,0.3,1.7,0.8,2,0.9C139.8,153.3,140.7,156.1,142.1,159.1L142.1,159.1z M139.8,152c-0.6-0.4-1.3-0.7-2-0.9
	c-1.8-0.5-3.3-0.2-4.4,1c-0.7,0.7-1.4,1.6-2.2,2.6c-2.1,2.6-4.4,5.5-7,5.6c-3.5,0.1-12.3-4.3-12.9-4.7c-0.4-0.3-4-3.2-7.6-2.5
	c-1.6,0.3-6.3,3-11.1,6c4.2-3.8,11.5-10.4,12.1-11.1c0.4-0.5,1-0.9,1.4-0.9c0.3,0,0.6,0.1,0.8,0.3c0.2,0.2,0.5,0.4,0.8,0.5
	c-0.6,0.1-1.4,0.3-2,0.7c-1.4,1-5.4,4.4-5.9,4.8c-1.4,0.8-2.2,1.7-2.3,1.7l0.5,0.5c0,0,2.8-2.6,6.3-3.2c3.5-0.5,7.4,2.4,7.4,2.5l0,0
	l0,0l7.4,3.4c0.2,0.1,2.5,1,4.7,1c1.2,0,2.4-0.3,3.2-1.1c2.1-2.2,4.8-6.1,5-6.4c0.1-0.2,1.8-2.1,3.3-2.1c1.6-0.1,3.7,0.8,3.9,0.9
	c0.2,0.1,0.7,0.4,0.8,0.8C140.1,151.6,140,151.8,139.8,152L139.8,152z M114.2,155.3l-2-0.9c-0.4-0.3-4.3-3.2-7.9-2.6
	c-0.7,0.1-1.4,0.3-2,0.5c1.4-1.2,3-2.6,3.8-3.1c1.2-0.8,2.7-0.6,3-0.6c0.8,0.4,1.7,1.1,2.9,2.1C114.1,152.5,114.2,154.5,114.2,155.3
	z M103.8,165.8l18.9,1.6c0.2,0.1,0.5,0.2,0.6,0.3c-0.1,0.1-0.2,0.1-0.3,0.2l-0.3,0.2c-1,0.5-1.2,0.6-2.2,0.4
	c-1.2-0.2-14.8-1.8-16.1-2L103.8,165.8z M90.3,168.2l4.1-1.9l5.7,2.2l-2.9-3.5l3.5-1.6l7.5,8.2l-3.8,1.9l-6.3-2.6l3.7,3.7l-3.9,1.9
	C97.8,176.5,90.3,168.2,90.3,168.2z M102.7,174.9l-2.8-2.6l4.4,2l5-2.4l-1.6-1.8l7.4,1h0c0.3,0,0.7,0.1,0.8,0.1c0,0,0,0,0,0.1
	c-0.7,0.7-15.3,6.9-26.1,7.7l0,0c-0.1,0-0.3,0-0.4,0l0,0c0.4-0.5,3.7-3.6,5.3-5l3,3.3C97.6,177.3,102.7,174.9,102.7,174.9z
	 M103.9,153.8c3.4-0.6,7,2.4,7,2.4l0.1,0c0.4,0.2,9.2,4.8,13.1,4.8c0.1,0,0.1,0,0.2,0c2.9-0.1,5.4-3.2,7.5-5.9
	c0.7-0.9,1.5-1.8,2.1-2.5c0.5-0.6,1.2-0.9,1.9-1c0.5,0.5,2.3,2.8,1.5,5.1c-0.9,2.5-7.7,7-8.6,7.5l-23.8-2l0,0
	c-0.3,0-0.9,0.1-1.1-0.2c-0.1-0.1-0.1-0.2,0-0.5c0.2-0.9,1.2-1.7,1.7-2l4.1,2.4l0.1,0c0.1,0,2.6,0.6,3.1-1.1c0.5-1.6-1.8-2.9-1.9-3
	l-3.2-2c-0.1,0-1.8-1.2-3.2-0.4c-0.4,0.2-0.8,0.5-1.1,0.8c-0.6,0.5-1.1,0.9-1.7,0.9c-0.8,0.1-1.5,0.5-1.9,1.1
	c-0.3,0.4-0.5,1.2,0,2.2c0.5,1.1,0.6,1.9,0.6,2.3l-4.3,1.9l2.1,2.4l-3.9-1.6l-5.2,2.4l2.9,3.2c-1.6,1.6-11.5,11.4-15.6,13.8
	c-1.4,0.1-2.8,0.1-4.2,0.2c14.7-14,14.8-20.1,14.6-21.4C93.1,159.5,101.8,154.1,103.9,153.8z M71.2,185c-0.9,0-1.8,0-2.7,0
	c0.7-0.6,1.7-1.4,2-1.8c0.5-0.5,0.7-0.9,0.5-1.2c-0.1-0.3-0.4-0.4-0.8-0.5c-0.6-0.1-3.9-1-5.2-1.4c-0.4-0.2-1.1-0.4-2.3-0.7
	c-0.6-0.2-1.3-0.4-2.2-0.6c-2.6-0.8-4.3-1.9-5.6-2.8c-0.8-0.5-1.4-0.9-2-1.2c0.3-0.2,0.6-0.3,1.1-0.4l5.2,2.4c0.2,0.1,0.7,0.5,2,0.5
	c1.2,0,3-0.3,5.7-1.3c5.7-2.1,10.4-6.4,10.8-6.7c0.7-0.4,1.5-0.8,2.2-1.2c0.1,0,2.7-1.8,6.2-4C86.2,165.7,85.2,171.9,71.2,185
	L71.2,185z M75,170.7c-1.9,1.5-4.9,3.4-8.2,4.7c-5.6,2.1-7.1,0.9-7.1,0.9l0,0l0,0l-4.3-1.9c1-0.1,2.1-0.1,3.3-0.2
	c2.2-0.1,4.7-0.2,7.3-0.6C69.2,173.1,72.5,171.8,75,170.7z M84.2,184.9c4-0.4,7.9-1,11.4-1.6c-1.3,0.8-3.4,1.9-5.9,2.3
	c-4.2,0.6-19,1.5-23.5,0.5c-1.8-0.4-2.9-0.8-3.5-1C67,186,74.8,185.9,84.2,184.9L84.2,184.9z M60.4,184c1.1-0.5,2.8-1.3,4-2.1
	c0.5-0.3,0.9-0.6,1-0.9c1.3,0.4,4.1,1.2,4.8,1.3c0.1,0,0.2,0,0.2,0c0,0.1-0.1,0.2-0.4,0.5c-0.4,0.4-2.1,1.9-2.6,2.2
	c-1.9-0.1-3.5-0.3-4.9-0.5C61.8,184.3,61.1,184.1,60.4,184z M54.6,176.6c1.3,0.9,3.1,2,5.8,2.9c0.9,0.3,1.6,0.5,2.2,0.6
	c1,0.3,1.9,0.5,2.2,0.7c-0.1,0.1-0.3,0.2-0.7,0.5c-1.7,1.1-4.3,2.2-4.8,2.4c-5.7-1.2-7.7-1.8-8.2-1.9c-0.7-1.6-0.5-3-0.5-3.1l0.1-1
	c0.2-0.8,0.5-1.8,1-2.1c0.2-0.1,0.4-0.2,0.6-0.2C52.9,175.5,53.6,176,54.6,176.6z M49.2,182.8c1.3,2.7,5.3,5.1,6.2,5.1c0,0,0,0,0,0
	c0.3,0,0.6-0.2,0.8-0.4c0.1-0.2,0.2-0.4,0.2-0.6c0.3,0.1,0.5,0.2,0.8,0.3c-0.3,1.3,0.4,1.9,0.4,1.9l0.1,0l0.1,0c0.1,0,3.6,1.1,5,1.2
	c0.1,0,0.1,0,0.2,0c0.4,0,0.8-0.1,1.1-0.4c0.2-0.2,0.3-0.5,0.4-0.7c0.3,0.1,0.7,0.2,1,0.3c-0.2,1,0.3,1.5,0.7,1.6l0,0l0,0
	c0.2,0,4.7,0.7,6,0.8c0.1,0,0.1,0,0.2,0c0.4,0,0.8-0.1,1.1-0.4c0.3-0.3,0.4-0.7,0.4-0.9c0.4,0,0.9,0.1,1.3,0.1
	c-0.1,1,0.5,1.5,0.9,1.6l0,0l0,0c0.1,0,1.8,0,3.4,0c1.1,0,2.2,0,2.7-0.1c0.5,0,0.9-0.2,1.2-0.6c0.2-0.3,0.3-0.6,0.3-0.9l1.1,0
	c0,0.9,0.6,1.4,1,1.5l0,0l0,0c0.2,0,4.7-0.1,6.1-0.3c0.5-0.1,0.9-0.3,1.1-0.6c0.2-0.3,0.2-0.5,0.3-0.8l1.4-0.1
	c0.1,0.9,0.6,1.2,1,1.3l0.1,0l0.1,0c0.1,0,5.4-0.6,6.7-0.7c0.6-0.1,1-0.3,1.2-0.6c0.1-0.2,0.2-0.3,0.2-0.5l0,0c0,0,3.2-2,8.9-0.7
	c0.4,0.4,1.9,1.9,5.2,1.9c0.1,0,0.2,0,0.3,0c3.5-0.1,3.8-0.3,4.3-1.1c0.1-0.1,0.2-0.3,0.3-0.4c0.4-0.4,0.6-0.6,0.7-0.6l0.1,0
	c0,0,0.5,0,0.8,0.4c0,0.1,0.1,0.1,0.1,0.2c0.4,0.8,0.9,1.3,4.3,1.2c3.6-0.1,4.3-0.3,5-2c0.1-0.3,0.3-0.5,0.5-0.6
	c0.2,0,0.4,0.1,0.5,0.2c0.3,0.7,1.3,1.7,2.9,1.2c0.4-0.1,0.8-0.2,1.2-0.4c1.5-0.5,3.5-1.2,5.3-1.4c1.3-0.1,2.1-0.4,2.4-1
	c0.3-0.4,0.1-0.9,0-1.2c0.1-0.6,0.4-3.5-1.4-4.6c0.5-0.9,1.5-3.3,0-5.6c0.1-1.2,0.8-10.7-1.4-14.6c-2-3.5-3.4-7.7-3.7-8.7
	c0.4-0.4,0.6-0.8,0.5-1.2c-0.1-0.8-1-1.3-1.2-1.4l0,0c-0.1,0-2.4-1-4.2-0.9c-1.9,0.1-3.8,2.3-3.8,2.4l0,0c0,0-2.9,4.1-5,6.4
	c-2,2.1-7,0-7.1-0.1l-4.6-2.1c0.1-0.6,0.1-3.2-2.4-5.4c-1.7-1.5-3-2.2-3.9-2.7c-0.5-0.3-0.9-0.5-1.2-0.7c-0.4-0.3-0.8-0.5-1.3-0.5
	c-0.7,0-1.4,0.5-1.9,1.2c-0.6,0.7-10,9.3-14.9,13.7c-3.3,2.1-6.5,4.2-9.7,6.3c-0.1,0-7,4.4-13.7,5.3c-2.6,0.4-5.1,0.5-7.2,0.6
	c-3.5,0.1-5.9,0.2-6.6,1.3c-0.3,0-0.6,0.1-0.9,0.3c-1,0.8-1.3,2.9-1.4,3.5C48.7,179.7,48.5,181.2,49.2,182.8L49.2,182.8z"/>
<path class="st2" d="M71.9,179.3c-1.5-0.1-4.1-0.7-4.5-0.8c-0.1-0.1-0.2-0.2-0.2-0.3c0-0.1,0.2-0.3,0.8-0.5c1.7-0.7,8.3-3.8,8.9-4.1
	c0.2,0,0.5,0,0.6,0.1c0.1,0.1,0,0.3-0.2,0.7l-3.6,4.3l0,0.1C73.6,178.9,73.3,179.5,71.9,179.3 M72.2,180.1c1.4,0,1.9-0.7,2-0.9
	l3.6-4.3l0,0c0.3-0.6,0.4-1.1,0.1-1.5c-0.4-0.5-1.2-0.4-1.3-0.4l-0.1,0l0,0c-0.1,0-7.2,3.4-9,4.1c-0.8,0.3-1.2,0.7-1.2,1.2
	c0,0.6,0.6,0.9,0.7,1l0,0l0,0c0.1,0,3,0.7,4.7,0.8C72,180.1,72.1,180.1,72.2,180.1"/>
<path class="st13" d="M89.3,159.9c0,0,0.5,2.2-0.8,3c-1.3,0.8-3.3,0.4-3.3,0.4s-1.4-0.1-1.5,0.7c-0.1,0.8,0.1,1.5,1.8,1.4
	c1.6-0.1,3.3-0.2,4.4-0.7c1.1-0.4,1.5-3.6,1.4-3.9C91.1,160.3,90,159.2,89.3,159.9"/>
<path class="st2" d="M89.9,160c-0.1,0-0.1,0-0.2,0c0.1,0.6,0.2,2.3-1,3.1c-1.3,0.8-3.3,0.5-3.6,0.4c-0.2,0-1,0-1.1,0.4
	c0,0.4,0,0.6,0.1,0.8c0.2,0.2,0.6,0.3,1.3,0.3c1.7-0.1,3.3-0.2,4.3-0.6c0.3-0.1,0.7-0.8,0.9-1.7c0.2-0.9,0.3-1.6,0.2-1.8
	C90.9,160.7,90.3,160.1,89.9,160 M83.7,165.2c-0.3-0.3-0.4-0.7-0.3-1.3c0.1-0.9,1.2-1.1,1.9-1l0,0c0,0,1.9,0.4,3.1-0.3
	c1-0.7,0.6-2.6,0.6-2.6l0-0.2l0.1-0.1c0.2-0.3,0.6-0.4,0.9-0.3c0.7,0.1,1.4,0.9,1.6,1.2c0.2,0.4-0.1,2.1-0.5,3.1
	c-0.3,0.7-0.7,1.2-1.1,1.3c-1.1,0.4-2.7,0.6-4.5,0.7c-0.1,0-0.2,0-0.3,0C84.5,165.7,84,165.5,83.7,165.2"/>
<path class="st22" d="M92,164.6l-3.2,1.5l-2.5-3.3l2.6-1.6L92,164.6z"/>
<path class="st2" d="M88.8,161.7l-2,1.2l2.1,2.7l2.5-1.2L88.8,161.7z M85.8,162.8l3.2-1.9l3.6,3.9l-3.9,1.9L85.8,162.8L85.8,162.8z"
	/>
<path class="st13" d="M95,155.6c0,0,0.6,3.1-0.2,3.7c-0.8,0.7-3.5-0.2-3.5-0.2s-0.7-0.7-1.4-0.4c-0.7,0.3-0.7,1.1,0.1,1.8
	s2.2,1.5,5.5,1c0,0,1.9-2.7,1.8-4.7C97.1,154.8,95,155.6,95,155.6"/>
<path class="st2" d="M96.8,156.8c0-0.4-0.1-0.7-0.4-0.8c-0.3-0.2-0.8-0.2-1.1-0.1c0,0.3,0.1,0.8,0.2,1.4c0.1,1.3-0.1,2.1-0.5,2.4
	c-0.2,0.1-1.1,0.7-3.9-0.1l-0.1,0l-0.1-0.1c0,0-0.5-0.6-1-0.3c-0.1,0.1-0.3,0.2-0.3,0.4c0,0.2,0.1,0.5,0.5,0.8
	c0.8,0.7,2.1,1.4,5.1,0.9C95.5,160.6,96.9,158.4,96.8,156.8 M89.6,160.8c-0.5-0.4-0.8-1-0.7-1.4c0.1-0.4,0.3-0.7,0.7-0.9
	c0.8-0.4,1.5,0.2,1.8,0.4c1.1,0.3,2.7,0.6,3.1,0.2c0.4-0.4,0.3-2.2,0.1-3.4l-0.1-0.3l0.3-0.1c0,0,1.2-0.5,2,0.1
	c0.4,0.3,0.6,0.8,0.7,1.4c0.1,2.1-1.8,4.8-1.9,4.9l-0.1,0.1l-0.1,0c-0.8,0.1-1.4,0.2-2,0.2C91.4,162,90.3,161.3,89.6,160.8"/>
<path class="st13" d="M102.1,158.8l-5.8-4.7c0,0-0.6-0.4-1.2,0c-0.7,0.5-0.8,1.1,0.9,2.3c1.7,1.2,5.1,3.3,5.1,3.3s0.6,0.1,1-0.1
	C102.4,159.4,102.1,158.8,102.1,158.8"/>
<path class="st2" d="M96.1,154.4c0,0-0.4-0.3-0.8,0c-0.3,0.2-0.3,0.3-0.3,0.4c0,0.2,0.2,0.6,1.2,1.3c1.5,1.1,4.6,3,5,3.3
	c0.1,0,0.5,0.1,0.7-0.1c0.1,0,0-0.2-0.1-0.3C101.8,159,96.1,154.4,96.1,154.4z M101,160.1L101,160.1l-0.1,0c0,0-3.5-2.1-5.1-3.4
	c-1-0.8-1.5-1.3-1.5-1.9c0-0.4,0.2-0.7,0.6-1c0.7-0.5,1.4-0.2,1.6,0l5.8,4.7l0,0c0.3,0.4,0.4,1-0.1,1.3c-0.3,0.2-0.6,0.2-0.8,0.2
	C101.2,160.2,101,160.1,101,160.1z"/>
<path class="st22" d="M98.6,161.6l-3.2,1.5l-3.3-4l2.6-1.6L98.6,161.6z"/>
<path class="st2" d="M94.6,158l-2,1.2l2.9,3.5l2.5-1.2L94.6,158z M91.6,159l3.2-1.9l4.4,4.6l-3.9,1.9C95.3,163.6,91.6,159,91.6,159z
	"/>
<path class="st13" d="M83.8,166.9c0,0-0.9-0.3-1.3-0.7c-0.4-0.4-1.1-0.8-1.8-0.6c-0.6,0.2-1.1,1.4,0.5,2c1.5,0.6,2.6,0.3,2.6,0.3
	s0.3,0,0.3-0.5C84.2,166.9,83.8,166.9,83.8,166.9"/>
<path class="st2" d="M83.8,167.4c0-0.1,0-0.2,0-0.2l0,0l-0.1,0c-0.1,0-1-0.3-1.4-0.8c-0.4-0.4-1-0.7-1.4-0.5
	c-0.2,0.1-0.3,0.3-0.4,0.5c0,0.3,0.3,0.6,0.8,0.8c1.4,0.5,2.4,0.3,2.4,0.3l0,0C83.8,167.5,83.8,167.5,83.8,167.4 M81.1,167.9
	c-1.2-0.5-1.3-1.2-1.3-1.5c0-0.5,0.3-1,0.8-1.2c0.9-0.4,1.9,0.4,2.1,0.7c0.3,0.2,0.9,0.5,1.1,0.6c0.3,0.1,0.6,0.3,0.6,0.9
	c0,0.6-0.4,0.8-0.6,0.8c-0.1,0-0.4,0.1-0.7,0.1C82.4,168.3,81.7,168.2,81.1,167.9"/>
<path class="st13" d="M79.8,168.9c0,0-1.6-1.4-2.5-1.2c-0.9,0.2-1.2,1.7,0.1,2.1C78.6,170.3,81.1,170.2,79.8,168.9"/>
<path class="st2" d="M77.4,168c-0.3,0.1-0.5,0.3-0.5,0.6c0,0.2,0,0.6,0.6,0.8c0.9,0.3,2.2,0.2,2.3,0.1c0,0,0-0.1-0.3-0.3
	C79,168.7,77.9,167.9,77.4,168 M77.3,170.1c-0.8-0.3-1.1-1-1.1-1.5c0-0.6,0.5-1.1,1-1.3c0.2,0,1.2-0.2,2.8,1.3l0,0
	c0.6,0.6,0.5,1,0.4,1.2c-0.2,0.4-0.8,0.5-1.5,0.5C78.3,170.4,77.7,170.3,77.3,170.1 M105,157.5c0,0.5,0.4,0.9,0.9,0.9
	c0.5,0,0.9-0.4,0.9-0.9c0-0.5-0.4-0.9-0.9-0.9c0,0,0,0,0,0C105.5,156.6,105,157,105,157.5C105,157.5,105,157.5,105,157.5
	 M108.1,159.2c0,0.5,0.4,0.9,0.9,0.9c0.5,0,0.9-0.4,0.9-0.9c0-0.5-0.4-0.9-0.9-0.9c0,0,0,0,0,0C108.5,158.3,108.1,158.7,108.1,159.2
	L108.1,159.2 M121.2,170.7l0.5,2.1c0.1,0.3,0.5,0.2,0.4-0.1l-0.5-2.1C121.6,170.3,121.1,170.4,121.2,170.7 M122.7,170.8l-0.2-0.6
	l1.1-0.7l0.1,0.6c0,0,0,0.1,0,0.1L122.7,170.8 M123.6,169l-1.5,0.9c-0.1,0.1-0.1,0.2-0.1,0.2l0.3,1c0,0.1,0.2,0.2,0.3,0.1l1.1-0.6
	c0,0.2,0.1,0.4,0.1,0.5c0,0,0.1,0,0.1,0c0,0-0.1,0.1-0.1,0.1c0,0,0,0,0,0c0,0,0,0,0,0c0.1,0.1-0.1,0.1-0.1,0
	c-0.1,0.1-0.3,0.2-0.3,0.2l-0.9,0.5c-0.2,0.1,0,0.5,0.3,0.3l1.4-0.9c0.1,0,0.1-0.1,0.1-0.2l-0.4-2.1
	C123.9,169,123.8,168.9,123.6,169"/>
<path class="st2" d="M123.9,171.2C123.9,171.2,123.9,171.2,123.9,171.2C123.8,171.2,123.8,171.2,123.9,171.2
	C123.8,171.2,123.9,171.2,123.9,171.2 M128,167.6l0.1,0.4c0,0.1,0,0.2,0.1,0.2c0,0,0,0,0,0c-0.3,0.2-0.7,0.4-1,0.7l-0.1-0.5
	c0,0,0-0.1,0-0.1L128,167.6 M128.2,168.2C128.2,168.2,128.3,168.2,128.2,168.2 M127.9,166.1l-1.4,1c-0.1,0-0.1,0.1-0.1,0.2l0.4,2.1
	c0,0.2,0.2,0.2,0.3,0.1l1.4-1c0.1,0,0.1-0.1,0.1-0.2l-0.3-1c0-0.2-0.2-0.2-0.3-0.1l-1,0.7c0-0.2-0.1-0.4-0.1-0.5
	c0.1-0.1,0.3-0.3,0.5-0.4l0.8-0.6C128.3,166.2,128.1,165.9,127.9,166.1 M126.1,169.8C126.1,169.8,126.1,169.8,126.1,169.8
	c-0.2,0.1-0.4,0.2-0.5,0.3l-0.6,0.4l-0.1-0.5c-0.1-0.2-0.1-0.9-0.2-1.1c0,0,0,0,0,0c0.2-0.1,0.4-0.2,0.5-0.3l0.6-0.4l0.1,0.5
	C125.9,168.9,125.9,169.5,126.1,169.8 M125.8,167.6l-1.5,1c-0.1,0-0.1,0.1-0.1,0.2l0.4,2.1c0,0,0,0,0,0.1c0,0.1,0.1,0.1,0.1,0.1
	c0.1,0,0.1,0,0.2,0c0,0,0,0,0.1,0l1.5-1c0.1,0,0.1-0.1,0.1-0.2l-0.4-2.1C126.1,167.6,125.9,167.5,125.8,167.6"/>
<path class="st20" d="M90.6,168.2l7.3,8.1l3.5-1.8l-4.1-4.1l7,3l3.5-1.8l-7.2-8l-3.2,1.5l3.2,3.8l-6.2-2.4
	C94.4,166.5,90.6,168.2,90.6,168.2z M97.8,176.7L97.8,176.7l-7.8-8.6l4.4-2l5.1,2l-2.7-3.1l3.8-1.8l0.1,0.1l7.6,8.4l-4.1,2l-5.5-2.3
	l3.2,3.2C102,174.6,97.8,176.7,97.8,176.7z"/>
<path class="st23" d="M23.4,153.6L62,180.3v33.6l-38.7-31.4V153.6z"/>
<path class="st2" d="M24.2,182.1v-26.9l37,25.5v31.4C61.2,212.1,24.2,182.1,24.2,182.1z M23.5,152.7c-0.2-0.1-0.4-0.1-0.7,0
	c-0.4,0.2-0.4,0.8-0.4,0.9v29.3l39.4,31.9l1.1-0.3v-34.7L23.5,152.7z"/>
<path class="st24" d="M62,180.3l90.1-21.1v29.5L62,213.9L62,180.3z"/>
<path class="st2" d="M151.3,160.2V188l-88.4,24.8V181L151.3,160.2z M152.4,158.2l-90.6,21.3l-0.7,0.2v34.7l0.7,0.5l91.2-25.6v-30.9
	L152.4,158.2L152.4,158.2z"/>
<path class="st25" d="M128.7,191.5l0.4-0.1v-0.9c0-0.2,0-0.4,0.1-0.5c0.1-0.1,0.2-0.2,0.3-0.2c0.4-0.1,0.4,0.3,0.4,0.5v0.9l0.4-0.1
	v-1c0-0.1,0-0.5-0.2-0.6c-0.2-0.1-0.4-0.1-0.6-0.1c-0.3,0.1-0.4,0.3-0.5,0.4v-0.2l-0.4,0.1C128.7,189.6,128.7,191.5,128.7,191.5z
	 M132.4,189.7c0-0.1,0-0.1,0-0.2c0-0.5-0.4-0.9-1-0.7c-0.6,0.2-1,0.8-1,1.3c0,0.5,0.4,0.9,1,0.7c0.4-0.1,0.8-0.5,0.9-0.9l-0.5,0.1
	c-0.1,0.2-0.2,0.3-0.4,0.4c-0.3,0.1-0.5-0.1-0.5-0.2L132.4,189.7L132.4,189.7z M130.9,189.8c0.1-0.3,0.3-0.5,0.5-0.6
	c0.2-0.1,0.5,0,0.5,0.3L130.9,189.8z M133,190.3l0.3-0.1l0.4-1.3l0,0l0.3,1.1l0.3-0.1l0.7-2.1l-0.5,0.1l-0.3,1.2l0,0l-0.3-1
	l-0.4,0.1l-0.3,1.2l0,0l-0.3-1l-0.5,0.1L133,190.3z M135.8,189.5l0.4-0.1v-0.2c0.1,0.1,0.3,0.2,0.6,0.1c0.7-0.2,0.9-0.9,0.9-1.3
	c0-0.5-0.4-0.9-0.9-0.7c-0.2,0.1-0.4,0.2-0.6,0.4v-0.8l-0.4,0.1V189.5L135.8,189.5z M136.2,188.4c0-0.3,0.2-0.6,0.6-0.7
	c0.3-0.1,0.5,0.1,0.5,0.4c0,0.3-0.2,0.6-0.5,0.7C136.5,188.9,136.2,188.8,136.2,188.4L136.2,188.4z M139.8,186.4l-0.4,0.1v0.2l0,0
	c0,0-0.2-0.2-0.6-0.1c-0.5,0.1-0.9,0.7-0.9,1.2c0,0.6,0.4,0.9,0.9,0.7c0.2-0.1,0.5-0.3,0.6-0.5v0.2l0.4-0.1L139.8,186.4L139.8,186.4
	z M139.4,187.5c0,0.3-0.2,0.6-0.5,0.7c-0.3,0.1-0.6-0.1-0.6-0.4c0-0.3,0.2-0.6,0.6-0.8C139.1,187,139.4,187.1,139.4,187.5z
	 M140.5,188.1v-2.5l-0.4,0.1v2.5L140.5,188.1z M142.6,185.6l-0.4,0.1v0.2l0,0c0,0-0.2-0.2-0.6-0.1c-0.5,0.1-0.9,0.7-0.9,1.2
	c0,0.6,0.4,0.9,0.9,0.7c0.2-0.1,0.5-0.3,0.6-0.5v0.2l0.4-0.1L142.6,185.6L142.6,185.6z M142.1,186.7c0,0.3-0.2,0.6-0.5,0.7
	c-0.3,0.1-0.6-0.1-0.6-0.4c0-0.3,0.2-0.6,0.6-0.8C141.9,186.2,142.1,186.3,142.1,186.7z M142.8,187.4l0.4-0.1v-0.9
	c0-0.2,0-0.4,0.1-0.5c0.1-0.1,0.2-0.2,0.3-0.2c0.4-0.1,0.4,0.3,0.4,0.5v0.9l0.4-0.1v-1c0-0.1,0-0.5-0.2-0.6
	c-0.2-0.1-0.4-0.1-0.6-0.1c-0.3,0.1-0.4,0.3-0.5,0.4v-0.2l-0.4,0.1V187.4z M146,185.9c-0.1,0.2-0.3,0.3-0.4,0.4
	c-0.3,0.1-0.6-0.1-0.6-0.4c0-0.4,0.3-0.7,0.5-0.7c0.3-0.1,0.4,0.1,0.4,0.1l0.5-0.1c-0.2-0.5-0.7-0.5-0.9-0.4c-0.5,0.1-1,0.7-1,1.3
	c0,0.6,0.5,0.9,1,0.7c0.4-0.1,0.8-0.5,0.9-0.9L146,185.9L146,185.9z M148.5,185c0-0.1,0-0.2,0-0.2c0-0.5-0.4-0.9-1-0.7
	c-0.6,0.2-1,0.8-1,1.3c0,0.5,0.4,0.9,1,0.7c0.4-0.1,0.8-0.5,0.9-0.9l-0.5,0.1c-0.1,0.2-0.2,0.3-0.4,0.4c-0.3,0.1-0.5-0.1-0.5-0.2
	L148.5,185z M147.1,185.1c0.1-0.3,0.3-0.5,0.5-0.6c0.2-0.1,0.5,0,0.5,0.3L147.1,185.1L147.1,185.1z"/>
<path class="st25" d="M11,102.2l0.6-1l1,3l-0.3,0.6L11,102.2L11,102.2z M9,105.1l0.3-1.9l1.4,4.3l-0.3,0.6
	C10.4,108.1,9,105.1,9,105.1z M9.5,109.7l-0.9-2.3l0.2-1.3l1,3L9.5,109.7L9.5,109.7z M12,100.6l0.5-0.8l1.1,2.8l-0.3,0.6
	C13.2,103.1,12,100.6,12,100.6z M9.2,98.9l0.8-1.4l-0.3-0.6c-0.1-0.3-0.4-0.6-0.7,0c-0.2,0.6-0.2,1.2-0.1,1.4L9.2,98.9z M8.4,100.3
	l-0.2-0.6c-0.1-0.4-0.4-0.5-0.6,0c-0.2,0.4-0.3,1.1-0.2,1.3l0.2,0.5C7.7,101.6,8.4,100.3,8.4,100.3z M9.4,103.2l-0.7,1.2l-0.8-1.7
	l-0.1,0.1l0.6,2l-0.5,0.9l-1.3-3.3c-0.4-1-0.5-2.4,0.1-4c0.2-0.5,0.7-1.5,1.3-0.9c-0.1-0.3-0.2-1.5,0.2-2.7c0.7-2.1,1.6-1.6,2-0.6
	l1.5,3.9l-0.3,1.5l-0.9-1.8l-0.1,0.1l0.8,2.5l-0.3,1.8l-1.3-2.8l-0.1,0.1l2.1,6.3l-0.3,0.6L8.8,101l-0.1,0.1
	C8.7,101.2,9.4,103.2,9.4,103.2z"/>
<path class="st25" d="M46.2,197.8l0.3,0.2l0-1c0-0.2,0-0.4,0-0.5c0-0.1,0.1-0.1,0.2,0c0.3,0.2,0.3,0.7,0.3,0.8l0,1l0.3,0.2l0-1.1
	c0-0.2,0-0.5-0.1-0.8c-0.1-0.3-0.3-0.5-0.4-0.6c-0.2-0.1-0.3-0.1-0.3,0l0-0.2l-0.3-0.2L46.2,197.8L46.2,197.8z M48.8,198.9
	c0-0.1,0-0.1,0-0.2c0-0.5-0.3-1.3-0.8-1.6c-0.4-0.3-0.7,0-0.7,0.6c0,0.6,0.4,1.3,0.8,1.6c0.3,0.2,0.6,0.1,0.7-0.2l-0.4-0.2
	c-0.1,0.1-0.2,0.1-0.3,0c-0.2-0.2-0.4-0.5-0.4-0.7C47.7,198.2,48.8,198.9,48.8,198.9z M47.7,197.8c0.1-0.3,0.3-0.3,0.4-0.2
	c0.2,0.1,0.4,0.4,0.4,0.7L47.7,197.8z"/>
<path class="st25" d="M49,200l0.2,0.1l0.2-1.1l0,0l0.3,1.5l0.2,0.1l0.4-1.7l-0.3-0.2l-0.2,1.1l0,0l-0.2-1.4l-0.2-0.2l-0.2,1.1l0,0
	l-0.3-1.4l-0.3-0.2L49,200z M50.9,201.4l0.3,0.2l0-0.2c0.1,0.2,0.2,0.4,0.5,0.6c0.5,0.3,0.7-0.2,0.6-0.6c0-0.5-0.3-1.3-0.7-1.5
	c-0.2-0.1-0.3-0.1-0.4,0l0-0.9l-0.3-0.2L50.9,201.4L50.9,201.4z M51.2,200.6c0-0.3,0.1-0.5,0.4-0.3c0.2,0.1,0.4,0.5,0.4,0.9
	c0,0.4-0.2,0.5-0.4,0.4C51.4,201.4,51.2,201.1,51.2,200.6z"/>
<path class="st25" d="M53.7,201.5l-0.3-0.2l0,0.3l0,0c0,0-0.2-0.4-0.5-0.6c-0.4-0.3-0.7,0-0.7,0.6c0,0.7,0.4,1.3,0.7,1.6
	c0.2,0.1,0.4,0.1,0.5,0l0,0.2l0.3,0.2C53.8,203.5,53.7,201.5,53.7,201.5z M53.4,202.3c0,0.4-0.2,0.5-0.4,0.4
	c-0.2-0.2-0.4-0.6-0.4-0.9c0-0.3,0.1-0.5,0.4-0.4C53.2,201.5,53.4,201.8,53.4,202.3z"/>
<path class="st25" d="M54.1,203.8l-0.1-2.7l-0.3-0.2l0.1,2.7L54.1,203.8z M55.5,202.9l-0.3-0.2l0,0.3l0,0c0,0-0.2-0.4-0.5-0.6
	c-0.4-0.3-0.7,0-0.7,0.6c0,0.7,0.4,1.3,0.7,1.6c0.2,0.1,0.4,0.1,0.5,0l0,0.2l0.3,0.2L55.5,202.9L55.5,202.9z M55.3,203.7
	c0,0.4-0.2,0.5-0.4,0.4c-0.2-0.2-0.4-0.6-0.4-0.9c0-0.3,0.1-0.5,0.4-0.4C55,202.9,55.2,203.3,55.3,203.7L55.3,203.7z"/>
<path class="st25" d="M55.6,205l0.3,0.2l0-1c0-0.2,0-0.4,0-0.5c0-0.1,0.1-0.1,0.2,0c0.3,0.2,0.3,0.7,0.3,0.8l0,1l0.3,0.2l0-1.1
	c0-0.2,0-0.5-0.1-0.8c-0.1-0.3-0.3-0.5-0.4-0.6c-0.2-0.1-0.3-0.1-0.3,0l0-0.2l-0.3-0.2L55.6,205z M57.8,206
	c-0.1,0.1-0.2,0.1-0.3,0.1c-0.2-0.2-0.4-0.6-0.4-0.9c0-0.4,0.2-0.5,0.3-0.4c0.2,0.1,0.3,0.4,0.3,0.5l0.3,0.3
	c-0.1-0.7-0.5-1.1-0.6-1.2c-0.3-0.3-0.6-0.1-0.6,0.6c0,0.7,0.4,1.3,0.7,1.6c0.3,0.2,0.5,0.1,0.6-0.2L57.8,206L57.8,206z M59.6,207.2
	c0-0.1,0-0.1,0-0.2c0-0.5-0.3-1.3-0.8-1.6c-0.4-0.3-0.7,0-0.7,0.6c0,0.6,0.4,1.3,0.8,1.6c0.3,0.2,0.6,0.1,0.7-0.2l-0.4-0.2
	c-0.1,0.1-0.2,0.1-0.3,0c-0.2-0.2-0.4-0.5-0.4-0.7L59.6,207.2L59.6,207.2z M58.5,206c0.1-0.3,0.3-0.3,0.4-0.2
	c0.2,0.1,0.4,0.4,0.4,0.7L58.5,206L58.5,206z"/>
<path class="st26" d="M41.2,193.4l-15-11.8c-0.4-0.3-0.7-1-0.7-1.5v-12.2c0-0.5,0.3-0.7,0.7-0.5l15,11.8c0.4,0.3,0.7,1,0.7,1.5v12.2
	C41.8,193.5,41.5,193.7,41.2,193.4"/>
<path class="st2" d="M26.6,172.4l14.1,11.1v-3.4l-14.1-11.1C26.6,169.1,26.6,172.4,26.6,172.4z M40.8,183.7l-14.3-11.3v-3.6
	l14.3,11.3V183.7z M26.6,174.2l14.1,11.1v-0.9l-14.1-11.1V174.2z M40.8,185.5l-14.3-11.3v-1.2l14.3,11.3V185.5z"/>
<path class="st2" d="M26.6,177.3l7,5.5v-3l-7-5.5C26.6,174.3,26.6,177.3,26.6,177.3z M33.7,183.1l-7.2-5.7v-3.3l7.2,5.7V183.1z"/>
<path class="st20" d="M32.6,173.7v3.5"/>
<path class="st2" d="M32.6,177.2L32.6,177.2l-0.1-3.6l0.1,0.1V177.2z M26.6,180.5l7,5.5v-3l-7-5.5C26.6,177.5,26.6,180.5,26.6,180.5
	z M33.7,186.2l-7.2-5.7v-3.3l7.2,5.7V186.2z"/>
<path class="st27" d="M34.6,186.2L34.6,186.2l-0.1-4.8l0.1,0V186.2z M34.8,186.3L34.8,186.3l-0.1-4.8l0.1,0L34.8,186.3z M35.2,181.9
	v4.4l-0.1,0L35.2,181.9L35.2,181.9z M35.3,182v4.4l-0.1,0L35.3,182L35.3,182z M35.6,186.6v-4.4l-0.1,0L35.6,186.6L35.6,186.6z
	 M40.2,185.8l0,4.4L40,190l0-4.4L40.2,185.8z M39.4,185.2l0,4.4l-0.2-0.1l0-4.4L39.4,185.2z M38.5,184.5l0,4.4l-0.2-0.1l0-4.4
	L38.5,184.5z M37.2,183.5l0,4.4l-0.2-0.1l0-4.4L37.2,183.5z M35.9,182.4l0,4.4l-0.2-0.1l0-4.4L35.9,182.4z M36.1,182.6l0,4.4
	l-0.1-0.1l0-4.4L36.1,182.6z M36.3,182.8l0,4.4l-0.1-0.1l0-4.4L36.3,182.8z M37.9,184l0,4.4l-0.1-0.1l0-4.4L37.9,184z M38.1,184.2
	l0,4.4l-0.1-0.1l0-4.4L38.1,184.2z M35.1,181.8l0,4.4l-0.2-0.2l0-4.4L35.1,181.8z M36.5,182.9v4.4l-0.1,0L36.5,182.9L36.5,182.9z
	 M36.8,187.5v-4.4l-0.1,0L36.8,187.5L36.8,187.5z M37,187.7v-4.4l-0.1,0L37,187.7L37,187.7z M37.4,183.6v4.4l-0.1,0L37.4,183.6
	L37.4,183.6z M37.5,183.7v4.4l-0.1,0L37.5,183.7L37.5,183.7z M37.7,183.8v4.4l-0.1,0L37.7,183.8L37.7,183.8z M38.3,184.3v4.4l-0.1,0
	L38.3,184.3L38.3,184.3z M38.7,189v-4.4l-0.1,0L38.7,189L38.7,189z M39,189.3v-4.4l-0.1,0L39,189.3L39,189.3z M39.1,185v4.4l-0.1,0
	L39.1,185L39.1,185z M39.6,185.3v4.4l-0.1,0L39.6,185.3L39.6,185.3z M39.8,185.5v4.4l-0.1,0L39.8,185.5L39.8,185.5z M40.3,190.3
	v-4.4l-0.1,0L40.3,190.3L40.3,190.3z M40.5,190.8L40.5,190.8l-0.1-4.8l0.1,0V190.8z M40.6,190.9L40.6,190.9l0-4.8l0,0V190.9z"/>
<path class="st27" d="M34.3,185.8c0,0.1,0.1,0.3,0.3,0.4c0.2,0,0.3,0,0.3-0.1c0-0.1-0.1-0.2-0.3-0.3
	C34.4,185.7,34.3,185.7,34.3,185.8 M35,186.8c0-0.2-0.2-0.3-0.4-0.5c-0.2,0-0.3,0-0.3,0.1c0,0.1,0.1,0.3,0.4,0.4
	C34.8,186.9,35,186.9,35,186.8 M34,186.4c0-0.2,0.1-0.2,0.4-0.2l0,0c-0.2-0.2-0.3-0.3-0.3-0.4c0-0.2,0.2-0.2,0.5-0.1
	c0.3,0.2,0.5,0.4,0.5,0.5c0,0.1-0.1,0.2-0.3,0.2v0c0.2,0.2,0.4,0.3,0.4,0.5c0,0.2-0.3,0.3-0.6,0.1C34.2,186.8,34,186.5,34,186.4"/>
<path class="st27" d="M35.6,187.2v-0.5c0-0.1,0-0.1,0-0.2l0,0c0,0.1-0.1,0.1-0.1,0.1l-0.4,0.3v0C35.1,186.9,35.6,187.2,35.6,187.2z
	 M35.6,187.7v-0.4l-0.8-0.4v-0.1l0.7-0.5l0.2,0.1v0.9l0.2,0.1v0.1l-0.2-0.1v0.4L35.6,187.7z"/>
<path class="st27" d="M35.6,186.8c0,0.1,0.1,0.3,0.3,0.4c0.2,0,0.3,0,0.3-0.1c0-0.1-0.1-0.2-0.3-0.3
	C35.7,186.7,35.6,186.7,35.6,186.8 M36.3,187.8c0-0.2-0.2-0.3-0.4-0.5c-0.2,0-0.3,0-0.3,0.1c0,0.1,0.1,0.3,0.4,0.4
	C36.1,188,36.3,187.9,36.3,187.8 M35.3,187.4c0-0.2,0.1-0.2,0.4-0.2l0,0c-0.2-0.2-0.3-0.3-0.3-0.4c0-0.2,0.2-0.2,0.5-0.1
	c0.3,0.2,0.5,0.4,0.5,0.5c0,0.1-0.1,0.2-0.3,0.2v0c0.2,0.2,0.4,0.3,0.4,0.5c0,0.2-0.3,0.3-0.6,0.1C35.5,187.8,35.3,187.6,35.3,187.4
	"/>
<path class="st27" d="M36,187.5c0,0.3,0.1,0.6,0.4,0.7c0.2,0.1,0.4,0,0.4-0.4c0-0.3-0.1-0.6-0.4-0.7C36.2,187,36,187.2,36,187.5
	 M37,187.9c0,0.4-0.2,0.6-0.6,0.4c-0.3-0.2-0.6-0.5-0.6-0.9c0-0.4,0.3-0.6,0.6-0.4C36.7,187.2,37,187.5,37,187.9"/>
<path class="st27" d="M36.4,187.9c0,0.3,0.1,0.6,0.4,0.7c0.2,0.1,0.4,0,0.4-0.4c0-0.3-0.1-0.6-0.4-0.7
	C36.6,187.4,36.4,187.5,36.4,187.9 M37.4,188.3c0,0.5-0.2,0.6-0.6,0.4c-0.3-0.2-0.6-0.5-0.6-0.9c0-0.4,0.3-0.6,0.6-0.4
	C37.2,187.5,37.4,187.9,37.4,188.3"/>
<path class="st27" d="M36.9,188.2c0,0.3,0.1,0.6,0.4,0.7c0.2,0.1,0.4,0,0.4-0.4c0-0.3-0.1-0.6-0.4-0.7
	C37,187.7,36.9,187.8,36.9,188.2 M37.8,188.6c0,0.5-0.2,0.6-0.6,0.4c-0.3-0.2-0.6-0.5-0.6-0.9c0-0.4,0.3-0.6,0.6-0.4
	C37.6,187.9,37.8,188.2,37.8,188.6"/>
<path class="st27" d="M37.3,188.6c0,0.3,0.1,0.6,0.4,0.7c0.2,0.1,0.4,0,0.4-0.4c0-0.3-0.1-0.6-0.4-0.7
	C37.5,188.1,37.3,188.2,37.3,188.6 M38.3,189c0,0.5-0.2,0.6-0.6,0.4c-0.3-0.2-0.6-0.5-0.6-0.9c0-0.4,0.3-0.6,0.6-0.4
	C38.1,188.2,38.3,188.5,38.3,189"/>
<path class="st27" d="M37.9,189c0,0,0.1,0.1,0.1,0.1c0.1,0.1,0.1,0,0.1,0c0-0.1-0.1-0.2-0.1-0.2l0,0v-0.1l0,0c0,0,0.1,0,0.1,0
	c0-0.1,0-0.1-0.1-0.1c0,0-0.1,0-0.1,0l0-0.1c0,0,0.1,0,0.1,0c0.1,0.1,0.1,0.1,0.1,0.2c0,0.1,0,0.1-0.1,0.1v0
	c0.1,0.1,0.1,0.1,0.1,0.2c0,0.1-0.1,0.1-0.2,0C37.9,189.1,37.9,189.1,37.9,189C37.9,189,37.9,189,37.9,189z M38.3,189.3
	c0,0,0.1,0.1,0.1,0.1c0.1,0.1,0.1,0,0.1,0c0-0.1-0.1-0.2-0.1-0.2l0,0v-0.1l0,0c0,0,0.1,0,0.1,0c0-0.1,0-0.1-0.1-0.1c0,0-0.1,0-0.1,0
	l0-0.1c0,0,0.1,0,0.1,0c0.1,0.1,0.1,0.1,0.1,0.2c0,0.1,0,0.1-0.1,0.1v0c0.1,0.1,0.1,0.1,0.1,0.2c0,0.1-0.1,0.1-0.2,0
	C38.4,189.5,38.3,189.4,38.3,189.3C38.3,189.4,38.3,189.3,38.3,189.3z M39,189.9c0,0.3,0.1,0.6,0.4,0.7c0.2,0.1,0.4,0,0.4-0.4
	c0-0.3-0.1-0.6-0.4-0.7C39.1,189.4,39,189.5,39,189.9 M39.9,190.3c0,0.5-0.2,0.6-0.6,0.4c-0.3-0.2-0.6-0.5-0.6-0.9
	c0-0.4,0.3-0.6,0.6-0.4C39.7,189.5,39.9,189.9,39.9,190.3"/>
<path class="st27" d="M39.9,190.6v-0.5c0-0.1,0-0.1,0-0.2l0,0c0,0.1-0.1,0.1-0.1,0.1l-0.4,0.3v0C39.4,190.3,39.9,190.6,39.9,190.6z
	 M39.9,191.1v-0.4l-0.8-0.4v-0.1l0.7-0.5l0.2,0.1v0.9l0.2,0.1v0.1l-0.2-0.1v0.4L39.9,191.1L39.9,191.1z"/>
<path class="st27" d="M39.9,190.2l-0.2-0.1l0,0.1c0,0,0,0,0,0c0,0,0.1,0.1,0.1,0.1c0,0.1,0.1,0.1,0.1,0.2c0,0.1-0.1,0.1-0.2,0.1
	c0,0-0.1-0.1-0.1-0.1l0,0c0,0,0.1,0.1,0.1,0.1c0.1,0,0.1,0,0.1,0c0-0.1,0-0.2-0.1-0.2c0,0,0,0-0.1,0l0-0.2L39.9,190.2L39.9,190.2
	L39.9,190.2z M40.2,190.4L40.2,190.4L40.2,190.4L40.2,190.4L40.2,190.4L40.2,190.4l0.1,0.5l-0.1,0V190.4z M27.3,177.2v-1.5l-0.2-0.2
	v-0.2l0.5,0.4v1.7L27.3,177.2z M29,176.8l-0.5-0.2v1.3L29,178V176.8z M28,177.8v-1.7l1.5,0.7v1.7L28,177.8z"/>
<path class="st27" d="M32.9,180.7l-3.5-2.7v-0.2l3.5,2.7V180.7z M32.9,181l-3.5-2.7v-0.2l3.5,2.7V181z M32.9,181.3l-3.5-2.7v-0.2
	l3.5,2.7V181.3z M32.9,181.6l-3.5-2.7v-0.2l3.5,2.7V181.6z"/>
<text transform="matrix(1 0 0 1 27.0679 186.1982)" class="st28 st29">D</text>
<path class="st27" d="M30.4,182.7l-1.9-1.5v-0.7l1.9,1.5L30.4,182.7z M30.8,183l-0.2-0.1v-0.7l0.2,0.1V183z M32.9,184.7l-1.9-1.5
	v-0.7l1.9,1.5V184.7z M32,175.1l-4.9-3.8v-1.1L32,174V175.1z M29.6,173.3l-2.4-1.9v0.3l2.4,1.9V173.3z M29.6,173.8l-2.4-1.9v0.3
	l2.4,1.9V173.8z M36.8,178.3l-3.6-2.9v-0.5l3.6,2.9V178.3z M40.3,181.9l-7.2-5.6v-0.5l7.2,5.6V181.9z M40.3,182l-7.2-5.6v0.1
	l7.2,5.6V182z M40.3,182.3l-7.2-5.6v0.1l7.2,5.6V182.3z"/>
<path class="st30" d="M127.9,75c0,0-21.5-14.8-27.2,9.8c0,0-9.4-20.8-31.8-4.2c0,0-0.8-21.9-27-17.1c0,0,17.6-11-1.5-22.1
	c0,0,17.8-7.1,6.3-20c0,0,20.3,4.8,22.4-15c0,0,13.8,15.6,32.4,4.4c0,0,2.9,20.4,25.7,16.3c0,0-7.7,15.4,9,21.1
	C136.2,48.1,109.7,53.1,127.9,75 M109.2,74.5l8.9,19.7l4.8-4.1L109.2,74.5z M109.7,72.8l11.7,11.9l2.4-4.2L109.7,72.8L109.7,72.8z
	 M133.2,10.2l-18,13.5l21.8-7.9L133.2,10.2L133.2,10.2z M123.8,6.6l-9.4,14.5l13.7-11.5L123.8,6.6z M55.4,1.8l-5.1,2.7l13,13
	L55.4,1.8z M49.9,7.1l-2.8,3.2l14.4,7.2L49.9,7.1z M60.2,68.1l-20.6,4.5l1.6,6.7L60.2,68.1L60.2,68.1z M60.3,70.5l-15.1,10l2.8,4.1
	L60.3,70.5z"/>
<path class="st10" d="M136.5,49.6l5.6-1.1l-5.4-1.8c-4.6-1.5-7.6-4-8.9-7.2c-2.3-5.5,0.8-11.7,0.8-11.7l1.3-2.7l-3,0.5
	c-6.8,1.2-12.3,0.3-16.5-2.7c-6.2-4.5-7.5-12.2-7.5-12.3l-0.3-2.3l-1.9,1.2C83.4,20,70.7,6,70.2,5.4L68,2.9l-0.4,3.4
	c-0.5,4.2-1.8,7.5-4.1,9.9L56,1.4C56,1.2,55.8,1.1,55.6,1C55.4,1,55.2,1,55,1.1l-5.1,2.7c-0.2,0.1-0.3,0.3-0.4,0.6
	c0,0.2,0,0.5,0.2,0.6l9,9l-8.4-7.5c-0.2-0.1-0.3-0.2-0.5-0.2c-0.2,0-0.4,0.1-0.5,0.2l-2.8,3.2c-0.2,0.2-0.2,0.4-0.2,0.7
	c0,0.2,0.2,0.4,0.4,0.5l14.4,7.2c-6,3.7-14,1.9-14.1,1.9l-4.6-1.1l3.2,3.6c2.8,3.2,4,6.2,3.3,9c-1.3,5.5-9,8.6-9,8.6L37,41.2
	l2.7,1.5c5.3,3.1,8,6.4,8.1,9.7c0.1,5.4-6.6,9.7-6.7,9.8l0.3,0.7c0,0,0,0.1-0.1,0.1c-0.2,0.1-0.2,0.3-0.1,0.5c0,0,0,0,0,0
	c0,0.1,0,0.2,0.1,0.4c0.1,0.2,0.4,0.3,0.6,0.3l0.3,0.8c7.6-1.4,13.6-0.6,18,2.4c0,0,0,0,0,0l-20.6,4.4c-0.2,0-0.4,0.2-0.5,0.3
	c-0.1,0.2-0.1,0.4-0.1,0.6l1.6,6.7c0.1,0.2,0.2,0.4,0.4,0.5c0.1,0,0.2,0.1,0.3,0.1c0.1,0,0.3,0,0.4-0.1l19-11.1
	c0.3-0.2,0.4-0.5,0.3-0.8c0,0,0,0,0.1,0c5.9,4.7,6.3,12.6,6.3,12.6l0.1,2.9l2.3-1.7c7-5.2,13.3-7.1,18.8-5.7
	c7.3,1.9,10.7,9.2,10.8,9.3l1.8,4.1l1-4.3c1.3-5.9,3.8-9.8,7.1-11.7l11.5,11.8c0.1,0.2,0.3,0.2,0.5,0.2c0,0,0.1,0,0.1,0
	c0.2,0,0.4-0.2,0.6-0.4l2.4-4.2c0.1-0.2,0.1-0.4,0.1-0.6c-0.1-0.2-0.2-0.4-0.4-0.5L111,72.7c7.2-2.3,15.9,3.5,16,3.6l0.5-0.6
	c0.3,0.1,0.6,0.1,0.8-0.2c0.2-0.2,0.2-0.6,0.1-0.9L129,74c-5.2-6.2-7-11.5-5.5-15.6C125.9,51.7,136.4,49.6,136.5,49.6z M48.3,10
	l1.7-1.9l6.9,6.1L48.3,10z M41.7,78.1l-1.2-4.9l15.3-3.3L41.7,78.1z M109.4,70c-4.2,1.7-7.3,5.3-9.2,11c-2-2.7-5.5-6.4-10.9-7.8
	c-1.4-0.4-2.9-0.6-4.3-0.6c-4.6,0-9.6,1.8-14.9,5.3c-0.6-3.1-2.3-8.4-7.1-12.2c-4.1-3.3-9.5-4.7-16.2-4.3c2.1-2.2,4.1-5.3,4.1-9
	c-0.1-3.9-2.5-7.6-7.3-10.8c2.8-1.6,7.2-4.8,8.3-9.5c0.7-2.8,0.1-5.8-1.8-8.7c3.5,0.2,9-0.1,13.5-3.3c3.4-2.4,5.6-6,6.6-10.7
	c4.6,3.8,16.1,11.2,30.4,3.7c0.8,3,3,8.5,8.2,12.2c4.3,3.1,9.8,4.3,16.2,3.6c-0.9,2.7-1.7,7.3,0.1,11.7c1.2,3,3.5,5.5,6.8,7.2
	c-3.8,1.4-9.2,4.3-11.1,9.5c-1.4,3.9-0.6,8.4,2.4,13.4C119.2,69.4,114.1,68.2,109.4,70z M51.5,4.7L55,2.8l5.5,10.9L51.5,4.7z
	 M122.7,80.7l-1.6,2.7l-7.4-7.6L122.7,80.7z M114.6,24c0.1,0.2,0.4,0.4,0.7,0.4c0.1,0,0.2,0,0.3,0l21.8-7.9c0.2-0.1,0.4-0.3,0.5-0.5
	c0.1-0.2,0-0.5-0.1-0.7l-3.9-5.5c-0.1-0.2-0.4-0.3-0.6-0.3l0,0c-0.2,0-0.3,0.1-0.4,0.1l-18,13.5C114.5,23.3,114.4,23.7,114.6,24z
	 M133.1,11.3l2.9,4.1l-16.2,5.9L133.1,11.3z M109.8,74c-0.2-0.3-0.7-0.3-1-0.1s-0.4,0.6-0.3,0.9l8.9,19.7c0.1,0.2,0.3,0.4,0.5,0.4
	c0.1,0,0.1,0,0.2,0c0.2,0,0.3-0.1,0.5-0.2l4.8-4.1c0.2-0.1,0.2-0.3,0.3-0.5c0-0.2-0.1-0.4-0.2-0.6L109.8,74z M118.4,93L112,78.9
	l9.8,11.3L118.4,93z M114.4,21.8c0.2,0,0.3-0.1,0.5-0.2l13.7-11.5c0.2-0.1,0.3-0.4,0.3-0.6c0-0.2-0.1-0.4-0.3-0.6l-4.3-3
	c-0.2-0.1-0.4-0.2-0.6-0.1s-0.4,0.2-0.5,0.3l-9.4,14.5c-0.2,0.3-0.2,0.7,0.1,1C114.1,21.7,114.3,21.8,114.4,21.8z M124,7.6l2.8,2
	l-9.1,7.6L124,7.6z M59.9,69.9l-15.1,10c-0.2,0.1-0.3,0.3-0.3,0.5c0,0.2,0,0.4,0.1,0.6l2.8,4.1c0.1,0.2,0.3,0.3,0.6,0.3c0,0,0,0,0,0
	c0.2,0,0.4-0.1,0.6-0.3L60.9,71c0.2-0.3,0.2-0.7,0-1C60.6,69.7,60.2,69.6,59.9,69.9z M48,83.4l-1.8-2.7l9.8-6.5L48,83.4z"/>
<path class="st31" d="M67.9,43.3L67.9,43.3c0.2-1,0.1-2-0.1-2.9c-0.2-0.9-0.7-1.7-1.2-2.5c-0.6-0.8-1.3-1.4-2.1-1.9
	c-0.8-0.5-1.8-0.8-2.9-1c-1.1-0.2-2.1-0.1-3,0.2c-0.9,0.2-1.8,0.7-2.6,1.2c-0.8,0.6-1.4,1.3-1.9,2.1c-0.5,0.8-0.8,1.8-1,2.7l0,0
	c-0.1,1-0.1,2,0.1,2.9c0.2,0.9,0.7,1.7,1.2,2.5c0.6,0.8,1.3,1.4,2.1,1.9c0.8,0.5,1.8,0.8,2.9,1c1.1,0.2,2.1,0.1,3-0.2
	c0.9-0.2,1.8-0.7,2.6-1.2c0.8-0.6,1.4-1.3,1.9-2.1C67.5,45.2,67.8,44.3,67.9,43.3z M64.7,42.9c-0.1,0.6-0.3,1.1-0.5,1.6
	c-0.3,0.5-0.6,0.9-1,1.3c-0.4,0.3-0.9,0.6-1.5,0.8c-0.6,0.2-1.2,0.2-1.7,0.1c-0.6-0.1-1.2-0.3-1.7-0.6c-1-0.6-1.6-1.5-1.9-2.6
	c-0.1-0.6-0.2-1.2-0.1-1.7l0,0c0.1-0.6,0.3-1.1,0.5-1.6c0.3-0.5,0.6-0.9,1-1.3c0.4-0.3,0.9-0.6,1.4-0.8c0.6-0.2,1.2-0.2,1.7-0.1
	c0.6,0.1,1.2,0.3,1.6,0.6c0.5,0.3,0.9,0.7,1.2,1.1c0.3,0.5,0.5,1,0.7,1.5C64.8,41.7,64.8,42.3,64.7,42.9
	C64.7,42.9,64.7,42.9,64.7,42.9z M79.9,52.1l1.9-13.9l-3.1-0.4L78,43.2l-5.6-0.8l0.8-5.5l-3.1-0.4l-1.9,13.9l3.1,0.4l0.8-5.6
	l5.6,0.8l-0.8,5.6L79.9,52.1z M90.3,46l-1.5-0.7c-0.2,0.3-0.4,0.5-0.5,0.7s-0.4,0.2-0.7,0.2c-0.2,0-0.4-0.1-0.6-0.2
	c-0.2-0.1-0.4-0.2-0.7-0.4c-0.2-0.1-0.5-0.3-0.8-0.4c-0.3-0.1-0.6-0.2-0.9-0.2c-0.3,0-0.6,0-0.9,0.1c-0.3,0.1-0.5,0.2-0.8,0.5
	c-0.2,0.2-0.4,0.5-0.6,0.8c-0.2,0.3-0.4,0.7-0.5,1.1l1.5,0.7c0.2-0.3,0.4-0.5,0.5-0.7s0.4-0.2,0.7-0.2c0.2,0,0.4,0.1,0.6,0.2
	s0.4,0.2,0.7,0.4c0.2,0.1,0.5,0.3,0.8,0.4c0.3,0.1,0.6,0.2,0.9,0.2c0.7,0.1,1.2-0.1,1.7-0.5C89.6,47.4,89.9,46.8,90.3,46z
	 M102.8,55.3l1.9-13.9l-3-0.4l-1.2,8.6L95.2,40l-2.8-0.4l-2,13.9l3,0.4l1.2-8.8l5.5,9.8L102.8,55.3z M119.7,50.6L119.7,50.6
	c0.2-1,0.1-2-0.1-2.9c-0.2-0.9-0.7-1.7-1.2-2.5c-0.6-0.8-1.3-1.4-2.1-1.9c-0.8-0.5-1.8-0.8-2.9-1c-1.1-0.2-2.1-0.1-3.1,0.2
	c-0.9,0.2-1.8,0.7-2.6,1.2c-0.8,0.6-1.4,1.3-1.9,2.1c-0.5,0.8-0.8,1.8-0.9,2.7l0,0c-0.1,1-0.1,2,0.2,2.9c0.2,0.9,0.7,1.7,1.2,2.5
	c0.6,0.8,1.3,1.4,2.1,1.9c0.8,0.5,1.8,0.8,2.9,1c1.1,0.2,2.1,0.1,3.1-0.2c0.9-0.2,1.8-0.7,2.6-1.2c0.8-0.6,1.4-1.3,1.9-2.1
	C119.3,52.5,119.6,51.5,119.7,50.6z M116.5,50.2c-0.1,0.6-0.3,1.1-0.5,1.6c-0.3,0.5-0.6,0.9-1.1,1.3s-0.9,0.6-1.4,0.8
	c-0.6,0.2-1.2,0.2-1.7,0.1c-0.6-0.1-1.2-0.3-1.7-0.6c-0.9-0.6-1.6-1.5-1.9-2.6c-0.1-0.6-0.2-1.2-0.1-1.7l0,0
	c0.1-0.6,0.3-1.1,0.5-1.6c0.3-0.5,0.6-0.9,1.1-1.3c0.4-0.3,0.9-0.6,1.4-0.8c0.6-0.2,1.2-0.2,1.7-0.1c0.6,0.1,1.2,0.3,1.6,0.6
	c0.5,0.3,0.9,0.7,1.2,1.1s0.6,1,0.7,1.5C116.6,49,116.6,49.5,116.5,50.2L116.5,50.2L116.5,50.2z"/>
</svg>
