<?xml version="1.0" encoding="utf-8"?>
<!-- Generator: Adobe Illustrator 26.5.0, SVG Export Plug-In . SVG Version: 6.00 Build 0)  -->
<svg version="1.1" id="圖層_1" xmlns="http://www.w3.org/2000/svg" xmlns:xlink="http://www.w3.org/1999/xlink" x="0px" y="0px"
	 width="156px" height="218px" viewBox="0 0 156 218" style="enable-background:new 0 0 156 218;" xml:space="preserve">
<style type="text/css">
	.st0{fill-rule:evenodd;clip-rule:evenodd;fill:url(#SVGID_1_);}
	.st1{fill-rule:evenodd;clip-rule:evenodd;fill:#231815;}
	.st2{fill-rule:evenodd;clip-rule:evenodd;fill:url(#SVGID_00000023978468828493692820000003529162883141447084_);}
	.st3{fill-rule:evenodd;clip-rule:evenodd;fill:url(#SVGID_00000076591817773148008080000011868774598425546905_);}
	.st4{fill-rule:evenodd;clip-rule:evenodd;fill:url(#SVGID_00000183239805298182694780000007376189214689821848_);}
	.st5{fill-rule:evenodd;clip-rule:evenodd;fill:url(#SVGID_00000072257512651384526710000016139566424490842011_);}
	.st6{fill-rule:evenodd;clip-rule:evenodd;fill:url(#SVGID_00000004545549356669180450000011664986805097657767_);}
	.st7{fill-rule:evenodd;clip-rule:evenodd;fill:url(#SVGID_00000030481401785732909440000003106989205057456573_);}
	.st8{fill-rule:evenodd;clip-rule:evenodd;fill:#813924;}
	.st9{fill:#231815;}
	.st10{fill-rule:evenodd;clip-rule:evenodd;fill:#CCC3B4;}
	.st11{fill-rule:evenodd;clip-rule:evenodd;fill:#606060;}
	.st12{fill-rule:evenodd;clip-rule:evenodd;fill:#CF5531;}
	.st13{fill-rule:evenodd;clip-rule:evenodd;fill:#71859E;}
	.st14{fill-rule:evenodd;clip-rule:evenodd;fill:#F4EFEA;}
	.st15{fill-rule:evenodd;clip-rule:evenodd;fill:#1B1E23;}
	.st16{fill-rule:evenodd;clip-rule:evenodd;fill:#3D4251;}
	.st17{fill-rule:evenodd;clip-rule:evenodd;fill:#999184;}
	.st18{filter:url(#Adobe_OpacityMaskFilter);}
	.st19{fill-rule:evenodd;clip-rule:evenodd;fill:#FFFFFF;}
	
		.st20{mask:url(#feuobco1xi_00000095310960902334173980000006510280373204424360_);fill-rule:evenodd;clip-rule:evenodd;fill:#231815;}
	.st21{fill-rule:evenodd;clip-rule:evenodd;fill:#3A3D44;}
	.st22{fill-rule:evenodd;clip-rule:evenodd;fill:#435B65;}
	.st23{fill-rule:evenodd;clip-rule:evenodd;fill:#54717D;}
	.st24{fill-rule:evenodd;clip-rule:evenodd;fill:#C1C5C6;}
	.st25{fill-rule:evenodd;clip-rule:evenodd;fill:#C0C0C0;}
	.st26{fill-rule:evenodd;clip-rule:evenodd;}
	.st27{font-family:'ArialMT';}
	.st28{font-size:1.936px;}
</style>
<linearGradient id="SVGID_1_" gradientUnits="userSpaceOnUse" x1="-5.3577" y1="239.9429" x2="-5.6084" y2="240.3219" gradientTransform="matrix(99.469 0 0 -65.886 596.346 15945.542)">
	<stop  offset="0" style="stop-color:#AF9B80"/>
	<stop  offset="1" style="stop-color:#776249"/>
</linearGradient>
<path class="st0" d="M75.9,92.2l29,46.3l0.1,1.9c0,0-74.2,14.5-74.7,14.5c-0.6,0-6-0.5-6-0.5L8.7,112.5l-3.1-12L16.5,89L75.9,92.2
	L75.9,92.2z"/>
<path class="st1" d="M75.4,93.1l28.7,45.7l0,0.9C75,145.4,31.7,153.8,30.3,154c-0.4,0-3-0.2-5.3-0.4L9.5,112.3l-3-11.5l10.3-10.9
	C16.8,89.9,75.4,93.1,75.4,93.1z M105.8,138.3L76.4,91.4l-60.3-3.3L4.6,100.3l3.3,12.5L23.6,155l0.1,0.3l0.6,0
	c1.3,0.1,5.5,0.5,6,0.5c0.6,0,47.1-9.1,74.9-14.5l0.7-0.1L105.8,138.3L105.8,138.3z"/>
<linearGradient id="SVGID_00000155148687052805362480000015823626745700937856_" gradientUnits="userSpaceOnUse" x1="-5.4219" y1="240.6639" x2="-5.4219" y2="239.8047" gradientTransform="matrix(76.781 0 0 -26.465 460.217 6430.1309)">
	<stop  offset="0" style="stop-color:#AF9B80"/>
	<stop  offset="1" style="stop-color:#776249"/>
</linearGradient>
<path style="fill-rule:evenodd;clip-rule:evenodd;fill:url(#SVGID_00000155148687052805362480000015823626745700937856_);" d="
	M8.5,80.2l73.8-6.1l-5,18l-71.8,8.4L8.5,80.2z"/>
<path class="st1" d="M6.6,99.5L9.2,81L81.1,75l-4.5,16.3L6.6,99.5z M82.8,73.2L7.7,79.3l-3.2,22.2L78,92.9L83.2,74L82.8,73.2
	L82.8,73.2z"/>
<linearGradient id="SVGID_00000101103003871463024790000006202104510623767985_" gradientUnits="userSpaceOnUse" x1="-4.9335" y1="240.067" x2="-5.6772" y2="239.9737" gradientTransform="matrix(94.593 0 0 -43.851 597.828 10702.3066)">
	<stop  offset="0" style="stop-color:#8C795E"/>
	<stop  offset="1" style="stop-color:#54422D"/>
</linearGradient>
<path style="fill-rule:evenodd;clip-rule:evenodd;fill:url(#SVGID_00000101103003871463024790000006202104510623767985_);" d="
	M100.6,156.2l21.8,5.7l8.4,19.7l-72.8,18.5l-21.8-25l32.9-13.2L100.6,156.2z"/>
<linearGradient id="SVGID_00000039813140071538714040000005796024738883555774_" gradientUnits="userSpaceOnUse" x1="-5.5226" y1="240.2298" x2="-5.4379" y2="240.0173" gradientTransform="matrix(82.253 0 0 -43.143 510.893 10513.5186)">
	<stop  offset="0" style="stop-color:#AF9B80"/>
	<stop  offset="1" style="stop-color:#68543B"/>
</linearGradient>
<path style="fill-rule:evenodd;clip-rule:evenodd;fill:url(#SVGID_00000039813140071538714040000005796024738883555774_);" d="
	M23.4,153.6l82.3-15.5v24.4l-82.3,18.8V153.6z"/>
<path class="st1" d="M104.8,139.1v22.6l-80.5,18.4v-25.8L104.8,139.1z M105.7,137.2l-82.5,15.6l-0.2,0l-0.6,0.7v28.9l84-19.2v-25.6
	C106.5,137.5,105.7,137.2,105.7,137.2z"/>
<linearGradient id="SVGID_00000173150859475876240760000008060458081381893779_" gradientUnits="userSpaceOnUse" x1="-6.0981" y1="239.7765" x2="-5.5185" y2="240.0065" gradientTransform="matrix(46.632 0 0 -50.567 379.42 12302.7031)">
	<stop  offset="0" style="stop-color:#AF9B80"/>
	<stop  offset="1" style="stop-color:#654D31"/>
</linearGradient>
<path style="fill-rule:evenodd;clip-rule:evenodd;fill:url(#SVGID_00000173150859475876240760000008060458081381893779_);" d="
	M105.6,138.1l46.6,20.9v29.7l-46.6-26.1L105.6,138.1z"/>
<path class="st1" d="M106.5,162.1v-22.7l44.9,20.1v27.6L106.5,162.1L106.5,162.1z M104.8,136.7v26.3l47.2,26.4l0.2,0.1l1-0.3v-30.9
	C153.1,158.4,104.8,136.7,104.8,136.7z"/>
<linearGradient id="SVGID_00000170270129406391879410000018109239102608246434_" gradientUnits="userSpaceOnUse" x1="-5.0477" y1="240.7204" x2="-5.3103" y2="240.1363" gradientTransform="matrix(32.383 0 0 -64.456 264.1899 15585.9609)">
	<stop  offset="0" style="stop-color:#AF9B80"/>
	<stop  offset="1" style="stop-color:#776249"/>
</linearGradient>
<path style="fill-rule:evenodd;clip-rule:evenodd;fill:url(#SVGID_00000170270129406391879410000018109239102608246434_);" d="
	M82.3,74.1l-6.4,18.2l10.9,17.4c0.1-0.3,0.3-0.7,0.5-1c1.2-1.8,3-2,4.1-0.3c1.1,1.7,1,4.5-0.2,6.4c-0.2,0.3-0.4,0.5-0.6,0.8l14.4,23
	l3.4-14L82.3,74.1z"/>
<path class="st1" d="M91.6,115.6c0.1-0.1,0.2-0.3,0.3-0.4c1.4-2.1,1.5-5.4,0.2-7.3c-0.6-1-1.6-1.6-2.6-1.6c-1,0-2,0.6-2.7,1.6
	l-9.9-15.8l5.6-15.9l24.9,48.4l-2.8,11.7C104.5,136.3,91.6,115.6,91.6,115.6z M82.8,73.2l-1.1,0.1l-6.7,19.1l12,19.2l0.6-1.6
	c0.1-0.3,0.3-0.6,0.4-0.8c0.4-0.7,1-1.1,1.5-1.1c0.4,0,0.8,0.3,1.1,0.8c0.9,1.4,0.8,3.9-0.2,5.5c-0.1,0.2-0.3,0.4-0.5,0.6l-0.5,0.5
	l14.9,23.8l0.8-0.2l0.5,0.2l3.6-14.8L82.8,73.2L82.8,73.2z"/>
<linearGradient id="SVGID_00000081615047447899607630000016215281181802008491_" gradientUnits="userSpaceOnUse" x1="-5.2093" y1="239.7622" x2="-5.2779" y2="240.4971" gradientTransform="matrix(23.747 0 0 -74.284 140.507 17960.5996)">
	<stop  offset="0" style="stop-color:#495E65"/>
	<stop  offset="1" style="stop-color:#3A4E56"/>
</linearGradient>
<path style="fill-rule:evenodd;clip-rule:evenodd;fill:url(#SVGID_00000081615047447899607630000016215281181802008491_);" d="
	M8.5,80.2L4,100l6.8,18.1c0.1-0.2,0.1-0.3,0.2-0.5c1.3-3.5,3.2-4.5,4.2-2.1c1,2.4,0.7,7.2-0.6,10.7c-0.1,0.3-0.2,0.6-0.4,0.9
	l10.2,27.3l3.4-14.8L8.5,80.2z"/>
<path class="st1" d="M26.9,139.7l-2.7,11.8l-9-24.3c0.1-0.2,0.2-0.4,0.2-0.6c1.4-3.7,1.6-8.8,0.6-11.4c-0.7-1.6-1.7-1.9-2.2-1.8
	c-1,0-2,0.9-2.8,2.4L4.9,99.9l3.7-16.5L26.9,139.7L26.9,139.7z M9.2,79.4l-0.8-0.1l-0.7,0.2L3.1,100l7.7,20.6l0.8-2.4
	c0-0.1,0.1-0.2,0.1-0.3c0.9-2.3,1.7-2.9,2-2.9h0c0.1,0,0.4,0.2,0.6,0.8c0.9,2.2,0.6,6.7-0.6,10.1c-0.1,0.3-0.2,0.6-0.3,0.8l-0.1,0.3
	l11.3,30.3l4.1-17.8L9.2,79.4L9.2,79.4z"/>
<path class="st8" d="M63.3,149.1c-5.2,1.2-8.5,1.9-9.8,2.1c-1.9,0.2-4.9-0.5-5.7-2.7c-0.8-2.2-6.1-6-9.6-2.7
	c-2.4,2.2-1.6,4.1,2.3,5.7c8.5,4.4,12.8,6.4,13,6.2c0.2-0.2,3.8-2.3,10.9-6.4C64.5,151.3,63.3,149.1,63.3,149.1z"/>
<path class="st9" d="M44.2,144.7c1.8,0.8,3.4,2.2,3.9,3.5l0.1,0.1c0.6,1.7,3.1,2.7,5.3,2.4l0.2,0l0.5-0.1l0.7-0.1l0.9-0.2l1.1-0.2
	l1.8-0.4l1.8-0.4l2.4-0.6l0.7-0.2l1.4,2.8l-5.4,3.1l-3.6,2.1l-1.5,0.9l-0.5,0.3l-0.1,0.1l0,0l0,0l0,0l-0.1,0l-0.1,0l0,0l-0.1,0
	l-0.1,0l-0.2,0l-0.1,0l-0.2-0.1l-0.2-0.1l-0.2-0.1l-0.4-0.1l-0.4-0.2l-0.6-0.3l-0.7-0.3l-1.3-0.6l-1.8-0.9l-2.4-1.2l-4.5-2.3
	c-4.1-1.7-5-3.9-2.4-6.3C39.6,143.9,41.9,143.7,44.2,144.7L44.2,144.7z M38.4,146.1c-2.1,2-1.5,3.6,2.2,5.1l2.4,1.2l2.8,1.4l2.1,1.1
	l1.5,0.8l1.4,0.7l0.8,0.4l0.5,0.2l0.3,0.1l0.4,0.2l0.2,0.1l0.2,0.1l0,0l0.2-0.1L54,157l1-0.6l1.6-0.9l2.3-1.4l5-2.9l-0.8-1.7
	l-2.8,0.6l-1.8,0.4l-1.5,0.3l-1.1,0.2l-0.7,0.1l-0.6,0.1l-0.5,0.1l-0.4,0.1c-2.4,0.3-5.2-0.7-6-2.7l-0.1-0.2c-0.4-1-1.9-2.4-3.6-3.2
	C41.9,144.6,39.9,144.7,38.4,146.1z"/>
<path class="st10" d="M59.8,150.8l0.3-2.6l2-2.5l2-1.5l1.2-0.5l1.9,0.5l5,4.2l-2.4-0.9l-1.6,0.1l-2.3,0.5l-1.9,0.8l-1.4,0.7
	L59.8,150.8z"/>
<path class="st11" d="M65.3,143.7l1.9-1.3l1.1,0.4l3.5,3.1l7.3,6.7h-0.4l-5.3-4l-3.1-2.3l-2.8-2.2L65.3,143.7z"/>
<path class="st12" d="M36.1,146.1l1.7-1h3.6l1.6,0.8l2.1,2.6l3.1,3.9l1.4,1.1l2,0.3l3.3-0.6l5.6-2.6l2.3-1.2l2.2-1.5l2.5-0.7
	l2.3,0.2l3.2,1.3l2.5,1.4l-0.8,0.7l-1.2-0.6l-2.9-1.2l-1.2-0.7l-2.3,0.3l-2.4,1l-5,2.8l-5.3,2.1l-1.8,0.3l-1.9,0.2l-2.7-1.3
	l-2.2-2.3l-2-2.5l-1.4-1.9l-1.3-0.7h-1.8l-2.8,1.3L36.1,146.1z"/>
<path class="st13" d="M117.6,170.4l-2.8,5.3l-7.4,1.3l-1.5,0.9l-11.8-0.3l-13.7-1.1l-9-0.8l-14.9-3.9l-20.9-8l0.8-11.8l1.6-5.1
	l1.9-0.4l1.7,0.7l2.4,2.9l3,2.7l2.1,1.9l2.6,0.2l3.3-0.8l5.1-1.8l3-1.6l2.7-1.7l2.5-0.6l2.4,0.3l5.1,2.9l13.2,8.4l6,3.7l6,2.1
	l3.4,0.6l8.6,0.9l2.7,0.5L117.6,170.4z"/>
<path class="st11" d="M94.9,163.7l2.6,2.1l3.5,2.1l3.2,1.3l3.1,0.8h1.8l2.5-0.8l3-1.8l1.7,0l0.3,0.8l-2.4,1.5l-2.6,1.6l-6.3,1.8
	l-4.6,1.3l-0.7,0.3l0.1,0.6l2.8,2.5h-3.3l-3-2.9l-6.2-6.6l-3.4-5.4l-1.4-4l0.4-0.9l2.5,1.7L94.9,163.7z"/>
<path class="st13" d="M94.6,166.8l2.7,1.2l5,2.4l1.1,0.6v0.9l-4.2,0.7l-1.5-0.1l-1.1-1l-2.9-3.7l0.2-0.6L94.6,166.8z"/>
<path class="st14" d="M34.6,153.8l1.3-3.7l0.4-2.3l1.8-0.9l1.9-0.4l-0.3,0.7l-0.9,2.2l-0.2,1.6l0.4,1.4l3.8,3.8l4.3,2.7l18.5-1.6
	l3.6-0.3l0.9-0.5l-0.4-1l-1.5-1.2l-2.9,1.4l-1.5,0.5h-1.1l-1.2-0.7l0.7-1.5l3.5-2.5l1.9-1.1l1.6,0.6l1.4,0.9l1.7,0.7l1.1,1.3
	l-0.8,2.1l0.1,1l-2.1,2.2l-10.2,1l-7.7,0.4l-1.1,0.3v0.8l1.7,0.7l4.4-0.3l11.7-1.6l-2.7,2.6l-8.1,0.9l-0.8,0.2l0.6,0.7l8.1,3.3
	l8.3,2.5l6.4,1.1l1.9-0.3l-0.4-0.7l-4.8-4.3l1.9-2.3l1.2,1.1l7.3,7.1l5.7,4.6l-8.6-0.7l-9-1.2l-1.5-1.4l-5.2-1.9l-4.8-1.3l-5.7-0.5
	l-5.5-2.9l-8.1-5.2l-7.2-5.4L34.6,153.8z"/>
<path class="st15" d="M59.3,164.1l8.7-0.9h5.8l4.5,4.3l4.5,3.9l0.4,0.7l-1.9,0.3l-9.7-2l-7.3-2.4l-4.7-2.1l-1.7-1.2l0.8-0.2
	L59.3,164.1z"/>
<path class="st16" d="M72.2,157.2l4.4,1.8l-0.5,3.4l2.3-2.7l4.3,2.2l-7.5,7.8l-1.2,0l-2.6-1.4l0.1-3.5l-2,2.5l-4.1-2.1L72.2,157.2z"
	/>
<path class="st14" d="M117.1,168.4l0.9,0.6l0.7,2.2l-0.3,3.5l-4.1,1.1l-4.2,0.9l-4.5-2.3l-0.8-1l1-0.4l3.4-0.9l4.6-1.8l1.3-1.2
	L117.1,168.4z"/>
<path class="st10" d="M31.7,169.7l-0.5,2l0.5,2.6l-0.7,1.1l-0.3,1.6v1.4h1l4,0.9l3.6,0.9l1.2,0.1l1.2-0.2l1,0.6l2,0.7l4.2,0l2.2-0.3
	l0.8-0.2l2.8,0.6l2.7,0.2l3.7-0.4l2.6-0.3l3,0.1l3.2,1l15.7,0.5l10.2-0.2l7.5-0.8l8.2-2.4l2.8-0.9l2.6-1.9l0.8-1.3l-3.2,0.6
	l-5.7,1.4l-5.2,0.7l-17.4-0.5l-7.8-1.4l-8.6-1.9l-9.3-2l-10.9-0.9l-7.6-0.2l-5.9-0.7l-4.6-1L31.7,169.7z"/>
<path class="st17" d="M63.4,180.6l-2.6-2.1l-3-1.4l-2.1-0.6v-1.1l1.3,0.3l4.8,0.6l5,1.7l5,2.9l1.2,1.2l-3-0.1l-2-0.6l-1.7-0.5
	L63.4,180.6z"/>
<path class="st11" d="M31.5,174.9l1-0.7H35l2.1,0.7l2,1l3.2,2.5l0.8-1.1l1.6-0.8l2.1,0.4l2.1,0.9l2.1,1.2l0.7,0.6l0.6-0.6l0.7-1.1
	l2.2-0.1l3.4,0.7l3.6,1.8l-0.3,0.3l-8.5-0.5l-9.4-0.8l-6.4-1.4l-3.7-0.7l-2.9-1.2L31.5,174.9z"/>
<path class="st16" d="M76.4,175.7l2.9,1.9l4.2,1.2l10.3,0.6h6.1l3.6-0.3l3.9-1l0.6-0.8l-3.2,0.5l-5.7,0.2l-5-0.4l-6.6-0.5l-8.3-1.1
	L76.4,175.7z M34.6,153.8l2.2,2l5.9,4.7l4.4,3.2l4.9,3.1l6.6,3.7l3.6,1.5l-5.7-0.3l-8.7-0.8h-6.9l-8.3-1.3l-0.8-1v-6.8l0.6-4.1
	l1.2-2.5L34.6,153.8z"/>
<path class="st16" d="M71.1,182l5.8,0.3l12.3,0.2l6.8-0.2l6.8-0.5l5.9-1.7l5.9-1.9l2.6-1.9l1.2-2.4l0.4-1.9l0.7,0.9v1.3l-0.5,1.5
	l-2.1,2.4l-2.2,1.5l-1.1,0.2l-0.4-0.9l-1.3,0.4l-0.1,1.4l-0.9,0.6l-3.2,0.6l-1.4,0.1l-0.5-0.9l-1.4,0.4l-0.1,1l-0.5,0.3l-5.4,0.8
	l-0.9-0.2l-0.5-0.9l-1.6,0.1l-0.3,0.9l-0.7,0.5l-5-0.2l-1-0.1l-0.5-1h-1.5l-0.2,0.9l-0.5,0.4l-5.7-0.3l-0.8-0.7l0-0.6h-1.9l-0.2,0.8
	l-0.6,0.4l-5.9-0.8l-0.8,0l-0.4-0.8L71.1,182z M30.9,178.2l1.2,0.3l4.4,1.1l1.8,0.6l2.2,0.2l1-0.4l1.2,0.7l2,0.7l3.5,0.1l2.4-0.6
	l2,0.2l2.4,0.8l4.3-0.2l1.5-0.3l-1,1.1l-3.8,0.5l-2.7-0.3l-1.1-1.3l-1-0.3l-0.9,0.4l-0.7,0.9l-3.3,0.3l-2.9-0.4l-1.1-0.8l-0.4-1.1
	l-0.9,0.2l-1.3,1.2h-1.1l-5.1-1.7l-2.6-0.4l-0.5-0.7L30.9,178.2z"/>
<defs>
	<filter id="Adobe_OpacityMaskFilter" filterUnits="userSpaceOnUse" x="30.2" y="142.1" width="89.8" height="42.2">
		<feColorMatrix  type="matrix" values="1 0 0 0 0  0 1 0 0 0  0 0 1 0 0  0 0 0 1 0"/>
	</filter>
</defs>
<mask maskUnits="userSpaceOnUse" x="30.2" y="142.1" width="89.8" height="42.2" id="feuobco1xi_00000095310960902334173980000006510280373204424360_">
	<g class="st18">
		<path id="_x39_kr3g4qhqh_00000045598668115121907070000015043217115125898412_" class="st19" d="M30.2,142.1H120v42.2H30.2V142.1z
			"/>
	</g>
</mask>
<path class="st20" d="M119.2,174.9c-1,2.4-4.6,4.5-5.1,4.5c-0.1,0-0.2-0.1-0.2-0.1c-0.1-0.1-0.1-0.3-0.1-0.4c2-0.6,3.2-1.6,4-2.7
	c0.5-0.6,0.7-1.1,0.7-1.3c0.3-0.7,0.5-1.6,0.6-2.4C119.5,173.3,119.5,174.1,119.2,174.9z M113.3,178.4l-0.1,0l0,0
	c-0.7,0.2-1.4,0.5-2.1,0.6c-1.1,0.3-2,0.5-2.9,0.9c-4.7,1.5-9.9,3.2-34.7,1.9l0,0c0,0-1.1-1-3.2-2.2c-1.9-1.1-5.1-2.7-9.4-3.9
	c-0.1,0-2.2-0.6-3.9-0.7c-1.1,0-1.9,0.3-2,0.8c0,0.3,0.1,0.7,1.1,1c1.4,0.4,5.2,2.2,6.6,3.6c-0.8-0.5-2.7-1.6-4.9-2.3
	c-2.3-0.8-4.4-0.9-5.2-0.3c-0.3,0.2-0.4,0.5-0.4,0.6c0,0.4-0.5,0.5-0.6,0.5c-0.4,0-1.1-0.4-1.8-0.9c-1.2-0.8-2.7-1.7-4.3-1.7
	c-2.2,0-3,1.2-3.2,1.8c-0.4-0.2-0.9-0.6-1.5-1.1c-1.1-1-2.7-2.3-4.5-2.7c-2.3-0.5-3.5-0.3-4-0.2c-0.4-0.6-1.3-2.5-0.1-4.4
	c1.3,0.3,7.6,1.8,11.4,1.7c4-0.1,17.5,0.3,25.1,2.8c1.8,0.6,4.3,1.2,7.2,1.7c0.8,0.6,3.4,2.5,6.8,3c2.6,0.4,9.6,0.9,15.2,0.9
	c2.8,0,5.2-0.1,6.5-0.4c2.8-0.6,4.3-1.2,4.4-1.8c5.3-1.1,7.9-1.7,8.9-2C117.1,176.1,116,177.4,113.3,178.4z M111.6,180.6
	c-0.5,0.1-3.3,1-4.4,1c-0.3,0-0.5,0-0.6-0.2c-0.1-0.1-0.2-0.2-0.2-0.4c0.6-0.2,1.3-0.4,1.9-0.6c0.9-0.3,1.8-0.6,2.9-0.8
	c0.2,0,0.4-0.1,0.5-0.1C111.9,180.2,111.7,180.5,111.6,180.6L111.6,180.6z M103.9,182.5c-0.5,0.1-4.3,0.7-5.4,0.7
	c-0.3,0-0.5,0-0.6-0.2c-0.1-0.1-0.2-0.3-0.2-0.4c2.8-0.2,4.8-0.5,6.5-0.9C104.3,182.2,104,182.4,103.9,182.5L103.9,182.5z
	 M94.9,183.6c-0.5,0-4.3,0.1-5.5,0c-0.3,0-0.5-0.1-0.6-0.3c-0.1-0.1-0.1-0.3-0.1-0.4c2.5,0,4.7-0.1,6.5-0.1
	C95.3,183.4,95,183.6,94.9,183.6z M86,183.6c-0.5,0-4.3-0.1-5.5-0.3c-0.3,0-0.5-0.1-0.6-0.3c-0.1-0.1-0.1-0.2-0.1-0.3
	c2.4,0.1,4.6,0.1,6.5,0.2C86.3,183.4,86.1,183.6,86,183.6L86,183.6z M76.9,183.3c-0.6-0.1-4.9-0.5-6.1-0.7c-0.3,0-0.6-0.1-0.7-0.3
	l0,0c2.6,0.1,4.9,0.3,7.1,0.4C77.2,183.1,77,183.2,76.9,183.3z M69.6,181.6c-0.4-0.3-2.4-1.3-5.9-1.1c-1-1.7-6-4-7.4-4.4
	c-0.4-0.1-0.5-0.2-0.6-0.3c0.1-0.1,0.5-0.3,1.3-0.2c1.6,0.1,3.7,0.7,3.7,0.7c6.3,1.7,10.3,4.4,11.7,5.5
	C71.5,181.7,70.6,181.7,69.6,181.6z M42.7,178.6l0-0.2c0-0.1,0.3-1.6,2.7-1.6c1.5,0,2.9,0.9,4,1.6c0.9,0.6,1.6,1,2.2,1
	c0.4,0,1.2-0.2,1.2-1.1c0,0,0-0.1,0.1-0.1c0.6-0.4,2.4-0.4,4.6,0.4c1.5,0.5,2.8,1.2,3.8,1.7C57.7,180.1,49.8,179.6,42.7,178.6z
	 M61,181c-0.2,0-3.1,0.5-5.5,0.4c-1.5-0.1-2.4-0.4-3.1-0.6c-0.5-0.2-0.9-0.3-1.3-0.3c-0.4,0-0.6,0.1-0.9,0.2
	c-0.5,0.3-1.3,0.6-4.2,0.4c-2.8-0.2-3.1-0.7-3.3-1c-0.1-0.2-0.3-0.4-0.8-0.5c-0.6-0.1-0.9,0.1-1.1,0.2c-0.2,0.1-0.4,0.2-1.1,0.1
	c-0.5-0.1-1.3-0.3-2.2-0.5c-2-0.5-4.6-1.3-6.4-1.2c0-0.4-0.1-1,0-1.7c6.6,3,23.8,4.1,30.1,4.5L61,181L61,181z M56.2,182.7
	c-3-0.1-3.1-0.2-3.4-0.7c-0.1-0.2-0.3-0.4-0.5-0.6c0.7,0.2,1.6,0.5,3.1,0.6c1.6,0.1,3.5-0.1,4.6-0.2
	C59.3,182.2,58.1,182.7,56.2,182.7z M49.8,181.7c-0.2,0.4-0.4,0.8-3.3,0.7c-3.4-0.1-3.5-0.3-4-1.4c0,0,0,0,0-0.1
	c0.5,0.4,1.3,0.7,3.4,0.8c2.3,0.2,3.4,0,4-0.2C49.9,181.5,49.8,181.6,49.8,181.7z M38.6,181.4c-0.4-0.1-0.7-0.2-1.1-0.4
	c-1.4-0.5-3.2-1.1-5-1.3c-1.2-0.1-1.6-0.4-1.7-0.6c0-0.1-0.1-0.2,0-0.4c1.7,0,4.3,0.7,6.3,1.2c1,0.3,1.8,0.5,2.3,0.6
	c0.5,0.1,0.8,0.1,1,0C40.4,180.8,39.8,181.7,38.6,181.4z M32.2,174.7L32.2,174.7c0.1,0,1.2-0.4,3.9,0.1c1.7,0.4,3.1,1.6,4.2,2.5
	c0.5,0.5,1,0.8,1.4,1.1c-4.3-0.7-8.2-1.5-10.6-2.6C31.3,175.4,31.7,174.9,32.2,174.7z M33.5,156.1c0.3-0.6,0.6-1.1,0.9-1.7
	c2.2,1.9,15.1,12.6,26.3,17.3c-2.1-0.3-4.2-0.5-5.9-0.7c-5.2-0.4-9.6-0.5-11.3-0.4c-3.6,0.1-9.9-1.4-11.2-1.7
	C32.1,167.5,31.6,159.4,33.5,156.1z M74.9,174.9c-2.4-0.5-4.6-1-6.1-1.5c-1.5-0.5-3.1-0.9-4.9-1.2c-1.2-0.4-2.3-0.8-3.4-1.3
	C67.5,171.3,72.6,173.6,74.9,174.9L74.9,174.9z M37,147.9c0.2-0.2,0.9-0.6,1.8-0.9c0.3-0.1,0.5-0.1,0.8-0.2
	c-0.3,0.3-0.5,0.7-0.7,1.1c-0.7,1.3-0.9,2.6-0.5,3.8c0.9,2.7,7.9,7.1,8.2,7.3l0.1,0.1l22-1.9c0.2,0,1.1,0.1,1.5-0.3
	c0.2-0.2,0.3-0.5,0.2-1c-0.3-1.3-1.9-2.2-2-2.3l-0.2-0.1l-4,2.3c-0.3,0.1-1.8,0.3-2-0.5c-0.2-0.8,0.9-1.7,1.4-2l3-1.9
	c0,0,1.4-0.9,2.2-0.4c0.3,0.2,0.6,0.4,0.9,0.7c0.6,0.5,1.2,0.9,1.9,1c0.5,0,1,0.3,1.2,0.7c0.2,0.4,0.2,0.9,0,1.4
	c-0.5,1.3-0.6,2.1-0.6,2.4l-1.8,2l-18,1.5l-0.1,0c-0.2,0.1-1,0.3-1,0.8c0,0.3,0.2,0.6,0.6,0.8l0.3,0.1c0.7,0.4,1.1,0.5,1.7,0.5
	c0.2,0,0.5,0,0.8-0.1l14-1.7l-1.7,1.8l-7.5,1.1c-0.3,0-1.1,0.1-1.3,0.5c-0.1,0.1-0.1,0.4,0.1,0.7c0.4,0.5,4.5,2.3,8.7,3.7
	c4.2,1.4,10.3,3.2,15.7,3.6c0.1,0,0.2,0,0.3,0c0.3,0,0.6-0.1,0.8-0.3c0.1-0.1,0.1-0.4-0.1-0.7c-0.5-0.6-4-3.8-4.9-4.7l1.6-1.7
	c1.5,1.5,9.2,9.1,13.4,12c-5.6-0.4-11.7-1.1-16.8-2.1c-0.3-0.2-1.9-1.3-4.7-2.5c-2.8-1.1-7.3-2.5-12.9-2.5
	c-10.9-5.1-22.7-15.1-24.3-16.5C35.5,151.9,36.3,149.9,37,147.9L37,147.9z M36.5,146.8c0-0.4,0.5-0.7,0.7-0.8
	c0.2-0.1,2.1-0.8,3.5-0.8c1.4,0,2.9,1.8,3,2c0.2,0.3,2.7,3.9,4.6,5.9c0.7,0.8,1.8,1,2.9,1c2,0,4.1-0.9,4.3-0.9l6.8-3.1l0,0l0,0
	c0,0,3.6-2.8,6.8-2.3c3.2,0.5,5.7,2.9,5.8,2.9l0.4-0.5c-0.1-0.1-0.8-0.8-2.1-1.6c-0.4-0.4-4.1-3.5-5.4-4.4c-0.6-0.4-1.3-0.6-1.9-0.6
	c0.3-0.2,0.5-0.3,0.7-0.5c0.2-0.2,0.5-0.3,0.7-0.3c0.4,0,0.9,0.3,1.3,0.8c0.5,0.6,7.2,6.7,11,10.2c-4.4-2.7-8.7-5.2-10.2-5.5
	c-3.3-0.6-6.6,2-6.9,2.3c-0.6,0.3-8.5,4.4-11.8,4.3c-2.4-0.1-4.5-2.8-6.4-5.1c-0.7-0.9-1.3-1.7-2-2.4c-1-1.1-2.4-1.4-4-0.9
	c-0.7,0.2-1.3,0.5-1.9,0.9C36.5,147.1,36.5,146.9,36.5,146.8z M62.1,146.2c1.1-1,2-1.6,2.7-2c0.3,0,1.6-0.2,2.7,0.5
	c0.7,0.5,2.3,1.8,3.5,2.8c-0.6-0.2-1.2-0.4-1.8-0.5c-3.4-0.5-6.9,2.1-7.3,2.4l-1.9,0.9C60.1,149.6,60.3,147.8,62.1,146.2z
	 M69.2,160.5l-14.7,1.8c-1,0.1-1.1,0.1-2-0.4l-0.3-0.1c-0.1,0-0.2-0.1-0.3-0.2c0.1-0.1,0.3-0.2,0.5-0.3l17.3-1.5L69.2,160.5
	L69.2,160.5z M75.2,169.7l-3.5-1.5l0.1-4.4l-2.6,3.1l-3.5-1.7l6.8-7.5l3.4,1.6l-0.1,4.1l2.7-3l3.5,1.6L75.2,169.7L75.2,169.7z
	 M75.3,170.5l2.7-3c1.4,1.3,4.5,4.1,4.8,4.6c0,0,0,0,0,0c-0.1,0-0.2,0-0.3,0l0,0c-9.9-0.7-23.3-6.5-23.9-7.1c0,0,0,0,0-0.1
	c0.1-0.1,0.5-0.1,0.7-0.1h0l6.8-1l-1.5,1.6l4.7,2.3l1.8-2.1l-0.1,3C71,168.7,75.3,170.5,75.3,170.5z M85.2,157.9
	c-0.2,1.2-0.1,6.8,13.3,19.6c-1.3,0-2.6-0.1-3.8-0.1c-3.7-2.2-12.7-11.1-14.2-12.6l2.6-2.9l-4.8-2.2l-1.8,2l0.1-2.8l-3.8-1.8
	c0-0.3,0.1-1,0.6-2.1c0.4-0.9,0.2-1.6,0-2c-0.3-0.6-1-1-1.7-1c-0.6,0-1-0.4-1.6-0.8c-0.3-0.2-0.6-0.5-1-0.7
	c-1.2-0.7-2.8,0.3-2.9,0.4l-3,1.8c-0.1,0.1-2.1,1.3-1.7,2.7c0.5,1.5,2.8,1,2.8,1l0,0l3.8-2.2c0.4,0.3,1.3,1,1.5,1.8
	c0.1,0.2,0,0.3,0,0.4c-0.2,0.2-0.7,0.2-1,0.1l0,0l-21.8,1.8c-0.8-0.5-7-4.6-7.9-6.9c-0.7-2.1,1-4.2,1.4-4.6c0.7,0.1,1.3,0.4,1.8,0.9
	c0.6,0.6,1.2,1.4,1.9,2.3c2,2.5,4.2,5.3,6.9,5.4l0.1,0c3.6,0,11.6-4.2,12-4.4l0.1,0c0,0,3.3-2.8,6.4-2.2
	C71.5,149.3,79.5,154.2,85.2,157.9L85.2,157.9z M85.8,158.3c1.9,1.2,3.8,2.5,5.7,3.7c0,0,0.8,0.5,2,1.1c0.3,0.3,4.6,4.2,9.9,6.1
	c2.5,0.9,4.1,1.2,5.2,1.2c1.2,0,1.7-0.3,1.9-0.4l4.8-2.2c0.5,0.1,0.8,0.2,1.1,0.4c-0.6,0.2-1.2,0.6-1.9,1.1
	c-1.2,0.8-2.7,1.8-5.2,2.5c-0.8,0.2-1.5,0.4-2,0.6c-1.1,0.3-1.7,0.5-2.1,0.7c-1.2,0.4-4.2,1.2-4.8,1.3c-0.4,0-0.6,0.2-0.7,0.4
	c-0.1,0.3,0.1,0.7,0.5,1.1c0.3,0.3,1.2,1.1,1.9,1.6c-0.8,0-1.6,0-2.5,0C86.7,165.5,85.8,159.8,85.8,158.3L85.8,158.3z M104.3,167
	c2.4,0.3,4.7,0.4,6.7,0.5c1.1,0,2.2,0.1,3.1,0.2l-3.9,1.8l0,0l0,0c0,0-1.4,1.1-6.5-0.8c-3.1-1.1-5.8-2.9-7.5-4.3
	C98.4,165.5,101.3,166.6,104.3,167z M107.3,177.7c-0.5,0.2-1.5,0.6-3.2,0.9c-4.1,0.9-17.7,0.1-21.5-0.5c-2.3-0.3-4.2-1.4-5.4-2.1
	c3.4,0.6,6.9,1.1,10.4,1.4C96.2,178.4,103.4,178.4,107.3,177.7L107.3,177.7z M107.4,177c-1.2,0.3-2.7,0.4-4.5,0.5
	c-0.4-0.3-1.9-1.7-2.3-2.1c-0.2-0.2-0.3-0.4-0.3-0.4c0.1,0,0.1,0,0.2,0c0.6-0.1,3.2-0.8,4.4-1.2c0.1,0.3,0.5,0.5,0.9,0.8
	c1.2,0.7,2.7,1.5,3.7,1.9C108.8,176.7,108.1,176.9,107.4,177z M116.9,168.7c0.2,0,0.4,0,0.5,0.1c0.5,0.4,0.7,1.2,0.9,2l0.1,0.9
	c0,0.1,0.2,1.4-0.4,2.9c-0.4,0.1-2.3,0.6-7.5,1.8c-0.5-0.2-2.9-1.2-4.4-2.2c-0.4-0.3-0.6-0.4-0.7-0.5c0.2-0.2,1.1-0.4,2-0.6
	c0.6-0.2,1.2-0.3,2-0.6c2.5-0.7,4.1-1.8,5.3-2.6C115.6,169.3,116.2,168.8,116.9,168.7z M119,171.6c-0.1-0.5-0.3-2.5-1.2-3.2
	c-0.2-0.2-0.5-0.3-0.8-0.3c-0.7-1-2.8-1.1-6-1.2c-2-0.1-4.2-0.2-6.6-0.5c-6.1-0.8-12.5-4.8-12.5-4.9c-2.9-2-5.9-3.9-8.9-5.8
	c-4.5-4.1-13.1-11.9-13.6-12.5c-0.5-0.6-1.2-1-1.8-1.1c-0.5,0-0.9,0.1-1.2,0.4c-0.3,0.2-0.6,0.4-1.1,0.7c-0.8,0.4-2,1-3.6,2.5
	c-2.3,2-2.2,4.3-2.2,4.9l-4.2,2c0,0-4.7,1.9-6.5,0.1c-1.9-2-4.5-5.8-4.5-5.8l0,0c-0.1-0.1-1.8-2.1-3.5-2.2c-1.7-0.1-3.7,0.8-3.8,0.8
	l0,0c-0.1,0-1,0.5-1.1,1.3c0,0.4,0.1,0.8,0.5,1.1c-0.3,0.9-1.6,4.7-3.4,7.9c-2,3.6-1.4,12.3-1.3,13.4c-1.4,2.2-0.4,4.3,0,5.1
	c-1.6,1-1.4,3.6-1.3,4.2c-0.1,0.2-0.2,0.7,0,1.1c0.3,0.5,1,0.8,2.2,0.9c1.6,0.2,3.4,0.8,4.8,1.2c0.4,0.1,0.8,0.3,1.1,0.4
	c1.4,0.4,2.3-0.5,2.6-1.1c0.1-0.1,0.3-0.2,0.4-0.2c0.1,0,0.3,0.2,0.4,0.5c0.7,1.6,1.2,1.7,4.6,1.8c3.1,0.1,3.6-0.4,3.9-1.1
	c0-0.1,0.1-0.1,0.1-0.2c0.2-0.4,0.7-0.4,0.7-0.4l0.1,0c0.1,0,0.3,0.2,0.6,0.6c0.1,0.1,0.2,0.3,0.3,0.4c0.4,0.7,0.7,0.9,3.9,1
	c0.1,0,0.2,0,0.3,0c3,0,4.4-1.4,4.8-1.8c5.2-1.2,8.1,0.6,8.1,0.7l0,0c0,0.1,0.1,0.3,0.2,0.4c0.2,0.3,0.6,0.5,1.1,0.6
	c1.2,0.1,6.1,0.7,6.2,0.7l0.1,0l0.1,0c0.3-0.1,0.8-0.4,0.9-1.2c0.4,0,0.9,0,1.3,0c0,0.2,0.1,0.5,0.2,0.7c0.2,0.3,0.6,0.5,1,0.6
	c1.2,0.1,5.4,0.3,5.6,0.3h0l0,0c0.3-0.1,0.9-0.5,0.9-1.3c0.4,0,0.7,0,1,0c0,0.2,0.1,0.5,0.3,0.8c0.2,0.3,0.6,0.5,1.1,0.5
	c0.5,0,1.5,0,2.5,0c1.5,0,3,0,3.1,0h0l0,0c0.3-0.1,0.9-0.5,0.8-1.5c0.4,0,0.8,0,1.2-0.1c0,0.2,0.1,0.6,0.4,0.8
	c0.2,0.2,0.6,0.4,1,0.4c0,0,0.1,0,0.1,0c1.2-0.1,5.3-0.7,5.5-0.8l0,0l0,0c0.3-0.1,0.8-0.6,0.6-1.5c0.3-0.1,0.7-0.2,1-0.2
	c0.1,0.2,0.2,0.4,0.4,0.6c0.2,0.2,0.6,0.4,1,0.4c0,0,0.1,0,0.1,0c1.3-0.1,4.5-1.1,4.6-1.1l0.1,0l0,0c0,0,0.7-0.6,0.4-1.8
	c0.3-0.1,0.5-0.2,0.7-0.2c0,0.2,0.1,0.4,0.2,0.6c0.2,0.2,0.4,0.4,0.7,0.4c0.8,0,4.4-2.2,5.6-4.6C120.3,174,120.1,172.7,119,171.6z"
	/>
<path class="st1" d="M97.3,171.9L97.3,171.9l-3.3-4c-0.2-0.4-0.2-0.6-0.1-0.7c0.1-0.1,0.3-0.1,0.5-0.1c0.6,0.3,6.6,3.1,8.2,3.8
	c0.5,0.2,0.7,0.4,0.7,0.5c0,0.1-0.1,0.2-0.2,0.3c-0.4,0.1-2.7,0.6-4.1,0.7C97.6,172.5,97.4,171.9,97.3,171.9 M98.9,173
	c1.6-0.1,4.2-0.7,4.3-0.7l0,0l0,0c0.1,0,0.6-0.3,0.6-0.9c0-0.4-0.4-0.8-1.1-1.1c-1.6-0.7-8.1-3.8-8.2-3.8l0,0l-0.1,0
	c-0.1,0-0.8-0.1-1.2,0.4c-0.2,0.3-0.2,0.8,0.1,1.4l0,0l3.3,3.9c0.1,0.2,0.5,0.8,1.8,0.8C98.7,173,98.8,173,98.9,173"/>
<path class="st12" d="M82.9,154.5c0,0-0.4,2,0.7,2.7c1.2,0.7,3,0.3,3,0.3s1.3-0.1,1.4,0.6c0.1,0.7-0.1,1.4-1.6,1.3
	c-1.5-0.1-3-0.2-4-0.6c-1-0.4-1.4-3.3-1.2-3.6C81.3,155,82.3,153.9,82.9,154.5"/>
<path class="st1" d="M81.4,155.4c0,0.2,0,0.9,0.2,1.6c0.2,0.8,0.5,1.4,0.9,1.5c1,0.4,2.4,0.5,3.9,0.6c0.6,0,1-0.1,1.2-0.2
	c0.1-0.1,0.2-0.4,0.1-0.7c0-0.4-0.8-0.4-1-0.4c-0.3,0.1-2.1,0.4-3.3-0.4c-1.1-0.7-1-2.3-0.9-2.8c0,0-0.1,0-0.1,0
	C82,154.7,81.5,155.2,81.4,155.4 M86.7,159.8c-0.1,0-0.2,0-0.3,0c-1.6-0.1-3.1-0.2-4.1-0.6c-0.4-0.2-0.7-0.6-1-1.2
	c-0.4-0.9-0.6-2.4-0.4-2.8c0.2-0.3,0.8-1,1.5-1.1c0.3-0.1,0.6,0,0.8,0.3l0.1,0.1l0,0.2c0,0-0.4,1.8,0.6,2.4c1,0.7,2.8,0.3,2.8,0.3
	l0,0c0.6,0,1.6,0.1,1.7,0.9c0.1,0.5,0,0.9-0.3,1.2C87.8,159.7,87.3,159.8,86.7,159.8"/>
<path class="st21" d="M80.5,158.9l2.9,1.4l2.3-3l-2.4-1.4L80.5,158.9z"/>
<path class="st1" d="M81,158.8l2.3,1.1l1.9-2.5l-1.9-1.1L81,158.8z M83.5,160.7l-3.5-1.7l3.3-3.5l2.9,1.8
	C86.2,157.2,83.5,160.7,83.5,160.7z"/>
<path class="st12" d="M77.8,150.6c0,0-0.6,2.8,0.2,3.4c0.8,0.6,3.2-0.2,3.2-0.2s0.6-0.7,1.3-0.4c0.7,0.3,0.7,1-0.1,1.6
	c-0.7,0.6-2,1.4-5,0.9c0,0-1.7-2.5-1.7-4.3C75.8,149.9,77.8,150.6,77.8,150.6"/>
<path class="st1" d="M77.6,155.7c2.7,0.4,3.9-0.2,4.6-0.8c0.3-0.3,0.5-0.5,0.4-0.7c0-0.2-0.2-0.3-0.3-0.3c-0.4-0.2-0.9,0.3-0.9,0.3
	l-0.1,0.1l-0.1,0c-2.5,0.8-3.4,0.2-3.5,0.1c-0.4-0.3-0.6-1-0.5-2.2c0-0.5,0.1-1,0.1-1.2c-0.3-0.1-0.7-0.1-1,0.1
	c-0.2,0.1-0.3,0.4-0.3,0.8C76,153.1,77.3,155.2,77.6,155.7 M79.2,156.5c-0.5,0-1.1-0.1-1.8-0.2l-0.1,0l-0.1-0.1
	c-0.1-0.1-1.8-2.6-1.7-4.5c0-0.6,0.2-1,0.6-1.3c0.7-0.5,1.8-0.1,1.8-0.1l0.3,0.1l-0.1,0.3c-0.2,1.1-0.3,2.8,0.1,3.1
	c0.4,0.3,1.9,0.1,2.9-0.2c0.2-0.2,0.9-0.7,1.6-0.4c0.4,0.2,0.6,0.5,0.7,0.8c0.1,0.4-0.2,0.9-0.7,1.3C82,155.9,81.1,156.5,79.2,156.5
	"/>
<path class="st12" d="M71.3,153.6l5.3-4.3c0,0,0.5-0.4,1.1,0c0.6,0.4,0.7,1-0.8,2.1c-1.5,1.1-4.7,3.1-4.7,3.1s-0.6,0.1-0.9-0.1
	C70.9,154.1,71.3,153.6,71.3,153.6"/>
<path class="st1" d="M71.5,153.8c-0.1,0.1-0.1,0.3-0.1,0.3c0.2,0.1,0.5,0.1,0.6,0.1c0.4-0.2,3.2-2,4.6-3c1-0.7,1.1-1.1,1.1-1.2
	c0-0.1,0-0.2-0.3-0.4c-0.4-0.3-0.7,0-0.7,0C76.8,149.5,71.5,153.8,71.5,153.8z M71.8,154.8c-0.2,0-0.5,0-0.8-0.2
	c-0.4-0.3-0.3-0.8-0.1-1.2l0,0l5.3-4.3c0.5-0.3,1.1-0.3,1.5,0c0.4,0.3,0.5,0.6,0.5,0.9c0,0.5-0.4,1.1-1.4,1.8
	c-1.5,1.1-4.7,3.1-4.7,3.1l0,0l-0.1,0C72.1,154.8,72,154.8,71.8,154.8L71.8,154.8z"/>
<path class="st21" d="M74.5,156.1l2.9,1.4l3-3.7l-2.4-1.4L74.5,156.1z"/>
<path class="st1" d="M75,156l2.3,1.1l2.6-3.2l-1.8-1.1L75,156L75,156z M77.5,157.9l-3.5-1.7l4-4.2l2.9,1.8
	C80.9,153.7,77.5,157.9,77.5,157.9z"/>
<path class="st12" d="M88,160.9c0,0,0.8-0.3,1.2-0.6c0.4-0.3,1-0.8,1.6-0.5c0.6,0.2,1,1.3-0.4,1.8c-1.4,0.6-2.4,0.3-2.4,0.3
	s-0.3,0-0.3-0.5S88,160.9,88,160.9"/>
<path class="st1" d="M88,161.6L88,161.6c0,0,0.9,0.2,2.2-0.3c0.5-0.2,0.8-0.5,0.8-0.8c0-0.2-0.1-0.4-0.3-0.5
	c-0.4-0.2-0.9,0.1-1.3,0.5c-0.4,0.4-1.2,0.7-1.3,0.7l-0.1,0l0,0c0,0,0,0.1,0,0.2C88,161.5,88,161.5,88,161.6 M88.6,162.3
	c-0.3,0-0.6,0-0.7-0.1c-0.2,0-0.5-0.2-0.6-0.8c0-0.5,0.3-0.8,0.6-0.8c0.2-0.1,0.8-0.3,1-0.5c0.2-0.2,1.1-0.9,1.9-0.6
	c0.4,0.2,0.7,0.6,0.7,1.1c0,0.3-0.1,0.9-1.2,1.4C89.9,162.1,89.2,162.3,88.6,162.3"/>
<path class="st12" d="M91.6,162.8c0,0,1.4-1.3,2.3-1.1c0.8,0.2,1.1,1.5-0.1,1.9C92.7,164,90.4,164,91.6,162.8"/>
<path class="st1" d="M91.9,163.1c-0.2,0.2-0.2,0.3-0.2,0.3c0.1,0.2,1.2,0.3,2.1-0.1c0.5-0.2,0.6-0.6,0.6-0.7c0-0.3-0.2-0.5-0.5-0.6
	C93.4,161.9,92.4,162.6,91.9,163.1 M92.4,164.2c-0.6,0-1.1-0.1-1.4-0.5c-0.1-0.2-0.2-0.6,0.3-1.1l0,0c1.5-1.4,2.4-1.2,2.6-1.2
	c0.5,0.1,0.9,0.6,0.9,1.2c0,0.5-0.2,1.1-1,1.4C93.6,164.1,93,164.2,92.4,164.2 M68.5,152.4c0,0.5-0.4,0.8-0.8,0.8c0,0,0,0,0,0
	c-0.5,0-0.8-0.4-0.8-0.8c0,0,0,0,0,0c0-0.5,0.4-0.8,0.8-0.8C68.2,151.5,68.5,151.9,68.5,152.4 M65.8,153.9c0,0.5-0.4,0.8-0.8,0.8
	c0,0,0,0,0,0c-0.5,0-0.8-0.4-0.8-0.8v0c0-0.5,0.4-0.8,0.8-0.8C65.4,153,65.8,153.4,65.8,153.9"/>
<path class="st19" d="M71.9,168.2l3.3,1.4l6.7-7.4l-3.2-1.5l-2.9,3.2l0.1-4.4l-3.2-1.5l-6.6,7.3l3.2,1.6l2.8-3.4
	C72,163.4,71.9,168.2,71.9,168.2z M75.2,169.9l-3.7-1.6l0.1-4l-2.4,2.9l-3.8-1.9l7.1-7.8l3.6,1.7L76,163l2.5-2.7l3.8,1.7
	C82.3,162,75.2,169.9,75.2,169.9z"/>
<path class="st1" d="M48,160.7l-1.6,1.2c-0.2,0.1,0,0.5,0.2,0.3l1.6-1.2C48.4,160.9,48.2,160.6,48,160.7 M48.4,162l0.5-0.4l1,0.6
	l-0.4,0.3c0,0-0.1,0-0.1,0.1L48.4,162 M50.3,162.1l-1.3-0.9c-0.1-0.1-0.2,0-0.2,0l-0.8,0.6c-0.1,0.1-0.1,0.2,0,0.3l1,0.7
	c-0.1,0.1-0.3,0.2-0.4,0.3c0,0,0,0.1,0.1,0.1c0,0-0.1,0-0.1-0.1l0,0c0,0,0,0,0,0c0,0.1-0.1-0.1,0-0.1c-0.1-0.1-0.2-0.1-0.3-0.2
	l-0.8-0.5c-0.2-0.1-0.4,0.2-0.2,0.3l1.3,0.9c0.1,0,0.1,0,0.2,0l1.6-1.1C50.4,162.3,50.4,162.2,50.3,162.1"/>
<path class="st1" d="M48.6,163.2L48.6,163.2C48.6,163.1,48.5,163.1,48.6,163.2C48.5,163.1,48.6,163.1,48.6,163.2 M53.1,165.2
	l-0.3,0.2c-0.1,0-0.1,0.1-0.2,0.1l0,0c-0.3-0.2-0.6-0.4-1-0.5l0.4-0.3c0,0,0.1-0.1,0.1-0.1L53.1,165.2 M52.7,165.6
	C52.7,165.6,52.8,165.7,52.7,165.6 M54.4,164.5l-1.4-0.7c-0.1,0-0.1,0-0.2,0l-1.6,1.1c-0.1,0.1-0.1,0.3,0,0.3l1.4,0.8
	c0.1,0,0.1,0,0.2,0l0.8-0.6c0.1-0.1,0.1-0.3,0-0.3l-1-0.6c0.2-0.1,0.3-0.2,0.4-0.3c0.1,0.1,0.4,0.2,0.5,0.2l0.8,0.4
	C54.4,164.9,54.6,164.6,54.4,164.5 M50.6,164.4C50.6,164.4,50.6,164.4,50.6,164.4c-0.1-0.1-0.3-0.2-0.5-0.3l-0.5-0.3l0.4-0.3
	c0.2-0.1,0.7-0.4,0.9-0.6c0,0,0,0,0,0c0.1,0.1,0.3,0.2,0.5,0.3l0.6,0.3c-0.1,0.1-0.3,0.2-0.4,0.3C51.3,164,50.7,164.2,50.6,164.4
	 M52.3,163.3l-1.4-0.9c-0.1,0-0.1,0-0.2,0l-1.5,1.2c0,0,0,0,0,0c0,0-0.1,0.1-0.1,0.1c0,0.1,0,0.1,0.1,0.2c0,0,0,0,0,0l1.4,0.9
	c0.1,0,0.1,0,0.2,0l1.6-1.1C52.4,163.6,52.4,163.4,52.3,163.3"/>
<path class="st8" d="M110.6,153.7c5.6,1.3,9,2,10.4,2.2c2.1,0.3,5.3-0.5,6.1-2.8c0.8-2.3,6.5-6.4,10.2-2.8c2.5,2.4,1.7,4.4-2.4,6.1
	c-9,4.7-13.6,6.9-13.8,6.7c-0.2-0.2-4.1-2.5-11.7-6.9L110.6,153.7L110.6,153.7z"/>
<path class="st9" d="M130.9,149c-1.9,0.8-3.6,2.4-4.2,3.7l-0.1,0.2c-0.6,1.8-3.3,2.9-5.6,2.6l-0.2,0l-0.5-0.1l-0.8-0.1l-1-0.2
	l-1.1-0.2l-1.9-0.4l-1.9-0.4l-2.6-0.6l-0.7-0.2l-1.5,3l5.8,3.3l3.8,2.2l1.6,1l0.5,0.3l0.1,0.1l0,0l0,0l0,0l0.1,0l0.1,0l0,0l0.1,0
	l0.1,0l0.2,0l0.1,0l0.2-0.1l0.2-0.1l0.3-0.1l0.4-0.2l0.4-0.2l0.6-0.3l0.7-0.3l1.4-0.7l1.9-0.9l2.6-1.3l4.8-2.5
	c4.3-1.8,5.3-4.1,2.5-6.7C135.7,148.2,133.3,148,130.9,149z M137,150.5c2.3,2.1,1.6,3.8-2.3,5.4l-2.6,1.3l-3,1.5l-2.3,1.1l-1.6,0.8
	l-1.5,0.7l-0.9,0.4l-0.5,0.2l-0.3,0.1l-0.4,0.2l-0.2,0.1l-0.2,0.1l0,0l-0.2-0.1l-0.5-0.3l-1.1-0.7l-1.7-1l-2.5-1.5l-5.3-3.1l0.9-1.8
	l3,0.7l1.9,0.4l1.6,0.4l1.2,0.2l0.8,0.2l0.7,0.1l0.6,0.1l0.5,0.1c2.6,0.3,5.6-0.8,6.4-2.9l0.1-0.2c0.4-1.1,2-2.6,3.8-3.4
	C133.4,148.9,135.4,149,137,150.5z"/>
<path class="st10" d="M114.6,155.7l-0.3-2.8l-2.2-2.8l-2.2-1.7l-1.3-0.5l-2.1,0.5l-5.5,4.6l2.7-1l1.8,0.1l2.5,0.5l2.1,0.9l1.6,0.8
	L114.6,155.7z"/>
<path class="st11" d="M108.7,147.9l-2.1-1.4l-1.2,0.4l-3.8,3.4l-8,7.4h0.5l5.8-4.4l3.4-2.5l3-2.4L108.7,147.9z"/>
<path class="st12" d="M140.6,150.6l-1.8-1.1h-4l-1.8,0.9l-2.3,2.8l-3.4,4.2l-1.5,1.3l-2.2,0.3l-3.6-0.6l-6.1-2.9l-2.5-1.3l-2.4-1.6
	l-2.8-0.8l-2.5,0.2l-3.4,1.5l-2.7,1.5l0.9,0.8l1.3-0.6l3.2-1.3l1.3-0.7l2.5,0.4l2.6,1.1l5.5,3l5.8,2.3l2,0.3l2.1,0.2l2.9-1.4
	l2.4-2.6l2.2-2.7l1.6-2l1.4-0.7h2l3.1,1.4L140.6,150.6z"/>
<path class="st13" d="M51.5,177.1l3.1,5.8l8.1,1.5l1.6,1l12.9-0.4l15-1.2l9.8-0.9l16.3-4.3l22.9-8.7l-0.8-12.9l-1.8-5.6l-2.1-0.4
	l-1.9,0.7l-2.6,3.2l-3.3,2.9l-2.3,2.1l-2.8,0.2l-3.7-0.9l-5.6-1.9l-3.3-1.8l-2.9-1.9l-2.7-0.6l-2.6,0.3l-5.6,3.1l-14.5,9.2l-6.5,4
	l-6.6,2.3l-3.7,0.6l-9.5,1l-3,0.5L51.5,177.1z"/>
<path class="st11" d="M76.3,169.9l-2.8,2.3l-3.9,2.2l-3.4,1.4l-3.4,0.9h-1.9l-2.7-0.9l-3.3-2l-1.8,0l-0.3,0.9l2.6,1.7l2.8,1.8l6.8,2
	l5,1.4l0.8,0.3l-0.1,0.6l-3,2.8h3.6l3.3-3.2l6.8-7.2l3.7-5.9l1.6-4.4l-0.5-0.9l-2.8,1.8L76.3,169.9z"/>
<path class="st13" d="M76.6,173.2l-3,1.3l-5.5,2.6l-1.2,0.7v1l4.6,0.8l1.7-0.1l1.2-1.1l3.2-4l-0.2-0.6L76.6,173.2z"/>
<path class="st14" d="M142.2,159l-1.4-4l-0.4-2.5l-1.9-1l-2.1-0.4l0.3,0.7l1,2.4l0.2,1.7l-0.4,1.5l-4.1,4.1l-4.7,2.9l-20.3-1.7
	l-3.9-0.3l-1-0.5l0.4-1.1l1.7-1.3l3.2,1.5l1.6,0.5h1.2l1.3-0.7l-0.8-1.6l-3.9-2.7l-2.1-1.2l-1.7,0.7l-1.5,1l-1.8,0.8l-1.3,1.5
	l0.9,2.3l-0.1,1.1l2.3,2.4l11.1,1.1l8.4,0.5l1.2,0.4v0.9l-1.9,0.8l-4.8-0.3l-12.8-1.7l2.9,2.9l8.8,1l0.8,0.2l-0.7,0.8l-8.8,3.6
	l-9.1,2.7l-7,1.2L89,179l0.4-0.7l5.3-4.7l-2-2.5l-1.3,1.2l-8,7.7l-6.2,5.1l9.4-0.8l9.9-1.3l1.6-1.6l5.7-2.1l5.2-1.4l6.3-0.5l6-3.1
	l8.9-5.6l7.9-5.9L142.2,159z"/>
<path class="st15" d="M115.2,170.3l-9.5-1h-6.4l-5,4.7l-4.9,4.2L89,179l2.1,0.3l10.6-2.2l8-2.6l5.1-2.3l1.8-1.3l-0.8-0.2
	L115.2,170.3z"/>
<path class="st16" d="M101.2,162.8l-4.8,1.9l2.7,3.1l-4.6-2.3l-4.7,2.4l8.2,8.5l1.3,0l3.1-1.8l-2.6-2.7l4.5,1.9l4.5-2.3L101.2,162.8
	z"/>
<path class="st14" d="M52,175l-1,0.7l-0.8,2.4l0.3,3.8l4.4,1.2l4.5,0.9l4.9-2.5l0.8-1.1l-1.1-0.4l-3.7-1l-5-1.9l-1.4-1.3L52,175z"/>
<path class="st10" d="M145.5,176.5l0.6,2.2l-0.5,2.8l0.8,1.2l0.3,1.8v1.6h-1.1l-4.4,1l-4,1l-1.3,0.1l-1.3-0.2l-1.1,0.7l-2.2,0.8
	l-4.6,0l-2.4-0.3l-0.9-0.2l-3.1,0.6l-3,0.2l-4.1-0.4l-2.9-0.4l-3.3,0.1l-3.5,1.1l-17.2,0.5l-11.1-0.2l-8.3-0.8l-9-2.6l-3.1-1
	l-2.9-2.1l-0.9-1.4l3.5,0.7l6.2,1.6l5.7,0.8l19-0.5l8.5-1.5l9.4-2.1l10.2-2.2l11.9-1l8.3-0.2l6.5-0.8l5-1.1L145.5,176.5z"/>
<path class="st17" d="M110.8,188.3l2.8-2.3l3.3-1.6l2.3-0.6v-1.2l-1.4,0.3l-5.2,0.6l-5.5,1.9l-5.5,3.2l-1.4,1.3l3.3-0.1l2.2-0.7
	l1.9-0.5L110.8,188.3z"/>
<path class="st11" d="M145.6,182.1l-1.1-0.8h-2.7l-2.3,0.8l-2.2,1.1l-3.5,2.7l-0.9-1.3l-1.7-0.9l-2.3,0.4l-2.3,1l-2.3,1.3l-0.8,0.6
	l-0.7-0.6l-0.7-1.2l-2.4-0.1L116,186l-3.9,2l0.3,0.3l9.3-0.5l10.3-0.9l7-1.5l4.1-0.8l3.1-1.4L145.6,182.1z"/>
<path class="st16" d="M96.6,182.9l-3.2,2.1l-4.6,1.3l-11.3,0.6h-6.7l-3.9-0.3l-4.3-1.1l-0.6-0.8l3.5,0.5l6.3,0.2l5.5-0.4l7.2-0.5
	l9.1-1.2L96.6,182.9z M142.2,159l-2.4,2.2l-6.5,5.2l-4.8,3.5l-5.4,3.4l-7.2,4.1l-4,1.6l6.2-0.4l9.5-0.8h7.6l9-1.5l0.9-1v-7.4
	l-0.6-4.5l-1.3-2.8L142.2,159z"/>
<path class="st16" d="M102.3,189.9l-6.4,0.3l-13.5,0.2l-7.4-0.2l-7.4-0.6l-6.5-1.8l-6.4-2l-2.9-2.1l-1.3-2.6l-0.5-2.1l-0.8,1v1.4
	l0.5,1.6l2.3,2.6l2.4,1.6l1.2,0.2l0.4-1l1.4,0.4l0.1,1.5l1,0.7l3.5,0.7l1.5,0.1l0.5-1l1.5,0.4l0.1,1.1l0.6,0.4l5.9,0.8l0.9-0.2
	l0.5-1l1.8,0.2l0.3,1l0.7,0.6L82,192l1.1-0.2l0.5-1.1h1.6l0.2,0.9l0.6,0.5l6.2-0.3l0.9-0.7l0-0.7h2.1l0.2,0.9l0.6,0.4l6.5-0.9l0.8,0
	l0.4-0.9L102.3,189.9z M146.3,185.7L145,186l-4.8,1.2l-2,0.6l-2.4,0.2l-1.1-0.4l-1.4,0.8l-2.2,0.8l-3.8,0.1l-2.6-0.6l-2.1,0.2
	l-2.6,0.8l-4.7-0.2l-1.6-0.3l1.1,1.2l4.2,0.6l3-0.4l1.2-1.4l1.1-0.4l1,0.5l0.8,1l3.6,0.3l3.1-0.4l1.2-0.9l0.4-1.2l1,0.2l1.4,1.3h1.2
	l5.5-1.8l2.9-0.4l0.5-0.8L146.3,185.7z"/>
<path class="st1" d="M49.9,179.6c0.1,0.9,0.3,1.8,0.6,2.6c0.1,0.2,0.3,0.7,0.8,1.4c0.9,1.2,2.2,2.3,4.4,2.9c0,0.2,0,0.3-0.1,0.5
	c0,0-0.1,0.1-0.3,0.1c-0.5,0-4.6-2.3-5.6-5C49.4,181.2,49.4,180.4,49.9,179.6L49.9,179.6z M51.5,182.6c1.2,0.3,3.9,1,9.8,2.2
	c0.1,0.7,1.8,1.4,4.8,2c1.5,0.3,4.2,0.5,7.2,0.5c6.1,0,13.8-0.5,16.6-1c3.7-0.6,6.5-2.6,7.4-3.3c3.2-0.6,5.9-1.2,7.9-1.9
	c8.3-2.7,23-3.1,27.4-3c4.1,0.1,11-1.5,12.4-1.8c1.2,2.1,0.2,4.2-0.1,4.9c-0.6-0.1-1.9-0.3-4.4,0.2c-2,0.4-3.7,1.9-4.9,2.9
	c-0.6,0.5-1.2,1-1.6,1.2c-0.3-0.6-1.1-1.9-3.6-1.9c-1.9,0-3.5,1-4.8,1.9c-0.8,0.5-1.5,1-2,1c-0.1,0-0.6,0-0.6-0.5
	c0-0.2-0.1-0.5-0.4-0.7c-0.9-0.6-3.2-0.5-5.7,0.3c-2.4,0.8-4.5,2-5.4,2.5c1.6-1.5,5.8-3.5,7.3-3.9c1.1-0.3,1.2-0.7,1.2-1.1
	c-0.1-0.6-0.9-0.9-2.2-0.9c-1.8,0.1-4.1,0.7-4.2,0.7c-4.7,1.3-8.2,3-10.3,4.2c-2.3,1.4-3.4,2.4-3.5,2.4l0,0
	c-27.1,1.4-32.8-0.4-37.9-2.1c-1-0.3-2-0.7-3.2-0.9c-0.8-0.2-1.5-0.4-2.3-0.7l0,0l-0.2,0C53.3,184.8,52,183.4,51.5,182.6L51.5,182.6
	z M57.9,187.2c0.2,0.1,0.4,0.1,0.6,0.1c1.1,0.3,2.1,0.6,3.1,0.9c0.7,0.2,1.4,0.4,2.1,0.6c0,0.1-0.1,0.3-0.2,0.4
	c-0.2,0.1-0.4,0.2-0.7,0.2c-1.2-0.1-4.2-1-4.8-1.1C58,188.3,57.7,187.9,57.9,187.2z M66.2,189.6c1.8,0.4,4.1,0.8,7.1,1
	c0,0.2-0.1,0.3-0.2,0.4c-0.2,0.1-0.4,0.2-0.7,0.2c-1.2-0.1-5.4-0.7-5.9-0.8C66.3,190.3,66.1,190.1,66.2,189.6z M76,190.7
	c2.1,0.1,4.4,0.2,7.2,0.2c0,0.2-0.1,0.3-0.2,0.4c-0.1,0.2-0.4,0.3-0.7,0.3c-1.2,0.1-5.4,0-6,0C76.2,191.6,75.9,191.4,76,190.7z
	 M85.7,190.9c2.2,0,4.5-0.1,7.2-0.2c0,0.1-0.1,0.2-0.1,0.4c-0.1,0.2-0.3,0.3-0.7,0.3c-1.2,0.1-5.4,0.3-6,0.3
	C86,191.6,85.7,191.4,85.7,190.9L85.7,190.9z M95.6,190.6c2.4-0.1,5-0.2,7.8-0.4l0,0c-0.1,0.2-0.4,0.3-0.7,0.3
	c-1.2,0.1-6,0.7-6.7,0.7C95.9,191.2,95.7,191.1,95.6,190.6z M100.9,189.7c1.6-1.2,5.9-4.1,12.8-6c0,0,2.3-0.7,4.1-0.7
	c0.9,0,1.3,0.2,1.4,0.3c-0.1,0.1-0.2,0.2-0.7,0.3c-1.6,0.4-7.1,3-8.1,4.8c-3.8-0.2-6,0.9-6.5,1.2
	C102.9,189.5,101.9,189.6,100.9,189.7z M112.9,188c1-0.6,2.5-1.3,4.1-1.8c2.5-0.8,4.5-0.8,5.1-0.4c0.1,0.1,0.1,0.1,0.1,0.1
	c0,0.9,0.9,1.2,1.3,1.2c0.7,0,1.4-0.5,2.4-1.1c1.2-0.8,2.7-1.8,4.4-1.8c2.6,0,3,1.6,3,1.7l0,0.2C125.6,187.3,117,187.8,112.9,188z
	 M113.3,188.7c6.9-0.3,25.7-1.6,32.9-4.9c0.1,0.7,0.1,1.4,0.1,1.8c-1.9,0-4.8,0.8-7,1.3c-1,0.3-1.9,0.5-2.4,0.6
	c-0.8,0.1-1,0-1.3-0.1c-0.3-0.1-0.6-0.3-1.2-0.2c-0.6,0.1-0.7,0.3-0.9,0.6c-0.2,0.3-0.5,0.8-3.6,1c-3.2,0.2-4.1-0.2-4.6-0.5
	c-0.3-0.1-0.6-0.3-1-0.3c-0.5,0-0.9,0.2-1.4,0.3c-0.8,0.3-1.7,0.6-3.3,0.7c-2.7,0.2-5.9-0.4-6.1-0.4
	C113.4,188.7,113.3,188.7,113.3,188.7L113.3,188.7z M114.5,189.6c1.2,0.2,3.2,0.4,5,0.3c1.2-0.1,2.3-0.3,3.4-0.7
	c0,0.1-0.1,0.1-0.2,0.2c-0.1,0.2-0.3,0.3-0.4,0.5c-0.3,0.5-0.4,0.7-3.7,0.8C116.6,190.7,115.3,190.1,114.5,189.6z M125.5,189.3
	c0.7,0.2,1.9,0.4,4.4,0.3c2.3-0.2,3.2-0.5,3.7-0.9c0,0,0,0,0,0.1c-0.5,1.2-0.6,1.5-4.4,1.6c-3.2,0.1-3.4-0.4-3.6-0.8
	C125.6,189.4,125.6,189.3,125.5,189.3L125.5,189.3z M135.8,188.3c0.3,0.1,0.6,0.1,1.1,0c0.5-0.1,1.4-0.3,2.5-0.6
	c2.1-0.6,5-1.4,6.9-1.3c0.1,0.2,0,0.3,0,0.4c-0.1,0.2-0.5,0.5-1.8,0.6c-1.9,0.2-3.8,0.9-5.4,1.4c-0.4,0.1-0.8,0.3-1.2,0.4
	C136.6,189.6,135.9,188.5,135.8,188.3z M146,183.1c-2.6,1.2-6.9,2.1-11.5,2.9c0.4-0.2,0.9-0.7,1.5-1.2c1.2-1.1,2.8-2.4,4.6-2.8
	c2.9-0.6,4.2-0.2,4.3-0.2l0,0C145.5,182.1,145.8,182.6,146,183.1L146,183.1z M144.8,175.6c-1.4,0.3-8.3,1.9-12.3,1.8
	c-1.9-0.1-6.6,0-12.3,0.5c-1.9,0.2-4.2,0.4-6.5,0.7c12.3-5.2,26.4-16.9,28.7-18.9c0.3,0.6,0.6,1.2,1,1.8
	C145.5,165.1,145,174,144.8,175.6L144.8,175.6z M113.9,177.8c-1.2,0.5-2.5,1-3.7,1.4c-1.9,0.4-3.7,0.8-5.3,1.3
	c-1.7,0.6-4,1.1-6.7,1.6C100.7,180.7,106.3,178.2,113.9,177.8L113.9,177.8z M142.2,159c-1.7,1.5-14.7,12.4-26.6,18
	c-6.2,0-11.1,1.5-14.2,2.8c-3.1,1.3-4.9,2.5-5.2,2.7c-5.5,1-12.2,1.8-18.3,2.2c4.6-3.2,13-11.5,14.6-13.2l1.7,1.9
	c-1.1,0.9-4.9,4.4-5.4,5.1c-0.3,0.4-0.2,0.6-0.1,0.8c0.2,0.3,0.5,0.3,0.8,0.3c0.1,0,0.2,0,0.3,0c5.9-0.4,12.6-2.4,17.1-4
	c4.6-1.6,9.1-3.5,9.5-4.1c0.3-0.4,0.2-0.6,0.1-0.8c-0.2-0.5-1.1-0.5-1.4-0.5l-8.2-1.2l-1.8-2c3.2,0.4,14.2,1.7,15.3,1.9
	c0.3,0,0.6,0.1,0.8,0.1c0.7,0,1-0.2,1.8-0.6l0.3-0.2c0.5-0.2,0.7-0.5,0.7-0.9c-0.1-0.6-0.9-0.8-1.1-0.9l-0.1,0l-19.7-1.7l-2-2.2
	c0-0.3-0.1-1.3-0.7-2.6c-0.3-0.6-0.2-1.1,0-1.5c0.3-0.4,0.8-0.7,1.3-0.8c0.8-0.1,1.4-0.5,2.1-1c0.3-0.2,0.7-0.5,1-0.7
	c0.9-0.6,2.4,0.4,2.4,0.4l3.3,2c0.5,0.3,1.8,1.3,1.5,2.2c-0.3,0.9-1.9,0.7-2.2,0.6l-4.4-2.5l-0.2,0.1c-0.1,0-1.8,1.1-2.1,2.5
	c-0.1,0.6,0,0.9,0.2,1.1c0.5,0.5,1.4,0.4,1.7,0.4l24,2l0.1-0.1c0.3-0.2,8-5,9-8c0.4-1.3,0.3-2.7-0.5-4.1c-0.2-0.4-0.5-0.8-0.8-1.2
	c0.3,0,0.6,0.1,0.9,0.2c1,0.3,1.7,0.8,2,0.9C139.9,153.2,140.8,156,142.2,159L142.2,159z M139.9,151.9c-0.6-0.4-1.3-0.7-2-0.9
	c-1.8-0.5-3.3-0.2-4.4,1c-0.7,0.7-1.4,1.6-2.2,2.6c-2.1,2.6-4.4,5.5-7,5.6c-3.6,0.1-12.3-4.3-12.9-4.7c-0.4-0.3-4-3.2-7.6-2.5
	c-1.6,0.3-6.3,3-11.1,6c4.2-3.8,11.5-10.4,12.1-11.1c0.4-0.5,1-0.9,1.4-0.9c0.3,0,0.6,0.1,0.8,0.3c0.2,0.2,0.5,0.4,0.8,0.5
	c-0.6,0.1-1.4,0.3-2,0.7c-1.4,1-5.4,4.4-5.9,4.8c-1.4,0.8-2.2,1.7-2.3,1.7l0.5,0.5c0,0,2.8-2.6,6.3-3.2c3.5-0.5,7.4,2.4,7.4,2.5l0,0
	l0,0l7.4,3.4c0.2,0.1,2.5,1,4.7,1c1.2,0,2.4-0.3,3.2-1.1c2.1-2.2,4.8-6.1,5-6.4c0.1-0.2,1.8-2.1,3.3-2.1c1.6-0.1,3.7,0.8,3.9,0.9
	c0.2,0.1,0.7,0.4,0.8,0.8C140.2,151.5,140.1,151.7,139.9,151.9L139.9,151.9z M114.3,155.2l-2-0.9c-0.4-0.3-4.3-3.2-7.9-2.6
	c-0.7,0.1-1.4,0.3-2,0.5c1.4-1.2,3-2.6,3.8-3.1c1.2-0.8,2.7-0.6,3-0.6c0.8,0.4,1.7,1.1,2.9,2.1C114.1,152.4,114.3,154.4,114.3,155.2
	z M103.8,165.7l19,1.6c0.2,0.1,0.5,0.2,0.6,0.3c-0.1,0.1-0.2,0.1-0.3,0.2l-0.3,0.2c-1,0.5-1.2,0.6-2.2,0.4c-1.2-0.2-14.8-1.8-16.1-2
	L103.8,165.7z M90.4,168.1l4.1-1.9l5.7,2.2l-2.9-3.5l3.5-1.6l7.5,8.2l-3.8,1.9l-6.3-2.6l3.7,3.7l-3.9,1.9
	C97.9,176.5,90.4,168.1,90.4,168.1z M102.8,174.8l-2.8-2.6l4.4,2l5-2.4l-1.6-1.8l7.4,1h0c0.3,0,0.7,0.1,0.8,0.1c0,0,0,0,0,0.1
	c-0.7,0.7-15.3,7-26.1,7.7l0,0c-0.1,0-0.3,0-0.4,0l0,0c0.4-0.6,3.8-3.6,5.3-5l3,3.3C97.7,177.3,102.8,174.8,102.8,174.8z M104,153.7
	c3.4-0.6,7,2.4,7,2.4l0.1,0c0.4,0.2,9.2,4.8,13.1,4.8c0.1,0,0.1,0,0.2,0c2.9-0.1,5.4-3.2,7.5-5.9c0.7-0.9,1.5-1.8,2.1-2.5
	c0.5-0.6,1.2-0.9,1.9-1c0.5,0.5,2.3,2.8,1.5,5.1c-0.9,2.6-7.7,7-8.6,7.5l-23.9-2l0,0c-0.3,0-0.9,0.1-1.1-0.2c-0.1-0.1-0.1-0.2,0-0.5
	c0.2-0.9,1.2-1.7,1.7-2l4.1,2.4l0.1,0c0.1,0,2.6,0.6,3.1-1.1c0.5-1.6-1.8-2.9-1.9-3l-3.2-2c-0.1,0-1.8-1.2-3.2-0.4
	c-0.4,0.2-0.8,0.5-1.1,0.8c-0.6,0.5-1.1,0.9-1.7,0.9c-0.8,0.1-1.5,0.5-1.9,1.1c-0.3,0.4-0.5,1.2-0.1,2.2c0.5,1.1,0.6,1.9,0.6,2.3
	l-4.3,1.9l2.1,2.4l-3.9-1.6l-5.2,2.4l2.9,3.2c-1.6,1.6-11.5,11.4-15.6,13.8c-1.4,0.1-2.8,0.1-4.2,0.2c14.7-14,14.8-20.1,14.6-21.5
	C93.2,159.5,101.9,154.1,104,153.7z M71.3,185c-0.9,0-1.8,0-2.7,0c0.7-0.6,1.7-1.4,2-1.8c0.5-0.5,0.7-0.9,0.5-1.2
	c-0.1-0.3-0.4-0.4-0.8-0.5c-0.6-0.1-3.9-1-5.2-1.4c-0.4-0.2-1.1-0.4-2.3-0.7c-0.6-0.2-1.3-0.4-2.2-0.6c-2.6-0.8-4.3-1.9-5.6-2.8
	c-0.8-0.5-1.4-0.9-2-1.2c0.3-0.2,0.6-0.3,1.2-0.4l5.2,2.4c0.2,0.1,0.8,0.5,2,0.5c1.2,0,3-0.3,5.7-1.3c5.8-2.1,10.4-6.4,10.8-6.7
	c0.7-0.4,1.5-0.8,2.2-1.2c0.1-0.1,2.7-1.8,6.2-4.1C86.3,165.6,85.3,171.8,71.3,185L71.3,185z M75.1,170.6c-1.9,1.5-4.9,3.4-8.2,4.7
	c-5.6,2.1-7.1,0.9-7.1,0.9l0,0l0,0l-4.3-1.9c1-0.1,2.1-0.1,3.3-0.2c2.2-0.1,4.7-0.2,7.3-0.6C69.3,173,72.5,171.8,75.1,170.6z
	 M84.2,184.9c4-0.4,7.9-1,11.4-1.6c-1.3,0.8-3.4,2-5.9,2.3c-4.2,0.6-19,1.5-23.5,0.5c-1.8-0.4-2.9-0.8-3.5-1
	C67,186,74.9,185.9,84.2,184.9L84.2,184.9z M60.4,183.9c1.1-0.5,2.8-1.3,4-2.1c0.5-0.3,0.9-0.6,1-0.9c1.3,0.4,4.1,1.2,4.8,1.3
	c0.1,0,0.2,0,0.2,0c0,0.1-0.1,0.2-0.4,0.5c-0.4,0.4-2.1,1.9-2.6,2.2c-1.9-0.1-3.5-0.3-4.9-0.5C61.9,184.2,61.1,184.1,60.4,183.9z
	 M54.6,176.5c1.3,0.9,3.1,2,5.8,2.9c0.9,0.3,1.6,0.5,2.2,0.6c1,0.3,1.9,0.5,2.2,0.7c-0.1,0.1-0.3,0.2-0.7,0.5
	c-1.7,1.1-4.3,2.2-4.8,2.4c-5.7-1.2-7.7-1.8-8.2-1.9c-0.7-1.6-0.5-3-0.5-3.1l0.1-1c0.2-0.8,0.5-1.8,1-2.2c0.2-0.1,0.4-0.2,0.6-0.2
	C53,175.5,53.7,175.9,54.6,176.5z M49.2,182.8c1.3,2.7,5.3,5.1,6.2,5.1c0,0,0,0,0,0c0.3,0,0.6-0.2,0.8-0.4c0.1-0.2,0.2-0.4,0.2-0.6
	c0.3,0.1,0.5,0.2,0.8,0.3c-0.3,1.3,0.4,1.9,0.4,1.9l0.1,0l0.1,0c0.1,0,3.6,1.1,5,1.2c0.1,0,0.1,0,0.2,0c0.4,0,0.8-0.1,1.1-0.4
	c0.2-0.2,0.3-0.5,0.4-0.7c0.3,0.1,0.7,0.2,1,0.3c-0.2,1,0.3,1.5,0.7,1.6l0,0l0,0c0.2,0,4.7,0.7,6,0.8c0.1,0,0.1,0,0.2,0
	c0.4,0,0.8-0.1,1.1-0.4c0.3-0.3,0.4-0.7,0.4-0.9c0.4,0,0.9,0.1,1.3,0.1c-0.1,1,0.5,1.5,0.9,1.6l0,0l0,0c0.1,0,1.8,0,3.4,0
	c1.1,0,2.2,0,2.7-0.1c0.5,0,0.9-0.2,1.2-0.6c0.2-0.3,0.3-0.6,0.3-0.9l1.1,0c0,0.9,0.6,1.4,1,1.5l0,0l0,0c0.2,0,4.7-0.1,6.1-0.3
	c0.5-0.1,0.9-0.3,1.1-0.6c0.2-0.3,0.2-0.5,0.3-0.8l1.4-0.1c0.1,0.9,0.6,1.2,1,1.3l0.1,0l0.1,0c0.1,0,5.4-0.6,6.7-0.7
	c0.6-0.1,1-0.3,1.2-0.6c0.1-0.2,0.2-0.3,0.2-0.5l0,0c0,0,3.2-2,8.9-0.7c0.4,0.4,1.9,1.9,5.2,1.9c0.1,0,0.2,0,0.3,0
	c3.5-0.1,3.8-0.3,4.3-1.1c0.1-0.1,0.2-0.3,0.3-0.4c0.4-0.4,0.6-0.6,0.7-0.6l0.1,0c0,0,0.5,0,0.8,0.4c0,0.1,0.1,0.1,0.1,0.2
	c0.4,0.8,0.9,1.3,4.3,1.2c3.6-0.1,4.3-0.3,5-2c0.1-0.3,0.3-0.5,0.5-0.6c0.2,0,0.4,0.1,0.5,0.2c0.3,0.7,1.3,1.7,2.9,1.2
	c0.4-0.1,0.8-0.2,1.2-0.4c1.5-0.5,3.5-1.2,5.3-1.4c1.3-0.1,2.1-0.4,2.4-1c0.3-0.4,0.1-0.9,0-1.2c0.1-0.6,0.4-3.5-1.4-4.6
	c0.5-0.9,1.5-3.3,0-5.6c0.1-1.2,0.8-10.7-1.4-14.6c-2-3.5-3.4-7.7-3.7-8.7c0.4-0.4,0.6-0.8,0.5-1.2c-0.1-0.8-1-1.3-1.2-1.4l0,0
	c-0.1,0-2.4-1-4.2-0.9c-1.9,0.1-3.8,2.3-3.8,2.4l0,0c0,0-2.9,4.1-5,6.4c-2,2.1-7,0-7.1-0.1l-4.6-2.1c0.1-0.6,0.1-3.2-2.4-5.4
	c-1.7-1.5-3-2.2-3.9-2.7c-0.5-0.3-0.9-0.5-1.2-0.7c-0.4-0.3-0.8-0.5-1.3-0.5c-0.7,0-1.4,0.5-1.9,1.2c-0.6,0.7-10,9.3-14.9,13.7
	c-3.3,2.1-6.5,4.2-9.7,6.3c-0.1,0-7,4.4-13.7,5.3c-2.6,0.4-5.1,0.5-7.2,0.6c-3.5,0.1-5.9,0.2-6.6,1.3c-0.3,0-0.6,0.1-0.9,0.3
	c-1,0.8-1.3,2.9-1.4,3.5C48.7,179.7,48.5,181.2,49.2,182.8L49.2,182.8z"/>
<path class="st1" d="M71.9,179.3c-1.5-0.1-4.1-0.7-4.5-0.8c-0.1-0.1-0.2-0.2-0.2-0.3c0-0.1,0.2-0.3,0.8-0.5c1.7-0.7,8.3-3.8,8.9-4.1
	c0.2,0,0.5,0,0.6,0.1c0.1,0.1,0,0.3-0.2,0.7l-3.6,4.3l0,0.1C73.6,178.8,73.3,179.4,71.9,179.3 M72.3,180c1.4,0,1.9-0.7,2-0.9
	l3.6-4.3l0,0c0.3-0.6,0.4-1.1,0.1-1.5c-0.4-0.5-1.2-0.4-1.3-0.4l-0.1,0l-0.1,0c-0.1,0-7.2,3.4-9,4.1c-0.8,0.3-1.2,0.7-1.2,1.2
	c0,0.6,0.6,0.9,0.7,1l0,0l0,0c0.1,0,3,0.7,4.7,0.8C72,180,72.1,180,72.3,180"/>
<path class="st12" d="M89.4,159.8c0,0,0.5,2.2-0.8,3c-1.3,0.8-3.3,0.4-3.3,0.4s-1.4-0.1-1.5,0.7c-0.1,0.8,0.1,1.5,1.8,1.4
	c1.6-0.1,3.3-0.2,4.4-0.7c1.1-0.4,1.5-3.6,1.4-3.9C91.2,160.3,90,159.2,89.4,159.8"/>
<path class="st1" d="M89.9,160c-0.1,0-0.1,0-0.2,0c0.1,0.6,0.2,2.3-1,3.1c-1.3,0.8-3.3,0.5-3.6,0.4c-0.2,0-1,0-1.1,0.4
	c-0.1,0.4,0,0.6,0.1,0.8c0.2,0.2,0.6,0.3,1.3,0.3c1.7-0.1,3.3-0.2,4.3-0.6c0.3-0.1,0.7-0.8,0.9-1.7c0.2-0.9,0.3-1.6,0.2-1.8
	C90.9,160.6,90.4,160,89.9,160 M83.8,165.1c-0.3-0.3-0.4-0.7-0.3-1.3c0.1-0.9,1.2-1.1,1.9-1l0.1,0c0,0,1.9,0.4,3.1-0.3
	c1-0.7,0.6-2.6,0.6-2.6l0-0.2l0.1-0.1c0.2-0.3,0.6-0.4,0.9-0.3c0.7,0.1,1.4,0.9,1.6,1.2c0.2,0.4-0.1,2.1-0.5,3.1
	c-0.3,0.7-0.7,1.2-1.1,1.3c-1.1,0.4-2.7,0.6-4.5,0.7c-0.1,0-0.2,0-0.3,0C84.6,165.6,84.1,165.5,83.8,165.1"/>
<path class="st21" d="M92.1,164.6l-3.2,1.5l-2.5-3.3l2.6-1.6L92.1,164.6z"/>
<path class="st1" d="M88.9,161.7l-2,1.2l2.1,2.7l2.5-1.2L88.9,161.7z M85.9,162.7l3.2-1.9l3.6,3.9l-3.9,1.9L85.9,162.7L85.9,162.7z"
	/>
<path class="st12" d="M95,155.5c0,0,0.6,3.1-0.2,3.7c-0.8,0.7-3.5-0.2-3.5-0.2s-0.7-0.7-1.4-0.4c-0.7,0.3-0.7,1.1,0.1,1.8
	s2.2,1.5,5.5,1c0,0,1.9-2.7,1.8-4.7C97.2,154.7,95,155.5,95,155.5"/>
<path class="st1" d="M96.9,156.7c0-0.4-0.1-0.7-0.4-0.8c-0.3-0.2-0.8-0.2-1.1-0.1c0.1,0.3,0.1,0.8,0.2,1.4c0.1,1.3-0.1,2.1-0.5,2.4
	c-0.2,0.1-1.1,0.7-3.9-0.1l-0.1,0l-0.1-0.1c0,0-0.5-0.6-1-0.3c-0.1,0.1-0.3,0.2-0.3,0.4c0,0.2,0.1,0.5,0.5,0.8
	c0.8,0.7,2.1,1.4,5.1,0.9C95.6,160.6,97,158.3,96.9,156.7 M89.7,160.7c-0.5-0.4-0.8-1-0.7-1.4c0.1-0.4,0.3-0.7,0.7-0.9
	c0.8-0.4,1.5,0.2,1.8,0.4c1.1,0.3,2.7,0.6,3.1,0.2c0.4-0.4,0.3-2.2,0.1-3.4l-0.1-0.3l0.3-0.1c0.1,0,1.2-0.5,2,0.1
	c0.4,0.3,0.7,0.8,0.7,1.4c0.1,2.1-1.8,4.8-1.9,4.9l-0.1,0.1l-0.1,0c-0.8,0.1-1.4,0.2-2,0.2C91.4,161.9,90.4,161.3,89.7,160.7"/>
<path class="st12" d="M102.1,158.8l-5.8-4.7c0,0-0.6-0.4-1.2,0c-0.7,0.5-0.8,1.1,0.9,2.3s5.1,3.3,5.1,3.3s0.6,0.1,1-0.1
	C102.5,159.3,102.1,158.8,102.1,158.8"/>
<path class="st1" d="M96.1,154.3c0,0-0.4-0.3-0.8,0c-0.3,0.2-0.3,0.3-0.3,0.4c0,0.2,0.2,0.6,1.2,1.3c1.5,1.1,4.6,3,5,3.3
	c0.1,0,0.5,0.1,0.7-0.1c0.1,0,0-0.2-0.1-0.3C101.9,159,96.1,154.3,96.1,154.3z M101.1,160.1L101.1,160.1l-0.1,0c0,0-3.5-2.1-5.1-3.4
	c-1-0.8-1.5-1.3-1.5-1.9c0-0.4,0.2-0.7,0.6-1c0.7-0.5,1.4-0.2,1.6,0l5.8,4.8l0,0c0.3,0.4,0.4,1-0.1,1.3c-0.3,0.2-0.6,0.2-0.8,0.2
	C101.3,160.1,101.1,160.1,101.1,160.1z"/>
<path class="st21" d="M98.6,161.6l-3.2,1.5l-3.3-4l2.6-1.6L98.6,161.6z"/>
<path class="st1" d="M94.7,157.9l-2,1.2l2.9,3.5l2.5-1.2L94.7,157.9z M91.6,159l3.2-1.9l4.4,4.6l-3.9,1.9
	C95.4,163.5,91.6,159,91.6,159z"/>
<path class="st12" d="M83.9,166.8c0,0-0.9-0.3-1.3-0.7c-0.4-0.4-1.1-0.8-1.8-0.6c-0.6,0.2-1.1,1.4,0.5,2c1.5,0.6,2.6,0.3,2.6,0.3
	s0.3,0,0.3-0.5C84.2,166.9,83.9,166.8,83.9,166.8"/>
<path class="st1" d="M83.9,167.4c0-0.1,0-0.2,0-0.2l0,0l-0.1,0c-0.1,0-1-0.3-1.4-0.8c-0.4-0.4-1-0.7-1.4-0.5
	c-0.2,0.1-0.4,0.3-0.4,0.5c0,0.3,0.3,0.6,0.8,0.8c1.4,0.5,2.4,0.3,2.4,0.3l0,0C83.8,167.5,83.9,167.4,83.9,167.4 M81.1,167.9
	c-1.2-0.5-1.3-1.2-1.3-1.5c0-0.5,0.3-1,0.8-1.2c0.9-0.4,1.9,0.4,2.1,0.7c0.3,0.2,0.9,0.5,1.1,0.6c0.3,0.1,0.6,0.3,0.6,0.9
	c0,0.6-0.4,0.8-0.6,0.8c-0.1,0-0.4,0.1-0.7,0.1C82.5,168.3,81.8,168.2,81.1,167.9"/>
<path class="st12" d="M79.9,168.9c0,0-1.6-1.4-2.5-1.2c-0.9,0.2-1.2,1.7,0.1,2.1C78.7,170.2,81.2,170.1,79.9,168.9"/>
<path class="st1" d="M77.5,168c-0.3,0.1-0.5,0.3-0.5,0.6c0,0.2,0,0.6,0.6,0.8c0.9,0.3,2.2,0.2,2.3,0.1c0,0,0-0.1-0.3-0.3
	C79,168.6,78,167.9,77.5,168 M77.3,170.1c-0.8-0.3-1.1-1-1.1-1.5c0-0.6,0.5-1.1,1-1.3c0.2,0,1.2-0.2,2.8,1.3l0,0
	c0.6,0.6,0.5,1,0.4,1.2c-0.2,0.4-0.8,0.5-1.5,0.5C78.4,170.4,77.7,170.3,77.3,170.1 M105.1,157.5c0,0.5,0.4,0.9,0.9,0.9
	c0.5,0,0.9-0.4,0.9-0.9c0-0.5-0.4-0.9-0.9-0.9c0,0,0,0,0,0C105.5,156.6,105.1,157,105.1,157.5C105.1,157.5,105.1,157.5,105.1,157.5
	 M108.1,159.1c0,0.5,0.4,0.9,0.9,0.9c0.5,0,0.9-0.4,0.9-0.9c0-0.5-0.4-0.9-0.9-0.9c0,0,0,0,0,0C108.6,158.2,108.1,158.6,108.1,159.1
	L108.1,159.1 M121.3,170.6l0.5,2.1c0.1,0.3,0.5,0.2,0.4-0.1l-0.5-2.1C121.7,170.3,121.2,170.4,121.3,170.6 M122.8,170.8l-0.2-0.6
	l1.1-0.7l0.1,0.6c0,0,0,0.1,0,0.1L122.8,170.8 M123.7,169l-1.5,0.9c-0.1,0.1-0.1,0.2-0.1,0.2l0.3,1c0,0.1,0.2,0.2,0.3,0.1l1.1-0.6
	c0,0.2,0.1,0.4,0.1,0.5c0,0,0.1,0,0.1,0c0,0-0.1,0.1-0.1,0.1c0,0,0,0,0,0c0,0,0,0,0,0c0.1,0.1-0.1,0.1-0.1,0
	c-0.1,0.1-0.3,0.2-0.3,0.2l-0.9,0.5c-0.2,0.1,0,0.5,0.3,0.3l1.4-0.9c0.1,0,0.1-0.1,0.1-0.2l-0.4-2.1C124,169,123.9,168.9,123.7,169"
	/>
<path class="st1" d="M124,171.2C124,171.1,124,171.1,124,171.2C123.9,171.1,123.9,171.2,124,171.2C123.9,171.2,124,171.2,124,171.2
	 M128.1,167.6l0.1,0.4c0,0.1,0,0.2,0.1,0.2c0,0,0,0,0,0c-0.3,0.2-0.7,0.4-1,0.7l-0.1-0.5c0,0,0-0.1,0-0.1L128.1,167.6 M128.3,168.2
	C128.3,168.1,128.4,168.1,128.3,168.2 M128,166l-1.4,1c-0.1,0-0.1,0.1-0.1,0.2l0.4,2.1c0,0.2,0.2,0.2,0.3,0.1l1.4-1
	c0.1,0,0.1-0.1,0.1-0.2l-0.3-1c0-0.2-0.2-0.2-0.3-0.1l-1,0.7c0-0.2-0.1-0.4-0.1-0.5c0.1-0.1,0.3-0.3,0.5-0.4l0.8-0.6
	C128.5,166.2,128.2,165.9,128,166 M126.2,169.7C126.2,169.7,126.2,169.7,126.2,169.7c-0.2,0.1-0.4,0.2-0.5,0.3l-0.6,0.4l-0.1-0.5
	c-0.1-0.2-0.1-0.9-0.2-1.1c0,0,0,0,0,0c0.2-0.1,0.4-0.2,0.5-0.3l0.6-0.4l0.1,0.5C126,168.9,126,169.5,126.2,169.7 M125.9,167.6
	l-1.5,1c-0.1,0-0.1,0.1-0.1,0.2l0.4,2.1c0,0,0,0,0,0.1c0,0.1,0.1,0.1,0.1,0.1c0.1,0,0.1,0,0.2,0c0,0,0,0,0.1,0l1.5-1
	c0.1,0,0.1-0.1,0.1-0.2l-0.4-2.1C126.2,167.5,126,167.5,125.9,167.6"/>
<path class="st19" d="M90.7,168.2l7.3,8.1l3.5-1.8l-4.1-4.1l7,3l3.5-1.8l-7.2-8l-3.2,1.5l3.2,3.8l-6.3-2.4
	C94.5,166.4,90.7,168.2,90.7,168.2z M97.8,176.7L97.8,176.7l-7.8-8.6l4.4-2l5.1,2l-2.7-3.1l3.8-1.8l0.1,0.1l7.6,8.4l-4.1,2l-5.5-2.3
	l3.2,3.2C102.1,174.6,97.8,176.7,97.8,176.7z"/>
<path class="st22" d="M23.4,153.6l38.7,26.7v33.7l-38.7-31.4V153.6z"/>
<path class="st1" d="M24.2,182.1v-26.9l37,25.5v31.4C61.2,212.1,24.2,182.1,24.2,182.1z M23.6,152.6c-0.2-0.1-0.4-0.1-0.7,0
	c-0.4,0.2-0.4,0.8-0.4,0.9v29.3l39.4,32l1.1-0.3v-34.8L23.6,152.6z"/>
<path class="st23" d="M62.1,180.3l90.2-21.2v29.5l-90.2,25.3L62.1,180.3z"/>
<path class="st1" d="M151.4,160.2V188L63,212.8v-31.8L151.4,160.2z M152.6,158.1l-90.7,21.3l-0.7,0.2v34.8l0.7,0.5l91.2-25.6v-30.9
	L152.6,158.1L152.6,158.1z"/>
<path class="st24" d="M128.8,191.5l0.4-0.1v-0.9c0-0.2,0-0.4,0.1-0.5c0.1-0.1,0.2-0.2,0.3-0.2c0.4-0.1,0.4,0.3,0.4,0.5v0.9l0.4-0.1
	v-1c0-0.1,0-0.5-0.2-0.6c-0.2-0.1-0.4-0.1-0.6-0.1c-0.3,0.1-0.4,0.3-0.5,0.4v-0.2l-0.4,0.1C128.8,189.6,128.8,191.5,128.8,191.5z
	 M132.5,189.7c0-0.1,0-0.1,0-0.2c0-0.5-0.4-0.9-1-0.7c-0.6,0.2-1,0.8-1,1.3c0,0.5,0.4,0.9,1,0.7c0.4-0.1,0.8-0.5,0.9-0.9L132,190
	c-0.1,0.2-0.2,0.3-0.4,0.4c-0.3,0.1-0.5-0.1-0.5-0.2L132.5,189.7L132.5,189.7z M131,189.7c0.1-0.3,0.3-0.5,0.5-0.6
	c0.2-0.1,0.5,0,0.5,0.3L131,189.7z M133.1,190.2l0.3-0.1l0.4-1.3l0,0l0.3,1.1l0.3-0.1l0.7-2.1l-0.5,0.1l-0.3,1.2l0,0l-0.3-1
	l-0.4,0.1l-0.3,1.2l0,0l-0.3-1l-0.5,0.1L133.1,190.2z M135.9,189.4l0.4-0.1v-0.2c0.1,0.1,0.3,0.2,0.6,0.1c0.7-0.2,0.9-0.9,0.9-1.3
	c0-0.5-0.4-0.9-0.9-0.7c-0.2,0.1-0.4,0.2-0.6,0.4v-0.8l-0.4,0.1V189.4L135.9,189.4z M136.3,188.4c0-0.3,0.2-0.6,0.6-0.7
	c0.3-0.1,0.5,0.1,0.5,0.4c0,0.3-0.2,0.6-0.5,0.7C136.6,188.9,136.3,188.8,136.3,188.4L136.3,188.4z M139.9,186.4l-0.4,0.1v0.2l0,0
	c0,0-0.2-0.2-0.6-0.1c-0.5,0.1-0.9,0.7-0.9,1.2c0,0.6,0.4,0.9,0.9,0.7c0.2-0.1,0.5-0.3,0.6-0.5v0.2l0.4-0.1L139.9,186.4L139.9,186.4
	z M139.5,187.5c0,0.3-0.2,0.6-0.5,0.7c-0.3,0.1-0.6-0.1-0.6-0.4c0-0.3,0.2-0.6,0.6-0.8C139.2,187,139.5,187.1,139.5,187.5z
	 M140.6,188.1v-2.5l-0.4,0.1v2.5L140.6,188.1z M142.7,185.6l-0.4,0.1v0.2l0,0c0,0-0.2-0.2-0.6-0.1c-0.5,0.1-0.9,0.7-0.9,1.2
	c0,0.6,0.4,0.9,0.9,0.7c0.2-0.1,0.5-0.3,0.6-0.5v0.2l0.4-0.1L142.7,185.6L142.7,185.6z M142.3,186.7c0,0.3-0.2,0.6-0.5,0.7
	c-0.3,0.1-0.6-0.1-0.6-0.4c0-0.3,0.2-0.6,0.6-0.8C142,186.2,142.3,186.3,142.3,186.7z M142.9,187.4l0.4-0.1v-0.9
	c0-0.2,0-0.4,0.1-0.5c0.1-0.1,0.2-0.2,0.3-0.2c0.4-0.1,0.4,0.3,0.4,0.5v0.9l0.4-0.1v-1c0-0.1,0-0.5-0.2-0.6
	c-0.2-0.1-0.4-0.1-0.6-0.1c-0.3,0.1-0.4,0.3-0.5,0.4v-0.2l-0.4,0.1V187.4z M146.2,185.9c-0.1,0.2-0.3,0.3-0.4,0.4
	c-0.3,0.1-0.6-0.1-0.6-0.4c0-0.4,0.3-0.7,0.5-0.7c0.3-0.1,0.4,0.1,0.4,0.1l0.5-0.1c-0.2-0.5-0.7-0.5-0.9-0.4c-0.5,0.1-1,0.7-1,1.3
	c0,0.6,0.5,0.9,1,0.7c0.4-0.1,0.8-0.5,0.9-0.9L146.2,185.9L146.2,185.9z M148.6,185c0-0.1,0-0.2,0-0.2c0-0.5-0.4-0.9-1-0.7
	c-0.6,0.2-1,0.8-1,1.3c0,0.5,0.4,0.9,1,0.7c0.4-0.1,0.8-0.5,0.9-0.9l-0.5,0.1c-0.1,0.2-0.2,0.3-0.4,0.4c-0.3,0.1-0.5-0.1-0.5-0.2
	L148.6,185z M147.2,185.1c0.1-0.3,0.3-0.5,0.5-0.6c0.2-0.1,0.5,0,0.5,0.3L147.2,185.1L147.2,185.1z"/>
<path class="st24" d="M11,102.1l0.6-1l1,3l-0.3,0.6L11,102.1L11,102.1z M9,105l0.3-1.9l1.4,4.3l-0.3,0.6C10.4,108,9,105,9,105z
	 M9.5,109.6l-0.9-2.3l0.2-1.3l1,3L9.5,109.6L9.5,109.6z M12,100.5l0.5-0.8l1.1,2.8l-0.3,0.6C13.2,103,12,100.5,12,100.5z M9.2,98.8
	l0.8-1.4l-0.3-0.6c-0.1-0.3-0.4-0.6-0.7,0C8.9,97.3,8.9,98,9,98.2L9.2,98.8z M8.4,100.2l-0.2-0.6c-0.1-0.4-0.4-0.5-0.6,0
	c-0.2,0.4-0.3,1.1-0.2,1.3l0.2,0.5C7.7,101.5,8.4,100.2,8.4,100.2z M9.4,103.1l-0.7,1.2l-0.8-1.7l-0.1,0.1l0.6,2L8,105.6l-1.3-3.3
	c-0.4-1-0.5-2.4,0.1-4c0.2-0.5,0.7-1.5,1.3-0.9C8,97,7.9,95.8,8.2,94.6c0.7-2.1,1.6-1.6,2-0.6l1.5,3.9l-0.3,1.5l-0.9-1.8l-0.1,0.1
	l0.8,2.5l-0.3,1.8l-1.3-2.8l-0.1,0.1l2.1,6.3l-0.3,0.6l-2.6-5.4l-0.1,0.1C8.7,101.1,9.4,103.1,9.4,103.1z"/>
<path class="st24" d="M46.2,197.8l0.3,0.2l0-1c0-0.2,0-0.4,0-0.5c0-0.1,0.1-0.1,0.2,0c0.3,0.2,0.3,0.7,0.3,0.8l0,1l0.3,0.2l0-1.1
	c0-0.2,0-0.5-0.1-0.8c-0.1-0.3-0.3-0.5-0.4-0.6c-0.2-0.1-0.3-0.1-0.3,0l0-0.2l-0.3-0.2L46.2,197.8L46.2,197.8z M48.8,198.9
	c0-0.1,0-0.1,0-0.2c0-0.5-0.3-1.3-0.8-1.6c-0.4-0.3-0.7,0-0.7,0.6c0,0.6,0.4,1.3,0.8,1.6c0.3,0.2,0.6,0.1,0.7-0.2l-0.4-0.2
	c-0.1,0.1-0.2,0.1-0.3,0c-0.2-0.2-0.4-0.5-0.4-0.7C47.7,198.1,48.8,198.9,48.8,198.9z M47.7,197.7c0.1-0.3,0.3-0.3,0.4-0.2
	c0.2,0.1,0.4,0.4,0.4,0.7L47.7,197.7z"/>
<path class="st24" d="M49.1,200l0.2,0.1l0.2-1.1l0,0l0.3,1.5l0.2,0.1l0.4-1.7l-0.3-0.2l-0.2,1.1l0,0l-0.2-1.4l-0.2-0.2l-0.2,1.1l0,0
	l-0.3-1.4l-0.3-0.2L49.1,200z M50.9,201.4l0.3,0.2l0-0.2c0.1,0.2,0.2,0.4,0.5,0.6c0.5,0.4,0.7-0.2,0.6-0.6c0-0.5-0.3-1.3-0.7-1.6
	c-0.2-0.1-0.3-0.1-0.4,0l0-0.9l-0.3-0.2L50.9,201.4L50.9,201.4z M51.2,200.6c0-0.3,0.1-0.5,0.4-0.3c0.2,0.1,0.4,0.5,0.4,0.9
	c0,0.4-0.2,0.5-0.4,0.4C51.5,201.4,51.2,201,51.2,200.6z"/>
<path class="st24" d="M53.7,201.5l-0.3-0.2l0,0.3l0,0c0,0-0.2-0.4-0.5-0.6c-0.4-0.3-0.7,0-0.7,0.6c0,0.7,0.4,1.3,0.7,1.6
	c0.2,0.1,0.4,0.1,0.5,0l0,0.2l0.3,0.2C53.8,203.5,53.7,201.5,53.7,201.5z M53.4,202.3c0,0.4-0.2,0.5-0.4,0.4
	c-0.2-0.2-0.4-0.6-0.4-0.9c0-0.3,0.1-0.5,0.4-0.4C53.2,201.5,53.4,201.8,53.4,202.3z"/>
<path class="st24" d="M54.1,203.8l-0.1-2.7l-0.3-0.2l0.1,2.7L54.1,203.8z M55.6,202.9l-0.3-0.2l0,0.3l0,0c0,0-0.2-0.4-0.5-0.6
	c-0.4-0.3-0.7,0-0.7,0.6c0,0.7,0.4,1.3,0.7,1.6c0.2,0.1,0.4,0.1,0.5,0l0,0.2l0.3,0.2L55.6,202.9L55.6,202.9z M55.3,203.7
	c0,0.4-0.2,0.5-0.4,0.4c-0.2-0.2-0.4-0.6-0.4-0.9c0-0.3,0.1-0.5,0.4-0.4C55.1,202.9,55.3,203.3,55.3,203.7L55.3,203.7z"/>
<path class="st24" d="M55.7,205l0.3,0.2l0-1c0-0.2,0-0.4,0-0.5c0-0.1,0.1-0.1,0.2,0c0.3,0.2,0.3,0.7,0.3,0.8l0,1l0.3,0.2l0-1.1
	c0-0.2,0-0.5-0.1-0.8c-0.1-0.3-0.3-0.5-0.4-0.6c-0.2-0.1-0.3-0.1-0.3,0l0-0.2l-0.3-0.2L55.7,205z M57.8,206
	c-0.1,0.1-0.2,0.1-0.3,0.1c-0.2-0.2-0.4-0.6-0.4-0.9c0-0.4,0.2-0.5,0.3-0.4c0.2,0.1,0.3,0.4,0.3,0.5l0.3,0.3
	c-0.1-0.7-0.5-1.1-0.6-1.2c-0.3-0.3-0.6-0.1-0.6,0.6c0,0.7,0.4,1.3,0.7,1.6c0.3,0.2,0.5,0.1,0.6-0.2L57.8,206L57.8,206z M59.7,207.2
	c0-0.1,0-0.1,0-0.2c0-0.5-0.3-1.3-0.8-1.6c-0.4-0.3-0.7,0-0.7,0.6c0,0.6,0.4,1.3,0.8,1.6c0.3,0.2,0.6,0.1,0.7-0.2l-0.4-0.2
	c-0.1,0.1-0.2,0.1-0.3,0c-0.2-0.2-0.4-0.5-0.4-0.7L59.7,207.2L59.7,207.2z M58.5,206c0.1-0.3,0.3-0.3,0.4-0.2
	c0.2,0.1,0.4,0.4,0.4,0.7L58.5,206L58.5,206z"/>
<path class="st25" d="M41.2,193.4l-15-11.8c-0.4-0.3-0.7-1-0.7-1.5v-12.2c0-0.5,0.3-0.7,0.7-0.5l15,11.8c0.4,0.3,0.7,1,0.7,1.5v12.2
	C41.9,193.4,41.6,193.7,41.2,193.4"/>
<path class="st1" d="M26.6,172.4l14.1,11.1v-3.4L26.6,169C26.6,169,26.6,172.4,26.6,172.4z M40.8,183.7l-14.3-11.3v-3.7l14.3,11.3
	V183.7z M26.6,174.1l14.1,11.1v-0.9l-14.1-11.1V174.1z M40.8,185.5l-14.3-11.3V173l14.3,11.3V185.5z"/>
<path class="st1" d="M26.6,177.3l7,5.5v-3l-7-5.5C26.6,174.3,26.6,177.3,26.6,177.3z M33.7,183l-7.2-5.7v-3.3l7.2,5.7V183z"/>
<path class="st19" d="M32.6,173.7v3.5"/>
<path class="st1" d="M32.7,177.2L32.7,177.2l-0.1-3.6l0.1,0.1V177.2z M26.6,180.5l7,5.5v-3l-7-5.5C26.6,177.4,26.6,180.5,26.6,180.5
	z M33.7,186.2l-7.2-5.7v-3.3l7.2,5.7V186.2z"/>
<path class="st26" d="M34.7,186.2L34.7,186.2l-0.1-4.8l0.1,0V186.2z M34.8,186.3L34.8,186.3l-0.1-4.8l0.1,0L34.8,186.3z M35.2,181.9
	v4.4l-0.1,0L35.2,181.9L35.2,181.9z M35.4,182v4.4l-0.1,0L35.4,182L35.4,182z M35.7,186.6v-4.4l-0.1,0L35.7,186.6L35.7,186.6z
	 M40.2,185.8l0,4.4L40,190l0-4.4L40.2,185.8z M39.4,185.2l0,4.4l-0.2-0.1l0-4.4L39.4,185.2z M38.5,184.4l0,4.4l-0.2-0.1l0-4.4
	L38.5,184.4z M37.3,183.4l0,4.4l-0.2-0.1l0-4.4L37.3,183.4z M35.9,182.4l0,4.4l-0.2-0.1l0-4.4L35.9,182.4z M36.1,182.6l0,4.4
	l-0.1-0.1l0-4.4L36.1,182.6z M36.4,182.7l0,4.4l-0.1-0.1l0-4.4L36.4,182.7z M37.9,183.9l0,4.4l-0.1-0.1l0-4.4L37.9,183.9z
	 M38.2,184.1l0,4.4l-0.1-0.1l0-4.4L38.2,184.1z M35.1,181.8l0,4.4l-0.2-0.2l0-4.4L35.1,181.8z M36.6,182.9v4.4l-0.1,0L36.6,182.9
	L36.6,182.9z M36.8,187.5v-4.4l-0.1,0L36.8,187.5L36.8,187.5z M37,187.6v-4.4l-0.1,0L37,187.6L37,187.6z M37.4,183.6v4.4l-0.1,0
	L37.4,183.6L37.4,183.6z M37.6,183.7v4.4l-0.1,0L37.6,183.7L37.6,183.7z M37.7,183.8v4.4l-0.1,0L37.7,183.8L37.7,183.8z M38.3,184.2
	v4.4l-0.1,0L38.3,184.2L38.3,184.2z M38.7,189v-4.4l-0.1,0L38.7,189L38.7,189z M39.1,189.3v-4.4l-0.1,0L39.1,189.3L39.1,189.3z
	 M39.2,185v4.4l-0.1,0L39.2,185L39.2,185z M39.6,185.3v4.4l-0.1,0L39.6,185.3L39.6,185.3z M39.8,185.4v4.4l-0.1,0L39.8,185.4
	L39.8,185.4z M40.3,190.3v-4.4l-0.1,0L40.3,190.3L40.3,190.3z M40.6,190.8L40.6,190.8l-0.1-4.8l0.1,0V190.8z M40.7,190.9L40.7,190.9
	l0-4.8l0,0V190.9z"/>
<path class="st26" d="M34.3,185.8c0,0.1,0.1,0.3,0.3,0.4c0.2,0,0.3,0,0.3-0.1c0-0.1-0.1-0.2-0.3-0.3
	C34.5,185.6,34.3,185.7,34.3,185.8 M35,186.7c0-0.2-0.2-0.3-0.4-0.5c-0.2,0-0.3,0-0.3,0.1c0,0.1,0.1,0.3,0.4,0.4
	C34.9,186.9,35,186.9,35,186.7 M34,186.3c0-0.2,0.1-0.2,0.4-0.2l0,0c-0.2-0.2-0.3-0.3-0.3-0.4c0-0.2,0.2-0.2,0.5-0.1
	c0.3,0.2,0.5,0.4,0.5,0.5c0,0.1-0.1,0.2-0.3,0.2v0c0.2,0.2,0.4,0.3,0.4,0.5c0,0.2-0.3,0.3-0.6,0.1C34.3,186.8,34,186.5,34,186.3"/>
<path class="st26" d="M35.7,187.1v-0.5c0-0.1,0-0.1,0-0.2l0,0c0,0.1-0.1,0.1-0.1,0.1l-0.4,0.3v0C35.1,186.9,35.7,187.1,35.7,187.1z
	 M35.7,187.7v-0.4l-0.8-0.4v-0.1l0.7-0.5l0.2,0.1v0.9l0.2,0.1v0.1l-0.2-0.1v0.4L35.7,187.7z"/>
<path class="st26" d="M35.6,186.8c0,0.1,0.1,0.3,0.3,0.4c0.2,0,0.3,0,0.3-0.1c0-0.1-0.1-0.2-0.3-0.3
	C35.8,186.7,35.6,186.7,35.6,186.8 M36.3,187.8c0-0.2-0.2-0.3-0.4-0.5c-0.2,0-0.3,0-0.3,0.1c0,0.1,0.1,0.3,0.4,0.4
	C36.2,187.9,36.3,187.9,36.3,187.8 M35.4,187.3c0-0.2,0.1-0.2,0.4-0.2l0,0c-0.2-0.2-0.3-0.3-0.3-0.4c0-0.2,0.2-0.2,0.5-0.1
	c0.3,0.2,0.5,0.4,0.5,0.5c0,0.1-0.1,0.2-0.3,0.2v0c0.2,0.2,0.4,0.3,0.4,0.5c0,0.2-0.3,0.3-0.6,0.1C35.6,187.8,35.3,187.5,35.4,187.3
	"/>
<path class="st26" d="M36,187.5c0,0.3,0.1,0.6,0.4,0.7c0.2,0.1,0.4,0,0.4-0.4c0-0.3-0.1-0.6-0.4-0.7C36.2,187,36,187.1,36,187.5
	 M37,187.9c0,0.4-0.2,0.6-0.6,0.4c-0.3-0.2-0.6-0.5-0.6-0.9c0-0.4,0.3-0.6,0.6-0.4C36.8,187.1,37,187.5,37,187.9"/>
<path class="st26" d="M36.5,187.8c0,0.3,0.1,0.6,0.4,0.7c0.2,0.1,0.4-0.1,0.4-0.4c0-0.3-0.1-0.6-0.4-0.7
	C36.6,187.4,36.5,187.5,36.5,187.8 M37.4,188.3c0,0.5-0.2,0.6-0.6,0.4c-0.3-0.2-0.6-0.5-0.6-0.9c0-0.4,0.3-0.6,0.6-0.4
	C37.2,187.5,37.4,187.8,37.4,188.3"/>
<path class="st26" d="M36.9,188.2c0,0.3,0.1,0.6,0.4,0.7c0.2,0.1,0.4-0.1,0.4-0.4c0-0.3-0.1-0.6-0.4-0.7
	C37.1,187.7,36.9,187.8,36.9,188.2 M37.9,188.6c0,0.5-0.2,0.6-0.6,0.4c-0.3-0.2-0.6-0.5-0.6-0.9c0-0.4,0.3-0.6,0.6-0.4
	C37.7,187.8,37.9,188.2,37.9,188.6"/>
<path class="st26" d="M37.3,188.5c0,0.3,0.1,0.6,0.4,0.7c0.2,0.1,0.4-0.1,0.4-0.4c0-0.3-0.1-0.6-0.4-0.7
	C37.5,188,37.3,188.2,37.3,188.5 M38.3,188.9c0,0.5-0.2,0.6-0.6,0.4c-0.3-0.2-0.6-0.5-0.6-0.9c0-0.4,0.3-0.6,0.6-0.4
	C38.1,188.2,38.3,188.5,38.3,188.9"/>
<path class="st26" d="M37.9,189c0,0,0.1,0.1,0.1,0.1c0.1,0.1,0.1,0,0.1,0c0-0.1-0.1-0.2-0.1-0.2l0,0v-0.1l0,0c0,0,0.1,0,0.1,0
	c0-0.1,0-0.1-0.1-0.1c0,0-0.1,0-0.1,0l0-0.1c0,0,0.1,0,0.1,0c0.1,0.1,0.1,0.1,0.1,0.2c0,0.1,0,0.1-0.1,0.1v0
	c0.1,0.1,0.1,0.1,0.1,0.2c0,0.1-0.1,0.1-0.2,0C38,189.1,37.9,189.1,37.9,189C37.9,189,37.9,189,37.9,189z M38.4,189.3
	c0,0,0.1,0.1,0.1,0.1c0.1,0.1,0.1,0,0.1,0c0-0.1-0.1-0.2-0.1-0.2l0,0v-0.1l0,0c0,0,0.1,0,0.1,0c0-0.1,0-0.1-0.1-0.1c0,0-0.1,0-0.1,0
	l0-0.1c0,0,0.1,0,0.1,0c0.1,0.1,0.1,0.1,0.1,0.2c0,0.1,0,0.1-0.1,0.1v0c0.1,0.1,0.1,0.1,0.1,0.2c0,0.1-0.1,0.1-0.2,0
	C38.4,189.5,38.4,189.4,38.4,189.3C38.3,189.4,38.4,189.3,38.4,189.3z M39,189.8c0,0.3,0.1,0.6,0.4,0.7c0.2,0.1,0.4-0.1,0.4-0.4
	c0-0.3-0.1-0.6-0.4-0.7C39.2,189.4,39,189.5,39,189.8 M40,190.3c0,0.5-0.2,0.6-0.6,0.4c-0.3-0.2-0.6-0.5-0.6-0.9
	c0-0.4,0.3-0.6,0.6-0.4C39.8,189.5,40,189.8,40,190.3"/>
<path class="st26" d="M40,190.5v-0.5c0-0.1,0-0.1,0-0.2l0,0c0,0.1-0.1,0.1-0.1,0.1l-0.4,0.3v0C39.4,190.3,40,190.5,40,190.5z
	 M40,191.1v-0.4l-0.8-0.4v-0.1l0.7-0.5l0.2,0.1v0.9l0.2,0.1v0.1l-0.2-0.1v0.4L40,191.1L40,191.1z"/>
<path class="st26" d="M39.9,190.1l-0.2-0.1l0,0.1c0,0,0,0,0,0c0,0,0.1,0.1,0.1,0.1c0,0.1,0.1,0.1,0.1,0.2c0,0.1-0.1,0.1-0.2,0.1
	c0,0-0.1-0.1-0.1-0.1l0,0c0,0,0.1,0.1,0.1,0.1c0.1,0,0.1,0,0.1,0c0-0.1,0-0.2-0.1-0.2c0,0,0,0-0.1,0l0-0.2L39.9,190.1L39.9,190.1
	L39.9,190.1z M40.3,190.4L40.3,190.4L40.3,190.4L40.3,190.4L40.3,190.4L40.3,190.4l0.1,0.5l-0.1,0V190.4z M27.3,177.2v-1.5l-0.2-0.2
	v-0.2l0.5,0.4v1.7L27.3,177.2z M29,176.7l-0.5-0.2v1.3L29,178V176.7z M28,177.8V176l1.5,0.7v1.7L28,177.8z"/>
<path class="st26" d="M33,180.6l-3.5-2.7v-0.2l3.5,2.7V180.6z M33,180.9l-3.5-2.7V178l3.5,2.7V180.9z M33,181.2l-3.5-2.7v-0.2
	l3.5,2.7V181.2z M33,181.5l-3.5-2.7v-0.2l3.5,2.7V181.5z"/>
<text transform="matrix(1 0 0 1 27.09 186.172)" class="st27 st28">D</text>
<path class="st26" d="M30.4,182.7l-1.9-1.5v-0.7l1.9,1.5L30.4,182.7z M30.8,183l-0.2-0.1v-0.7l0.2,0.1V183z M33,184.7l-1.9-1.5v-0.7
	L33,184V184.7z M32,175l-4.9-3.8v-1.1L32,174V175z M29.6,173.3l-2.4-1.9v0.3l2.4,1.9V173.3z M29.6,173.7l-2.4-1.9v0.3l2.4,1.9V173.7
	z M36.8,178.3l-3.6-2.9v-0.5l3.6,2.9V178.3z M40.3,181.9l-7.2-5.6v-0.5l7.2,5.6V181.9z M40.3,182l-7.2-5.6v0.1l7.2,5.6V182z
	 M40.3,182.3l-7.2-5.6v0.1l7.2,5.6V182.3z"/>
</svg>
