<?xml version="1.0" encoding="utf-8"?>
<!-- Generator: Adobe Illustrator 26.5.0, SVG Export Plug-In . SVG Version: 6.00 Build 0)  -->
<svg version="1.1" id="圖層_1" xmlns="http://www.w3.org/2000/svg" xmlns:xlink="http://www.w3.org/1999/xlink" x="0px" y="0px"
	 width="300px" height="300px" viewBox="0 0 300 300" style="enable-background:new 0 0 300 300;" xml:space="preserve">
<path d="M93.1,10.3v10.3H82.8c0-5.2,0-15.5,0-20.7c0,0,10.3,0,10.3,0V10.3z M134.5,0h-10.3v10.3h10.3V0z M155.2,0v10.3h10.3V0H155.2
	z M186.2,0h-10.3v10.3h10.3V0z M300,0c0,16.6,0,35.1,0,51.7c0,5.1,0,15.5,0,20.7c-9.2,0-21.8,0-31,0c-13,0-28.4,0-41.4,0
	c0-13,0-28.4,0-41.4c0-9.2,0-21.8,0-31c5.2,0,15.5,0,20.7,0C264.9,0,283.4,0,300,0z M289.7,10.3c-13,0-28.4,0-41.4,0
	c0,0-10.3,0-10.3,0c0,5.2,0,15.5,0,20.7c0,9.2,0,21.8,0,31c9.2,0,21.8,0,31,0c5.1,0,15.5,0,20.7,0c0,0,0-10.3,0-10.3
	C289.7,38.8,289.7,23.3,289.7,10.3z M196.6,20.7V10.3h-10.3v10.3H196.6z M206.9,20.7h10.3c0-5.2,0-15.5,0-20.7c-5.2,0-15.5,0-20.7,0
	c0,0,0,10.3,0,10.3h10.3V20.7z M93.1,20.7V31h10.3V20.7H93.1z M124.1,20.7V10.3h-10.3c0,5.2,0,15.5,0,20.7c0,0,10.3,0,10.3,0V20.7z
	 M258.6,20.7h-10.3V31c0,5.2,0,15.5,0,20.7c9.2,0,21.8,0,31,0c0-9.2,0-21.8,0-31C274.2,20.7,263.8,20.7,258.6,20.7z M103.4,31v10.3
	h10.3V31H103.4z M134.5,41.4V31h-10.3v10.3H134.5z M144.8,41.4h10.3c0,0,0-10.3,0-10.3h10.3v10.3h-10.3v10.3h10.3h10.3
	c0,0,0,10.3,0,10.3h10.3V51.7c5.1,0,15.5,0,20.7,0c0,0,0,10.3,0,10.3s0,10.3,0,10.3h10.3V62.1c0-5.2,0-15.5,0-20.7
	c0,0,0-10.3,0-10.3s-10.3,0-10.3,0v10.3c-5.2,0-15.5,0-20.7,0c0,0,0-10.3,0-10.3h-10.3c0-5.1,0-15.5,0-20.7c0,0-10.3,0-10.3,0v10.3
	c0,0-10.3,0-10.3,0c-5.1,0-15.5,0-20.7,0c0,0,0,10.3,0,10.3s10.3,0,10.3,0V41.4z M41.4,51.7h10.3V41.4c0-5.2,0-15.5,0-20.7
	c-9.2,0-21.8,0-31,0c0,9.2,0,21.8,0,31C25.8,51.7,36.2,51.7,41.4,51.7z M124.1,41.4h-10.3v10.3h10.3V41.4z M134.5,51.7h10.3V41.4
	h-10.3V51.7z M124.1,62.1c0,5.2,0,15.5,0,20.7c0,0,0,10.3,0,10.3h10.3c0-5.2,0-15.5,0-20.7c0-5.2,0-15.5,0-20.7c0,0-10.3,0-10.3,0
	V62.1z M10.3,72.4H0V62.1c0-5.2,0-15.5,0-20.7c0-9.2,0-21.8,0-31C0,10.3,0,0,0,0c5.2,0,15.5,0,20.7,0c16.6,0,35.1,0,51.7,0
	c0,13,0,28.4,0,41.4c0,9.2,0,21.8,0,31c-5.2,0-15.5,0-20.7,0C38.8,72.4,23.3,72.4,10.3,72.4z M10.3,62.1c13,0,28.4,0,41.4,0
	c0,0,10.3,0,10.3,0c0-5.2,0-15.5,0-20.7c0-9.2,0-21.8,0-31c-9.2,0-21.8,0-31,0c-5.1,0-15.5,0-20.7,0c0,0,0,10.3,0,10.3
	C10.3,33.7,10.3,49.1,10.3,62.1z M82.8,62.1v10.3h10.3V62.1H82.8z M155.2,62.1h-10.3v10.3h10.3V62.1z M175.9,72.4V62.1h-10.3
	c0,9.2,0,21.8,0,31c0,0,0,10.3,0,10.3s-10.3,0-10.3,0V93.1c0,0-10.3,0-10.3,0s0,10.3,0,10.3v10.3h-10.3c0,0-10.3,0-10.3,0
	c0,5.2,0,15.5,0,20.7c0,0,0,10.3,0,10.3s10.3,0,10.3,0v-10.3h10.3v-10.3c0,0,10.3,0,10.3,0h10.3v-10.3c5.2,0,15.5,0,20.7,0
	c0,0,10.3,0,10.3,0v10.3h10.3v10.3h-10.3v-10.3h-10.3c0,9.2,0,21.8,0,31c0,0,10.3,0,10.3,0v-10.3c0,0,10.3,0,10.3,0v10.3h10.3v10.3
	c-9.2,0-21.8,0-31,0c0,0,0,10.3,0,10.3c5.2,0,15.5,0,20.7,0c0,0,10.3,0,10.3,0s0,10.3,0,10.3h10.3v-10.3c0,0,0-10.3,0-10.3h10.3
	v-10.3h-10.3c0,0,0-10.3,0-10.3s-10.3,0-10.3,0v-10.3h10.3c0,0,0,10.3,0,10.3h10.3c0-5.2,0-15.5,0-20.7c0,0,10.3,0,10.3,0v-10.3
	h-10.3c0,0,0-10.3,0-10.3h10.3V93.1c-5.2,0-15.5,0-20.7,0c0,0,0,10.3,0,10.3h-10.3v10.3h10.3v10.3h-10.3c0,0,0-10.3,0-10.3h-10.3
	v-10.3h-10.3V93.1h-10.3v10.3c0,0-10.3,0-10.3,0c0-5.1,0-15.5,0-20.7c0,0,10.3,0,10.3,0h10.3c0-5.1,0-15.6,0-20.7c0,0-10.3,0-10.3,0
	s0,10.3,0,10.3H175.9z M217.2,82.8v10.3h10.3V82.8H217.2z M279.3,82.8v10.3H269v10.3c5.2,0,15.5,0,20.7,0c0,0,0-10.3,0-10.3H300
	c0,0,0-10.3,0-10.3C294.8,82.8,284.5,82.8,279.3,82.8z M31,103.4V93.1H20.7V82.8H10.3c0,5.2,0,15.5,0,20.7
	C15.5,103.4,25.9,103.5,31,103.4z M62.1,93.1H51.7v10.3h10.3V93.1z M10.3,103.4H0v10.3h10.3V103.4z M62.1,124.1v-10.3H51.7v-10.3
	H41.4c0,5.2,0,15.5,0,20.7C46.5,124.1,56.9,124.1,62.1,124.1z M10.3,134.5h10.3v-10.3H10.3V134.5z M62.1,124.1v10.3h10.3v-10.3H62.1
	z M175.9,134.5v-10.3h-10.3v10.3H175.9z M269,144.8c0-9.2,0-21.8,0-31c0,0-10.3,0-10.3,0v10.3v10.3h-10.3c0,0,0,10.3,0,10.3
	C253.4,144.8,263.8,144.8,269,144.8z M289.7,134.5v-10.3h-10.3c0,5.2,0,15.5,0,20.7c0,0,10.3,0,10.3,0V134.5z M62.1,155.2h10.3
	v-10.3H62.1V155.2z M113.8,155.2h10.3v-10.3h-10.3V155.2z M144.8,155.2h10.3c0-5.2,0-15.5,0-20.7c0,0-10.3,0-10.3,0
	C144.8,139.6,144.8,150,144.8,155.2z M175.9,144.8h-10.3v10.3h10.3V144.8z M248.3,155.2v-10.3h-10.3v10.3H248.3z M134.5,165.5v-10.3
	h-10.3v10.3H134.5z M279.3,155.2c-9.2,0-21.8,0-31,0c0,9.2,0,21.8,0,31c0,0,10.3,0,10.3,0v-10.3c5.2,0,15.5,0,20.7,0
	c0,0,10.3,0,10.3,0v-10.3H300v-10.3C294.8,155.2,284.5,155.2,279.3,155.2z M155.2,165.5h-10.3v10.3v10.3h10.3v-10.3h10.3v-10.3
	H155.2z M134.5,175.9c0,0,0,10.3,0,10.3s-10.3,0-10.3,0s0,10.3,0,10.3v10.3c0,0-10.3,0-10.3,0v-10.3h-10.3v-10.3c0,0,10.3,0,10.3,0
	v-10.3c0,0-10.3,0-10.3,0v10.3H93.1v-10.3c-9.2,0-21.8,0-31,0c0,0,0,10.3,0,10.3c5.2,0,15.5,0,20.7,0c0,0,0,10.3,0,10.3H72.4
	c-5.2,0-15.5,0-20.7,0c0,0,0-10.3,0-10.3c0-5.2,0-15.5,0-20.7c0,0-10.3,0-10.3,0v10.3c0,0,0,10.3,0,10.3s-10.3,0-10.3,0
	s0,10.3,0,10.3c-5.1,0-15.6,0-20.7,0c0,0,0,10.3,0,10.3s0,10.3,0,10.3s-10.3,0-10.3,0v-10.3c0-16.6,0-35.1,0-51.7c0,0,10.3,0,10.3,0
	s0-10.3,0-10.3h10.3c0,0,10.3,0,10.3,0c0-5.2,0-15.5,0-20.7c0,0,10.3,0,10.3,0v10.3h10.3v10.3H41.4v10.3c5.2,0,15.5,0,20.7,0
	c0,0,0,10.3,0,10.3c5.2,0,15.5,0,20.7,0c0-5.2,0-15.5,0-20.7c0,0-10.3,0-10.3,0v-10.3c0,0,10.3,0,10.3,0c0-5.1,0-15.5,0-20.7
	c-5.2,0-15.5,0-20.7,0c0,0,0-10.3,0-10.3h10.3c0,0,0-10.3,0-10.3H62.1c0,0,0-10.3,0-10.3c5.2,0,15.5,0,20.7,0c0,0,10.3,0,10.3,0
	s0-10.3,0-10.3s10.3,0,10.3,0c0-5.1,0-15.6,0-20.7c0,0,10.3,0,10.3,0c0,16.6,0,35.1,0,51.7c0,0-10.3,0-10.3,0V93.1H93.1v10.3
	c0,0,10.3,0,10.3,0v10.3h10.3v10.3c-5.2,0-15.5,0-20.7,0c0,0,0,10.3,0,10.3c5.1,0,15.5,0,20.7,0c0,0,0,10.3,0,10.3s-10.3,0-10.3,0
	v10.3h10.3c0,0,0,10.3,0,10.3h10.3v10.3H134.5z M31,165.5c-5.2,0-15.5,0-20.7,0c0,0,0,10.3,0,10.3c5.2,0,15.5,0,20.7,0
	C31,175.9,31,165.5,31,165.5z M206.9,186.2h-10.3v10.3h10.3V186.2z M237.9,196.6h10.3v-10.3h-10.3V196.6z M269,196.6v-10.3h-10.3
	v10.3H269z M289.7,196.6H300c0-5.2,0-15.5,0-20.7c0,0-10.3,0-10.3,0C289.7,181,289.7,191.4,289.7,196.6z M196.6,196.6h-10.3v10.3
	h10.3V196.6z M279.3,206.9h10.3v-10.3h-10.3V206.9z M31,206.9H20.7v10.3H31V206.9z M72.4,206.9c-5.2,0-15.5,0-20.7,0
	c0,0,0-10.3,0-10.3H41.4c0,5.2,0,15.5,0,20.7c5.2,0,15.5,0,20.7,0c5.2,0,15.5,0,20.7,0c0,0,0-10.3,0-10.3H72.4z M103.4,217.2
	c-5.2,0-15.5,0-20.7,0c0,0,0,10.3,0,10.3s0,10.3,0,10.3h10.3v10.3h10.3c0-5.2,0-15.5,0-20.7c0,0,10.3,0,10.3,0s0-10.3,0-10.3v-10.3
	h-10.3V217.2z M144.8,206.9c9.2,0,21.8,0,31,0c0-5.2,0-15.5,0-20.7c0,0,10.3,0,10.3,0v-10.3c-5.2,0-15.5,0-20.7,0
	c0,5.2,0,15.5,0,20.7c-5.2,0-15.5,0-20.7,0c0,0,0-10.3,0-10.3s-10.3,0-10.3,0c0,9.2,0,21.8,0,31c0,0,10.3,0,10.3,0V206.9z
	 M269,206.9h10.3c0,0,0,10.3,0,10.3s10.3,0,10.3,0c0,5.2,0,15.5,0,20.7c0,0,10.3,0,10.3,0v10.3c-5.2,0-15.5,0-20.7,0
	c0-5.2,0-15.5,0-20.7c0,0-10.3,0-10.3,0h-10.3v10.3H269c0,0,0,10.3,0,10.3h-10.3c0,0,0,10.3,0,10.3h-10.3V269h10.3
	c0,0,0,10.3,0,10.3H269V269c0,0,10.3,0,10.3,0v-10.3h10.3c0,5.1,0,15.5,0,20.7c0,0-10.3,0-10.3,0c0,5.1,0,15.5,0,20.7
	c-9.2,0-21.8,0-31,0c0-5.2,0-15.5,0-20.7c-5.2,0-15.5,0-20.7,0c0,0,0,10.3,0,10.3h10.3V300c0,0-10.3,0-10.3,0c-9.2,0-21.8,0-31,0
	c0,0,0-10.3,0-10.3h10.3c0,0,0-10.3,0-10.3c-5.1,0-15.5,0-20.7,0c0,0,0-10.3,0-10.3h-10.3c0-5.2,0-15.5,0-20.7c-9.2,0-21.8,0-31,0
	c0,0-10.3,0-10.3,0s0-10.3,0-10.3h10.3v-10.3c0,0,10.3,0,10.3,0s0-10.3,0-10.3h10.3h10.3v-10.3h10.3v10.3h10.3v10.3h-10.3v10.3
	c0,0,10.3,0,10.3,0v-10.3h10.3c0-5.1,0-15.5,0-20.7c0,0,10.3,0,10.3,0v-10.3c5.2,0,15.5,0,20.7,0c0,0,0,10.3,0,10.3h10.3
	C253.4,206.9,263.8,206.9,269,206.9z M186.2,258.6h10.3v-10.3h-10.3V258.6z M237.9,258.6c-5.2,0-15.5,0-20.7,0c0,0,0,10.3,0,10.3
	c5.2,0,15.5,0,20.7,0C237.9,269,237.9,258.6,237.9,258.6z M248.3,227.6v-10.3h-10.3c-5.2,0-15.5,0-20.7,0c0,9.2,0,21.8,0,31
	c9.2,0,21.8,0,31,0C248.3,243.1,248.3,232.7,248.3,227.6z M134.5,217.2h-10.3c0,5.2,0,15.5,0,20.7c0,0,10.3,0,10.3,0
	C134.5,232.8,134.5,222.4,134.5,217.2z M62.1,227.6h10.3v10.3c0,5.2,0,15.5,0,20.7c0,9.2,0,21.8,0,31c0,0,0,10.3,0,10.3
	c-5.2,0-15.5,0-20.7,0c-16.6,0-35.1,0-51.7,0c0-13,0-28.4,0-41.4c0-9.2,0-21.8,0-31c5.2,0,15.5,0,20.7,0
	C33.7,227.6,49.1,227.6,62.1,227.6z M62.1,237.9c-13,0-28.4,0-41.4,0c0,0-10.3,0-10.3,0c0,5.2,0,15.5,0,20.7c0,9.2,0,21.8,0,31
	c9.2,0,21.8,0,31,0c5.1,0,15.5,0,20.7,0c0,0,0-10.3,0-10.3C62.1,266.3,62.1,250.9,62.1,237.9z M227.6,237.9h10.3v-10.3h-10.3V237.9z
	 M31,248.3H20.7v10.3c0,5.2,0,15.5,0,20.7c9.2,0,21.8,0,31,0c0-9.2,0-21.8,0-31C46.6,248.3,36.2,248.3,31,248.3z M113.8,248.3v10.3
	h10.3v-10.3H113.8z M124.1,258.6V269h10.3v-10.3H124.1z M103.4,279.3c-5.2,0-15.5,0-20.7,0c0,0,0,10.3,0,10.3c9.2,0,21.8,0,31,0
	c0-5.2,0-15.5,0-20.7c0,0-10.3,0-10.3,0V279.3z M155.2,269v10.3h10.3v10.3h10.3c0-5.2,0-15.5,0-20.7C170.7,269,160.3,269,155.2,269z
	 M144.8,279.3V269h-10.3c0,9.2,0,21.8,0,31c0,0,10.3,0,10.3,0v-10.3h10.3v-10.3H144.8z M300,289.7v-10.3h-10.3v10.3H300z M155.2,300
	h10.3v-10.3h-10.3V300z M186.2,300v-10.3h-10.3V300H186.2z"/>
</svg>
